<svg xmlns="http://www.w3.org/2000/svg" fill="none" viewBox="0 0 14 14"><g id="3d-move"><path id="Vector 2076" stroke="#000000" stroke-linecap="round" stroke-linejoin="round" d="M4.5 9V5c0 -0.27614 0.22386 -0.5 0.5 -0.5h4c0.27614 0 0.5 0.22386 0.5 0.5v4c0 0.27614 -0.22386 0.5 -0.5 0.5H5c-0.27614 0 -0.5 -0.22386 -0.5 -0.5Z" stroke-width="1"></path><path id="Vector 2078" stroke="#000000" stroke-linecap="round" stroke-linejoin="round" d="m7 0.5 0 4" stroke-width="1"></path><path id="Vector 2080" stroke="#000000" stroke-linecap="round" stroke-linejoin="round" d="m13.5 7 -4 0" stroke-width="1"></path><path id="Vector 2079" stroke="#000000" stroke-linecap="round" stroke-linejoin="round" d="M5.5 2 7 0.5 8.5 2" stroke-width="1"></path><path id="Vector 2081" stroke="#000000" stroke-linecap="round" stroke-linejoin="round" d="M12 5.5 13.5 7 12 8.5" stroke-width="1"></path><path id="Vector 2082" stroke="#000000" stroke-linecap="round" stroke-linejoin="round" d="m7 13.5 0 -4" stroke-width="1"></path><path id="Vector 2083" stroke="#000000" stroke-linecap="round" stroke-linejoin="round" d="m0.5 7 4 0" stroke-width="1"></path><path id="Vector 2084" stroke="#000000" stroke-linecap="round" stroke-linejoin="round" d="M8.5 12 7 13.5 5.5 12" stroke-width="1"></path><path id="Vector 2085" stroke="#000000" stroke-linecap="round" stroke-linejoin="round" d="M2 8.5 0.5 7 2 5.5" stroke-width="1"></path></g></svg>