<svg xmlns="http://www.w3.org/2000/svg" fill="none" viewBox="0 0 14 14"><g id="add-call--add-call-plus-android-phone-device"><path id="Vector" stroke="#000000" stroke-linecap="round" stroke-linejoin="round" d="M6.52933 12.8231c-0.5184 0.3338 -1.13544 0.4801 -1.74852 0.4146 -0.61309 -0.0655 -1.18529 -0.3388 -1.62148 -0.7746l-0.38 -0.38c-0.16855 -0.1704 -0.26309 -0.4004 -0.26309 -0.64 0 -0.2397 0.09454 -0.4696 0.26309 -0.64l1.6 -1.59002c0.16867 -0.16793 0.39699 -0.26221 0.635 -0.26221s0.46633 0.09428 0.635 0.26221v0c0.17037 0.16855 0.40035 0.26309 0.64 0.26309 0.23965 0 0.46963 -0.09454 0.64 -0.26309l2.55 -2.55c0.16855 -0.17036 0.26308 -0.40034 0.26308 -0.64 0 -0.23965 -0.09453 -0.46963 -0.26308 -0.64v0c-0.16793 -0.16866 -0.26221 -0.39698 -0.26221 -0.635 0 -0.23801 0.09428 -0.46633 0.26221 -0.635l1.53997 -1.6c0.1704 -0.16854 0.4004 -0.26308 0.64 -0.26308 0.2397 0 0.4697 0.09454 0.64 0.26308l0.38 0.38c0.4436 0.43004 0.7263 0.9992 0.8009 1.61251 0.0746 0.6133 -0.0633 1.23364 -0.3909 1.75749 -1.7437 2.58879 -3.97119 4.81632 -6.55997 6.56002v0Z" stroke-width="1"></path><path id="Vector_2" stroke="#000000" stroke-linecap="round" stroke-linejoin="round" d="M3.25 0.5V6" stroke-width="1"></path><path id="Vector_3" stroke="#000000" stroke-linecap="round" stroke-linejoin="round" d="M0.5 3.25H6" stroke-width="1"></path></g></svg>