<svg xmlns="http://www.w3.org/2000/svg" fill="none" viewBox="0 0 14 14"><g id="add-reaction-sticker-emoji"><path id="vector" stroke="#000000" stroke-linecap="round" stroke-linejoin="round" d="M3.39258 7.19666c0.44231 1.5923 2.21154 2.56538 3.80384 2.12307 0.97308 -0.35384 1.76924 -1.15 2.03462 -2.12307" stroke-width="1"></path><g id="group 623"><path id="vector_2" stroke="#000000" stroke-linecap="round" stroke-linejoin="round" d="M4.32186 4.98576c-0.12214 0 -0.22115 -0.09901 -0.22115 -0.22115 0 -0.12214 0.09901 -0.22115 0.22115 -0.22115" stroke-width="1"></path><path id="vector_3" stroke="#000000" stroke-linecap="round" stroke-linejoin="round" d="M4.32267 4.98576c0.12214 0 0.22115 -0.09901 0.22115 -0.22115 0 -0.12214 -0.09901 -0.22115 -0.22115 -0.22115" stroke-width="1"></path></g><g id="group 624"><path id="vector_4" stroke="#000000" stroke-linecap="round" stroke-linejoin="round" d="M8.30477 4.98576c-0.12214 0 -0.22115 -0.09901 -0.22115 -0.22115 0 -0.12214 0.09901 -0.22115 0.22115 -0.22115" stroke-width="1"></path><path id="vector_5" stroke="#000000" stroke-linecap="round" stroke-linejoin="round" d="M8.30558 4.98576c0.12214 0 0.22115 -0.09901 0.22115 -0.22115 0 -0.12214 -0.09901 -0.22115 -0.22115 -0.22115" stroke-width="1"></path></g><path id="vector_6" stroke="#000000" stroke-linecap="round" stroke-linejoin="round" d="M12.0625 6.3125c0 -3.17564 -2.57436 -5.75 -5.75 -5.75s-5.75 2.57436 -5.75 5.75 2.57436 5.75 5.75 5.75" stroke-width="1"></path><g id="group 4552"><path id="vector_7" stroke="#000000" stroke-linecap="round" stroke-linejoin="round" d="M11.373 9.42676v4.00004" stroke-width="1"></path><path id="vector_8" stroke="#000000" stroke-linecap="round" stroke-linejoin="round" d="M9.43555 11.3701h3.99995" stroke-width="1"></path></g></g></svg>