<svg xmlns="http://www.w3.org/2000/svg" fill="none" viewBox="0 0 14 14"><g id="add-2--remove-bold-cross-buttons-button-add-plus-+-mathematics-math"><path id="Vector 3874" stroke="#000000" stroke-linecap="round" stroke-linejoin="round" d="M5.25 5.25V1.5c0 -0.27614 0.22386 -0.5 0.5 -0.5h2.5c0.27614 0 0.5 0.22386 0.5 0.5v3.75h3.75c0.2761 0 0.5 0.22386 0.5 0.5v2.5c0 0.27614 -0.2239 0.5 -0.5 0.5H8.75v3.75c0 0.2761 -0.22386 0.5 -0.5 0.5h-2.5c-0.27614 0 -0.5 -0.2239 -0.5 -0.5V8.75H1.5c-0.27614 0 -0.5 -0.22386 -0.5 -0.5v-2.5c0 -0.27614 0.22386 -0.5 0.5 -0.5h3.75Z" stroke-width="1"></path></g></svg>