<svg xmlns="http://www.w3.org/2000/svg" fill="none" viewBox="0 0 14 14"><g id="add-to-playlist--add-to-playlist-song-entertainment"><path id="vector" stroke="#000000" stroke-linecap="round" stroke-linejoin="round" d="M2.09674 13.5c0.88186 0 1.59674 -0.7149 1.59674 -1.5967 0 -0.8819 -0.71488 -1.5968 -1.59674 -1.5968C1.21489 10.3065 0.5 11.0214 0.5 11.9033c0 0.8818 0.71489 1.5967 1.59674 1.5967Z" stroke-width="1"></path><path id="vector_2" stroke="#000000" stroke-linecap="round" stroke-linejoin="round" d="M9.28204 11.5041c0.88186 0 1.59676 -0.7149 1.59676 -1.59675 0 -0.88186 -0.7149 -1.59674 -1.59676 -1.59674 -0.88185 0 -1.59674 0.71488 -1.59674 1.59674 0 0.88185 0.71489 1.59675 1.59674 1.59675Z" stroke-width="1"></path><path id="vector_3" stroke="#000000" stroke-linecap="round" stroke-linejoin="round" d="M3.6936 11.9033V5.4205c0.00049 -0.08741 0.02966 -0.17224 0.08302 -0.24146 0.05337 -0.06923 0.12798 -0.11903 0.21238 -0.14176L7.82544 3.9375" stroke-width="1"></path><path id="vector_4" stroke="#000000" stroke-linecap="round" stroke-linejoin="round" d="m3.6936 7.51225 5.00774 -1.39104 0.4683 -0.1231" stroke-width="1"></path><path id="Vector" stroke="#000000" stroke-linecap="round" stroke-linejoin="round" d="M13.5 2.5h-4" stroke-width="1"></path><path id="Vector_2" stroke="#000000" stroke-linecap="round" stroke-linejoin="round" d="M11.5 0.5v4" stroke-width="1"></path><path id="vector_5" stroke="#000000" stroke-linecap="round" stroke-linejoin="round" d="m10.8789 9.90733 0 -3.58928" stroke-width="1"></path></g></svg>