<svg xmlns="http://www.w3.org/2000/svg" fill="none" viewBox="0 0 14 14"><g id="ai-browser-spark--app-code-apps-window-website-web-artificial-intelligence-ai"><path id="Vector" stroke="#000000" stroke-linecap="round" stroke-linejoin="round" d="M5.01392 3.45425h-3.5c-0.26522 0 -0.519574 0.10536 -0.707111 0.2929 -0.187536 0.18753 -0.292893 0.44189 -0.292893 0.7071v8.00005c0 0.2652 0.105357 0.5195 0.292893 0.7071 0.187537 0.1875 0.441891 0.2929 0.707111 0.2929h8.99998c0.5523 0 1 -0.4478 1 -1V8.45425" stroke-width="1"></path><path id="Vector_2" stroke="#000000" stroke-linecap="round" stroke-linejoin="round" d="M0.513916 5.95425H7.01392" stroke-width="1"></path><path id="Vector 2136" stroke="#000000" stroke-linecap="round" stroke-linejoin="round" d="M7.40199 3.9797c-0.35093 -0.06106 -0.35093 -0.56483 0 -0.62588 1.27136 -0.22119 2.28255 -1.18955 2.5585 -2.450153l0.02115 -0.096629c0.07596 -0.346833 0.56976 -0.348992 0.64876 -0.002836l0.0256 0.11261c0.2862 1.254658 1.2977 2.214838 2.5655 2.435408 0.3527 0.06136 0.3527 0.56771 0 0.62907 -1.2678 0.22057 -2.2793 1.18075 -2.5655 2.43541l-0.0256 0.11261c-0.079 0.34616 -0.5728 0.344 -0.64876 -0.00284l-0.02115 -0.09662c-0.27595 -1.26061 -1.28714 -2.22897 -2.5585 -2.45015Z" stroke-width="1"></path></g></svg>