<svg xmlns="http://www.w3.org/2000/svg" fill="none" viewBox="0 0 14 14"><g id="ai-chat-bot--artificial-robotics-intelligence-machine-technology-android-ai-chat-bot-robot"><path id="Vector" stroke="#000000" stroke-linecap="round" stroke-linejoin="round" d="M12.5 0.5h-11C1.23478 0.5 0.98043 0.605357 0.792893 0.792893 0.605357 0.98043 0.5 1.23478 0.5 1.5V10c0 0.2652 0.105357 0.5196 0.292893 0.7071C0.98043 10.8946 1.23478 11 1.5 11h2v2.5L6.62 11h5.88c0.2652 0 0.5196 -0.1054 0.7071 -0.2929S13.5 10.2652 13.5 10V1.5c0 -0.26522 -0.1054 -0.51957 -0.2929 -0.707107C13.0196 0.605357 12.7652 0.5 12.5 0.5Z" stroke-width="1"></path><g id="Group 625"><path id="Vector_2" stroke="#000000" stroke-linecap="round" stroke-linejoin="round" d="M5.79199 6.35425c-0.13807 0 -0.25 -0.11193 -0.25 -0.25s0.11193 -0.25 0.25 -0.25" stroke-width="1"></path><path id="Vector_3" stroke="#000000" stroke-linecap="round" stroke-linejoin="round" d="M5.79199 6.35425c0.13807 0 0.25 -0.11193 0.25 -0.25s-0.11193 -0.25 -0.25 -0.25" stroke-width="1"></path></g><g id="Group 626"><path id="Vector_4" stroke="#000000" stroke-linecap="round" stroke-linejoin="round" d="M8.20801 6.35425c-0.13807 0 -0.25 -0.11193 -0.25 -0.25s0.11193 -0.25 0.25 -0.25" stroke-width="1"></path><path id="Vector_5" stroke="#000000" stroke-linecap="round" stroke-linejoin="round" d="M8.20801 6.35425c0.13807 0 0.25 -0.11193 0.25 -0.25s-0.11193 -0.25 -0.25 -0.25" stroke-width="1"></path></g><path id="Vector 2396" stroke="#000000" stroke-linecap="round" stroke-linejoin="round" d="M3.75 7.75V5c0 -0.55228 0.44772 -1 1 -1h4.5c0.55228 0 1 0.44772 1 1v2.75c0 0.55228 -0.44772 1 -1 1h-4.5c-0.55228 0 -1 -0.44772 -1 -1Z" stroke-width="1"></path><path id="Vector 2397" stroke="#000000" stroke-linecap="round" stroke-linejoin="round" d="M7 2.75V4" stroke-width="1"></path></g></svg>