<svg xmlns="http://www.w3.org/2000/svg" fill="none" viewBox="0 0 14 14"><g id="ai-chip-robot--chip-processor-artificial-intelligence-ai"><path id="Vector 893" stroke="#000000" stroke-linecap="round" stroke-linejoin="round" d="m2.5 8.83325 -1.821391 0" stroke-width="1"></path><path id="Vector 896" stroke="#000000" stroke-linecap="round" stroke-linejoin="round" d="m13.3213 8.83325 -1.8214 0" stroke-width="1"></path><path id="Vector 895" stroke="#000000" stroke-linecap="round" stroke-linejoin="round" d="m2.5 5.16675 -1.821391 0" stroke-width="1"></path><path id="Vector 897" stroke="#000000" stroke-linecap="round" stroke-linejoin="round" d="m13.3213 5.16675 -1.8214 0" stroke-width="1"></path><path id="Vector 898" stroke="#000000" stroke-linecap="round" stroke-linejoin="round" d="m5.16675 2.5 0 -1.821391" stroke-width="1"></path><path id="Vector 899" stroke="#000000" stroke-linecap="round" stroke-linejoin="round" d="m5.16675 13.3213 0 -1.8214" stroke-width="1"></path><path id="Vector 900" stroke="#000000" stroke-linecap="round" stroke-linejoin="round" d="m8.83325 2.5 0 -1.821391" stroke-width="1"></path><path id="Vector 901" stroke="#000000" stroke-linecap="round" stroke-linejoin="round" d="m8.83325 13.3213 0 -1.8214" stroke-width="1"></path><path id="Vector" stroke="#000000" stroke-linecap="round" stroke-linejoin="round" d="M10.5 2.5h-7c-0.55228 0 -1 0.44772 -1 1v7c0 0.5523 0.44772 1 1 1h7c0.5523 0 1 -0.4477 1 -1v-7c0 -0.55228 -0.4477 -1 -1 -1Z" stroke-width="1"></path><path id="Rectangle 721" stroke="#000000" stroke-linecap="round" stroke-linejoin="round" d="M4.25 8.5c0 -1.51878 1.23122 -2.75 2.75 -2.75v0c1.51878 0 2.75 1.23122 2.75 2.75v0.25c0 0.55228 -0.44772 1 -1 1h-3.5c-0.55228 0 -1 -0.44772 -1 -1V8.5Z" stroke-width="1"></path><g id="Group 627"><path id="Vector_2" stroke="#000000" stroke-linecap="round" stroke-linejoin="round" d="M6 8.25c-0.13807 0 -0.25 -0.11193 -0.25 -0.25s0.11193 -0.25 0.25 -0.25" stroke-width="1"></path><path id="Vector_3" stroke="#000000" stroke-linecap="round" stroke-linejoin="round" d="M6 8.25c0.13807 0 0.25 -0.11193 0.25 -0.25s-0.11193 -0.25 -0.25 -0.25" stroke-width="1"></path></g><g id="Group 628"><path id="Vector_4" stroke="#000000" stroke-linecap="round" stroke-linejoin="round" d="M8 8.25c-0.13807 0 -0.25 -0.11193 -0.25 -0.25s0.11193 -0.25 0.25 -0.25" stroke-width="1"></path><path id="Vector_5" stroke="#000000" stroke-linecap="round" stroke-linejoin="round" d="M8 8.25c0.13807 0 0.25 -0.11193 0.25 -0.25s-0.11193 -0.25 -0.25 -0.25" stroke-width="1"></path></g><path id="Vector 2678" stroke="#000000" stroke-linecap="round" stroke-linejoin="round" d="M7 5.75v-1.5" stroke-width="1"></path></g></svg>