<svg xmlns="http://www.w3.org/2000/svg" fill="none" viewBox="0 0 14 14"><g id="ai-database-spark--network-data-information-storage-artificial-intelligence-ai"><path id="Vector" stroke="#000000" stroke-linecap="round" stroke-linejoin="round" d="M6.07642 4.75898c3.03756 0 5.49998 -0.94916 5.49998 -2.12s-2.46242 -2.12 -5.49998 -2.12c-3.03757 0 -5.500004 0.94916 -5.500004 2.12s2.462434 2.12 5.500004 2.12Z" stroke-width="1"></path><path id="Vector_2" stroke="#000000" stroke-linecap="round" stroke-linejoin="round" d="M11.5764 5.5191v-2.88" stroke-width="1"></path><path id="Vector_3" stroke="#000000" stroke-linecap="round" stroke-linejoin="round" d="M0.576416 2.6391v6.76c0 1.0367 1.919354 1.8678 4.457284 2.0729" stroke-width="1"></path><path id="Vector_4" stroke="#000000" stroke-linecap="round" stroke-linejoin="round" d="m7.07642 8.09898 -1 0c-3 0.04 -5.500004 -0.91 -5.500004 -2.08" stroke-width="1"></path><path id="Vector 2136" stroke="#000000" stroke-linecap="round" stroke-linejoin="round" d="M7.33961 10.6729c-0.35093 -0.061 -0.35093 -0.5648 0 -0.6258 1.27136 -0.22121 2.28255 -1.18957 2.5585 -2.45018l0.02115 -0.09663c0.07593 -0.34683 0.56974 -0.34899 0.64874 -0.00283l0.0257 0.11261c0.2861 1.25465 1.2976 2.21484 2.5654 2.43543 0.3527 0.0613 0.3527 0.5677 0 0.629 -1.2678 0.2206 -2.2793 1.1808 -2.5654 2.4355l-0.0257 0.1126c-0.079 0.3461 -0.57281 0.344 -0.64874 -0.0029l-0.02115 -0.0966c-0.27595 -1.2606 -1.28714 -2.229 -2.5585 -2.4502Z" stroke-width="1"></path></g></svg>