<svg xmlns="http://www.w3.org/2000/svg" fill="none" viewBox="0 0 14 14"><g id="ai-email-generator-spark--mail-envelope-inbox-artificial-intelligence-ai"><path id="Vector" stroke="#000000" stroke-linecap="round" stroke-linejoin="round" d="M5.07635 9.54554h-3.5c-0.26521 0 -0.51957 -0.10535 -0.707102 -0.29289 -0.187536 -0.18754 -0.292893 -0.44189 -0.292893 -0.70711v-7c0 -0.26521 0.105357 -0.51957 0.292893 -0.707103 0.187532 -0.187536 0.441892 -0.292893 0.707102 -0.292893H11.5764c0.2652 0 0.5195 0.105357 0.7071 0.292893 0.1875 0.187533 0.2929 0.441893 0.2929 0.707103v4.5" stroke-width="1"></path><path id="Vector_2" stroke="#000000" stroke-linecap="round" stroke-linejoin="round" d="m0.576355 1.80555 5.999995 4.24 6.00005 -4.24" stroke-width="1"></path><path id="Vector 2136" stroke="#000000" stroke-linecap="round" stroke-linejoin="round" d="M7.33955 10.6464c-0.35093 -0.0611 -0.35093 -0.5648 0 -0.6259 1.27136 -0.22117 2.28255 -1.18954 2.5585 -2.45014l0.02115 -0.09663c0.07593 -0.34683 0.5698 -0.34899 0.6487 -0.00283l0.0257 0.1126c0.2862 1.25466 1.2976 2.21485 2.5655 2.4354 0.3527 0.0614 0.3527 0.5677 0 0.6291 -1.2679 0.2206 -2.2793 1.1807 -2.5655 2.4354l-0.0257 0.1126c-0.0789 0.3462 -0.57277 0.344 -0.6487 -0.0028l-0.02115 -0.0967c-0.27595 -1.2606 -1.28714 -2.2289 -2.5585 -2.4501Z" stroke-width="1"></path></g></svg>