<svg xmlns="http://www.w3.org/2000/svg" fill="none" viewBox="0 0 14 14"><g id="ai-edit-robot--change-edit-modify-pencil-write-writing-artificial-intelligence-ai"><path id="Vector" stroke="#000000" stroke-linecap="round" stroke-linejoin="round" d="m7 13.2399 -3 0.26 0.26 -3 6.24 -6.2c0.0931 -0.09525 0.2044 -0.17093 0.3271 -0.22259 0.1228 -0.05167 0.2547 -0.07829 0.3879 -0.07829 0.1332 0 0.2651 0.02662 0.3879 0.07829 0.1227 0.05166 0.234 0.12734 0.3271 0.22259l1.27 1.28c0.0937 0.09296 0.1681 0.20356 0.2189 0.32542 0.0508 0.12186 0.0769 0.25257 0.0769 0.38458 0 0.13201 -0.0261 0.26272 -0.0769 0.38458 -0.0508 0.12185 -0.1252 0.23246 -0.2189 0.32542l-6.2 6.24Z" stroke-width="1"></path><path id="Rectangle 722" stroke="#000000" stroke-linecap="round" stroke-linejoin="round" d="M0.5 5c0 -1.65685 1.34315 -3 3 -3v0c1.65685 0 3 1.34315 3 3v0.5c0 0.55228 -0.44772 1 -1 1h-4c-0.552285 0 -1 -0.44772 -1 -1V5Z" stroke-width="1"></path><g id="Group 629"><path id="Vector_2" stroke="#000000" stroke-linecap="round" stroke-linejoin="round" d="M2.25 4.75c-0.13807 0 -0.25 -0.11193 -0.25 -0.25s0.11193 -0.25 0.25 -0.25" stroke-width="1"></path><path id="Vector_3" stroke="#000000" stroke-linecap="round" stroke-linejoin="round" d="M2.25 4.75c0.13807 0 0.25 -0.11193 0.25 -0.25s-0.11193 -0.25 -0.25 -0.25" stroke-width="1"></path></g><g id="Group 630"><path id="Vector_4" stroke="#000000" stroke-linecap="round" stroke-linejoin="round" d="M4.75 4.75c-0.13807 0 -0.25 -0.11193 -0.25 -0.25s0.11193 -0.25 0.25 -0.25" stroke-width="1"></path><path id="Vector_5" stroke="#000000" stroke-linecap="round" stroke-linejoin="round" d="M4.75 4.75c0.13807 0 0.25 -0.11193 0.25 -0.25s-0.11193 -0.25 -0.25 -0.25" stroke-width="1"></path></g><path id="Vector 2679" stroke="#000000" stroke-linecap="round" stroke-linejoin="round" d="M3.5 2V0.5" stroke-width="1"></path></g></svg>