<svg xmlns="http://www.w3.org/2000/svg" fill="none" viewBox="0 0 14 14"><g id="ai-folder-robot--file-directory-artificial-intelligence-ai"><path id="Vector" stroke="#000000" stroke-linecap="round" stroke-linejoin="round" d="M13.5 7.5V3.50042c0 -0.26521 -0.1054 -0.51957 -0.2929 -0.7071 -0.1875 -0.18754 -0.4419 -0.2929 -0.7071 -0.2929h-6l-0.31 -1.24c-0.05475 -0.22187 -0.18385 -0.418301 -0.36579 -0.556582C5.64226 0.565557 5.41843 0.493769 5.19 0.500424H1.5c-0.26522 0 -0.51957 0.105357 -0.707107 0.292894C0.605357 0.980854 0.5 1.23521 0.5 1.50042V12.0004c0 0.2652 0.105357 0.5196 0.292893 0.7071 0.187537 0.1876 0.441887 0.2929 0.707107 0.2929L5.5 13" stroke-width="1"></path><path id="Rectangle 721" stroke="#000000" stroke-linecap="round" stroke-linejoin="round" d="M7.5 12c0 -1.6569 1.34315 -3 3 -3v0c1.6569 0 3 1.3431 3 3v0.5c0 0.5523 -0.4477 1 -1 1h-4c-0.55228 0 -1 -0.4477 -1 -1V12Z" stroke-width="1"></path><g id="Group 627"><path id="Vector_2" stroke="#000000" stroke-linecap="round" stroke-linejoin="round" d="M9.25 11.75c-0.13807 0 -0.25 -0.1119 -0.25 -0.25s0.11193 -0.25 0.25 -0.25" stroke-width="1"></path><path id="Vector_3" stroke="#000000" stroke-linecap="round" stroke-linejoin="round" d="M9.25 11.75c0.13807 0 0.25 -0.1119 0.25 -0.25s-0.11193 -0.25 -0.25 -0.25" stroke-width="1"></path></g><g id="Group 628"><path id="Vector_4" stroke="#000000" stroke-linecap="round" stroke-linejoin="round" d="M11.75 11.75c-0.1381 0 -0.25 -0.1119 -0.25 -0.25s0.1119 -0.25 0.25 -0.25" stroke-width="1"></path><path id="Vector_5" stroke="#000000" stroke-linecap="round" stroke-linejoin="round" d="M11.75 11.75c0.1381 0 0.25 -0.1119 0.25 -0.25s-0.1119 -0.25 -0.25 -0.25" stroke-width="1"></path></g><path id="Vector 2678" stroke="#000000" stroke-linecap="round" stroke-linejoin="round" d="M10.5 9V7.5" stroke-width="1"></path></g></svg>