<svg xmlns="http://www.w3.org/2000/svg" fill="none" viewBox="0 0 14 14"><g id="ai-folder-spark--file-directory-artificial-intelligence-ai"><path id="Vector" stroke="#000000" stroke-linecap="round" stroke-linejoin="round" d="M13.5 7.5V3.50042c0 -0.26521 -0.1054 -0.51957 -0.2929 -0.7071 -0.1875 -0.18754 -0.4419 -0.2929 -0.7071 -0.2929h-6l-0.31 -1.24c-0.05475 -0.22187 -0.18385 -0.418301 -0.36579 -0.556582C5.64226 0.565557 5.41843 0.493769 5.19 0.500424H1.5c-0.26522 0 -0.51957 0.105357 -0.707107 0.292894C0.605357 0.980854 0.5 1.23521 0.5 1.50042V12.0004c0 0.2652 0.105357 0.5196 0.292893 0.7071 0.187537 0.1876 0.441887 0.2929 0.707107 0.2929L7 13" stroke-width="1"></path><path id="Vector 2136" stroke="#000000" stroke-linecap="round" stroke-linejoin="round" d="M7.2632 10.6919c-0.35093 -0.061 -0.35093 -0.5648 0 -0.6258 1.27135 -0.22123 2.28254 -1.18959 2.55849 -2.4502l0.02116 -0.09663c0.07592 -0.34683 0.56975 -0.34899 0.64875 -0.00283l0.0257 0.11261c0.2861 1.25465 1.2976 2.21484 2.5654 2.43545 0.3527 0.0613 0.3527 0.5677 0 0.629 -1.2678 0.2206 -2.2793 1.1808 -2.5654 2.4354l-0.0257 0.1126c-0.079 0.3462 -0.57283 0.344 -0.64875 -0.0028l-0.02116 -0.0966c-0.27595 -1.2606 -1.28714 -2.229 -2.55849 -2.4502Z" stroke-width="1"></path></g></svg>