<svg xmlns="http://www.w3.org/2000/svg" fill="none" viewBox="0 0 14 14"><g id="ai-generate-voice-robot-2--mic-audio-mike-microphone-artificial-intelligence-ai"><path id="Rectangle 721" stroke="#000000" stroke-linecap="round" stroke-linejoin="round" d="M7.5 5c0 -1.65685 1.34315 -3 3 -3v0c1.6569 0 3 1.34315 3 3v0.5c0 0.55228 -0.4477 1 -1 1h-4c-0.55228 0 -1 -0.44772 -1 -1V5Z" stroke-width="1"></path><g id="Group 627"><path id="Vector" stroke="#000000" stroke-linecap="round" stroke-linejoin="round" d="M9.25 4.75c-0.13807 0 -0.25 -0.11193 -0.25 -0.25s0.11193 -0.25 0.25 -0.25" stroke-width="1"></path><path id="Vector_2" stroke="#000000" stroke-linecap="round" stroke-linejoin="round" d="M9.25 4.75c0.13807 0 0.25 -0.11193 0.25 -0.25s-0.11193 -0.25 -0.25 -0.25" stroke-width="1"></path></g><g id="Group 628"><path id="Vector_3" stroke="#000000" stroke-linecap="round" stroke-linejoin="round" d="M11.75 4.75c-0.1381 0 -0.25 -0.11193 -0.25 -0.25s0.1119 -0.25 0.25 -0.25" stroke-width="1"></path><path id="Vector_4" stroke="#000000" stroke-linecap="round" stroke-linejoin="round" d="M11.75 4.75c0.1381 0 0.25 -0.11193 0.25 -0.25s-0.1119 -0.25 -0.25 -0.25" stroke-width="1"></path></g><path id="Vector 2678" stroke="#000000" stroke-linecap="round" stroke-linejoin="round" d="M10.5 2V0.5" stroke-width="1"></path><path id="Vector 2679" stroke="#000000" stroke-linecap="round" stroke-linejoin="round" d="M0.5 8.5c0 2.2091 1.79086 4 4 4 1.92862 0 3.53845 -1.3649 3.91618 -3.18149" stroke-width="1"></path><path id="Rectangle 722" stroke="#000000" stroke-linecap="round" stroke-linejoin="round" d="M6.5 7.5v1c0 1.10457 -0.89543 2 -2 2s-2 -0.89543 -2 -2V6c0 -1.10457 0.89543 -2 2 -2 0.36429 0 0.70583 0.09739 1 0.26756" stroke-width="1"></path><path id="Vector 2680" stroke="#000000" stroke-linecap="round" stroke-linejoin="round" d="M4.5 12.5v1" stroke-width="1"></path></g></svg>