<svg xmlns="http://www.w3.org/2000/svg" fill="none" viewBox="0 0 14 14"><g id="ai-gaming-robot--remote-control-controller-technology-artificial-intelligence-ai"><path id="Rectangle 721" stroke="#000000" stroke-linecap="round" stroke-linejoin="round" d="M7.5 5c0 -1.65685 1.34315 -3 3 -3v0c1.6569 0 3 1.34315 3 3v0.5c0 0.55228 -0.4477 1 -1 1h-4c-0.55228 0 -1 -0.44772 -1 -1V5Z" stroke-width="1"></path><g id="Group 627"><path id="Vector" stroke="#000000" stroke-linecap="round" stroke-linejoin="round" d="M9.25 4.75c-0.13807 0 -0.25 -0.11193 -0.25 -0.25s0.11193 -0.25 0.25 -0.25" stroke-width="1"></path><path id="Vector_2" stroke="#000000" stroke-linecap="round" stroke-linejoin="round" d="M9.25 4.75c0.13807 0 0.25 -0.11193 0.25 -0.25s-0.11193 -0.25 -0.25 -0.25" stroke-width="1"></path></g><g id="Group 628"><path id="Vector_3" stroke="#000000" stroke-linecap="round" stroke-linejoin="round" d="M11.75 4.75c-0.1381 0 -0.25 -0.11193 -0.25 -0.25s0.1119 -0.25 0.25 -0.25" stroke-width="1"></path><path id="Vector_4" stroke="#000000" stroke-linecap="round" stroke-linejoin="round" d="M11.75 4.75c0.1381 0 0.25 -0.11193 0.25 -0.25s-0.1119 -0.25 -0.25 -0.25" stroke-width="1"></path></g><path id="Vector 2678" stroke="#000000" stroke-linecap="round" stroke-linejoin="round" d="M10.5 2V0.5" stroke-width="1"></path><path id="Vector 693" stroke="#000000" stroke-linecap="round" stroke-linejoin="round" d="M4.40015 7.01929v2.31089" stroke-width="1"></path><path id="Vector 694" stroke="#000000" stroke-linecap="round" stroke-linejoin="round" d="m5.55566 8.1748 -2.31089 0" stroke-width="1"></path><path id="Vector 2430" stroke="#000000" stroke-linecap="round" stroke-linejoin="round" d="m5.15492 4.54321 -0.91701 0c-1.52865 0 -2.81284 1.14941 -2.98165 2.66871L0.844068 10.9217c-0.150258 1.3523 0.908312 2.535 2.268952 2.535 0.8647 0 1.65519 -0.4886 2.0419 -1.262l0.3594 -0.7188h2.97116l0.3594 0.7188c0.38671 0.7734 1.17722 1.262 2.04192 1.262 1.3606 0 2.4192 -1.1827 2.2689 -2.535L12.8311 8" stroke-width="1"></path><g id="Group 630"><path id="Vector_5" stroke="#000000" stroke-linecap="round" stroke-linejoin="round" d="M8.73308 8.75248c0 -0.13674 0.11085 -0.2476 0.2476 -0.2476 0.13674 0 0.24759 0.11086 0.24759 0.2476" stroke-width="1"></path><path id="Vector_6" stroke="#000000" stroke-linecap="round" stroke-linejoin="round" d="M8.7332 8.75246c0 0.13674 0.11085 0.24759 0.2476 0.24759 0.13674 0 0.24759 -0.11085 0.24759 -0.24759" stroke-width="1"></path></g></g></svg>