<svg xmlns="http://www.w3.org/2000/svg" fill="none" viewBox="0 0 14 14"><g id="ai-generate-portrait-image-spark--picture-photography-photo-image-artificial-intelligence-ai"><path id="Vector" stroke="#000000" stroke-linecap="round" stroke-linejoin="round" d="M2.77057 8.2864c0.63819 -0.85432 1.65741 -1.4074 2.8058 -1.4074 0.81751 0 1.56956 0.28028 2.1653 0.75" stroke-width="1"></path><path id="Vector_2" stroke="#000000" stroke-linecap="round" stroke-linejoin="round" d="M5.07635 10.629h-3.5c-0.26521 0 -0.51957 -0.1054 -0.707102 -0.2929 -0.187536 -0.1875 -0.292893 -0.44189 -0.292893 -0.7071v-8c0 -0.26522 0.105357 -0.51957 0.292893 -0.707109 0.187532 -0.187536 0.441892 -0.292893 0.707102 -0.292893h8c0.26522 0 0.51955 0.105357 0.70715 0.292893 0.1875 0.187539 0.2929 0.441889 0.2929 0.707109v3" stroke-width="1"></path><path id="Vector_3" stroke="#000000" stroke-linecap="round" stroke-linejoin="round" d="M5.57635 5.379c0.82843 0 1.5 -0.67158 1.5 -1.5 0 -0.82843 -0.67157 -1.5 -1.5 -1.5 -0.82842 0 -1.5 0.67157 -1.5 1.5 0 0.82842 0.67158 1.5 1.5 1.5Z" stroke-width="1"></path><path id="Vector 2136" stroke="#000000" stroke-linecap="round" stroke-linejoin="round" d="M7.33955 10.5629c-0.35093 -0.061 -0.35093 -0.56478 0 -0.62583 1.27136 -0.22118 2.28255 -1.18955 2.5585 -2.45015l0.02115 -0.09663c0.07593 -0.34683 0.5698 -0.34899 0.6487 -0.00284l0.0257 0.11261c0.2862 1.25466 1.2976 2.21484 2.5655 2.43541 0.3527 0.06137 0.3527 0.56773 0 0.62903 -1.2679 0.2206 -2.2793 1.1808 -2.5655 2.4355l-0.0257 0.1126c-0.0789 0.3461 -0.57277 0.344 -0.6487 -0.0029l-0.02115 -0.0966c-0.27595 -1.2606 -1.28714 -2.229 -2.5585 -2.4502Z" stroke-width="1"></path></g></svg>