<svg xmlns="http://www.w3.org/2000/svg" fill="none" viewBox="0 0 14 14"><g id="ai-generate-video-spark--screen-television-display-player-movies-players-tv-media-video-entertainment-artificial-intelligence-ai"><path id="Vector" stroke="#000000" stroke-linecap="round" stroke-linejoin="round" d="M11.0764 5.03979v-3.5c0 -0.55228 -0.4478 -0.999995 -1 -0.999995H1.57635c-0.55228 0 -0.999995 0.447715 -0.999995 0.999995v8.50001c0 0.5523 0.447715 1 0.999995 1h3.5" stroke-width="1"></path><path id="Vector_2" stroke="#000000" stroke-linecap="round" stroke-linejoin="round" d="M3.82627 7.67988v-3.78c-0.00076 -0.06454 0.01585 -0.12809 0.04808 -0.18401 0.03223 -0.05592 0.07891 -0.10215 0.13513 -0.13384 0.05623 -0.03169 0.11995 -0.04768 0.18447 -0.0463 0.06453 0.00138 0.1275 0.02008 0.18232 0.05415l3.27 1.89c0.05391 0.03183 0.09858 0.07716 0.12962 0.13152 0.03103 0.05437 0.04735 0.11588 0.04735 0.17848s-0.01632 0.12412 -0.04735 0.17848c-0.03104 0.05436 -0.07571 0.0997 -0.12962 0.13152l-3.27 1.94c-0.05848 0.03757 -0.12659 0.0574 -0.1961 0.0571 -0.06951 -0.0003 -0.13745 -0.02071 -0.19561 -0.05878 -0.05816 -0.03807 -0.10406 -0.09216 -0.13214 -0.15575 -0.02809 -0.06358 -0.03717 -0.13394 -0.02615 -0.20257Z" stroke-width="1"></path><path id="Vector 2136" stroke="#000000" stroke-linecap="round" stroke-linejoin="round" d="M7.33955 10.6521c-0.35093 -0.061 -0.35093 -0.5648 0 -0.6258 1.27136 -0.22123 2.28255 -1.18959 2.5585 -2.45019l0.02115 -0.09663c0.07593 -0.34684 0.5698 -0.34899 0.6487 -0.00284l0.0257 0.11261c0.2862 1.25466 1.2976 2.21484 2.5655 2.43545 0.3527 0.0613 0.3527 0.5677 0 0.629 -1.2679 0.2206 -2.2793 1.1808 -2.5655 2.4354l-0.0257 0.1126c-0.0789 0.3462 -0.57277 0.344 -0.6487 -0.0028l-0.02115 -0.0966c-0.27595 -1.2606 -1.28714 -2.229 -2.5585 -2.4502Z" stroke-width="1"></path></g></svg>