<svg xmlns="http://www.w3.org/2000/svg" fill="none" viewBox="0 0 14 14"><g id="ai-generate-text-spark--text-paragraph-essay-type-typing-artificial-intelligence-ai"><path id="Vector" stroke="#000000" stroke-linecap="round" stroke-linejoin="round" d="M0.5 4.121H5" stroke-width="1"></path><path id="Vector_2" stroke="#000000" stroke-linecap="round" stroke-linejoin="round" d="M0.5 7.121H5" stroke-width="1"></path><path id="Vector_3" stroke="#000000" stroke-linecap="round" stroke-linejoin="round" d="M0.5 13.121h13" stroke-width="1"></path><path id="Vector_4" stroke="#000000" stroke-linecap="round" stroke-linejoin="round" d="M0.5 10.121h13" stroke-width="1"></path><path id="Vector 2136" stroke="#000000" stroke-linecap="round" stroke-linejoin="round" d="M7.2632 4.31295c-0.35093 -0.06106 -0.35093 -0.56483 0 -0.62588 1.27135 -0.22118 2.28254 -1.18955 2.55849 -2.45015l0.02116 -0.09663c0.07592 -0.346833 0.56975 -0.348992 0.64875 -0.00284l0.0257 0.11261c0.2861 1.25466 1.2976 2.21484 2.5654 2.43541 0.3527 0.06137 0.3527 0.56771 0 0.62907 -1.2678 0.22057 -2.2793 1.18076 -2.5654 2.43541l-0.0257 0.11261c-0.079 0.34616 -0.57283 0.344 -0.64875 -0.00284l-0.02116 -0.09662C9.54574 5.50249 8.53455 4.53413 7.2632 4.31295Z" stroke-width="1"></path></g></svg>