<svg xmlns="http://www.w3.org/2000/svg" fill="none" viewBox="0 0 14 14"><g id="ai-generate-variation-robot--module-application-artificial-intelligence-ai"><path id="Vector" stroke="#000000" stroke-linecap="round" stroke-linejoin="round" d="M5.27652 8.23099H1.09061c-0.271983 0 -0.492465 0.22048 -0.492465 0.49246v4.18595c0 0.2719 0.220482 0.4924 0.492465 0.4924h4.18591c0.27198 0 0.49246 -0.2205 0.49246 -0.4924V8.72345c0 -0.27198 -0.22048 -0.49246 -0.49246 -0.49246Z" stroke-width="1"></path><path id="Vector_2" stroke="#000000" stroke-linecap="round" stroke-linejoin="round" d="M12.9308 8.23099H8.74484c-0.27198 0 -0.49246 0.22048 -0.49246 0.49246v4.18595c0 0.2719 0.22048 0.4924 0.49246 0.4924h4.18596c0.2719 0 0.4924 -0.2205 0.4924 -0.4924V8.72345c0 -0.27198 -0.2205 -0.49246 -0.4924 -0.49246Z" stroke-width="1"></path><path id="Vector_3" stroke="#000000" stroke-linecap="round" stroke-linejoin="round" d="M5.27652 0.576691H1.09061c-0.271983 0 -0.492465 0.220482 -0.492465 0.492459v4.18592c0 0.27197 0.220482 0.49246 0.492465 0.49246h4.18591c0.27198 0 0.49246 -0.22049 0.49246 -0.49246V1.06915c0 -0.271977 -0.22048 -0.492459 -0.49246 -0.492459Z" stroke-width="1"></path><path id="Rectangle 721" stroke="#000000" stroke-linecap="round" stroke-linejoin="round" d="M7.98511 4.78376c0 -1.49588 1.21265 -2.70853 2.70849 -2.70853v0c1.4959 0 2.7086 1.21265 2.7086 2.70853v0.24623c0 0.54396 -0.441 0.98492 -0.9849 0.98492H8.97003c-0.54396 0 -0.98492 -0.44096 -0.98492 -0.98492v-0.24623Z" stroke-width="1"></path><g id="Group 627"><path id="Vector_4" stroke="#000000" stroke-linecap="round" stroke-linejoin="round" d="M9.70869 4.53753c-0.13599 0 -0.24623 -0.11024 -0.24623 -0.24623 0 -0.13598 0.11024 -0.24623 0.24623 -0.24623" stroke-width="1"></path><path id="Vector_5" stroke="#000000" stroke-linecap="round" stroke-linejoin="round" d="M9.70866 4.53753c0.13599 0 0.24624 -0.11024 0.24624 -0.24623 0 -0.13598 -0.11025 -0.24623 -0.24624 -0.24623" stroke-width="1"></path></g><g id="Group 628"><path id="Vector_6" stroke="#000000" stroke-linecap="round" stroke-linejoin="round" d="M11.6785 4.53753c-0.1359 0 -0.2462 -0.11024 -0.2462 -0.24623 0 -0.13598 0.1103 -0.24623 0.2462 -0.24623" stroke-width="1"></path><path id="Vector_7" stroke="#000000" stroke-linecap="round" stroke-linejoin="round" d="M11.6785 4.53753c0.136 0 0.2462 -0.11024 0.2462 -0.24623 0 -0.13598 -0.1102 -0.24623 -0.2462 -0.24623" stroke-width="1"></path></g><path id="Vector 2678" stroke="#000000" stroke-linecap="round" stroke-linejoin="round" d="M10.6936 2.07522V0.597839" stroke-width="1"></path></g></svg>