<svg xmlns="http://www.w3.org/2000/svg" fill="none" viewBox="0 0 14 14"><g id="ai-generate-portrait-image-robot--picture-photography-photo-image-artificial-intelligence-ai"><path id="Vector" stroke="#000000" stroke-linecap="round" stroke-linejoin="round" d="M2.69409 8.1574C3.33229 7.30308 4.3515 6.75 5.49989 6.75c0.81751 0 1.56957 0.28028 2.1653 0.75" stroke-width="1"></path><path id="Vector_2" stroke="#000000" stroke-linecap="round" stroke-linejoin="round" d="M5 10.5H1.5c-0.26522 0 -0.51957 -0.1054 -0.707107 -0.2929C0.605357 10.0196 0.5 9.76522 0.5 9.5v-8c0 -0.26522 0.105357 -0.51957 0.292893 -0.707107C0.98043 0.605357 1.23478 0.5 1.5 0.5h8c0.26522 0 0.5196 0.105357 0.7071 0.292893 0.1875 0.187537 0.2929 0.441887 0.2929 0.707107v4" stroke-width="1"></path><path id="Vector_3" stroke="#000000" stroke-linecap="round" stroke-linejoin="round" d="M5.5 5.25c0.82843 0 1.5 -0.67157 1.5 -1.5s-0.67157 -1.5 -1.5 -1.5S4 2.92157 4 3.75s0.67157 1.5 1.5 1.5Z" stroke-width="1"></path><path id="Rectangle 721" stroke="#000000" stroke-linecap="round" stroke-linejoin="round" d="M7.5 12c0 -1.6569 1.34315 -3 3 -3v0c1.6569 0 3 1.3431 3 3v0.5c0 0.5523 -0.4477 1 -1 1h-4c-0.55228 0 -1 -0.4477 -1 -1V12Z" stroke-width="1"></path><g id="Group 627"><path id="Vector_4" stroke="#000000" stroke-linecap="round" stroke-linejoin="round" d="M9.25 11.75c-0.13807 0 -0.25 -0.1119 -0.25 -0.25s0.11193 -0.25 0.25 -0.25" stroke-width="1"></path><path id="Vector_5" stroke="#000000" stroke-linecap="round" stroke-linejoin="round" d="M9.25 11.75c0.13807 0 0.25 -0.1119 0.25 -0.25s-0.11193 -0.25 -0.25 -0.25" stroke-width="1"></path></g><g id="Group 628"><path id="Vector_6" stroke="#000000" stroke-linecap="round" stroke-linejoin="round" d="M11.75 11.75c-0.1381 0 -0.25 -0.1119 -0.25 -0.25s0.1119 -0.25 0.25 -0.25" stroke-width="1"></path><path id="Vector_7" stroke="#000000" stroke-linecap="round" stroke-linejoin="round" d="M11.75 11.75c0.1381 0 0.25 -0.1119 0.25 -0.25s-0.1119 -0.25 -0.25 -0.25" stroke-width="1"></path></g><path id="Vector 2678" stroke="#000000" stroke-linecap="round" stroke-linejoin="round" d="M10.5 9V7.5" stroke-width="1"></path></g></svg>