<svg xmlns="http://www.w3.org/2000/svg" fill="none" viewBox="0 0 14 14"><g id="ai-gaming-spark--remote-control-controller-technology-artificial-intelligence-ai"><path id="Vector 693" stroke="#000000" stroke-linecap="round" stroke-linejoin="round" d="M4.31155 7.00305v2.3109" stroke-width="1"></path><path id="Vector 694" stroke="#000000" stroke-linecap="round" stroke-linejoin="round" d="m5.46707 8.15857 -2.3109 0" stroke-width="1"></path><path id="Vector 2430" stroke="#000000" stroke-linecap="round" stroke-linejoin="round" d="m5.06642 4.52698 -0.91701 0c-1.52865 0 -2.81284 1.14941 -2.98165 2.6687L0.755567 10.9054c-0.150258 1.3523 0.908303 2.535 2.268953 2.535 0.8647 0 1.65519 -0.4885 2.0419 -1.2619l0.3594 -0.7188h2.97115l0.35941 0.7188c0.38671 0.7734 1.17719 1.2619 2.04192 1.2619 1.3606 0 2.4192 -1.1827 2.2689 -2.535l-0.4122 -3.70972" stroke-width="1"></path><g id="Group 630"><path id="Vector" stroke="#000000" stroke-linecap="round" stroke-linejoin="round" d="M8.64449 8.73624c0 -0.13674 0.11085 -0.24759 0.24759 -0.24759 0.13675 0 0.2476 0.11085 0.2476 0.24759" stroke-width="1"></path><path id="Vector_2" stroke="#000000" stroke-linecap="round" stroke-linejoin="round" d="M8.64458 8.73622c0 0.13675 0.11085 0.2476 0.24759 0.2476 0.13675 0 0.2476 -0.11085 0.2476 -0.2476" stroke-width="1"></path></g><path id="Vector 2136" stroke="#000000" stroke-linecap="round" stroke-linejoin="round" d="M7.1746 3.9935c-0.35092 -0.06105 -0.35093 -0.56482 0 -0.62588C8.44596 3.14644 9.45715 2.17808 9.7331 0.917476l0.02115 -0.096629c0.07593 -0.346833 0.56975 -0.348991 0.64875 -0.002836l0.0257 0.11261c0.2861 1.254659 1.2976 2.214839 2.5654 2.435409 0.3527 0.06136 0.3527 0.56771 0 0.62907 -1.2678 0.22057 -2.2793 1.18075 -2.5654 2.43541l-0.0257 0.11261c-0.079 0.34615 -0.57282 0.34399 -0.64875 -0.00284l-0.02115 -0.09663c-0.27595 -1.2606 -1.28714 -2.22896 -2.5585 -2.45015Z" stroke-width="1"></path></g></svg>