<svg xmlns="http://www.w3.org/2000/svg" fill="none" viewBox="0 0 14 14"><g id="ai-health-spark--app-tracker-heart-well-being-monitoring-artificial-intelligence-ai"><path id="Vector" stroke="#000000" stroke-linecap="round" stroke-linejoin="round" d="M12.8405 6.47731c2.1936 -3.03661 -1.9478 -8.05115 -5.8364 -3.64215 -4.07603 -4.62148 -8.44958 1.09091 -5.47437 4.06612l3.94793 3.57602" stroke-width="1"></path><path id="Vector 2136" stroke="#000000" stroke-linecap="round" stroke-linejoin="round" d="M7.36598 10.0974c-0.35093 -0.061 -0.35093 -0.5648 0 -0.62585 1.27136 -0.22118 2.28255 -1.18954 2.5585 -2.45015l0.02115 -0.09663c0.07597 -0.34683 0.56977 -0.34899 0.64877 -0.00283l0.0256 0.11261c0.2862 1.25465 1.2977 2.21484 2.5655 2.43541 0.3527 0.06136 0.3527 0.56774 0 0.62904 -1.2678 0.2206 -2.2793 1.1808 -2.5655 2.4354l-0.0256 0.1126c-0.079 0.3462 -0.5728 0.344 -0.64877 -0.0028l-0.02115 -0.0966c-0.27595 -1.2606 -1.28714 -2.229 -2.5585 -2.4502Z" stroke-width="1"></path></g></svg>