<svg xmlns="http://www.w3.org/2000/svg" fill="none" viewBox="0 0 14 14"><g id="ai-map-generating-spark--navigation-direction-travel-artificial-intelligence-ai"><path id="Vector" stroke="#000000" stroke-linecap="round" stroke-linejoin="round" d="M11.0206 8.97403v2.74567c0 0.4465 -0.2959 0.8389 -0.7252 0.9616l-2.77477 0.7927 -3.5 -1 -2.22528 0.6358c-0.63881 0.1825 -1.27472 -0.2971 -1.27472 -0.9615V4.55353c0 -0.44648 0.295977 -0.83887 0.72528 -0.96153l2.77472 -0.79278 1.39684 0.3991" stroke-width="1"></path><path id="Vector 2681" stroke="#000000" stroke-linecap="round" stroke-linejoin="round" d="M7.52063 13.474V6.47403" stroke-width="1"></path><path id="Vector 2682" stroke="#000000" stroke-linecap="round" stroke-linejoin="round" d="M4.02063 12.474V2.79922" stroke-width="1"></path><path id="Vector 2136" stroke="#000000" stroke-linecap="round" stroke-linejoin="round" d="M7.39534 3.95992c-0.35093 -0.06105 -0.35093 -0.56483 0 -0.62588C8.6667 3.11286 9.67788 2.1445 9.95384 0.883892l0.02115 -0.09663c0.07591 -0.346832 0.56981 -0.348991 0.64871 -0.002835l0.0257 0.11261c0.2862 1.254653 1.2976 2.214843 2.5654 2.435403 0.3528 0.06137 0.3528 0.56771 0 0.62908 -1.2678 0.22056 -2.2792 1.18075 -2.5654 2.4354l-0.0257 0.11261c-0.0789 0.34616 -0.5728 0.344 -0.64871 -0.00283l-0.02115 -0.09663c-0.27596 -1.2606 -1.28714 -2.22897 -2.5585 -2.45015Z" stroke-width="1"></path></g></svg>