<svg xmlns="http://www.w3.org/2000/svg" fill="none" viewBox="0 0 14 14"><g id="ai-redo-robot--arrow-refresh-sync-synchronize-artificial-intelligence-ai"><path id="Rectangle 721" stroke="#000000" stroke-linecap="round" stroke-linejoin="round" d="M4 7.75c0 -1.65685 1.34315 -3 3 -3v0c1.65685 0 3 1.34315 3 3v0.5c0 0.55228 -0.44772 1 -1 1H5c-0.55228 0 -1 -0.44772 -1 -1v-0.5Z" stroke-width="1"></path><g id="Group 627"><path id="Vector" stroke="#000000" stroke-linecap="round" stroke-linejoin="round" d="M5.75 7.5c-0.13807 0 -0.25 -0.11193 -0.25 -0.25S5.61193 7 5.75 7" stroke-width="1"></path><path id="Vector_2" stroke="#000000" stroke-linecap="round" stroke-linejoin="round" d="M5.75 7.5c0.13807 0 0.25 -0.11193 0.25 -0.25S5.88807 7 5.75 7" stroke-width="1"></path></g><g id="Group 628"><path id="Vector_3" stroke="#000000" stroke-linecap="round" stroke-linejoin="round" d="M8.25 7.5c-0.13807 0 -0.25 -0.11193 -0.25 -0.25S8.11193 7 8.25 7" stroke-width="1"></path><path id="Vector_4" stroke="#000000" stroke-linecap="round" stroke-linejoin="round" d="M8.25 7.5c0.13807 0 0.25 -0.11193 0.25 -0.25S8.38807 7 8.25 7" stroke-width="1"></path></g><path id="Vector 2678" stroke="#000000" stroke-linecap="round" stroke-linejoin="round" d="M7 4.75v-1.5" stroke-width="1"></path><path id="Ellipse 1522" stroke="#000000" stroke-linecap="round" stroke-linejoin="round" d="M13.5 7c0 3.5899 -2.9101 6.5 -6.49999 6.5 -2.70395 0 -5.02228 -1.651 -6.001841 -4" stroke-width="1"></path><path id="Ellipse 1523" stroke="#000000" stroke-linecap="round" stroke-linejoin="round" d="M0.5 7C0.5 3.41015 3.41015 0.5 7 0.5c2.70395 0 5.0223 1.65105 6.0018 4" stroke-width="1"></path><path id="Vector_5" stroke="#000000" stroke-linecap="round" stroke-linejoin="round" d="M13.5 2.5v2h-2" stroke-width="1"></path><path id="Vector_6" stroke="#000000" stroke-linecap="round" stroke-linejoin="round" d="M0.5 11.5v-2h2" stroke-width="1"></path></g></svg>