<svg xmlns="http://www.w3.org/2000/svg" fill="none" viewBox="0 0 14 14"><g id="ai-redo-spark--arrow-refresh-sync-synchronize-artificial-intelligence-ai"><path id="Vector 2136" stroke="#000000" stroke-linecap="round" stroke-linejoin="round" d="M4.08958 7.33373c-0.35093 -0.06105 -0.35093 -0.56483 0 -0.62588 1.27136 -0.22118 2.28255 -1.18954 2.5585 -2.45015l0.02115 -0.09663c0.07593 -0.34683 0.56977 -0.34899 0.64872 -0.00283l0.02569 0.11261c0.28616 1.25465 1.29762 2.21484 2.56545 2.4354 0.35271 0.06137 0.35271 0.56771 0 0.62908 -1.26783 0.22056 -2.27929 1.18075 -2.56545 2.4354l-0.02569 0.11261c-0.07895 0.34616 -0.57279 0.34396 -0.64872 -0.00283l-0.02115 -0.09663c-0.27595 -1.2606 -1.28714 -2.22897 -2.5585 -2.45015Z" stroke-width="1"></path><path id="Ellipse 1522" stroke="#000000" stroke-linecap="round" stroke-linejoin="round" d="M13.5 7c0 3.5899 -2.9101 6.5 -6.49999 6.5 -2.70395 0 -5.02228 -1.651 -6.001841 -4" stroke-width="1"></path><path id="Ellipse 1523" stroke="#000000" stroke-linecap="round" stroke-linejoin="round" d="M0.5 7C0.5 3.41015 3.41015 0.5 7 0.5c2.70395 0 5.0223 1.65105 6.0018 4" stroke-width="1"></path><path id="Vector" stroke="#000000" stroke-linecap="round" stroke-linejoin="round" d="M13.5 2.5v2h-2" stroke-width="1"></path><path id="Vector_2" stroke="#000000" stroke-linecap="round" stroke-linejoin="round" d="M0.5 11.5v-2h2" stroke-width="1"></path></g></svg>