<svg xmlns="http://www.w3.org/2000/svg" fill="none" viewBox="0 0 14 14"><g id="ai-science-robot--atom-scientific-experiment-artificial-intelligence-ai"><path id="Ellipse 969" stroke="#000000" stroke-linecap="round" stroke-linejoin="round" d="M5.5 8c0 0.27614 0.22386 0.5 0.5 0.5s0.5 -0.22386 0.5 -0.5 -0.22386 -0.5 -0.5 -0.5 -0.5 0.22386 -0.5 0.5Z" stroke-width="1"></path><path id="Rectangle 721" stroke="#000000" stroke-linecap="round" stroke-linejoin="round" d="M7.5 5c0 -1.65685 1.34315 -3 3 -3v0c1.6569 0 3 1.34315 3 3v0.5c0 0.55228 -0.4477 1 -1 1h-4c-0.55228 0 -1 -0.44772 -1 -1V5Z" stroke-width="1"></path><g id="Group 627"><path id="Vector" stroke="#000000" stroke-linecap="round" stroke-linejoin="round" d="M9.25 4.75c-0.13807 0 -0.25 -0.11193 -0.25 -0.25s0.11193 -0.25 0.25 -0.25" stroke-width="1"></path><path id="Vector_2" stroke="#000000" stroke-linecap="round" stroke-linejoin="round" d="M9.25 4.75c0.13807 0 0.25 -0.11193 0.25 -0.25s-0.11193 -0.25 -0.25 -0.25" stroke-width="1"></path></g><g id="Group 628"><path id="Vector_3" stroke="#000000" stroke-linecap="round" stroke-linejoin="round" d="M11.75 4.75c-0.1381 0 -0.25 -0.11193 -0.25 -0.25s0.1119 -0.25 0.25 -0.25" stroke-width="1"></path><path id="Vector_4" stroke="#000000" stroke-linecap="round" stroke-linejoin="round" d="M11.75 4.75c0.1381 0 0.25 -0.11193 0.25 -0.25s-0.1119 -0.25 -0.25 -0.25" stroke-width="1"></path></g><path id="Vector 2678" stroke="#000000" stroke-linecap="round" stroke-linejoin="round" d="M10.5 2V0.5" stroke-width="1"></path><path id="Ellipse 967" stroke="#000000" stroke-linecap="round" stroke-linejoin="round" d="M6 4.38354c-0.64173 0.48344 -1.29436 1.04949 -1.93066 1.68579C1.22595 8.91272 -0.214687 12.0821 0.851585 13.1484 1.91786 14.2147 5.08727 12.774 7.93066 9.93064c0.63629 -0.6363 1.20235 -1.28892 1.68578 -1.93065" stroke-width="1"></path><path id="Ellipse 968" stroke="#000000" stroke-linecap="round" stroke-linejoin="round" d="M9.61644 8c1.67686 2.2259 2.35966 4.3208 1.53196 5.1484 -1.0663 1.0663 -4.23567 -0.3744 -7.07906 -3.21774C1.22595 7.08726 -0.214687 3.91786 0.851585 2.85158 1.67924 2.02393 3.77407 2.70672 6 4.38356" stroke-width="1"></path></g></svg>