<svg xmlns="http://www.w3.org/2000/svg" fill="none" viewBox="0 0 14 14"><g id="ai-scanner-spark--scan-scanning-artificial-intelligence-ai"><path id="Vector 233" stroke="#000000" stroke-linecap="round" stroke-linejoin="round" d="M0.5 3.43981V1.42857C0.5 0.915736 0.915736 0.5 1.42857 0.5h2.01124" stroke-width="1"></path><path id="Vector 234" stroke="#000000" stroke-linecap="round" stroke-linejoin="round" d="M10.5603 0.5h2.0112c0.5129 0 0.9286 0.415736 0.9286 0.92857v2.01124" stroke-width="1"></path><path id="Vector 235" stroke="#000000" stroke-linecap="round" stroke-linejoin="round" d="M0.5 10.5602v2.0112c0 0.5129 0.415736 0.9286 0.92857 0.9286h2.01124" stroke-width="1"></path><path id="Vector 236" stroke="#000000" stroke-linecap="round" stroke-linejoin="round" d="M13.5001 10.5602v2.0112c0 0.5129 -0.4157 0.9286 -0.9286 0.9286h-2.0112" stroke-width="1"></path><path id="Vector 2136" stroke="#000000" stroke-linecap="round" stroke-linejoin="round" d="M3.4186 7.38509c-0.43183 -0.07513 -0.43183 -0.69505 0 -0.77018 1.56447 -0.27217 2.80878 -1.46379 3.14835 -3.01502l0.02603 -0.1189c0.09343 -0.4268 0.70113 -0.42945 0.79828 -0.00349l0.03161 0.13857c0.35214 1.54391 1.59678 2.72546 3.15693 2.99688 0.434 0.07551 0.434 0.69859 0 0.7741 -1.56015 0.27142 -2.80479 1.45297 -3.15693 2.99685l-0.03161 0.1386c-0.09715 0.426 -0.70485 0.4233 -0.79828 -0.0035l-0.02603 -0.1189C6.22738 8.84888 4.98307 7.65726 3.4186 7.38509Z" stroke-width="1"></path></g></svg>