<svg xmlns="http://www.w3.org/2000/svg" fill="none" viewBox="0 0 14 14"><g id="ai-tools-spark--tool-share-hand-give-artificial-intelligence-ai"><path id="Vector 294" stroke="#000000" stroke-linecap="round" stroke-linejoin="round" d="m0.736084 10.2124 2.443736 2.0364c0.35943 0.2995 0.81249 0.4636 1.28036 0.4636l6.44262 0c0.4602 0 0.8333 -0.3731 0.8333 -0.8334 0 -0.9204 -0.7462 -1.6666 -1.6667 -1.6666H5.59038" stroke-width="1"></path><path id="Vector 295" stroke="#000000" stroke-linecap="round" stroke-linejoin="round" d="m3.73608 9.21236 0.75 0.75c0.41422 0.41424 1.08579 0.41424 1.5 0 0.41422 -0.41421 0.41422 -1.08578 0 -1.5L4.82187 7.29815c-0.37507 -0.37507 -0.88378 -0.58579 -1.41421 -0.58579H0.736084" stroke-width="1"></path><path id="Vector 2136" stroke="#000000" stroke-linecap="round" stroke-linejoin="round" d="M7.17988 4.72159c-0.35093 -0.06106 -0.35093 -0.56483 0 -0.62588 1.27136 -0.22119 2.28255 -1.18955 2.5585 -2.45015l0.02115 -0.09663c0.07593 -0.34684 0.56977 -0.34899 0.64877 -0.00284l0.0256 0.11261c0.2862 1.25466 1.2977 2.21484 2.5655 2.43541 0.3527 0.06136 0.3527 0.56771 0 0.62907 -1.2678 0.22057 -2.2793 1.18075 -2.5655 2.43541l-0.0256 0.11261c-0.079 0.34615 -0.57284 0.344 -0.64877 -0.00284l-0.02115 -0.09662c-0.27595 -1.26061 -1.28714 -2.22897 -2.5585 -2.45015Z" stroke-width="1"></path></g></svg>