<svg xmlns="http://www.w3.org/2000/svg" fill="none" viewBox="0 0 14 14"><g id="ai-tagging-spark--tag-tags-bookmark-artificial-intelligence-ai"><path id="Vector" stroke="#000000" stroke-linecap="round" stroke-linejoin="round" d="m6.5 12.45 -0.83099 0.831c-0.14062 0.1404 -0.33125 0.2193 -0.53 0.2193 -0.19875 0 -0.38937 -0.0789 -0.53 -0.2193l-3.89 -3.89001c-0.14045 -0.14063 -0.21934 -0.33125 -0.21934 -0.53 0 -0.19875 0.07889 -0.38938 0.21934 -0.53l7.72 -7.72c0.03708 -0.038791 0.08237 -0.068801 0.13255 -0.087833 0.05017 -0.019033 0.10397 -0.026606 0.15745 -0.022167l3.82999 0.59c0.0913 0.00481 0.1775 0.04323 0.2422 0.10786 0.0646 0.06462 0.103 0.15087 0.1078 0.24214l0.59 3.83c0.0044 0.05348 -0.0031 0.10728 -0.0222 0.15745 -0.019 0.05018 -0.049 0.09547 -0.0878 0.13255L12.45 6.5" stroke-width="1"></path><path id="Vector_2" stroke="#000000" stroke-linecap="round" stroke-linejoin="round" d="M9.88916 4.61084c-0.27614 0 -0.5 -0.22386 -0.5 -0.5s0.22386 -0.5 0.5 -0.5 0.50004 0.22386 0.50004 0.5 -0.2239 0.5 -0.50004 0.5Z" stroke-width="1"></path><path id="Vector 2136" stroke="#000000" stroke-linecap="round" stroke-linejoin="round" d="M7.41621 10.6923c-0.35093 -0.0611 -0.35093 -0.5649 0 -0.6259 1.27136 -0.2212 2.28255 -1.18957 2.5585 -2.45017l0.02115 -0.09663c0.07594 -0.34683 0.56974 -0.34899 0.64874 -0.00284l0.0257 0.11261c0.2861 1.25466 1.2976 2.21485 2.5654 2.43543 0.3527 0.0613 0.3527 0.5677 0 0.6291 -1.2678 0.2205 -2.2793 1.1807 -2.5654 2.4354l-0.0257 0.1126c-0.079 0.3461 -0.5728 0.344 -0.64874 -0.0029l-0.02115 -0.0966c-0.27595 -1.2606 -1.28714 -2.229 -2.5585 -2.4501Z" stroke-width="1"></path></g></svg>