<svg xmlns="http://www.w3.org/2000/svg" fill="none" viewBox="0 0 14 14"><g id="airbnb"><path id="Vector 572" stroke="#000000" stroke-linecap="round" stroke-linejoin="round" d="M7.00007 11.7739c-0.68498 0.6009 -1.47022 1.1238 -2.20813 1.5 -0.96676 0.4928 -2.07512 0.134 -2.84283 -0.6318 -0.990912 -0.9883 -1.263212 -2.4861 -0.68332 -3.7586l3.02853 -6.6457C4.77661 1.17948 5.83456 0.5 7.00007 0.5s2.22346 0.67948 2.70575 1.7378l3.02858 6.6457c0.5798 1.2725 0.3075 2.7703 -0.6834 3.7586 -0.7677 0.7658 -1.876 1.1246 -2.8428 0.6318 -0.73791 -0.3762 -1.52315 -0.8991 -2.20813 -1.5Zm0 0c1.08198 -0.9493 1.91381 -2.09318 1.91381 -3.16105 0 -1.43168 -0.9569 -2.38613 -1.91381 -2.38613s-1.91381 0.95445 -1.91381 2.38613c0 1.06787 0.83183 2.21175 1.91381 3.16105Z" stroke-width="1"></path></g></svg>