<svg xmlns="http://www.w3.org/2000/svg" fill="none" viewBox="0 0 14 14"><g id="alarm-clock-setting-bolt-nut"><path id="Vector" stroke="#000000" stroke-linecap="round" stroke-linejoin="round" d="M0.5 2.34428C1.10736 1.60232 1.84963 0.975077 2.68935 0.5" stroke-width="1"></path><path id="Vector_2" stroke="#000000" stroke-linecap="round" stroke-linejoin="round" d="M10.3107 0.5c0.8397 0.475077 1.582 1.10232 2.1893 1.84428" stroke-width="1"></path><path id="Vector 4025" stroke="#000000" stroke-linecap="round" stroke-linejoin="round" d="M6.75 4.75v2.5h-2" stroke-width="1"></path><path id="Rectangle 1921" stroke="#000000" stroke-linecap="round" stroke-linejoin="round" d="m7.5 8.75 3 -1.75 3 1.75v3l-3 1.75 -3 -1.75v-3Z" stroke-width="1"></path><path id="Ellipse 1472" stroke="#000000" stroke-linecap="round" stroke-linejoin="round" d="M10 10.25a0.5 0.5 0 1 0 1 0 0.5 0.5 0 1 0 -1 0" stroke-width="1"></path><path id="Ellipse 1818" stroke="#000000" stroke-linecap="round" stroke-linejoin="round" d="M11.1858 4.87992C10.3199 3.17118 8.5467 2 6.5 2 3.60051 2 1.25 4.35051 1.25 7.25c0 2.51945 1.77471 4.6244 4.14221 5.1329" stroke-width="1"></path></g></svg>