<svg xmlns="http://www.w3.org/2000/svg" fill="none" viewBox="0 0 14 14"><g id="align-key-object"><path id="Ellipse 44" stroke="#000000" stroke-linecap="round" stroke-linejoin="round" d="M10 12c0 0.8284 -0.67157 1.5 -1.5 1.5S7 12.8284 7 12s0.67157 -1.5 1.5 -1.5 1.5 0.6716 1.5 1.5Z" stroke-width="1"></path><path id="Vector 3808" stroke="#000000" stroke-linecap="round" stroke-linejoin="round" d="M9.56055 10.9393 12.4999 8l1 1" stroke-width="1"></path><path id="Vector 3809" stroke="#000000" stroke-linecap="round" stroke-linejoin="round" d="m11.25 9.25 1 1" stroke-width="1"></path><path id="Vector 3908" stroke="#000000" stroke-linecap="round" stroke-linejoin="round" d="M3 1H1v2h2V1Z" stroke-width="1"></path><path id="Vector 3909" stroke="#000000" stroke-linecap="round" stroke-linejoin="round" d="M8 1H6v2h2V1Z" stroke-width="1"></path><path id="Vector 3910" stroke="#000000" stroke-linecap="round" stroke-linejoin="round" d="M13 1h-2v2h2V1Z" stroke-width="1"></path><path id="Vector 3911" stroke="#000000" stroke-linecap="round" stroke-linejoin="round" d="M3 6H1v2h2V6Z" stroke-width="1"></path><path id="Vector 3914" stroke="#000000" stroke-linecap="round" stroke-linejoin="round" d="M3 11H1v2h2v-2Z" stroke-width="1"></path><path id="Vector 3917" stroke="#000000" stroke-linecap="round" stroke-linejoin="round" d="M2 3v3" stroke-width="1"></path><path id="Vector 3918" stroke="#000000" stroke-linecap="round" stroke-linejoin="round" d="M2 8v3" stroke-width="1"></path><path id="Vector 3919" stroke="#000000" stroke-linecap="round" stroke-linejoin="round" d="M3 12h2" stroke-width="1"></path><path id="Vector 3922" stroke="#000000" stroke-linecap="round" stroke-linejoin="round" d="M12 5.5V3" stroke-width="1"></path><path id="Vector 3923" stroke="#000000" stroke-linecap="round" stroke-linejoin="round" d="M11 2H8" stroke-width="1"></path><path id="Vector 3924" stroke="#000000" stroke-linecap="round" stroke-linejoin="round" d="M6 2H3" stroke-width="1"></path></g></svg>