<svg xmlns="http://www.w3.org/2000/svg" fill="none" viewBox="0 0 14 14"><g id="align-front-2--design-front-layer-layers-pile-stack-arrange-rectangle"><path id="Rectangle 1684" stroke="#000000" stroke-linecap="round" stroke-linejoin="round" d="M3.5 5.5c0 -0.55228 0.44772 -1 1 -1h8c0.5523 0 1 0.44772 1 1v6c0 0.5523 -0.4477 1 -1 1h-8c-0.55228 0 -1 -0.4477 -1 -1v-6Z" stroke-width="1"></path><path id="Rectangle 1685" stroke="#000000" stroke-linecap="round" stroke-linejoin="round" d="M1.5 9.5c-0.552284 0 -1 -0.44772 -1 -1" stroke-width="1"></path><path id="Rectangle 1687" stroke="#000000" stroke-linecap="round" stroke-linejoin="round" d="M9.5 1.5c0.5523 0 1 0.44772 1 1" stroke-width="1"></path><path id="Rectangle 1686" stroke="#000000" stroke-linecap="round" stroke-linejoin="round" d="M1.5 1.5c-0.552285 0 -1 0.44772 -1 1" stroke-width="1"></path><path id="Vector 1948" stroke="#000000" stroke-linecap="round" stroke-linejoin="round" d="M3.5 1.5h1" stroke-width="1"></path><path id="Vector 1950" stroke="#000000" stroke-linecap="round" stroke-linejoin="round" d="m0.5 5 0 1" stroke-width="1"></path><path id="Vector 1949" stroke="#000000" stroke-linecap="round" stroke-linejoin="round" d="M6.5 1.5h1" stroke-width="1"></path></g></svg>