<svg xmlns="http://www.w3.org/2000/svg" fill="none" viewBox="0 0 14 14"><g id="align-object-horizontal"><path id="Rectangle 53" stroke="#000000" stroke-linecap="round" stroke-linejoin="round" d="M1 2c0 -0.55228 0.44772 -1 1 -1h10c0.5523 0 1 0.44772 1 1v10c0 0.5523 -0.4477 1 -1 1H2c-0.55228 0 -1 -0.4477 -1 -1V2Z" stroke-width="1"></path><path id="Rectangle 54" stroke="#000000" stroke-linecap="round" stroke-linejoin="round" d="M3 6c0 -0.27614 0.22386 -0.5 0.5 -0.5h7c0.2761 0 0.5 0.22386 0.5 0.5v2c0 0.27614 -0.2239 0.5 -0.5 0.5h-7c-0.27614 0 -0.5 -0.22386 -0.5 -0.5V6Z" stroke-width="1"></path></g></svg>