<svg xmlns="http://www.w3.org/2000/svg" fill="none" viewBox="0 0 14 14"><g id="align-bottom-right-frame-square"><path id="Vector" stroke="#000000" stroke-linecap="round" stroke-linejoin="round" d="M4 13H2c-0.26522 0 -0.51957 -0.1054 -0.70711 -0.2929C1.10536 12.5196 1 12.2652 1 12v-2" stroke-width="1"></path><path id="Vector_2" stroke="#000000" stroke-linecap="round" stroke-linejoin="round" d="M13 10v2c0 0.2652 -0.1054 0.5196 -0.2929 0.7071S12.2652 13 12 13h-2" stroke-width="1"></path><path id="Vector_3" stroke="#000000" stroke-linecap="round" stroke-linejoin="round" d="M4 1H2c-0.26522 0 -0.51957 0.10536 -0.70711 0.29289C1.10536 1.48043 1 1.73478 1 2v2" stroke-width="1"></path><path id="Vector_4" stroke="#000000" stroke-linecap="round" stroke-linejoin="round" d="M13 4V2c0 -0.26522 -0.1054 -0.51957 -0.2929 -0.70711C12.5196 1.10536 12.2652 1 12 1h-2" stroke-width="1"></path><path id="Vector 3609" stroke="#000000" stroke-linecap="round" stroke-linejoin="round" d="M7.5 10.5H10c0.2761 0 0.5 -0.2239 0.5 -0.5V7.5c0 -0.27614 -0.2239 -0.5 -0.5 -0.5H7.5c-0.27614 0 -0.5 0.22386 -0.5 0.5V10c0 0.2761 0.22386 0.5 0.5 0.5Z" stroke-width="1"></path></g></svg>