<svg xmlns="http://www.w3.org/2000/svg" fill="none" viewBox="0 0 14 14"><g id="align-vertical-center-1--align-design-middle-vertical"><path id="Vector" stroke="#000000" stroke-linecap="round" stroke-linejoin="round" d="M13.5 10.5v-6c0 -0.55228 -0.4477 -1 -1 -1h-2c-0.55228 0 -1 0.44772 -1 1v6c0 0.5523 0.44772 1 1 1h2c0.5523 0 1 -0.4477 1 -1Z" stroke-width="1"></path><path id="Vector_2" stroke="#000000" stroke-linecap="round" stroke-linejoin="round" d="m4.5 11.5 0 -9c0 -0.55228 -0.44772 -1 -1 -1l-2 0c-0.552285 0 -1 0.44772 -1 1l0 9c0 0.5523 0.447715 1 1 1h2c0.55228 0 1 -0.4477 1 -1Z" stroke-width="1"></path><path id="Vector_3" stroke="#000000" stroke-linecap="round" stroke-linejoin="round" d="M9.5 7h-5" stroke-width="1"></path></g></svg>