<svg xmlns="http://www.w3.org/2000/svg" fill="none" viewBox="0 0 14 14"><g id="align-top-1--align-design-top-vertical"><path id="Vector" stroke="#000000" stroke-linecap="round" stroke-linejoin="round" d="M13 0.5H1" stroke-width="1"></path><path id="Vector_2" stroke="#000000" stroke-linecap="round" stroke-linejoin="round" d="M12.5 8.5V4c0 -0.55228 -0.4477 -1 -1 -1h-2c-0.55228 0 -1 0.44772 -1 1v4.5c0 0.55228 0.44772 1 1 1h2c0.5523 0 1 -0.44772 1 -1Z" stroke-width="1"></path><path id="Vector_3" stroke="#000000" stroke-linecap="round" stroke-linejoin="round" d="m5.5 12.5 0 -8.5c0 -0.55228 -0.44772 -1 -1 -1h-2c-0.55228 0 -1 0.44772 -1 1l0 8.5c0 0.5523 0.44772 1 1 1h2c0.55228 0 1 -0.4477 1 -1Z" stroke-width="1"></path></g></svg>