<svg xmlns="http://www.w3.org/2000/svg" fill="none" viewBox="0 0 14 14"><g id="allergens-fish--fish-produce-food-allergens-allergy"><path id="Vector 32" stroke="#000000" stroke-linecap="round" stroke-linejoin="round" d="M6.8494 2.20075c1.9799 -1.979898 4.714 -1.414212 5.6569 -0.70711 0.7071 0.94281 1.2727 3.67696 -0.7072 5.65686 -1.97986 1.9799 -4.00689 1.88562 -5.30326 1.76777 0.70711 0.7071 1.06066 2.47483 -0.7071 4.24263 0 0 -2.47488 -2.4749 -1.41422 -3.53553C3.31386 10.686 0.838989 8.21116 0.838989 8.21116 2.60676 6.44339 4.37452 6.79694 5.08163 7.50405c-0.11785 -1.29636 -0.21213 -3.3234 1.76777 -5.3033Z" stroke-width="1"></path><path id="Vector 33" stroke="#000000" stroke-linecap="round" stroke-linejoin="round" d="M7.90997 3.96875s0 0.70711 0.70711 1.41421c0.70711 0.70711 1.41422 0.70711 1.41422 0.70711" stroke-width="1"></path><g id="Group 1"><path id="Vector" stroke="#000000" stroke-linecap="round" stroke-linejoin="round" d="M10.25 3.5c-0.1381 0 -0.25 -0.11193 -0.25 -0.25s0.1119 -0.25 0.25 -0.25" stroke-width="1"></path><path id="Vector_2" stroke="#000000" stroke-linecap="round" stroke-linejoin="round" d="M10.25 3.5c0.1381 0 0.25 -0.11193 0.25 -0.25S10.3881 3 10.25 3" stroke-width="1"></path></g></g></svg>