<svg xmlns="http://www.w3.org/2000/svg" fill="none" viewBox="0 0 14 14"><g id="alt--windows-key-alt-pc-keyboard"><path id="Vector 4" stroke="#000000" stroke-linecap="round" stroke-linejoin="round" d="m10.25 5.20471 0 3.59066" stroke-width="1"></path><path id="Vector 7" stroke="#000000" stroke-linecap="round" stroke-linejoin="round" d="m9.05301 5.20471 2.39379 0" stroke-width="1"></path><path id="Vector 5" stroke="#000000" stroke-linecap="round" stroke-linejoin="round" d="M7.05078 5.20471v3.59066h1.59455" stroke-width="1"></path><path id="Vector 6" stroke="#000000" stroke-linecap="round" stroke-linejoin="round" d="m2.55322 8.79537 1.10227 -3.30679c0.0565 -0.16952 0.21515 -0.28387 0.39384 -0.28387v0c0.17869 0 0.33733 0.11435 0.39384 0.28387l1.10226 3.30679" stroke-width="1"></path><path id="Vector 8" stroke="#000000" stroke-linecap="round" stroke-linejoin="round" d="M2.95215 7.59839h2.19429" stroke-width="1"></path><path id="Vector" stroke="#000000" stroke-linecap="round" stroke-linejoin="round" d="M12.0769 1H1.92308C1.41328 1 1 1.41328 1 1.92308V12.0769c0 0.5098 0.41328 0.9231 0.92308 0.9231H12.0769c0.5098 0 0.9231 -0.4133 0.9231 -0.9231V1.92308C13 1.41328 12.5867 1 12.0769 1Z" stroke-width="1"></path></g></svg>