<svg xmlns="http://www.w3.org/2000/svg" fill="none" viewBox="0 0 14 14"><g id="application-widget"><path id="Vector 2116" stroke="#000000" stroke-linecap="round" stroke-linejoin="round" d="M0.5 6.5v-2c0 -0.55228 0.447715 -1 1 -1h2c0.55228 0 1 0.44772 1 1v2c0 0.55228 -0.44772 1 -1 1h-2c-0.552285 0 -1 -0.44772 -1 -1Z" stroke-width="1"></path><path id="Vector 2117" stroke="#000000" stroke-linecap="round" stroke-linejoin="round" d="M0.5 12.5v-2c0 -0.55228 0.447715 -1 1 -1h2c0.55228 0 1 0.44772 1 1v2c0 0.5523 -0.44772 1 -1 1h-2c-0.552285 0 -1 -0.4477 -1 -1Z" stroke-width="1"></path><path id="Vector 2118" stroke="#000000" stroke-linecap="round" stroke-linejoin="round" d="M7 12.5v-2c0 -0.55228 0.44772 -1 1 -1h2c0.5523 0 1 0.44772 1 1v2c0 0.5523 -0.4477 1 -1 1H8c-0.55228 0 -1 -0.4477 -1 -1Z" stroke-width="1"></path><path id="Vector 2119" stroke="#000000" stroke-linecap="round" stroke-linejoin="round" d="M7 6.5V2c0 -0.55228 0.44772 -1 1 -1h4.5c0.5523 0 1 0.44772 1 1v4.5c0 0.55228 -0.4477 1 -1 1H8c-0.55228 0 -1 -0.44772 -1 -1Z" stroke-width="1"></path></g></svg>