<svg xmlns="http://www.w3.org/2000/svg" fill="none" viewBox="0 0 14 14"><g id="application-drawer"><path id="Vector 2116" stroke="#000000" stroke-linecap="round" stroke-linejoin="round" d="M10.5 3V1.5c0 -0.27614 0.2239 -0.5 0.5 -0.5h1.5c0.2762 0 0.5 0.22386 0.5 0.5V3c0 0.27614 -0.2238 0.5 -0.5 0.5H11c-0.2761 0 -0.5 -0.22386 -0.5 -0.5Z" stroke-width="1"></path><path id="Vector 2117" stroke="#000000" stroke-linecap="round" stroke-linejoin="round" d="M5.75 3V1.5c0 -0.27614 0.22386 -0.5 0.5 -0.5h1.5c0.27614 0 0.5 0.22386 0.5 0.5V3c0 0.27614 -0.22386 0.5 -0.5 0.5h-1.5c-0.27614 0 -0.5 -0.22386 -0.5 -0.5Z" stroke-width="1"></path><path id="Vector 2118" stroke="#000000" stroke-linecap="round" stroke-linejoin="round" d="M1.00003 3V1.5c0 -0.27614 0.22386 -0.5 0.5 -0.5h1.5c0.27614 0 0.5 0.22386 0.5 0.5V3c0 0.27614 -0.22386 0.5 -0.5 0.5h-1.5c-0.27614 0 -0.5 -0.22386 -0.5 -0.5Z" stroke-width="1"></path><path id="Vector 2119" stroke="#000000" stroke-linecap="round" stroke-linejoin="round" d="M10.5 7.75v-1.5c0 -0.27614 0.2239 -0.5 0.5 -0.5h1.5c0.2762 0 0.5 0.22386 0.5 0.5v1.5c0 0.27614 -0.2238 0.5 -0.5 0.5H11c-0.2761 0 -0.5 -0.22386 -0.5 -0.5Z" stroke-width="1"></path><path id="Vector 2122" stroke="#000000" stroke-linecap="round" stroke-linejoin="round" d="M10.5 12.5V11c0 -0.2761 0.2239 -0.5 0.5 -0.5h1.5c0.2762 0 0.5 0.2239 0.5 0.5v1.5c0 0.2761 -0.2238 0.5 -0.5 0.5H11c-0.2761 0 -0.5 -0.2239 -0.5 -0.5Z" stroke-width="1"></path><path id="Vector 2120" stroke="#000000" stroke-linecap="round" stroke-linejoin="round" d="M5.75 7.75v-1.5c0 -0.27614 0.22386 -0.5 0.5 -0.5h1.5c0.27614 0 0.5 0.22386 0.5 0.5v1.5c0 0.27614 -0.22386 0.5 -0.5 0.5h-1.5c-0.27614 0 -0.5 -0.22386 -0.5 -0.5Z" stroke-width="1"></path><path id="Vector 2123" stroke="#000000" stroke-linecap="round" stroke-linejoin="round" d="M5.75 12.5V11c0 -0.2761 0.22386 -0.5 0.5 -0.5h1.5c0.27614 0 0.5 0.2239 0.5 0.5v1.5c0 0.2761 -0.22386 0.5 -0.5 0.5h-1.5c-0.27614 0 -0.5 -0.2239 -0.5 -0.5Z" stroke-width="1"></path><path id="Vector 2121" stroke="#000000" stroke-linecap="round" stroke-linejoin="round" d="M1.00003 7.75v-1.5c0 -0.27614 0.22386 -0.5 0.5 -0.5h1.5c0.27614 0 0.5 0.22386 0.5 0.5v1.5c0 0.27614 -0.22386 0.5 -0.5 0.5h-1.5c-0.27614 0 -0.5 -0.22386 -0.5 -0.5Z" stroke-width="1"></path><path id="Vector 2124" stroke="#000000" stroke-linecap="round" stroke-linejoin="round" d="M1.00003 12.5V11c0 -0.2761 0.22386 -0.5 0.5 -0.5h1.5c0.27614 0 0.5 0.2239 0.5 0.5v1.5c0 0.2761 -0.22386 0.5 -0.5 0.5h-1.5c-0.27614 0 -0.5 -0.2239 -0.5 -0.5Z" stroke-width="1"></path></g></svg>