<svg xmlns="http://www.w3.org/2000/svg" fill="none" viewBox="0 0 14 14"><g id="archive-document--outbox-content-folder-archive-file-inbox"><path id="Vector" stroke="#000000" stroke-linecap="round" stroke-linejoin="round" d="M13.5 8.5c0 -0.26522 -0.1054 -0.51957 -0.2929 -0.70711C13.0196 7.60536 12.7652 7.5 12.5 7.5h-3v1h-5v-1h-3c-0.26522 0 -0.51957 0.10536 -0.707107 0.29289C0.605357 7.98043 0.5 8.23478 0.5 8.5v3c0 0.2652 0.105357 0.5196 0.292893 0.7071 0.187537 0.1875 0.441887 0.2929 0.707107 0.2929h11c0.2652 0 0.5196 -0.1054 0.7071 -0.2929s0.2929 -0.4419 0.2929 -0.7071v-3Z" stroke-width="1"></path><path id="Vector_2" stroke="#000000" stroke-linecap="round" stroke-linejoin="round" d="M1.5 4.5h11" stroke-width="1"></path><path id="Vector_3" stroke="#000000" stroke-linecap="round" stroke-linejoin="round" d="M1.5 1.5h11" stroke-width="1"></path></g></svg>