<svg xmlns="http://www.w3.org/2000/svg" fill="none" viewBox="0 0 14 14"><g id="artificial-intelligence-spark--brain-thought-ai-automated-ai"><path id="Union" stroke="#000000" stroke-linecap="round" stroke-linejoin="round" d="m6.99979 6.43296 -0.00006 3.97044c0 1.5044 -1.2196 2.724 -2.72405 2.724s-2.72405 -1.2196 -2.72405 -2.724c0 -0.0771 0.0032 -0.1535 0.00948 -0.2289C0.994177 9.56544 0.636475 8.3741 0.636475 7.38008c0 -1.35449 0.664155 -2.67144 1.616865 -3.18911 -0.00914 -0.08475 -0.01383 -0.17083 -0.01383 -0.25801 0 -1.31451 1.06563 -2.38014 2.38014 -2.38014 0.58534 0 1.12132 0.2113 1.53585 0.56177" stroke-width="1"></path><path id="Vector 605" stroke="#000000" stroke-linecap="round" stroke-linejoin="round" d="M3.51115 5.80868c-0.34948 -0.07968 -1.14142 -0.59905 -1.26091 -1.61157" stroke-width="1"></path><path id="Vector 606" stroke="#000000" stroke-linecap="round" stroke-linejoin="round" d="M2.28949 8.74643c-0.35556 0.28074 -0.63905 0.91698 -0.7309 1.42667" stroke-width="1"></path><path id="Union_2" stroke="#000000" stroke-linecap="round" stroke-linejoin="round" d="M7.00003 10.4034c0 1.5044 1.2196 2.724 2.72405 2.724 1.50442 0 2.72402 -1.2196 2.72402 -2.724 0 -0.0771 -0.0032 -0.1535 -0.0095 -0.2289 0.567 -0.60906 0.9247 -1.8004 0.9247 -2.79442 0 -0.43404 -0.0682 -0.86422 -0.1923 -1.26549" stroke-width="1"></path><path id="Vector 613" stroke="#000000" stroke-linecap="round" stroke-linejoin="round" d="M11.7103 8.74643c0.3555 0.28074 0.639 0.91698 0.7309 1.42667" stroke-width="1"></path><path id="Vector 2136" stroke="#000000" stroke-linecap="round" stroke-linejoin="round" d="M7.06434 4.30652c-0.35092 -0.06105 -0.35093 -0.56483 0 -0.62588 1.27136 -0.22118 2.28255 -1.18954 2.5585 -2.45015l0.02115 -0.09663c0.07593 -0.346831 0.56981 -0.348989 0.64871 -0.00283l0.0257 0.11261c0.2862 1.25465 1.2976 2.21484 2.5655 2.4354 0.3527 0.06137 0.3527 0.56771 0 0.62908 -1.2679 0.22056 -2.2793 1.18075 -2.5655 2.4354l-0.0257 0.11261c-0.0789 0.34616 -0.57278 0.344 -0.64871 -0.00283l-0.02115 -0.09663c-0.27595 -1.2606 -1.28714 -2.22897 -2.5585 -2.45015Z" stroke-width="1"></path></g></svg>