<svg xmlns="http://www.w3.org/2000/svg" fill="none" viewBox="0 0 14 14"><g id="astronaut--science-space-universe-astronomy"><path id="Ellipse 1966" stroke="#000000" stroke-linecap="round" stroke-linejoin="round" d="M0.998169 13C1.70345 11.3088 3.10274 9.97933 4.84029 9.36743" stroke-width="1"></path><path id="Ellipse 1967" stroke="#000000" stroke-linecap="round" stroke-linejoin="round" d="M13.0018 13c-0.7053 -1.6912 -2.1046 -3.02067 -3.84213 -3.63257" stroke-width="1"></path><path id="Vector 2299" stroke="#000000" stroke-linecap="round" stroke-linejoin="round" d="M1.5 12.0343V8.50001c0 -0.94785 0.65936 -1.7417 1.54442 -1.94789" stroke-width="1"></path><path id="Vector 2306" stroke="#000000" stroke-linecap="round" stroke-linejoin="round" d="M12.5 12.0343V8.49994c0 -0.94296 -0.6526 -1.7335 -1.5308 -1.94464" stroke-width="1"></path><path id="Vector" stroke="#000000" stroke-linecap="round" stroke-linejoin="round" d="M7 10c2.20914 0 4 -1.79086 4 -4S9.20914 2 7 2 3 3.79086 3 6s1.79086 4 4 4Z" stroke-width="1"></path><path id="Vector 2301" stroke="#000000" stroke-linecap="round" stroke-linejoin="round" d="M4.5 13v-1h5v1" stroke-width="1"></path><path id="Vector 2302" stroke="#000000" stroke-linecap="round" stroke-linejoin="round" d="M3.55286 8h6.89764" stroke-width="1"></path><path id="Vector 2303" stroke="#000000" stroke-linecap="round" stroke-linejoin="round" d="M9 5c0 -0.5 -0.5 -1 -1 -1" stroke-width="1"></path><path id="Vector 2304" stroke="#000000" stroke-linecap="round" stroke-linejoin="round" d="M1.75 1v1.5" stroke-width="1"></path><path id="Vector 2305" stroke="#000000" stroke-linecap="round" stroke-linejoin="round" d="M1 1.75h1.5" stroke-width="1"></path><g id="Group 4482"><path id="Vector_2" stroke="#000000" stroke-linecap="round" stroke-linejoin="round" d="M12.75 2.5c-0.1381 0 -0.25 -0.11193 -0.25 -0.25s0.1119 -0.25 0.25 -0.25" stroke-width="1"></path><path id="Vector_3" stroke="#000000" stroke-linecap="round" stroke-linejoin="round" d="M12.75 2.5c0.1381 0 0.25 -0.11193 0.25 -0.25S12.8881 2 12.75 2" stroke-width="1"></path></g></g></svg>