<svg xmlns="http://www.w3.org/2000/svg" fill="none" viewBox="0 0 14 14"><g id="baby-botlle--bottle-milk-family-children-formula-care-child-kid-baby-health"><path id="Vector" stroke="#000000" stroke-linecap="round" stroke-linejoin="round" d="M3.5 6.5v6c0 0.2652 0.10536 0.5196 0.29289 0.7071 0.18754 0.1875 0.44189 0.2929 0.70711 0.2929h5c0.26522 0 0.5196 -0.1054 0.7071 -0.2929s0.2929 -0.4419 0.2929 -0.7071v-6" stroke-width="1"></path><path id="Vector_2" stroke="#000000" stroke-linecap="round" stroke-linejoin="round" d="M10.5 6.5v-2c0 -0.26522 -0.1054 -0.51957 -0.2929 -0.70711C10.0196 3.60536 9.76522 3.5 9.5 3.5c-0.26522 0 -0.51957 -0.10536 -0.70711 -0.29289C8.60536 3.01957 8.5 2.76522 8.5 2.5V2c0 -0.39782 -0.15804 -0.77936 -0.43934 -1.06066C7.77936 0.658035 7.39782 0.5 7 0.5c-0.39782 0 -0.77936 0.158035 -1.06066 0.43934C5.65804 1.22064 5.5 1.60218 5.5 2v0.5c0 0.26522 -0.10536 0.51957 -0.29289 0.70711C5.01957 3.39464 4.76522 3.5 4.5 3.5s-0.51957 0.10536 -0.70711 0.29289C3.60536 3.98043 3.5 4.23478 3.5 4.5v2" stroke-width="1"></path><path id="Vector_3" stroke="#000000" stroke-linecap="round" stroke-linejoin="round" d="M2.5 6.5h9" stroke-width="1"></path><path id="Vector_4" stroke="#000000" stroke-linecap="round" stroke-linejoin="round" d="M7.5 9.5h3" stroke-width="1"></path></g></svg>