<svg xmlns="http://www.w3.org/2000/svg" fill="none" viewBox="0 0 14 14"><g id="bag-share--payment-cash-money-finance-receive-give-bag-hand"><path id="Vector" stroke="#000000" stroke-linecap="round" stroke-linejoin="round" d="M9.75 8.5c2.19 0 3.75 -0.77 3.75 -2.45 0 -1.85 -0.94 -3.09 -2.81 -4l0.74 -0.95c0.0322 -0.0615 0.0483 -0.130166 0.0467 -0.199569 -0.0016 -0.069403 -0.0208 -0.137267 -0.0558 -0.197231 -0.0349 -0.059964 -0.0846 -0.110065 -0.1442 -0.145606C11.2171 0.522053 11.1494 0.502236 11.08 0.5H8.42c-0.068 0.003018 -0.13418 0.022919 -0.19257 0.057908 -0.05839 0.034988 -0.10715 0.083963 -0.14187 0.142506 -0.03473 0.058543 -0.05434 0.124811 -0.05706 0.192826 -0.00271 0.068014 0.01155 0.13563 0.0415 0.19676l0.74 1C6.94 3 6 4.2 6 6.05 6 7.73 7.56 8.5 9.75 8.5Z" stroke-width="1"></path><path id="Vector 294" stroke="#000000" stroke-linecap="round" stroke-linejoin="round" d="m0.5 10.9999 2.44373 2.0364c0.35943 0.2995 0.8125 0.4636 1.28037 0.4636l6.4426 0c0.4602 0 0.8333 -0.3731 0.8333 -0.8334 0 -0.9204 -0.7462 -1.6666 -1.66667 -1.6666H5.35429" stroke-width="1"></path><path id="Vector 295" stroke="#000000" stroke-linecap="round" stroke-linejoin="round" d="m3.5 9.99988 0.75 0.75002c0.41421 0.4142 1.08579 0.4142 1.5 0 0.41421 -0.4142 0.41421 -1.08581 0 -1.50002L4.58579 8.08566c-0.37508 -0.37507 -0.88378 -0.58578 -1.41422 -0.58578H0.5" stroke-width="1"></path></g></svg>