<svg xmlns="http://www.w3.org/2000/svg" fill="none" viewBox="0 0 14 14"><g id="baguette--cook-bread-gluten-cooking-nutrition-baguette-food"><path id="Vector" stroke="#000000" stroke-linecap="round" stroke-linejoin="round" d="m1.64703 6.93737 6.45951 -5.06672c0.62525 -0.49043 1.41971 -0.7124 2.20856 -0.61707 0.7889 0.09533 1.5077 0.50014 1.9981 1.12539l0.9739 1.24161c0.1635 0.20841 0.2375 0.47323 0.2057 0.7362 -0.0318 0.26296 -0.1667 0.50254 -0.3751 0.66601L3.51483 12.5551c-0.20841 0.1635 -0.47323 0.2374 -0.7362 0.2057 -0.26297 -0.0318 -0.50254 -0.1667 -0.66602 -0.3752l-0.97389 -1.2416C0.648287 10.5188 0.426321 9.72433 0.521649 8.93543c0.095327 -0.7889 0.500141 -1.50763 1.125381 -1.99806Z" stroke-width="1"></path><path id="Vector_2" stroke="#000000" stroke-linecap="round" stroke-linejoin="round" d="M2.87887 5.96924 4.43689 7.9667" stroke-width="1"></path><path id="Vector_3" stroke="#000000" stroke-linecap="round" stroke-linejoin="round" d="m6.46431 3.15283 1.56801 1.99746" stroke-width="1"></path></g></svg>