<svg xmlns="http://www.w3.org/2000/svg" fill="none" viewBox="0 0 14 14"><g id="baht-circle--baht-circle-thailand-exchange-payment-forex-finance-foreign-currency"><path id="Vector" stroke="#000000" stroke-linecap="round" stroke-linejoin="round" d="M7 13.5c3.5899 0 6.5 -2.9101 6.5 -6.5C13.5 3.41015 10.5899 0.5 7 0.5 3.41015 0.5 0.5 3.41015 0.5 7c0 3.5899 2.91015 6.5 6.5 6.5Z" stroke-width="1"></path><path id="Vector_2" stroke="#000000" stroke-linecap="round" stroke-linejoin="round" d="M7.88004 6.65992c0.18159 0.00265 0.36189 -0.03083 0.53042 -0.09849s0.32193 -0.16815 0.45127 -0.29563 0.23205 -0.27941 0.30214 -0.44694c0.0701 -0.16753 0.10619 -0.34733 0.10617 -0.52894v0c0 -0.36334 -0.14434 -0.71181 -0.40126 -0.96873 -0.25693 -0.25693 -0.60539 -0.40127 -0.96874 -0.40127h-2.11c-0.13261 0 -0.25979 0.05268 -0.35355 0.14645 -0.09377 0.09377 -0.14645 0.22094 -0.14645 0.35355v5c0 0.13261 0.05268 0.25979 0.14645 0.35356 0.09376 0.09376 0.22094 0.14644 0.35355 0.14644h2.09c0.42965 0 0.8417 -0.17068 1.14551 -0.47449 0.30381 -0.3038 0.47449 -0.71586 0.47449 -1.14551s-0.17068 -0.8417 -0.47449 -1.14551 -0.71586 -0.47449 -1.14551 -0.47449v-0.02Z" stroke-width="1"></path><path id="Vector_3" stroke="#000000" stroke-linecap="round" stroke-linejoin="round" d="M7.90004 6.66016h-2.61" stroke-width="1"></path><path id="Vector_4" stroke="#000000" stroke-linecap="round" stroke-linejoin="round" d="M7.25 11V3" stroke-width="1"></path></g></svg>