<svg xmlns="http://www.w3.org/2000/svg" fill="none" viewBox="0 0 14 14"><g id="banana--banana-fruit-food-sweet-nutrition"><path id="Vector" stroke="#000000" stroke-linecap="round" stroke-linejoin="round" d="M4.67693 11.3271c3.46498 -1.2404 5.31367 -4.92834 4.12916 -8.23726l-0.61582 -0.6726 0.23262 0.62901c-0.15241 3.51124 -3.25663 6.22828 -6.93347 6.06868 -0.713433 -0.03097 -1.289015 0.68419 -0.818426 1.22127 0.848116 0.968 2.015016 1.6772 3.353876 1.9746 -0.06518 -0.3743 0.20154 -0.8225 0.65206 -0.9837Z" stroke-width="1"></path><path id="Subtract" stroke="#000000" stroke-linecap="round" stroke-linejoin="round" d="M4.67681 11.327c3.46498 -1.2404 5.31367 -4.92834 4.12917 -8.23726L7.8204 2.01329c-0.31645 -0.34563 -0.17861 -0.90203 0.26258 -1.059966l0.9345 -0.334525c0.23001 -0.082336 0.48639 -0.030008 0.66107 0.140779 0.77155 0.754382 2.87455 2.915652 3.48875 4.631522 1.0999 3.07257 -0.6167 6.4971 -3.83419 7.6489 -1.70473 0.6102 -3.48874 0.46 -4.95306 -0.2731 -0.63854 -0.3197 -0.37556 -1.1993 0.29676 -1.4399Z" stroke-width="1"></path></g></svg>