<svg xmlns="http://www.w3.org/2000/svg" fill="none" viewBox="0 0 14 14"><g id="bandage--health-medical-hospital-medicine-capsule-bandage-vaccine"><path id="Vector" stroke="#000000" stroke-linecap="round" stroke-linejoin="round" d="m3.13 7.87 4.74 -4.74" stroke-width="1"></path><path id="Vector_2" stroke="#000000" stroke-linecap="round" stroke-linejoin="round" d="m6.13 10.87 4.74 -4.74" stroke-width="1"></path><path id="Vector_3" stroke="#000000" stroke-linecap="round" stroke-linejoin="round" d="M7.78998 12.52c0.62724 0.6272 1.47795 0.9796 2.36502 0.9796 0.887 0 1.7377 -0.3524 2.365 -0.9796 0.6272 -0.6272 0.9796 -1.4779 0.9796 -2.365 0 -0.88704 -0.3524 -1.73775 -0.9796 -2.36499l-6.31002 -6.31C5.58274 0.852775 4.73203 0.500397 3.84498 0.500397c-0.88705 0 -1.73776 0.352378 -2.365 0.979613 -0.627236 0.62724 -0.979614 1.47795 -0.979614 2.365 0 0.88705 0.352378 1.73776 0.979614 2.365l6.31 6.30999Z" stroke-width="1"></path></g></svg>