<svg xmlns="http://www.w3.org/2000/svg" fill="none" viewBox="0 0 14 14"><g id="bank--institution-saving-bank-payment-finance"><path id="Vector" stroke="#000000" stroke-linecap="round" stroke-linejoin="round" d="M12.91 5.49999H1.09c-0.559999 0 -0.799999 -0.61 -0.359999 -0.9L6.64 0.729994c0.10911 -0.064189 0.23341 -0.098036 0.36 -0.098036 0.12659 0 0.25089 0.033847 0.36 0.098036l5.91 3.869996c0.44 0.29 0.2 0.9 -0.36 0.9Z" stroke-width="1"></path><path id="Vector_2" stroke="#000000" stroke-linecap="round" stroke-linejoin="round" d="M13 11H1c-0.276142 0 -0.5 0.2239 -0.5 0.5V13c0 0.2761 0.223858 0.5 0.5 0.5h12c0.2761 0 0.5 -0.2239 0.5 -0.5v-1.5c0 -0.2761 -0.2239 -0.5 -0.5 -0.5Z" stroke-width="1"></path><path id="Vector_3" stroke="#000000" stroke-linecap="round" stroke-linejoin="round" d="M2 5.5V11" stroke-width="1"></path><path id="Vector_4" stroke="#000000" stroke-linecap="round" stroke-linejoin="round" d="M5.33333 5.5V11" stroke-width="1"></path><path id="Vector_5" stroke="#000000" stroke-linecap="round" stroke-linejoin="round" d="M8.66667 5.5V11" stroke-width="1"></path><path id="Vector_6" stroke="#000000" stroke-linecap="round" stroke-linejoin="round" d="M12 5.5V11" stroke-width="1"></path></g></svg>