<svg xmlns="http://www.w3.org/2000/svg" fill="none" viewBox="0 0 14 14"><g id="battery-charging-plug--phone-mobile-charge-device-electricity-power-battery-charging-plug"><path id="Vector" stroke="#000000" stroke-linecap="round" stroke-linejoin="round" d="M2.5 2.5h-1c-0.26522 0 -0.51957 0.10536 -0.707107 0.29289C0.605357 2.98043 0.5 3.23478 0.5 3.5v7c0 0.2652 0.105357 0.5196 0.292893 0.7071 0.187537 0.1875 0.441887 0.2929 0.707107 0.2929H4" stroke-width="1"></path><path id="Vector_2" stroke="#000000" stroke-linecap="round" stroke-linejoin="round" d="M10.5 2.5h1c0.2652 0 0.5196 0.10536 0.7071 0.29289 0.1875 0.18754 0.2929 0.44189 0.2929 0.70711V5h0.5c0.1326 0 0.2598 0.05268 0.3536 0.14645 0.0937 0.09376 0.1464 0.22094 0.1464 0.35355v3c0 0.13261 -0.0527 0.25979 -0.1464 0.35355C13.2598 8.94732 13.1326 9 13 9h-0.5v1.5c0 0.2652 -0.1054 0.5196 -0.2929 0.7071s-0.4419 0.2929 -0.7071 0.2929H9" stroke-width="1"></path><path id="Vector_3" stroke="#000000" stroke-linecap="round" stroke-linejoin="round" d="M3.5 4h6v2c0 1.65685 -1.34315 3 -3 3s-3 -1.34315 -3 -3V4Z" stroke-width="1"></path><path id="Vector_4" stroke="#000000" stroke-linecap="round" stroke-linejoin="round" d="M5 4V2" stroke-width="1"></path><path id="Vector_5" stroke="#000000" stroke-linecap="round" stroke-linejoin="round" d="M8 4V2" stroke-width="1"></path><path id="Vector_6" stroke="#000000" stroke-linecap="round" stroke-linejoin="round" d="M6.5 9v3.5" stroke-width="1"></path></g></svg>