<svg xmlns="http://www.w3.org/2000/svg" fill="none" viewBox="0 0 14 14"><g id="bear--nature-head-wild-animals"><path id="Union" stroke="#000000" stroke-linecap="round" stroke-linejoin="round" d="M5.1827 1.78014C4.7549 1.0163 3.93774 0.5 3 0.5 1.61929 0.5 0.5 1.61929 0.5 3c0 0.83258 0.406994 1.5701 1.03288 2.02447C1.1906 5.77919 1 6.61733 1 7.5c0 3.3137 2.68629 6 6 6 3.3137 0 6 -2.6863 6 -6 0 -0.88267 -0.1906 -1.72081 -0.5329 -2.47553C13.093 4.5701 13.5 3.83258 13.5 3c0 -1.38071 -1.1193 -2.5 -2.5 -2.5 -0.9377 0 -1.7549 0.5163 -2.1827 1.28014C8.24405 1.59818 7.63349 1.5 7 1.5c-0.63349 0 -1.24405 0.09818 -1.8173 0.28014Z" stroke-width="1"></path><path id="Ellipse 951" stroke="#000000" stroke-linecap="round" stroke-linejoin="round" d="M3.5 2.62605C4.48512 1.91738 5.69382 1.5 7 1.5s2.51488 0.41738 3.5 1.12605" stroke-width="1"></path><path id="Ellipse 950" stroke="#000000" stroke-linecap="round" stroke-linejoin="round" d="M4 10.5a3 3 0 1 0 6 0 3 3 0 1 0 -6 0" stroke-width="1"></path><g id="Group 4543"><path id="Vector" stroke="#000000" stroke-linecap="round" stroke-linejoin="round" d="M4.75 6c-0.13807 0 -0.25 -0.11193 -0.25 -0.25s0.11193 -0.25 0.25 -0.25" stroke-width="1"></path><path id="Vector_2" stroke="#000000" stroke-linecap="round" stroke-linejoin="round" d="M4.75 6c0.13807 0 0.25 -0.11193 0.25 -0.25s-0.11193 -0.25 -0.25 -0.25" stroke-width="1"></path></g><g id="Group 4542"><path id="Vector_3" stroke="#000000" stroke-linecap="round" stroke-linejoin="round" d="M9.25 6C9.11193 6 9 5.88807 9 5.75s0.11193 -0.25 0.25 -0.25" stroke-width="1"></path><path id="Vector_4" stroke="#000000" stroke-linecap="round" stroke-linejoin="round" d="M9.25 6c0.13807 0 0.25 -0.11193 0.25 -0.25s-0.11193 -0.25 -0.25 -0.25" stroke-width="1"></path></g><path id="Vector 1633" stroke="#000000" stroke-linecap="round" stroke-linejoin="round" d="M7.75 10h-1.5l0.75 0.5 0.75 -0.5Z" stroke-width="1"></path></g></svg>