<svg xmlns="http://www.w3.org/2000/svg" fill="none" viewBox="0 0 14 14"><g id="book-2--library-content-books-book-shelf-stack"><path id="Vector 3895" stroke="#000000" stroke-linecap="round" stroke-linejoin="round" d="M9.85191 12.5064 7.13939 3.46462c-0.07766 -0.25885 0.06442 -0.53256 0.3208 -0.61802l2.05088 -0.68362c0.2676 -0.0892 0.55593 0.06048 0.63703 0.33067l2.7125 9.04175c0.0777 0.2588 -0.0644 0.5325 -0.3208 0.618l-2.0509 0.6836c-0.2676 0.0892 -0.55594 -0.0605 -0.63699 -0.3306Z" stroke-width="1"></path><path id="Vector 3896" stroke="#000000" stroke-linecap="round" stroke-linejoin="round" d="M9.09998 10 12.1 9" stroke-width="1"></path><path id="Vector 3891" stroke="#000000" stroke-linecap="round" stroke-linejoin="round" d="M3.5 1h-2c-0.27614 0 -0.5 0.22386 -0.5 0.5v11c0 0.2761 0.22386 0.5 0.5 0.5h2c0.27614 0 0.5 -0.2239 0.5 -0.5v-11c0 -0.27614 -0.22386 -0.5 -0.5 -0.5Z" stroke-width="1"></path><path id="Vector 3893" stroke="#000000" stroke-linecap="round" stroke-linejoin="round" d="M1 10h3" stroke-width="1"></path><path id="Vector 3892" stroke="#000000" stroke-linecap="round" stroke-linejoin="round" d="M6.5 2.5h-2c-0.27614 0 -0.5 0.22386 -0.5 0.5v9.5c0 0.2761 0.22386 0.5 0.5 0.5h2c0.27614 0 0.5 -0.2239 0.5 -0.5V3c0 -0.27614 -0.22386 -0.5 -0.5 -0.5Z" stroke-width="1"></path></g></svg>