<svg xmlns="http://www.w3.org/2000/svg" fill="none" viewBox="0 0 14 14"><g id="bookmark-setting-gear"><path id="Vector" stroke="#000000" stroke-linecap="round" stroke-linejoin="round" d="M4.5 1.5h-2c-0.26522 0 -0.51957 0.10536 -0.70711 0.29289C1.60536 1.98043 1.5 2.23478 1.5 2.5v11l4 -3 4 3V9" stroke-width="1"></path><path id="Vector_2" stroke="#000000" stroke-linecap="round" stroke-linejoin="round" d="M8.61025 1.3797 8.8264 0.821719c0.03645 -0.094473 0.10059 -0.175734 0.18401 -0.23314C9.09383 0.531174 9.19264 0.500299 9.2939 0.5h0.4122c0.10126 0.000299 0.20007 0.031174 0.28349 0.088579 0.08341 0.057406 0.14751 0.138667 0.18401 0.23314l0.2162 0.557981 0.7339 0.42226 0.5931 -0.09049c0.0988 -0.0134 0.1993 0.00286 0.2888 0.04671 0.0896 0.04386 0.164 0.11334 0.2139 0.19961l0.2011 0.35188c0.0515 0.08764 0.0753 0.18885 0.0681 0.29026 -0.0072 0.10141 -0.0449 0.19827 -0.1083 0.27778l-0.367 0.46749v0.84452l0.377 0.4675c0.0634 0.0795 0.1012 0.17636 0.1083 0.27777 0.0072 0.10141 -0.0165 0.20262 -0.068 0.29026l-0.2011 0.35188c-0.0499 0.08627 -0.1244 0.15575 -0.2139 0.19961 -0.0895 0.04385 -0.19 0.06011 -0.2888 0.04671l-0.5932 -0.09049 -0.7339 0.42226 -0.2161 0.55798c-0.0365 0.09447 -0.1006 0.17574 -0.18405 0.23314 -0.08342 0.05741 -0.18223 0.08828 -0.28349 0.08858H9.2939c-0.10126 -0.0003 -0.20007 -0.03117 -0.28349 -0.08858 -0.08342 -0.0574 -0.14756 -0.13867 -0.18401 -0.23314l-0.21615 -0.55798 -0.73393 -0.42226 -0.59317 0.09049c-0.09877 0.0134 -0.19929 -0.00286 -0.2888 -0.04671 -0.08951 -0.04386 -0.16395 -0.11334 -0.21388 -0.19961l-0.20108 -0.35188c-0.05152 -0.08764 -0.07526 -0.18885 -0.06808 -0.29026 0.00718 -0.10141 0.04494 -0.19827 0.1083 -0.27777l0.36696 -0.4675V3.3452l-0.37702 -0.46749c-0.06335 -0.07951 -0.10112 -0.17637 -0.10829 -0.27778 -0.00718 -0.10141 0.01655 -0.20262 0.06808 -0.29026l0.20107 -0.35188c0.04993 -0.08627 0.12438 -0.15575 0.21389 -0.19961 0.08951 -0.04385 0.19003 -0.06011 0.2888 -0.04671l0.59317 0.09049 0.74398 -0.42226Z" stroke-width="1"></path><path id="Ellipse 1473" stroke="#000000" stroke-linecap="round" stroke-linejoin="round" d="M9 3.767a0.5 0.5 0 1 0 1 0 0.5 0.5 0 1 0 -1 0" stroke-width="1"></path></g></svg>