<svg xmlns="http://www.w3.org/2000/svg" fill="none" viewBox="0 0 14 14"><g id="book-1--content-books-book-close"><path id="Vector" stroke="#000000" stroke-linecap="round" stroke-linejoin="round" d="M12.5 13.5H3c-0.39782 0 -0.77936 -0.158 -1.06066 -0.4393C1.65804 12.7794 1.5 12.3978 1.5 12c0 -0.3978 0.15804 -0.7794 0.43934 -1.0607S2.60218 10.5 3 10.5h8.5c0.2652 0 0.5196 -0.1054 0.7071 -0.2929S12.5 9.76522 12.5 9.5v-8c0 -0.26522 -0.1054 -0.51957 -0.2929 -0.707107C12.0196 0.605357 11.7652 0.5 11.5 0.5H3c-0.39099 -0.000139 -0.76658 0.152394 -1.04676 0.425105C1.67305 1.19782 1.51043 1.56915 1.5 1.96v10" stroke-width="1"></path><path id="Vector_2" stroke="#000000" stroke-linecap="round" stroke-linejoin="round" d="M11.5 10.5v3" stroke-width="1"></path></g></svg>