<svg xmlns="http://www.w3.org/2000/svg" fill="none" viewBox="0 0 14 14"><g id="border-vertical--border-cell-center-format-formatting"><path id="Vector" stroke="#000000" stroke-linecap="round" stroke-linejoin="round" d="M11 1h1c0.2652 0 0.5196 0.10536 0.7071 0.29289C12.8946 1.48043 13 1.73478 13 2v1" stroke-width="1"></path><path id="Vector_2" stroke="#000000" stroke-linecap="round" stroke-linejoin="round" d="M1 3V2c0 -0.26522 0.10536 -0.51957 0.29289 -0.70711C1.48043 1.10536 1.73478 1 2 1h1" stroke-width="1"></path><path id="Vector_3" stroke="#000000" stroke-linecap="round" stroke-linejoin="round" d="M5.5 1h3" stroke-width="1"></path><path id="Vector_4" stroke="#000000" stroke-linecap="round" stroke-linejoin="round" d="M13 5.5v3" stroke-width="1"></path><path id="Vector_5" stroke="#000000" stroke-linecap="round" stroke-linejoin="round" d="M1 5.5v3" stroke-width="1"></path><path id="Vector_6" stroke="#000000" stroke-linecap="round" stroke-linejoin="round" d="M13 7h-2" stroke-width="1"></path><path id="Vector_7" stroke="#000000" stroke-linecap="round" stroke-linejoin="round" d="M3 7H1" stroke-width="1"></path><path id="Vector_8" stroke="#000000" stroke-linecap="round" stroke-linejoin="round" d="M11 13h1c0.2652 0 0.5196 -0.1054 0.7071 -0.2929S13 12.2652 13 12v-1" stroke-width="1"></path><path id="Vector_9" stroke="#000000" stroke-linecap="round" stroke-linejoin="round" d="M1 11v1c0 0.2652 0.10536 0.5196 0.29289 0.7071C1.48043 12.8946 1.73478 13 2 13h1" stroke-width="1"></path><path id="Vector_10" stroke="#000000" stroke-linecap="round" stroke-linejoin="round" d="M5.5 13h3" stroke-width="1"></path><path id="Vector_11" stroke="#000000" stroke-linecap="round" stroke-linejoin="round" d="M7 1v12" stroke-width="1"></path></g></svg>