<svg xmlns="http://www.w3.org/2000/svg" fill="none" viewBox="0 0 14 14"><g id="browser-refresh--app-code-apps-window-refresh"><path id="Vector" stroke="#000000" stroke-linecap="round" stroke-linejoin="round" d="M12.0769 1H1.92308C1.41328 1 1 1.41328 1 1.92308V12.0769c0 0.5098 0.41328 0.9231 0.92308 0.9231H12.0769c0.5098 0 0.9231 -0.4133 0.9231 -0.9231V1.92308C13 1.41328 12.5867 1 12.0769 1Z" stroke-width="1"></path><path id="Vector_2" stroke="#000000" stroke-linecap="round" stroke-linejoin="round" d="M1 3.5h12.0001" stroke-width="1"></path><path id="Ellipse 972" stroke="#000000" stroke-linecap="round" stroke-linejoin="round" d="M9.19999 7.75c-0.23163 -1.14112 -1.24051 -2 -2.44999 -2 -1.38071 0 -2.5 1.11929 -2.5 2.5s1.11929 2.5 2.5 2.5c0.61687 0 1.18156 -0.2234 1.61756 -0.5938" stroke-width="1"></path><path id="Ellipse 973" stroke="#000000" stroke-linecap="round" stroke-linejoin="round" d="m9.75 6.25 -0.55001 1.5L7.75 7.5" stroke-width="1"></path></g></svg>