<svg xmlns="http://www.w3.org/2000/svg" fill="none" viewBox="0 0 14 14"><g id="browser-emoji--app-code-apps-window-smiley"><path id="Vector" stroke="#000000" stroke-linecap="round" stroke-linejoin="round" d="M12.0769 1H1.92308C1.41328 1 1 1.41328 1 1.92308V12.0769c0 0.5098 0.41328 0.9231 0.92308 0.9231H12.0769c0.5098 0 0.9231 -0.4133 0.9231 -0.9231V1.92308C13 1.41328 12.5867 1 12.0769 1Z" stroke-width="1"></path><path id="Vector_2" stroke="#000000" stroke-linecap="round" stroke-linejoin="round" d="M1 3.5h12.0001" stroke-width="1"></path><path id="Vector 500" stroke="#000000" stroke-linecap="round" stroke-linejoin="round" d="M4.55676 9.32144c0.47634 0.48448 1.31765 0.92856 2.44318 0.92856s1.96684 -0.44408 2.44318 -0.92856" stroke-width="1"></path><path id="Ellipse 83" stroke="#000000" stroke-linecap="round" stroke-linejoin="round" d="M5.25022 6.75044C5.11203 6.75044 5 6.63841 5 6.50022c0 -0.13819 0.11203 -0.25022 0.25022 -0.25022" stroke-width="1"></path><path id="Ellipse 84" stroke="#000000" stroke-linecap="round" stroke-linejoin="round" d="M5.24988 6.75036c0.13819 0 0.25022 -0.11202 0.25022 -0.25022 0 -0.13819 -0.11203 -0.25022 -0.25022 -0.25022" stroke-width="1"></path><path id="Ellipse 81" stroke="#000000" stroke-linecap="round" stroke-linejoin="round" d="M8.75 6.75c-0.13807 0 -0.25 -0.11193 -0.25 -0.25s0.11193 -0.25 0.25 -0.25" stroke-width="1"></path><path id="Ellipse 82" stroke="#000000" stroke-linecap="round" stroke-linejoin="round" d="M8.74963 6.74992c0.13808 0 0.25 -0.11193 0.25 -0.25s-0.11192 -0.25 -0.25 -0.25" stroke-width="1"></path></g></svg>