<svg xmlns="http://www.w3.org/2000/svg" fill="none" viewBox="0 0 14 14"><g id="browser-favorite-star--window-star-app-code-favorite-like-apps"><path id="Vector" stroke="#000000" stroke-linecap="round" stroke-linejoin="round" d="M12.0769 1H1.92308C1.41328 1 1 1.41328 1 1.92308V12.0769c0 0.5098 0.41328 0.9231 0.92308 0.9231H12.0769c0.5098 0 0.9231 -0.4133 0.9231 -0.9231V1.92308C13 1.41328 12.5867 1 12.0769 1Z" stroke-width="1"></path><path id="Vector_2" stroke="#000000" stroke-linecap="round" stroke-linejoin="round" d="M1 3.5h12.0001" stroke-width="1"></path><path id="Vector_3" stroke="#000000" stroke-linecap="round" stroke-linejoin="round" d="m7.22089 5.4954 0.74345 1.49555c0.01662 0.03782 0.04299 0.07056 0.0764 0.09486 0.03341 0.0243 0.07268 0.03929 0.11379 0.04345l1.65115 0.2507c0.0472 0.00614 0.09168 0.0256 0.12824 0.05609 0.03655 0.0305 0.06367 0.07077 0.07818 0.11611 0.0145 0.04534 0.0158 0.09387 0.0037 0.13992 -0.012 0.04605 -0.03694 0.08771 -0.07181 0.12012L8.72508 8.9706c-0.01817 0.03467 -0.02767 0.07324 -0.02767 0.11238 0 0.03915 0.0095 0.07771 0.02767 0.11238l0.23341 1.64254c0.00996 0.0474 0.00593 0.0968 -0.0116 0.142 -0.01753 0.0453 -0.0478 0.0844 -0.08715 0.1128 -0.03935 0.0284 -0.08608 0.0447 -0.13454 0.047 -0.04845 0.0024 -0.09654 -0.0094 -0.13844 -0.0338l-1.46961 -0.7781c-0.03803 -0.0172 -0.07929 -0.026 -0.12103 -0.026 -0.04173 0 -0.08299 0.0088 -0.12102 0.026l-1.46961 0.7781c-0.0419 0.0244 -0.08999 0.0362 -0.13844 0.0338 -0.04846 -0.0023 -0.09519 -0.0186 -0.13454 -0.047 -0.03935 -0.0284 -0.06962 -0.0675 -0.08715 -0.1128 -0.01753 -0.0452 -0.02156 -0.0946 -0.0116 -0.142l0.27663 -1.64254c0.0119 -0.03812 0.01418 -0.07859 0.00664 -0.11781 -0.00755 -0.03922 -0.02467 -0.07596 -0.04986 -0.10695L4.04825 7.80356c-0.03233 -0.03276 -0.05502 -0.07378 -0.06559 -0.11857 -0.01056 -0.04479 -0.00859 -0.09163 0.00569 -0.13537 0.01429 -0.04375 0.04034 -0.08272 0.0753 -0.11265 0.03497 -0.02993 0.07749 -0.04965 0.12292 -0.05701l1.65115 -0.24205c0.04111 -0.00416 0.08038 -0.01916 0.11379 -0.04346 0.03341 -0.0243 0.05978 -0.05703 0.0764 -0.09486l0.74345 -1.49555c0.01989 -0.04233 0.05124 -0.07826 0.09048 -0.10371 0.03925 -0.02546 0.08483 -0.03942 0.1316 -0.04032 0.04677 -0.0009 0.09285 0.0113 0.13305 0.03523 0.04019 0.02392 0.07289 0.05862 0.0944 0.10016Z" stroke-width="1"></path></g></svg>