<svg xmlns="http://www.w3.org/2000/svg" fill="none" viewBox="0 0 14 14"><g id="browser-setting--window-gear-app-code-cog-settings-apps"><path id="Vector" stroke="#000000" stroke-linecap="round" stroke-linejoin="round" d="M12.0769 1H1.92308C1.41328 1 1 1.41328 1 1.92308V12.0769c0 0.5098 0.41328 0.9231 0.92308 0.9231H12.0769c0.5098 0 0.9231 -0.4133 0.9231 -0.9231V1.92308C13 1.41328 12.5867 1 12.0769 1Z" stroke-width="1"></path><path id="Vector_2" stroke="#000000" stroke-linecap="round" stroke-linejoin="round" d="M1 3.5h12.0001" stroke-width="1"></path><path id="Vector_3" stroke="#000000" stroke-linecap="round" stroke-linejoin="round" d="m6.11025 5.86224 0.21615 -0.55798c0.03645 -0.09447 0.10059 -0.17573 0.18401 -0.23314 0.08342 -0.0574 0.18223 -0.08828 0.28349 -0.08858h0.4122c0.10126 0.0003 0.20007 0.03118 0.28349 0.08858 0.08342 0.05741 0.14756 0.13867 0.18401 0.23314l0.21615 0.55798 0.73393 0.42226 0.59317 -0.09048c0.09877 -0.01341 0.19929 0.00285 0.2888 0.04671s0.16395 0.11334 0.21388 0.1996l0.20108 0.35188c0.05152 0.08765 0.07526 0.18885 0.06808 0.29027 -0.00718 0.10141 -0.04494 0.19826 -0.1083 0.27777l-0.36696 0.4675v0.84451l0.37702 0.4675c0.06335 0.07951 0.10112 0.17636 0.10829 0.27777 0.00716 0.10142 -0.01655 0.20262 -0.06808 0.29026l-0.20107 0.35191c-0.04993 0.0862 -0.12438 0.1557 -0.21389 0.1996 -0.0895 0.0438 -0.19003 0.0601 -0.2888 0.0467l-0.59317 -0.0905 -0.73392 0.4223 -0.21616 0.5579c-0.03645 0.0945 -0.10059 0.1758 -0.184 0.2332 -0.08342 0.0574 -0.18223 0.0883 -0.28349 0.0886H6.7939c-0.10126 -0.0003 -0.20007 -0.0312 -0.28349 -0.0886 -0.08342 -0.0574 -0.14756 -0.1387 -0.18401 -0.2332l-0.21615 -0.5579 -0.73393 -0.4223 -0.59317 0.0905c-0.09877 0.0134 -0.19929 -0.0029 -0.2888 -0.0467 -0.08951 -0.0439 -0.16395 -0.1134 -0.21388 -0.1996l-0.20108 -0.35191c-0.05152 -0.08764 -0.07526 -0.18884 -0.06808 -0.29026 0.00718 -0.10141 0.04494 -0.19826 0.1083 -0.27777l0.36696 -0.4675v-0.84451l-0.37702 -0.4675c-0.06335 -0.07951 -0.10112 -0.17636 -0.10829 -0.27777 -0.00718 -0.10142 0.01655 -0.20262 0.06808 -0.29027l0.20107 -0.35188c0.04993 -0.08626 0.12438 -0.15574 0.21389 -0.1996 0.08951 -0.04386 0.19003 -0.06012 0.2888 -0.04671l0.59317 0.09048 0.74398 -0.42226Z" stroke-width="1"></path><path id="Ellipse 1473" stroke="#000000" stroke-linecap="round" stroke-linejoin="round" d="M6.5 8.25a0.5 0.5 0 1 0 1 0 0.5 0.5 0 1 0 -1 0" stroke-width="1"></path></g></svg>