<svg xmlns="http://www.w3.org/2000/svg" fill="none" viewBox="0 0 14 14"><g id="browser-error-404--browser-error-404-window-apps-code"><path id="Vector" stroke="#000000" stroke-linecap="round" stroke-linejoin="round" d="M1 6V1.92308C1 1.41328 1.41328 1 1.92308 1H12.0769c0.5098 0 0.9231 0.41328 0.9231 0.92308V4.5m0 7.2885v0.2884c0 0.5098 -0.4133 0.9231 -0.9231 0.9231H1.92308C1.41328 13 1 12.5867 1 12.0769v-1.0384" stroke-width="1"></path><path id="Vector_2" stroke="#000000" stroke-linecap="round" stroke-linejoin="round" d="M1 3.5h12.0001" stroke-width="1"></path><path id="Vector 7" stroke="#000000" stroke-linecap="round" stroke-linejoin="round" d="M3.85578 9.2506H1.42994c-0.1339 0 -0.24244 -0.10855 -0.24244 -0.24244 0 -0.05873 0.02132 -0.11546 0.05999 -0.15965l2.2062 -2.52138c0.04357 -0.04979 0.10651 -0.07835 0.17266 -0.07835 0.12671 0 0.22943 0.10272 0.22943 0.22943V9.2506Zm0 0h0.66707m-0.66707 0v1.0006" stroke-width="1"></path><path id="Vector 8" stroke="#000000" stroke-linecap="round" stroke-linejoin="round" d="M12.333 9.2506H9.90714c-0.13389 0 -0.24244 -0.10855 -0.24244 -0.24244 0 -0.05873 0.02132 -0.11546 0.05999 -0.15965l2.20621 -2.52138c0.0436 -0.04979 0.1065 -0.07835 0.1727 -0.07835 0.1267 0 0.2294 0.10272 0.2294 0.22943V9.2506Zm0 0h0.6671m-0.6671 0v1.0006" stroke-width="1"></path><path id="Vector 2" stroke="#000000" stroke-linecap="round" stroke-linejoin="round" d="M5.75964 7.22159v2.0568c0 0.53727 0.43555 0.97281 0.97282 0.97281h0.72265c0.53727 0 0.97282 -0.43554 0.97282 -0.97281v-2.0568c0 -0.53727 -0.43555 -0.97281 -0.97282 -0.97281h-0.72265c-0.53727 0 -0.97282 0.43554 -0.97282 0.97281Z" stroke-width="1"></path></g></svg>