<svg xmlns="http://www.w3.org/2000/svg" fill="none" viewBox="0 0 14 14"><g id="browser-lock--secure-password-window-browser-lock-security-login-encryption"><path id="Vector" stroke="#000000" stroke-linecap="round" stroke-linejoin="round" d="M12.0769 1H1.92308C1.41328 1 1 1.41328 1 1.92308V12.0769c0 0.5098 0.41328 0.9231 0.92308 0.9231H12.0769c0.5098 0 0.9231 -0.4133 0.9231 -0.9231V1.92308C13 1.41328 12.5867 1 12.0769 1Z" stroke-width="1"></path><path id="Vector_2" stroke="#000000" stroke-linecap="round" stroke-linejoin="round" d="M1 3.5h12.0001" stroke-width="1"></path><path id="Vector 2571" stroke="#000000" stroke-linecap="round" stroke-linejoin="round" d="M4.75 10.5v-2c0 -0.27614 0.22386 -0.5 0.5 -0.5h3.5c0.27614 0 0.5 0.22386 0.5 0.5v2c0 0.2761 -0.22386 0.5 -0.5 0.5h-3.5c-0.27614 0 -0.5 -0.2239 -0.5 -0.5Z" stroke-width="1"></path><path id="Vector 2572" stroke="#000000" stroke-linecap="round" stroke-linejoin="round" d="M5.5 8V7c0 -0.82843 0.67157 -1.5 1.5 -1.5v0c0.82843 0 1.5 0.67157 1.5 1.5v1" stroke-width="1"></path></g></svg>