<svg xmlns="http://www.w3.org/2000/svg" fill="none" viewBox="0 0 14 14"><g id="browser-key--secure-password-window-browser-key-security-login"><path id="Vector" stroke="#000000" stroke-linecap="round" stroke-linejoin="round" d="M12.0769 1H1.92308C1.41328 1 1 1.41328 1 1.92308V12.0769c0 0.5098 0.41328 0.9231 0.92308 0.9231H12.0769c0.5098 0 0.9231 -0.4133 0.9231 -0.9231V1.92308C13 1.41328 12.5867 1 12.0769 1Z" stroke-width="1"></path><path id="Vector_2" stroke="#000000" stroke-linecap="round" stroke-linejoin="round" d="M1 3.5h12.0001" stroke-width="1"></path><path id="Vector_3" stroke="#000000" stroke-linecap="round" stroke-linejoin="round" d="M5.23375 10.9361c0.9402 0 1.70238 -0.7622 1.70238 -1.70238 0 -0.9402 -0.76218 -1.70238 -1.70238 -1.70238s-1.70238 0.76218 -1.70238 1.70238c0 0.94018 0.76218 1.70238 1.70238 1.70238Z" stroke-width="1"></path><path id="Vector_4" stroke="#000000" stroke-linecap="round" stroke-linejoin="round" d="m6.46488 8.05688 2.3373 -2.38327c0.03398 -0.03477 0.07437 -0.06236 0.11883 -0.08119 0.04447 -0.01883 0.09214 -0.02852 0.14029 -0.02852s0.09582 0.00969 0.14028 0.02852c0.04447 0.01883 0.08485 0.04642 0.11884 0.08119l1.14828 1.19157" stroke-width="1"></path><path id="Vector_5" stroke="#000000" stroke-linecap="round" stroke-linejoin="round" d="m7.6778 6.82124 1.04854 1.04854" stroke-width="1"></path></g></svg>