<svg xmlns="http://www.w3.org/2000/svg" fill="none" viewBox="0 0 14 14"><g id="brush-setting-bolt-nut"><path id="Vector" stroke="#000000" stroke-linecap="round" stroke-linejoin="round" d="M5.04667 9.83469C3.81108 11.0784 1.71137 11.4902 0.5 10.2466c1.61516 -1.67173 0 -2.47931 1.21137 -3.69068 0.2127 -0.23694 0.47149 -0.42802 0.76054 -0.56156 0.28906 -0.13354 0.6023 -0.20673 0.9206 -0.21511 0.3183 -0.00837 0.63496 0.04824 0.93064 0.16639 0.29567 0.11815 0.56415 0.29535 0.78903 0.52078 0.22487 0.22542 0.40141 0.49433 0.51884 0.79029 0.11743 0.29597 0.17327 0.61277 0.16412 0.93104 -0.00916 0.31828 -0.08312 0.63135 -0.21736 0.92007 -0.13424 0.28873 -0.32595 0.54705 -0.56341 0.75917l0.0323 -0.0323Z" stroke-width="1"></path><path id="Vector_2" stroke="#000000" stroke-linecap="round" stroke-linejoin="round" d="m3.89258 5.81389 4.28414 -4.77786C8.78567 0.351451 9.8849 0.317559 10.5349 0.963344c0.6461 0.649986 0.6121 1.749246 -0.0727 2.358136l-4.72974 4.2352" stroke-width="1"></path><path id="Rectangle 1921" stroke="#000000" stroke-linecap="round" stroke-linejoin="round" d="m7.5 8.75 3 -1.75 3 1.75v3l-3 1.75 -3 -1.75v-3Z" stroke-width="1"></path><path id="Ellipse 1472" stroke="#000000" stroke-linecap="round" stroke-linejoin="round" d="M10 10.25a0.5 0.5 0 1 0 1 0 0.5 0.5 0 1 0 -1 0" stroke-width="1"></path></g></svg>