<svg width="32" height="32" viewBox="0 0 32 32" fill="none" xmlns="http://www.w3.org/2000/svg">
<path d="M16 9.5V13.5" stroke="#01040B" stroke-width="1.5" stroke-linecap="round" stroke-linejoin="round"/>
<path d="M9.5 13.5H22.5V21.5C22.5 21.7652 22.3946 22.0196 22.2071 22.2071C22.0196 22.3946 21.7652 22.5 21.5 22.5H10.5C10.2348 22.5 9.98043 22.3946 9.79289 22.2071C9.60536 22.0196 9.5 21.7652 9.5 21.5V13.5Z" stroke="#01040B" stroke-width="1.5" stroke-linecap="round" stroke-linejoin="round"/>
<path d="M9.5 13.5L11 10.61C11.1617 10.2843 11.4092 10.0088 11.7158 9.81322C12.0223 9.61763 12.3765 9.50934 12.74 9.5H19.26C19.6321 9.5002 19.9967 9.60419 20.313 9.80028C20.6292 9.99637 20.8844 10.2768 21.05 10.61L22.5 13.5" stroke="#01040B" stroke-width="1.5" stroke-linecap="round" stroke-linejoin="round"/>
<path d="M18.4981 16L15.5018 20L13.5018 18.5018" stroke="#01040B" stroke-width="1.5" stroke-linecap="round" stroke-linejoin="round"/>
</svg>
