<svg width="32" height="32" viewBox="0 0 32 32" fill="none" xmlns="http://www.w3.org/2000/svg">
<path d="M19.9311 15.3519C20.8667 15.5662 21.7989 14.9814 22.0132 14.0457C22.2274 13.1101 21.6426 12.1779 20.707 11.9636C19.7713 11.7494 18.8391 12.3342 18.6249 13.2698C18.4106 14.2055 18.9954 15.1377 19.9311 15.3519Z" stroke="#01040B" stroke-width="1.5" stroke-linecap="round" stroke-linejoin="round"/>
<path d="M10.7393 10.6562H9.64551V14.25C9.64551 16.0277 11.0866 17.4688 12.8643 17.4688C14.6419 17.4688 16.083 16.0277 16.083 14.25V10.6562H14.9893" stroke="#01040B" stroke-width="1.5" stroke-linecap="round" stroke-linejoin="round"/>
<path d="M12.9268 17.5V18.7078C12.9268 20.7504 14.5826 22.4062 16.6252 22.4062C18.6679 22.4062 20.3237 20.7504 20.3237 18.7078V15.5938" stroke="#01040B" stroke-width="1.5" stroke-linecap="round" stroke-linejoin="round"/>
</svg>
