<svg width="32" height="32" viewBox="0 0 32 32" fill="none" xmlns="http://www.w3.org/2000/svg">
<path d="M21.1818 16.5H13.0018L12.0018 11.5H22.0018C22.075 11.5003 22.1471 11.5166 22.2133 11.5478C22.2794 11.579 22.3379 11.6243 22.3846 11.6806C22.4314 11.7368 22.4652 11.8026 22.4837 11.8734C22.5022 11.9441 22.505 12.0181 22.4918 12.09L21.6718 16.09C21.6527 16.2057 21.5927 16.3106 21.5028 16.3858C21.4129 16.4611 21.299 16.5016 21.1818 16.5Z" stroke="#01040B" stroke-width="1.5" stroke-linecap="round" stroke-linejoin="round"/>
<path d="M12.0018 11.5L11.5818 9.9C11.5588 9.78706 11.4974 9.68556 11.4081 9.61267C11.3188 9.53978 11.2071 9.49998 11.0918 9.5H9.50183" stroke="#01040B" stroke-width="1.5" stroke-linecap="round" stroke-linejoin="round"/>
<path d="M13.0018 16.5L13.4218 18.6C13.4449 18.7129 13.5063 18.8144 13.5955 18.8873C13.6848 18.9602 13.7966 19 13.9118 19H20.0018" stroke="#01040B" stroke-width="1.5" stroke-linecap="round" stroke-linejoin="round"/>
<path d="M19.5018 22.5C19.2257 22.5 19.0018 22.2761 19.0018 22C19.0018 21.7239 19.2257 21.5 19.5018 21.5C19.778 21.5 20.0018 21.7239 20.0018 22C20.0018 22.2761 19.778 22.5 19.5018 22.5Z" stroke="#01040B" stroke-width="1.5" stroke-linecap="round" stroke-linejoin="round"/>
<path d="M14.5018 22.5C14.2257 22.5 14.0018 22.2761 14.0018 22C14.0018 21.7239 14.2257 21.5 14.5018 21.5C14.778 21.5 15.0018 21.7239 15.0018 22C15.0018 22.2761 14.778 22.5 14.5018 22.5Z" stroke="#01040B" stroke-width="1.5" stroke-linecap="round" stroke-linejoin="round"/>
</svg>
