<svg width="32" height="33" viewBox="0 0 32 33" fill="none" xmlns="http://www.w3.org/2000/svg">
<path d="M13 10.1094H10.5C9.94771 10.1094 9.5 10.5571 9.5 11.1094V22.1094C9.5 22.6617 9.94771 23.1094 10.5 23.1094H13C13.5523 23.1094 14 22.6617 14 22.1094V11.1094C14 10.5571 13.5523 10.1094 13 10.1094Z" stroke="#01040B" stroke-linecap="round" stroke-linejoin="round"/>
<path d="M21.5 10.1094H19C18.4477 10.1094 18 10.5571 18 11.1094V22.1094C18 22.6617 18.4477 23.1094 19 23.1094H21.5C22.0523 23.1094 22.5 22.6617 22.5 22.1094V11.1094C22.5 10.5571 22.0523 10.1094 21.5 10.1094Z" stroke="#01040B" stroke-linecap="round" stroke-linejoin="round"/>
</svg>
