<svg width="32" height="32" viewBox="0 0 32 32" fill="none" xmlns="http://www.w3.org/2000/svg">
<g clip-path="url(#clip0_210_518)">
<path d="M14.307 21.3031C14.2515 21.2106 14.1729 21.1341 14.079 21.081C13.9851 21.0279 13.879 21 13.7711 21H9.125C8.95924 21 8.80027 20.9342 8.68306 20.8169C8.56585 20.6997 8.5 20.5408 8.5 20.375V10.375C8.5 10.2092 8.56585 10.0503 8.68306 9.93306C8.80027 9.81585 8.95924 9.75 9.125 9.75H22.875C23.0408 9.75 23.1997 9.81585 23.3169 9.93306C23.4342 10.0503 23.5 10.2092 23.5 10.375V20.375C23.5 20.5408 23.4342 20.6997 23.3169 20.8169C23.1997 20.9342 23.0408 21 22.875 21H18.2289C18.121 21 18.0149 21.0279 17.921 21.081C17.8271 21.1341 17.7485 21.2106 17.693 21.3031L16.5359 23.1969C16.4804 23.2894 16.4019 23.366 16.3079 23.4192C16.214 23.4724 16.1079 23.5003 16 23.5003C15.8921 23.5003 15.786 23.4724 15.6921 23.4192C15.5981 23.366 15.5196 23.2894 15.4641 23.1969L14.307 21.3031Z" stroke="#01040B" stroke-width="1.5" stroke-linecap="round" stroke-linejoin="round"/>
<path d="M16.1562 16.4688C16.674 16.4688 17.0938 16.049 17.0938 15.5312C17.0938 15.0135 16.674 14.5938 16.1562 14.5938C15.6385 14.5938 15.2188 15.0135 15.2188 15.5312C15.2188 16.049 15.6385 16.4688 16.1562 16.4688Z" fill="#01040B"/>
<path d="M12.7188 16.4688C13.2365 16.4688 13.6562 16.049 13.6562 15.5312C13.6562 15.0135 13.2365 14.5938 12.7188 14.5938C12.201 14.5938 11.7812 15.0135 11.7812 15.5312C11.7812 16.049 12.201 16.4688 12.7188 16.4688Z" fill="#01040B"/>
<path d="M19.5938 16.4688C20.1115 16.4688 20.5312 16.049 20.5312 15.5312C20.5312 15.0135 20.1115 14.5938 19.5938 14.5938C19.076 14.5938 18.6562 15.0135 18.6562 15.5312C18.6562 16.049 19.076 16.4688 19.5938 16.4688Z" fill="#01040B"/>
</g>
<defs>
<clipPath id="clip0_210_518">
<rect width="20" height="20" fill="white" transform="translate(6 6)"/>
</clipPath>
</defs>
</svg>
