<svg xmlns="http://www.w3.org/2000/svg" fill="none" viewBox="0 0 14 14"><g id="bug-virus-phone--bug-phone-file-virus-threat-danger-mobile"><path id="Vector" stroke="#000000" stroke-linecap="round" stroke-linejoin="round" d="M7 3c0 -0.66304 0.26339 -1.29893 0.73223 -1.76777C8.20107 0.763392 8.83696 0.5 9.5 0.5c0.663 0 1.2989 0.263392 1.7678 0.73223C11.7366 1.70107 12 2.33696 12 3v2c0 0.66304 -0.2634 1.29893 -0.7322 1.76777C10.7989 7.23661 10.163 7.5 9.5 7.5c-0.66304 0 -1.29893 -0.26339 -1.76777 -0.73223C7.26339 6.29893 7 5.66304 7 5V3Z" stroke-width="1"></path><path id="Vector_2" stroke="#000000" stroke-linecap="round" stroke-linejoin="round" d="m6 0.5 1.3 1.3" stroke-width="1"></path><path id="Vector_3" stroke="#000000" stroke-linecap="round" stroke-linejoin="round" d="m6 7.50001 1.3 -1.3" stroke-width="1"></path><path id="Vector_4" stroke="#000000" stroke-linecap="round" stroke-linejoin="round" d="M7 4H5.5" stroke-width="1"></path><path id="Vector_5" stroke="#000000" stroke-linecap="round" stroke-linejoin="round" d="m13 0.5 -1.3 1.3" stroke-width="1"></path><path id="Vector_6" stroke="#000000" stroke-linecap="round" stroke-linejoin="round" d="m13 7.50001 -1.3 -1.3" stroke-width="1"></path><path id="Vector_7" stroke="#000000" stroke-linecap="round" stroke-linejoin="round" d="M12 4h1.5" stroke-width="1"></path><path id="Vector_8" stroke="#000000" stroke-linecap="round" stroke-linejoin="round" d="M7 3.5h5" stroke-width="1"></path><path id="Vector_9" stroke="#000000" stroke-linecap="round" stroke-linejoin="round" d="M3.75 0.5H1.5c-0.552285 0 -1 0.447715 -1 1v11c0 0.5523 0.447715 1 1 1h7c0.55228 0 1 -0.4477 1 -1V9.75" stroke-width="1"></path><path id="Vector_10" stroke="#000000" stroke-linecap="round" stroke-linejoin="round" d="M4.5 11h1" stroke-width="1"></path></g></svg>