<svg xmlns="http://www.w3.org/2000/svg" fill="none" viewBox="0 0 14 14"><g id="bus-front"><path id="Vector 4554" stroke="#000000" stroke-linecap="round" stroke-linejoin="round" d="M2.75 2v8.5c0 0.5523 0.44772 1 1 1h6.5c0.5523 0 1 -0.4477 1 -1V2c0 -0.55228 -0.4477 -1 -1 -1h-6.5c-0.55228 0 -1 0.44772 -1 1Z" stroke-width="1"></path><path id="Vector 4555" stroke="#000000" stroke-linecap="round" stroke-linejoin="round" d="M4 11.5V13" stroke-width="1"></path><path id="Vector 4556" stroke="#000000" stroke-linecap="round" stroke-linejoin="round" d="M10 11.5V13" stroke-width="1"></path><path id="Vector 4557" stroke="#000000" stroke-linecap="round" stroke-linejoin="round" d="M1 6V4.5c0 -0.55228 0.44772 -1 1 -1h10c0.5523 0 1 0.44772 1 1V6" stroke-width="1"></path><path id="Vector 4558" stroke="#000000" stroke-linecap="round" stroke-linejoin="round" d="M2.75 7.5h8.5" stroke-width="1"></path><path id="Vector 4560" stroke="#000000" stroke-linecap="round" stroke-linejoin="round" d="M4.5 9.5h1" stroke-width="1"></path><path id="Vector 4561" stroke="#000000" stroke-linecap="round" stroke-linejoin="round" d="M8.5 9.5h1" stroke-width="1"></path></g></svg>