<svg xmlns="http://www.w3.org/2000/svg" fill="none" viewBox="0 0 14 14"><g id="business-to-business--business-b2b-transactions-deals-agreement"><path id="Vector 3205" stroke="#000000" stroke-linecap="round" stroke-linejoin="round" d="M0.5 6V4c0 -1.10457 0.89543 -2 2 -2H5" stroke-width="1"></path><path id="Vector 3212" stroke="#000000" stroke-linecap="round" stroke-linejoin="round" d="M3.5 0.5 5 2 3.5 3.5" stroke-width="1"></path><path id="Vector 3206" stroke="#000000" stroke-linecap="round" stroke-linejoin="round" d="M13.5 8v2c0 1.1046 -0.8954 2 -2 2H9" stroke-width="1"></path><path id="Vector 3211" stroke="#000000" stroke-linecap="round" stroke-linejoin="round" d="M10.5 10.5 9 12l1.5 1.5" stroke-width="1"></path><path id="Vector 3207" stroke="#000000" stroke-linecap="round" stroke-linejoin="round" d="M7.5 3.5v2c0 0.55228 0.44772 1 1 1h4c0.5523 0 1 -0.44772 1 -1v-2c0 -0.55228 -0.4477 -1 -1 -1h-4c-0.55228 0 -1 0.44772 -1 1Z" stroke-width="1"></path><path id="Vector 3208" stroke="#000000" stroke-linecap="round" stroke-linejoin="round" d="M9.25 2.5v-1c0 -0.552285 0.44772 -1 1 -1h0.5c0.5523 0 1 0.447715 1 1v1" stroke-width="1"></path><path id="Vector 3209" stroke="#000000" stroke-linecap="round" stroke-linejoin="round" d="M0.5 10.5v2c0 0.5523 0.447715 1 1 1h4c0.55228 0 1 -0.4477 1 -1v-2c0 -0.55228 -0.44772 -1 -1 -1h-4c-0.552285 0 -1 0.44772 -1 1Z" stroke-width="1"></path><path id="Vector 3210" stroke="#000000" stroke-linecap="round" stroke-linejoin="round" d="M2.25 9.5v-1c0 -0.55228 0.44772 -1 1 -1h0.5c0.55228 0 1 0.44772 1 1v1" stroke-width="1"></path></g></svg>