<svg width="14" height="14" viewBox="0 0 14 14" fill="none" xmlns="http://www.w3.org/2000/svg">
<path d="M8.27652 3.97868C8.23262 3.85447 8.16488 3.74153 8.07879 3.64535C7.89569 3.44076 7.62959 3.31201 7.33342 3.31201H6.55938C6.06639 3.31201 5.66675 3.71166 5.66675 4.20465C5.66675 4.62413 5.95883 4.98702 6.36863 5.07667L7.54712 5.33446C8.0062 5.43489 8.33343 5.84172 8.33343 6.31166C8.33343 6.86395 7.88571 7.31203 7.33342 7.31203H6.66675C6.23134 7.31203 5.86093 7.03376 5.72365 6.64536" stroke="#01040B" stroke-linecap="round" stroke-linejoin="round"/>
<path d="M7 3.31202V2.31201" stroke="#01040B" stroke-linecap="round" stroke-linejoin="round"/>
<path d="M7 8.31202V7.31201" stroke="#01040B" stroke-linecap="round" stroke-linejoin="round"/>
<path d="M11.4999 5.03108C11.5054 4.22784 11.2959 3.43776 10.893 2.74285C10.4901 2.04795 9.90851 1.47356 9.20866 1.07931C8.50881 0.68506 7.71619 0.485325 6.91309 0.50084C6.10998 0.516354 5.32566 0.746553 4.64156 1.16754C3.95746 1.58852 3.39852 2.18495 3.02275 2.89489C2.64699 3.60484 2.4681 4.40242 2.50467 5.20485C2.54123 6.00727 2.79191 6.78528 3.23069 7.45811C3.66947 8.13094 4.28034 8.67405 4.99989 9.03108V10.5311C4.99989 10.6637 5.05257 10.7909 5.14634 10.8846C5.24011 10.9784 5.36729 11.0311 5.49989 11.0311H8.49989C8.6325 11.0311 8.75968 10.9784 8.85345 10.8846C8.94722 10.7909 8.99989 10.6637 8.99989 10.5311V9.03108C9.74737 8.6628 10.3773 8.09336 10.819 7.38675C11.2606 6.68013 11.4964 5.86434 11.4999 5.03108Z" stroke="#01040B" stroke-linecap="round" stroke-linejoin="round"/>
<path d="M4.99976 13.5H8.99976" stroke="#01040B" stroke-linecap="round" stroke-linejoin="round"/>
</svg>
