<svg xmlns="http://www.w3.org/2000/svg" fill="none" viewBox="0 0 14 14"><g id="button-rewind-circle-1--rewind-television-button-movies-buttons-tv-video-controls"><path id="Vector" stroke="#000000" stroke-linecap="round" stroke-linejoin="round" d="M10 8.95576c0.0003 0.07585 -0.0188 0.15035 -0.05514 0.21548 -0.03635 0.06514 -0.08861 0.11845 -0.15116 0.1542 -0.06148 0.03941 -0.13182 0.06023 -0.2035 0.06023 -0.07169 0 -0.14202 -0.02082 -0.20351 -0.06023L6.55434 7.35776c-0.05526 -0.03773 -0.10074 -0.08974 -0.13224 -0.15123 -0.03151 -0.06148 -0.04802 -0.13046 -0.04802 -0.20057s0.01651 -0.13909 0.04802 -0.20058c0.0315 -0.06148 0.07698 -0.11349 0.13224 -0.15122l2.83235 -1.97962c0.06149 -0.03941 0.13182 -0.06022 0.20351 -0.06022 0.07168 0 0.14202 0.02081 0.2035 0.06022 0.06255 0.03576 0.11481 0.08907 0.15116 0.15421 0.03634 0.06513 0.05544 0.13963 0.05514 0.21548v3.91153Z" stroke-width="1"></path><path id="Vector_2" stroke="#000000" stroke-linecap="round" stroke-linejoin="round" d="M6.3761 8.95576c0.00027 0.07585 -0.0188 0.15035 -0.05514 0.21548 -0.03635 0.06514 -0.08861 0.11845 -0.15116 0.1542 -0.06148 0.03941 -0.13182 0.06023 -0.2035 0.06023 -0.07169 0 -0.14202 -0.02082 -0.20351 -0.06023L2.93043 7.35776c-0.05525 -0.03773 -0.10073 -0.08974 -0.13224 -0.15123 -0.0315 -0.06148 -0.04801 -0.13046 -0.04801 -0.20057s0.01651 -0.13909 0.04801 -0.20058c0.03151 -0.06148 0.07699 -0.11349 0.13224 -0.15122l2.83236 -1.97962c0.06149 -0.03941 0.13182 -0.06022 0.20351 -0.06022 0.07168 0 0.14202 0.02081 0.2035 0.06022 0.06091 0.03479 0.11209 0.08624 0.14833 0.14909 0.03624 0.06285 0.05624 0.13486 0.05797 0.20868v3.92345Z" stroke-width="1"></path><path id="Ellipse 609" stroke="#000000" stroke-linecap="round" stroke-linejoin="round" d="M0.5 7a6.5 6.5 0 1 0 13 0 6.5 6.5 0 1 0 -13 0" stroke-width="1"></path></g></svg>