<svg xmlns="http://www.w3.org/2000/svg" fill="none" viewBox="0 0 14 14"><g id="button-go-backward-15"><path id="Vector 3" stroke="#000000" stroke-linecap="round" stroke-linejoin="round" d="m9.90579 5.81702 -2.03233 0 -0.31267 1.87599 0.22922 -0.11461c0.2605 -0.13024 0.54774 -0.19805 0.83898 -0.19805h0.49513c0.51805 0 0.93798 0.41995 0.93798 0.938l0 0.31266c0 0.51805 -0.41993 0.938 -0.93798 0.938h-0.62533c-0.40841 0 -0.75586 -0.26101 -0.88463 -0.62533" stroke-width="1"></path><path id="Vector 2" stroke="#000000" stroke-linecap="round" stroke-linejoin="round" d="m5.1886 5.81702 0 3.75198" stroke-width="1"></path><path id="Vector 3_2" stroke="#000000" stroke-linecap="round" stroke-linejoin="round" d="m3.93794 6.75501 0.31266 0c0.51804 0 0.938 -0.41995 0.938 -0.93799v0" stroke-width="1"></path><path id="Vector 1" stroke="#000000" stroke-linecap="round" stroke-linejoin="round" d="m6.43921 9.56909 -2.50133 0" stroke-width="1"></path><path id="Ellipse 1140" stroke="#000000" stroke-linecap="round" d="M5 2h2c3.1756 0 5.75 2.57436 5.75 5.75 0 3.1756 -2.5744 5.75 -5.75 5.75 -3.17564 0 -5.75 -2.5744 -5.75 -5.75 0 -1.62106 0.67082 -3.08543 1.75 -4.13068" stroke-width="1"></path><path id="Vector 2573" stroke="#000000" stroke-linecap="round" stroke-linejoin="round" d="M6.5 0.5 5 2l1.5 1.5" stroke-width="1"></path></g></svg>