<svg xmlns="http://www.w3.org/2000/svg" fill="none" viewBox="0 0 14 14"><g id="button-go-forward-60"><path id="Vector 2" stroke="#000000" stroke-linecap="round" stroke-linejoin="round" d="M7.69824 6.8197v1.74675c0 0.55228 0.44772 1 1 1h0.49783c0.55229 0 1.00003 -0.44772 1.00003 -1V6.8197c0 -0.55228 -0.44774 -1 -1.00003 -1h-0.49783c-0.55228 0 -1 0.44772 -1 1Z" stroke-width="1"></path><path id="Vector" stroke="#000000" stroke-linecap="round" stroke-linejoin="round" d="m3.80384 8.62975 0 -0.15611c0 -0.51732 0.41936 -0.93668 0.93668 -0.93668l0.62445 -0.00001c0.51732 0 0.93668 0.41937 0.93668 0.93669v0.15611c0 0.51732 -0.41936 0.93668 -0.93667 0.93668l-0.62445 0.00001c-0.51732 0 -0.93669 -0.41937 -0.93669 -0.93669Zm0 0 -0.00001 -1.87337c0 -0.51731 0.41937 -0.93668 0.93668 -0.93668h0.62446c0.40784 0 0.7548 0.26065 0.88338 0.62446" stroke-width="1"></path><path id="Ellipse 1140" stroke="#000000" stroke-linecap="round" d="M9 2H7C3.82436 2 1.25 4.57436 1.25 7.75c0 3.1756 2.57436 5.75 5.75 5.75 3.1756 0 5.75 -2.5744 5.75 -5.75 0 -1.62106 -0.6708 -3.08543 -1.75 -4.13068" stroke-width="1"></path><path id="Vector 2573" stroke="#000000" stroke-linecap="round" stroke-linejoin="round" d="M7.5 0.5 9 2 7.5 3.5" stroke-width="1"></path></g></svg>