<svg xmlns="http://www.w3.org/2000/svg" fill="none" viewBox="0 0 14 14"><g id="button-fast-forward-circle-2--button-controls-fast-forward-movies-television-video-tv"><path id="Vector" stroke="#000000" stroke-linecap="round" stroke-linejoin="round" d="M3.37488 8.75445c-0.00027 0.07585 0.01879 0.15035 0.05514 0.21548 0.03635 0.06514 0.08861 0.11845 0.15116 0.15421 0.06148 0.03941 0.13182 0.06023 0.2035 0.06023 0.07169 0 0.14203 -0.02082 0.20351 -0.06023l2.83239 -1.96771c0.05526 -0.03773 0.10074 -0.08974 0.13224 -0.15122 0.0315 -0.06149 0.04802 -0.13047 0.04802 -0.20058s-0.01652 -0.1391 -0.04802 -0.20058c-0.0315 -0.06149 -0.07698 -0.11349 -0.13224 -0.15122L3.98819 4.47319c-0.06148 -0.03941 -0.13182 -0.06023 -0.20351 -0.06023 -0.07168 0 -0.14202 0.02082 -0.2035 0.06023 -0.06255 0.03576 -0.11481 0.08907 -0.15116 0.15421 -0.03635 0.06513 -0.05541 0.13963 -0.05514 0.21548v3.91157Z" stroke-width="1"></path><path id="Vector_2" stroke="#000000" stroke-linecap="round" stroke-linejoin="round" d="M6.99903 8.75445c-0.00027 0.07585 0.01879 0.15035 0.05514 0.21548 0.03634 0.06514 0.0886 0.11845 0.15115 0.15421 0.06149 0.03941 0.13183 0.06023 0.20351 0.06023s0.14202 -0.02082 0.20351 -0.06023l2.83236 -1.96771c0.0553 -0.03773 0.1008 -0.08974 0.1323 -0.15122 0.0315 -0.06149 0.048 -0.13047 0.048 -0.20058s-0.0165 -0.1391 -0.048 -0.20058c-0.0315 -0.06149 -0.077 -0.11349 -0.1323 -0.15122L7.61234 4.47319c-0.06149 -0.03941 -0.13183 -0.06023 -0.20351 -0.06023s-0.14202 0.02082 -0.20351 0.06023c-0.0609 0.03479 -0.11209 0.08623 -0.14833 0.14909 -0.03624 0.06285 -0.05624 0.13486 -0.05796 0.20868v3.92349Z" stroke-width="1"></path><path id="Vector_3" stroke="#000000" stroke-linecap="round" stroke-linejoin="round" d="M10.6232 4.10944v5.36648" stroke-width="1"></path><path id="Ellipse 609" stroke="#000000" stroke-linecap="round" stroke-linejoin="round" d="M0.5 7a6.5 6.5 0 1 0 13 0 6.5 6.5 0 1 0 -13 0" stroke-width="1"></path></g></svg>