<svg xmlns="http://www.w3.org/2000/svg" fill="none" viewBox="0 0 14 14"><g id="button-go-backward-30"><path id="Vector 2" stroke="#000000" stroke-linecap="round" stroke-linejoin="round" d="M7.68701 6.81909v1.74799c0 0.55228 0.44772 1 1 1h0.49866c0.55228 0 1.00003 -0.44772 1.00003 -1V6.81909c0 -0.55228 -0.44775 -1 -1.00003 -1h-0.49866c-0.55228 0 -1 0.44772 -1 1Z" stroke-width="1"></path><path id="Vector" stroke="#000000" stroke-linecap="round" stroke-linejoin="round" d="M3.81445 8.9424c0.12863 0.36393 0.47571 0.62467 0.88369 0.62467l0.62465 0c0.51749 0 0.93699 -0.41951 0.93699 -0.93699l0 -0.15617c0 -0.51749 -0.4195 -0.937 -0.93699 -0.937l-0.31233 0h0.23425c0.47437 0 0.85891 -0.38454 0.85891 -0.85891 0 -0.47436 -0.38455 -0.85891 -0.85892 -0.85891l-0.46849 0.00001c-0.39315 0 -0.7246 0.26415 -0.82657 0.62465" stroke-width="1"></path><path id="Ellipse 1140" stroke="#000000" stroke-linecap="round" d="M5 2h2c3.1756 0 5.75 2.57436 5.75 5.75 0 3.1756 -2.5744 5.75 -5.75 5.75 -3.17564 0 -5.75 -2.5744 -5.75 -5.75 0 -1.62106 0.67082 -3.08543 1.75 -4.13068" stroke-width="1"></path><path id="Vector 2573" stroke="#000000" stroke-linecap="round" stroke-linejoin="round" d="M6.5 0.5 5 2l1.5 1.5" stroke-width="1"></path></g></svg>