<svg xmlns="http://www.w3.org/2000/svg" fill="none" viewBox="0 0 14 14"><g id="button-go-forward-75"><path id="Vector 3" stroke="#000000" stroke-linecap="round" stroke-linejoin="round" d="m9.88511 5.81604 -2.03345 0 -0.31284 1.87703 0.22935 -0.11467c0.26063 -0.13032 0.54803 -0.19817 0.83943 -0.19817h0.49541c0.51833 0 0.93849 0.42019 0.93849 0.93852l0 0.31284c0 0.51833 -0.42016 0.93851 -0.93849 0.93851h-0.62568c-0.40863 0 -0.75627 -0.26116 -0.88511 -0.62567" stroke-width="1"></path><path id="Vector 2" stroke="#000000" stroke-linecap="round" stroke-linejoin="round" d="m5.20982 9.57011 0 -0.43597c0 -1.13536 0.38641 -2.23691 1.09566 -3.12347l0.1557 -0.19463 -2.50271 0 0 0.62568" stroke-width="1"></path><path id="Ellipse 1140" stroke="#000000" stroke-linecap="round" d="M9 2H7C3.82436 2 1.25 4.57436 1.25 7.75c0 3.1756 2.57436 5.75 5.75 5.75 3.1756 0 5.75 -2.5744 5.75 -5.75 0 -1.62106 -0.6708 -3.08543 -1.75 -4.13068" stroke-width="1"></path><path id="Vector 2573" stroke="#000000" stroke-linecap="round" stroke-linejoin="round" d="M7.5 0.5 9 2 7.5 3.5" stroke-width="1"></path></g></svg>