<svg width="5" height="6" viewBox="0 0 5 6" fill="none" xmlns="http://www.w3.org/2000/svg">
<g id="button-play--button-television-buttons-movies-play-tv-video-controls">
<path id="Vector" d="M0.389648 5.16543C0.391107 5.25009 0.415738 5.33273 0.46086 5.40435C0.505982 5.47597 0.569873 5.53386 0.645586 5.57168C0.721193 5.61442 0.806558 5.63688 0.893398 5.63688C0.980238 5.63688 1.06561 5.61442 1.14121 5.57168L4.65527 3.39826C4.73173 3.36143 4.79624 3.30376 4.84141 3.23189C4.88655 3.16003 4.91048 3.07688 4.91048 2.99201C4.91048 2.90714 4.88655 2.82399 4.84141 2.75213C4.79624 2.68026 4.73173 2.6226 4.65527 2.58576L1.14121 0.428573C1.06561 0.385853 0.980238 0.363403 0.893398 0.363403C0.806558 0.363403 0.721193 0.385853 0.645586 0.428573C0.569873 0.466431 0.505982 0.524316 0.46086 0.59594C0.415738 0.667562 0.391107 0.750185 0.389648 0.834823V5.16543Z" fill="white"/>
</g>
</svg>
