<svg xmlns="http://www.w3.org/2000/svg" fill="none" viewBox="0 0 14 14"><g id="button-play--button-television-buttons-movies-play-tv-video-controls"><path id="Vector" stroke="#000000" stroke-linecap="round" stroke-linejoin="round" d="M1.43591 12.33c0.00359 0.2083 0.06422 0.4117 0.17529 0.588 0.11107 0.1763 0.26834 0.3188 0.45471 0.412 0.18611 0.1052 0.39624 0.1604 0.61 0.1604s0.4239 -0.0552 0.61 -0.1604l8.64999 -5.35c0.1882 -0.09067 0.347 -0.23262 0.4582 -0.40952 0.1111 -0.1769 0.17 -0.38157 0.17 -0.59048 0 -0.20891 -0.0589 -0.41358 -0.17 -0.59048 -0.1112 -0.1769 -0.27 -0.31885 -0.4582 -0.40952L3.28591 0.669999c-0.1861 -0.105157 -0.39624 -0.160416 -0.61 -0.160416s-0.42389 0.055259 -0.61 0.160416c-0.18637 0.093189 -0.34364 0.235678 -0.45471 0.411981 -0.11107 0.1763 -0.1717 0.37968 -0.17529 0.58802v10.66Z" stroke-width="1"></path></g></svg>