<svg xmlns="http://www.w3.org/2000/svg" fill="none" viewBox="0 0 14 14"><g id="button-next--button-television-buttons-movies-skip-next-video-controls"><path id="Vector" stroke="#000000" stroke-linecap="round" stroke-linejoin="round" d="M13.5 0.5v13" stroke-width="1"></path><path id="Vector_2" stroke="#000000" stroke-linecap="round" stroke-linejoin="round" d="M0.520004 11.66c-0.000491 0.1799 0.047553 0.3566 0.139069 0.5115 0.091517 0.1548 0.223116 0.2822 0.380927 0.3685 0.15202 0.0878 0.32447 0.134 0.5 0.134 0.17554 0 0.34798 -0.0462 0.5 -0.134l7.19 -4.7c0.14035 -0.09065 0.25575 -0.21503 0.33565 -0.36176 0.0799 -0.14674 0.12177 -0.31116 0.12177 -0.47824s-0.04187 -0.3315 -0.12177 -0.47823c-0.0799 -0.14674 -0.1953 -0.27111 -0.33565 -0.36177L2.02 1.5c-0.15202 -0.08777 -0.32446 -0.13397 -0.5 -0.13397 -0.17553 0 -0.34798 0.0462 -0.5 0.13397 -0.15781 0.08635 -0.28941 0.21367 -0.380927 0.36854 -0.091516 0.15488 -0.13956 0.33157 -0.139069 0.51146l0.02 9.28Z" stroke-width="1"></path></g></svg>