<svg xmlns="http://www.w3.org/2000/svg" fill="none" viewBox="0 0 14 14"><g id="buying-and-selling"><path id="Vector 595" stroke="#000000" stroke-linecap="round" stroke-linejoin="round" d="m11.4494 0.5 0 3.62849" stroke-width="1"></path><path id="Vector 596" stroke="#000000" stroke-linecap="round" stroke-linejoin="round" d="m13.2637 2.31421 -3.62853 0" stroke-width="1"></path><path id="Vector 596_2" stroke="#000000" stroke-linecap="round" stroke-linejoin="round" d="m13.2636 7.49316 -3.62844 0" stroke-width="1"></path><path id="Vector 294" stroke="#000000" stroke-linecap="round" stroke-linejoin="round" d="M0.736343 10.7029 3.4705 12.9813c0.40214 0.3352 0.90905 0.5187 1.43253 0.5187l7.20827 0c0.5149 0 0.9323 -0.4174 0.9323 -0.9324 0 -1.0298 -0.8349 -1.8647 -1.8647 -1.8647H6.16754" stroke-width="1"></path><path id="Vector 295" stroke="#000000" stroke-linecap="round" stroke-linejoin="round" d="m4.09287 9.58397 0.83914 0.83913c0.46344 0.4634 1.21482 0.4634 1.67826 0 0.46344 -0.46343 0.46344 -1.21482 0 -1.67826L5.3077 7.44227c-0.41965 -0.41965 -0.98881 -0.6554 -1.58228 -0.6554H0.736343" stroke-width="1"></path></g></svg>