<svg xmlns="http://www.w3.org/2000/svg" fill="none" viewBox="0 0 14 14"><g id="cake--candle-birthday-event-special-sweet-cake-bake"><path id="Vector 3045" stroke="#000000" stroke-linecap="round" stroke-linejoin="round" d="M13 10.5h-0.75c-0.9665 0 -1.75 -0.7835 -1.75 -1.75 0 0.9665 -0.7835 1.75 -1.75 1.75S7 9.7165 7 8.75c0 0.9665 -0.7835 1.75 -1.75 1.75S3.5 9.7165 3.5 8.75c0 0.9665 -0.7835 1.75 -1.75 1.75H1" stroke-width="1"></path><path id="Vector 3044" stroke="#000000" stroke-linecap="round" stroke-linejoin="round" d="M1 12V7c0 -0.55228 0.44772 -1 1 -1h10c0.5523 0 1 0.44772 1 1v5c0 0.5523 -0.4477 1 -1 1H2c-0.55228 0 -1 -0.4477 -1 -1Z" stroke-width="1"></path><path id="Ellipse 1810" stroke="#000000" stroke-linecap="round" stroke-linejoin="round" d="M3.5 2.75C3.5 3.44036 2.94036 4 2.25 4S1 3.44036 1 2.75 2.25 1 2.25 1 3.5 2.05964 3.5 2.75Z" stroke-width="1"></path><path id="Ellipse 1811" stroke="#000000" stroke-linecap="round" stroke-linejoin="round" d="M13 2.75C13 3.44036 12.4404 4 11.75 4s-1.25 -0.55964 -1.25 -1.25S11.75 1 11.75 1 13 2.05964 13 2.75Z" stroke-width="1"></path><path id="Ellipse 1812" stroke="#000000" stroke-linecap="round" stroke-linejoin="round" d="M8.25 2.75C8.25 3.44036 7.69036 4 7 4s-1.25 -0.55964 -1.25 -1.25S7 1 7 1s1.25 1.05964 1.25 1.75Z" stroke-width="1"></path></g></svg>