<svg xmlns="http://www.w3.org/2000/svg" fill="none" viewBox="0 0 14 14"><g id="calendar-warning--alter-calendar-caution-date-day-month-notification-warning"><path id="Vector" stroke="#000000" stroke-linecap="round" stroke-linejoin="round" d="M7 5.5V8" stroke-width="1"></path><g id="Group 2567"><path id="Vector_2" stroke="#000000" stroke-linecap="round" stroke-linejoin="round" d="M7 10.5c-0.13807 0 -0.25 -0.1119 -0.25 -0.25S6.86193 10 7 10" stroke-width="1"></path><path id="Vector_3" stroke="#000000" stroke-linecap="round" stroke-linejoin="round" d="M7 10.5c0.13807 0 0.25 -0.1119 0.25 -0.25S7.13807 10 7 10" stroke-width="1"></path></g><path id="Vector_4" stroke="#000000" stroke-linecap="round" stroke-linejoin="round" d="M2 2.5c-0.26522 0 -0.51957 0.10536 -0.70711 0.29289C1.10536 2.98043 1 3.23478 1 3.5V12c0 0.2652 0.10536 0.5196 0.29289 0.7071C1.48043 12.8946 1.73478 13 2 13h10c0.2652 0 0.5196 -0.1054 0.7071 -0.2929S13 12.2652 13 12V3.5c0 -0.26522 -0.1054 -0.51957 -0.2929 -0.70711C12.5196 2.60536 12.2652 2.5 12 2.5H2Z" stroke-width="1"></path><path id="Vector_5" stroke="#000000" stroke-linecap="round" stroke-linejoin="round" d="M3.5 1v3" stroke-width="1"></path><path id="Vector_6" stroke="#000000" stroke-linecap="round" stroke-linejoin="round" d="M10.5 1v3" stroke-width="1"></path></g></svg>