<svg xmlns="http://www.w3.org/2000/svg" fill="none" viewBox="0 0 14 14"><g id="calendar-deadline--deadline-calendar-date-day-month-skull"><path id="Vector" stroke="#000000" stroke-linecap="round" stroke-linejoin="round" d="M2 2.5c-0.26522 0 -0.51957 0.10536 -0.70711 0.29289C1.10536 2.98043 1 3.23478 1 3.5V12c0 0.2652 0.10536 0.5196 0.29289 0.7071C1.48043 12.8946 1.73478 13 2 13h10c0.2652 0 0.5196 -0.1054 0.7071 -0.2929S13 12.2652 13 12V3.5c0 -0.26522 -0.1054 -0.51957 -0.2929 -0.70711C12.5196 2.60536 12.2652 2.5 12 2.5H2Z" stroke-width="1"></path><path id="Vector_2" stroke="#000000" stroke-linecap="round" stroke-linejoin="round" d="M3.5 1v3" stroke-width="1"></path><path id="Vector_3" stroke="#000000" stroke-linecap="round" stroke-linejoin="round" d="M10.5 1v3" stroke-width="1"></path><path id="Vector 4125" stroke="#000000" stroke-linecap="round" stroke-linejoin="round" d="M5.14106 6.69749 6.25 8.25 5.14106 9.80251C5.04932 9.93095 5 10.0849 5 10.2427c0 0.4182 0.33906 0.7573 0.75731 0.7573h2.48538C8.66094 11 9 10.6609 9 10.2427c0 -0.1578 -0.04932 -0.31175 -0.14106 -0.44019L7.75 8.25l1.10894 -1.55251C8.95068 6.56905 9 6.41515 9 6.25731 9 5.83906 8.66094 5.5 8.24269 5.5H5.75731C5.33906 5.5 5 5.83906 5 6.25731c0 0.15784 0.04932 0.31174 0.14106 0.44018Z" stroke-width="1"></path></g></svg>