<svg xmlns="http://www.w3.org/2000/svg" fill="none" viewBox="0 0 14 14"><g id="call-me-hand"><path id="Vector 2032" stroke="#000000" stroke-linecap="round" stroke-linejoin="round" d="m0.712891 10.5213 0.948979 -1.23827 -0.53549 -1.32523C0.935032 7.48424 0.83667 6.97826 0.83667 6.4675V3.63621c0 -0.54026 0.38222 -1.00502 0.91231 -1.10934 0.61694 -0.12141 1.21441 0.28385 1.32974 0.90196l0.36559 1.95935 0.73941 -1.19966" stroke-width="1"></path><path id="Vector 837" stroke="#000000" stroke-linecap="round" stroke-linejoin="round" d="m9.08342 7.34588 0.58881 -0.97552c0.41737 -0.69155 0.19213 -1.5907 -0.50202 -2.00375 -0.68547 -0.40789 -1.57152 -0.18835 -1.98726 0.49239l-0.59389 0.97243c-0.41987 0.68751 -0.20311 1.58521 0.48423 2.00537 0.69027 0.42195 1.59207 0.20171 2.01013 -0.49092Z" stroke-width="1"></path><path id="Vector 2034" stroke="#000000" stroke-linecap="round" stroke-linejoin="round" d="m6.60637 5.82049 0.58881 -0.97552c0.41741 -0.69155 0.19213 -1.5907 -0.50202 -2.00376 -0.68547 -0.40788 -1.57152 -0.18834 -1.98726 0.4924l-0.59389 0.97243c-0.41987 0.68751 -0.20311 1.58521 0.48423 2.00537 0.69027 0.42195 1.59207 0.20171 2.01013 -0.49092Z" stroke-width="1"></path><path id="Vector 2033" stroke="#000000" stroke-linecap="round" stroke-linejoin="round" d="m6.51221 13.3197 0.79228 -1.0161 1.02601 -0.3723c0.91084 -0.3305 1.6707 -0.9804 2.1385 -1.8289l2.8152 -5.10641c0.3229 -0.58575 0.1164 -1.32224 -0.4641 -1.65462 -0.586 -0.33559 -1.3331 -0.13363 -1.6703 0.45154L9.47656 6.69709" stroke-width="1"></path></g></svg>