<svg xmlns="http://www.w3.org/2000/svg" fill="none" viewBox="0 0 14 14"><g id="call-center-support-service"><path id="vector" stroke="#000000" stroke-linecap="round" stroke-linejoin="round" d="M7.50558 13.0654c0.5184 0.3338 1.13544 0.4801 1.74852 0.4146 0.61309 -0.0655 1.1853 -0.3388 1.6215 -0.7746l0.38 -0.38c0.1685 -0.1704 0.2631 -0.4004 0.2631 -0.64 0 -0.2397 -0.0946 -0.4696 -0.2631 -0.64L9.65558 9.45539c-0.16866 -0.16793 -0.39699 -0.26221 -0.635 -0.26221s-0.46633 0.09428 -0.635 0.26221v0c-0.17036 0.16855 -0.40034 0.26309 -0.64 0.26309 -0.23965 0 -0.46963 -0.09454 -0.64 -0.26309l-2.55 -2.55c-0.16854 -0.17036 -0.26308 -0.40034 -0.26308 -0.64 0 -0.23965 0.09454 -0.46963 0.26308 -0.64v0c0.16793 -0.16866 0.26221 -0.39698 0.26221 -0.635 0 -0.23801 -0.09428 -0.46633 -0.26221 -0.635l-1.54 -1.6c-0.17036 -0.16854 -0.40034 -0.26308 -0.64 -0.26308 -0.23965 0 -0.46963 0.09454 -0.64 0.26308l-0.38 0.38c-0.443591 0.43004 -0.726285 0.9992 -0.8009 1.61251 -0.074616 0.6133 0.063361 1.23364 0.390903 1.75749C2.68931 9.09418 4.9168 11.3217 7.50558 13.0654v0Z" stroke-width="1"></path><g id="group 15"><path id="vector 7" stroke="#000000" stroke-linecap="round" stroke-linejoin="round" d="M13.465 3.17162h-2.7479c-0.119 0 -0.2154 -0.09644 -0.2154 -0.2154v0c0 -0.05217 0.0189 -0.10257 0.0533 -0.14184L12.5151 0.574248c0.0387 -0.044236 0.0946 -0.069609 0.1534 -0.069609v0c0.1126 0 0.2039 0.09126 0.2039 0.203836V4.06061" stroke-width="1"></path></g><path id="vector 3" stroke="#000000" stroke-linecap="round" stroke-linejoin="round" d="M8.85087 4.06061H6.48022v-0.50513c0 -0.3532 0.20909 -0.67289 0.53267 -0.81446l1.31913 -0.57712c0.31519 -0.13789 0.51885 -0.4493 0.51885 -0.79333 0 -0.47824 -0.38769 -0.865931 -0.86593 -0.865931h-0.61572c-0.38707 0 -0.71637 0.247379 -0.83841 0.592661" stroke-width="1"></path></g></svg>