<svg xmlns="http://www.w3.org/2000/svg" fill="none" viewBox="0 0 14 14"><g id="camera-mode-photo--camera-mode-photo-setting-image-picture"><path id="Vector" stroke="#000000" stroke-linecap="round" stroke-linejoin="round" d="M10.75 5.875c0 -0.26522 -0.1054 -0.51957 -0.2929 -0.70711 -0.1875 -0.18753 -0.4419 -0.29289 -0.7071 -0.29289H9l-1 -1.5H6l-1 1.5h-0.75c-0.26522 0 -0.51957 0.10536 -0.70711 0.29289 -0.18753 0.18754 -0.29289 0.44189 -0.29289 0.70711v3.25c0 0.26522 0.10536 0.51957 0.29289 0.70711 0.18754 0.18749 0.44189 0.29289 0.70711 0.29289h5.5c0.2652 0 0.5196 -0.1054 0.7071 -0.29289 0.1875 -0.18754 0.2929 -0.44189 0.2929 -0.70711v-3.25Z" stroke-width="1"></path><path id="Vector_2" stroke="#000000" stroke-linecap="round" stroke-linejoin="round" d="M10.5 0.5h2c0.2652 0 0.5196 0.105357 0.7071 0.292893 0.1875 0.187537 0.2929 0.441887 0.2929 0.707107v2" stroke-width="1"></path><path id="Vector_3" stroke="#000000" stroke-linecap="round" stroke-linejoin="round" d="M0.5 3.5v-2c0 -0.26522 0.105357 -0.51957 0.292893 -0.707107C0.98043 0.605357 1.23478 0.5 1.5 0.5h2" stroke-width="1"></path><path id="Vector_4" stroke="#000000" stroke-linecap="round" stroke-linejoin="round" d="M10.5 13.5h2c0.2652 0 0.5196 -0.1054 0.7071 -0.2929s0.2929 -0.4419 0.2929 -0.7071v-2" stroke-width="1"></path><path id="Vector_5" stroke="#000000" stroke-linecap="round" stroke-linejoin="round" d="M0.5 10.5v2c0 0.2652 0.105357 0.5196 0.292893 0.7071 0.187537 0.1875 0.441887 0.2929 0.707107 0.2929h2" stroke-width="1"></path><path id="Vector_6" stroke="#000000" stroke-linecap="round" stroke-linejoin="round" d="M7 8.3125c0.55228 0 1 -0.44772 1 -1s-0.44772 -1 -1 -1 -1 0.44772 -1 1 0.44772 1 1 1Z" stroke-width="1"></path></g></svg>