<svg xmlns="http://www.w3.org/2000/svg" fill="none" viewBox="0 0 14 14"><g id="camera-rotate--camera-rotate-rotation-arrow-photo-picture"><path id="Ellipse 1527" stroke="#000000" stroke-linecap="round" stroke-linejoin="round" d="M9.5 11.7705H7c-3.58985 0 -6.5 -1.452 -6.5 -3.2431 0 -0.45007 0.183749 -0.87873 0.51586 -1.26831" stroke-width="1"></path><path id="Ellipse 1529" stroke="#000000" stroke-linecap="round" stroke-linejoin="round" d="M11.5 10.8676c1.2327 -0.5902 2 -1.42048 2 -2.3402 0 -0.45357 -0.1866 -0.8854 -0.5236 -1.2774" stroke-width="1"></path><path id="Vector 2783" stroke="#000000" stroke-linecap="round" stroke-linejoin="round" d="m8 10.0407 1.5 1.7296L8 13.5" stroke-width="1"></path><path id="Vector" stroke="#000000" stroke-linecap="round" stroke-linejoin="round" d="M11.25 3c0 -0.26522 -0.1054 -0.51957 -0.2929 -0.70711C10.7696 2.10536 10.5152 2 10.25 2H9.5L8.5 0.5h-3L4.5 2h-0.75c-0.26522 0 -0.51957 0.10536 -0.70711 0.29289C2.85536 2.48043 2.75 2.73478 2.75 3v3c0 0.26522 0.10536 0.51957 0.29289 0.70711C3.23043 6.89464 3.48478 7 3.75 7h6.5c0.2652 0 0.5196 -0.10536 0.7071 -0.29289 0.1875 -0.18754 0.2929 -0.44189 0.2929 -0.70711V3Z" stroke-width="1"></path><path id="Vector_2" stroke="#000000" stroke-linecap="round" stroke-linejoin="round" d="M7 5.1875c0.55228 0 1 -0.44772 1 -1s-0.44772 -1 -1 -1 -1 0.44772 -1 1 0.44772 1 1 1Z" stroke-width="1"></path></g></svg>