<svg xmlns="http://www.w3.org/2000/svg" fill="none" viewBox="0 0 14 14"><g id="camera-setting-gear"><path id="Vector" stroke="#000000" stroke-linecap="round" stroke-linejoin="round" d="m9.61025 7.84477 0.21615 -0.55798c0.03645 -0.09447 0.10059 -0.17573 0.184 -0.23314 0.0834 -0.0574 0.1822 -0.08828 0.2835 -0.08858h0.4122c0.1013 0.0003 0.2001 0.03118 0.2835 0.08858 0.0834 0.05741 0.1475 0.13867 0.184 0.23314l0.2162 0.55798 0.7339 0.42226 0.5931 -0.09048c0.0988 -0.01341 0.1993 0.00285 0.2888 0.04671 0.0896 0.04386 0.164 0.11333 0.2139 0.1996l0.2011 0.35188c0.0515 0.08765 0.0753 0.18885 0.0681 0.29026 -0.0072 0.10142 -0.0449 0.19827 -0.1083 0.27778l-0.367 0.4675v0.84452l0.377 0.4675c0.0634 0.0795 0.1012 0.1763 0.1083 0.2778 0.0072 0.1014 -0.0165 0.2026 -0.068 0.2902l-0.2011 0.3519c-0.0499 0.0863 -0.1244 0.1557 -0.2139 0.1996 -0.0895 0.0439 -0.19 0.0601 -0.2888 0.0467l-0.5932 -0.0905 -0.7339 0.4223 -0.2161 0.558c-0.0365 0.0944 -0.1006 0.1757 -0.1841 0.2331 -0.0834 0.0574 -0.1822 0.0883 -0.2834 0.0886h-0.4223c-0.1013 -0.0003 -0.2001 -0.0312 -0.2835 -0.0886 -0.08341 -0.0574 -0.14755 -0.1387 -0.184 -0.2331l-0.21615 -0.558 -0.73393 -0.4223 -0.59317 0.0905c-0.09877 0.0134 -0.19929 -0.0028 -0.2888 -0.0467s-0.16395 -0.1133 -0.21388 -0.1996l-0.20108 -0.3519c-0.05152 -0.0876 -0.07526 -0.1888 -0.06808 -0.2902 0.00718 -0.1015 0.04494 -0.1983 0.1083 -0.2778l0.36696 -0.4675v-0.84452l-0.37702 -0.4675c-0.06335 -0.07951 -0.10112 -0.17636 -0.10829 -0.27778 -0.00718 -0.10141 0.01655 -0.20261 0.06808 -0.29026l0.20107 -0.35188c0.04993 -0.08627 0.12438 -0.15574 0.21389 -0.1996 0.08951 -0.04386 0.19003 -0.06012 0.2888 -0.04671l0.59317 0.09048 0.74398 -0.42226Z" stroke-width="1"></path><path id="Ellipse 1473" stroke="#000000" stroke-linecap="round" stroke-linejoin="round" d="M10 10.232a0.5 0.5 0 1 0 1 0 0.5 0.5 0 1 0 -1 0" stroke-width="1"></path><path id="Vector_2" stroke="#000000" stroke-linecap="round" stroke-linejoin="round" d="M5.25 8.5H1.5c-0.26522 0 -0.51957 -0.10536 -0.707107 -0.29289C0.605357 8.01957 0.5 7.76522 0.5 7.5V3c0 -0.26522 0.105357 -0.51957 0.292893 -0.70711C0.98043 2.10536 1.23478 2 1.5 2h1L4 0.5h3L8.5 2h1c0.26522 0 0.5196 0.10536 0.7071 0.29289 0.1875 0.18754 0.2929 0.44189 0.2929 0.70711v1.75" stroke-width="1"></path><path id="Vector_3" stroke="#000000" stroke-linecap="round" stroke-linejoin="round" d="M5.5 6.5c0.9665 0 1.75 -0.7835 1.75 -1.75S6.4665 3 5.5 3s-1.75 0.7835 -1.75 1.75S4.5335 6.5 5.5 6.5Z" stroke-width="1"></path></g></svg>