<svg xmlns="http://www.w3.org/2000/svg" fill="none" viewBox="0 0 14 14"><g id="camera-flip-1--camera-flip-rotate-arrow-switch-photo-picture"><path id="Vector" stroke="#000000" stroke-linecap="round" stroke-linejoin="round" d="M10.25 6.25c0 -0.26522 -0.1054 -0.51957 -0.29289 -0.70711C9.76957 5.35536 9.51522 5.25 9.25 5.25h-0.5l-0.75 -1H6l-0.75 1h-0.5c-0.26522 0 -0.51957 0.10536 -0.70711 0.29289 -0.18753 0.18754 -0.29289 0.44189 -0.29289 0.70711v2c0 0.26522 0.10536 0.51957 0.29289 0.70711 0.18754 0.18753 0.44189 0.29289 0.70711 0.29289h4.5c0.26522 0 0.51957 -0.10536 0.70711 -0.29289 0.18749 -0.18754 0.29289 -0.44189 0.29289 -0.70711v-2Z" stroke-width="1"></path><g id="Group 11"><path id="Ellipse 1" stroke="#000000" stroke-linecap="round" stroke-linejoin="round" d="M6.99109 7.5c-0.20711 0 -0.375 -0.16789 -0.375 -0.375s0.16789 -0.375 0.375 -0.375" stroke-width="1"></path><path id="Ellipse 2" stroke="#000000" stroke-linecap="round" stroke-linejoin="round" d="M6.99109 7.5c0.20711 0 0.375 -0.16789 0.375 -0.375s-0.16789 -0.375 -0.375 -0.375" stroke-width="1"></path></g><path id="Vector_2" stroke="#000000" stroke-linecap="round" stroke-linejoin="round" d="m1.9027 0.57605 -0.60481 2.42574 2.42574 0.6048" stroke-width="1"></path><path id="Vector_3" stroke="#000000" stroke-linecap="round" stroke-linejoin="round" d="m12.0973 13.424 0.6048 -2.4258 -2.4257 -0.6048" stroke-width="1"></path><path id="Ellipse 1798" stroke="#000000" stroke-linecap="round" stroke-linejoin="round" d="M12.1891 10.9151C11.0026 12.4853 9.11978 13.5 7 13.5 3.41015 13.5 0.5 10.5899 0.500001 7c0 -0.52567 0.0624 -1.03676 0.180198 -1.52628M13.32 8.52553c0.1177 -0.48929 0.18 -1.00013 0.18 -1.52553C13.5 3.41015 10.5899 0.500001 7 0.500001 4.86371 0.5 2.96812 1.53058 1.78329 3.1217" stroke-width="1"></path></g></svg>