<svg xmlns="http://www.w3.org/2000/svg" fill="none" viewBox="0 0 14 14"><g id="camera-flip-2--camera-flip-rotate-arrow-switch-photo-picture"><path id="Ellipse 1625" stroke="#000000" stroke-linecap="round" stroke-linejoin="round" d="M0.5 7C0.5 3.41015 3.41015 0.5 7 0.5c2.70226 0 5.0194 1.64899 6 3.9956L13.5 1.5" stroke-width="1"></path><path id="Ellipse 1626" stroke="#000000" stroke-linecap="round" stroke-linejoin="round" d="M13.5 7c0 3.5899 -2.9101 6.5 -6.5 6.5 -2.70226 0 -5.01938 -1.649 -6 -3.9956L0.5 12.5" stroke-width="1"></path><path id="Vector" stroke="#000000" stroke-linecap="round" stroke-linejoin="round" d="M10.5 6c0 -0.26522 -0.1054 -0.51957 -0.2929 -0.70711C10.0196 5.10536 9.76522 5 9.5 5H9L8 3.5H6L5 5h-0.5c-0.26522 0 -0.51957 0.10536 -0.70711 0.29289C3.60536 5.48043 3.5 5.73478 3.5 6v2.5c0 0.26522 0.10536 0.51957 0.29289 0.70711 0.18754 0.18753 0.44189 0.29289 0.70711 0.29289h5c0.26522 0 0.5196 -0.10536 0.7071 -0.29289 0.1875 -0.18754 0.2929 -0.44189 0.2929 -0.70711V6Z" stroke-width="1"></path><g id="Group 12"><path id="Ellipse 1" stroke="#000000" stroke-linecap="round" stroke-linejoin="round" d="M7 7.25c-0.20711 0 -0.375 -0.16789 -0.375 -0.375S6.79289 6.5 7 6.5" stroke-width="1"></path><path id="Ellipse 2" stroke="#000000" stroke-linecap="round" stroke-linejoin="round" d="M7.00006 7.25c0.20711 0 0.375 -0.16789 0.375 -0.375s-0.16789 -0.375 -0.375 -0.375" stroke-width="1"></path></g></g></svg>