<svg xmlns="http://www.w3.org/2000/svg" fill="none" viewBox="0 0 14 14"><g id="cao-dai--religion-cao-dai-culture-god-eye"><path id="Rectangle 1682" stroke="#000000" stroke-linecap="round" stroke-linejoin="round" d="M1.61805 13.2969H12.382c0.7434 0 1.2269 -0.7823 0.8944 -1.4472L7.89422 1.08574c-0.36853 -0.737044 -1.42033 -0.737043 -1.78886 0.00001L0.723623 11.8497c-0.33245 0.6649 0.151046 1.4472 0.894427 1.4472Z" stroke-width="1"></path><path id="Vector 2095" stroke="#000000" stroke-linecap="round" stroke-linejoin="round" d="M7 5.87859c-2.63945 0 -3.74762 2.29587 -3.74762 2.3435 0 0.04763 1.10817 2.34351 3.74762 2.34351s3.7476 -2.29588 3.7476 -2.34351c0 -0.04763 -1.10815 -2.3435 -3.7476 -2.3435Z" stroke-width="1"></path><path id="Ellipse 1001" stroke="#000000" stroke-linejoin="round" d="M6.501 8.222a0.5 0.5 0 1 0 1 0 0.5 0.5 0 1 0 -1 0" stroke-width="1"></path></g></svg>