<svg xmlns="http://www.w3.org/2000/svg" fill="none" viewBox="0 0 14 14"><g id="car-rentals--transportation-travel-transport-rent-rental-key"><path id="Ellipse 880" stroke="#000000" stroke-linecap="round" stroke-linejoin="round" d="M3 2a1.5 1.5 0 1 0 3 0 1.5 1.5 0 1 0 -3 0" stroke-width="1"></path><path id="Vector 1962" stroke="#000000" stroke-linecap="round" stroke-linejoin="round" d="M6 2h4v1.5" stroke-width="1"></path><path id="Vector 1963" stroke="#000000" stroke-linecap="round" stroke-linejoin="round" d="M8 2v1.5" stroke-width="1"></path><path id="Vector 4508" stroke="#000000" stroke-linecap="round" stroke-linejoin="round" d="M10.5 9h-7C2.67157 9 2 9.67157 2 10.5v1c0 0.5523 0.44772 1 1 1h8c0.5523 0 1 -0.4477 1 -1v-1c0 -0.82843 -0.6716 -1.5 -1.5 -1.5Z" stroke-width="1"></path><path id="Vector 4509" stroke="#000000" stroke-linecap="round" stroke-linejoin="round" d="M3.5 12.5v1" stroke-width="1"></path><path id="Vector 4510" stroke="#000000" stroke-linecap="round" stroke-linejoin="round" d="M10.5 12.5v1" stroke-width="1"></path><path id="Vector 4511" stroke="#000000" stroke-linecap="round" stroke-linejoin="round" d="M4 10.75h1" stroke-width="1"></path><path id="Vector 4512" stroke="#000000" stroke-linecap="round" stroke-linejoin="round" d="M9 10.75h1" stroke-width="1"></path><path id="Vector 4513" stroke="#000000" stroke-linecap="round" stroke-linejoin="round" d="M4.0411 7.2534 3.75 9h6.5l-0.2911 -1.7466C9.83835 6.53012 9.21257 6 8.47931 6H5.52069c-0.73326 0 -1.35904 0.53012 -1.47959 1.2534Z" stroke-width="1"></path></g></svg>