<svg xmlns="http://www.w3.org/2000/svg" fill="none" viewBox="0 0 14 14"><g id="car-taxi-1--transportation-travel-taxi-transport-cab-car"><path id="Vector 4629" stroke="#000000" stroke-linecap="round" stroke-linejoin="round" d="M2 11h-0.5c-0.552285 0 -1 -0.4477 -1 -1V8c0 -0.55228 0.447715 -1 1 -1H2l1.24025 -2.89392C3.39783 3.7384 3.75937 3.5 4.1594 3.5h3.6812c0.40003 0 0.76157 0.2384 0.91915 0.60608L10 7h2.5c0.5523 0 1 0.44772 1 1v2c0 0.5523 -0.4477 1 -1 1H12" stroke-width="1"></path><path id="Vector" stroke="#000000" stroke-linecap="round" stroke-linejoin="round" d="M10.4989 12.5c-0.82897 0 -1.50101 -0.6721 -1.50101 -1.5011 0 -0.829 0.67204 -1.50104 1.50101 -1.50104 0.8291 0 1.5011 0.67204 1.5011 1.50104S11.328 12.5 10.4989 12.5Z" stroke-width="1"></path><path id="Vector_2" stroke="#000000" stroke-linecap="round" stroke-linejoin="round" d="M3.49894 12.5c-0.82901 0 -1.50106 -0.6721 -1.50106 -1.5011 0 -0.829 0.67205 -1.50104 1.50106 -1.50104S5 10.1699 5 10.9989 4.32795 12.5 3.49894 12.5Z" stroke-width="1"></path><path id="Vector_3" stroke="#000000" stroke-linecap="round" stroke-linejoin="round" d="m8.99792 11 -3.99789 0" stroke-width="1"></path><path id="Vector_4" stroke="#000000" stroke-linecap="round" stroke-linejoin="round" d="M6 3.5v-2" stroke-width="1"></path><path id="Vector 4630" stroke="#000000" stroke-linecap="round" stroke-linejoin="round" d="M2 7h8" stroke-width="1"></path></g></svg>