<svg xmlns="http://www.w3.org/2000/svg" fill="none" viewBox="0 0 14 14"><g id="car-top-side-arrow--car-top-side-arrow-line-road-transportation-travel"><path id="Vector 3286" stroke="#000000" stroke-linecap="round" stroke-linejoin="round" d="M2.5 0.5v3" stroke-width="1"></path><path id="Vector 3292" stroke="#000000" stroke-linecap="round" stroke-linejoin="round" d="M11.5 0.5v3" stroke-width="1"></path><path id="Vector 3291" stroke="#000000" stroke-linecap="round" stroke-linejoin="round" d="M2.5 10.5v3" stroke-width="1"></path><path id="Vector 3293" stroke="#000000" stroke-linecap="round" stroke-linejoin="round" d="M11.5 10.5v3" stroke-width="1"></path><path id="Vector 3288" stroke="#000000" stroke-linecap="round" stroke-linejoin="round" d="M7.5 3h-1c-1.10457 0 -2 0.89543 -2 2v5c0 0.5523 0.44772 1 1 1h3c0.55228 0 1 -0.4477 1 -1V5c0 -1.10457 -0.89543 -2 -2 -2Z" stroke-width="1"></path><path id="Vector 3289" stroke="#000000" stroke-linecap="round" stroke-linejoin="round" d="M0.5 5.5 2 7 0.5 8.5" stroke-width="1"></path><path id="Vector 3290" stroke="#000000" stroke-linecap="round" stroke-linejoin="round" d="M13.5 5.5 12 7l1.5 1.5" stroke-width="1"></path><path id="Vector 3294" stroke="#000000" stroke-linecap="round" stroke-linejoin="round" d="M6.5 6h1" stroke-width="1"></path><path id="Vector 3295" stroke="#000000" stroke-linecap="round" stroke-linejoin="round" d="M6.5 8.5h1" stroke-width="1"></path></g></svg>