<svg xmlns="http://www.w3.org/2000/svg" fill="none" viewBox="0 0 14 14"><g id="cardano-circle--crypto-circle-payment-blockchain-finance-cardano-currency"><path id="Vector" stroke="#000000" stroke-linecap="round" stroke-linejoin="round" d="M7 13.5c3.5899 0 6.5 -2.9101 6.5 -6.5C13.5 3.41015 10.5899 0.5 7 0.5 3.41015 0.5 0.5 3.41015 0.5 7c0 3.5899 2.91015 6.5 6.5 6.5Z" stroke-width="1"></path><g id="Group 4541"><path id="Ellipse 1090" stroke="#000000" stroke-linecap="round" stroke-linejoin="round" d="M7.89999 8.85004c-0.13807 0 -0.25 -0.11193 -0.25 -0.25s0.11193 -0.25 0.25 -0.25" stroke-width="1"></path><path id="Ellipse 1091" stroke="#000000" stroke-linecap="round" stroke-linejoin="round" d="M7.89999 8.85004c0.13808 0 0.25 -0.11193 0.25 -0.25s-0.11192 -0.25 -0.25 -0.25" stroke-width="1"></path></g><g id="Group 4542"><path id="Ellipse 1090_2" stroke="#000000" stroke-linecap="round" stroke-linejoin="round" d="M6.09999 8.85004c-0.13807 0 -0.25 -0.11193 -0.25 -0.25s0.11193 -0.25 0.25 -0.25" stroke-width="1"></path><path id="Ellipse 1091_2" stroke="#000000" stroke-linecap="round" stroke-linejoin="round" d="M6.09999 8.85004c0.13807 0 0.25 -0.11193 0.25 -0.25s-0.11193 -0.25 -0.25 -0.25" stroke-width="1"></path></g><g id="Group 4527"><path id="Ellipse 1090_3" stroke="#000000" stroke-linecap="round" stroke-linejoin="round" d="M7 3.04999c-0.13807 0 -0.25 -0.11193 -0.25 -0.25s0.11193 -0.25 0.25 -0.25" stroke-width="1"></path><path id="Ellipse 1091_3" stroke="#000000" stroke-linecap="round" stroke-linejoin="round" d="M7 3.04999c0.13807 0 0.25 -0.11193 0.25 -0.25s-0.11193 -0.25 -0.25 -0.25" stroke-width="1"></path></g><g id="Group 4534"><path id="Ellipse 1090_4" stroke="#000000" stroke-linecap="round" stroke-linejoin="round" d="M7 11.45c-0.13807 0 -0.25 -0.1119 -0.25 -0.25s0.11193 -0.25 0.25 -0.25" stroke-width="1"></path><path id="Ellipse 1091_4" stroke="#000000" stroke-linecap="round" stroke-linejoin="round" d="M7 11.45c0.13807 0 0.25 -0.1119 0.25 -0.25s-0.11193 -0.25 -0.25 -0.25" stroke-width="1"></path></g><g id="Group 4535"><path id="Ellipse 1090_5" stroke="#000000" stroke-linecap="round" stroke-linejoin="round" d="M2.8 7.25c-0.13807 0 -0.25 -0.11193 -0.25 -0.25s0.11193 -0.25 0.25 -0.25" stroke-width="1"></path><path id="Ellipse 1091_5" stroke="#000000" stroke-linecap="round" stroke-linejoin="round" d="M2.8 7.25c0.13807 0 0.25 -0.11193 0.25 -0.25s-0.11193 -0.25 -0.25 -0.25" stroke-width="1"></path></g><g id="Group 4537"><path id="Ellipse 1090_6" stroke="#000000" stroke-linecap="round" stroke-linejoin="round" d="M5.09999 7.25c-0.13807 0 -0.25 -0.11193 -0.25 -0.25s0.11193 -0.25 0.25 -0.25" stroke-width="1"></path><path id="Ellipse 1091_6" stroke="#000000" stroke-linecap="round" stroke-linejoin="round" d="M5.09999 7.25c0.13807 0 0.25 -0.11193 0.25 -0.25s-0.11193 -0.25 -0.25 -0.25" stroke-width="1"></path></g><g id="Group 4538"><path id="Ellipse 1090_7" stroke="#000000" stroke-linecap="round" stroke-linejoin="round" d="M8.8 7.25c-0.13807 0 -0.25 -0.11193 -0.25 -0.25s0.11193 -0.25 0.25 -0.25" stroke-width="1"></path><path id="Ellipse 1091_7" stroke="#000000" stroke-linecap="round" stroke-linejoin="round" d="M8.8 7.25c0.13807 0 0.25 -0.11193 0.25 -0.25s-0.11193 -0.25 -0.25 -0.25" stroke-width="1"></path></g><g id="Group 4539"><path id="Ellipse 1090_8" stroke="#000000" stroke-linecap="round" stroke-linejoin="round" d="M7.89999 5.65002c-0.13807 0 -0.25 -0.11192 -0.25 -0.25 0 -0.13807 0.11193 -0.25 0.25 -0.25" stroke-width="1"></path><path id="Ellipse 1091_8" stroke="#000000" stroke-linecap="round" stroke-linejoin="round" d="M7.89999 5.65002c0.13808 0 0.25 -0.11192 0.25 -0.25 0 -0.13807 -0.11192 -0.25 -0.25 -0.25" stroke-width="1"></path></g><g id="Group 4540"><path id="Ellipse 1090_9" stroke="#000000" stroke-linecap="round" stroke-linejoin="round" d="M6.09999 5.65002c-0.13807 0 -0.25 -0.11192 -0.25 -0.25 0 -0.13807 0.11193 -0.25 0.25 -0.25" stroke-width="1"></path><path id="Ellipse 1091_9" stroke="#000000" stroke-linecap="round" stroke-linejoin="round" d="M6.09999 5.65002c0.13807 0 0.25 -0.11192 0.25 -0.25 0 -0.13807 -0.11193 -0.25 -0.25 -0.25" stroke-width="1"></path></g><g id="Group 4536"><path id="Ellipse 1090_10" stroke="#000000" stroke-linecap="round" stroke-linejoin="round" d="M11.1 7.25c-0.1381 0 -0.25 -0.11193 -0.25 -0.25s0.1119 -0.25 0.25 -0.25" stroke-width="1"></path><path id="Ellipse 1091_10" stroke="#000000" stroke-linecap="round" stroke-linejoin="round" d="M11.1 7.25c0.1381 0 0.25 -0.11193 0.25 -0.25s-0.1119 -0.25 -0.25 -0.25" stroke-width="1"></path></g><g id="Group 4530"><path id="Ellipse 1090_11" stroke="#000000" stroke-linecap="round" stroke-linejoin="round" d="M10 4.15002c-0.13807 0 -0.25 -0.11192 -0.25 -0.25 0 -0.13807 0.11193 -0.25 0.25 -0.25" stroke-width="1"></path><path id="Ellipse 1091_11" stroke="#000000" stroke-linecap="round" stroke-linejoin="round" d="M10 4.15002c0.1381 0 0.25 -0.11192 0.25 -0.25 0 -0.13807 -0.1119 -0.25 -0.25 -0.25" stroke-width="1"></path></g><g id="Group 4531"><path id="Ellipse 1090_12" stroke="#000000" stroke-linecap="round" stroke-linejoin="round" d="M3.89999 4.15002c-0.13807 0 -0.25 -0.11192 -0.25 -0.25 0 -0.13807 0.11193 -0.25 0.25 -0.25" stroke-width="1"></path><path id="Ellipse 1091_12" stroke="#000000" stroke-linecap="round" stroke-linejoin="round" d="M3.89999 4.15002c0.13808 0 0.25 -0.11192 0.25 -0.25 0 -0.13807 -0.11192 -0.25 -0.25 -0.25" stroke-width="1"></path></g><g id="Group 4532"><path id="Ellipse 1090_13" stroke="#000000" stroke-linecap="round" stroke-linejoin="round" d="M10 10.35c-0.13807 0 -0.25 -0.1119 -0.25 -0.25 0 -0.13803 0.11193 -0.24996 0.25 -0.24996" stroke-width="1"></path><path id="Ellipse 1091_13" stroke="#000000" stroke-linecap="round" stroke-linejoin="round" d="M10 10.35c0.1381 0 0.25 -0.1119 0.25 -0.25 0 -0.13803 -0.1119 -0.24996 -0.25 -0.24996" stroke-width="1"></path></g><g id="Group 4533"><path id="Ellipse 1090_14" stroke="#000000" stroke-linecap="round" stroke-linejoin="round" d="M3.89999 10.35c-0.13807 0 -0.25 -0.1119 -0.25 -0.25 0 -0.13803 0.11193 -0.24996 0.25 -0.24996" stroke-width="1"></path><path id="Ellipse 1091_14" stroke="#000000" stroke-linecap="round" stroke-linejoin="round" d="M3.89999 10.35c0.13808 0 0.25 -0.1119 0.25 -0.25 0 -0.13803 -0.11192 -0.24996 -0.25 -0.24996" stroke-width="1"></path></g></g></svg>