<svg xmlns="http://www.w3.org/2000/svg" fill="none" viewBox="0 0 14 14"><g id="carousel-horizontal"><path id="Vector 4015" stroke="#000000" stroke-linecap="round" stroke-linejoin="round" d="m10 10.5 0 -7c0 -0.55228 -0.44772 -1 -1 -1l-4 0c-0.55228 0 -1 0.44771 -1 1l0 7c0 0.5523 0.44771 1 1 1l4 0c0.55228 0 1 -0.4477 1 -1Z" stroke-width="1"></path><path id="Vector 4016" stroke="#000000" stroke-linecap="round" stroke-linejoin="round" d="M13.5 3.5v0c-0.5523 0 -1 0.44772 -1 1l0 5c0 0.5523 0.4477 1 1 1v0" stroke-width="1"></path><path id="Vector 4017" stroke="#000000" stroke-linecap="round" stroke-linejoin="round" d="M0.5 3.5v0c0.55228 0 1 0.44772 1 1l0 5c0 0.5523 -0.44772 1 -1 1v0" stroke-width="1"></path></g></svg>