<svg xmlns="http://www.w3.org/2000/svg" fill="none" viewBox="0 0 14 14"><g id="carousel-vertical"><path id="Vector 4015" stroke="#000000" stroke-linecap="round" stroke-linejoin="round" d="M10.5 4h-7c-0.55228 0 -1 0.44772 -1 1v4c0 0.55228 0.44772 1 1 1h7c0.5523 0 1 -0.44772 1 -1V5c0 -0.55228 -0.4477 -1 -1 -1Z" stroke-width="1"></path><path id="Vector 4016" stroke="#000000" stroke-linecap="round" stroke-linejoin="round" d="M3.5 0.5v0c0 0.55228 0.44772 1 1 1h5c0.5523 0 1 -0.44772 1 -1v0" stroke-width="1"></path><path id="Vector 4017" stroke="#000000" stroke-linecap="round" stroke-linejoin="round" d="M3.5 13.5v0c0 -0.5523 0.44772 -1 1 -1h5c0.5523 0 1 0.4477 1 1v0" stroke-width="1"></path></g></svg>