<svg xmlns="http://www.w3.org/2000/svg" fill="none" viewBox="0 0 14 14"><g id="cashier--shop-shopping-pay-payment-cashier-store-cash-register-machine"><path id="Vector" stroke="#000000" stroke-linecap="round" stroke-linejoin="round" d="M6.5 11h1" stroke-width="1"></path><path id="Vector_2" stroke="#000000" stroke-linecap="round" stroke-linejoin="round" d="M10 5V3" stroke-width="1"></path><path id="Vector_3" stroke="#000000" stroke-linecap="round" stroke-linejoin="round" d="M12 1.75c0 0.16415 -0.0323 0.3267 -0.0952 0.47835 -0.0628 0.15166 -0.1548 0.28946 -0.2709 0.40553 -0.1161 0.11608 -0.2539 0.20815 -0.4055 0.27097C11.0767 2.96767 10.9142 3 10.75 3h-1.5c-0.33152 0 -0.64946 -0.1317 -0.88388 -0.36612C8.1317 2.39946 8 2.08152 8 1.75c0 -0.33152 0.1317 -0.64946 0.36612 -0.883883C8.60054 0.631696 8.91848 0.5 9.25 0.5h1.5c0.1642 0 0.3267 0.032332 0.4784 0.095151 0.1516 0.062818 0.2894 0.154892 0.4055 0.270966 0.1161 0.116073 0.2081 0.253873 0.2709 0.405533 0.0629 0.15165 0.0952 0.3142 0.0952 0.47835v0Z" stroke-width="1"></path><path id="Vector_4" stroke="#000000" stroke-linecap="round" stroke-linejoin="round" d="M5.5 5V1.5h-3V5" stroke-width="1"></path><path id="Vector_5" stroke="#000000" stroke-linecap="round" stroke-linejoin="round" d="M12.5 8.5h-11c-0.552285 0 -1 0.44772 -1 1v3c0 0.5523 0.447715 1 1 1h11c0.5523 0 1 -0.4477 1 -1v-3c0 -0.55228 -0.4477 -1 -1 -1Z" stroke-width="1"></path><path id="Vector_6" stroke="#000000" stroke-linecap="round" stroke-linejoin="round" d="M12.5 8.5V6c0 -0.26522 -0.1054 -0.51957 -0.2929 -0.70711C12.0196 5.10536 11.7652 5 11.5 5h-9c-0.26522 0 -0.51957 0.10536 -0.70711 0.29289C1.60536 5.48043 1.5 5.73478 1.5 6v2.5" stroke-width="1"></path></g></svg>