<svg xmlns="http://www.w3.org/2000/svg" fill="none" viewBox="0 0 14 14"><g id="cashier-machine-2--shop-shopping-pay-payment-cashier-store-cash-register-machine"><path id="Rectangle 1712" stroke="#000000" stroke-linecap="round" stroke-linejoin="round" d="M2.728 0.635h8.545s0.5 0 0.5 0.5v6.529s0 0.5 -0.5 0.5H2.728s-0.5 0 -0.5 -0.5V1.135s0 -0.5 0.5 -0.5" stroke-width="1"></path><path id="Rectangle 1713" stroke="#000000" stroke-linecap="round" stroke-linejoin="round" d="M1.679 10.413h10.679s0.5 0 0.5 0.5v2.07s0 0.5 -0.5 0.5H1.679s-0.5 0 -0.5 -0.5v-2.07s0 -0.5 0.5 -0.5" stroke-width="1"></path><path id="Vector 926" stroke="#000000" stroke-linecap="round" stroke-linejoin="round" d="M6.41675 11.9479h1.16666" stroke-width="1"></path><path id="Vector 927" stroke="#000000" stroke-linecap="round" stroke-linejoin="round" d="m8.23633 8.16394 0.84668 2.24886" stroke-width="1"></path><path id="Vector 928" stroke="#000000" stroke-linecap="round" stroke-linejoin="round" d="m5.80176 8.16394 -0.84668 2.24886" stroke-width="1"></path><path id="Vector 3" stroke="#000000" stroke-linecap="round" stroke-linejoin="round" d="M8.11689 3.23256c-0.03842 -0.10868 -0.09769 -0.2075 -0.17302 -0.29166 -0.16021 -0.17901 -0.39305 -0.29167 -0.65219 -0.29167H6.6144c-0.43137 0 -0.78106 0.34969 -0.78106 0.78105 0 0.36705 0.25558 0.68458 0.61415 0.76302l1.03117 0.22556c0.4017 0.08788 0.68802 0.44385 0.68802 0.85505 0 0.48325 -0.39175 0.87532 -0.875 0.87532h-0.58334c-0.38098 0 -0.70509 -0.24348 -0.82521 -0.58333" stroke-width="1"></path></g></svg>