<svg xmlns="http://www.w3.org/2000/svg" fill="none" viewBox="0 0 14 14"><g id="cat-2--nature-head-cat-pet-animals-felyne"><g id="Group 2631"><path id="Vector" stroke="#000000" stroke-linecap="round" stroke-linejoin="round" d="M4.99986 7.25c-0.13808 0 -0.25 -0.11193 -0.25 -0.25s0.11192 -0.25 0.25 -0.25" stroke-width="1"></path><path id="Vector_2" stroke="#000000" stroke-linecap="round" stroke-linejoin="round" d="M4.99986 7.25c0.13807 0 0.25 -0.11193 0.25 -0.25s-0.11193 -0.25 -0.25 -0.25" stroke-width="1"></path></g><g id="Group 4558"><path id="Vector_3" stroke="#000000" stroke-linecap="round" stroke-linejoin="round" d="M9.00016 7.25c-0.13807 0 -0.25 -0.11193 -0.25 -0.25s0.11193 -0.25 0.25 -0.25" stroke-width="1"></path><path id="Vector_4" stroke="#000000" stroke-linecap="round" stroke-linejoin="round" d="M9.00016 7.25c0.13807 0 0.25 -0.11193 0.25 -0.25s-0.11193 -0.25 -0.25 -0.25" stroke-width="1"></path></g><path id="Vector 1637" stroke="#000000" stroke-linecap="round" stroke-linejoin="round" d="M9.5 13h-5C2.567 13 1 11.433 1 9.5V9l1.5 -1.5V1l3.81562 2.54374c0.22239 -0.02875 0.45107 -0.04374 0.68441 -0.04374 0.23333 0 0.46199 0.01498 0.68436 0.04374L11.5 1v6.5L13 9v0.5c0 1.933 -1.567 3.5 -3.5 3.5Z" stroke-width="1"></path><path id="Ellipse 731" stroke="#000000" stroke-linecap="round" stroke-linejoin="round" d="M4.01855 4.5c0.73243 -0.61375 1.79681 -1 2.98148 -1s2.24905 0.38625 2.98148 1" stroke-width="1"></path><path id="Vector 1633" stroke="#000000" stroke-linecap="round" stroke-linejoin="round" d="M7.75 9h-1.5l0.75 0.5 0.75 -0.5Z" stroke-width="1"></path><path id="Vector 1642" stroke="#000000" stroke-linecap="round" stroke-linejoin="round" d="M7 9.5v0.5c0 0.5523 -0.44772 1 -1 1s-1 -0.4477 -1 -1v-0.01929" stroke-width="1"></path><path id="Vector 1643" stroke="#000000" stroke-linecap="round" stroke-linejoin="round" d="M7 9.5v0.5c0 0.5523 0.44772 1 1 1s1 -0.4477 1 -1v-0.01929" stroke-width="1"></path></g></svg>