<svg xmlns="http://www.w3.org/2000/svg" fill="none" viewBox="0 0 14 14"><g id="certified-diploma--certified-diploma-certificate-education-award"><path id="Vector" stroke="#000000" stroke-linecap="round" stroke-linejoin="round" d="M6.64575 5.03125 9.3233 1.01493c0.35004 -0.525064 1.0929 -0.598626 1.5392 -0.152409l2.2749 2.274939c0.4462 0.44622 0.3726 1.18911 -0.1524 1.53916L8.96867 7.35416" stroke-width="1"></path><path id="Vector_2" stroke="#000000" stroke-linecap="round" stroke-linejoin="round" d="M7.35417 8.96879 4.67662 12.9851c-0.35005 0.5251 -1.09294 0.5986 -1.53916 0.1524L0.862522 10.8626c-0.446217 -0.4462 -0.372656 -1.18913 0.152408 -1.53917l4.01633 -2.67756" stroke-width="1"></path><path id="Vector_3" stroke="#000000" stroke-linecap="round" stroke-linejoin="round" d="M9.29554 7.13635 13.5001 10.5l-2.5 0.5 -0.5 2.5 -3.36363 -4.20453" stroke-width="1"></path><path id="Ellipse 1517" stroke="#000000" stroke-linecap="round" stroke-linejoin="round" d="M5 7a2 2 0 1 0 4 0 2 2 0 1 0 -4 0" stroke-width="1"></path></g></svg>