<svg xmlns="http://www.w3.org/2000/svg" fill="none" viewBox="0 0 14 14"><g id="chair-1--entertainment-gaming-chair"><path id="Vector 768" stroke="#000000" stroke-linecap="round" stroke-linejoin="round" d="M3.22662 13.4999c0 -0.2771 0.18847 -0.5191 0.45996 -0.5751 0.78602 -0.1619 2.09089 -0.3682 3.31326 -0.3682 1.22238 0 2.52725 0.2063 3.31326 0.3682 0.2715 0.056 0.46 0.298 0.46 0.5751" stroke-width="1"></path><path id="Vector 769" stroke="#000000" stroke-linecap="round" stroke-linejoin="round" d="M0.841797 6.89697H2.5213l0.4039 2.04169c0.08998 0.45485 0.5571 0.78823 1.10443 0.78823h5.94068c0.54729 0 1.01449 -0.33338 1.10439 -0.78823l0.4039 -2.04169h1.6795" stroke-width="1"></path><path id="Vector 771" stroke="#000000" stroke-linecap="round" stroke-linejoin="round" d="m4.09156 9.7268 0.54993 -5.40768c-0.47166 -0.15913 -0.94331 -0.66835 -0.94331 -1.43217 0 -0.76382 1.41496 -1.43217 1.41496 -1.43217S5.58479 0.5 6.05644 0.5l1.88661 0c0.47166 0 0.94331 0.95478 0.94331 0.95478s1.41494 0.66835 1.41494 1.43217c0 0.76382 -0.47163 1.27304 -0.94329 1.43217l0.54993 5.40768" stroke-width="1"></path><path id="Vector 770" stroke="#000000" stroke-linecap="round" stroke-linejoin="round" d="M6.99988 9.72681V13.5" stroke-width="1"></path><path id="Vector 772" stroke="#000000" stroke-linecap="round" stroke-linejoin="round" d="M6.52832 7.10303h0.94331" stroke-width="1"></path></g></svg>