<svg xmlns="http://www.w3.org/2000/svg" fill="none" viewBox="0 0 14 14"><g id="champagne-party-alcohol"><path id="Vector 3032" stroke="#000000" stroke-linecap="round" stroke-linejoin="round" d="m10.5158 8.96423 1.0353 3.86367" stroke-width="1"></path><path id="Vector 3033" stroke="#000000" stroke-linecap="round" stroke-linejoin="round" d="m13 12.4397 -2.8978 0.7765" stroke-width="1"></path><path id="vector" stroke="#000000" stroke-linecap="round" stroke-linejoin="round" d="M1.93897 5.97323 3.86434 0.783813l3.38075 0.905867 -0.92729 5.45685C6.0931 8.46884 4.77972 9.3113 3.48416 8.96415c-1.29555 -0.34714 -2.01174 -1.73342 -1.54519 -2.99092Z" stroke-width="1"></path><path id="Vector 3029" stroke="#000000" stroke-linecap="round" stroke-linejoin="round" d="M3.48416 8.96423 2.44888 12.8279" stroke-width="1"></path><path id="Vector 3030" stroke="#000000" stroke-linecap="round" stroke-linejoin="round" d="m1 12.4397 2.89778 0.7765" stroke-width="1"></path><path id="Vector 3031" stroke="#000000" stroke-linecap="round" stroke-linejoin="round" d="m2.81622 3.60889 3.92407 1.05145" stroke-width="1"></path><path id="Vector 3034" stroke="#000000" stroke-linecap="round" stroke-linejoin="round" d="m11.1838 3.60889 -1.96206 0.52572" stroke-width="1"></path><path id="vector_2" stroke="#000000" stroke-linecap="round" stroke-linejoin="round" d="M8.29845 8.3569c0.5537 0.56495 1.38919 0.82917 2.21735 0.60725 1.2956 -0.34714 2.0118 -1.73342 1.5452 -2.99092L10.1357 0.783813l-0.78723 0.210926" stroke-width="1"></path></g></svg>