<svg xmlns="http://www.w3.org/2000/svg" fill="none" viewBox="0 0 14 14"><g id="chat-bubble-phone-call-square--chat-bubble-phone-call-square-messages-camera"><path id="Vector" stroke="#000000" stroke-linecap="round" stroke-linejoin="round" d="m4.5 12.5 -4 1 1 -3v-9c0 -0.26522 0.10536 -0.51957 0.29289 -0.707107C1.98043 0.605357 2.23478 0.5 2.5 0.5h10c0.2652 0 0.5196 0.105357 0.7071 0.292893 0.1875 0.187537 0.2929 0.441887 0.2929 0.707107v10c0 0.2652 -0.1054 0.5196 -0.2929 0.7071s-0.4419 0.2929 -0.7071 0.2929h-8Z" stroke-width="1"></path><path id="Vector_2" stroke="#000000" stroke-linecap="round" stroke-linejoin="round" d="M6.86679 9.98585c-0.41851 0.17705 -0.8825 0.21625 -1.32477 0.11195 -0.44228 -0.10427 -0.83989 -0.34662 -1.13523 -0.69195l-0.31 -0.31c-0.13486 -0.10823 -0.22265 -0.2644 -0.24501 -0.43587 -0.02237 -0.17146 0.02243 -0.34493 0.12501 -0.48413l1 -1c0.1392 -0.10258 0.31266 -0.14737 0.48413 -0.12501 0.17146 0.02237 0.32764 0.11016 0.43587 0.24501 0.10823 0.13486 0.2644 0.22265 0.43586 0.24501 0.17147 0.02236 0.34494 -0.02243 0.48414 -0.12501l1.6 -1.6c0.10258 -0.1392 0.14737 -0.31267 0.125 -0.48413 -0.02236 -0.17146 -0.11015 -0.32764 -0.245 -0.43587 -0.13486 -0.10823 -0.22265 -0.2644 -0.24501 -0.43587 -0.02237 -0.17146 0.02242 -0.34493 0.12501 -0.48413l1 -1c0.1392 -0.10258 0.31266 -0.14737 0.48413 -0.12501 0.17146 0.02237 0.32764 0.11016 0.43588 0.24501l0.31 0.31c0.344 0.29628 0.5854 0.69386 0.6896 1.13578 0.1042 0.44191 0.0658 0.90546 -0.1096 1.32422 -1.01402 1.69095 -2.42906 3.106 -4.12001 4.12Z" stroke-width="1"></path></g></svg>