<svg xmlns="http://www.w3.org/2000/svg" fill="none" viewBox="0 0 14 14"><g id="chat-bubble-square-favorite-star--chat-bubble-favorite-star-message"><path id="Vector" stroke="#000000" stroke-linecap="round" stroke-linejoin="round" d="m4.5 12.5 -4 1 1 -3v-9c0 -0.26522 0.10536 -0.51957 0.29289 -0.707107C1.98043 0.605357 2.23478 0.5 2.5 0.5h10c0.2652 0 0.5196 0.105357 0.7071 0.292893 0.1875 0.187537 0.2929 0.441887 0.2929 0.707107v10c0 0.2652 -0.1054 0.5196 -0.2929 0.7071s-0.4419 0.2929 -0.7071 0.2929h-8Z" stroke-width="1"></path><path id="Vector_2" stroke="#000000" stroke-linecap="round" stroke-linejoin="round" d="m7.74838 3.40301 0.83591 1.68154c0.01869 0.04253 0.04833 0.07933 0.0859 0.10666 0.03757 0.02732 0.08172 0.04418 0.12794 0.04886l1.85647 0.28187c0.0531 0.00691 0.1031 0.02879 0.1442 0.06307 0.0411 0.03429 0.0716 0.07957 0.0879 0.13054 0.0163 0.05098 0.0178 0.10555 0.0042 0.15733 -0.0135 0.05177 -0.0416 0.09862 -0.0808 0.13506L9.43964 7.3104c-0.02044 0.03898 -0.03111 0.08234 -0.03111 0.12636 0 0.04401 0.01067 0.08737 0.03111 0.12636l0.26244 1.84677c0.01119 0.05338 0.00666 0.10886 -0.01304 0.15972 -0.01971 0.05086 -0.05375 0.0949 -0.09799 0.1268 -0.04425 0.0319 -0.09679 0.05027 -0.15127 0.0529 -0.05448 0.00262 -0.10855 -0.01061 -0.15566 -0.0381l-1.65238 -0.87479c-0.04276 -0.01933 -0.08915 -0.02932 -0.13607 -0.02932 -0.04693 0 -0.09332 0.00999 -0.13608 0.02932l-1.65238 0.87479c-0.04711 0.02749 -0.10118 0.04072 -0.15565 0.0381 -0.05448 -0.00263 -0.10703 -0.021 -0.15127 -0.0529 -0.04425 -0.0319 -0.07829 -0.07594 -0.09799 -0.1268 -0.01971 -0.05086 -0.02424 -0.10634 -0.01304 -0.15972l0.31103 -1.84677c0.01338 -0.04287 0.01594 -0.08838 0.00746 -0.13247 -0.00848 -0.04409 -0.02774 -0.08541 -0.05606 -0.12025l-1.3705 -1.31218c-0.03635 -0.03683 -0.06186 -0.08295 -0.07375 -0.13331 -0.01188 -0.05036 -0.00966 -0.10302 0.0064 -0.15221 0.01606 -0.04919 0.04535 -0.09301 0.08466 -0.12666 0.03932 -0.03364 0.08713 -0.05582 0.13821 -0.0641l1.85649 -0.27215c0.04622 -0.00468 0.09037 -0.02154 0.12794 -0.04886 0.03757 -0.02733 0.06721 -0.06413 0.0859 -0.10666l0.83591 -1.68154c0.02237 -0.0476 0.05761 -0.08799 0.10173 -0.11661 0.04413 -0.02862 0.09538 -0.04432 0.14797 -0.04534 0.05258 -0.00101 0.1044 0.01271 0.14959 0.03962 0.0452 0.0269 0.08196 0.06591 0.10614 0.11261Z" stroke-width="1"></path></g></svg>