<svg xmlns="http://www.w3.org/2000/svg" fill="none" viewBox="0 0 14 14"><g id="chat-bubble-oval-favorite-heart---message-bubble-chat-oval-favorite-like-important-bookmark-heart"><path id="Vector" stroke="#000000" stroke-linecap="round" stroke-linejoin="round" d="M7.65727 9.98233c-0.36976 0.35687 -0.94245 0.35687 -1.31221 0l-2.2053 -2.12851c-1.47531 -1.43726 0.45118 -4.61268 2.86141 -2.26466 2.40598 -2.3439 4.33243 0.83158 2.8614 2.26466l-2.2053 2.12851Z" stroke-width="1"></path><path id="Ellipse 1144" stroke="#000000" stroke-linecap="round" stroke-linejoin="round" d="M4.14472 12.8409C5.00659 13.263 5.97562 13.5 7 13.5c3.5899 0 6.5 -2.9101 6.5 -6.5C13.5 3.41015 10.5899 0.5 7 0.5 3.41015 0.5 0.5 3.41015 0.5 7c0 1.33261 0.40102 2.57155 1.08896 3.6027m2.55576 2.2382L0.5 13.5l1.08896 -2.8973m2.55576 2.2382L4.15 12.84m-2.56104 -2.2373L1.59 10.6" stroke-width="1"></path></g></svg>