<svg xmlns="http://www.w3.org/2000/svg" fill="none" viewBox="0 0 14 14"><g id="chat-bubble-camera-square--chat-bubble-camera-square-messages"><path id="Vector" stroke="#000000" stroke-linecap="round" stroke-linejoin="round" d="m4.5 12.5 -4 1 1 -3v-9c0 -0.26522 0.10536 -0.51957 0.29289 -0.707107C1.98043 0.605357 2.23478 0.5 2.5 0.5h10c0.2652 0 0.5196 0.105357 0.7071 0.292893 0.1875 0.187537 0.2929 0.441887 0.2929 0.707107v10c0 0.2652 -0.1054 0.5196 -0.2929 0.7071s-0.4419 0.2929 -0.7071 0.2929h-8Z" stroke-width="1"></path><path id="Vector_2" stroke="#000000" stroke-linecap="round" stroke-linejoin="round" d="M11 6c0 -0.26522 -0.1054 -0.51957 -0.2929 -0.70711C10.5196 5.10536 10.2652 5 10 5h-0.5l-1 -1.5h-2L5.5 5H5c-0.26522 0 -0.51957 0.10536 -0.70711 0.29289C4.10536 5.48043 4 5.73478 4 6v2.5c0 0.26522 0.10536 0.51957 0.29289 0.70711C4.48043 9.39464 4.73478 9.5 5 9.5h5c0.2652 0 0.5196 -0.10536 0.7071 -0.29289C10.8946 9.01957 11 8.76522 11 8.5V6Z" stroke-width="1"></path><g id="Group 11"><path id="Ellipse 1" stroke="#000000" stroke-linecap="round" stroke-linejoin="round" d="M7.5 7.375c-0.20711 0 -0.375 -0.16789 -0.375 -0.375s0.16789 -0.375 0.375 -0.375" stroke-width="1"></path><path id="Ellipse 2" stroke="#000000" stroke-linecap="round" stroke-linejoin="round" d="M7.50006 7.375c0.20711 0 0.375 -0.16789 0.375 -0.375s-0.16789 -0.375 -0.375 -0.375" stroke-width="1"></path></g></g></svg>