<svg xmlns="http://www.w3.org/2000/svg" fill="none" viewBox="0 0 14 14"><g id="chat-bubble-oval-block--messages-message-bubble-chat-oval-block"><path id="Vector" stroke="#000000" stroke-linecap="round" stroke-linejoin="round" d="M7 10.25c-1.79493 0 -3.25 -1.45507 -3.25 -3.25S5.20507 3.75 7 3.75 10.25 5.20507 10.25 7 8.79493 10.25 7 10.25Z" stroke-width="1"></path><path id="Vector_2" stroke="#000000" stroke-linecap="round" stroke-linejoin="round" d="m9.30002 9.30001 -4.6 -4.6" stroke-width="1"></path><path id="Ellipse 1144" stroke="#000000" stroke-linecap="round" stroke-linejoin="round" d="M4.14472 12.8409C5.00659 13.263 5.97562 13.5 7 13.5c3.5899 0 6.5 -2.9101 6.5 -6.5C13.5 3.41015 10.5899 0.5 7 0.5 3.41015 0.5 0.5 3.41015 0.5 7c0 1.33261 0.40102 2.57155 1.08896 3.6027m2.55576 2.2382L0.5 13.5l1.08896 -2.8973m2.55576 2.2382L4.15 12.84m-2.56104 -2.2373L1.59 10.6" stroke-width="1"></path></g></svg>