<svg xmlns="http://www.w3.org/2000/svg" fill="none" viewBox="0 0 14 14"><g id="chat-bubble-square-quotation--messages-message-bubble-square-quote-quotation-text"><path id="Vector" stroke="#000000" stroke-linecap="round" stroke-linejoin="round" d="m4.5 12.5 -4 1 1 -3v-9c0 -0.26522 0.10536 -0.51957 0.29289 -0.707107C1.98043 0.605357 2.23478 0.5 2.5 0.5h10c0.2652 0 0.5196 0.105357 0.7071 0.292893 0.1875 0.187537 0.2929 0.441887 0.2929 0.707107v10c0 0.2652 -0.1054 0.5196 -0.2929 0.7071s-0.4419 0.2929 -0.7071 0.2929h-8Z" stroke-width="1"></path><path id="Vector 2308" stroke="#000000" stroke-linecap="round" stroke-linejoin="round" d="M5 8.5c0.82843 0 1.5 -0.67157 1.5 -1.5v-0.5m0 0v-1c0 -0.55228 -0.44772 -1 -1 -1v0c-0.55228 0 -1 0.44772 -1 1v0c0 0.55228 0.44772 1 1 1h1Z" stroke-width="1"></path><path id="Vector 2309" stroke="#000000" stroke-linecap="round" stroke-linejoin="round" d="M9 8.5c0.82843 0 1.5 -0.67157 1.5 -1.5v-0.5m0 0v-1c0 -0.55228 -0.4477 -1 -1 -1v0c-0.55228 0 -1 0.44772 -1 1v0c0 0.55228 0.44772 1 1 1h1Z" stroke-width="1"></path></g></svg>