<svg xmlns="http://www.w3.org/2000/svg" fill="none" viewBox="0 0 14 14"><g id="chat-bubble-oval-protect--messages-message-bubble-chat-oval-protect"><path id="Vector 3703" stroke="#000000" stroke-linecap="round" stroke-linejoin="round" d="M9.5 4.5h-5c-0.27614 0 -0.5 0.22386 -0.5 0.5v1.33772C4 8.2262 5.20843 9.90281 7 10.5c1.79157 -0.59719 3 -2.2738 3 -4.16228V5c0 -0.27614 -0.22386 -0.5 -0.5 -0.5Z" stroke-width="1"></path><path id="Ellipse 1144" stroke="#000000" stroke-linecap="round" stroke-linejoin="round" d="M4.14472 12.8409C5.00659 13.263 5.97562 13.5 7 13.5c3.5899 0 6.5 -2.9101 6.5 -6.5C13.5 3.41015 10.5899 0.5 7 0.5 3.41015 0.5 0.5 3.41015 0.5 7c0 1.33261 0.40102 2.57155 1.08896 3.6027m2.55576 2.2382L0.5 13.5l1.08896 -2.8973m2.55576 2.2382L4.15 12.84m-2.56104 -2.2373L1.59 10.6" stroke-width="1"></path></g></svg>