<svg xmlns="http://www.w3.org/2000/svg" fill="none" viewBox="0 0 14 14"><g id="chat-bubble-square-lock---message-bubble-chat-square-secure-password-lock-encryption"><path id="Vector" stroke="#000000" stroke-linecap="round" stroke-linejoin="round" d="m4.5 12.5 -4 1 1 -3v-9c0 -0.26522 0.10536 -0.51957 0.29289 -0.707107C1.98043 0.605357 2.23478 0.5 2.5 0.5h10c0.2652 0 0.5196 0.105357 0.7071 0.292893 0.1875 0.187537 0.2929 0.441887 0.2929 0.707107v10c0 0.2652 -0.1054 0.5196 -0.2929 0.7071s-0.4419 0.2929 -0.7071 0.2929h-8Z" stroke-width="1"></path><path id="Vector 3823" stroke="#000000" stroke-linecap="round" stroke-linejoin="round" d="M5 9.25v-2.5c0 -0.27614 0.22386 -0.5 0.5 -0.5h4c0.27614 0 0.5 0.22386 0.5 0.5v2.5c0 0.27614 -0.22386 0.5 -0.5 0.5h-4c-0.27614 0 -0.5 -0.22386 -0.5 -0.5Z" stroke-width="1"></path><path id="Vector 3824" stroke="#000000" stroke-linecap="round" stroke-linejoin="round" d="M5.75 6.25V5c0 -0.9665 0.7835 -1.75 1.75 -1.75v0c0.9665 0 1.75 0.7835 1.75 1.75v1.25" stroke-width="1"></path></g></svg>