<svg xmlns="http://www.w3.org/2000/svg" fill="none" viewBox="0 0 14 14"><g id="chat-bubble-square-favorite-heart---message-bubble-chat-square-favorite-like-important-bookmark-heart"><path id="Vector" stroke="#000000" stroke-linecap="round" stroke-linejoin="round" d="m4.5 12.5 -4 1 1 -3v-9c0 -0.26522 0.10536 -0.51957 0.29289 -0.707107C1.98043 0.605357 2.23478 0.5 2.5 0.5h10c0.2652 0 0.5196 0.105357 0.7071 0.292893 0.1875 0.187537 0.2929 0.441887 0.2929 0.707107v10c0 0.2652 -0.1054 0.5196 -0.2929 0.7071s-0.4419 0.2929 -0.7071 0.2929h-8Z" stroke-width="1"></path><path id="Vector_2" stroke="#000000" stroke-linecap="round" stroke-linejoin="round" d="M8.15734 8.98233c-0.36977 0.35689 -0.94246 0.35689 -1.31222 0l-2.2053 -2.12851C3.16451 5.41656 5.091 2.24114 7.50123 4.58916c2.40598 -2.3439 4.33247 0.83158 2.86137 2.26466L8.15734 8.98233Z" stroke-width="1"></path></g></svg>