<svg xmlns="http://www.w3.org/2000/svg" fill="none" viewBox="0 0 14 14"><g id="checkup-medical-report-clipboard"><path id="vector" stroke="#000000" stroke-linecap="round" stroke-linejoin="round" d="M9.5 1.5H11c0.2652 0 0.5196 0.10536 0.7071 0.29289 0.1875 0.18754 0.2929 0.44189 0.2929 0.70711v10c0 0.2652 -0.1054 0.5196 -0.2929 0.7071S11.2652 13.5 11 13.5H3c-0.26522 0 -0.51957 -0.1054 -0.70711 -0.2929C2.10536 13.0196 2 12.7652 2 12.5v-10c0 -0.26522 0.10536 -0.51957 0.29289 -0.70711C2.48043 1.60536 2.73478 1.5 3 1.5h1.5" stroke-width="1"></path><path id="vector_2" stroke="#000000" stroke-linecap="round" stroke-linejoin="round" d="M8.5 0.5h-3c-0.55228 0 -1 0.447715 -1 1V2c0 0.55228 0.44772 1 1 1h3c0.55228 0 1 -0.44772 1 -1v-0.5c0 -0.552285 -0.44772 -1 -1 -1Z" stroke-width="1"></path><path id="union" stroke="#000000" stroke-linecap="round" stroke-linejoin="round" d="M6.30274 5.21008c-0.23714 0 -0.42938 0.19224 -0.42938 0.42939v1.20766l-1.20765 0c-0.23714 0 -0.42938 0.19224 -0.42938 0.42939v1.39549c0 0.23715 0.19224 0.42939 0.42938 0.42939h1.20765v1.2076c0 0.2372 0.19224 0.4294 0.42938 0.4294h1.3955c0.23714 0 0.42938 -0.1922 0.42938 -0.4294V9.1014h1.20764c0.23715 0 0.42939 -0.19224 0.42939 -0.42939V7.27652c0 -0.23715 -0.19224 -0.42939 -0.42939 -0.42939l-1.20764 0V5.63947c0 -0.23715 -0.19224 -0.42939 -0.42938 -0.42939h-1.3955Z" stroke-width="1"></path></g></svg>