<svg xmlns="http://www.w3.org/2000/svg" fill="none" viewBox="0 0 14 14"><g id="check-double-thick--check-double-thick-form-validation-checkmark-success-tick"><path id="Vector 3969 (Stroke)" stroke="#000000" stroke-linecap="round" stroke-linejoin="round" d="M1.04547 8.0946C0.406441 7.5674 0.315785 6.62199 0.842982 5.98297c0.527198 -0.63903 1.472608 -0.72969 2.111638 -0.20249" stroke-width="1"></path><path id="Vector 3969 (Stroke)_2" stroke="#000000" stroke-linecap="round" stroke-linejoin="round" d="M10.4447 1.66829c-0.64344 -0.52175 -1.58805 -0.42306 -2.10979 0.22043L5.5 5.38511" stroke-width="1"></path><path id="Vector 3969 (Stroke)_3" fill-rule="evenodd" stroke="#000000" stroke-linecap="round" stroke-linejoin="round" d="M12.9447 3.66829c0.6435 0.52174 0.7422 1.46635 0.2205 2.10984L8.80035 11.1614c-0.8748 1.0789 -2.46139 1.2379 -3.53284 0.3539l-1.72204 -1.4207c-0.63903 -0.52715 -0.72969 -1.47256 -0.20249 -2.11158 0.5272 -0.63903 1.47261 -0.72969 2.11164 -0.20249l1.33306 1.09978 4.04722 -4.99159c0.5218 -0.64349 1.4664 -0.74218 2.1098 -0.22043Z" clip-rule="evenodd" stroke-width="1"></path></g></svg>