<svg xmlns="http://www.w3.org/2000/svg" fill="none" viewBox="0 0 14 14"><g id="cleaning-room-man"><path id="Rectangle 322" stroke="#000000" stroke-linecap="round" stroke-linejoin="round" d="M9.81395 10.9884C9.92024 10.1381 10.6431 9.5 11.5 9.5v0c0.8569 0 1.5798 0.6381 1.6861 1.4884L13.5 13.5h-4l0.31395 -2.5116Z" stroke-width="1"></path><path id="Vector 650" stroke="#000000" stroke-linecap="round" stroke-linejoin="round" d="M11.5 9.5v-9" stroke-width="1"></path><path id="Vector" stroke="#000000" stroke-linecap="round" stroke-linejoin="round" d="M4 4c0.9665 0 1.75 -0.7835 1.75 -1.75S4.9665 0.5 4 0.5s-1.75 0.7835 -1.75 1.75S3.0335 4 4 4Z" stroke-width="1"></path><path id="Vector 3811" stroke="#000000" stroke-linecap="round" stroke-linejoin="round" d="M0.5 9.25H2l0.5 4.25h3L6 9.25h1.5V7.5C7.5 5.567 5.933 4 4 4S0.5 5.567 0.5 7.5v1.75Z" stroke-width="1"></path></g></svg>