<svg xmlns="http://www.w3.org/2000/svg" fill="none" viewBox="0 0 14 14"><g id="climate-action"><path id="Vector" stroke="#000000" stroke-linecap="round" stroke-linejoin="round" d="M13.0769 8.11536h-1.4807c-0.3927 0 -0.7694 -0.15601 -1.0471 -0.43371 -0.2777 -0.2777 -0.4337 -0.65434 -0.4337 -1.04706V5.36536c0 -0.39273 -0.156 -0.76937 -0.4337 -1.04706 -0.2777 -0.2777 -0.65434 -0.43371 -1.04706 -0.43371 -0.39273 0 -0.76936 -0.15601 -1.04706 -0.43371 -0.2777 -0.2777 -0.43371 -0.65434 -0.43371 -1.04706V0.559204" stroke-width="1"></path><path id="Vector 4585" stroke="#000000" stroke-linecap="round" stroke-linejoin="round" d="M4.25 8.5C2 8.5 0.5 11 0.5 11s1.5 2.5 3.75 2.5S8 11 8 11 6.5 8.5 4.25 8.5Z" stroke-width="1"></path><g id="Group 4482"><path id="Vector_2" stroke="#000000" stroke-linecap="round" stroke-linejoin="round" d="M4.25 11.25c-0.13807 0 -0.25 -0.1119 -0.25 -0.25s0.11193 -0.25 0.25 -0.25" stroke-width="1"></path><path id="Vector_3" stroke="#000000" stroke-linecap="round" stroke-linejoin="round" d="M4.25 11.25c0.13807 0 0.25 -0.1119 0.25 -0.25s-0.11193 -0.25 -0.25 -0.25" stroke-width="1"></path></g><path id="Vector_4" stroke="#000000" stroke-linecap="round" stroke-linejoin="round" d="M10.2945 11C12.1864 10.1304 13.5 8.2186 13.5 6 13.5 2.96243 11.0376 0.5 8 0.5 4.96243 0.5 2.5 2.96243 2.5 6c0 0.16854 0.00758 0.33532 0.02242 0.5" stroke-width="1"></path></g></svg>