<svg xmlns="http://www.w3.org/2000/svg" fill="none" viewBox="0 0 14 14"><g id="cloud-setting-gear"><path id="Vector" stroke="#000000" stroke-linecap="round" stroke-linejoin="round" d="M12.1783 9.22935c0.1466 -0.08852 0.2854 -0.19115 0.4144 -0.30708 0.498 -0.44749 0.8146 -1.06205 0.8899 -1.72731 0.0753 -0.66526 -0.0959 -1.33504 -0.4813 -1.88251 -0.3854 -0.54747 -0.9581 -0.93462 -1.6098 -1.08815 -0.045 -0.01344 -0.0852 -0.03946 -0.1159 -0.07501 -0.0308 -0.03555 -0.0506 -0.07914 -0.0574 -0.12563 -0.0805 -0.88287 -0.4613 -1.71144 -1.0789 -2.34754C9.52182 1.04002 8.70489 0.634848 7.82479 0.528169 6.94469 0.421491 6.05462 0.619753 5.303 1.08989c-0.75161 0.47015 -1.31933 1.18375 -1.60849 2.02181 -0.01914 0.03908 -0.04905 0.07186 -0.08622 0.09449 -0.03717 0.02262 -0.08003 0.03414 -0.12353 0.03318 -0.41917 0.02815 -0.82868 0.13858 -1.20517 0.32498 -0.37648 0.18641 -0.71257 0.44515 -0.98906 0.76144 -0.558401 0.63879 -0.840176 1.47323 -0.783337 2.31977 0.056839 0.84654 0.447636 1.63583 1.086417 2.19423 0.10038 0.08774 0.20558 0.16865 0.3149 0.2425" stroke-width="1"></path><path id="Vector_2" stroke="#000000" stroke-linecap="round" stroke-linejoin="round" d="m6.11025 7.84478 0.21615 -0.55798c0.03645 -0.09447 0.10059 -0.17573 0.18401 -0.23314 0.08342 -0.05741 0.18223 -0.08828 0.28349 -0.08858h0.4122c0.10126 0.0003 0.20007 0.03117 0.28349 0.08858 0.08342 0.05741 0.14756 0.13867 0.18401 0.23314l0.21615 0.55798 0.73393 0.42226 0.59317 -0.09049c0.09877 -0.0134 0.19929 0.00286 0.2888 0.04672 0.08951 0.04385 0.16395 0.11333 0.21388 0.1996l0.20108 0.35188c0.05152 0.08764 0.07526 0.18885 0.06808 0.29026 -0.00718 0.10141 -0.04494 0.19827 -0.1083 0.27778l-0.36696 0.46749v0.84452l0.37702 0.4675c0.06335 0.0795 0.10112 0.1764 0.10829 0.2778 0.00716 0.1014 -0.01655 0.2026 -0.06808 0.2902l-0.20107 0.3519c-0.04993 0.0863 -0.12438 0.1558 -0.21389 0.1996 -0.0895 0.0439 -0.19003 0.0601 -0.2888 0.0467l-0.59317 -0.0905 -0.73392 0.4223 -0.21616 0.558c-0.03645 0.0945 -0.10059 0.1757 -0.184 0.2331 -0.08342 0.0574 -0.18223 0.0883 -0.28349 0.0886H6.7939c-0.10126 -0.0003 -0.20007 -0.0312 -0.28349 -0.0886 -0.08342 -0.0574 -0.14756 -0.1386 -0.18401 -0.2331l-0.21615 -0.558 -0.73393 -0.4223 -0.59317 0.0905c-0.09877 0.0134 -0.19929 -0.0028 -0.2888 -0.0467 -0.08951 -0.0438 -0.16395 -0.1133 -0.21388 -0.1996l-0.20108 -0.3519c-0.05152 -0.0876 -0.07526 -0.1888 -0.06808 -0.2902 0.00718 -0.1014 0.04494 -0.1983 0.1083 -0.2778l0.36696 -0.4675v-0.84452l-0.37702 -0.46749c-0.06335 -0.07951 -0.10112 -0.17637 -0.10829 -0.27778 -0.00718 -0.10141 0.01655 -0.20262 0.06808 -0.29026l0.20107 -0.35188c0.04993 -0.08627 0.12438 -0.15575 0.21389 -0.1996 0.08951 -0.04386 0.19003 -0.06012 0.2888 -0.04672l0.59317 0.09049 0.74398 -0.42226Z" stroke-width="1"></path><path id="Ellipse 1473" stroke="#000000" stroke-linecap="round" stroke-linejoin="round" d="M6.5 10.232a0.5 0.5 0 1 0 1 0 0.5 0.5 0 1 0 -1 0" stroke-width="1"></path></g></svg>