<svg xmlns="http://www.w3.org/2000/svg" fill="none" viewBox="0 0 14 14"><g id="cloud-lock--cloud-network-internet-server-secure-password-lock-security-login-encryption"><path id="Vector" stroke="#000000" stroke-linecap="round" stroke-linejoin="round" d="M2.65121 9.45383c-0.38508 -0.13349 -0.7448 -0.3406 -1.0576 -0.61404C0.954829 8.28139 0.564032 7.4921 0.507193 6.64556c-0.056839 -0.84654 0.224936 -1.68098 0.783337 -2.31977 0.27649 -0.31629 0.61258 -0.57503 0.98906 -0.76144 0.37649 -0.1864 0.786 -0.29683 1.20517 -0.32498 0.0435 0.00096 0.08636 -0.01056 0.12353 -0.03318 0.03717 -0.02263 0.06708 -0.05541 0.08622 -0.09449 0.28916 -0.83806 0.85688 -1.55166 1.60849 -2.02181C6.05462 0.619753 6.94469 0.421491 7.82479 0.528169c0.8801 0.106679 1.69703 0.511851 2.31451 1.147951 0.6176 0.6361 0.9984 1.46467 1.0789 2.34754 0.0068 0.04649 0.0266 0.09008 0.0574 0.12563 0.0307 0.03555 0.0709 0.06157 0.1159 0.07501 0.6517 0.15353 1.2244 0.54068 1.6098 1.08815 0.3854 0.54747 0.5566 1.21725 0.4813 1.88251 -0.0753 0.66526 -0.3919 1.27982 -0.8899 1.72731 -0.306 0.27502 -0.6675 0.47521 -1.0561 0.58959" stroke-width="1"></path><path id="Vector 3866" stroke="#000000" stroke-linecap="round" stroke-linejoin="round" d="M4.5 13v-2.5c0 -0.2761 0.22386 -0.5 0.5 -0.5h4c0.27614 0 0.5 0.2239 0.5 0.5V13c0 0.2761 -0.22386 0.5 -0.5 0.5H5c-0.27614 0 -0.5 -0.2239 -0.5 -0.5Z" stroke-width="1"></path><path id="Vector 3864" stroke="#000000" stroke-linecap="round" stroke-linejoin="round" d="M5.25 10V8.75C5.25 7.7835 6.0335 7 7 7v0c0.9665 0 1.75 0.7835 1.75 1.75V10" stroke-width="1"></path></g></svg>