<svg width="14" height="14" viewBox="0 0 14 14" fill="none" xmlns="http://www.w3.org/2000/svg">
<path d="M5.22992 2.25L5.65992 1.14C5.73244 0.952064 5.86003 0.790411 6.02597 0.676212C6.19192 0.562014 6.38848 0.500595 6.58992 0.5H7.40992C7.61136 0.500595 7.80793 0.562014 7.97387 0.676212C8.13982 0.790411 8.2674 0.952064 8.33992 1.14L8.76992 2.25L10.2299 3.09L11.4099 2.91C11.6064 2.88333 11.8064 2.91567 11.9845 3.00292C12.1625 3.09017 12.3106 3.22838 12.4099 3.4L12.8099 4.1C12.9124 4.27435 12.9597 4.47568 12.9454 4.67742C12.9311 4.87916 12.856 5.07183 12.7299 5.23L11.9999 6.16V7.84L12.7499 8.77C12.876 8.92817 12.9511 9.12084 12.9654 9.32258C12.9797 9.52432 12.9324 9.72565 12.8299 9.9L12.4299 10.6C12.3306 10.7716 12.1825 10.9098 12.0045 10.9971C11.8264 11.0843 11.6264 11.1167 11.4299 11.09L10.2499 10.91L8.78992 11.75L8.35992 12.86C8.2874 13.0479 8.15982 13.2096 7.99387 13.3238C7.82793 13.438 7.63136 13.4994 7.42992 13.5H6.58992C6.38848 13.4994 6.19192 13.438 6.02597 13.3238C5.86003 13.2096 5.73244 13.0479 5.65992 12.86L5.22992 11.75L3.76992 10.91L2.58992 11.09C2.39344 11.1167 2.19346 11.0843 2.0154 10.9971C1.83735 10.9098 1.68925 10.7716 1.58992 10.6L1.18992 9.9C1.08742 9.72565 1.0402 9.52432 1.05448 9.32258C1.06876 9.12084 1.14388 8.92817 1.26992 8.77L1.99992 7.84V6.16L1.24992 5.23C1.12388 5.07183 1.04876 4.87916 1.03448 4.67742C1.0202 4.47568 1.06742 4.27435 1.16992 4.1L1.56992 3.4C1.66925 3.22838 1.81735 3.09017 1.9954 3.00292C2.17346 2.91567 2.37344 2.88333 2.56992 2.91L3.74992 3.09L5.22992 2.25ZM4.99992 7C4.99992 7.39556 5.11722 7.78224 5.33698 8.11114C5.55675 8.44004 5.8691 8.69638 6.23455 8.84776C6.60001 8.99913 7.00214 9.03874 7.3901 8.96157C7.77806 8.8844 8.13443 8.69392 8.41414 8.41421C8.69384 8.13451 8.88432 7.77814 8.96149 7.39018C9.03866 7.00222 8.99906 6.60009 8.84768 6.23463C8.69631 5.86918 8.43996 5.55682 8.11106 5.33706C7.78216 5.1173 7.39548 5 6.99992 5C6.46949 5 5.96078 5.21071 5.58571 5.58579C5.21064 5.96086 4.99992 6.46957 4.99992 7Z" stroke="#01040B" stroke-linecap="round" stroke-linejoin="round"/>
</svg>
