<svg xmlns="http://www.w3.org/2000/svg" fill="none" viewBox="0 0 14 14"><g id="computer-chip-eight-core--computer-chip-eight-core-device-electronics-cpu-microprocessor"><path id="Vector 2" stroke="#000000" stroke-linecap="round" stroke-linejoin="round" d="m6.71874 6.81249 0.5625 0c0.56954 0 1.03125 -0.4617 1.03125 -1.03125 0 -0.56954 -0.46171 -1.03125 -1.03126 -1.03124l-0.5625 0c-0.56953 0.00001 -1.03123 0.46171 -1.03123 1.03125 0 0.56954 0.4617 1.03124 1.03124 1.03124Z" stroke-width="1"></path><path id="Vector 2_2" stroke="#000000" stroke-linecap="round" stroke-linejoin="round" d="m6.71875 9.24999 0.56249 0c0.67309 0 1.21874 -0.54565 1.21874 -1.21874 0 -0.6731 -0.54565 -1.21875 -1.21875 -1.21875l-0.56248 0c-0.6731 0 -1.21875 0.54565 -1.21875 1.21875 0 0.67309 0.54565 1.21875 1.21875 1.21874Z" stroke-width="1"></path><path id="Vector" stroke="#000000" stroke-linecap="round" stroke-linejoin="round" d="M10.5 2.5h-7c-0.55228 0 -1 0.44772 -1 1v7c0 0.5523 0.44772 1 1 1h7c0.5523 0 1 -0.4477 1 -1v-7c0 -0.55228 -0.4477 -1 -1 -1Z" stroke-width="1"></path><path id="Vector_2" stroke="#000000" stroke-linecap="round" stroke-linejoin="round" d="M5 2.5v-2" stroke-width="1"></path><path id="Vector_3" stroke="#000000" stroke-linecap="round" stroke-linejoin="round" d="M9 2.5v-2" stroke-width="1"></path><path id="Vector_4" stroke="#000000" stroke-linecap="round" stroke-linejoin="round" d="M2.5 9h-2" stroke-width="1"></path><path id="Vector_5" stroke="#000000" stroke-linecap="round" stroke-linejoin="round" d="M2.5 5h-2" stroke-width="1"></path><path id="Vector_6" stroke="#000000" stroke-linecap="round" stroke-linejoin="round" d="M9 11.5v2" stroke-width="1"></path><path id="Vector_7" stroke="#000000" stroke-linecap="round" stroke-linejoin="round" d="M5 11.5v2" stroke-width="1"></path><path id="Vector_8" stroke="#000000" stroke-linecap="round" stroke-linejoin="round" d="M11.5 5h2" stroke-width="1"></path><path id="Vector_9" stroke="#000000" stroke-linecap="round" stroke-linejoin="round" d="M11.5 9h2" stroke-width="1"></path></g></svg>