<svg xmlns="http://www.w3.org/2000/svg" fill="none" viewBox="0 0 14 14"><g id="computer-chip-sixty-four-core--computer-chip-sixty-four-core-device-electronics-cpu-microprocessor"><path id="Vector" stroke="#000000" stroke-linecap="round" stroke-linejoin="round" d="m3.64576 7.875 0 -0.14584c0 -0.48324 0.39175 -0.87499 0.87499 -0.87499l0.58333 -0.00001c0.48325 0 0.875 0.39175 0.875 0.875V7.875c0 0.48324 -0.39175 0.87499 -0.87499 0.875l-0.58333 0c-0.48325 0 -0.875 -0.39175 -0.875 -0.875Zm0 0 -0.00001 -1.75c0 -0.48325 0.39175 -0.875 0.875 -0.875h0.58333c0.38098 0 0.70509 0.24348 0.82521 0.58333" stroke-width="1"></path><path id="Vector 7" stroke="#000000" stroke-linecap="round" stroke-linejoin="round" d="M9.77084 7.87501H7.64951c-0.11709 0 -0.21201 -0.09492 -0.21201 -0.21201 0 -0.05136 0.01864 -0.10096 0.05246 -0.13961l1.92926 -2.20488c0.0381 -0.04354 0.09314 -0.06851 0.15099 -0.06851 0.1108 0 0.20063 0.08982 0.20063 0.20063v2.42438Zm0 0h0.58336m-0.58336 0V8.75" stroke-width="1"></path><path id="Vector_2" stroke="#000000" stroke-linecap="round" stroke-linejoin="round" d="M11 2H3c-0.55228 0 -1 0.44772 -1 1v8c0 0.5523 0.44772 1 1 1h8c0.5523 0 1 -0.4477 1 -1V3c0 -0.55228 -0.4477 -1 -1 -1Z" stroke-width="1"></path><path id="Vector_3" stroke="#000000" stroke-linecap="round" stroke-linejoin="round" d="M5 2V0.5" stroke-width="1"></path><path id="Vector_4" stroke="#000000" stroke-linecap="round" stroke-linejoin="round" d="M9 2V0.5" stroke-width="1"></path><path id="Vector_5" stroke="#000000" stroke-linecap="round" stroke-linejoin="round" d="M2 9H0.5" stroke-width="1"></path><path id="Vector_6" stroke="#000000" stroke-linecap="round" stroke-linejoin="round" d="M2 5H0.5" stroke-width="1"></path><path id="Vector_7" stroke="#000000" stroke-linecap="round" stroke-linejoin="round" d="M9 12v1.5" stroke-width="1"></path><path id="Vector_8" stroke="#000000" stroke-linecap="round" stroke-linejoin="round" d="M5 12v1.5" stroke-width="1"></path><path id="Vector_9" stroke="#000000" stroke-linecap="round" stroke-linejoin="round" d="M12 5h1.5" stroke-width="1"></path><path id="Vector_10" stroke="#000000" stroke-linecap="round" stroke-linejoin="round" d="M12 9h1.5" stroke-width="1"></path></g></svg>