<svg xmlns="http://www.w3.org/2000/svg" fill="none" viewBox="0 0 14 14"><g id="compare-ab"><path id="Vector 1" stroke="#000000" stroke-linecap="round" stroke-linejoin="round" d="m2.50684 7.79175 1.10006 -3.3002c0.0564 -0.16918 0.21472 -0.2833 0.39306 -0.2833v0c0.17834 0 0.33666 0.11412 0.39306 0.2833l1.10006 3.3002" stroke-width="1"></path><path id="Vector 4026" stroke="#000000" stroke-linecap="round" stroke-linejoin="round" d="M2.90479 6.59717H5.0947" stroke-width="1"></path><path id="Vector 1_2" stroke="#000000" stroke-linecap="round" stroke-linejoin="round" d="M8.83301 6.25v1.60417h1.23959c0.443 0 0.8021 -0.35911 0.8021 -0.80209S10.5156 6.25 10.0726 6.25H8.83301Z" stroke-width="1"></path><path id="Vector 2" stroke="#000000" stroke-linecap="round" stroke-linejoin="round" d="M8.83301 7.854v1.89584h1.38539c0.5235 0 0.9479 -0.4244 0.9479 -0.94792s-0.4244 -0.94792 -0.9479 -0.94792H8.83301Z" stroke-width="1"></path><path id="Vector 4024" stroke="#000000" stroke-linecap="round" stroke-linejoin="round" d="M6 1H2c-0.55228 0 -1 0.44772 -1 1v8c0 0.5523 0.44772 1 1 1h4c0.55228 0 1 -0.4477 1 -1V2c0 -0.55228 -0.44772 -1 -1 -1Z" stroke-width="1"></path><path id="Vector 4025" stroke="#000000" stroke-linecap="round" stroke-linejoin="round" d="M12 3H8c-0.55228 0 -1 0.44772 -1 1v8c0 0.5523 0.44772 1 1 1h4c0.5523 0 1 -0.4477 1 -1V4c0 -0.55228 -0.4477 -1 -1 -1Z" stroke-width="1"></path></g></svg>