<svg xmlns="http://www.w3.org/2000/svg" fill="none" viewBox="0 0 14 14"><g id="computer-ai-spark--screen-device-electronics-monitor-display-computer-artificial-intelligence-ai"><path id="Vector" stroke="#000000" stroke-linecap="round" stroke-linejoin="round" d="M5.22227 1.98535 1 1.98535c-0.276142 0 -0.5 0.22386 -0.5 0.5v8.00005c0 0.2761 0.223858 0.5 0.5 0.5h12c0.2761 0 0.5 -0.2239 0.5 -0.5V6.86889" stroke-width="1"></path><path id="Vector_2" stroke="#000000" stroke-linecap="round" stroke-linejoin="round" d="m6 10.9853 -1 2.5" stroke-width="1"></path><path id="Vector_3" stroke="#000000" stroke-linecap="round" stroke-linejoin="round" d="m8 10.9853 1 2.5" stroke-width="1"></path><path id="Vector_4" stroke="#000000" stroke-linecap="round" stroke-linejoin="round" d="M4 13.4853h6" stroke-width="1"></path><path id="Vector 2136" stroke="#000000" stroke-linecap="round" stroke-linejoin="round" d="M7.2632 3.9486c-0.35093 -0.06105 -0.35093 -0.56483 0 -0.62588C8.53455 3.10154 9.54574 2.13317 9.82169 0.87257l0.02116 -0.09663c0.07592 -0.346833 0.56975 -0.348991 0.64875 -0.002835l0.0257 0.11261c0.2861 1.254655 1.2976 2.214845 2.5654 2.435405 0.3527 0.06137 0.3527 0.56771 0 0.62907 -1.2678 0.22057 -2.2793 1.18076 -2.5654 2.43541l-0.0257 0.11261c-0.079 0.34616 -0.57283 0.344 -0.64875 -0.00283l-0.02116 -0.09663C9.54574 5.13814 8.53455 4.16978 7.2632 3.9486Z" stroke-width="1"></path></g></svg>