<svg xmlns="http://www.w3.org/2000/svg" fill="none" viewBox="0 0 14 14"><g id="compress-PDF--essential-files-folder-compress-PDF"><path id="Vector 3892" stroke="#000000" stroke-linecap="round" stroke-linejoin="round" d="M12.5 4 9 0.5H2.5c-0.55228 0 -1 0.447715 -1 1v2" stroke-width="1"></path><path id="Vector 3893" stroke="#000000" stroke-linecap="round" stroke-linejoin="round" d="M12.5 10v2.5c0 0.5523 -0.4477 1 -1 1h-9c-0.55228 0 -1 -0.4477 -1 -1V10" stroke-width="1"></path><path id="Vector 1248" stroke="#000000" stroke-linecap="round" stroke-linejoin="round" d="M0.5 5.5 2 7 0.5 8.5" stroke-width="1"></path><path id="Vector 1249" stroke="#000000" stroke-linecap="round" stroke-linejoin="round" d="M13.5 5.5 12 7l1.5 1.5" stroke-width="1"></path><path id="Vector 1238" stroke="#000000" stroke-linecap="round" stroke-linejoin="round" d="M5.29955 3.51823c-1.29377 0.38332 4.10054 6.88367 4.67583 5.39619 0.57532 -1.48747 -7.0855 0.43004 -5.8238 1.48748 1.2617 1.0574 2.44174 -7.267 1.14797 -6.88367Z" stroke-width="1"></path></g></svg>