<svg xmlns="http://www.w3.org/2000/svg" fill="none" viewBox="0 0 14 14"><g id="computer-chip-four-core--computer-chip-four-core-quad-device-electronics-cpu-microprocessor"><path id="Vector 7" stroke="#000000" stroke-linecap="round" stroke-linejoin="round" d="M8.58334 8.1502h-3.5547c-0.15389 0 -0.27864 -0.12475 -0.27864 -0.27864v0c0 -0.06749 0.0245 -0.13269 0.06894 -0.18348l2.53561 -2.89784c0.05007 -0.05722 0.1224 -0.09004 0.19844 -0.09004v0c0.14563 0 0.26368 0.11805 0.26368 0.26368V9.3002" stroke-width="1"></path><path id="Vector" stroke="#000000" stroke-linecap="round" stroke-linejoin="round" d="M10.5 2.5h-7c-0.55228 0 -1 0.44772 -1 1v7c0 0.5523 0.44772 1 1 1h7c0.5523 0 1 -0.4477 1 -1v-7c0 -0.55228 -0.4477 -1 -1 -1Z" stroke-width="1"></path><path id="Vector_2" stroke="#000000" stroke-linecap="round" stroke-linejoin="round" d="M5 2.5v-2" stroke-width="1"></path><path id="Vector_3" stroke="#000000" stroke-linecap="round" stroke-linejoin="round" d="M9 2.5v-2" stroke-width="1"></path><path id="Vector_4" stroke="#000000" stroke-linecap="round" stroke-linejoin="round" d="M2.5 9h-2" stroke-width="1"></path><path id="Vector_5" stroke="#000000" stroke-linecap="round" stroke-linejoin="round" d="M2.5 5h-2" stroke-width="1"></path><path id="Vector_6" stroke="#000000" stroke-linecap="round" stroke-linejoin="round" d="M9 11.5v2" stroke-width="1"></path><path id="Vector_7" stroke="#000000" stroke-linecap="round" stroke-linejoin="round" d="M5 11.5v2" stroke-width="1"></path><path id="Vector_8" stroke="#000000" stroke-linecap="round" stroke-linejoin="round" d="M11.5 5h2" stroke-width="1"></path><path id="Vector_9" stroke="#000000" stroke-linecap="round" stroke-linejoin="round" d="M11.5 9h2" stroke-width="1"></path></g></svg>