<svg xmlns="http://www.w3.org/2000/svg" fill="none" viewBox="0 0 14 14"><g id="cookie-bite--cookie-biscuit-sweet-chocolate-chips-bite"><path id="Subtract" stroke="#000000" stroke-linecap="round" stroke-linejoin="round" d="M9.50049 4.44989C9.33879 4.48275 9.17141 4.5 9 4.5 7.61929 4.5 6.5 3.38071 6.5 2c0 -0.5628 0.18597 -1.08217 0.49982 -1.5C3.41005 0.500098 0.5 3.41021 0.5 7c0 3.5899 2.91015 6.5 6.5 6.5 3.5899 0 6.5 -2.9101 6.5 -6.5 0 -0.16364 -0.006 -0.32587 -0.0179 -0.48648C13.0674 6.81929 12.5548 7 12 7c-1.3807 0 -2.5 -1.11929 -2.5 -2.5 0 -0.01674 0.00017 -0.03344 0.00049 -0.05011Z" stroke-width="1"></path><g id="Group 11"><path id="Ellipse 1094" stroke="#000000" stroke-linecap="round" stroke-linejoin="round" d="M3.75 6c-0.13807 0 -0.25 -0.11193 -0.25 -0.25s0.11193 -0.25 0.25 -0.25" stroke-width="1"></path><path id="Ellipse 1095" stroke="#000000" stroke-linecap="round" stroke-linejoin="round" d="M3.75 6c0.13807 0 0.25 -0.11193 0.25 -0.25s-0.11193 -0.25 -0.25 -0.25" stroke-width="1"></path></g><g id="Group 17"><path id="Ellipse 1094_2" stroke="#000000" stroke-linecap="round" stroke-linejoin="round" d="M5.25 9.5c-0.13807 0 -0.25 -0.11193 -0.25 -0.25S5.11193 9 5.25 9" stroke-width="1"></path><path id="Ellipse 1095_2" stroke="#000000" stroke-linecap="round" stroke-linejoin="round" d="M5.25 9.5c0.13807 0 0.25 -0.11193 0.25 -0.25S5.38807 9 5.25 9" stroke-width="1"></path></g><g id="Group 18"><path id="Ellipse 1094_3" stroke="#000000" stroke-linecap="round" stroke-linejoin="round" d="M9.25 9.5c-0.13807 0 -0.25 -0.11193 -0.25 -0.25S9.11193 9 9.25 9" stroke-width="1"></path><path id="Ellipse 1095_3" stroke="#000000" stroke-linecap="round" stroke-linejoin="round" d="M9.25 9.5c0.13807 0 0.25 -0.11193 0.25 -0.25S9.38807 9 9.25 9" stroke-width="1"></path></g></g></svg>