<svg xmlns="http://www.w3.org/2000/svg" fill="none" viewBox="0 0 14 14"><g id="copy-link"><path id="Vector 3857" stroke="#000000" stroke-linecap="round" stroke-linejoin="round" d="m9.48242 2.01777 0.5 -0.5c0.69038 -0.690359 1.80968 -0.690359 2.49998 0 0.6904 0.69035 0.6904 1.80964 0 2.5l-0.5 0.5" stroke-width="1"></path><path id="Vector 3859" stroke="#000000" stroke-linecap="round" stroke-linejoin="round" d="m9.23242 4.76782 0.99998 -1" stroke-width="1"></path><path id="Vector 3858" stroke="#000000" stroke-linecap="round" stroke-linejoin="round" d="m9.98261 6.51782 -0.5 0.5c-0.69036 0.69036 -1.80964 0.69036 -2.5 0 -0.69036 -0.69035 -0.69035 -1.80964 0 -2.5l0.5 -0.5" stroke-width="1"></path><path id="Vector" stroke="#000000" stroke-linecap="round" stroke-linejoin="round" d="M12 8.5V12c0 0.2652 -0.1054 0.5196 -0.2929 0.7071S11.2652 13 11 13H2c-0.26522 0 -0.51957 -0.1054 -0.70711 -0.2929C1.10536 12.5196 1 12.2652 1 12V3c0 -0.26522 0.10536 -0.51957 0.29289 -0.70711C1.48043 2.10536 1.73478 2 2 2h3.5" stroke-width="1"></path></g></svg>