<svg xmlns="http://www.w3.org/2000/svg" fill="none" viewBox="0 0 14 14"><g id="cosine--interface-math-cos-sign-mathematics-trigonometry"><path id="Vector 4455" stroke="#000000" stroke-linecap="round" stroke-linejoin="round" d="M13.3662 5c-0.1729 -0.2989 -0.4961 -0.5 -0.8662 -0.5h-1.1361c-0.6152 0 -1.1139 0.4987 -1.1139 1.11389 0 0.51869 0.358 0.96873 0.8634 1.08536l1.4153 0.32659c0.5685 0.13121 0.9713 0.63751 0.9713 1.22104C13.5 8.93896 12.939 9.5 12.2469 9.5H11.25c-0.3701 0 -0.6933 -0.2011 -0.8662 -0.5" stroke-width="1"></path><path id="Vector 2" stroke="#000000" stroke-linecap="round" stroke-linejoin="round" d="M5.5 5.5v3c0 0.55228 0.44772 1 1 1h1c0.55228 0 1 -0.44772 1 -1v-3c0 -0.55228 -0.44772 -1 -1 -1h-1c-0.55228 0 -1 0.44772 -1 1Z" stroke-width="1"></path><path id="Vector 4456" stroke="#000000" stroke-linecap="round" stroke-linejoin="round" d="M3.5 8.5c0 0.55228 -0.44772 1 -1 1h-1c-0.552285 0 -1 -0.44772 -1 -1v-3c0 -0.55228 0.447715 -1 1 -1h1c0.55228 0 1 0.44772 1 1" stroke-width="1"></path></g></svg>