<svg xmlns="http://www.w3.org/2000/svg" fill="none" viewBox="0 0 14 14"><g id="countdown-timer--timer-countdown-clock"><path id="Vector" stroke="#000000" stroke-linecap="round" stroke-linejoin="round" d="M13.5 6.92c-0.0097 1.11115 -0.2622 2.20675 -0.74 3.21" stroke-width="1"></path><path id="Vector_2" stroke="#000000" stroke-linecap="round" stroke-linejoin="round" d="M7 13.42c-0.85359 0 -1.69883 -0.1681 -2.48744 -0.4948 -0.78862 -0.3266 -1.50517 -0.8054 -2.10875 -1.409C1.18482 10.2972 0.5 8.64391 0.5 6.92" stroke-width="1"></path><path id="Vector_3" stroke="#000000" stroke-linecap="round" stroke-linejoin="round" d="M7 3.50002v3.5h2.5" stroke-width="1"></path><path id="Vector_4" stroke="#000000" stroke-linecap="round" stroke-linejoin="round" d="M12 12.92c0.8284 0 1.5 -0.6716 1.5 -1.5s-0.6716 -1.5 -1.5 -1.5 -1.5 0.6716 -1.5 1.5 0.6716 1.5 1.5 1.5Z" stroke-width="1"></path><path id="Vector_5" stroke="#000000" stroke-linecap="round" stroke-linejoin="round" d="M0.919983 4.52c0.217937 -0.54464 0.510757 -1.05624 0.869997 -1.52" stroke-width="1"></path><path id="Vector_6" stroke="#000000" stroke-linecap="round" stroke-linejoin="round" d="M3.71997 1.28c0.56356 -0.325414 1.17414 -0.561548 1.81 -0.699998" stroke-width="1"></path><path id="Vector_7" stroke="#000000" stroke-linecap="round" stroke-linejoin="round" d="M13.08 4.52c-0.2179 -0.54464 -0.5107 -1.05624 -0.87 -1.52" stroke-width="1"></path><path id="Vector_8" stroke="#000000" stroke-linecap="round" stroke-linejoin="round" d="M10.28 1.28C9.71641 0.954586 9.10584 0.718452 8.46997 0.580002" stroke-width="1"></path></g></svg>