<svg xmlns="http://www.w3.org/2000/svg" fill="none" viewBox="0 0 14 14"><g id="credit-card-3--deposit-payment-finance-atm-withdraw-atm"><path id="Vector 2494" stroke="#000000" stroke-linecap="round" stroke-linejoin="round" d="M7 0.5v2" stroke-width="1"></path><path id="Vector 2495" stroke="#000000" stroke-linecap="round" stroke-linejoin="round" d="M9.5 1.5v2" stroke-width="1"></path><path id="Vector 2496" stroke="#000000" stroke-linecap="round" stroke-linejoin="round" d="M4.5 1.5v2" stroke-width="1"></path><path id="Vector" stroke="#000000" stroke-linecap="round" stroke-linejoin="round" d="M12.5 5.5h-11c-0.552285 0 -1 0.44772 -1 1v6c0 0.5523 0.447715 1 1 1h11c0.5523 0 1 -0.4477 1 -1v-6c0 -0.55228 -0.4477 -1 -1 -1Z" stroke-width="1"></path><path id="Vector_2" stroke="#000000" stroke-linecap="round" stroke-linejoin="round" d="M7 11.25c0.9665 0 1.75 -0.7835 1.75 -1.75S7.9665 7.75 7 7.75s-1.75 0.7835 -1.75 1.75 0.7835 1.75 1.75 1.75Z" stroke-width="1"></path><g id="Group 8"><path id="Ellipse 1" stroke="#000000" stroke-linecap="round" stroke-linejoin="round" d="M2.7749 9.75c-0.13807 0 -0.25 -0.11193 -0.25 -0.25s0.11193 -0.25 0.25 -0.25" stroke-width="1"></path><path id="Ellipse 2" stroke="#000000" stroke-linecap="round" stroke-linejoin="round" d="M2.77495 9.75c0.13807 0 0.25 -0.11193 0.25 -0.25s-0.11193 -0.25 -0.25 -0.25" stroke-width="1"></path></g><g id="Group 9"><path id="Ellipse 1_2" stroke="#000000" stroke-linecap="round" stroke-linejoin="round" d="M11.2251 9.75c-0.1381 0 -0.25 -0.11193 -0.25 -0.25s0.1119 -0.25 0.25 -0.25" stroke-width="1"></path><path id="Ellipse 2_2" stroke="#000000" stroke-linecap="round" stroke-linejoin="round" d="M11.2251 9.75c0.1381 0 0.25 -0.11193 0.25 -0.25s-0.1119 -0.25 -0.25 -0.25" stroke-width="1"></path></g></g></svg>