<svg xmlns="http://www.w3.org/2000/svg" fill="none" viewBox="0 0 14 14"><g id="credit-card-5--deposit-payment-finance-atm-withdraw-atm"><path id="Vector" stroke="#000000" stroke-linecap="round" stroke-linejoin="round" d="m10.4407 11.2756 0 -7.96798c0 -0.40006 -0.3243 -0.72437 -0.72433 -0.72437l-5.43274 0c-0.40006 0 -0.72436 0.32431 -0.72436 0.72437l-0.00001 7.96798c0 0.4001 0.32431 0.7244 0.72437 0.7244l5.43274 0c0.40003 0 0.72433 -0.3243 0.72433 -0.7244Z" stroke-width="1"></path><path id="Vector_2" stroke="#000000" stroke-linecap="round" stroke-linejoin="round" d="m7.90543 2.58325 0 9.41675" stroke-width="1"></path><path id="Vector_3" stroke="#000000" stroke-linecap="round" stroke-linejoin="round" d="m5.37018 9.1026 0 1.0865" stroke-width="1"></path><path id="Vector_4" stroke="#000000" stroke-linecap="round" stroke-linejoin="round" d="M1.90572 4.58325h-0.8336c-0.131019 0 -0.256667 -0.05268 -0.349309 -0.14644 -0.092641 -0.09377 -0.144686 -0.22095 -0.144686 -0.35356v-3c0 -0.132606 0.052045 -0.259783 0.144686 -0.353551C0.815453 0.63593 0.941101 0.583252 1.07212 0.583252H12.9279c0.131 0 0.2566 0.052678 0.3493 0.146447 0.0926 0.093768 0.1447 0.220945 0.1447 0.353551v3c0 0.13261 -0.0521 0.25979 -0.1447 0.35356 -0.0927 0.09376 -0.2183 0.14644 -0.3493 0.14644h-0.8336" stroke-width="1"></path></g></svg>