<svg xmlns="http://www.w3.org/2000/svg" fill="none" viewBox="0 0 14 14"><g id="crown-square--reward-social-rating-media-queen-vip-king-crown-square"><path id="Vector" stroke="#000000" stroke-linecap="round" stroke-linejoin="round" d="m1 2 0 10c0 0.5523 0.44772 1 1 1l10 0c0.5523 0 1 -0.4477 1 -1l0 -10c0 -0.55229 -0.4477 -1 -1 -1L2 1c-0.55228 0 -1 0.44772 -1 1Z" stroke-width="1"></path><path id="Vector_2" stroke="#000000" stroke-linecap="round" stroke-linejoin="round" d="M10.5 5 8.75 6.5 7 4.5l-1.75 2L3.5 5v3c0 0.39782 0.15804 0.77936 0.43934 1.06066C4.22064 9.34196 4.60218 9.5 5 9.5h4c0.39782 0 0.77936 -0.15804 1.0607 -0.43934C10.342 8.77936 10.5 8.39782 10.5 8V5Z" stroke-width="1"></path></g></svg>