<svg xmlns="http://www.w3.org/2000/svg" fill="none" viewBox="0 0 14 14"><g id="cube-shape-1"><path id="union" stroke="#000000" stroke-linecap="round" stroke-linejoin="round" d="M7.43586 1.08126 12.3076 3.4432c0.3446 0.16705 0.5635 0.5162 0.5637 0.89913l0.0037 5.32709c0 0.38398 -0.2198 0.73398 -0.5656 0.90078l-4.87493 2.3506c-0.27444 0.1323 -0.59423 0.1323 -0.86867 0l-4.87489 -2.3506c-0.34585 -0.1668 -0.56567 -0.5168 -0.56567 -0.90078l-0.00019 -5.32821c-0.00001 -0.38338 0.21916 -0.73302 0.56423 -0.90009l4.87455 -2.3601c0.2754 -0.133337 0.5967 -0.133252 0.87203 0.00024Z" stroke-width="1"></path><path id="rectangle 631" stroke="#000000" stroke-linecap="round" stroke-linejoin="round" d="M12.6875 3.76214 6.99988 6.50232l-5.6891 -2.74323" stroke-width="1"></path><path id="rectangle 630" stroke="#000000" stroke-linecap="round" stroke-linejoin="round" d="m7.00003 6.50232 0 6.37268" stroke-width="1"></path></g></svg>