<svg xmlns="http://www.w3.org/2000/svg" fill="none" viewBox="0 0 14 14"><g id="cupcake--cupcake-bakery-sweet-dessert-food"><path id="Vector" stroke="#000000" stroke-linecap="round" stroke-linejoin="round" d="M8.69224 8.84021 8.125 13M5.30775 8.84021 5.875 13" stroke-width="1"></path><path id="Vector_2" stroke="#000000" stroke-linecap="round" stroke-linejoin="round" d="m3.35071 12.1789 -0.58035 -3.19194C2.84571 8.99557 2.92234 9 3 9c0.73046 0 1.36946 -0.3916 1.71851 -0.97632C5.10961 8.89397 5.98403 9.5 7 9.5c1.01597 0 1.89039 -0.60603 2.28148 -1.47632C9.63054 8.6084 10.2695 9 11 9c0.0777 0 0.1543 -0.00443 0.2296 -0.01304l-0.5803 3.19194c-0.0865 0.4755 -0.5006 0.8211 -0.98388 0.8211H4.33458c-0.48329 0 -0.89742 -0.3456 -0.98387 -0.8211Z" stroke-width="1"></path><path id="Union" stroke="#000000" stroke-linecap="round" stroke-linejoin="round" d="M3 5c0 -2.20914 1.79086 -4 4 -4s4 1.79086 4 4c1.1046 0 2 0.89543 2 2s-0.8954 2 -2 2c-0.7305 0 -1.36946 -0.3916 -1.71852 -0.97632C8.89039 8.89397 8.01597 9.5 7 9.5c-1.01597 0 -1.89039 -0.60603 -2.28148 -1.47632C4.36946 8.6084 3.73046 9 3 9c-1.10457 0 -2 -0.89543 -2 -2s0.89543 -2 2 -2Z" stroke-width="1"></path></g></svg>