<svg xmlns="http://www.w3.org/2000/svg" fill="none" viewBox="0 0 14 14"><g id="curves-levels-graph"><path id="Ellipse 1905" stroke="#000000" stroke-linecap="round" stroke-linejoin="round" d="M3.5 9.25a1.25 1.25 0 1 0 2.5 0 1.25 1.25 0 1 0 -2.5 0" stroke-width="1"></path><path id="Ellipse 1906" stroke="#000000" stroke-linecap="round" stroke-linejoin="round" d="M10.5 2.25a1.25 1.25 0 1 0 2.5 0 1.25 1.25 0 1 0 -2.5 0" stroke-width="1"></path><path id="Vector 4122" stroke="#000000" stroke-linecap="round" stroke-linejoin="round" d="M11.75 3.5c0 3.17564 -2.57436 5.75 -5.75 5.75" stroke-width="1"></path><path id="Vector 4119" stroke="#000000" stroke-linecap="round" stroke-linejoin="round" d="M13 13h-1.5" stroke-width="1"></path><path id="Vector 4120" stroke="#000000" stroke-linecap="round" stroke-linejoin="round" d="M9.5 13H8" stroke-width="1"></path><path id="Vector 4121" stroke="#000000" stroke-linecap="round" stroke-linejoin="round" d="M6 13H4.5" stroke-width="1"></path><path id="Vector 4116" stroke="#000000" stroke-linecap="round" stroke-linejoin="round" d="M1 4.5V6" stroke-width="1"></path><path id="Vector 4117" stroke="#000000" stroke-linecap="round" stroke-linejoin="round" d="M1 8v1.5" stroke-width="1"></path><path id="Vector 4118" stroke="#000000" stroke-linecap="round" stroke-linejoin="round" d="M1 11.5V13h1.5" stroke-width="1"></path><path id="Vector 4115" stroke="#000000" stroke-linecap="round" stroke-linejoin="round" d="M1 1v1.5" stroke-width="1"></path></g></svg>