<svg xmlns="http://www.w3.org/2000/svg" fill="none" viewBox="0 0 14 14"><g id="customer-support-5--customer-headset-help-phone-support"><path id="Vector" stroke="#000000" stroke-linecap="round" stroke-linejoin="round" d="M4.5 7.5H3c-0.55228 0 -1 0.44772 -1 1V12c0 0.5523 0.44772 1 1 1h1.5c0.55228 0 1 -0.4477 1 -1V8.5c0 -0.55228 -0.44772 -1 -1 -1Z" stroke-width="1"></path><path id="Vector_2" stroke="#000000" stroke-linecap="round" stroke-linejoin="round" d="M11 7.5H9.5c-0.55228 0 -1 0.44772 -1 1V12c0 0.5523 0.44772 1 1 1H11c0.5523 0 1 -0.4477 1 -1V8.5c0 -0.55228 -0.4477 -1 -1 -1Z" stroke-width="1"></path><path id="Vector 3839" stroke="#000000" stroke-linecap="round" stroke-linejoin="round" d="M1 10V7c0 -3.31371 2.68629 -6 6 -6v0c3.3137 0 6 2.68629 6 6v3" stroke-width="1"></path></g></svg>