<svg xmlns="http://www.w3.org/2000/svg" fill="none" viewBox="0 0 14 14"><g id="customer-support-3--customer-headset-help-microphone-phone-support"><path id="Vector 3826" stroke="#000000" stroke-linecap="round" stroke-linejoin="round" d="M3.5 5.5v-1C3.5 2.567 5.067 1 7 1v0c1.933 0 3.5 1.567 3.5 3.5V11c0 1.1046 -0.89543 2 -2 2H7" stroke-width="1"></path><path id="Vector 3827" stroke="#000000" stroke-linecap="round" stroke-linejoin="round" d="M10.5 9.5v-4H12c0.5523 0 1 0.44772 1 1v2c0 0.55228 -0.4477 1 -1 1h-1.5Z" stroke-width="1"></path><path id="Vector 3828" stroke="#000000" stroke-linecap="round" stroke-linejoin="round" d="M1 8.5v-2c0 -0.55228 0.44772 -1 1 -1h1.5v4H2c-0.55228 0 -1 -0.44772 -1 -1Z" stroke-width="1"></path></g></svg>