<svg xmlns="http://www.w3.org/2000/svg" fill="none" viewBox="0 0 14 14"><g id="customer-support-7--customer-headphones-help-microphone-person-profile-support"><path id="Vector" stroke="#000000" stroke-linecap="round" stroke-linejoin="round" d="M6.5 9.5C7.88071 9.5 9 8.38071 9 7S7.88071 4.5 6.5 4.5 4 5.61929 4 7s1.11929 2.5 2.5 2.5Z" stroke-width="1"></path><path id="Vector_2" stroke="#000000" stroke-linecap="round" stroke-linejoin="round" d="M6.5 4.5v-4" stroke-width="1"></path><path id="Vector_3" stroke="#000000" stroke-linecap="round" stroke-linejoin="round" d="M4.00005 2.09998C3.09656 2.56057 2.338 3.262 1.80822 4.12674c-0.52979 0.86474 -0.810173 1.85911 -0.810173 2.87324 0 1.01412 0.280383 2.0085 0.810173 2.87323C2.338 10.738 3.09656 11.4394 4.00005 11.9v1.6" stroke-width="1"></path><path id="Vector 3840" stroke="#000000" stroke-linecap="round" stroke-linejoin="round" d="M13 9.99997h-1.6459c-1.1945 0 -2.32944 -0.39218 -3.25107 -1.08151" stroke-width="1"></path><path id="Subtract" stroke="#000000" stroke-linecap="round" stroke-linejoin="round" d="M12 8.25002V6.99899c-0.0002 -0.97748 -0.2609 -1.93724 -0.7552 -2.7805 -0.4943 -0.84326 -1.2045 -1.53954 -2.05732 -2.01717 -0.12961 -0.07258 -0.2618 -0.13972 -0.39622 -0.20132" stroke-width="1"></path><path id="Subtract_2" stroke="#000000" stroke-linecap="round" stroke-linejoin="round" d="M11.6603 11.75c-0.182 0.16 -0.4166 0.249 -0.6603 0.249H9v1.5" stroke-width="1"></path></g></svg>