<svg xmlns="http://www.w3.org/2000/svg" fill="none" viewBox="0 0 14 14"><g id="custom-feeds-like-favorite"><path id="Vector 3875" stroke="#000000" stroke-linecap="round" stroke-linejoin="round" d="M13 5v7c0 0.5523 -0.4477 1 -1 1H5c-0.55228 0 -1 -0.4477 -1 -1V5c0 -0.55228 0.44772 -1 1 -1h7c0.5523 0 1 0.44772 1 1Z" stroke-width="1"></path><path id="Vector 3876" stroke="#000000" stroke-linecap="round" stroke-linejoin="round" d="M10 4V2c0 -0.55228 -0.44772 -1 -1 -1H2c-0.55228 0 -1 0.44772 -1 1v7c0 0.55228 0.44772 1 1 1h2" stroke-width="1"></path><path id="vector" stroke="#000000" stroke-linecap="round" stroke-linejoin="round" d="M8.5 10.607 6.39353 8.655C5.2139 7.50346 6.91312 5.27059 8.5 7.06812c1.5869 -1.79753 3.2861 0.43534 2.1065 1.58688L8.5 10.607Z" stroke-width="1"></path></g></svg>