<svg xmlns="http://www.w3.org/2000/svg" fill="none" viewBox="0 0 14 14"><g id="customer-support-4--customer-headset-help-phone-support"><path id="Vector 3836" stroke="#000000" stroke-linecap="round" stroke-linejoin="round" d="M1 8V7c0 -3.31371 2.68629 -6 6 -6v0c3.3137 0 6 2.68629 6 6v1" stroke-width="1"></path><path id="Vector 3834" stroke="#000000" stroke-linecap="round" stroke-linejoin="round" d="M3.5 8H1v4c0 0.5523 0.44772 1 1 1h1.5c0.55228 0 1 -0.4477 1 -1V9c0 -0.55228 -0.44772 -1 -1 -1Z" stroke-width="1"></path><path id="Vector 3835" stroke="#000000" stroke-linecap="round" stroke-linejoin="round" d="M13 8h-2.5c-0.55228 0 -1 0.44772 -1 1v3c0 0.5523 0.44772 1 1 1H12c0.5523 0 1 -0.4477 1 -1V8Z" stroke-width="1"></path></g></svg>