<svg xmlns="http://www.w3.org/2000/svg" fill="none" viewBox="0 0 14 14"><g id="customer-support-setting--customer-phone-help-microphone-phone-support"><path id="Vector 3841" stroke="#000000" stroke-linecap="round" stroke-linejoin="round" d="M2 13h1.75c0.41421 0 0.75 -0.3358 0.75 -0.75s0.33579 -0.75 0.75 -0.75h3.5c0.41421 0 0.75 0.3358 0.75 0.75s0.33579 0.75 0.75 0.75H12c0.5523 0 1 -0.4477 1 -1v-0.3149c0 -1.5286 -1.1492 -2.81476 -2.6712 -2.95716C9.0759 8.61071 7.70582 8.5 7 8.5c-0.70582 0 -2.0759 0.11071 -3.32881 0.22794C2.14919 8.87034 1 10.1565 1 11.6851V12c0 0.5523 0.44772 1 1 1Z" stroke-width="1"></path><path id="Subtract" stroke="#000000" stroke-linecap="round" stroke-linejoin="round" d="M1.99992 7.38661V6.66l-0.75 -0.93c-0.12604 -0.15817 -0.20116 -0.35084 -0.21544 -0.55258 -0.01428 -0.20174 0.03294 -0.40307 0.13544 -0.57742l0.4 -0.7c0.09932 -0.17162 0.24742 -0.30983 0.42548 -0.39708 0.17806 -0.08725 0.37804 -0.11959 0.57452 -0.09292l1.18 0.18 1.48 -0.84 0.43 -1.11c0.07252 -0.18794 0.2001 -0.34959 0.36605 -0.46379 0.16594 -0.1142 0.36251 -0.17561 0.56395 -0.17621h0.82c0.20144 0.0006 0.39801 0.06201 0.56395 0.17621 0.16595 0.1142 0.29353 0.27585 0.36605 0.46379l0.43 1.11 1.45998 0.84 1.18 -0.18c0.1965 -0.02667 0.3965 0.00567 0.5745 0.09292 0.1781 0.08725 0.3262 0.22546 0.4255 0.39708l0.4 0.7c0.1025 0.17435 0.1497 0.37568 0.1355 0.57742 -0.0143 0.20174 -0.0894 0.39441 -0.2155 0.55258l-0.73 0.93v0.72653" stroke-width="1"></path><path id="Subtract_2" stroke="#000000" stroke-linecap="round" stroke-linejoin="round" d="M5.10938 6.84731c0.09806 -0.28402 0.25979 -0.54503 0.47628 -0.76152C5.96074 5.71071 6.46944 5.5 6.99988 5.5c0.39556 0 0.78224 0.1173 1.11114 0.33706 0.3289 0.21976 0.58524 0.53212 0.73662 0.89757 0.0154 0.0372 0.02965 0.07477 0.04274 0.11267" stroke-width="1"></path></g></svg>