<svg xmlns="http://www.w3.org/2000/svg" fill="none" viewBox="0 0 14 14"><g id="dam--nature-water-treatment-power-energy-clean"><path id="Vector" stroke="#000000" stroke-linecap="round" stroke-linejoin="round" d="M0.5 1.5H3c0 8 3 11 3 11" stroke-width="1"></path><path id="Vector_2" stroke="#000000" stroke-linecap="round" stroke-linejoin="round" d="M8.75 12.5c0.9665 0 1.75 -0.7835 1.75 -1.75 0 0.9665 0.7835 1.75 1.75 1.75 0.4897 0 0.9324 -0.2011 1.25 -0.5253" stroke-width="1"></path><path id="Vector_3" stroke="#000000" stroke-linecap="round" stroke-linejoin="round" d="M13.5 8.47475C13.1824 8.79888 12.7397 9 12.25 9c-0.9665 0 -1.75 -0.7835 -1.75 -1.75C10.5 8.2165 9.7165 9 8.75 9c-0.6981 0 -1.30072 -0.40876 -1.58159 -1" stroke-width="1"></path><path id="Vector_4" stroke="#000000" stroke-linecap="round" stroke-linejoin="round" d="M13.5 4.97475c-0.3176 0.32413 -0.7603 0.52525 -1.25 0.52525 -0.9665 0 -1.75 -0.7835 -1.75 -1.75 0 0.9665 -0.7835 1.75 -1.75 1.75S7 4.7165 7 3.75c0 0.6981 -0.40876 1.30073 -1 1.58159" stroke-width="1"></path></g></svg>