<svg xmlns="http://www.w3.org/2000/svg" fill="none" viewBox="0 0 14 14"><g id="dashboard-mix-circle-square-1"><path id="Vector" stroke="#000000" stroke-linecap="round" stroke-linejoin="round" d="M12 1H9c-0.55228 0 -1 0.44772 -1 1v3c0 0.55228 0.44772 1 1 1h3c0.5523 0 1 -0.44772 1 -1V2c0 -0.55228 -0.4477 -1 -1 -1Z" stroke-width="1"></path><path id="Vector_2" stroke="#000000" stroke-linecap="round" stroke-linejoin="round" d="M5 8H2c-0.55228 0 -1 0.44772 -1 1v3c0 0.5523 0.44772 1 1 1h3c0.55228 0 1 -0.4477 1 -1V9c0 -0.55228 -0.44772 -1 -1 -1Z" stroke-width="1"></path><path id="Rectangle 2040" stroke="#000000" stroke-linecap="round" stroke-linejoin="round" d="M3.5 1h0S6 1 6 3.5v0S6 6 3.5 6h0S1 6 1 3.5v0S1 1 3.5 1" stroke-width="1"></path><path id="Rectangle 2043" stroke="#000000" stroke-linecap="round" stroke-linejoin="round" d="M10.5 8h0S13 8 13 10.5v0s0 2.5 -2.5 2.5h0S8 13 8 10.5v0S8 8 10.5 8" stroke-width="1"></path></g></svg>