<svg xmlns="http://www.w3.org/2000/svg" fill="none" viewBox="0 0 14 14"><g id="dashboard-vertical-pills-split-2"><path id="Rectangle 2040" stroke="#000000" stroke-linecap="round" stroke-linejoin="round" d="M13 3.5C13 2.11929 11.8807 1 10.5 1v0C9.11929 1 8 2.11929 8 3.5v7c0 1.3807 1.11929 2.5 2.5 2.5v0c1.3807 0 2.5 -1.1193 2.5 -2.5v-7Z" stroke-width="1"></path><path id="Rectangle 2041" stroke="#000000" stroke-linecap="round" stroke-linejoin="round" d="M6 3.5C6 2.11929 4.88071 1 3.5 1v0C2.11929 1 1 2.11929 1 3.5v7C1 11.8807 2.11929 13 3.5 13v0C4.88071 13 6 11.8807 6 10.5v-7Z" stroke-width="1"></path><path id="Vector 885" stroke="#000000" stroke-linecap="round" stroke-linejoin="round" d="M13 9H8" stroke-width="1"></path><path id="Vector 887" stroke="#000000" stroke-linecap="round" stroke-linejoin="round" d="M6 5H1" stroke-width="1"></path></g></svg>