<svg xmlns="http://www.w3.org/2000/svg" fill="none" viewBox="0 0 14 14" stroke-width="1"><g id="dashboard-circle-horizontal-pill-2"><path id="Rectangle 2040" stroke="#000000" stroke-linecap="round" stroke-linejoin="round" d="M3.5 13C2.11929 13 1 11.8807 1 10.5v0C1 9.11929 2.11929 8 3.5 8l7 0c1.3807 0 2.5 1.11929 2.5 2.5v0c0 1.3807-1.1193 2.5-2.5 2.5l-7 0Z"></path><path id="Rectangle 2041" stroke="#000000" stroke-linecap="round" stroke-linejoin="round" transform="rotate(-90 1 6)" d="M3.5 6h0S6 6 6 8.5v0S6 11 3.5 11h0S1 11 1 8.5v0S1 6 3.5 6"></path><path id="Rectangle 2043" stroke="#000000" stroke-linecap="round" stroke-linejoin="round" transform="rotate(-90 8 6)" d="M10.5 6h0S13 6 13 8.5v0s0 2.5-2.5 2.5h0S8 11 8 8.5v0S8 6 10.5 6"></path></g></svg>