<svg xmlns="http://www.w3.org/2000/svg" fill="none" viewBox="0 0 14 14"><g id="dashboard-vertical-rectangle-3"><path id="Vector" stroke="#000000" stroke-linecap="round" stroke-linejoin="round" d="M0.999999 9 1 12c0 0.5523 0.44772 1 1 1l10 0c0.5523 0 1 -0.4477 1 -1l0 -3c0 -0.55229 -0.4477 -1 -1 -1L2 8C1.44771 8 0.999999 8.44772 0.999999 9Z" stroke-width="1"></path><path id="Vector_2" stroke="#000000" stroke-linecap="round" stroke-linejoin="round" d="M0.999999 2 1 5c0 0.55228 0.44772 1 1 1l10 0c0.5523 0 1 -0.44772 1 -1l0 -3c0 -0.55229 -0.4477 -1.000002 -1 -1.000001L2 1C1.44771 1 0.999999 1.44772 0.999999 2Z" stroke-width="1"></path><path id="Vector 885" stroke="#000000" stroke-linecap="round" stroke-linejoin="round" d="m9 13 0 -5" stroke-width="1"></path><path id="Vector 888" stroke="#000000" stroke-linecap="round" stroke-linejoin="round" d="m5 13 0 -5" stroke-width="1"></path><path id="Vector 887" stroke="#000000" stroke-linecap="round" stroke-linejoin="round" d="m9 6 0 -5" stroke-width="1"></path></g></svg>