<svg xmlns="http://www.w3.org/2000/svg" fill="none" viewBox="0 0 14 14"><g id="dashboard-4--app-application-dashboard-home-layout-horizontal"><path id="Vector" stroke="#000000" stroke-linecap="round" stroke-linejoin="round" d="m6 12.5 0 -4c0 -0.27614 0.22386 -0.5 0.5 -0.5l6 0c0.2761 0 0.5 0.22386 0.5 0.5l0 4c0 0.2761 -0.2239 0.5 -0.5 0.5l-6 0c-0.27614 0 -0.5 -0.2239 -0.5 -0.5Z" stroke-width="1"></path><path id="Vector_2" stroke="#000000" stroke-linecap="round" stroke-linejoin="round" d="m1 12.5 0 -4c0 -0.27614 0.22386 -0.5 0.5 -0.5l2.01 0c0.27614 0 0.5 0.22386 0.5 0.5l0 4c0 0.2761 -0.22386 0.5 -0.5 0.5L1.5 13c-0.27614 0 -0.5 -0.2239 -0.5 -0.5Z" stroke-width="1"></path><path id="Vector_3" stroke="#000000" stroke-linecap="round" stroke-linejoin="round" d="m1 5.5 0 -4c0 -0.27614 0.22386 -0.5 0.5 -0.5l6 0c0.27614 0 0.5 0.22386 0.5 0.5l0 4c0 0.27614 -0.22386 0.5 -0.5 0.5l-6 0c-0.27614 0 -0.5 -0.22386 -0.5 -0.5Z" stroke-width="1"></path><path id="Vector_4" stroke="#000000" stroke-linecap="round" stroke-linejoin="round" d="m9.98999 5.5 0 -4c0 -0.27614 0.22381 -0.5 0.50001 -0.5l2.01 0c0.2761 0 0.5 0.22386 0.5 0.5l0 4c0 0.27614 -0.2239 0.5 -0.5 0.5l-2.01 0c-0.2762 0 -0.50001 -0.22386 -0.50001 -0.5Z" stroke-width="1"></path></g></svg>