<svg xmlns="http://www.w3.org/2000/svg" fill="none" viewBox="0 0 14 14"><g id="dashboard-horizontal-rectangle-half"><path id="Vector" stroke="#000000" stroke-linecap="round" stroke-linejoin="round" d="m13 5 0 -3c0 -0.55228 -0.4477 -1 -1 -1L2 1c-0.55229 -0.000001 -1 0.44771 -1 1l0 3c0 0.55228 0.44771 1 1 1l10 0c0.5523 0 1 -0.44772 1 -1Z" stroke-width="1"></path><path id="Vector_2" stroke="#000000" stroke-linecap="round" stroke-linejoin="round" d="m13 12 0 -3c0 -0.55228 -0.4477 -1 -1 -1L2 8c-0.55229 0 -1 0.44771 -1 1l0 3c0 0.5523 0.44771 1 1 1l10 0c0.5523 0 1 -0.4477 1 -1Z" stroke-width="1"></path><path id="Vector 3530" stroke="#000000" stroke-linecap="round" stroke-linejoin="round" d="m7 1 0 5" stroke-width="1"></path><path id="Vector 3531" stroke="#000000" stroke-linecap="round" stroke-linejoin="round" d="m7 8 0 5" stroke-width="1"></path></g></svg>