<svg xmlns="http://www.w3.org/2000/svg" fill="none" viewBox="0 0 14 14"><g id="dashboard-circle-vertical-pill-1"><path id="Rectangle 2040" stroke="#000000" stroke-linecap="round" stroke-linejoin="round" d="M3.5 1h0S6 1 6 3.5v0S6 6 3.5 6h0S1 6 1 3.5v0S1 1 3.5 1" stroke-width="1"></path><path id="Rectangle 2041" stroke="#000000" stroke-linecap="round" stroke-linejoin="round" d="M8 3.5C8 2.11929 9.11929 1 10.5 1v0C11.8807 1 13 2.11929 13 3.5v7c0 1.3807 -1.1193 2.5 -2.5 2.5v0C9.11929 13 8 11.8807 8 10.5v-7Z" stroke-width="1"></path><path id="Rectangle 2042" stroke="#000000" stroke-linecap="round" stroke-linejoin="round" d="M3.5 8h0S6 8 6 10.5v0S6 13 3.5 13h0S1 13 1 10.5v0S1 8 3.5 8" stroke-width="1"></path></g></svg>