<svg xmlns="http://www.w3.org/2000/svg" fill="none" viewBox="0 0 14 14"><g id="database-alert--raid-storage-code-disk-programming-database-array-hard-disc-alert"><path id="Vector" stroke="#000000" stroke-linecap="round" stroke-linejoin="round" d="M6 4.74c3.03757 0 5.5 -0.94916 5.5 -2.12S9.03757 0.5 6 0.5 0.5 1.44916 0.5 2.62 2.96243 4.74 6 4.74Z" stroke-width="1"></path><path id="Vector_2" stroke="#000000" stroke-linecap="round" stroke-linejoin="round" d="M0.5 2.62v6.75999c0 1.00581 1.81707 1.84801 4.25487 2.06541" stroke-width="1"></path><path id="Vector_3" stroke="#000000" stroke-linecap="round" stroke-linejoin="round" d="M0.5 6C0.5 7.17084 2.96243 8.12 6 8.12c0.16802 0 0.33427 -0.0029 0.49845 -0.00859" stroke-width="1"></path><path id="Vector_4" stroke="#000000" stroke-linecap="round" stroke-linejoin="round" d="M13.4252 12.61c0.049 0.0906 0.0746 0.192 0.0746 0.295 0 0.103 -0.0256 0.2044 -0.0746 0.295 -0.0461 0.0903 -0.1163 0.1661 -0.2027 0.2191 -0.0865 0.0529 -0.1859 0.0809 -0.2873 0.0809H7.06517c-0.10139 0 -0.20082 -0.028 -0.28729 -0.0809 -0.08647 -0.053 -0.15663 -0.1288 -0.20271 -0.2191 -0.04902 -0.0906 -0.07468 -0.192 -0.07468 -0.295 0 -0.103 0.02566 -0.2044 0.07468 -0.295l2.95 -5.31998c0.04052 -0.09935 0.10973 -0.18437 0.19878 -0.24423 0.08906 -0.05985 0.19392 -0.09181 0.30125 -0.09181 0.1073 0 0.2121 0.03196 0.3012 0.09181 0.089 0.05986 0.1582 0.14488 0.1988 0.24423l2.9 5.31998Z" stroke-width="1"></path><path id="Vector_5" stroke="#000000" stroke-linecap="round" stroke-linejoin="round" d="M10.0054 10.4999V9.49988" stroke-width="1"></path><path id="Ellipse 81" stroke="#000000" stroke-linecap="round" stroke-linejoin="round" d="M10.0006 12.1252c-0.06911 0 -0.12511 -0.056 -0.12511 -0.1251s0.056 -0.1251 0.12511 -0.1251" stroke-width="1"></path><path id="Ellipse 82" stroke="#000000" stroke-linecap="round" stroke-linejoin="round" d="M10.0005 12.125c0.0691 0 0.1251 -0.056 0.1251 -0.125 0 -0.0691 -0.056 -0.1251 -0.1251 -0.1251" stroke-width="1"></path><path id="Vector_6" stroke="#000000" stroke-linecap="round" stroke-linejoin="round" d="M11.5 5.25V2.62" stroke-width="1"></path></g></svg>