<svg xmlns="http://www.w3.org/2000/svg" fill="none" viewBox="0 0 14 14"><g id="database-search--raid-storage-code-disk-programming-database-array-hard-disc-search"><path id="Vector" stroke="#000000" stroke-linecap="round" stroke-linejoin="round" d="M6 4.74c3.03757 0 5.5 -0.94916 5.5 -2.12S9.03757 0.5 6 0.5 0.5 1.44916 0.5 2.62 2.96243 4.74 6 4.74Z" stroke-width="1"></path><path id="Vector_2" stroke="#000000" stroke-linecap="round" stroke-linejoin="round" d="M0.5 2.62v6.75999c0 0.98961 1.75901 1.82081 4.13758 2.05441" stroke-width="1"></path><path id="Vector_3" stroke="#000000" stroke-linecap="round" stroke-linejoin="round" d="M11.5 4.75V2.62" stroke-width="1"></path><path id="Vector_4" stroke="#000000" stroke-linecap="round" stroke-linejoin="round" d="M0.5 6c0 0.98796 1.75326 1.81808 4.12591 2.0533" stroke-width="1"></path><path id="vector" stroke="#000000" stroke-linecap="round" stroke-linejoin="round" d="M9.5 12.5c1.6569 0 3 -1.3431 3 -3 0 -1.65685 -1.3431 -3 -3 -3 -1.65685 0 -3 1.34315 -3 3 0 1.6569 1.34315 3 3 3Z" stroke-width="1"></path><path id="vector_2" stroke="#000000" stroke-linecap="round" stroke-linejoin="round" d="m13.5 13.5 -1.8787 -1.8787" stroke-width="1"></path></g></svg>