<svg xmlns="http://www.w3.org/2000/svg" fill="none" viewBox="0 0 14 14"><g id="database-shield--raid-storage-code-disk-programming-database-array-hard-disc-password-security-protection-shield-secure"><path id="Vector" stroke="#000000" stroke-linecap="round" stroke-linejoin="round" d="M6 4.74c3.03757 0 5.5 -0.94916 5.5 -2.12S9.03757 0.5 6 0.5 0.5 1.44916 0.5 2.62 2.96243 4.74 6 4.74Z" stroke-width="1"></path><path id="Vector_2" stroke="#000000" stroke-linecap="round" stroke-linejoin="round" d="M0.5 2.62v6.75999c0 1.12831 2.28692 2.05081 5.17161 2.11631" stroke-width="1"></path><path id="Vector_3" stroke="#000000" stroke-linecap="round" stroke-linejoin="round" d="M0.5 6c0 1.07274 2.06706 1.95938 4.74965 2.10044" stroke-width="1"></path><path id="Vector_4" stroke="#000000" stroke-linecap="round" stroke-linejoin="round" d="M11.5 5.25V2.62" stroke-width="1"></path><path id="Vector 3704" stroke="#000000" stroke-linecap="round" stroke-linejoin="round" d="M13 7.5H8c-0.27614 0 -0.5 0.22386 -0.5 0.5v1.33772c0 1.88848 1.20843 3.56508 3 4.16228 1.7916 -0.5972 3 -2.2738 3 -4.16228V8c0 -0.27614 -0.2239 -0.5 -0.5 -0.5Z" stroke-width="1"></path></g></svg>