<svg xmlns="http://www.w3.org/2000/svg" fill="none" viewBox="0 0 14 14"><g id="database-block--raid-storage-code-disk-programming-database-array-hard-disc-block-deny"><path id="Vector" stroke="#000000" stroke-linecap="round" stroke-linejoin="round" d="M6 4.74c3.03757 0 5.5 -0.94916 5.5 -2.12S9.03757 0.5 6 0.5 0.5 1.44916 0.5 2.62 2.96243 4.74 6 4.74Z" stroke-width="1"></path><path id="Vector_2" stroke="#000000" stroke-linecap="round" stroke-linejoin="round" d="M0.5 6C0.5 7.17084 2.96243 8.12 6 8.12c0.21059 0 0.41841 -0.00456 0.62284 -0.01344" stroke-width="1"></path><path id="Vector_3" stroke="#000000" stroke-linecap="round" stroke-linejoin="round" d="M0.5 2.62v6.75999C0.5 10.55 2.94 11.49 6 11.5" stroke-width="1"></path><path id="Vector_4" stroke="#000000" stroke-linecap="round" stroke-linejoin="round" d="M10.75 13.5C9.23122 13.5 8 12.2688 8 10.75 8 9.23122 9.23122 8 10.75 8c1.5188 0 2.75 1.23122 2.75 2.75 0 1.5188 -1.2312 2.75 -2.75 2.75Z" stroke-width="1"></path><path id="Vector_5" stroke="#000000" stroke-linecap="round" stroke-linejoin="round" d="M12.6945 12.6945 8.80542 8.80542" stroke-width="1"></path><path id="Vector_6" stroke="#000000" stroke-linecap="round" stroke-linejoin="round" d="M11.5 6V2.62" stroke-width="1"></path></g></svg>