<svg xmlns="http://www.w3.org/2000/svg" fill="none" viewBox="0 0 14 14"><g id="deepfake-technology-1--automated-face-head-fake-generated-artificial-intelligence-ai"><path id="Ellipse 1504" stroke="#000000" stroke-linecap="round" stroke-linejoin="round" d="M0.539 6.5a1 1 0 1 0 2 0 1 1 0 1 0 -2 0" stroke-width="1"></path><path id="Ellipse 1505" stroke="#000000" stroke-linecap="round" stroke-linejoin="round" d="M1.452 11.5a1 1 0 1 0 2 0 1 1 0 1 0 -2 0" stroke-width="1"></path><path id="Ellipse 1506" stroke="#000000" stroke-linecap="round" stroke-linejoin="round" d="M2.452 2.5a1 1 0 1 0 2 0 1 1 0 1 0 -2 0" stroke-width="1"></path><path id="Vector 2697" stroke="#000000" stroke-linecap="round" stroke-linejoin="round" d="m2.53873 6.49994 4.41376 0" stroke-width="1"></path><path id="Vector 2699" stroke="#000000" stroke-linecap="round" stroke-linejoin="round" d="M3.45249 11.4999h3.5" stroke-width="1"></path><path id="Vector 2698" stroke="#000000" stroke-linecap="round" stroke-linejoin="round" d="M5.45249 6.49994v2h-1.5" stroke-width="1"></path><path id="Vector 2700" stroke="#000000" stroke-linecap="round" stroke-linejoin="round" d="M4.45249 2.49994h2.5" stroke-width="1"></path><path id="Vector 2701" stroke="#000000" stroke-linecap="round" stroke-linejoin="round" d="M4.95249 12.4999v-1" stroke-width="1"></path><path id="Vector" stroke="#000000" stroke-linecap="round" stroke-linejoin="round" d="M9.46169 13.4998v-2h1.50001c0.2652 0 0.5196 -0.1053 0.7071 -0.2929 0.1875 -0.1875 0.2929 -0.4419 0.2929 -0.7071V8.49981h0.5c0.1605 -0.00006 0.3187 -0.03878 0.4611 -0.11288 0.1424 -0.0741 0.2649 -0.1814 0.3571 -0.31283 0.0922 -0.13143 0.1514 -0.28313 0.1726 -0.44227 0.0212 -0.15913 0.0038 -0.32104 -0.0508 -0.47202C12.5646 3.78714 11.0555 0.5 6.95254 0.5v13" stroke-width="1"></path></g></svg>