<svg xmlns="http://www.w3.org/2000/svg" fill="none" viewBox="0 0 14 14"><g id="deepfake-technology-2--automated-face-swap-switch-head-fake-generated-artificial-intelligence-ai"><path id="Rectangle 57" stroke="#000000" stroke-linecap="round" stroke-linejoin="round" d="M6.29444 0.979248h-1.3601c-0.94736 0 -1.71535 0.767982 -1.71535 1.715342v2.28306" stroke-width="1"></path><path id="Rectangle 58" stroke="#000000" stroke-linecap="round" stroke-linejoin="round" d="M9.02636 12.9717h1.36014c0.9473 0 1.7153 -0.768 1.7153 -1.7154V8.97327" stroke-width="1"></path><path id="Vector" stroke="#000000" stroke-linecap="round" stroke-linejoin="round" d="M7.5 4c0 1.65685 1.34315 3 3 3 0.4189 0 0.8177 -0.08584 1.1798 -0.24089C12.7501 6.30084 13.5 5.23799 13.5 4c0 -1.65685 -1.3431 -3 -3 -3 -1.65685 0 -3 1.34315 -3 3Z" stroke-width="1"></path><path id="Vector_2" stroke="#000000" stroke-linecap="round" stroke-linejoin="round" d="M7.52466 3.61282c0.43562 0.24649 0.939 0.38719 1.47524 0.38719 0.41886 0 0.81768 -0.08584 1.1798 -0.24089 0.4125 -0.17663 0.7775 -0.44308 1.0702 -0.77474 0.5497 0.62281 1.354 1.01563 2.25 1.01563" stroke-width="1"></path><path id="Vector 377" stroke="#000000" stroke-linecap="round" stroke-linejoin="round" d="m4.53638 4.02328 -1.31078 0.95084 -1.31077 -0.95084" stroke-width="1"></path><path id="Vector 378" stroke="#000000" stroke-linecap="round" stroke-linejoin="round" d="m10.7847 9.9274 1.3107 -0.95084 1.3108 0.95084" stroke-width="1"></path><path id="Vector_3" stroke="#000000" stroke-linecap="round" stroke-linejoin="round" d="M0.5 10c0 1.6569 1.34315 3 3 3 0.41886 0 0.81767 -0.0858 1.1798 -0.2409C5.75012 12.3008 6.5 11.238 6.5 10c0 -1.65685 -1.34315 -3 -3 -3s-3 1.34315 -3 3Z" stroke-width="1"></path><path id="Vector 2704" stroke="#000000" stroke-linecap="round" stroke-linejoin="round" d="M3.5 7v6" stroke-width="1"></path><path id="Vector 2705" stroke="#000000" stroke-linecap="round" stroke-linejoin="round" d="M0.536064 9.53342C0.731309 9.70725 1.71929 10.5 3.5 10.5c1.78071 0 2.76869 -0.79275 2.96393 -0.96658" stroke-width="1"></path></g></svg>