<svg xmlns="http://www.w3.org/2000/svg" fill="none" viewBox="0 0 14 14"><g id="delete-2--remove-bold-add-button-buttons-delete-cross-x-mathematics-multiply-math"><path id="Vector 3876" stroke="#000000" stroke-linecap="round" stroke-linejoin="round" d="m1.35355 3.14645 1.7929 -1.7929c0.19526 -0.19526 0.51184 -0.19526 0.7071 0L7 4.5l3.1464 -3.14645c0.1953 -0.19526 0.5119 -0.19526 0.7072 0l1.7928 1.7929c0.1953 0.19526 0.1953 0.51184 0 0.7071L9.5 7l3.1464 3.1464c0.1953 0.1953 0.1953 0.5119 0 0.7072l-1.7928 1.7928c-0.1953 0.1953 -0.5119 0.1953 -0.7072 0L7 9.5l-3.14645 3.1464c-0.19526 0.1953 -0.51184 0.1953 -0.7071 0l-1.7929 -1.7928c-0.19526 -0.1953 -0.19526 -0.5119 0 -0.7072L4.5 7 1.35355 3.85355c-0.19526 -0.19526 -0.19526 -0.51184 0 -0.7071Z" stroke-width="1"></path></g></svg>