<svg xmlns="http://www.w3.org/2000/svg" fill="none" viewBox="0 0 14 14"><g id="departure-time--travel-plane-trip-airplane-time-off-adventure-timer-take-clock-airport"><path id="Vector" stroke="#000000" stroke-linecap="round" stroke-linejoin="round" d="M6 3v3h2.5" stroke-width="1"></path><path id="Vector_2" stroke="#000000" stroke-linecap="round" stroke-linejoin="round" d="m3.78447 9.23497 1.04159 -0.35041c0.0688 -0.02077 0.14241 -0.0192 0.21027 0.00447 0.06785 0.02368 0.12646 0.06825 0.1674 0.12731l0.72497 1.07906 3.94227 -2.0221c0.30813 -0.18698 0.65323 -0.30457 1.01143 -0.34457 0.3582 -0.04 0.7208 -0.00145 1.0625 0.11296 0.3418 0.11441 0.6545 0.30193 0.9164 0.54951 0.2619 0.24758 0.4667 0.54927 0.6001 0.88407 0.03 0.08392 0.0428 0.17306 0.0374 0.26203 -0.0054 0.08897 -0.0287 0.17594 -0.0686 0.25565 -0.0399 0.07971 -0.0955 0.15052 -0.1635 0.20815 -0.068 0.0576 -0.147 0.1009 -0.2321 0.1272l-2.5956 0.8884 -0.2021 0.1117 -0.46266 1.6963c-0.01698 0.0582 -0.0473 0.1116 -0.08854 0.1561 -0.04125 0.0444 -0.09229 0.0786 -0.14907 0.0999l-1.18011 0.3953c-0.06055 0.0233 -0.12627 0.0298 -0.19021 0.0188 -0.06395 -0.011 -0.12374 -0.039 -0.17305 -0.0812 -0.04931 -0.0421 -0.08631 -0.0969 -0.10709 -0.1583 -0.02077 -0.0615 -0.02455 -0.1274 -0.01094 -0.1909l0.19821 -1.1933 -0.169 0.0533 -2.54023 0.8633c-0.16502 0.0595 -0.34678 0.0519 -0.50624 -0.0212 -0.15947 -0.073 -0.28392 -0.2057 -0.34663 -0.3695l-0.9362 -2.75635c-0.02166 -0.08154 -0.01223 -0.16822 0.02645 -0.24319 0.03869 -0.07498 0.10388 -0.13289 0.18288 -0.16249Z" stroke-width="1"></path><path id="Ellipse 1746" stroke="#000000" stroke-linecap="round" stroke-linejoin="round" d="M11.4776 5.5C11.225 2.69675 8.86902 0.5 6 0.5 2.96243 0.5 0.5 2.96243 0.5 6c0 1.10679 0.326921 2.13722 0.88947 3" stroke-width="1"></path></g></svg>