<svg xmlns="http://www.w3.org/2000/svg" fill="none" viewBox="0 0 14 14"><g id="description"><path id="Vector 4261" stroke="#000000" stroke-linecap="round" stroke-linejoin="round" d="M1.5 11H4v1.7929c0 0.3905 0.31658 0.7071 0.70711 0.7071 0.18753 0 0.36739 -0.0745 0.5 -0.2071L7.5 11h5c0.5523 0 1 -0.4477 1 -1V2.5c0 -0.55228 -0.4477 -1 -1 -1h-11c-0.552285 0 -1 0.44772 -1 1V10c0 0.5523 0.447715 1 1 1Z" stroke-width="1"></path><path id="Vector 2308" stroke="#000000" stroke-linecap="round" stroke-linejoin="round" d="M4.5 8.5C5.32843 8.5 6 7.82843 6 7v-0.5m0 0v-1c0 -0.55228 -0.44772 -1 -1 -1v0c-0.55228 0 -1 0.44772 -1 1v0c0 0.55228 0.44772 1 1 1h1Z" stroke-width="1"></path><path id="Vector 2309" stroke="#000000" stroke-linecap="round" stroke-linejoin="round" d="M8.5 8.5c0.82843 0 1.5 -0.67157 1.5 -1.5v-0.5m0 0v-1c0 -0.55228 -0.44772 -1 -1 -1v0c-0.55228 0 -1 0.44772 -1 1v0c0 0.55228 0.44772 1 1 1h1Z" stroke-width="1"></path></g></svg>