<svg xmlns="http://www.w3.org/2000/svg" fill="none" viewBox="0 0 14 14"><g id="desktop-lock--device-secure-display-computer-lock-desktop-padlock-security"><path id="Vector" stroke="#000000" stroke-linecap="round" stroke-linejoin="round" d="M6.97227 2 1 2c-0.276142 0 -0.5 0.22386 -0.5 0.5v8c0 0.2761 0.223858 0.5 0.5 0.5h12c0.2761 0 0.5 -0.2239 0.5 -0.5V9.13353" stroke-width="1"></path><path id="Vector_2" stroke="#000000" stroke-linecap="round" stroke-linejoin="round" d="m6 11 -1 2.5" stroke-width="1"></path><path id="Vector_3" stroke="#000000" stroke-linecap="round" stroke-linejoin="round" d="m8 11 1 2.5" stroke-width="1"></path><path id="Vector_4" stroke="#000000" stroke-linecap="round" stroke-linejoin="round" d="M4 13.5h6" stroke-width="1"></path><path id="Vector 3866" stroke="#000000" stroke-linecap="round" stroke-linejoin="round" d="M8.5 6.5011v-2.5c0 -0.27614 0.22386 -0.5 0.5 -0.5h4c0.2761 0 0.5 0.22386 0.5 0.5v2.5c0 0.27614 -0.2239 0.5 -0.5 0.5H9c-0.27614 0 -0.5 -0.22386 -0.5 -0.5Z" stroke-width="1"></path><path id="Vector 3864" stroke="#000000" stroke-linecap="round" stroke-linejoin="round" d="M9.25 3.5011v-1.25c0 -0.9665 0.7835 -1.750001 1.75 -1.750001s1.75 0.783501 1.75 1.750001v1.25" stroke-width="1"></path></g></svg>