<svg xmlns="http://www.w3.org/2000/svg" fill="none" viewBox="0 0 14 14"><g id="desktop-screensaver-sleep--desktop-screensaver-sleep-device-display-computer"><path id="Vector" stroke="#000000" stroke-linecap="round" stroke-linejoin="round" d="M5.97227 2 1 2c-0.276142 0 -0.5 0.22386 -0.5 0.5v8c0 0.2761 0.223858 0.5 0.5 0.5h12c0.2761 0 0.5 -0.2239 0.5 -0.5V7.88353" stroke-width="1"></path><path id="Vector_2" stroke="#000000" stroke-linecap="round" stroke-linejoin="round" d="m6 11 -1 2.5" stroke-width="1"></path><path id="Vector_3" stroke="#000000" stroke-linecap="round" stroke-linejoin="round" d="m8 11 1 2.5" stroke-width="1"></path><path id="Vector_4" stroke="#000000" stroke-linecap="round" stroke-linejoin="round" d="M4 13.5h6" stroke-width="1"></path><path id="Subtract" stroke="#000000" stroke-linecap="round" stroke-linejoin="round" d="M13.5001 4.99819c-1.6104 -0.05291 -2.8997 -1.37507 -2.8997 -2.99836 0 -0.54568 0.1457 -1.057335 0.4003 -1.498185C10.9674 0.500551 10.934 0.5 10.9004 0.5c-1.65686 0 -3.00001 1.34315 -3.00001 3s1.34315 3 3.00001 3c1.1112 0 2.0812 -0.60411 2.5997 -1.50181Z" stroke-width="1"></path></g></svg>