<svg xmlns="http://www.w3.org/2000/svg" fill="none" viewBox="0 0 14 14"><g id="desktop-sync-phone--phone-sync-upload-download-display-device-computer"><path id="Vector" stroke="#000000" stroke-linecap="round" stroke-linejoin="round" d="M6.72227 2 1 2c-0.276142 0 -0.5 0.22386 -0.5 0.5v8c0 0.2761 0.223858 0.5 0.5 0.5h12c0.2761 0 0.5 -0.2239 0.5 -0.5V9.13353" stroke-width="1"></path><path id="Vector_2" stroke="#000000" stroke-linecap="round" stroke-linejoin="round" d="m6 11 -1 2.5" stroke-width="1"></path><path id="Vector_3" stroke="#000000" stroke-linecap="round" stroke-linejoin="round" d="m8 11 1 2.5" stroke-width="1"></path><path id="Vector_4" stroke="#000000" stroke-linecap="round" stroke-linejoin="round" d="M4 13.5h6" stroke-width="1"></path><path id="Vector 1991" stroke="#000000" stroke-linecap="round" stroke-linejoin="round" d="M13 0.5H9.41174c-0.27614 0 -0.5 0.223858 -0.5 0.5v5.5c0 0.27614 0.22386 0.5 0.5 0.5H13c0.2761 0 0.5 -0.22386 0.5 -0.5V1c0 -0.276142 -0.2239 -0.5 -0.5 -0.5Z" stroke-width="1"></path><path id="Vector 1992" stroke="#000000" stroke-linecap="round" stroke-linejoin="round" d="M10.7058 5.25h1" stroke-width="1"></path></g></svg>