<svg xmlns="http://www.w3.org/2000/svg" fill="none" viewBox="0 0 14 14"><g id="desktop-sync--desktop-sync-arrow-refresh-device-display-computer"><path id="Vector" stroke="#000000" stroke-linecap="round" stroke-linejoin="round" d="M3.97227 2 1 2c-0.276142 0 -0.5 0.22386 -0.5 0.5v8c0 0.2761 0.223858 0.5 0.5 0.5h12c0.2761 0 0.5 -0.2239 0.5 -0.5V6.88353" stroke-width="1"></path><path id="Vector_2" stroke="#000000" stroke-linecap="round" stroke-linejoin="round" d="m6 11 -1 2.5" stroke-width="1"></path><path id="Vector_3" stroke="#000000" stroke-linecap="round" stroke-linejoin="round" d="m8 11 1 2.5" stroke-width="1"></path><path id="Vector_4" stroke="#000000" stroke-linecap="round" stroke-linejoin="round" d="M4 13.5h6" stroke-width="1"></path><path id="Ellipse 1800" stroke="#000000" stroke-linecap="round" stroke-linejoin="round" d="M10 0.5c1.3807 0 2.5 1.11929 2.5 2.5v1.5" stroke-width="1"></path><path id="Ellipse 1801" stroke="#000000" stroke-linecap="round" stroke-linejoin="round" d="M10 5.5C8.61929 5.5 7.5 4.38071 7.5 3V1.5" stroke-width="1"></path><path id="Vector 3990" stroke="#000000" stroke-linecap="round" stroke-linejoin="round" d="m6.5 2.5 1 -1 1 1" stroke-width="1"></path><path id="Vector 3989" stroke="#000000" stroke-linecap="round" stroke-linejoin="round" d="m11.5 3.5 1 1 1 -1" stroke-width="1"></path></g></svg>