<svg xmlns="http://www.w3.org/2000/svg" fill="none" viewBox="0 0 14 14"><g id="desktop-search--desktop-device-display-computer-magnifier-search-find-browse"><path id="Vector" stroke="#000000" stroke-linecap="round" stroke-linejoin="round" d="M4.47227 2 1 2c-0.276142 0 -0.5 0.22386 -0.5 0.5v8c0 0.2761 0.223858 0.5 0.5 0.5h12c0.2761 0 0.5 -0.2239 0.5 -0.5v-0.86647" stroke-width="1"></path><path id="Vector_2" stroke="#000000" stroke-linecap="round" stroke-linejoin="round" d="m6 11 -1 2.5" stroke-width="1"></path><path id="Vector_3" stroke="#000000" stroke-linecap="round" stroke-linejoin="round" d="m8 11 1 2.5" stroke-width="1"></path><path id="Vector_4" stroke="#000000" stroke-linecap="round" stroke-linejoin="round" d="M4 13.5h6" stroke-width="1"></path><path id="vector" stroke="#000000" stroke-linecap="round" stroke-linejoin="round" d="M9.5 6.5c1.6569 0 3 -1.34315 3 -3s-1.3431 -3 -3 -3c-1.65685 0 -3 1.34315 -3 3s1.34315 3 3 3Z" stroke-width="1"></path><path id="vector_2" stroke="#000000" stroke-linecap="round" stroke-linejoin="round" d="m13.5 7.50002 -1.8787 -1.87868" stroke-width="1"></path></g></svg>