<svg xmlns="http://www.w3.org/2000/svg" fill="none" viewBox="0 0 14 14"><g id="desktop-application--application-display-device-computer-select-arrows"><path id="Vector" stroke="#000000" stroke-linecap="round" stroke-linejoin="round" d="M13.5 7.5V10c0 0.2761 -0.2239 0.5 -0.5 0.5H1c-0.276142 0 -0.5 -0.2239 -0.5 -0.5V7.5" stroke-width="1"></path><path id="Vector_2" stroke="#000000" stroke-linecap="round" stroke-linejoin="round" d="M13.5 4V1.5c0 -0.27614 -0.2239 -0.5 -0.5 -0.5H1c-0.276142 0 -0.5 0.22386 -0.5 0.5V4" stroke-width="1"></path><path id="Vector_3" stroke="#000000" stroke-linecap="round" stroke-linejoin="round" d="M6 10.5 5 13" stroke-width="1"></path><path id="Vector_4" stroke="#000000" stroke-linecap="round" stroke-linejoin="round" d="M8 10.5 9 13" stroke-width="1"></path><path id="Vector_5" stroke="#000000" stroke-linecap="round" stroke-linejoin="round" d="M4 13h6" stroke-width="1"></path><path id="Vector_6" stroke="#000000" stroke-linecap="round" stroke-linejoin="round" d="M8.5 3.75h-3v4h3v-4Z" stroke-width="1"></path><path id="Vector_7" stroke="#000000" stroke-linecap="round" stroke-linejoin="round" d="m3 4.25 -1.5 1.5L3 7.25" stroke-width="1"></path><path id="Vector_8" stroke="#000000" stroke-linecap="round" stroke-linejoin="round" d="m11 4.25 1.5 1.5 -1.5 1.5" stroke-width="1"></path></g></svg>