<svg xmlns="http://www.w3.org/2000/svg" fill="none" viewBox="0 0 14 14"><g id="desktop-share--desktop-share-link-device-display-computer"><path id="Vector" stroke="#000000" stroke-linecap="round" stroke-linejoin="round" d="M5.22227 2 1 2c-0.276142 0 -0.5 0.22386 -0.5 0.5v8c0 0.2761 0.223858 0.5 0.5 0.5h12c0.2761 0 0.5 -0.2239 0.5 -0.5V8.88353" stroke-width="1"></path><path id="Vector_2" stroke="#000000" stroke-linecap="round" stroke-linejoin="round" d="m6 11 -1 2.5" stroke-width="1"></path><path id="Vector_3" stroke="#000000" stroke-linecap="round" stroke-linejoin="round" d="m8 11 1 2.5" stroke-width="1"></path><path id="Vector_4" stroke="#000000" stroke-linecap="round" stroke-linejoin="round" d="M4 13.5h6" stroke-width="1"></path><path id="Ellipse 1773" stroke="#000000" stroke-linecap="round" stroke-linejoin="round" d="M9.16707 3.70829c0 0.64433 -0.52233 1.16667 -1.16666 1.16667 -0.64434 0 -1.16667 -0.52234 -1.16667 -1.16667 0 -0.64433 0.52233 -1.16666 1.16667 -1.16666 0.64433 0 1.16666 0.52233 1.16666 1.16666Z" stroke-width="1"></path><path id="Ellipse 1774" stroke="#000000" stroke-linecap="round" stroke-linejoin="round" d="M13.5001 1.66667c0 0.64433 -0.5224 1.16666 -1.1667 1.16666 -0.6443 0 -1.1667 -0.52233 -1.1667 -1.16666C11.1667 1.02233 11.6891 0.5 12.3334 0.5c0.6443 0 1.1667 0.52233 1.1667 1.16667Z" stroke-width="1"></path><path id="Ellipse 1775" stroke="#000000" stroke-linecap="round" stroke-linejoin="round" d="M13.5001 5.74996c0 -0.64433 -0.5224 -1.16667 -1.1667 -1.16667 -0.6443 0 -1.1667 0.52234 -1.1667 1.16667 0 0.64433 0.5224 1.16667 1.1667 1.16667 0.6443 0 1.1667 -0.52234 1.1667 -1.16667Z" stroke-width="1"></path><path id="Subtract" stroke="#000000" stroke-linecap="round" stroke-linejoin="round" d="M11.3253 2.25452 9 3.12029" stroke-width="1"></path><path id="Subtract_2" stroke="#000000" stroke-linecap="round" stroke-linejoin="round" d="M11.3253 5.16192 9 4.29614" stroke-width="1"></path></g></svg>