<svg xmlns="http://www.w3.org/2000/svg" fill="none" viewBox="0 0 14 14"><g id="desktop-refresh--desktop-refresh-arrow-sync-device-display-computer"><path id="Vector" stroke="#000000" stroke-linecap="round" stroke-linejoin="round" d="M5.97227 2 1 2c-0.276142 0 -0.5 0.22386 -0.5 0.5v8c0 0.2761 0.223858 0.5 0.5 0.5h12c0.2761 0 0.5 -0.2239 0.5 -0.5V6.63353" stroke-width="1"></path><path id="Vector_2" stroke="#000000" stroke-linecap="round" stroke-linejoin="round" d="m6 11 -1 2.5" stroke-width="1"></path><path id="Vector_3" stroke="#000000" stroke-linecap="round" stroke-linejoin="round" d="m8 11 1 2.5" stroke-width="1"></path><path id="Vector_4" stroke="#000000" stroke-linecap="round" stroke-linejoin="round" d="M4 13.5h6" stroke-width="1"></path><path id="Ellipse 972" stroke="#000000" stroke-linecap="round" stroke-linejoin="round" d="M12.95 2.5c-0.2316 -1.14112 -1.2405 -2 -2.45 -2C9.11929 0.5 8 1.61929 8 3s1.11929 2.5 2.5 2.5c0.6169 0 1.1816 -0.22342 1.6176 -0.59376" stroke-width="1"></path><path id="Ellipse 973" stroke="#000000" stroke-linecap="round" stroke-linejoin="round" d="m13.5 1 -0.55 1.5 -1.45 -0.25" stroke-width="1"></path></g></svg>