<svg xmlns="http://www.w3.org/2000/svg" fill="none" viewBox="0 0 14 14"><g id="desktop-warning--alert-desktop-display-device-warning-notification-computer"><path id="Vector" stroke="#000000" stroke-linecap="round" stroke-linejoin="round" d="M10.2223 2 1 2c-0.276142 0 -0.5 0.22386 -0.5 0.5v8c0 0.2761 0.223858 0.5 0.5 0.5h12c0.2761 0 0.5 -0.2239 0.5 -0.5V7.63353" stroke-width="1"></path><path id="Vector_2" stroke="#000000" stroke-linecap="round" stroke-linejoin="round" d="m6 11 -1 2.5" stroke-width="1"></path><path id="Vector_3" stroke="#000000" stroke-linecap="round" stroke-linejoin="round" d="m8 11 1 2.5" stroke-width="1"></path><path id="Vector_4" stroke="#000000" stroke-linecap="round" stroke-linejoin="round" d="M4 13.5h6" stroke-width="1"></path><path id="Vector_5" stroke="#000000" stroke-linecap="round" stroke-linejoin="round" d="M12.5186 0.5v3" stroke-width="1"></path><g id="Group 4774"><path id="Vector_6" stroke="#000000" stroke-linecap="round" stroke-linejoin="round" d="M12.5186 5.75c-0.1381 0 -0.25 -0.11193 -0.25 -0.25s0.1119 -0.25 0.25 -0.25" stroke-width="1"></path><path id="Vector_7" stroke="#000000" stroke-linecap="round" stroke-linejoin="round" d="M12.5186 5.75c0.138 0 0.25 -0.11193 0.25 -0.25s-0.112 -0.25 -0.25 -0.25" stroke-width="1"></path></g></g></svg>