<svg xmlns="http://www.w3.org/2000/svg" fill="none" viewBox="0 0 14 14"><g id="desktop-personal-hotspot--desktop-personal-hotspot-connection-signal-device-display-computer"><path id="Vector" stroke="#000000" stroke-linecap="round" stroke-linejoin="round" d="M4 2H1c-0.132608 0 -0.259786 0.05268 -0.353554 0.14645C0.552678 2.24021 0.5 2.36739 0.5 2.5v8c0 0.1326 0.052678 0.2598 0.146446 0.3536C0.740214 10.9473 0.867392 11 1 11h12c0.1326 0 0.2598 -0.0527 0.3536 -0.1464 0.0937 -0.0938 0.1464 -0.221 0.1464 -0.3536V8" stroke-width="1"></path><path id="Vector_2" stroke="#000000" stroke-linecap="round" stroke-linejoin="round" d="m8 11 1 2.5" stroke-width="1"></path><path id="Vector_3" stroke="#000000" stroke-linecap="round" stroke-linejoin="round" d="m6 11 -1 2.5" stroke-width="1"></path><path id="Vector_4" stroke="#000000" stroke-linecap="round" stroke-linejoin="round" d="M10 13.5H4" stroke-width="1"></path><path id="Vector 3158" stroke="#000000" stroke-linecap="round" stroke-linejoin="round" d="M7 3.47475c-0.3093 -0.31564 -0.5 -0.74792 -0.5 -1.22475C6.5 1.2835 7.2835 0.5 8.25 0.5h1.5c0.9665 0 1.75 0.7835 1.75 1.75 0 0.6981 -0.4088 1.30073 -1 1.58159" stroke-width="1"></path><path id="Vector 3159" stroke="#000000" stroke-linecap="round" stroke-linejoin="round" d="M13 2.7753c0.3093 0.31564 0.5 0.74792 0.5 1.22475 0 0.9665 -0.7835 1.75 -1.75 1.75h-1.5c-0.9665 0 -1.75 -0.7835 -1.75 -1.75 0 -0.6981 0.40876 -1.30073 1 -1.58159" stroke-width="1"></path></g></svg>