<svg xmlns="http://www.w3.org/2000/svg" fill="none" viewBox="0 0 14 14"><g id="dial-pad-finger-1--dial-pad-dot-finger-login-password"><path id="Vector 107" stroke="#000000" stroke-linecap="round" stroke-linejoin="round" d="m12.9999 13 0 -1.927c0 -1.42102 -1.152 -2.573 -2.573 -2.573h-0.92698V5.75c0 -0.69036 -0.55964 -1.25 -1.25 -1.25 -0.69035 0 -1.25 0.55964 -1.25 1.25V9.5l-0.04898 0.00816C5.64392 9.726 5.06691 11.2804 5.91518 12.2983L6.49992 13" stroke-width="1"></path><path id="Vector" stroke="#000000" stroke-linecap="round" stroke-linejoin="round" d="M1.5 2c0.27614 0 0.5 -0.22386 0.5 -0.5S1.77614 1 1.5 1s-0.5 0.22386 -0.5 0.5 0.22386 0.5 0.5 0.5Z" stroke-width="1"></path><path id="Vector_2" stroke="#000000" stroke-linecap="round" stroke-linejoin="round" d="M5 2c0.27614 0 0.5 -0.22386 0.5 -0.5S5.27614 1 5 1s-0.5 0.22386 -0.5 0.5 0.22386 0.5 0.5 0.5Z" stroke-width="1"></path><path id="Vector_3" stroke="#000000" stroke-linecap="round" stroke-linejoin="round" d="M8.5 2c0.27614 0 0.5 -0.22386 0.5 -0.5S8.77614 1 8.5 1s-0.5 0.22386 -0.5 0.5 0.22386 0.5 0.5 0.5Z" stroke-width="1"></path><path id="Vector_4" stroke="#000000" stroke-linecap="round" stroke-linejoin="round" d="M1.5 5.5c0.27614 0 0.5 -0.22386 0.5 -0.5s-0.22386 -0.5 -0.5 -0.5 -0.5 0.22386 -0.5 0.5 0.22386 0.5 0.5 0.5Z" stroke-width="1"></path><path id="Vector_5" stroke="#000000" stroke-linecap="round" stroke-linejoin="round" d="M5 5.5c0.27614 0 0.5 -0.22386 0.5 -0.5s-0.22386 -0.5 -0.5 -0.5 -0.5 0.22386 -0.5 0.5 0.22386 0.5 0.5 0.5Z" stroke-width="1"></path><path id="Vector_6" stroke="#000000" stroke-linecap="round" stroke-linejoin="round" d="M1.5 9c0.27614 0 0.5 -0.22386 0.5 -0.5S1.77614 8 1.5 8s-0.5 0.22386 -0.5 0.5 0.22386 0.5 0.5 0.5Z" stroke-width="1"></path></g></svg>