<svg xmlns="http://www.w3.org/2000/svg" fill="none" viewBox="0 0 14 14"><g id="diamond--diamond-money-payment-finance-wealth-travel-places"><path id="Vector 4723" stroke="#000000" stroke-linecap="round" stroke-linejoin="round" d="M1 13v0c0 -0.8284 0.67157 -1.5 1.5 -1.5h9c0.8284 0 1.5 0.6716 1.5 1.5v0" stroke-width="1"></path><path id="Vector 4719" stroke="#000000" stroke-linecap="round" stroke-linejoin="round" d="m6.56897 9.32759 -4.8568 -4.62552C1.57668 4.57303 1.5 4.3941 1.5 4.207c0 -0.13497 0.03995 -0.26693 0.11482 -0.37923L3.20313 1.4453C3.3886 1.1671 3.70083 1 4.03518 1h5.92964c0.33438 0 0.64658 0.1671 0.83208 0.4453l1.5883 2.38247c0.0748 0.1123 0.1148 0.24426 0.1148 0.37923 0 0.1871 -0.0767 0.36603 -0.2122 0.49507L7.43103 9.32759C7.31482 9.43827 7.16049 9.5 7 9.5c-0.16049 0 -0.31482 -0.06173 -0.43103 -0.17241Z" stroke-width="1"></path><path id="Vector 4720" stroke="#000000" stroke-linecap="round" stroke-linejoin="round" d="M1.5 4h11" stroke-width="1"></path><path id="Vector 4721" stroke="#000000" stroke-linecap="round" stroke-linejoin="round" d="M6 1 5 4l2 5.5" stroke-width="1"></path><path id="Vector 4722" stroke="#000000" stroke-linecap="round" stroke-linejoin="round" d="m8 1 1 3 -2 5.5" stroke-width="1"></path></g></svg>