<svg xmlns="http://www.w3.org/2000/svg" fill="none" viewBox="0 0 14 14"><g id="dice--hobby-entertainment-boardgame-dice-die-gamble-five"><path id="Vector" stroke="#000000" stroke-linecap="round" stroke-linejoin="round" d="M12.5 3.5h-8c-0.55228 0 -1 0.44772 -1 1v8c0 0.5523 0.44772 1 1 1h8c0.5523 0 1 -0.4477 1 -1v-8c0 -0.55228 -0.4477 -1 -1 -1Z" stroke-width="1"></path><path id="Vector_2" stroke="#000000" stroke-linecap="round" stroke-linejoin="round" d="M10.36 1c-0.0873 -0.151138 -0.2125 -0.27681 -0.36342 -0.364525C9.84571 0.547759 9.67451 0.501053 9.5 0.5h-8C1.23478 0.5 0.98043 0.605357 0.792893 0.792893 0.605357 0.98043 0.5 1.23478 0.5 1.5v8c0.00003 0.17354 0.045223 0.34409 0.131136 0.49488 0.085912 0.15082 0.209587 0.27662 0.358864 0.36512" stroke-width="1"></path><g id="Group 10"><path id="Ellipse 1" stroke="#000000" stroke-linecap="round" stroke-linejoin="round" d="M6.25 6.5c-0.13807 0 -0.25 -0.11193 -0.25 -0.25S6.11193 6 6.25 6" stroke-width="1"></path><path id="Ellipse 2" stroke="#000000" stroke-linecap="round" stroke-linejoin="round" d="M6.25006 6.5c0.13807 0 0.25 -0.11193 0.25 -0.25s-0.11193 -0.25 -0.25 -0.25" stroke-width="1"></path></g><g id="Group 4533"><path id="Ellipse 1_2" stroke="#000000" stroke-linecap="round" stroke-linejoin="round" d="M10.75 6.5c-0.1381 0 -0.25 -0.11193 -0.25 -0.25s0.1119 -0.25 0.25 -0.25" stroke-width="1"></path><path id="Ellipse 2_2" stroke="#000000" stroke-linecap="round" stroke-linejoin="round" d="M10.7501 6.5c0.138 0 0.25 -0.11193 0.25 -0.25s-0.112 -0.25 -0.25 -0.25" stroke-width="1"></path></g><g id="Group 4534"><path id="Ellipse 1_3" stroke="#000000" stroke-linecap="round" stroke-linejoin="round" d="M6.25 11c-0.13807 0 -0.25 -0.1119 -0.25 -0.25s0.11193 -0.25 0.25 -0.25" stroke-width="1"></path><path id="Ellipse 2_3" stroke="#000000" stroke-linecap="round" stroke-linejoin="round" d="M6.25006 11c0.13807 0 0.25 -0.1119 0.25 -0.25s-0.11193 -0.25 -0.25 -0.25" stroke-width="1"></path></g><g id="Group 4536"><path id="Ellipse 1_4" stroke="#000000" stroke-linecap="round" stroke-linejoin="round" d="M8.5 8.75c-0.13807 0 -0.25 -0.11193 -0.25 -0.25s0.11193 -0.25 0.25 -0.25" stroke-width="1"></path><path id="Ellipse 2_4" stroke="#000000" stroke-linecap="round" stroke-linejoin="round" d="M8.50006 8.75c0.13807 0 0.25 -0.11193 0.25 -0.25s-0.11193 -0.25 -0.25 -0.25" stroke-width="1"></path></g><g id="Group 4535"><path id="Ellipse 1_5" stroke="#000000" stroke-linecap="round" stroke-linejoin="round" d="M10.75 11c-0.1381 0 -0.25 -0.1119 -0.25 -0.25s0.1119 -0.25 0.25 -0.25" stroke-width="1"></path><path id="Ellipse 2_5" stroke="#000000" stroke-linecap="round" stroke-linejoin="round" d="M10.7501 11c0.138 0 0.25 -0.1119 0.25 -0.25s-0.112 -0.25 -0.25 -0.25" stroke-width="1"></path></g></g></svg>