<svg xmlns="http://www.w3.org/2000/svg" fill="none" viewBox="0 0 14 14"><g id="disability-parking--park-disable-wheelchair-sign"><path id="Vector" stroke="#000000" stroke-linecap="round" stroke-linejoin="round" d="M10.5 0.5v5" stroke-width="1"></path><path id="Vector_2" stroke="#000000" stroke-linecap="round" stroke-linejoin="round" d="M10.5 0.5H12c0.3978 0 0.7794 0.158035 1.0607 0.43934 0.2813 0.2813 0.4393 0.66284 0.4393 1.06066 0 0.39782 -0.158 0.77936 -0.4393 1.06066C12.7794 3.34196 12.3978 3.5 12 3.5h-1.5" stroke-width="1"></path><path id="Ellipse 1990" stroke="#000000" stroke-linecap="round" stroke-linejoin="round" d="M3.75 4.25a1.75 1.75 0 1 0 3.5 0 1.75 1.75 0 1 0 -3.5 0" stroke-width="1"></path><path id="Vector 4983" stroke="#000000" stroke-linecap="round" stroke-linejoin="round" d="M5.5 6v2.5c0 0.55228 0.44772 1 1 1h1.3406c0.40003 0 0.76157 0.2384 0.91915 0.6061L10 13" stroke-width="1"></path><path id="Ellipse 1989" stroke="#000000" stroke-linecap="round" stroke-linejoin="round" d="M3.5 7.5c-1.65685 0 -3 1.34315 -3 3 0 1.6569 1.34315 3 3 3 1.30622 0 2.41746 -0.8348 2.82929 -2" stroke-width="1"></path></g></svg>