<svg xmlns="http://www.w3.org/2000/svg" fill="none" viewBox="0 0 14 14"><g id="disability-slope--sign-disable-wheelchair"><path id="Vector" stroke="#000000" stroke-linecap="round" stroke-linejoin="round" d="m6 13.5 7.5 -3.5v3.5H6Z" stroke-width="1"></path><path id="Ellipse 1990" stroke="#000000" stroke-linecap="round" stroke-linejoin="round" d="M2.065 2.25a1.75 1.75 0 1 0 3.5 0 1.75 1.75 0 1 0 -3.5 0" stroke-width="1"></path><path id="Vector 4983" stroke="#000000" stroke-linecap="round" stroke-linejoin="round" d="m4.26794 3.94031 0.64705 2.41481c0.14294 0.53347 0.69128 0.85005 1.22475 0.70711l1.29492 -0.34697c0.3864 -0.10354 0.79732 0.03316 1.04469 0.34753L10.4263 9.5371" stroke-width="1"></path><path id="Ellipse 1989" stroke="#000000" stroke-linecap="round" stroke-linejoin="round" d="M2.72429 5.90686C1.12389 6.33569 0.174142 7.9807 0.602967 9.58109 1.03179 11.1815 2.6768 12.1312 4.2772 11.7024c1.26171 -0.3381 2.11902 -1.432 2.21525 -2.66411" stroke-width="1"></path></g></svg>