<svg xmlns="http://www.w3.org/2000/svg" fill="none" viewBox="0 0 14 14"><g id="disable-alarm--time-tock-stopwatch-measure-clock-tick-disabled-off"><path id="Vector" stroke="#000000" stroke-linecap="round" stroke-linejoin="round" d="M11.4236 11.4236c0.8283 -0.9962 1.3264 -2.27674 1.3264 -3.6736C12.75 4.57436 10.1756 2 6.99999 2c-1.39685 0 -2.67737 0.49809 -3.67364 1.32636" stroke-width="1"></path><path id="Vector_2" stroke="#000000" stroke-linecap="round" stroke-linejoin="round" d="M1.94901 5C1.5033 5.81691 1.25 6.75387 1.25 7.75c0 3.1756 2.57436 5.75 5.75 5.75 0.99613 0 1.93309 -0.2533 2.75 -0.699" stroke-width="1"></path><path id="Vector_3" stroke="#000000" stroke-linecap="round" stroke-linejoin="round" d="M10.3865 0.5c1.2465 0.58325 2.3179 1.47851 3.1135 2.58528" stroke-width="1"></path><path id="Vector_4" stroke="#000000" stroke-linecap="round" stroke-linejoin="round" d="M13.5 13.5 0.5 0.5" stroke-width="1"></path><path id="Vector_5" stroke="#000000" stroke-linecap="round" stroke-linejoin="round" d="M3.61352 0.5c-0.68639 0.32116 -1.31967 0.73692 -1.88305 1.23051" stroke-width="1"></path></g></svg>