<svg xmlns="http://www.w3.org/2000/svg" fill="none" viewBox="0 0 14 14"><g id="disability-ramp-down--sign-disable-wheelchair-slope-ramp-down"><path id="Vector" stroke="#000000" stroke-linecap="round" stroke-linejoin="round" d="M8 13.5 0.5 10v3.5H8Z" stroke-width="1"></path><path id="Ellipse 1990" stroke="#000000" stroke-linecap="round" stroke-linejoin="round" d="M9.668 2.25a1.75 1.75 0 1 0 3.5 0 1.75 1.75 0 1 0 -3.5 0" stroke-width="1"></path><path id="Vector 4983" stroke="#000000" stroke-linecap="round" stroke-linejoin="round" d="m10.9651 3.94031 -0.6471 2.41481c-0.1429 0.53347 0.1737 1.08181 0.7071 1.22475l1.2949 0.34697c0.3864 0.10354 0.674 0.42738 0.731 0.82332l0.449 3.11634" stroke-width="1"></path><path id="Ellipse 1989" stroke="#000000" stroke-linecap="round" stroke-linejoin="round" d="M8.645 4.87152c-1.6004 -0.42882 -3.24541 0.52092 -3.67424 2.12132 -0.42882 1.6004 0.52093 3.24546 2.12133 3.67426 1.26171 0.3381 2.55114 -0.1807 3.25051 -1.1996" stroke-width="1"></path></g></svg>