<svg xmlns="http://www.w3.org/2000/svg" fill="none" viewBox="0 0 14 14"><g id="discount-percent-coupon--shop-shops-stores-discount-coupon-voucher"><path id="Subtract" stroke="#000000" stroke-linecap="round" stroke-linejoin="round" d="M0.499998 11c0 0.5523 0.446969 1 0.998332 1H12.5017c0.5513 0 0.9983 -0.4477 0.9983 -1V8.96597C12.6357 8.73132 11.9999 7.94003 11.9999 7c0 -0.94003 0.6358 -1.73132 1.5001 -1.96597V3c0 -0.55228 -0.447 -1 -0.9983 -1H1.49833c-0.551362 0 -0.998332 0.44771 -0.998332 1v2.02963C1.3727 5.25866 2.01656 6.05401 2.01656 7c0 0.94599 -0.64386 1.74134 -1.516562 1.97037V11Z" stroke-width="1"></path><path id="Vector" stroke="#000000" stroke-linecap="round" stroke-linejoin="round" d="m4.52051 9.5 5 -5" stroke-width="1"></path><path id="Vector_2" stroke="#000000" stroke-linecap="round" stroke-linejoin="round" d="M5.02051 5.5c0.27614 0 0.5 -0.22386 0.5 -0.5s-0.22386 -0.5 -0.5 -0.5 -0.5 0.22386 -0.5 0.5 0.22386 0.5 0.5 0.5Z" stroke-width="1"></path><path id="Vector_3" stroke="#000000" stroke-linecap="round" stroke-linejoin="round" d="M9.02051 9.5c0.27614 0 0.5 -0.22386 0.5 -0.5s-0.22386 -0.5 -0.5 -0.5 -0.5 0.22386 -0.5 0.5 0.22386 0.5 0.5 0.5Z" stroke-width="1"></path></g></svg>