<svg xmlns="http://www.w3.org/2000/svg" fill="none" viewBox="0 0 14 14"><g id="dislike-1--reward-down-thumb-hand-social-media-dislike-rating"><path id="Vector" stroke="#000000" stroke-linecap="round" stroke-linejoin="round" d="M0.99605 2.09534H3.46v6.26015H0.99605c-0.131561 0 -0.257733 -0.05226 -0.35076 -0.14529C0.552262 8.11717 0.5 7.991 0.5 7.85944V2.59139c0 -0.13156 0.052262 -0.25774 0.14529 -0.35076 0.093027 -0.09303 0.219199 -0.14529 0.35076 -0.14529Z" stroke-width="1"></path><path id="Vector_2" stroke="#000000" stroke-linecap="round" stroke-linejoin="round" d="m3.46003 8.35543 2.5072 4.02797c0.09766 0.1592 0.23489 0.2904 0.39832 0.3808 0.16343 0.0904 0.34749 0.1369 0.53425 0.135 0.14709 0.0054 0.29375 -0.0189 0.43132 -0.0712 0.13756 -0.0524 0.26324 -0.1317 0.3696 -0.2335 0.10636 -0.1017 0.19125 -0.2237 0.24965 -0.3588 0.05839 -0.1351 0.08912 -0.2806 0.09035 -0.4278V8.92092H12.396c0.161 -0.00521 0.319 -0.04444 0.4637 -0.11509 0.1447 -0.07065 0.2727 -0.17113 0.3758 -0.29483 0.1031 -0.12369 0.1788 -0.26781 0.2222 -0.42287 0.0434 -0.15505 0.0535 -0.31754 0.0296 -0.47678l-0.7936 -5.11923c-0.0339 -0.27359 -0.1665 -0.52539 -0.3729 -0.70808 -0.2065 -0.18269 -0.4725 -0.28369 -0.7482 -0.28402H5.06442c-0.30982 -0.00122 -0.61561 0.07013 -0.89289 0.20834l-0.71432 0.35715" stroke-width="1"></path></g></svg>