<svg xmlns="http://www.w3.org/2000/svg" fill="none" viewBox="0 0 14 14"><g id="dislike-square--reward-social-up-rating-media-dislike-thumb-hand"><path id="Vector" stroke="#000000" stroke-linecap="round" stroke-linejoin="round" d="m4 8 1.64 2.66c0.06448 0.1038 0.1543 0.1894 0.26102 0.2489 0.10671 0.0595 0.22681 0.0908 0.34898 0.0911 0.19096 0 0.37409 -0.0759 0.50912 -0.2109 0.13502 -0.135 0.21088 -0.3181 0.21088 -0.5091v-1.9h2.84c0.10777 -0.00148 0.2139 -0.02618 0.3113 -0.0724 0.0974 -0.04622 0.1836 -0.11288 0.2529 -0.19545 0.0693 -0.08256 0.12 -0.17908 0.1486 -0.28299 0.0286 -0.10392 0.0345 -0.21277 0.0172 -0.31916l-0.51 -3.37c-0.0263 -0.17759 -0.11549 -0.33984 -0.25128 -0.45727C9.64294 3.56529 9.46953 3.50045 9.29 3.5H4" stroke-width="1"></path><path id="Vector 4012" stroke="#000000" stroke-linecap="round" stroke-linejoin="round" d="M12 1H2c-0.55228 0 -1 0.44772 -1 1v10c0 0.5523 0.44772 1 1 1h10c0.5523 0 1 -0.4477 1 -1V2c0 -0.55228 -0.4477 -1 -1 -1Z" stroke-width="1"></path></g></svg>