<svg xmlns="http://www.w3.org/2000/svg" fill="none" viewBox="0 0 14 14"><g id="distribute-center-vertical"><path id="Vector 734" stroke="#000000" stroke-linecap="round" stroke-linejoin="round" d="M0.5 3.5H4" stroke-width="1"></path><path id="Vector 738" stroke="#000000" stroke-linecap="round" stroke-linejoin="round" d="M10 3.5h3.5" stroke-width="1"></path><path id="Vector 736" stroke="#000000" stroke-linecap="round" stroke-linejoin="round" d="M0.5 10.5H2" stroke-width="1"></path><path id="Vector 739" stroke="#000000" stroke-linecap="round" stroke-linejoin="round" d="M12 10.5h1.5" stroke-width="1"></path><path id="Vector 735" stroke="#000000" stroke-linecap="round" stroke-linejoin="round" d="M4 4.5v-2c0 -0.55228 0.44772 -1 1 -1h4c0.55228 0 1 0.44772 1 1v2c0 0.55228 -0.44772 1 -1 1H5c-0.55228 0 -1 -0.44772 -1 -1Z" stroke-width="1"></path><path id="Vector 737" stroke="#000000" stroke-linecap="round" stroke-linejoin="round" d="M2 11.5v-2c0 -0.55228 0.44772 -1 1 -1h8c0.5523 0 1 0.44772 1 1v2c0 0.5523 -0.4477 1 -1 1H3c-0.55228 0 -1 -0.4477 -1 -1Z" stroke-width="1"></path></g></svg>