<svg xmlns="http://www.w3.org/2000/svg" fill="none" viewBox="0 0 14 14"><g id="document-certificate--document-contract-license-permission-award"><path id="Vector" stroke="#000000" stroke-linecap="round" stroke-linejoin="round" d="M9.04163 11.0938c1.32587 0 2.40067 -1.0749 2.40067 -2.40068 0 -1.32584 -1.0748 -2.40064 -2.40067 -2.40064 -1.32584 0 -2.40064 1.0748 -2.40064 2.40064 0 1.32578 1.0748 2.40068 2.40064 2.40068Z" stroke-width="1"></path><path id="Vector 1166" stroke="#000000" stroke-linecap="round" stroke-linejoin="round" d="M3.5 3.52539h6.125" stroke-width="1"></path><path id="Vector 1167" stroke="#000000" stroke-linecap="round" stroke-linejoin="round" d="M3.5 5.56714h1.75" stroke-width="1"></path><path id="Rectangle 1716" stroke="#000000" stroke-linecap="round" stroke-linejoin="round" d="M5.23926 11.0938H1.58301c-0.55229 0 -1.000002 -0.4478 -1.000002 -1V1.90625c0 -0.55228 0.447712 -1 1.000002 -1H12.458c0.5523 0 1 0.44772 1 1v8.18755c0 0.5522 -0.4477 1 -1 1h-0.2187" stroke-width="1"></path><path id="Vector 2366" stroke="#000000" stroke-linecap="round" stroke-linejoin="round" d="M7.8855 10.8086v2.6602l1.15625 -0.6876 1.15625 0.6876v-2.6602" stroke-width="1"></path><g id="Group 4544"><path id="Ellipse 1" stroke="#000000" stroke-linecap="round" stroke-linejoin="round" d="M9.04163 8.94312c-0.13808 0 -0.25 -0.11193 -0.25 -0.25 0 -0.13808 0.11192 -0.25 0.25 -0.25" stroke-width="1"></path><path id="Ellipse 2" stroke="#000000" stroke-linecap="round" stroke-linejoin="round" d="M9.04167 8.94312c0.13807 0 0.25 -0.11193 0.25 -0.25 0 -0.13808 -0.11193 -0.25 -0.25 -0.25" stroke-width="1"></path></g></g></svg>