<svg width="19" height="19" viewBox="0 0 19 19" fill="none" xmlns="http://www.w3.org/2000/svg">
<g clip-path="url(#clip0_624_22631)">
<path d="M16.625 11.2812V15.4375C16.625 15.7524 16.4999 16.0545 16.2772 16.2772C16.0545 16.4999 15.7524 16.625 15.4375 16.625H3.5625C3.24756 16.625 2.94551 16.4999 2.72281 16.2772C2.50011 16.0545 2.375 15.7524 2.375 15.4375V11.2812C2.375 11.1238 2.43756 10.9728 2.54891 10.8614C2.66026 10.7501 2.81128 10.6875 2.96875 10.6875C3.12622 10.6875 3.27724 10.7501 3.38859 10.8614C3.49994 10.9728 3.5625 11.1238 3.5625 11.2812V15.4375H15.4375V11.2812C15.4375 11.1238 15.5001 10.9728 15.6114 10.8614C15.7228 10.7501 15.8738 10.6875 16.0312 10.6875C16.1887 10.6875 16.3397 10.7501 16.4511 10.8614C16.5624 10.9728 16.625 11.1238 16.625 11.2812ZM9.07992 11.7013C9.13507 11.7565 9.20055 11.8003 9.27263 11.8302C9.34471 11.8601 9.42197 11.8755 9.5 11.8755C9.57803 11.8755 9.65529 11.8601 9.72737 11.8302C9.79945 11.8003 9.86493 11.7565 9.92008 11.7013L12.8888 8.73258C12.972 8.64954 13.0286 8.5437 13.0515 8.42846C13.0745 8.31323 13.0627 8.19377 13.0177 8.08522C12.9728 7.97667 12.8966 7.8839 12.7989 7.81867C12.7011 7.75343 12.5863 7.71866 12.4688 7.71875H10.0938V2.96875C10.0938 2.81128 10.0312 2.66026 9.91985 2.54891C9.8085 2.43756 9.65747 2.375 9.5 2.375C9.34253 2.375 9.1915 2.43756 9.08016 2.54891C8.96881 2.66026 8.90625 2.81128 8.90625 2.96875V7.71875H6.53125C6.41375 7.71866 6.29886 7.75343 6.20114 7.81867C6.10341 7.8839 6.02723 7.97667 5.98226 8.08522C5.93728 8.19377 5.92552 8.31323 5.94847 8.42846C5.97142 8.5437 6.02804 8.64954 6.11117 8.73258L9.07992 11.7013Z" fill="white"/>
</g>
<defs>
<clipPath id="clip0_624_22631">
<rect width="19" height="19" fill="white"/>
</clipPath>
</defs>
</svg>
