<svg xmlns="http://www.w3.org/2000/svg" fill="none" viewBox="0 0 14 14"><g id="draft"><path id="Vector" stroke="#000000" stroke-linecap="round" stroke-linejoin="round" d="M11.4993 1.5c0 -0.26522 -0.1053 -0.51957 -0.2929 -0.707107C11.0189 0.605357 10.7645 0.5 10.4993 0.5L3.49933 0.5l-3.000001 3v9c0 0.2652 0.105357 0.5196 0.292893 0.7071s0.441888 0.2929 0.707108 0.2929h8.99997c0.2652 0 0.5196 -0.1054 0.7071 -0.2929 0.1876 -0.1875 0.2929 -0.4419 0.2929 -0.7071V11" stroke-width="1"></path><path id="Vector_2" stroke="#000000" stroke-linecap="round" stroke-linejoin="round" d="M3.99933 0.5 3.99934 4H0.499303" stroke-width="1"></path><path id="Vector_3" stroke="#000000" stroke-linecap="round" stroke-linejoin="round" d="m8.49799 11.0016 -2.99866 0.5397 0.49978 -3.03862 4.72699 -4.70701c0.0929 -0.09369 0.2035 -0.16805 0.3253 -0.2188 0.1218 -0.05074 0.2524 -0.07687 0.3844 -0.07687 0.1319 0 0.2626 0.02613 0.3844 0.07687 0.1218 0.05075 0.2324 0.12511 0.3253 0.2188l1.0595 1.05952c0.0937 0.09293 0.168 0.20348 0.2188 0.32528 0.0507 0.12181 0.0769 0.25245 0.0769 0.38441 0 0.13195 -0.0262 0.2626 -0.0769 0.3844 -0.0508 0.12181 -0.1251 0.23236 -0.2188 0.32528L8.49799 11.0016Z" stroke-width="1"></path></g></svg>