<svg xmlns="http://www.w3.org/2000/svg" fill="none" viewBox="0 0 14 14"><g id="earth-2--planet-earth-globe-world"><path id="Vector" stroke="#000000" stroke-linecap="round" stroke-linejoin="round" d="M7 13.5c3.5899 0 6.5 -2.9101 6.5 -6.5C13.5 3.41015 10.5899 0.5 7 0.5 3.41015 0.5 0.5 3.41015 0.5 7c0 3.5899 2.91015 6.5 6.5 6.5Z" stroke-width="1"></path><path id="Vector_2" stroke="#000000" stroke-linecap="round" stroke-linejoin="round" d="M12.48 3.5H8.47998c-0.53043 0 -1.03914 0.21071 -1.41421 0.58579 -0.37508 0.37507 -0.58579 0.88378 -0.58579 1.41421s0.21071 1.03914 0.58579 1.41421c0.37507 0.37508 0.88378 0.58579 1.41421 0.58579 0.26522 0 0.51957 0.10536 0.70711 0.29289 0.18753 0.18754 0.29289 0.44189 0.29289 0.70711V13" stroke-width="1"></path><path id="Vector_3" stroke="#000000" stroke-linecap="round" stroke-linejoin="round" d="M0.580017 8H3.00002c0.53043 0 1.03914 0.21071 1.41421 0.58579 0.37507 0.37507 0.58579 0.88378 0.58579 1.41421v3.19" stroke-width="1"></path></g></svg>