<svg xmlns="http://www.w3.org/2000/svg" fill="none" viewBox="0 0 14 14"><g id="edge"><path id="Ellipse 34" stroke="#000000" stroke-linecap="round" stroke-linejoin="round" d="M13.5 7C13.5 3.41015 10.5899 0.5 7 0.5 3.41015 0.5 0.5 3.41015 0.5 7c0 1.38102 0.430685 2.66144 1.16507 3.7143C2.83966 12.3982 4.79117 13.5 7 13.5s4.1603 -1.1018 5.3349 -2.7857c0 0 -3.98968 -0.1377 -5.3349 -0.92859 -1.34522 -0.79087 -1.85714 -1.85714 -1.85714 -2.78565 0 -1.02568 0.83147 -1.85715 1.85714 -1.85715 0.26848 0 0.51806 0.05746 0.74146 0.15874 0.95139 0.43136 1.42787 1.65771 0.86726 2.62692C10.7471 8.57601 11.8093 8.31929 13.5 7Z" stroke-width="1"></path><path id="Vector 1162" stroke="#000000" stroke-linecap="round" stroke-linejoin="round" d="M8.56774 6.0588C7.66512 4.25306 2.7187 2.06181 0.519531 7.47651" stroke-width="1"></path><path id="Vector 1163" stroke="#000000" stroke-linecap="round" stroke-linejoin="round" d="M5.48242 5.93347C4.09904 7.4171 2.93614 11.6538 8.60634 13.2929" stroke-width="1"></path></g></svg>