<svg xmlns="http://www.w3.org/2000/svg" fill="none" viewBox="0 0 14 14"><g id="electric-charging-station-alert"><path id="Vector" stroke="#000000" stroke-linecap="round" stroke-linejoin="round" d="M0.75 0.5v3" stroke-width="1"></path><g id="Group 627"><path id="Vector_2" stroke="#000000" stroke-linecap="round" stroke-linejoin="round" d="M0.75 6.25C0.611929 6.25 0.5 6.13807 0.5 6s0.111929 -0.25 0.25 -0.25" stroke-width="1"></path><path id="Vector_3" stroke="#000000" stroke-linecap="round" stroke-linejoin="round" d="M0.75 6.25C0.888071 6.25 1 6.13807 1 6s-0.111929 -0.25 -0.25 -0.25" stroke-width="1"></path></g><path id="Vector 3369" stroke="#000000" stroke-linecap="round" stroke-linejoin="round" d="M3.5 7V4.5c0 -0.27614 0.22386 -0.5 0.5 -0.5h2.5c0.27614 0 0.5 0.22386 0.5 0.5V7c0 0.27614 -0.22386 0.5 -0.5 0.5H4c-0.27614 0 -0.5 -0.22386 -0.5 -0.5Z" stroke-width="1"></path><path id="Vector 3370" stroke="#000000" stroke-linecap="round" stroke-linejoin="round" d="M3.5 10H5" stroke-width="1"></path><path id="Vector 3365" stroke="#000000" stroke-linecap="round" stroke-linejoin="round" d="M9 12v0c1.6569 0 3 -1.3431 3 -3V7" stroke-width="1"></path><path id="Vector 3366" stroke="#000000" stroke-linecap="round" stroke-linejoin="round" d="M10.5 5.5V4h3v1.5c0 0.82843 -0.6716 1.5 -1.5 1.5s-1.5 -0.67157 -1.5 -1.5Z" stroke-width="1"></path><path id="Vector 3367" stroke="#000000" stroke-linecap="round" stroke-linejoin="round" d="M11 4V2.5" stroke-width="1"></path><path id="Vector 3368" stroke="#000000" stroke-linecap="round" stroke-linejoin="round" d="M13 4V2.5" stroke-width="1"></path><path id="Vector 3371" stroke="#000000" stroke-linecap="round" stroke-linejoin="round" d="M1.5 8.5v4c0 0.5523 0.44772 1 1 1H8c0.55228 0 1 -0.4477 1 -1V4c0 -1.10457 -0.89543 -2 -2 -2H3" stroke-width="1"></path></g></svg>