<svg xmlns="http://www.w3.org/2000/svg" fill="none" viewBox="0 0 14 14"><g id="electrical-circuit"><path id="Vector" stroke="#000000" stroke-linecap="round" stroke-linejoin="round" d="M12 1H2c-0.55228 0 -1 0.44772 -1 1v10c0 0.5523 0.44772 1 1 1h10c0.5523 0 1 -0.4477 1 -1V2c0 -0.55228 -0.4477 -1 -1 -1Z" stroke-width="1"></path><path id="Ellipse 1761" stroke="#000000" stroke-linecap="round" stroke-linejoin="round" d="M4.5 5.5a1 1 0 1 0 2 0 1 1 0 1 0 -2 0" stroke-width="1"></path><path id="Ellipse 1762" stroke="#000000" stroke-linecap="round" stroke-linejoin="round" d="M7 10a1 1 0 1 0 2 0 1 1 0 1 0 -2 0" stroke-width="1"></path><path id="Vector 3678" stroke="#000000" stroke-linecap="round" stroke-linejoin="round" d="M4.5 13V9.5L1 6" stroke-width="1"></path><path id="Vector 3679" stroke="#000000" stroke-linecap="round" stroke-linejoin="round" d="M3.5 1v2.5l1.29289 1.29289" stroke-width="1"></path><path id="Vector 3680" stroke="#000000" stroke-linecap="round" stroke-linejoin="round" d="M10 1v4.5l-2 2V9" stroke-width="1"></path><path id="Vector 3681" stroke="#000000" stroke-linecap="round" stroke-linejoin="round" d="m10 5.5 3 3" stroke-width="1"></path></g></svg>