<svg xmlns="http://www.w3.org/2000/svg" fill="none" viewBox="0 0 14 14"><g id="electric-charging-station"><path id="Vector 3369" stroke="#000000" stroke-linecap="round" stroke-linejoin="round" d="M3 6.5V4c0 -0.27614 0.22386 -0.5 0.5 -0.5H6c0.27614 0 0.5 0.22386 0.5 0.5v2.5c0 0.27614 -0.22386 0.5 -0.5 0.5H3.5c-0.27614 0 -0.5 -0.22386 -0.5 -0.5Z" stroke-width="1"></path><path id="Vector 3370" stroke="#000000" stroke-linecap="round" stroke-linejoin="round" d="M3 9.5h1.5" stroke-width="1"></path><path id="Vector 3365" stroke="#000000" stroke-linecap="round" stroke-linejoin="round" d="M8.5 11.5v0c1.6569 0 3 -1.3431 3 -3v-2" stroke-width="1"></path><path id="Vector 3366" stroke="#000000" stroke-linecap="round" stroke-linejoin="round" d="M10 5V3.5h3V5c0 0.82843 -0.6716 1.5 -1.5 1.5S10 5.82843 10 5Z" stroke-width="1"></path><path id="Vector 3367" stroke="#000000" stroke-linecap="round" stroke-linejoin="round" d="M10.5 3.5V2" stroke-width="1"></path><path id="Vector 3368" stroke="#000000" stroke-linecap="round" stroke-linejoin="round" d="M12.5 3.5V2" stroke-width="1"></path><path id="Vector 3371" stroke="#000000" stroke-linecap="round" stroke-linejoin="round" d="M1 3.5V12c0 0.5523 0.44772 1 1 1h5.5c0.55228 0 1 -0.4477 1 -1V3.5c0 -1.10457 -0.89543 -2 -2 -2H3c-1.10457 0 -2 0.89543 -2 2Z" stroke-width="1"></path></g></svg>