<svg xmlns="http://www.w3.org/2000/svg" fill="none" viewBox="0 0 14 14"><g id="electric-charging-station-cross"><path id="Vector 3373" stroke="#000000" stroke-linecap="round" stroke-linejoin="round" d="M10 5V3.5h3V5c0 0.82843 -0.6716 1.5 -1.5 1.5S10 5.82843 10 5Z" stroke-width="1"></path><path id="Vector 3376" stroke="#000000" stroke-linecap="round" stroke-linejoin="round" d="M8.50001 8.5v-5c0 -1.10457 -0.89543 -2 -2 -2h-3.5c-0.42458 0 -0.81827 0.1323 -1.14207 0.35793" stroke-width="1"></path><path id="Vector 3369" stroke="#000000" stroke-linecap="round" stroke-linejoin="round" d="M6.5 6.5V4c0 -0.27614 -0.22386 -0.5 -0.5 -0.5H3.5" stroke-width="1"></path><path id="Vector 3370" stroke="#000000" stroke-linecap="round" stroke-linejoin="round" d="M3 9.5h1.5" stroke-width="1"></path><path id="Vector 3365" stroke="#000000" stroke-linecap="round" stroke-linejoin="round" d="M11.5 6.5v2c0 0.82843 -0.3358 1.5784 -0.8787 2.1213" stroke-width="1"></path><path id="Vector 3367" stroke="#000000" stroke-linecap="round" stroke-linejoin="round" d="M10.5 3.5V2" stroke-width="1"></path><path id="Vector 3368" stroke="#000000" stroke-linecap="round" stroke-linejoin="round" d="M12.5 3.5V2" stroke-width="1"></path><path id="Vector" stroke="#000000" stroke-linecap="round" stroke-linejoin="round" d="M0.502522 0.502441 13.4976 13.4975" stroke-width="1"></path><path id="Vector 3374" stroke="#000000" stroke-linecap="round" stroke-linejoin="round" d="M8.5 11.5v0.5c0 0.5523 -0.44772 1 -1 1H2c-0.55228 0 -1 -0.4477 -1 -1V4" stroke-width="1"></path><path id="Vector 3375" stroke="#000000" stroke-linecap="round" stroke-linejoin="round" d="M3 6v0.5c0 0.27614 0.22386 0.5 0.5 0.5H4" stroke-width="1"></path></g></svg>