<svg xmlns="http://www.w3.org/2000/svg" fill="none" viewBox="0 0 14 14"><g id="email-attachment-image--mail-send-email-attachment-file-image-png-jpg"><path id="Vector" stroke="#000000" stroke-linecap="round" stroke-linejoin="round" d="M7.125 4.875c-0.69036 0 -1.25 -0.55964 -1.25 -1.25s0.55964 -1.25 1.25 -1.25 1.25 0.55964 1.25 1.25 -0.55964 1.25 -1.25 1.25Z" stroke-width="1"></path><path id="Vector_2" stroke="#000000" stroke-linecap="round" stroke-linejoin="round" d="M11 9.5v2.75c0 0.3315 -0.1317 0.6495 -0.3661 0.8839 -0.2344 0.2344 -0.5524 0.3661 -0.8839 0.3661 -0.33152 0 -0.64946 -0.1317 -0.88388 -0.3661C8.6317 12.8995 8.5 12.5815 8.5 12.25V9c0 -0.66304 0.26339 -1.29893 0.73223 -1.76777C9.70107 6.76339 10.337 6.5 11 6.5s1.2989 0.26339 1.7678 0.73223C13.2366 7.70107 13.5 8.33696 13.5 9v3.5" stroke-width="1"></path><path id="Vector 3952" stroke="#000000" stroke-linecap="round" stroke-linejoin="round" d="m0.5 7.07343 2.60468 -2.60468 3.34743 3.34744" stroke-width="1"></path><path id="Vector_3" stroke="#000000" stroke-linecap="round" stroke-linejoin="round" d="M6.23854 10.5H1.5c-0.26522 0 -0.51957 -0.1054 -0.707107 -0.2929C0.605357 10.0196 0.5 9.76522 0.5 9.5v-8c0 -0.26522 0.105357 -0.51957 0.292893 -0.707107C0.98043 0.605357 1.23478 0.5 1.5 0.5h8c0.26522 0 0.5196 0.105357 0.7071 0.292893 0.1875 0.187537 0.2929 0.441887 0.2929 0.707107v2.75" stroke-width="1"></path></g></svg>