<svg xmlns="http://www.w3.org/2000/svg" fill="none" viewBox="0 0 14 14"><g id="empty-recycle-bin-2--remove-delete-empty-bin-trash-garbage-undo-put-back"><path id="Vector" stroke="#000000" stroke-linecap="round" stroke-linejoin="round" d="M7 13.5H3l-1.5 -10" stroke-width="1"></path><path id="Vector_2" stroke="#000000" stroke-linecap="round" stroke-linejoin="round" d="M11.5 3.5 10.975 7" stroke-width="1"></path><path id="Vector_3" stroke="#000000" stroke-linecap="round" stroke-linejoin="round" d="M0.5 3.5h12" stroke-width="1"></path><path id="Vector_4" stroke="#000000" stroke-linecap="round" stroke-linejoin="round" d="m4 3.5 0 -2c0 -0.26522 0.10536 -0.51957 0.29289 -0.707107C4.48043 0.605357 4.73478 0.5 5 0.5h3c0.26522 0 0.51957 0.105357 0.70711 0.292893C8.89464 0.98043 9 1.23478 9 1.5v2" stroke-width="1"></path><path id="Vector_5" stroke="#000000" stroke-linecap="round" stroke-linejoin="round" d="M6.5 9.5h5c0.5304 0 1.0391 0.21071 1.4142 0.5858 0.3751 0.3751 0.5858 0.8838 0.5858 1.4142 0 0.5304 -0.2107 1.0391 -0.5858 1.4142S12.0304 13.5 11.5 13.5H10" stroke-width="1"></path><path id="Vector_6" stroke="#000000" stroke-linecap="round" stroke-linejoin="round" d="m8.5 11.5 -2 -2 2 -2" stroke-width="1"></path></g></svg>