<svg xmlns="http://www.w3.org/2000/svg" fill="none" viewBox="0 0 14 14"><g id="euro-circle--exchange-payment-euro-forex-finance-foreign-currency"><path id="Vector" stroke="#000000" stroke-linecap="round" stroke-linejoin="round" d="M8.5 9.8c-0.31679 0.13228 -0.65671 0.2003 -1 0.2 -0.76229 -0.03375 -1.48003 -0.36862 -1.99563 -0.9311C4.98877 8.50643 4.71746 7.76234 4.75 7c-0.03254 -0.76234 0.23877 -1.50643 0.75437 -2.06891C6.01997 4.36862 6.73771 4.03375 7.5 4c0.27832 0.00174 0.55478 0.04557 0.82 0.13" stroke-width="1"></path><path id="Vector_2" stroke="#000000" stroke-linecap="round" stroke-linejoin="round" d="M3.5 6h3" stroke-width="1"></path><path id="Vector_3" stroke="#000000" stroke-linecap="round" stroke-linejoin="round" d="M3.5 8h3" stroke-width="1"></path><path id="Vector_4" stroke="#000000" stroke-linecap="round" stroke-linejoin="round" d="M7 13.5c3.5899 0 6.5 -2.9101 6.5 -6.5C13.5 3.41015 10.5899 0.5 7 0.5 3.41015 0.5 0.5 3.41015 0.5 7c0 3.5899 2.91015 6.5 6.5 6.5Z" stroke-width="1"></path></g></svg>