<svg xmlns="http://www.w3.org/2000/svg" fill="none" viewBox="0 0 14 14"><g id="expand-vertical-3--move-expand-vertical"><path id="Vector" stroke="#000000" stroke-linecap="round" stroke-linejoin="round" d="M2.25 5.10003 6.74 0.610025c0.0336 -0.035089 0.07396 -0.063013 0.11865 -0.08209C6.90333 0.508858 6.95141 0.499023 7 0.499023c0.04859 0 0.09667 0.009835 0.14135 0.028912 0.04469 0.019077 0.08505 0.047001 0.11865 0.08209l4.49 4.490005" stroke-width="1"></path><path id="Vector_2" stroke="#000000" stroke-linecap="round" stroke-linejoin="round" d="m2.25 8.8999 4.49 4.49c0.0336 0.0351 0.07396 0.063 0.11865 0.0821 0.04468 0.0191 0.09276 0.0289 0.14135 0.0289 0.04859 0 0.09667 -0.0098 0.14135 -0.0289 0.04469 -0.0191 0.08505 -0.047 0.11865 -0.0821l4.49 -4.49" stroke-width="1"></path></g></svg>