<svg xmlns="http://www.w3.org/2000/svg" fill="none" viewBox="0 0 14 14"><g id="expand-vertical-1--expand-resize-bigger-vertical-smaller-size-arrow-arrows-big"><path id="Vector" stroke="#000000" stroke-linecap="round" stroke-linejoin="round" d="M10.13 3.48003 7.26 0.610025c-0.03361 -0.035089 -0.07397 -0.063013 -0.11865 -0.08209C7.09666 0.508858 7.04858 0.499023 7 0.499023c-0.04859 0 -0.09667 0.009835 -0.14136 0.028912 -0.04468 0.019077 -0.08504 0.047001 -0.11864 0.08209L3.87 3.48003" stroke-width="1"></path><path id="Vector_2" stroke="#000000" stroke-linecap="round" stroke-linejoin="round" d="m10.13 10.52 -2.87 2.87c-0.03361 0.0351 -0.07397 0.063 -0.11865 0.0821 -0.04469 0.0191 -0.09277 0.0289 -0.14135 0.0289 -0.04859 0 -0.09667 -0.0098 -0.14136 -0.0289 -0.04468 -0.0191 -0.08504 -0.047 -0.11864 -0.0821l-2.87 -2.87" stroke-width="1"></path><path id="Vector_3" stroke="#000000" stroke-linecap="round" stroke-linejoin="round" d="M0.5 7h13" stroke-width="1"></path></g></svg>