<svg xmlns="http://www.w3.org/2000/svg" fill="none" viewBox="0 0 14 14"><g id="face-scan-2--identification-angle-secure-human-id-person-face-security-brackets"><path id="Ellipse 592" stroke="#000000" stroke-linecap="round" stroke-linejoin="round" d="M8.62604 8.02002s-0.41318 0.813 -1.62601 0.813c-1.21283 0 -1.62601 -0.813 -1.62601 -0.813" stroke-width="1"></path><g id="Group 11"><path id="Vector" stroke="#000000" stroke-linecap="round" stroke-linejoin="round" d="M5.25 6.25C5.11193 6.25 5 6.13807 5 6s0.11193 -0.25 0.25 -0.25" stroke-width="1"></path><path id="Vector_2" stroke="#000000" stroke-linecap="round" stroke-linejoin="round" d="M5.25 6.25c0.13807 0 0.25 -0.11193 0.25 -0.25s-0.11193 -0.25 -0.25 -0.25" stroke-width="1"></path></g><g id="Group 10"><path id="Vector_3" stroke="#000000" stroke-linecap="round" stroke-linejoin="round" d="M8.75 6.25c-0.13807 0 -0.25 -0.11193 -0.25 -0.25s0.11193 -0.25 0.25 -0.25" stroke-width="1"></path><path id="Vector_4" stroke="#000000" stroke-linecap="round" stroke-linejoin="round" d="M8.75 6.25c0.13807 0 0.25 -0.11193 0.25 -0.25s-0.11193 -0.25 -0.25 -0.25" stroke-width="1"></path></g><path id="Ellipse 593" stroke="#000000" stroke-linecap="round" stroke-linejoin="round" d="M11.25 7c0 2.34721 -1.90279 4.25 -4.25 4.25S2.75 9.34721 2.75 7 4.65279 2.75 7 2.75 11.25 4.65279 11.25 7Z" stroke-width="1"></path><path id="Vector_5" stroke="#000000" stroke-linecap="round" stroke-linejoin="round" d="M13 10v2c0 0.2652 -0.1054 0.5196 -0.2929 0.7071S12.2652 13 12 13h-2" stroke-width="1"></path><path id="Vector_6" stroke="#000000" stroke-linecap="round" stroke-linejoin="round" d="M10 1h2c0.2652 0 0.5196 0.10536 0.7071 0.29289C12.8946 1.48043 13 1.73478 13 2v2" stroke-width="1"></path><path id="Vector_7" stroke="#000000" stroke-linecap="round" stroke-linejoin="round" d="M1 4V2c0 -0.26522 0.10536 -0.51957 0.29289 -0.70711C1.48043 1.10536 1.73478 1 2 1h2" stroke-width="1"></path><path id="Vector_8" stroke="#000000" stroke-linecap="round" stroke-linejoin="round" d="M4 13H2c-0.26522 0 -0.51957 -0.1054 -0.70711 -0.2929C1.10536 12.5196 1 12.2652 1 12v-2" stroke-width="1"></path></g></svg>