<svg xmlns="http://www.w3.org/2000/svg" fill="none" viewBox="0 0 14 14"><g id="factory-eco--production-shop-shops-stores-factory-green-eco-friendly"><path id="Vector" stroke="#000000" stroke-linecap="round" stroke-linejoin="round" d="M13.5 5.5 9 8.5v-3l-4.5 3h-4v5h13v-8Z" stroke-width="1"></path><path id="Vector_2" stroke="#000000" stroke-linecap="round" stroke-linejoin="round" d="M3 11.5v2" stroke-width="1"></path><path id="Vector_3" stroke="#000000" stroke-linecap="round" stroke-linejoin="round" d="M6.5 11h4" stroke-width="1"></path><path id="Vector_4" stroke="#000000" stroke-linecap="round" stroke-linejoin="round" d="M4.73 5.18996c-0.55563 0.33815 -1.22283 0.44173 -1.85483 0.28795 -0.632 -0.15378 -1.17702 -0.55232 -1.51517 -1.10795 -0.33815 -0.55563 -0.44173 -1.22283 -0.28795 -1.85483 0.15378 -0.632 0.55232 -1.17702 1.10795 -1.515173 1.15 -0.7 5.47 -0.46 5.47 -0.46S5.89 4.48996 4.73 5.18996Z" stroke-width="1"></path><path id="Vector_5" stroke="#000000" stroke-linecap="round" stroke-linejoin="round" d="M2.5 8.5c-0.41736 -0.28195 -0.76792 -0.65187 -1.02706 -1.08377C1.21381 6.98434 1.05238 6.50094 1 6c0 -2 3 -3 3 -3" stroke-width="1"></path></g></svg>