<svg xmlns="http://www.w3.org/2000/svg" fill="none" viewBox="0 0 14 14"><g id="fan--fan-cooler-air-wind-hotel"><path id="Vector 4902" stroke="#000000" stroke-linecap="round" stroke-linejoin="round" d="M7 10.5v3" stroke-width="1"></path><path id="Vector 4903" stroke="#000000" stroke-linecap="round" stroke-linejoin="round" d="M5 13.5h4" stroke-width="1"></path><path id="Ellipse 1964" stroke="#000000" stroke-linecap="round" stroke-linejoin="round" d="M2 5.5a5 5 0 1 0 10 0 5 5 0 1 0 -10 0" stroke-width="1"></path><path id="Vector" stroke="#000000" stroke-linecap="round" stroke-linejoin="round" d="m5.52243 3.1781 0.80639 1.26719C6.52272 4.32165 6.75299 4.25 7 4.25s0.47728 0.07165 0.67118 0.19529l0.80639 -1.26719c0.17792 -0.27959 0.27243 -0.60413 0.27243 -0.93554C8.75 1.28017 7.96239 0.5 7 0.5s-1.75 0.78017 -1.75 1.74256c0 0.33141 0.09451 0.65595 0.27243 0.93554Z" stroke-width="1"></path><path id="Vector_2" stroke="#000000" stroke-linecap="round" stroke-linejoin="round" d="m4.2504 5.38132 1.50075 0.06477c-0.00076 0.01787 -0.00115 0.03584 -0.00115 0.0539 0 0.48187 0.27268 0.90007 0.67214 1.1087l-0.69417 1.33186c-0.15318 0.29388 -0.38698 0.53799 -0.67399 0.7037 -0.83345 0.48119 -1.90291 0.18919 -2.3841 -0.64426 -0.4812 -0.83346 -0.19935 -1.90563 0.6341 -2.38683 0.28701 -0.1657 0.61532 -0.24613 0.94642 -0.23184Z" stroke-width="1"></path><path id="Vector_3" stroke="#000000" stroke-linecap="round" stroke-linejoin="round" d="m8.27205 7.94055 -0.69417 -1.33186c0.39947 -0.20863 0.67214 -0.62683 0.67214 -1.1087 0 -0.01806 -0.00038 -0.03603 -0.00114 -0.0539l1.50074 -0.06477c0.33108 -0.01429 0.65938 0.06614 0.94638 0.23184 0.8335 0.4812 1.1153 1.55337 0.6341 2.38683 -0.4811 0.83345 -1.5506 1.12545 -2.38406 0.64426 -0.28701 -0.1657 -0.52081 -0.40982 -0.67399 -0.7037Z" stroke-width="1"></path><path id="Ellipse 1965" stroke="#000000" stroke-linecap="round" stroke-linejoin="round" d="M5.75 5.5a1.25 1.25 0 1 0 2.5 0 1.25 1.25 0 1 0 -2.5 0" stroke-width="1"></path></g></svg>