<svg xmlns="http://www.w3.org/2000/svg" fill="none" viewBox="0 0 14 14"><g id="file-dollar--common-money-currency-cash-file"><path id="Vector" stroke="#000000" stroke-linecap="round" stroke-linejoin="round" d="M8.5 0.5h-7C1.23478 0.5 0.98043 0.605357 0.792893 0.792893 0.605357 0.98043 0.5 1.23478 0.5 1.5v11c0 0.2652 0.105357 0.5196 0.292893 0.7071 0.187537 0.1875 0.441887 0.2929 0.707107 0.2929h11c0.2652 0 0.5196 -0.1054 0.7071 -0.2929s0.2929 -0.4419 0.2929 -0.7071v-7l-5 -5Z" stroke-width="1"></path><path id="Vector_2" stroke="#000000" stroke-linecap="round" stroke-linejoin="round" d="M8.5 5V0.5l5 5H9c-0.13261 0 -0.25979 -0.05268 -0.35355 -0.14645C8.55268 5.25979 8.5 5.13261 8.5 5Z" stroke-width="1"></path><path id="Vector_3" stroke="#000000" stroke-linecap="round" stroke-linejoin="round" d="M8.5 9.5h3" stroke-width="1"></path><path id="Vector 3" stroke="#000000" stroke-linecap="round" stroke-linejoin="round" d="M6.22969 5.22226c-0.05854 -0.16561 -0.14886 -0.3162 -0.26364 -0.44444 -0.24415 -0.27278 -0.59894 -0.44445 -0.99383 -0.44445H3.94018c-0.65732 0 -1.19018 0.53286 -1.19018 1.19018 0 0.55931 0.38945 1.04316 0.93584 1.16268l1.57131 0.34373c0.61211 0.1339 1.04841 0.67634 1.04841 1.30293 0 0.73638 -0.59696 1.33382 -1.33334 1.33382h-0.88889c-0.58054 0 -1.07442 -0.37103 -1.25746 -0.88889" stroke-width="1"></path><path id="Vector 2489" stroke="#000000" stroke-linecap="round" stroke-linejoin="round" d="M4.52777 4.33333V3" stroke-width="1"></path><path id="Vector 2490" stroke="#000000" stroke-linecap="round" stroke-linejoin="round" d="M4.52777 11V9.66663" stroke-width="1"></path></g></svg>