<svg xmlns="http://www.w3.org/2000/svg" fill="none" viewBox="0 0 14 14"><g id="file-search"><path id="Vector" stroke="#000000" stroke-linecap="round" stroke-linejoin="round" d="M11.5 4.5V4L8 0.5H1.5C1.23478 0.5 0.98043 0.605357 0.792893 0.792893 0.605357 0.98043 0.5 1.23478 0.5 1.5v11c0 0.2652 0.105357 0.5196 0.292893 0.7071 0.187537 0.1875 0.441887 0.2929 0.707107 0.2929h5" stroke-width="1"></path><path id="vector" stroke="#000000" stroke-linecap="round" stroke-linejoin="round" d="M9.5 12.5c1.6569 0 3 -1.3431 3 -3 0 -1.65685 -1.3431 -3 -3 -3 -1.65685 0 -3 1.34315 -3 3 0 1.6569 1.34315 3 3 3Z" stroke-width="1"></path><path id="vector_2" stroke="#000000" stroke-linecap="round" stroke-linejoin="round" d="m13.5 13.5 -1.8787 -1.8787" stroke-width="1"></path></g></svg>