<svg xmlns="http://www.w3.org/2000/svg" fill="none" viewBox="0 0 14 14"><g id="fill-and-sign--essential-files-folder-fill-and-sign"><path id="Vector" stroke="#000000" stroke-linecap="round" stroke-linejoin="round" d="M10.5 3.5 4 10l-3 0.5 0.5 -3L8 1l2.5 2.5Z" stroke-width="1"></path><path id="Vector 1296" stroke="#000000" stroke-linecap="round" stroke-linejoin="round" d="M1 13h6.67157c0.53044 0 1.03914 -0.2107 1.41422 -0.5858L9.5 12l0.41421 0.4142c0.37509 0.3751 0.88379 0.5858 1.41419 0.5858H13" stroke-width="1"></path><path id="Rectangle 614" stroke="#000000" stroke-linecap="round" stroke-linejoin="round" d="M8 9.91421C8 9.13316 8.63317 8.5 9.41421 8.5h0.17158C10.3668 8.5 11 9.13316 11 9.91421v0c0 0.37509 -0.149 0.73479 -0.4142 0.99999L9.5 12l-1.08579 -1.0858C8.149 10.649 8 10.2893 8 9.91421v0Z" stroke-width="1"></path></g></svg>