<svg xmlns="http://www.w3.org/2000/svg" fill="none" viewBox="0 0 14 14"><g id="fingerprint-delete-cross--fingerprint-delete-cross-deny-indentification-password-touch-id-secure"><path id="Vector" stroke="#000000" stroke-linecap="round" stroke-linejoin="round" d="M13.5 9.25 9.25 13.5" stroke-width="1"></path><path id="Vector_2" stroke="#000000" stroke-linecap="round" stroke-linejoin="round" d="m9.25 9.255 4.25 4.24" stroke-width="1"></path><path id="Vector 3728" stroke="#000000" stroke-linecap="round" stroke-linejoin="round" d="M11.5 8V6c0 -1.32963 -0.4718 -2.54906 -1.2572 -3.5" stroke-width="1"></path><path id="Vector 3868" stroke="#000000" stroke-linecap="round" stroke-linejoin="round" d="M6 13.5c0.3415 0 0.67572 -0.0311 1 -0.0907" stroke-width="1"></path><path id="Vector 3733" stroke="#000000" stroke-linecap="round" stroke-linejoin="round" d="M0.5 6.5V8c0 2.2186 1.31363 4.1304 3.20551 5" stroke-width="1"></path><path id="Vector 3732" stroke="#000000" stroke-linecap="round" stroke-linejoin="round" d="M8.29447 1C7.59611 0.678996 6.81895 0.5 5.99999 0.5 3.54696 0.5 1.469 2.1059 0.760101 4.32374" stroke-width="1"></path><path id="Vector 3729" stroke="#000000" stroke-linecap="round" stroke-linejoin="round" d="M3.17071 5C3.06015 5.31278 3 5.64936 3 6v2c0 1.65685 1.34315 3 3 3 0.54643 0 1.05874 -0.1461 1.5 -0.4013" stroke-width="1"></path><path id="Vector 3731" stroke="#000000" stroke-linecap="round" stroke-linejoin="round" d="M5.38718 3.06264C5.58501 3.02158 5.78999 3 6.00001 3c1.65685 0 3 1.34315 3 3v1" stroke-width="1"></path><path id="Vector 3730" stroke="#000000" stroke-linecap="round" stroke-linejoin="round" d="M6 6v2" stroke-width="1"></path></g></svg>