<svg xmlns="http://www.w3.org/2000/svg" fill="none" viewBox="0 0 14 14"><g id="fire-alarm-1--fire-signal-ring-bell"><path id="Vector" stroke="#000000" stroke-linecap="round" stroke-linejoin="round" d="M5 9c2.20914 0 4 -1.79086 4 -4S7.20914 1 5 1 1 2.79086 1 5s1.79086 4 4 4Z" stroke-width="1"></path><path id="Vector_2" stroke="#000000" stroke-linecap="round" stroke-linejoin="round" d="M5 6c0.55228 0 1 -0.44772 1 -1s-0.44772 -1 -1 -1 -1 0.44772 -1 1 0.44772 1 1 1Z" stroke-width="1"></path><path id="Vector_3" stroke="#000000" stroke-linecap="round" stroke-linejoin="round" d="M9 11h1.5c0.5304 0 1.0391 -0.2107 1.4142 -0.5858S12.5 9.53043 12.5 9V4h-1" stroke-width="1"></path><path id="Vector_4" stroke="#000000" stroke-linecap="round" stroke-linejoin="round" d="M8 9H2c-0.55228 0 -1 0.44772 -1 1v2c0 0.5523 0.44772 1 1 1h6c0.55228 0 1 -0.4477 1 -1v-2c0 -0.55228 -0.44772 -1 -1 -1Z" stroke-width="1"></path></g></svg>