<svg xmlns="http://www.w3.org/2000/svg" fill="none" viewBox="0 0 14 14"><g id="fire-protection-area"><path id="Vector 3701" stroke="#000000" stroke-linecap="round" stroke-linejoin="round" d="M12 1H2c-0.55228 0 -1 0.44772 -1 1v2.87355c0 3.65866 2.34116 6.90685 5.81206 8.06385L7 13l0.18794 -0.0626C10.6588 11.7804 13 8.53221 13 4.87355V2c0 -0.55228 -0.4477 -1 -1 -1Z" stroke-width="1"></path><path id="Vector" stroke="#000000" stroke-linecap="round" stroke-linejoin="round" d="M6.38739 2.75c0.0399 0 0.07902 0.01101 0.11305 0.03183 1.90194 0.83659 3.30249 2.75767 3.30249 4.79904C9.80721 9.3079 8.48911 10.25 6.98092 10.25c-1.52503 0 -2.82632 -1.36318 -2.8243 -2.66913 0 -0.70746 0.47088 -1.53049 1.12851 -1.91621 0.19215 0.44496 0.48194 0.84099 0.84789 1.15878 0.95152 -0.92326 0.84789 -2.6473 0.14132 -3.84377 -0.02216 -0.02821 -0.0342 -0.06305 -0.0342 -0.09892s0.01204 -0.07071 0.0342 -0.09892c0.03403 -0.02082 0.07315 -0.03183 0.11305 -0.03183Z" stroke-width="1"></path></g></svg>