<svg xmlns="http://www.w3.org/2000/svg" fill="none" viewBox="0 0 14 14"><g id="firefox"><path id="Vector 576" stroke="#000000" stroke-linecap="round" stroke-linejoin="round" d="M6.61963 4.24037C6.82007 2.5312 7.42359 0.5 8.85806 0.5c0 1.1465 2.51644 2.48173 3.40684 3.53967" stroke-width="1"></path><path id="Ellipse 31" stroke="#000000" stroke-linecap="round" stroke-linejoin="round" d="M6.9999 13.5c3.5901 0 6.5004 -2.9103 6.5004 -6.50041 0 -1.38109 -0.4307 -2.6616 -1.1651 -3.7145 -0.2278 3.25019 -1.1565 3.7145 -2.54942 3.7145 0 1.39294 -0.92862 3.25021 -2.78588 3.25021 -1.85725 0 -2.78588 -1.85727 -2.78588 -2.7859 0 -0.92862 1.39294 -1.39294 2.32157 -1.39294 0 -1.85725 -3.2502 -2.32157 -3.89669 -3.89188C1.32495 3.36851 0.499512 5.08766 0.499512 6.99959 0.499512 10.5897 3.40984 13.5 6.9999 13.5Z" stroke-width="1"></path><path id="Ellipse 32" stroke="#000000" stroke-linecap="round" stroke-linejoin="round" d="M9.78463 6.99932c0 -1.5386 -1.24728 -2.78588 -2.78588 -2.78588 -0.49233 0 -0.95482 0.12771 -1.35617 0.3518" stroke-width="1"></path></g></svg>