<svg xmlns="http://www.w3.org/2000/svg" fill="none" viewBox="0 0 14 14"><g id="fire-evacuation"><path id="Vector" stroke="#000000" stroke-linecap="round" stroke-linejoin="round" d="M5.5 1.03613c-2.32143 -1.85714 -2.67857 1.8571 -5 -0.00004" stroke-width="1"></path><path id="Vector_2" stroke="#000000" stroke-linecap="round" stroke-linejoin="round" d="M5.5 3.53613c-2.32143 -1.85714 -2.67857 1.8571 -5 -0.00004" stroke-width="1"></path><path id="Vector_3" stroke="#000000" stroke-linecap="round" stroke-linejoin="round" d="M0.5 6.03607c1.1607 0.92856 1.83034 0.46431 2.49997 0.00004" stroke-width="1"></path><path id="Ellipse 1993" stroke="#000000" stroke-linecap="round" stroke-linejoin="round" d="M10.5 5.5a1.5 1.5 0 1 0 3 0 1.5 1.5 0 1 0 -3 0" stroke-width="1"></path><path id="Vector 5000" stroke="#000000" stroke-linecap="round" stroke-linejoin="round" d="M4.5 10h2.58579c0.26521 0 0.51957 -0.10536 0.7071 -0.29289L10 7.5" stroke-width="1"></path><path id="Vector 5001" stroke="#000000" stroke-linecap="round" stroke-linejoin="round" d="M6.5 6h1.58579c0.26521 0 0.51957 0.10536 0.7071 0.29289l2.41421 2.41422c0.1875 0.18753 0.4419 0.29289 0.7071 0.29289H13.5" stroke-width="1"></path><path id="Vector 5002" stroke="#000000" stroke-linecap="round" stroke-linejoin="round" d="m8.25 9.25 1.45711 1.4571c0.18753 0.1875 0.29289 0.4419 0.29289 0.7071V13.5" stroke-width="1"></path></g></svg>