<svg xmlns="http://www.w3.org/2000/svg" fill="none" viewBox="0 0 14 14"><g id="fire-wall--code-firewall-programming-secure-security"><path id="Vector 3696" stroke="#000000" stroke-linecap="round" stroke-linejoin="round" d="M12.5 8h-11c-0.27614 0 -0.5 0.22386 -0.5 0.5v4c0 0.2761 0.22386 0.5 0.5 0.5h11c0.2761 0 0.5 -0.2239 0.5 -0.5v-4c0 -0.27614 -0.2239 -0.5 -0.5 -0.5Z" stroke-width="1"></path><path id="Vector 3697" stroke="#000000" stroke-linecap="round" stroke-linejoin="round" d="M1 10.5h12" stroke-width="1"></path><path id="Vector 3698" stroke="#000000" stroke-linecap="round" stroke-linejoin="round" d="M8.5 8v2.5" stroke-width="1"></path><path id="Vector 3699" stroke="#000000" stroke-linecap="round" stroke-linejoin="round" d="M5.5 10.5V13" stroke-width="1"></path><path id="Vector" stroke="#000000" stroke-linecap="round" stroke-linejoin="round" d="M6.38739 0.5c0.0399 0 0.07902 0.011015 0.11305 0.03183 1.90194 0.83659 3.30249 2.75767 3.30249 4.79904C9.80721 7.0579 8.48911 8 6.98092 8 5.45589 8 4.1546 6.63682 4.15662 5.33087c0 -0.70746 0.47088 -1.53049 1.12851 -1.91621 0.19215 0.44496 0.48194 0.84099 0.84789 1.15878 0.95152 -0.92326 0.84789 -2.6473 0.14132 -3.843769 -0.02216 -0.028213 -0.0342 -0.063048 -0.0342 -0.098921 0 -0.035873 0.01204 -0.070708 0.0342 -0.09892C6.30837 0.511015 6.34749 0.5 6.38739 0.5Z" stroke-width="1"></path></g></svg>