<svg xmlns="http://www.w3.org/2000/svg" fill="none" viewBox="0 0 14 14"><g id="flip-horizontal-circle-2--flip-right-object-work"><path id="Vector" stroke="#000000" stroke-linecap="round" stroke-linejoin="round" d="M7 13.5V0.5c1.72391 0 3.3772 0.68482 4.5962 1.90381C12.8152 3.62279 13.5 5.27609 13.5 7s-0.6848 3.3772 -1.9038 4.5962C10.3772 12.8152 8.72391 13.5 7 13.5v0Z" stroke-width="1"></path><path id="Vector_2" stroke="#000000" stroke-linecap="round" stroke-linejoin="round" d="M4.39 1.05005c-0.46292 0.19894 -0.89955 0.4542 -1.3 0.76 -0.40338 0.30211 -0.76929 0.65124 -1.09 1.04" stroke-width="1"></path><path id="Vector_3" stroke="#000000" stroke-linecap="round" stroke-linejoin="round" d="M4.39 13c-0.46292 -0.199 -0.89955 -0.4542 -1.3 -0.76 -0.40111 -0.2897 -0.76693 -0.6253 -1.09 -1" stroke-width="1"></path><path id="Vector_4" stroke="#000000" stroke-linecap="round" stroke-linejoin="round" d="M0.670069 5.5c-0.226759 0.98715 -0.226759 2.01285 0 3" stroke-width="1"></path></g></svg>