<svg xmlns="http://www.w3.org/2000/svg" fill="none" viewBox="0 0 14 14"><g id="folder-block--block-folder-subtract"><path id="Vector" stroke="#000000" stroke-linecap="round" stroke-linejoin="round" d="M7 10.5c-1.38071 0 -2.5 -1.11929 -2.5 -2.5S5.61929 5.5 7 5.5 9.5 6.61929 9.5 8 8.38071 10.5 7 10.5Z" stroke-width="1"></path><path id="Vector_2" stroke="#000000" stroke-linecap="round" stroke-linejoin="round" d="M8.76777 9.76776 5.23224 6.23222" stroke-width="1"></path><path id="Vector 3867" stroke="#000000" stroke-linecap="round" stroke-linejoin="round" d="M1 12V2c0 -0.55228 0.44772 -1 1 -1h2.71922c0.45887 0 0.85885 0.3123 0.97015 0.75746L6 3h6c0.5523 0 1 0.44772 1 1v8c0 0.5523 -0.4477 1 -1 1H2c-0.55228 0 -1 -0.4477 -1 -1Z" stroke-width="1"></path></g></svg>