<svg xmlns="http://www.w3.org/2000/svg" fill="none" viewBox="0 0 14 14"><g id="folder-lock"><path id="Vector 3864" stroke="#000000" stroke-linecap="round" stroke-linejoin="round" d="M9.25 10V8.75C9.25 7.7835 10.0335 7 11 7v0c0.9665 0 1.75 0.7835 1.75 1.75V10" stroke-width="1"></path><path id="Vector 3865" stroke="#000000" stroke-linecap="round" stroke-linejoin="round" d="M8.5 13v-2.5c0 -0.2761 0.22386 -0.5 0.5 -0.5h4c0.2761 0 0.5 0.2239 0.5 0.5V13c0 0.2761 -0.2239 0.5 -0.5 0.5H9c-0.27614 0 -0.5 -0.2239 -0.5 -0.5Z" stroke-width="1"></path><path id="Vector 3868" stroke="#000000" stroke-linecap="round" stroke-linejoin="round" d="M6.25 11.5H1.5c-0.552285 0 -1 -0.4477 -1 -1v-9c0 -0.552285 0.447715 -1 1 -1h3.21922c0.45887 0 0.85885 0.312297 0.97015 0.75746L6 2.5h6.5c0.5523 0 1 0.44772 1 1v2" stroke-width="1"></path></g></svg>