<svg xmlns="http://www.w3.org/2000/svg" fill="none" viewBox="0 0 14 14"><g id="footprint"><path id="Vector 3668" stroke="#000000" stroke-linecap="round" stroke-linejoin="round" d="M1.99878 9.75V9.1c0 -0.33137 0.26863 -0.6 0.6 -0.6h2.3c0.33137 0 0.6 0.26863 0.6 0.6v0.65c0 0.9665 -0.7835 1.75 -1.75 1.75s-1.75 -0.7835 -1.75 -1.75Z" stroke-width="1"></path><path id="Vector 3669" stroke="#000000" stroke-linecap="round" stroke-linejoin="round" d="M4.88143 6.5h-2.2639c-0.37913 0 -0.72495 -0.21572 -0.83584 -0.57827C1.64722 5.48213 1.50003 4.81484 1.5 4 1.49994 2.5 2.33611 0.5 3.75006 0.5 5.16401 0.5 6 2.5 6 4c0 0.81587 -0.14827 1.48381 -0.28352 1.92339 -0.11129 0.36169 -0.45662 0.57661 -0.83505 0.57661Z" stroke-width="1"></path><path id="Vector 3672" stroke="#000000" stroke-linecap="round" stroke-linejoin="round" d="M11.3814 8.5H9.11753c-0.37913 0 -0.72495 -0.21572 -0.83584 -0.57827C8.14722 7.48213 8.00003 6.81484 8 6c-0.00006 -1.5 0.83611 -3.5 2.2501 -3.5C11.664 2.5 12.5 4.5 12.5 6c0 0.81587 -0.1483 1.48381 -0.2835 1.92339 -0.1113 0.36169 -0.4566 0.57661 -0.8351 0.57661Z" stroke-width="1"></path><path id="Vector 3670" stroke="#000000" stroke-linecap="round" stroke-linejoin="round" d="M8.5 11.75v-0.65c0 -0.3314 0.26863 -0.6 0.6 -0.6h2.3c0.3314 0 0.6 0.2686 0.6 0.6v0.65c0 0.9665 -0.7835 1.75 -1.75 1.75s-1.75 -0.7835 -1.75 -1.75Z" stroke-width="1"></path></g></svg>