<svg xmlns="http://www.w3.org/2000/svg" fill="none" viewBox="0 0 14 14"><g id="fragile--fragile-shipping-glass-delivery-wine-crack-shipment-sign-sticker"><path id="Vector" stroke="#000000" stroke-linecap="round" stroke-linejoin="round" d="M3.67 0.500003c-0.24721 -0.0015 -0.48622 0.088627 -0.67089 0.252985C2.81443 0.917346 2.69719 1.14428 2.67 1.39 2.56 2.45 2.5 4.05 2.5 4.5c0 2.62 2 4 4.5 4s4.5 -1.38 4.5 -4c0 -0.45 -0.06 -2 -0.17 -3.11 -0.0272 -0.24572 -0.1444 -0.472654 -0.3291 -0.637012S10.5772 0.498503 10.33 0.500003H3.67Z" stroke-width="1"></path><path id="Vector_2" stroke="#000000" stroke-linecap="round" stroke-linejoin="round" d="M7 8.5v5" stroke-width="1"></path><path id="Vector_3" stroke="#000000" stroke-linecap="round" stroke-linejoin="round" d="M5 13.5h4" stroke-width="1"></path><path id="Vector_4" stroke="#000000" stroke-linecap="round" stroke-linejoin="round" d="m7 0.5 -1.5 2 2 1.5 -1 1.5" stroke-width="1"></path></g></svg>