<svg xmlns="http://www.w3.org/2000/svg" fill="none" viewBox="0 0 14 14"><g id="french-fries--french-fries-fast-food-potato"><path id="Vector" stroke="#000000" stroke-linecap="round" stroke-linejoin="round" d="M4.75 3H2.5v3.5h2.25V3Z" stroke-width="1"></path><path id="Vector_2" stroke="#000000" stroke-linecap="round" stroke-linejoin="round" d="M7 0.5H4.75v6H5c0 1.10457 0.89543 2 2 2v-8Z" stroke-width="1"></path><path id="Vector_3" stroke="#000000" stroke-linecap="round" stroke-linejoin="round" d="M9.25 2H7v6.5c1.10457 0 2 -0.89543 2 -2h0.25V2Z" stroke-width="1"></path><path id="Vector_4" stroke="#000000" stroke-linecap="round" stroke-linejoin="round" d="M11.5 3H9.25v3.5h2.25V3Z" stroke-width="1"></path><path id="Rectangle 1931" stroke="#000000" stroke-linecap="round" stroke-linejoin="round" d="M3.35792 13.5h7.28418c0.4936 0 0.9133 -0.3601 0.9884 -0.8479l0.8641 -5.61699c0.0036 -0.02337 0.0054 -0.04698 0.0054 -0.07063 0 -0.25653 -0.208 -0.46448 -0.4645 -0.46448H9c0 1.10457 -0.89543 2 -2 2s-2 -0.89543 -2 -2H1.96448c-0.25653 0 -0.46448 0.20795 -0.46448 0.46448 0 0.02365 0.00181 0.04726 0.0054 0.07063l0.86415 5.61699c0.07505 0.4878 0.4948 0.8479 0.98837 0.8479Z" stroke-width="1"></path></g></svg>