<svg xmlns="http://www.w3.org/2000/svg" fill="none" viewBox="0 0 14 14"><g id="gambling--gambling-casino-card-poker-dice-bet"><path id="Rectangle 573" stroke="#000000" stroke-linecap="round" stroke-linejoin="round" d="M8.92472 5 7.8057 0.849731C7.73828 0.598096 7.47963 0.448764 7.22799 0.51619L0.849242 2.22537c-0.251635 0.06743 -0.400966 0.32608 -0.33354 0.57771L2.95739 11.9156c0.06742 0.2516 0.32607 0.4009 0.57771 0.3335l1.46502 -0.4208" stroke-width="1"></path><path id="Rectangle 574" stroke="#000000" stroke-linecap="round" stroke-linejoin="round" d="m9.66187 1.07819 2.29613 0.41369c0.2564 0.04619 0.4268 0.29147 0.3806 0.54786L11.81 4.9999" stroke-width="1"></path><path id="Rectangle 569" stroke="#000000" stroke-linecap="round" stroke-linejoin="round" d="M7.07129 8.07129c0 -0.55229 0.44771 -1 1 -1h4.42861c0.5523 0 1 0.44771 1 1v4.42861c0 0.5523 -0.4477 1 -1 1H8.07129c-0.55229 0 -1 -0.4477 -1 -1V8.07129Z" stroke-width="1"></path><g id="Group 99"><path id="Ellipse 81" stroke="#000000" stroke-linecap="round" stroke-linejoin="round" d="M9.15356 11.5661c-0.13807 0 -0.25 -0.1119 -0.25 -0.25s0.11193 -0.25 0.25 -0.25" stroke-width="1"></path><path id="Ellipse 82" stroke="#000000" stroke-linecap="round" stroke-linejoin="round" d="M9.15308 11.5659c0.13807 0 0.25 -0.1119 0.25 -0.25s-0.11193 -0.25 -0.25 -0.25" stroke-width="1"></path></g><g id="Group 2271"><path id="Ellipse 81_2" stroke="#000000" stroke-linecap="round" stroke-linejoin="round" d="M11.4185 9.50555c-0.1381 0 -0.25 -0.11192 -0.25 -0.25 0 -0.13807 0.1119 -0.25 0.25 -0.25" stroke-width="1"></path><path id="Ellipse 82_2" stroke="#000000" stroke-linecap="round" stroke-linejoin="round" d="M11.418 9.50537c0.138 0 0.25 -0.11193 0.25 -0.25s-0.112 -0.25 -0.25 -0.25" stroke-width="1"></path></g><path id="Vector 3272" stroke="#000000" stroke-linecap="round" stroke-linejoin="round" d="M6.62346 5.58178 4.9191 4.08394 4.05256 6.6455l1.32236 1.16213" stroke-width="1"></path></g></svg>