<svg xmlns="http://www.w3.org/2000/svg" fill="none" viewBox="0 0 14 14"><g id="gaming-award-prize"><path id="Vector 421" stroke="#000000" stroke-linecap="round" stroke-linejoin="round" d="M10.3135 12.6795c-2.16308 -1.8025 -4.61378 -1.3037 -6.43398 -2.4058" stroke-width="1"></path><path id="Vector 425" stroke="#000000" stroke-linecap="round" stroke-linejoin="round" d="m0.5 8.16151 1.80716 0.45179 0.90359 -0.90358" stroke-width="1"></path><path id="Vector 431" stroke="#000000" stroke-linecap="round" stroke-linejoin="round" d="m1.6305 10.6164 2.32384 -0.3399 0.62022 -1.48697" stroke-width="1"></path><path id="Vector 424" stroke="#000000" stroke-linecap="round" stroke-linejoin="round" d="M0.626831 5.45996 1.84192 6.54489l1.46881 -0.70434" stroke-width="1"></path><path id="Vector 423" stroke="#000000" stroke-linecap="round" stroke-linejoin="round" d="m1.59412 3.01074 0.74114 1.04097 1.41155 -0.22066" stroke-width="1"></path><path id="Vector 422" stroke="#000000" stroke-linecap="round" stroke-linejoin="round" d="m3.68652 1.7714 0.27049 -0.45084" stroke-width="1"></path><path id="Vector 432" stroke="#000000" stroke-linecap="round" stroke-linejoin="round" d="M3.68654 12.6795c2.16304 -1.8025 4.61374 -1.3037 6.43396 -2.4058" stroke-width="1"></path><path id="Vector 433" stroke="#000000" stroke-linecap="round" stroke-linejoin="round" d="m13.5 8.16151 -1.8072 0.45179 -0.9035 -0.90358" stroke-width="1"></path><path id="Vector 434" stroke="#000000" stroke-linecap="round" stroke-linejoin="round" d="m12.3695 10.6164 -2.3238 -0.3399 -0.62026 -1.48697" stroke-width="1"></path><path id="Vector 435" stroke="#000000" stroke-linecap="round" stroke-linejoin="round" d="m13.3732 5.45996 -1.2151 1.08493 -1.4688 -0.70434" stroke-width="1"></path><path id="Vector 436" stroke="#000000" stroke-linecap="round" stroke-linejoin="round" d="m12.4059 3.01074 -0.7412 1.04097 -1.4115 -0.22066" stroke-width="1"></path><path id="Vector 437" stroke="#000000" stroke-linecap="round" stroke-linejoin="round" d="m10.3135 1.7714 -0.2705 -0.45084" stroke-width="1"></path></g></svg>