<svg xmlns="http://www.w3.org/2000/svg" fill="none" viewBox="0 0 14 14"><g id="gaming-mouse--entertainment-gaming-mouse"><path id="Vector 764" stroke="#000000" stroke-linecap="round" stroke-linejoin="round" d="M4.38204 12.9561c1.66934 0.7252 3.56661 0.7252 5.23594 0 1.30842 -0.5685 1.77092 -2.2321 1.52362 -3.70734 -0.0866 -0.51697 -0.1448 -1.08847 -0.1448 -1.69082 0 -2.35264 0.4441 -5.17582 0.4441 -5.17582L8.33227 0.5v5.16785c0 0.7796 -0.59647 1.41159 -1.33226 1.41159 -0.73578 0 -1.33226 -0.63199 -1.33226 -1.41159V0.5L2.55914 2.38212s0.44409 2.82318 0.44409 5.17582c0 0.60235 -0.05822 1.17385 -0.14485 1.69082 -0.24721 1.47524 0.21524 3.13884 1.52366 3.70734Z" stroke-width="1"></path><path id="Vector 766" stroke="#000000" stroke-linecap="round" stroke-linejoin="round" d="m5.66858 1.48828 2.65888 0" stroke-width="1"></path></g></svg>