<svg xmlns="http://www.w3.org/2000/svg" fill="none" viewBox="0 0 14 14"><g id="garbage-throw"><path id="Vector" stroke="#000000" stroke-linecap="round" stroke-linejoin="round" d="M4 4c0.9665 0 1.75 -0.7835 1.75 -1.75S4.9665 0.5 4 0.5s-1.75 0.7835 -1.75 1.75S3.0335 4 4 4Z" stroke-width="1"></path><path id="Vector 3811" stroke="#000000" stroke-linecap="round" stroke-linejoin="round" d="M0.5 9.25H2l0.5 4.25h3L6 6.25h2.875C9.49632 6.25 10 5.74632 10 5.125S9.49632 4 8.875 4H4C2.067 4 0.5 5.567 0.5 7.5v1.75Z" stroke-width="1"></path><path id="Vector 4962" stroke="#000000" stroke-linecap="round" stroke-linejoin="round" d="m9.5 10 0.75 3.5h2.5l0.75 -3.5" stroke-width="1"></path><g id="Group 2680"><path id="Ellipse 1979" stroke="#000000" stroke-linecap="round" stroke-linejoin="round" d="M11 8.75c-0.069 0 -0.125 -0.05596 -0.125 -0.125 0 -0.06904 0.056 -0.125 0.125 -0.125" stroke-width="1"></path><path id="Ellipse 1980" stroke="#000000" stroke-linecap="round" stroke-linejoin="round" d="M11 8.75c0.069 0 0.125 -0.05596 0.125 -0.125 0 -0.06904 -0.056 -0.125 -0.125 -0.125" stroke-width="1"></path></g><g id="Group 2682"><path id="Ellipse 1979_2" stroke="#000000" stroke-linecap="round" stroke-linejoin="round" d="M12.5 7.25c-0.069 0 -0.125 -0.05596 -0.125 -0.125 0 -0.06904 0.056 -0.125 0.125 -0.125" stroke-width="1"></path><path id="Ellipse 1980_2" stroke="#000000" stroke-linecap="round" stroke-linejoin="round" d="M12.5 7.25c0.069 0 0.125 -0.05596 0.125 -0.125 0 -0.06904 -0.056 -0.125 -0.125 -0.125" stroke-width="1"></path></g></g></svg>