<svg xmlns="http://www.w3.org/2000/svg" fill="none" viewBox="0 0 14 14"><g id="global-warming-2--nature-environment-earth-planet-hot-thermometer-warm"><path id="Union" stroke="#000000" stroke-linecap="round" stroke-linejoin="round" d="M2.5 4.5c-0.55228 0 -1 0.44772 -1 1v4.26756C0.902199 10.1134 0.5 10.7597 0.5 11.5c0 1.1046 0.89543 2 2 2s2 -0.8954 2 -2c0 -0.7403 -0.4022 -1.3866 -1 -1.73244V5.5c0 -0.55228 -0.44772 -1 -1 -1Z" stroke-width="1"></path><path id="Vector" stroke="#000000" stroke-linecap="round" stroke-linejoin="round" d="M13.0769 8.11536h-1.4807c-0.3928 0 -0.7694 -0.15601 -1.0471 -0.43371 -0.2777 -0.2777 -0.4337 -0.65434 -0.4337 -1.04706V5.36536c0 -0.39273 -0.15602 -0.76937 -0.43372 -1.04706 -0.2777 -0.2777 -0.65434 -0.43371 -1.04706 -0.43371 -0.39273 0 -0.76937 -0.15601 -1.04707 -0.43371 -0.27769 -0.2777 -0.4337 -0.65434 -0.4337 -1.04706V0.559204" stroke-width="1"></path><path id="Vector_2" stroke="#000000" stroke-linecap="round" stroke-linejoin="round" d="M3.73276 2.52976C4.74125 1.29115 6.27823 0.5 8 0.5c3.0376 0 5.5 2.46243 5.5 5.5s-2.4624 5.5 -5.5 5.5c-0.42306 0 -0.83497 -0.0478 -1.23062 -0.1382" stroke-width="1"></path></g></svg>