<svg xmlns="http://www.w3.org/2000/svg" fill="none" viewBox="0 0 14 14"><g id="gmail"><path id="Rectangle 18" stroke="#000000" stroke-linecap="round" stroke-linejoin="round" d="M1.42856 12.1071h2.78568V2.73614l-0.85287 -0.54629C2.12544 1.3982 0.5 2.2824 0.5 3.74637v7.43553c0 0.511 0.415731 0.9252 0.92856 0.9252Z" stroke-width="1"></path><path id="Rectangle 20" stroke="#000000" stroke-linecap="round" stroke-linejoin="round" d="M0.5 3.74637v1.23669l3.71424 2.37909 2.78568 1.78432L9.7856 7.36215l3.7142 -2.37909V3.74637c0 -1.46397 -1.6254 -2.34817 -2.8613 -1.55652l-0.8529 0.54629 -2.78568 1.78432 -2.78568 -1.78432 -0.85287 -0.54629C2.12544 1.3982 0.5 2.2824 0.5 3.74637Z" stroke-width="1"></path><path id="Rectangle 19" stroke="#000000" stroke-linecap="round" stroke-linejoin="round" d="M9.78516 12.1071h2.78564c0.5129 0 0.9286 -0.4142 0.9286 -0.9252V3.74637c0 -1.46397 -1.6254 -2.34817 -2.8614 -1.55652l-0.85284 0.54629v9.37096Z" stroke-width="1"></path></g></svg>