<svg xmlns="http://www.w3.org/2000/svg" fill="none" viewBox="0 0 14 14"><g id="gradient-color"><path id="Vector 4634" stroke="#000000" stroke-linecap="round" stroke-linejoin="round" d="M4 1H2c-0.55228 0 -1 0.44772 -1 1v10c0 0.5523 0.44772 1 1 1h2c0.55228 0 1 -0.4477 1 -1V2c0 -0.55228 -0.44772 -1 -1 -1Z" stroke-width="1"></path><path id="Vector 4635" stroke="#000000" stroke-linecap="round" stroke-linejoin="round" d="M9.5 1h-1c-0.55228 0 -1 0.44772 -1 1v10c0 0.5523 0.44772 1 1 1h1c0.5523 0 1 -0.4477 1 -1V2c0 -0.55228 -0.4477 -1 -1 -1Z" stroke-width="1"></path><path id="Vector 4636" stroke="#000000" stroke-linecap="round" stroke-linejoin="round" d="M13 1v12" stroke-width="1"></path></g></svg>