<svg xmlns="http://www.w3.org/2000/svg" fill="none" viewBox="0 0 14 14"><g id="grape--friut-grape"><path id="Vector 3083" stroke="#000000" stroke-linecap="round" stroke-linejoin="round" d="M4.5 0.5v0C5.88071 0.5 7 1.61929 7 3v0.5" stroke-width="1"></path><path id="Vector 3084" stroke="#000000" stroke-linecap="round" stroke-linejoin="round" d="M7 3.5V3C7 1.61929 8.11929 0.5 9.5 0.5v0" stroke-width="1"></path><path id="Ellipse 1849" stroke="#000000" stroke-linecap="round" stroke-linejoin="round" d="M5.25 11.75a1.75 1.75 0 1 0 3.5 0 1.75 1.75 0 1 0 -3.5 0" stroke-width="1"></path><path id="Ellipse 1850" stroke="#000000" stroke-linecap="round" stroke-linejoin="round" d="M5.25 5.25a1.75 1.75 0 1 0 3.5 0 1.75 1.75 0 1 0 -3.5 0" stroke-width="1"></path><path id="Ellipse 1851" stroke="#000000" stroke-linecap="round" stroke-linejoin="round" d="M9 5.25a1.75 1.75 0 1 0 3.5 0 1.75 1.75 0 1 0 -3.5 0" stroke-width="1"></path><path id="Ellipse 1852" stroke="#000000" stroke-linecap="round" stroke-linejoin="round" d="M1.5 5.25a1.75 1.75 0 1 0 3.5 0 1.75 1.75 0 1 0 -3.5 0" stroke-width="1"></path><path id="Ellipse 1853" stroke="#000000" stroke-linecap="round" stroke-linejoin="round" d="M3.25 8.5a1.75 1.75 0 1 0 3.5 0 1.75 1.75 0 1 0 -3.5 0" stroke-width="1"></path><path id="Ellipse 1854" stroke="#000000" stroke-linecap="round" stroke-linejoin="round" d="M7.25 8.5a1.75 1.75 0 1 0 3.5 0 1.75 1.75 0 1 0 -3.5 0" stroke-width="1"></path></g></svg>