<svg xmlns="http://www.w3.org/2000/svg" fill="none" viewBox="0 0 14 14"><g id="grid-dots--grid-layout-layouts-module-artboard-note-dots-dotted"><path id="Vector 4047" stroke="#000000" stroke-linecap="round" stroke-linejoin="round" d="M12 1H2c-0.55228 0 -1 0.44772 -1 1v10c0 0.5523 0.44772 1 1 1h10c0.5523 0 1 -0.4477 1 -1V2c0 -0.55228 -0.4477 -1 -1 -1Z" stroke-width="1"></path><g id="Group 2626"><path id="Vector" stroke="#000000" stroke-linecap="round" stroke-linejoin="round" d="M3.75 4c-0.13807 0 -0.25 -0.11193 -0.25 -0.25s0.11193 -0.25 0.25 -0.25" stroke-width="1"></path><path id="Vector_2" stroke="#000000" stroke-linecap="round" stroke-linejoin="round" d="M3.75 4c0.13807 0 0.25 -0.11193 0.25 -0.25s-0.11193 -0.25 -0.25 -0.25" stroke-width="1"></path></g><g id="Group 2628"><path id="Vector_3" stroke="#000000" stroke-linecap="round" stroke-linejoin="round" d="M10.25 4c-0.1381 0 -0.25 -0.11193 -0.25 -0.25s0.1119 -0.25 0.25 -0.25" stroke-width="1"></path><path id="Vector_4" stroke="#000000" stroke-linecap="round" stroke-linejoin="round" d="M10.25 4c0.1381 0 0.25 -0.11193 0.25 -0.25s-0.1119 -0.25 -0.25 -0.25" stroke-width="1"></path></g><g id="Group 2632"><path id="Vector_5" stroke="#000000" stroke-linecap="round" stroke-linejoin="round" d="M3.75 10.5c-0.13807 0 -0.25 -0.1119 -0.25 -0.25s0.11193 -0.25 0.25 -0.25" stroke-width="1"></path><path id="Vector_6" stroke="#000000" stroke-linecap="round" stroke-linejoin="round" d="M3.75 10.5c0.13807 0 0.25 -0.1119 0.25 -0.25S3.88807 10 3.75 10" stroke-width="1"></path></g><g id="Group 2629"><path id="Vector_7" stroke="#000000" stroke-linecap="round" stroke-linejoin="round" d="M3.75 7.25c-0.13807 0 -0.25 -0.11193 -0.25 -0.25s0.11193 -0.25 0.25 -0.25" stroke-width="1"></path><path id="Vector_8" stroke="#000000" stroke-linecap="round" stroke-linejoin="round" d="M3.75 7.25c0.13807 0 0.25 -0.11193 0.25 -0.25s-0.11193 -0.25 -0.25 -0.25" stroke-width="1"></path></g><g id="Group 2627"><path id="Vector_9" stroke="#000000" stroke-linecap="round" stroke-linejoin="round" d="M7 4c-0.13807 0 -0.25 -0.11193 -0.25 -0.25s0.11193 -0.25 0.25 -0.25" stroke-width="1"></path><path id="Vector_10" stroke="#000000" stroke-linecap="round" stroke-linejoin="round" d="M7 4c0.13807 0 0.25 -0.11193 0.25 -0.25S7.13807 3.5 7 3.5" stroke-width="1"></path></g><g id="Group 2633"><path id="Vector_11" stroke="#000000" stroke-linecap="round" stroke-linejoin="round" d="M7 10.5c-0.13807 0 -0.25 -0.1119 -0.25 -0.25S6.86193 10 7 10" stroke-width="1"></path><path id="Vector_12" stroke="#000000" stroke-linecap="round" stroke-linejoin="round" d="M7 10.5c0.13807 0 0.25 -0.1119 0.25 -0.25S7.13807 10 7 10" stroke-width="1"></path></g><g id="Group 2630"><path id="Vector_13" stroke="#000000" stroke-linecap="round" stroke-linejoin="round" d="M7 7.25c-0.13807 0 -0.25 -0.11193 -0.25 -0.25s0.11193 -0.25 0.25 -0.25" stroke-width="1"></path><path id="Vector_14" stroke="#000000" stroke-linecap="round" stroke-linejoin="round" d="M7 7.25c0.13807 0 0.25 -0.11193 0.25 -0.25s-0.11193 -0.25 -0.25 -0.25" stroke-width="1"></path></g><g id="Group 2631"><path id="Vector_15" stroke="#000000" stroke-linecap="round" stroke-linejoin="round" d="M10.25 7.25c-0.1381 0 -0.25 -0.11193 -0.25 -0.25s0.1119 -0.25 0.25 -0.25" stroke-width="1"></path><path id="Vector_16" stroke="#000000" stroke-linecap="round" stroke-linejoin="round" d="M10.25 7.25c0.1381 0 0.25 -0.11193 0.25 -0.25s-0.1119 -0.25 -0.25 -0.25" stroke-width="1"></path></g><g id="Group 2634"><path id="Vector_17" stroke="#000000" stroke-linecap="round" stroke-linejoin="round" d="M10.25 10.5c-0.1381 0 -0.25 -0.1119 -0.25 -0.25s0.1119 -0.25 0.25 -0.25" stroke-width="1"></path><path id="Vector_18" stroke="#000000" stroke-linecap="round" stroke-linejoin="round" d="M10.25 10.5c0.1381 0 0.25 -0.1119 0.25 -0.25s-0.1119 -0.25 -0.25 -0.25" stroke-width="1"></path></g></g></svg>