<svg xmlns="http://www.w3.org/2000/svg" fill="none" viewBox="0 0 14 14"><g id="group-meeting-call--group-meeting-call-work"><path id="Vector" stroke="#000000" stroke-linecap="round" stroke-linejoin="round" d="M3.48046 10.5327c0.63036 0 1.14137 -0.511 1.14137 -1.14133 0 -0.63036 -0.51101 -1.14137 -1.14137 -1.14137S2.3391 8.76101 2.3391 9.39137c0 0.63033 0.511 1.14133 1.14136 1.14133Z" stroke-width="1"></path><path id="Vector_2" stroke="#000000" stroke-linecap="round" stroke-linejoin="round" d="M1.42503 13.4787c0.00364 -0.348 0.09541 -0.6894 0.26675 -0.9923 0.36108 -0.6383 1.05454 -1.0436 1.78771 -1.0452 0.73318 0.0016 1.42664 0.4069 1.78771 1.0452 0.17134 0.3029 0.26312 0.6443 0.26675 0.9923" stroke-width="1"></path><path id="Vector_3" stroke="#000000" stroke-linecap="round" stroke-linejoin="round" d="M10.5254 10.5327c0.6303 0 1.1414 -0.511 1.1414 -1.14133 0 -0.63036 -0.5111 -1.14137 -1.1414 -1.14137 -0.63037 0 -1.14138 0.51101 -1.14138 1.14137 0 0.63033 0.51101 1.14133 1.14138 1.14133Z" stroke-width="1"></path><path id="Vector_4" stroke="#000000" stroke-linecap="round" stroke-linejoin="round" d="M8.46996 13.4787c0.00363 -0.348 0.0954 -0.6894 0.26674 -0.9923 0.36108 -0.6383 1.05454 -1.0436 1.7877 -1.0452 0.7332 0.0016 1.4267 0.4069 1.7877 1.0452 0.1714 0.3029 0.2631 0.6443 0.2668 0.9923" stroke-width="1"></path><path id="Vector_5" stroke="#000000" stroke-linecap="round" stroke-linejoin="round" d="M6.999 4.04708c0.58841 0 1.06541 -0.477 1.06541 -1.06541s-0.477 -1.06541 -1.06541 -1.06541 -1.06541 0.477 -1.06541 1.06541 0.477 1.06541 1.06541 1.06541Z" stroke-width="1"></path><path id="Vector_6" stroke="#000000" stroke-linecap="round" stroke-linejoin="round" d="M5.00781 6.71826c0.00353 -0.3374 0.09251 -0.66841 0.25864 -0.9621 0.3501 -0.61891 1.02248 -1.01194 1.73337 -1.01348 0.71089 0.00154 1.38327 0.39457 1.73337 1.01348 0.16613 0.29369 0.25512 0.6247 0.25864 0.9621" stroke-width="1"></path><path id="Vector_7" stroke="#000000" stroke-linecap="round" stroke-linejoin="round" d="M11.7818 0.544922H2.21823c-0.39667 0 -0.71823 0.321564 -0.71823 0.718228V6c0 0.39667 0.32156 0.71823 0.71823 0.71823h9.56357c0.3966 0 0.7182 -0.32156 0.7182 -0.71823V1.26315c0 -0.396664 -0.3216 -0.718228 -0.7182 -0.718228Z" stroke-width="1"></path></g></svg>