<svg xmlns="http://www.w3.org/2000/svg" fill="none" viewBox="0 0 14 14"><g id="hamburger-menu-2--button-parallel-horizontal-lines-menu-navigation-two-thick"><path id="Vector 3952" stroke="#000000" stroke-linecap="round" stroke-linejoin="round" d="M1 4.5V2c0 -0.55228 0.44772 -1 1 -1h10c0.5523 0 1 0.44772 1 1v2.5c0 0.55228 -0.4477 1 -1 1H2c-0.55228 0 -1 -0.44772 -1 -1Z" stroke-width="1"></path><path id="Vector 3953" stroke="#000000" stroke-linecap="round" stroke-linejoin="round" d="M1 12V9.5c0 -0.55228 0.44772 -1 1 -1h10c0.5523 0 1 0.44772 1 1V12c0 0.5523 -0.4477 1 -1 1H2c-0.55228 0 -1 -0.4477 -1 -1Z" stroke-width="1"></path></g></svg>