<svg xmlns="http://www.w3.org/2000/svg" fill="none" viewBox="0 0 14 14"><g id="hammer--construction-hammer-mallet-tool-tools-setting-edit-adjust"><path id="Vector" stroke="#000000" stroke-linecap="round" stroke-linejoin="round" d="M0.960882 11.0551c-0.263091 0.2631 -0.410894 0.62 -0.410894 0.992 0 0.3721 0.147803 0.7289 0.410894 0.992 0.263088 0.2631 0.619918 0.4109 0.991988 0.4109s0.72889 -0.1478 0.99199 -0.4109l4.55322 -4.5532L5.5141 6.50192 0.960882 11.0551Z" stroke-width="1"></path><path id="Vector_2" stroke="#000000" stroke-linecap="round" stroke-linejoin="round" d="M6.38351 0.840534 3.81624 3.40781c-0.38739 0.38739 -0.38739 1.01548 0 1.40288l5.37304 5.37301c0.38739 0.3874 1.01552 0.3874 1.40292 0l2.5672 -2.56725c0.3874 -0.38739 0.3874 -1.01549 0 -1.40288L7.7864 0.840534c-0.3874 -0.387395 -1.01549 -0.387395 -1.40289 0Z" stroke-width="1"></path></g></svg>