<svg xmlns="http://www.w3.org/2000/svg" fill="none" viewBox="0 0 14 14"><g id="hard-drive-2--disk-device-electronics-disc-drive-raid-storage"><path id="Vector" stroke="#000000" stroke-linecap="round" stroke-linejoin="round" d="M10.2305 13c0.7344 0 1.4388 -0.2918 1.9581 -0.8111 0.5193 -0.5193 0.8111 -1.2237 0.8111 -1.9581 0 -0.7344 -0.2918 -1.43875 -0.8111 -1.95806 -0.5193 -0.51932 -1.2237 -0.81107 -1.9581 -0.81107H3.76915c-0.73442 0 -1.43877 0.29175 -1.95808 0.81107C1.29175 8.79205 1 9.4964 1 10.2308c0 0.7344 0.29175 1.4388 0.81107 1.9581 0.51931 0.5193 1.22366 0.8111 1.95808 0.8111h6.46135Z" stroke-width="1"></path><path id="Vector_2" stroke="#000000" stroke-linecap="round" stroke-linejoin="round" d="m1.05566 9.57552 0.96766 -7.09826c0.0863 -0.42327 0.31831 -0.80287 0.65562 -1.07272 0.33732 -0.26985 0.75859 -0.412874 1.19048 -0.40416h6.26138c0.4319 -0.008714 0.8532 0.13431 1.1905 0.40416 0.3373 0.26985 0.5693 0.64945 0.6556 1.07272l0.9677 7.09826" stroke-width="1"></path><path id="Vector_3" stroke="#000000" stroke-linecap="round" stroke-linejoin="round" d="M3.625 10.2308h2.75" stroke-width="1"></path><path id="Vector_4" stroke="#000000" stroke-linecap="round" stroke-linejoin="round" d="M9.875 10.7308c0.2761 0 0.5 -0.2238 0.5 -0.5 0 -0.27611 -0.2239 -0.49997 -0.5 -0.49997 -0.27614 0 -0.5 0.22386 -0.5 0.49997 0 0.2762 0.22386 0.5 0.5 0.5Z" stroke-width="1"></path></g></svg>