<svg xmlns="http://www.w3.org/2000/svg" fill="none" viewBox="0 0 14 14"><g id="hbo-max"><path id="Vector 546" stroke="#000000" stroke-linecap="round" stroke-linejoin="round" d="M0.5 12.083V9.93885c0 -0.71052 0.50107 -1.28651 1.11917 -1.28651s1.11917 0.57599 1.11917 1.28651V12.083" stroke-width="1"></path><path id="Vector 545" stroke="#000000" stroke-linecap="round" stroke-linejoin="round" d="M2.73828 12.083V9.93885c0 -0.71052 0.50107 -1.28651 1.11917 -1.28651s1.11917 0.57599 1.11917 1.28651V12.083" stroke-width="1"></path><path id="Vector 542" stroke="#000000" stroke-linecap="round" stroke-linejoin="round" d="m11.0293 8.65234 2.4708 3.43066" stroke-width="1"></path><path id="Vector 543" stroke="#000000" stroke-linecap="round" stroke-linejoin="round" d="M13.5001 8.65234 11.0293 12.083" stroke-width="1"></path><path id="Ellipse 20" stroke="#000000" stroke-linecap="round" stroke-linejoin="round" d="M6.521 10.368a1.471 1.715 0 1 0 2.942 0 1.471 1.715 0 1 0 -2.942 0" stroke-width="1"></path><path id="Vector 544" stroke="#000000" stroke-linecap="round" stroke-linejoin="round" d="M9.46289 8.65234V12.083" stroke-width="1"></path><path id="Vector 539" stroke="#000000" stroke-linecap="round" stroke-linejoin="round" d="M1.23389 2.18359v4.0127" stroke-width="1"></path><path id="Vector 540" stroke="#000000" stroke-linecap="round" stroke-linejoin="round" d="M3.4917 2.18359v4.0127" stroke-width="1"></path><path id="Vector 541" stroke="#000000" stroke-linecap="round" stroke-linejoin="round" d="m1.23389 4.19141 2.25634 0" stroke-width="1"></path><path id="Ellipse 17" stroke="#000000" stroke-linecap="round" stroke-linejoin="round" d="M9.004 4.19a2.006 2.006 0 1 0 4.012 0 2.006 2.006 0 1 0 -4.012 0" stroke-width="1"></path><path id="Vector 538" stroke="#000000" stroke-linecap="round" stroke-linejoin="round" d="m6.45586 4.18994 -1.20381 0m1.20381 0c0.66484 0 1.20381 -0.44913 1.20381 -1.00317 0 -0.55404 -0.53897 -1.00318 -1.20381 -1.00318l-1.20381 0 0 4.0127 1.20381 0c0.66484 0 1.20381 -0.44914 1.20381 -1.00317 0 -0.55404 -0.53897 -1.00318 -1.20381 -1.00318Z" stroke-width="1"></path><g id="Group 4546"><path id="Vector" stroke="#000000" stroke-linecap="round" stroke-linejoin="round" d="M11.0098 4.31494c-0.0691 0 -0.125 -0.05596 -0.125 -0.125 0 -0.06903 0.0559 -0.125 0.125 -0.125" stroke-width="1"></path><path id="Vector_2" stroke="#000000" stroke-linecap="round" stroke-linejoin="round" d="M11.0098 4.31494c0.069 0 0.125 -0.05596 0.125 -0.125 0 -0.06903 -0.056 -0.125 -0.125 -0.125" stroke-width="1"></path></g></g></svg>