<svg xmlns="http://www.w3.org/2000/svg" fill="none" viewBox="0 0 14 14"><g id="heater--travel-hotel-heater"><path id="Vector 4936" stroke="#000000" stroke-linecap="round" stroke-linejoin="round" d="M1 12V6.5c0 -0.55228 0.44772 -1 1 -1h10c0.5523 0 1 0.44772 1 1V12c0 0.5523 -0.4477 1 -1 1H2c-0.55228 0 -1 -0.4477 -1 -1Z" stroke-width="1"></path><path id="Vector 4937" stroke="#000000" stroke-linecap="round" stroke-linejoin="round" d="M10.5 7.5V11" stroke-width="1"></path><path id="Vector 4938" stroke="#000000" stroke-linecap="round" stroke-linejoin="round" d="M8.25 7.5V11" stroke-width="1"></path><path id="Vector 4939" stroke="#000000" stroke-linecap="round" stroke-linejoin="round" d="M6 7.5V11" stroke-width="1"></path><path id="Vector" stroke="#000000" stroke-linecap="round" stroke-linejoin="round" d="M3.99782 3.25c1.08333 -1.35417 -1.08334 -1.39583 0 -2.75" stroke-width="1"></path><path id="Vector_2" stroke="#000000" stroke-linecap="round" stroke-linejoin="round" d="M6.99782 3.25c1.08333 -1.35417 -1.08334 -1.39583 0 -2.75" stroke-width="1"></path><path id="Vector_3" stroke="#000000" stroke-linecap="round" stroke-linejoin="round" d="M9.99782 3.25c1.08328 -1.35417 -1.08334 -1.39583 0 -2.75" stroke-width="1"></path><g id="Group 7"><path id="Vector_4" stroke="#000000" stroke-linecap="round" stroke-linejoin="round" d="M3.25 8C3.11193 8 3 7.88807 3 7.75s0.11193 -0.25 0.25 -0.25" stroke-width="1"></path><path id="Vector_5" stroke="#000000" stroke-linecap="round" stroke-linejoin="round" d="M3.25 8c0.13807 0 0.25 -0.11193 0.25 -0.25s-0.11193 -0.25 -0.25 -0.25" stroke-width="1"></path></g></g></svg>