<svg xmlns="http://www.w3.org/2000/svg" fill="none" viewBox="0 0 14 14"><g id="hierarchy-15--node-organization-links-structure-link-nodes-network-hierarchy"><path id="Vector 2255" stroke="#000000" stroke-linecap="round" stroke-linejoin="round" d="m5.5 9.75 -4 0c-0.27614 0 -0.5 -0.22386 -0.5 -0.5l0 -4.5c0 -0.27614 0.22386 -0.5 0.5 -0.5l4 0c0.27614 0 0.5 0.22386 0.5 0.5l0 4.5c0 0.27614 -0.22386 0.5 -0.5 0.5Z" stroke-width="1"></path><path id="Vector 2256" stroke="#000000" stroke-linecap="round" stroke-linejoin="round" d="m6 7 4 0" stroke-width="1"></path><path id="Vector 2257" stroke="#000000" stroke-linecap="round" stroke-linejoin="round" d="m10 12 -1 0c-0.55228 0 -1 -0.4477 -1 -1l0 -8c0 -0.55228 0.44771 -1 1 -1l1 0" stroke-width="1"></path><path id="Vector 2258" stroke="#000000" stroke-linecap="round" stroke-linejoin="round" d="m12.5 13.5 -2 0c-0.2761 0 -0.5 -0.2239 -0.5 -0.5l0 -2c0 -0.2761 0.2239 -0.5 0.5 -0.5l2 0c0.2761 0 0.5 0.2239 0.5 0.5l0 2c0 0.2761 -0.2239 0.5 -0.5 0.5Z" stroke-width="1"></path><path id="Vector 2259" stroke="#000000" stroke-linecap="round" stroke-linejoin="round" d="m12.5 8.5 -2 0c-0.2761 0 -0.5 -0.22386 -0.5 -0.5l0 -2c0 -0.27614 0.2239 -0.5 0.5 -0.5l2 0c0.2761 0 0.5 0.22386 0.5 0.5l0 2c0 0.27614 -0.2239 0.5 -0.5 0.5Z" stroke-width="1"></path><path id="Vector 2260" stroke="#000000" stroke-linecap="round" stroke-linejoin="round" d="m12.5 3.5 -2 0c-0.2761 0 -0.5 -0.22386 -0.5 -0.5l0 -2c0 -0.276142 0.2239 -0.5 0.5 -0.5l2 0c0.2761 0 0.5 0.223858 0.5 0.5l0 2c0 0.27614 -0.2239 0.5 -0.5 0.5Z" stroke-width="1"></path></g></svg>