<svg xmlns="http://www.w3.org/2000/svg" fill="none" viewBox="0 0 14 14"><g id="hierarchy-3--node-organization-links-structure-link-nodes-network-hierarchy"><path id="Vector" stroke="#000000" stroke-linecap="round" stroke-linejoin="round" d="M4.5 11h5" stroke-width="1"></path><path id="Vector_2" stroke="#000000" stroke-linecap="round" stroke-linejoin="round" d="m5.09 4.79001 -2.59 4.21" stroke-width="1"></path><path id="Vector_3" stroke="#000000" stroke-linecap="round" stroke-linejoin="round" d="m8.91003 4.79001 2.58997 4.21" stroke-width="1"></path><path id="Vector 4339" stroke="#000000" stroke-linecap="round" stroke-linejoin="round" d="M5 4.5v-3c0 -0.27614 0.22386 -0.5 0.5 -0.5h3c0.27614 0 0.5 0.22386 0.5 0.5v3c0 0.27614 -0.22386 0.5 -0.5 0.5h-3c-0.27614 0 -0.5 -0.22386 -0.5 -0.5Z" stroke-width="1"></path><path id="Vector 4340" stroke="#000000" stroke-linecap="round" stroke-linejoin="round" d="M0.5 12.5v-3c0 -0.27614 0.223858 -0.5 0.5 -0.5h3c0.27614 0 0.5 0.22386 0.5 0.5v3c0 0.2761 -0.22386 0.5 -0.5 0.5H1c-0.276142 0 -0.5 -0.2239 -0.5 -0.5Z" stroke-width="1"></path><path id="Vector 4341" stroke="#000000" stroke-linecap="round" stroke-linejoin="round" d="M9.5 12.5v-3c0 -0.27614 0.22386 -0.5 0.5 -0.5h3c0.2761 0 0.5 0.22386 0.5 0.5v3c0 0.2761 -0.2239 0.5 -0.5 0.5h-3c-0.27614 0 -0.5 -0.2239 -0.5 -0.5Z" stroke-width="1"></path></g></svg>