<svg xmlns="http://www.w3.org/2000/svg" fill="none" viewBox="0 0 14 14"><g id="high-five"><path id="vector 1996" stroke="#000000" stroke-linecap="round" stroke-linejoin="round" d="m3.06357 11.9521 -0.21022 -0.1365c-0.54285 -0.3524 -1.01712 -0.8005 -1.39968 -1.3226L0.663022 9.41415C0.445867 9.11783 0.445639 8.71499 0.66246 8.41843c0.325207 -0.44482 0.98275 -0.4631 1.33218 -0.03705l0.69466 0.84698c0.28576 -0.00349 0.90795 0.08472 1.42702 0.43057" stroke-width="1"></path><path id="vector 1997" stroke="#000000" stroke-linecap="round" stroke-linejoin="round" d="M2.68921 9.22817V4.96553c0 -0.47084 0.38169 -0.85253 0.85253 -0.85253 0.47084 0 0.85253 0.38169 0.85253 0.85253m0 0v2.55759m0 -2.55759V3.9425c0 -0.47084 0.38169 -0.85253 0.85253 -0.85253 0.47083 0 0.85252 0.38169 0.85253 0.85252l0 0.85253" stroke-width="1"></path><path id="vector 1997_2" stroke="#000000" stroke-linecap="round" stroke-linejoin="round" d="M9.60958 6.50935v2.55759m0 -2.55759V5.48632c0 -0.47084 -0.38169 -0.85253 -0.85253 -0.85253 -0.47084 0 -0.85253 0.38169 -0.85253 0.85253l0 1.70505m1.70506 -0.68202c0 -0.47084 0.38169 -0.85253 0.85252 -0.85253 0.4708 0 0.8525 0.38169 0.8525 0.85253V10.772l0.6843 -0.8554c0.3442 -0.43028 1.0019 -0.42002 1.3325 0.02079 0.2204 0.29391 0.2251 0.69671 0.0116 0.99561l-0.8623 1.2074c-0.3201 0.448 -0.7189 0.8342 -1.177 1.1396l-0.3301 0.2201M7.90452 7.19137v2.21658m0 -2.21658c0 -0.47083 -0.38169 -0.85252 -0.85253 -0.85252 -0.47084 0 -0.85253 0.38169 -0.85253 0.85253v4.79822c0 0.5305 0.21072 1.0392 0.58579 1.4143l0.09623 0.0962" stroke-width="1"></path><path id="vector 2065" stroke="#000000" stroke-linecap="round" stroke-linejoin="round" d="M7.54956 0.5 7.54955 2" stroke-width="1"></path><path id="vector 2066" stroke="#000000" stroke-linecap="round" stroke-linejoin="round" d="m9.75 1 -0.5 1.25" stroke-width="1"></path><path id="vector 2067" stroke="#000000" stroke-linecap="round" stroke-linejoin="round" d="m11.5 2.5 -1 1" stroke-width="1"></path></g></svg>