<svg xmlns="http://www.w3.org/2000/svg" fill="none" viewBox="0 0 14 14"><g id="horizonal-scroll--move-scroll-horizonal"><path id="Vector" stroke="#000000" stroke-linecap="round" stroke-linejoin="round" d="m3.48003 3.87012 -2.870005 2.87c-0.035089 0.0336 -0.063013 0.07396 -0.08209 0.11865 -0.019077 0.04468 -0.028912 0.09276 -0.028912 0.14135 0 0.04858 0.009835 0.09667 0.028912 0.14135s0.047001 0.08504 0.08209 0.11865L3.48003 10.1301" stroke-width="1"></path><path id="Vector_2" stroke="#000000" stroke-linecap="round" stroke-linejoin="round" d="m10.52 3.87012 2.87 2.87c0.0351 0.0336 0.063 0.07396 0.0821 0.11865 0.0191 0.04468 0.0289 0.09276 0.0289 0.14135 0 0.04858 -0.0098 0.09667 -0.0289 0.14135s-0.047 0.08504 -0.0821 0.11865l-2.87 2.86998" stroke-width="1"></path><path id="Vector_3" stroke="#000000" stroke-linecap="round" stroke-linejoin="round" d="M7 8.25c0.69036 0 1.25 -0.55964 1.25 -1.25S7.69036 5.75 7 5.75 5.75 6.30964 5.75 7 6.30964 8.25 7 8.25Z" stroke-width="1"></path></g></svg>