<svg xmlns="http://www.w3.org/2000/svg" fill="none" viewBox="0 0 14 14"><g id="horizontal-slider-square--adjust-controls-fader-horizontal-settings-slider-square"><path id="Vector" stroke="#000000" stroke-linecap="round" stroke-linejoin="round" d="M3 4.75h5" stroke-width="1"></path><path id="Vector_2" stroke="#000000" stroke-linecap="round" stroke-linejoin="round" d="M9.5 6.25c0.8284 0 1.5 -0.67157 1.5 -1.5s-0.6716 -1.5 -1.5 -1.5c-0.82843 0 -1.5 0.67157 -1.5 1.5s0.67157 1.5 1.5 1.5Z" stroke-width="1"></path><path id="Vector_3" stroke="#000000" stroke-linecap="round" stroke-linejoin="round" d="M11 9.25H7.5" stroke-width="1"></path><path id="Vector_4" stroke="#000000" stroke-linecap="round" stroke-linejoin="round" d="M4.5 9.25H3" stroke-width="1"></path><path id="Vector_5" stroke="#000000" stroke-linecap="round" stroke-linejoin="round" d="M6 10.75c0.82843 0 1.5 -0.6716 1.5 -1.5 0 -0.82843 -0.67157 -1.5 -1.5 -1.5s-1.5 0.67157 -1.5 1.5c0 0.8284 0.67157 1.5 1.5 1.5Z" stroke-width="1"></path><path id="Vector 3956" stroke="#000000" stroke-linecap="round" stroke-linejoin="round" d="M12 1H2c-0.55228 0 -1 0.44772 -1 1v10c0 0.5523 0.44772 1 1 1h10c0.5523 0 1 -0.4477 1 -1V2c0 -0.55228 -0.4477 -1 -1 -1Z" stroke-width="1"></path></g></svg>