<svg xmlns="http://www.w3.org/2000/svg" fill="none" viewBox="0 0 14 14"><g id="hotel-three-star--three-stars-reviews-review-rating-hotel-star"><path id="Vector" stroke="#000000" stroke-linecap="round" stroke-linejoin="round" d="M5.59076 9.30977c0.14826 0.41947 0.54831 0.72003 1.01855 0.72003l0.71999 0c0.59647 0 1.08 -0.48356 1.08 -1.08002l0 -0.18c0 -0.59647 -0.48353 -1.08 -1.08 -1.08l-0.35999 -0.00001h0.27c0.54676 0 0.98999 -0.44323 0.98999 -0.98999 0 -0.54677 -0.44324 -0.99001 -0.99 -0.99l-0.54 0c-0.45315 0.00001 -0.83519 0.30447 -0.95272 0.72" stroke-width="1"></path><path id="Vector 4838" stroke="#000000" stroke-linecap="round" stroke-linejoin="round" d="M6.16042 1.29751 4.24999 4.24999l-2.80413 0.46736C0.689348 4.84343 0.350512 5.7391 0.834142 6.33433L2.99999 8.99999l-0.63796 3.18981c-0.15574 0.7787 0.61464 1.4195 1.35197 1.1246L6.99999 12l3.62811 1.3193c0.773 0.2811 1.5359 -0.4393 1.2995 -1.2271L11 8.99999l2.1658 -2.66566c0.4837 -0.59523 0.1448 -1.4909 -0.6117 -1.61698l-2.80411 -0.46736 -1.91043 -2.95248c-0.39406 -0.609 -1.28508 -0.609 -1.67914 0Z" stroke-width="1"></path></g></svg>