<svg xmlns="http://www.w3.org/2000/svg" fill="none" viewBox="0 0 14 14"><g id="ice-cream-4--dessert-ice-cream"><path id="Ellipse 923" stroke="#000000" stroke-linecap="round" stroke-linejoin="round" d="M11.8571 4.99298C11.9501 4.67819 12 4.34492 12 4 12 2.067 10.433 0.5 8.5 0.5c-1.27952 0 -2.39868 0.6866 -3.00914 1.71147" stroke-width="1"></path><path id="Vector 2191" stroke="#000000" stroke-linecap="round" stroke-linejoin="round" d="M7 10.5v3" stroke-width="1"></path><path id="Vector 2192" stroke="#000000" stroke-linecap="round" stroke-linejoin="round" d="M4.5 13.5h5" stroke-width="1"></path><path id="Ellipse 922" stroke="#000000" stroke-linecap="round" stroke-linejoin="round" d="M2.05073 5.00352C2.01747 4.84087 2 4.67248 2 4.5 2 3.11929 3.11929 2 4.5 2S7 3.11929 7 4.5c0 0.17045 -0.01706 0.33692 -0.04956 0.49779" stroke-width="1"></path><path id="Vector 2190" stroke="#000000" stroke-linecap="round" stroke-linejoin="round" d="M12.5 5h-11c0 3.03757 2.46243 5.5 5.5 5.5 3.0376 0 5.5 -2.46243 5.5 -5.5Z" stroke-width="1"></path></g></svg>