<svg xmlns="http://www.w3.org/2000/svg" fill="none" viewBox="0 0 14 14"><g id="image-caption--image-caption-photo-picture-text-description"><path id="Vector" stroke="#000000" stroke-linecap="round" stroke-linejoin="round" d="m2.5 8 9 0c0.5523 0 1 -0.44772 1 -1V1.5c0 -0.552285 -0.4477 -1 -1 -1l-9 0c-0.55229 0 -1 0.447715 -1 1V7c0 0.55228 0.44771 1 1 1Z" stroke-width="1"></path><path id="Vector 3262" stroke="#000000" stroke-linecap="round" stroke-linejoin="round" d="M1.5 10.75h11" stroke-width="1"></path><path id="Vector 3263" stroke="#000000" stroke-linecap="round" stroke-linejoin="round" d="M1.5 13.5h6.6" stroke-width="1"></path><path id="Vector_2" stroke="#000000" stroke-linecap="round" stroke-linejoin="round" d="M9.45844 4.1875c-0.55229 0 -1 -0.44772 -1 -1s0.44771 -1 1 -1c0.55226 0 0.99996 0.44772 0.99996 1s-0.4477 1 -0.99996 1Z" stroke-width="1"></path><path id="Vector 3951" stroke="#000000" stroke-linecap="round" stroke-linejoin="round" d="M9.91896 8 5.10645 3.1875 1.50049 6.79346" stroke-width="1"></path></g></svg>