<svg xmlns="http://www.w3.org/2000/svg" fill="none" viewBox="0 0 14 14"><g id="important-field--input-form-internet-important-must-have-mark"><path id="Vector" stroke="#000000" stroke-linecap="round" stroke-linejoin="round" d="M12 1H5c-0.55228 0 -1 0.44772 -1 1v2.75c0 0.55228 0.44772 1 1 1h7c0.5523 0 1 -0.44772 1 -1V2c0 -0.55228 -0.4477 -1 -1 -1Z" stroke-width="1"></path><path id="Vector_2" stroke="#000000" stroke-linecap="round" stroke-linejoin="round" d="M12 8.25H5c-0.55228 0 -1 0.44772 -1 1V12c0 0.5523 0.44772 1 1 1h7c0.5523 0 1 -0.4477 1 -1V9.25c0 -0.55228 -0.4477 -1 -1 -1Z" stroke-width="1"></path><path id="Vector_3" stroke="#000000" stroke-linecap="round" stroke-linejoin="round" d="M1.5 2c0.27614 0 0.5 -0.22386 0.5 -0.5S1.77614 1 1.5 1s-0.5 0.22386 -0.5 0.5 0.22386 0.5 0.5 0.5Z" stroke-width="1"></path><path id="Vector_4" stroke="#000000" stroke-linecap="round" stroke-linejoin="round" d="M1.5 9.25c0.27614 0 0.5 -0.22386 0.5 -0.5s-0.22386 -0.5 -0.5 -0.5 -0.5 0.22386 -0.5 0.5 0.22386 0.5 0.5 0.5Z" stroke-width="1"></path></g></svg>