<svg xmlns="http://www.w3.org/2000/svg" fill="none" viewBox="0 0 14 14"><g id="incognito-mode--internet-safe-mode-browser"><path id="Ellipse 5" stroke="#000000" stroke-linecap="round" stroke-linejoin="round" d="M1.499 10.749a2.25 2.25 0 1 0 4.5 0 2.25 2.25 0 1 0 -4.5 0" stroke-width="1"></path><path id="Ellipse 6" stroke="#000000" stroke-linecap="round" stroke-linejoin="round" d="M8.001 10.749a2.25 2.25 0 1 0 4.5 0 2.25 2.25 0 1 0 -4.5 0" stroke-width="1"></path><path id="Rectangle 3" stroke="#000000" stroke-linecap="round" stroke-linejoin="round" d="M3.36084 1.83557c0.08037 -0.48217 0.49756 -0.835578 0.98639 -0.835578h5.30563c0.48884 0 0.90604 0.353428 0.98644 0.835618l0.8606 4.66438H2.5l0.86084 -4.66442Z" stroke-width="1"></path><path id="Vector 1" stroke="#000000" stroke-linecap="round" stroke-linejoin="round" d="M5.99805 10.7494s0 -1.00055 1.00051 -1.00055c1.00052 0 1.00052 1.00055 1.00052 1.00055" stroke-width="1"></path><path id="Vector 2" stroke="#000000" stroke-linecap="round" stroke-linejoin="round" d="M1 6.50002h12" stroke-width="1"></path></g></svg>