<svg xmlns="http://www.w3.org/2000/svg" fill="none" viewBox="0 0 14 14"><g id="ink-bottle--ink-company-office-supplies-work"><path id="Vector 3963" stroke="#000000" stroke-linecap="round" stroke-linejoin="round" d="M4 6V4h6v2l1.6325 0.54415C12.4491 6.81638 13 7.58066 13 8.44152V11c0 1.1046 -0.8954 2 -2 2H3c-1.10457 0 -2 -0.8954 -2 -2V8.44152c0 -0.86086 0.55086 -1.62514 1.36754 -1.89737L4 6Z" stroke-width="1"></path><path id="Vector" stroke="#000000" stroke-linecap="round" stroke-linejoin="round" d="M10.5 1h-7c-0.55228 0 -1 0.44772 -1 1v1c0 0.55228 0.44772 1 1 1h7c0.5523 0 1 -0.44772 1 -1V2c0 -0.55228 -0.4477 -1 -1 -1Z" stroke-width="1"></path><path id="Vector_2" stroke="#000000" stroke-linecap="round" stroke-linejoin="round" d="M10.5 8.5h-7V11h7V8.5Z" stroke-width="1"></path></g></svg>