<svg xmlns="http://www.w3.org/2000/svg" fill="none" viewBox="0 0 14 14"><g id="insert-cloud-link"><path id="Vector" stroke="#000000" stroke-linecap="round" stroke-linejoin="round" d="M2.3434 9.32887c-0.26926 -0.12596 -0.52197 -0.28993 -0.74979 -0.48908C0.954829 8.28139 0.564032 7.4921 0.507193 6.64556c-0.056839 -0.84654 0.224936 -1.68098 0.783337 -2.31977 0.27649 -0.31629 0.61258 -0.57503 0.98906 -0.76144 0.37649 -0.1864 0.786 -0.29683 1.20517 -0.32498 0.0435 0.00096 0.08636 -0.01056 0.12353 -0.03318 0.03717 -0.02263 0.06708 -0.05541 0.08622 -0.09449 0.28916 -0.83806 0.85688 -1.55166 1.60849 -2.02181C6.05462 0.619753 6.94469 0.421491 7.82479 0.528169c0.8801 0.106679 1.69703 0.511851 2.31451 1.147951 0.6176 0.6361 0.9984 1.46467 1.0789 2.34754 0.0068 0.04649 0.0266 0.09008 0.0574 0.12563 0.0307 0.03555 0.0709 0.06157 0.1159 0.07501 0.6517 0.15353 1.2244 0.54068 1.6098 1.08815 0.3854 0.54747 0.5566 1.21725 0.4813 1.88251 -0.0753 0.66526 -0.3919 1.27982 -0.8899 1.72731 -0.0502 0.04515 -0.1019 0.08829 -0.1551 0.12936" stroke-width="1"></path><path id="Vector 3859" stroke="#000000" stroke-linecap="round" stroke-linejoin="round" d="m6.49988 10.7322 1 -1.00003" stroke-width="1"></path><path id="Vector 3857" stroke="#000000" stroke-linecap="round" stroke-linejoin="round" d="m6.74988 7.98218 0.5 -0.5c0.69035 -0.69036 1.80964 -0.69036 2.5 0 0.69032 0.69035 0.69032 1.80964 0 2.5l-0.5 0.50002" stroke-width="1"></path><path id="Vector 3858" stroke="#000000" stroke-linecap="round" stroke-linejoin="round" d="m7.25007 12.4822 -0.5 0.5c-0.69036 0.6904 -1.80965 0.6904 -2.5 0 -0.69036 -0.6903 -0.69036 -1.8096 0 -2.5l0.5 -0.49997" stroke-width="1"></path></g></svg>