<svg xmlns="http://www.w3.org/2000/svg" fill="none" viewBox="0 0 14 14"><g id="insert-row"><path id="Vector 4569" stroke="#000000" stroke-linecap="round" stroke-linejoin="round" d="m0.5 9 2 -2 -2 -2" stroke-width="1"></path><path id="Vector 4570" stroke="#000000" stroke-linecap="round" stroke-linejoin="round" d="m4.5 9.5 0 2c0 0.5523 0.44772 1 1 1l7 0c0.5523 0 1 -0.4477 1 -1l0 -2c0 -0.55229 -0.4477 -1 -1 -1l-7 0c-0.55228 0 -1 0.44772 -1 1Z" stroke-width="1"></path><path id="Vector 4571" stroke="#000000" stroke-linecap="round" stroke-linejoin="round" d="m4.5 2.5 0 2c0 0.55228 0.44772 1 1 1l7 0c0.5523 0 1 -0.44772 1 -1l0 -2c0 -0.55229 -0.4477 -1 -1 -1l-7 0c-0.55228 0 -1 0.44772 -1 1Z" stroke-width="1"></path></g></svg>