<svg width="14" height="14" viewBox="0 0 14 14" fill="none" xmlns="http://www.w3.org/2000/svg">
<path d="M10.333 3.64404C10.1949 3.64404 10.083 3.53211 10.083 3.39404C10.083 3.25597 10.1949 3.14404 10.333 3.14404" stroke="#01040B" stroke-linecap="round" stroke-linejoin="round"/>
<path d="M10.333 3.64404C10.4711 3.64404 10.583 3.53211 10.583 3.39404C10.583 3.25597 10.4711 3.14404 10.333 3.14404" stroke="#01040B" stroke-linecap="round" stroke-linejoin="round"/>
<path d="M0.858154 3.43141C0.858154 2.01038 2.01013 0.858398 3.43117 0.858398H10.2926C11.7136 0.858398 12.8656 2.01038 12.8656 3.43141V10.2928C12.8656 11.7138 11.7136 12.8658 10.2926 12.8658H3.43117C2.01013 12.8658 0.858154 11.7138 0.858154 10.2928V3.43141Z" stroke="#01040B" stroke-linecap="round" stroke-linejoin="round"/>
<path d="M6.86177 9.41201C8.27009 9.41201 9.41177 8.27034 9.41177 6.86201C9.41177 5.45369 8.27009 4.31201 6.86177 4.31201C5.45344 4.31201 4.31177 5.45369 4.31177 6.86201C4.31177 8.27034 5.45344 9.41201 6.86177 9.41201Z" stroke="#01040B" stroke-linecap="round" stroke-linejoin="round"/>
</svg>
