<svg xmlns="http://www.w3.org/2000/svg" fill="none" viewBox="0 0 14 14"><g id="iphone--android-phone-mobile-device-smartphone-iphone"><path id="Vector" stroke="#000000" stroke-linecap="round" stroke-linejoin="round" d="M10.5 0.5h-7c-0.55228 0 -1 0.447715 -1 1v11c0 0.5523 0.44772 1 1 1h7c0.5523 0 1 -0.4477 1 -1v-11c0 -0.552285 -0.4477 -1 -1 -1Z" stroke-width="1"></path><path id="Vector_2" stroke="#000000" stroke-linecap="round" stroke-linejoin="round" d="m10.12 0.5 -0.43 1.74c-0.05475 0.22188 -0.18384 0.41831 -0.36579 0.55659 -0.18195 0.13828 -0.40577 0.21007 -0.63421 0.20341H5.28c-0.22843 0.00666 -0.45225 -0.06513 -0.6342 -0.20341 -0.18195 -0.13828 -0.31104 -0.33471 -0.3658 -0.55659L3.88 0.5" stroke-width="1"></path></g></svg>