<svg xmlns="http://www.w3.org/2000/svg" fill="none" viewBox="0 0 14 14"><g id="justice-scale-3--office-work-scale-justice-unequal-company-arbitration-unbalance-court"><path id="Vector" stroke="#000000" stroke-linecap="round" stroke-linejoin="round" d="M8.5 11.0001 11 4.82007l2.5 6.18003m-5 0c0 0.663 0.26339 1.2989 0.73223 1.7677 0.46884 0.4689 1.10477 0.7323 1.76777 0.7323s1.2989 -0.2634 1.7678 -0.7323c0.4688 -0.4688 0.7322 -1.1047 0.7322 -1.7677m-5 0h5" stroke-width="1"></path><path id="Vector_2" stroke="#000000" stroke-linecap="round" stroke-linejoin="round" d="m0.5 6.99993 2.5 -5.82 2.5 5.82m-5 0c0 0.66304 0.263392 1.29893 0.73223 1.76777 0.46884 0.46884 1.10473 0.73223 1.76777 0.73223 0.66304 0 1.29893 -0.26339 1.76777 -0.73223C5.23661 8.29886 5.5 7.66297 5.5 6.99993m-5 0h5" stroke-width="1"></path><path id="Vector_3" stroke="#000000" stroke-linecap="round" stroke-linejoin="round" d="m12.5 5.5 -11 -5" stroke-width="1"></path><path id="Vector_4" stroke="#000000" stroke-linecap="round" stroke-linejoin="round" d="M7 3V0.5" stroke-width="1"></path></g></svg>