<svg xmlns="http://www.w3.org/2000/svg" fill="none" viewBox="0 0 14 14"><g id="keyboard-brightness-decrease--keyboard-brightness-decrease-light-dim-device-electronics"><g id="Group 4716"><path id="Ellipse 1666" stroke="#000000" stroke-linecap="round" stroke-linejoin="round" d="M0.75 12.5c-0.138071 0 -0.25 -0.1119 -0.25 -0.25S0.611929 12 0.75 12" stroke-width="1"></path><path id="Ellipse 1667" stroke="#000000" stroke-linecap="round" stroke-linejoin="round" d="M0.75 12.5c0.138071 0 0.25 -0.1119 0.25 -0.25S0.888071 12 0.75 12" stroke-width="1"></path></g><g id="Group 4717"><path id="Ellipse 1666_2" stroke="#000000" stroke-linecap="round" stroke-linejoin="round" d="M13.25 12.5c-0.1381 0 -0.25 -0.1119 -0.25 -0.25s0.1119 -0.25 0.25 -0.25" stroke-width="1"></path><path id="Ellipse 1667_2" stroke="#000000" stroke-linecap="round" stroke-linejoin="round" d="M13.25 12.5c0.1381 0 0.25 -0.1119 0.25 -0.25s-0.1119 -0.25 -0.25 -0.25" stroke-width="1"></path></g><g id="Group 4719"><path id="Ellipse 1666_3" stroke="#000000" stroke-linecap="round" stroke-linejoin="round" d="M7.25 6c0 0.13807 -0.11193 0.25 -0.25 0.25s-0.25 -0.11193 -0.25 -0.25" stroke-width="1"></path><path id="Ellipse 1667_3" stroke="#000000" stroke-linecap="round" stroke-linejoin="round" d="M7.25 6c0 -0.13807 -0.11193 -0.25 -0.25 -0.25s-0.25 0.11193 -0.25 0.25" stroke-width="1"></path></g><g id="Group 4721"><path id="Ellipse 1666_4" stroke="#000000" stroke-linecap="round" stroke-linejoin="round" d="M11.5962 8.00734c-0.0976 0.09763 -0.2559 0.09763 -0.3535 0 -0.0976 -0.09763 -0.0976 -0.25592 0 -0.35355" stroke-width="1"></path><path id="Ellipse 1667_4" stroke="#000000" stroke-linecap="round" stroke-linejoin="round" d="M11.5962 8.00736c0.0977 -0.09763 0.0977 -0.25592 0 -0.35355 -0.0976 -0.09763 -0.2559 -0.09763 -0.3535 0" stroke-width="1"></path></g><g id="Group 4723"><path id="Ellipse 1666_5" stroke="#000000" stroke-linecap="round" stroke-linejoin="round" d="M2.75734 7.65381c0.09763 0.09763 0.09763 0.25593 0 0.35356s-0.25592 0.09763 -0.35355 0" stroke-width="1"></path><path id="Ellipse 1667_5" stroke="#000000" stroke-linecap="round" stroke-linejoin="round" d="M2.75736 7.65383c-0.09763 -0.09763 -0.25592 -0.09763 -0.35355 0s-0.09763 0.25592 0 0.35356" stroke-width="1"></path></g><path id="Vector 3320" stroke="#000000" stroke-linecap="round" stroke-linejoin="round" d="M4.5 12.5h5" stroke-width="1"></path></g></svg>