<svg xmlns="http://www.w3.org/2000/svg" fill="none" viewBox="0 0 14 14"><g id="knife-1--knife-big-cutting-kitchenware-cooking"><g id="Group 4625"><path id="Vector" stroke="#000000" stroke-linecap="round" stroke-linejoin="round" d="M9.5 4.5c-0.13807 0 -0.25 -0.11193 -0.25 -0.25S9.36193 4 9.5 4" stroke-width="1"></path><path id="Vector_2" stroke="#000000" stroke-linecap="round" stroke-linejoin="round" d="M9.5 4.5c0.13807 0 0.25 -0.11193 0.25 -0.25S9.63807 4 9.5 4" stroke-width="1"></path></g><path id="Vector 4646" stroke="#000000" stroke-linecap="round" stroke-linejoin="round" d="M9.5 1.5 3 8l4 4 6.5 -6.5 -4 -4Z" stroke-width="1"></path><path id="Vector 4647" stroke="#000000" stroke-linecap="round" stroke-linejoin="round" d="M2.26516 11.7348 4.5 9.5 3 8 0.765165 10.2348C0.595383 10.4046 0.5 10.6349 0.5 10.875c0 0.2401 0.095383 0.4704 0.265165 0.6402l0.21967 0.2196C1.15462 11.9046 1.38489 12 1.625 12s0.47038 -0.0954 0.64016 -0.2652Z" stroke-width="1"></path></g></svg>