<svg xmlns="http://www.w3.org/2000/svg" fill="none" viewBox="0 0 14 14"><g id="label-folder-tag"><g id="group 2218"><path id="vector" stroke="#000000" stroke-linecap="round" stroke-linejoin="round" d="M11.5 8.75c-0.1381 0 -0.25 -0.11193 -0.25 -0.25s0.1119 -0.25 0.25 -0.25" stroke-width="1"></path><path id="vector_2" stroke="#000000" stroke-linecap="round" stroke-linejoin="round" d="M11.4999 8.75c0.1381 0 0.25 -0.11193 0.25 -0.25s-0.1119 -0.25 -0.25 -0.25" stroke-width="1"></path></g><path id="Vector 3908" stroke="#000000" stroke-linecap="round" stroke-linejoin="round" d="m9.5 13.5 -3 -3 4 -4h3v3l-4 4Z" stroke-width="1"></path><path id="Vector 3868" stroke="#000000" stroke-linecap="round" stroke-linejoin="round" d="M4.5 11.5h-3c-0.552285 0 -1 -0.4477 -1 -1v-9c0 -0.552285 0.447715 -1 1 -1h3.21922c0.45887 0 0.85885 0.312297 0.97015 0.75746L6 2.5h6.5c0.5523 0 1 0.44772 1 1v0.75" stroke-width="1"></path></g></svg>