<svg xmlns="http://www.w3.org/2000/svg" fill="none" viewBox="0 0 14 14"><g id="laptop-time--laptop-time-clock-timeout-timer-history-device-electronics-computer-notebook"><path id="Vector 3945" stroke="#000000" stroke-linecap="round" stroke-linejoin="round" d="M0.58541 12.3292 2 9.5h10l1.4146 2.8292c0.0562 0.1123 0.0854 0.2362 0.0854 0.3618 0 0.4468 -0.3622 0.809 -0.809 0.809H1.30902C0.862209 13.5 0.5 13.1378 0.5 12.691c0 -0.1256 0.029242 -0.2495 0.08541 -0.3618Z" stroke-width="1"></path><path id="Vector 3947" stroke="#000000" stroke-linecap="round" stroke-linejoin="round" d="M5.25 3.5H3c-0.55228 0 -1 0.44772 -1 1v5h10V8.375" stroke-width="1"></path><path id="Vector" stroke="#000000" stroke-linecap="round" stroke-linejoin="round" d="M10.5 6.5c1.6569 0 3 -1.34315 3 -3s-1.3431 -3 -3 -3c-1.65685 0 -3 1.34315 -3 3s1.34315 3 3 3Z" stroke-width="1"></path><path id="Vector_2" stroke="#000000" stroke-linecap="round" stroke-linejoin="round" d="M10.5 2.5v1.25l1 0.25" stroke-width="1"></path></g></svg>