<svg xmlns="http://www.w3.org/2000/svg" fill="none" viewBox="0 0 14 14"><g id="laptop-warning-1--laptop-warning-alert-device-electronics-computer-notebook"><path id="Vector 3945" stroke="#000000" stroke-linecap="round" stroke-linejoin="round" d="M0.58541 12.3292 2 9.5h10l1.4146 2.8292c0.0562 0.1123 0.0854 0.2362 0.0854 0.3618 0 0.4468 -0.3622 0.809 -0.809 0.809H1.30902C0.862209 13.5 0.5 13.1378 0.5 12.691c0 -0.1256 0.029242 -0.2495 0.08541 -0.3618Z" stroke-width="1"></path><path id="Vector 3947" stroke="#000000" stroke-linecap="round" stroke-linejoin="round" d="M9.5 3.5H3c-0.55228 0 -1 0.44772 -1 1v5h10V7.875" stroke-width="1"></path><path id="Vector" stroke="#000000" stroke-linecap="round" stroke-linejoin="round" d="M11.7686 0.5v3" stroke-width="1"></path><g id="Group 4768"><path id="Vector_2" stroke="#000000" stroke-linecap="round" stroke-linejoin="round" d="M11.7686 5.75c-0.1381 0 -0.25 -0.11193 -0.25 -0.25s0.1119 -0.25 0.25 -0.25" stroke-width="1"></path><path id="Vector_3" stroke="#000000" stroke-linecap="round" stroke-linejoin="round" d="M11.7686 5.75c0.138 0 0.25 -0.11193 0.25 -0.25s-0.112 -0.25 -0.25 -0.25" stroke-width="1"></path></g></g></svg>