<svg xmlns="http://www.w3.org/2000/svg" fill="none" viewBox="0 0 14 14"><g id="laptop-lock--laptop-lock-secure-padlock-security-device-electronics-computer-notebook"><path id="Vector 3945" stroke="#000000" stroke-linecap="round" stroke-linejoin="round" d="M0.58541 12.3292 2 9.5h10l1.4146 2.8292c0.0562 0.1123 0.0854 0.2362 0.0854 0.3618 0 0.4468 -0.3622 0.809 -0.809 0.809H1.30902C0.862209 13.5 0.5 13.1378 0.5 12.691c0 -0.1256 0.029242 -0.2495 0.08541 -0.3618Z" stroke-width="1"></path><path id="Vector 3947" stroke="#000000" stroke-linecap="round" stroke-linejoin="round" d="M6.5 3.5H3c-0.55228 0 -1 0.44772 -1 1v5h10v-0.375" stroke-width="1"></path><path id="Vector 3866" stroke="#000000" stroke-linecap="round" stroke-linejoin="round" d="M8.5 6.5011v-2.5c0 -0.27614 0.22386 -0.5 0.5 -0.5h4c0.2761 0 0.5 0.22386 0.5 0.5v2.5c0 0.27614 -0.2239 0.5 -0.5 0.5H9c-0.27614 0 -0.5 -0.22386 -0.5 -0.5Z" stroke-width="1"></path><path id="Vector 3864" stroke="#000000" stroke-linecap="round" stroke-linejoin="round" d="M9.25 3.5011v-1.25c0 -0.9665 0.7835 -1.750001 1.75 -1.750001s1.75 0.783501 1.75 1.750001v1.25" stroke-width="1"></path></g></svg>