<svg xmlns="http://www.w3.org/2000/svg" fill="none" viewBox="0 0 14 14"><g id="laptop-track--device-laptop-electronics-computer-location-pin-gps"><path id="Vector 3945" stroke="#000000" stroke-linecap="round" stroke-linejoin="round" d="M0.58541 12.3292 2 9.5h10l1.4146 2.8292c0.0562 0.1123 0.0854 0.2362 0.0854 0.3618 0 0.4468 -0.3622 0.809 -0.809 0.809H1.30902C0.862209 13.5 0.5 13.1378 0.5 12.691c0 -0.1256 0.029242 -0.2495 0.08541 -0.3618Z" stroke-width="1"></path><path id="Vector 3947" stroke="#000000" stroke-linecap="round" stroke-linejoin="round" d="M12 9.5H2v-5c0 -0.55228 0.44772 -1 1 -1h2.75" stroke-width="1"></path><path id="Vector" stroke="#000000" stroke-linecap="round" stroke-linejoin="round" d="M13.5 3.3125C13.5 4.86875 10.6875 8 10.6875 8S7.875 4.86875 7.875 3.3125c0 -0.74592 0.29632 -1.46129 0.82376 -1.98874C9.22621 0.796316 9.94158 0.5 10.6875 0.5c0.7459 0 1.4613 0.296316 1.9887 0.82376 0.5275 0.52745 0.8238 1.24282 0.8238 1.98874Z" stroke-width="1"></path><path id="Vector_2" stroke="#000000" stroke-linecap="round" stroke-linejoin="round" d="M10.6875 3.5c0.2761 0 0.5 -0.22386 0.5 -0.5s-0.2239 -0.5 -0.5 -0.5 -0.5 0.22386 -0.5 0.5 0.2239 0.5 0.5 0.5Z" stroke-width="1"></path></g></svg>