<svg xmlns="http://www.w3.org/2000/svg" fill="none" viewBox="0 0 14 14"><g id="leaf-protect--nature-environment-leaf-ecology-plant-plants-eco"><path id="Vector 3703" stroke="#000000" stroke-linecap="round" stroke-linejoin="round" d="M13 7.5H8c-0.27614 0 -0.5 0.22386 -0.5 0.5v1.33772c0 1.88848 1.20843 3.56508 3 4.16228 1.7916 -0.5972 3 -2.2738 3 -4.16228V8c0 -0.27614 -0.2239 -0.5 -0.5 -0.5Z" stroke-width="1"></path><path id="Vector" stroke="#000000" stroke-linecap="round" stroke-linejoin="round" d="M2.19011 13.13C3.04307 11.5729 3.98431 10.0743 5 8.62683" stroke-width="1"></path><path id="Vector_2" stroke="#000000" stroke-linecap="round" stroke-linejoin="round" d="M11.4368 5.39149c0.1122 -1.51124 0.0557 -2.92535 -0.0176 -3.88509 -0.0067 -0.16593 -0.0528 -0.3279 -0.1344 -0.47258 -0.0816 -0.144674 -0.1965 -0.267918 -0.3351 -0.359585 -0.1387 -0.091668 -0.2972 -0.149137 -0.4624 -0.167678 -0.1652 -0.018541 -0.3325 0.002376 -0.48808 0.06103 -2.15 0.619223 -6.63 2.167263 -8.51 4.823903 -2.000003 2.81645 -0.47 6.04241 0.27 7.30081 0.10851 0.176 0.25424 0.3262 0.42698 0.4401 0.17274 0.1138 0.36831 0.1886 0.57302 0.219 0.80208 0.1382 2.2651 0.2854 3.74078 -0.0872" stroke-width="1"></path></g></svg>