<svg xmlns="http://www.w3.org/2000/svg" fill="none" viewBox="0 0 14 14"><g id="life-on-land"><path id="Vector 556" stroke="#000000" stroke-linecap="round" stroke-linejoin="round" d="M4 7v2" stroke-width="1"></path><path id="Vector 857" stroke="#000000" stroke-linecap="round" stroke-linejoin="round" d="M1 13h12" stroke-width="1"></path><path id="Vector 858" stroke="#000000" stroke-linecap="round" stroke-linejoin="round" d="M1 10.5h12" stroke-width="1"></path><path id="Union" stroke="#000000" stroke-linecap="round" stroke-linejoin="round" d="M5.85594 2.92157C5.74251 1.84216 4.80374 1 3.66244 1c-1.21779 0 -2.205 0.95882 -2.205 2.14159 0 0.40488 0.11568 0.78351 0.31668 1.10642C1.31219 4.49954 1 4.97966 1 5.5306c0 0.81152 0.67734 1.46939 1.51289 1.46939 0.83347 0 1.37306 0.00001 2.24388 0.00001C5.99567 7 7 6.02455 7 4.82127c0 -0.81541 -0.4612 -1.52619 -1.14406 -1.8997Z" stroke-width="1"></path><path id="Vector 4589" stroke="#000000" stroke-linecap="round" stroke-linejoin="round" d="M8.5 1c1 0 1.5 1 1.5 1s0.5 -1 1.5 -1" stroke-width="1"></path><path id="Vector 4590" stroke="#000000" stroke-linecap="round" stroke-linejoin="round" d="M10 4c1 0 1.5 1 1.5 1S12 4 13 4" stroke-width="1"></path></g></svg>