<svg xmlns="http://www.w3.org/2000/svg" fill="none" viewBox="0 0 14 14"><g id="life-below-water"><path id="Vector" stroke="#000000" stroke-linecap="round" stroke-linejoin="round" d="M8 13c2.7614 0 5 -1.567 5 -3.5S10.7614 6 8 6c-1.94358 0 -3.62816 0.77627 -4.45551 1.91005C3.0142 7.06318 2.07287 6.5 1 6.5v6c1.07287 0 2.0142 -0.5632 2.54449 -1.41C4.37184 12.2237 6.05642 13 8 13Z" stroke-width="1"></path><g id="Group 4482"><path id="Vector_2" stroke="#000000" stroke-linecap="round" stroke-linejoin="round" d="M9.75 9.25c-0.13807 0 -0.25 -0.11193 -0.25 -0.25s0.11193 -0.25 0.25 -0.25" stroke-width="1"></path><path id="Vector_3" stroke="#000000" stroke-linecap="round" stroke-linejoin="round" d="M9.75 9.25c0.13807 0 0.25 -0.11193 0.25 -0.25s-0.11193 -0.25 -0.25 -0.25" stroke-width="1"></path></g><path id="Vector_4" stroke="#000000" stroke-linecap="round" stroke-linejoin="round" d="M1 2.58159c0.22731 0.10799 0.4816 0.16841 0.75 0.16841 0.9665 0 1.75 -0.7835 1.75 -1.75 0 0.9665 0.7835 1.75 1.75 1.75S7 1.9665 7 1c0 0.9665 0.7835 1.75 1.75 1.75S10.5 1.9665 10.5 1c0 0.9665 0.7835 1.75 1.75 1.75 0.2684 0 0.5227 -0.06042 0.75 -0.16841" stroke-width="1"></path></g></svg>