<svg xmlns="http://www.w3.org/2000/svg" fill="none" viewBox="0 0 14 14"><g id="lightning-cloud--cloud-bolt-storm-weather-thunder-meteorology-lightning"><path id="Vector 3669" stroke="#000000" stroke-linecap="round" stroke-linejoin="round" d="m8 7.5 -2 3h3l-2 3" stroke-width="1"></path><path id="Vector" stroke="#000000" stroke-linecap="round" stroke-linejoin="round" d="M11 9.5c0.663 0 1.2989 -0.26339 1.7678 -0.73223C13.2366 8.29893 13.5 7.66304 13.5 7c0 -0.66304 -0.2634 -1.29892 -0.7322 -1.76777C12.2989 4.76339 11.663 4.5 11 4.5c-0.5408 0.00072 -1.06692 0.17609 -1.5 0.5 0 -0.89001 -0.26392 -1.76004 -0.75838 -2.50006 -0.49447 -0.74003 -1.19728 -1.3168 -2.01954 -1.657396C5.89981 0.50195 4.99501 0.412835 4.1221 0.586468c-0.87292 0.173634 -1.67474 0.602212 -2.30408 1.231552C1.18869 2.44736 0.760102 3.24918 0.586468 4.1221 0.412835 4.99501 0.50195 5.89981 0.842544 6.72208c0.340596 0.82226 0.917366 1.52507 1.657396 2.01954 0.45879 0.30655 0.96755 0.52449 1.50006 0.64586" stroke-width="1"></path></g></svg>