<svg xmlns="http://www.w3.org/2000/svg" fill="none" viewBox="0 0 14 14"><g id="light-display-mode"><path id="Vector 3652" stroke="#000000" stroke-linecap="round" stroke-linejoin="round" d="M7 2.5V3" stroke-width="1"></path><path id="Vector 3653" stroke="#000000" stroke-linecap="round" stroke-linejoin="round" d="M7 11.5V11" stroke-width="1"></path><path id="Vector 3654" stroke="#000000" stroke-linecap="round" stroke-linejoin="round" d="M11.5 7H11" stroke-width="1"></path><path id="Vector 3655" stroke="#000000" stroke-linecap="round" stroke-linejoin="round" d="M2.5 7H3" stroke-width="1"></path><path id="Vector 3656" stroke="#000000" stroke-linecap="round" stroke-linejoin="round" d="m10.182 3.81799 -0.35355 0.35356" stroke-width="1"></path><path id="Vector 3657" stroke="#000000" stroke-linecap="round" stroke-linejoin="round" d="m3.81802 10.1819 0.35355 -0.35353" stroke-width="1"></path><path id="Vector 3658" stroke="#000000" stroke-linecap="round" stroke-linejoin="round" d="m10.182 10.1819 -0.35357 -0.35353" stroke-width="1"></path><path id="Vector 3659" stroke="#000000" stroke-linecap="round" stroke-linejoin="round" d="m3.81799 3.81799 0.35356 0.35356" stroke-width="1"></path><path id="Ellipse 1793" stroke="#000000" stroke-linecap="round" stroke-linejoin="round" d="M4.75 7a2.25 2.25 0 1 0 4.5 0 2.25 2.25 0 1 0 -4.5 0" stroke-width="1"></path><path id="Vector" stroke="#000000" stroke-linecap="round" stroke-linejoin="round" d="M7 13.5c3.5899 0 6.5 -2.9101 6.5 -6.5C13.5 3.41015 10.5899 0.5 7 0.5 3.41015 0.5 0.5 3.41015 0.5 7c0 3.5899 2.91015 6.5 6.5 6.5Z" stroke-width="1"></path></g></svg>