<svg xmlns="http://www.w3.org/2000/svg" fill="none" viewBox="0 0 14 14"><g id="like-2--reward-social-up-rating-media-like-thumb-hand"><path id="Vector" stroke="#000000" stroke-linecap="round" stroke-linejoin="round" d="M2.4975 5.73001h1.5l2.45 -3.94c0.09986 -0.15915 0.2385 -0.29034 0.4029 -0.38129 0.16441 -0.09094 0.34921 -0.13867 0.5371 -0.13871 0.29266 -0.00001 0.57349 0.11556 0.78137 0.32157 0.20788 0.20601 0.32599 0.48578 0.32863 0.77843v2.86h3.85c0.1661 0.00107 0.33 0.03779 0.4806 0.10767 0.1507 0.06988 0.2846 0.1713 0.3927 0.29739 0.108 0.12609 0.1878 0.27392 0.2338 0.43349 0.046 0.15958 0.0572 0.32717 0.0329 0.49145l-0.8 4.93999c-0.0341 0.2758 -0.1678 0.5296 -0.3759 0.7137 -0.2081 0.1842 -0.4762 0.286 -0.7541 0.2863h-9.06" stroke-width="1"></path><path id="Vector_2" stroke="#000000" stroke-linecap="round" stroke-linejoin="round" d="M0.5 12.5V5.72998" stroke-width="1"></path></g></svg>