<svg xmlns="http://www.w3.org/2000/svg" fill="none" viewBox="0 0 14 14"><g id="like-square--reward-social-up-rating-media-like-thumb-hand"><path id="Vector 4014" stroke="#000000" stroke-linecap="round" stroke-linejoin="round" d="M12 1H2c-0.55228 0 -1 0.44772 -1 1v10c0 0.5523 0.44772 1 1 1h10c0.5523 0 1 -0.4477 1 -1V2c0 -0.55228 -0.4477 -1 -1 -1Z" stroke-width="1"></path><path id="Vector" stroke="#000000" stroke-linecap="round" stroke-linejoin="round" d="m4 6 1.64 -2.66c0.06448 -0.10377 0.1543 -0.18943 0.26102 -0.24891 0.10671 -0.05948 0.22681 -0.09083 0.34898 -0.09109 0.19096 0 0.37409 0.07586 0.50912 0.21088 0.13502 0.13503 0.21088 0.31816 0.21088 0.50912v1.9h2.84c0.10777 0.00148 0.2139 0.02618 0.3113 0.0724 0.0974 0.04622 0.1836 0.11288 0.2529 0.19545 0.0693 0.08256 0.12 0.17908 0.1486 0.28299 0.0286 0.10392 0.0345 0.21277 0.0172 0.31916l-0.51 3.37c-0.0263 0.1776 -0.11549 0.3398 -0.25128 0.4573 -0.13578 0.1174 -0.30919 0.1822 -0.48872 0.1827H4" stroke-width="1"></path></g></svg>