<svg xmlns="http://www.w3.org/2000/svg" fill="none" viewBox="0 0 14 14"><g id="like-1--reward-social-up-rating-media-like-thumb-hand"><path id="Vector" stroke="#000000" stroke-linecap="round" stroke-linejoin="round" d="M0.99605 11.9047H3.46V5.64451H0.99605c-0.131561 0 -0.257733 0.05226 -0.35076 0.14529C0.552262 5.88283 0.5 6.009 0.5 6.14056v5.26804c0 0.1316 0.052262 0.2577 0.14529 0.3508 0.093027 0.093 0.219199 0.1453 0.35076 0.1453Z" stroke-width="1"></path><path id="Vector_2" stroke="#000000" stroke-linecap="round" stroke-linejoin="round" d="m3.46003 5.64457 2.5072 -4.02793c0.09766 -0.1592 0.23489 -0.2904 0.39832 -0.3808 0.16343 -0.09041 0.34749 -0.13695 0.53425 -0.13509 0.14709 -0.00531 0.29375 0.01892 0.43132 0.07126 0.13756 0.05234 0.26324 0.13172 0.3696 0.23346 0.10636 0.10174 0.19125 0.22376 0.24965 0.35887 0.05839 0.1351 0.08912 0.28054 0.09035 0.42772v2.88701H12.396c0.161 0.00522 0.319 0.04445 0.4637 0.1151 0.1447 0.07065 0.2727 0.17113 0.3758 0.29482 0.1031 0.1237 0.1788 0.26782 0.2222 0.42287 0.0434 0.15506 0.0535 0.31755 0.0296 0.47679l-0.7936 5.11925c-0.0339 0.2736 -0.1665 0.5254 -0.3729 0.7081 -0.2065 0.1826 -0.4725 0.2837 -0.7482 0.284H5.06442c-0.30982 0.0012 -0.61561 -0.0702 -0.89289 -0.2084l-0.71432 -0.3571" stroke-width="1"></path></g></svg>