<svg width="27" height="28" viewBox="0 0 27 28" fill="none" xmlns="http://www.w3.org/2000/svg">
<g clip-path="url(#clip0_245_458)">
<path d="M9.19421 20.8767H6.08268V10.8751H9.19421V20.8759V20.8767ZM7.63967 9.50952C6.6413 9.50952 5.83594 8.70171 5.83594 7.70661C5.83594 6.71151 6.64049 5.90451 7.63967 5.90451C8.63884 5.90451 9.44095 6.71232 9.44095 7.70661C9.44095 8.70171 8.63395 9.50952 7.63967 9.50952ZM20.8358 20.8767H17.7275V16.0135C17.7275 14.8539 17.7072 13.3621 16.1127 13.3621C14.5183 13.3621 14.2487 14.6259 14.2487 15.9305V20.8767H11.1437V10.8751H14.1233V12.2424H14.1657C14.5801 11.4558 15.594 10.6276 17.107 10.6276C20.2535 10.6276 20.835 12.6976 20.835 15.3922V20.8767H20.8358Z" fill="#E5E5E5"/>
</g>
<defs>
<clipPath id="clip0_245_458">
<rect width="26.6667" height="26.6667" fill="white" transform="translate(0 0.888885)"/>
</clipPath>
</defs>
</svg>
