<svg xmlns="http://www.w3.org/2000/svg" fill="none" viewBox="0 0 14 14"><g id="loading-horizontal-2--progress-loading-dot-load-wait-waiting"><path id="Vector" stroke="#000000" stroke-linecap="round" stroke-linejoin="round" d="M7 8.75c0.9665 0 1.75 -0.7835 1.75 -1.75S7.9665 5.25 7 5.25 5.25 6.0335 5.25 7 6.0335 8.75 7 8.75Z" stroke-width="1"></path><path id="Vector_2" stroke="#000000" stroke-linecap="round" stroke-linejoin="round" d="M12.25 8.25c0.6904 0 1.25 -0.55964 1.25 -1.25s-0.5596 -1.25 -1.25 -1.25S11 6.30964 11 7s0.5596 1.25 1.25 1.25Z" stroke-width="1"></path><path id="Vector_3" stroke="#000000" stroke-linecap="round" stroke-linejoin="round" d="M1.75 8.25C2.44036 8.25 3 7.69036 3 7s-0.55964 -1.25 -1.25 -1.25S0.5 6.30964 0.5 7s0.55964 1.25 1.25 1.25Z" stroke-width="1"></path></g></svg>