<svg xmlns="http://www.w3.org/2000/svg" fill="none" viewBox="0 0 14 14"><g id="loading-horizontal-1--progress-loading-line-load-wait-waiting"><path id="Vector 4036" stroke="#000000" stroke-linecap="round" stroke-linejoin="round" d="M13.5 3v8" stroke-width="1"></path><path id="Vector 4034" stroke="#000000" stroke-linecap="round" stroke-linejoin="round" d="M0.5 10V4c0 -0.55228 0.447715 -1 1 -1h3c0.55228 0 1 0.44772 1 1v6c0 0.5523 -0.44772 1 -1 1h-3c-0.552285 0 -1 -0.4477 -1 -1Z" stroke-width="1"></path><path id="Vector 4035" stroke="#000000" stroke-linecap="round" stroke-linejoin="round" d="M8 10V4c0 -0.55228 0.44772 -1 1 -1h1c0.5523 0 1 0.44772 1 1v6c0 0.5523 -0.4477 1 -1 1H9c-0.55228 0 -1 -0.4477 -1 -1Z" stroke-width="1"></path></g></svg>