<svg xmlns="http://www.w3.org/2000/svg" fill="none" viewBox="0 0 14 14"><g id="location-pin-mark-help"><path id="Vector" stroke="#000000" stroke-linecap="round" stroke-linejoin="round" d="M5.5 5c0 -0.29667 0.08797 -0.58668 0.2528 -0.83335 0.16482 -0.24668 0.39909 -0.43894 0.67317 -0.55247 0.27409 -0.11353 0.57569 -0.14324 0.86667 -0.08536 0.29097 0.05788 0.55824 0.20074 0.76802 0.41052 0.20978 0.20978 0.35264 0.47705 0.41052 0.76803 0.05788 0.29097 0.02817 0.59257 -0.08536 0.86666 -0.11353 0.27409 -0.30579 0.50835 -0.55246 0.67318C7.58668 6.41203 7.29667 6.5 7 6.5v1" stroke-width="1"></path><g id="Group 2631"><path id="Vector_2" stroke="#000000" stroke-linecap="round" stroke-linejoin="round" d="M7.00195 10c-0.13807 0 -0.25 -0.11193 -0.25 -0.25s0.11193 -0.25 0.25 -0.25" stroke-width="1"></path><path id="Vector_3" stroke="#000000" stroke-linecap="round" stroke-linejoin="round" d="M7.00195 10c0.13807 0 0.25 -0.11193 0.25 -0.25s-0.11193 -0.25 -0.25 -0.25" stroke-width="1"></path></g><path id="Ellipse 1691" stroke="#000000" stroke-linecap="round" stroke-linejoin="round" d="M12.5 6c0 3.52712 -4.08207 6.6655 -5.04723 7.3582 -0.13243 0.0951 -0.28976 0.1418 -0.45277 0.1418v0c-0.16301 0 -0.32034 -0.0467 -0.45277 -0.1418C5.58207 12.6655 1.5 9.52712 1.5 6 1.5 2.96243 3.96243 0.5 7 0.5c3.0376 0 5.5 2.46243 5.5 5.5Z" stroke-width="1"></path></g></svg>