<svg xmlns="http://www.w3.org/2000/svg" fill="none" viewBox="0 0 14 14"><g id="location-pin-money-atm-1"><path id="Ellipse 1691" stroke="#000000" stroke-linecap="round" stroke-linejoin="round" d="M12.5 6c0 3.52712 -4.08207 6.6655 -5.04723 7.3582 -0.13243 0.0951 -0.28976 0.1418 -0.45277 0.1418v0c-0.16301 0 -0.32034 -0.0467 -0.45277 -0.1418C5.58207 12.6655 1.5 9.52712 1.5 6 1.5 2.96243 3.96243 0.5 7 0.5c3.0376 0 5.5 2.46243 5.5 5.5Z" stroke-width="1"></path><path id="Vector" stroke="#000000" stroke-linecap="round" stroke-linejoin="round" d="M7 4V3" stroke-width="1"></path><path id="Vector_2" stroke="#000000" stroke-linecap="round" stroke-linejoin="round" d="M7 8.5v1" stroke-width="1"></path><path id="Vector 3" stroke="#000000" stroke-linecap="round" stroke-linejoin="round" d="M8.43599 4.75c-0.04939 -0.13973 -0.1256 -0.26679 -0.22245 -0.375C8.00754 4.14484 7.70819 4 7.375 4h-0.87079C5.9496 4 5.5 4.4496 5.5 5.00421c0 0.47192 0.3286 0.88017 0.78961 0.98102l1.3258 0.29001c0.51647 0.11298 0.88459 0.57067 0.88459 1.09935C8.5 7.99591 7.99632 8.5 7.375 8.5h-0.75c-0.48983 0 -0.90655 -0.31305 -1.06099 -0.75" stroke-width="1"></path></g></svg>