<svg xmlns="http://www.w3.org/2000/svg" fill="none" viewBox="0 0 14 14"><g id="location-home--travel-places-location-home"><path id="Ellipse 1696" stroke="#000000" stroke-linecap="round" stroke-linejoin="round" d="M13.5 9c0 2.5 -3 4.5 -3 4.5s-3 -2 -3 -4.5c0 -1.65685 1.34315 -3 3 -3 1.6569 0 3 1.34315 3 3Z" stroke-width="1"></path><path id="Vector" stroke="#000000" stroke-linecap="round" stroke-linejoin="round" d="M10.5 9.5c0.2761 0 0.5 -0.22386 0.5 -0.5s-0.2239 -0.5 -0.5 -0.5 -0.5 0.22386 -0.5 0.5 0.2239 0.5 0.5 0.5Z" stroke-width="1"></path><path id="Vector 3721" stroke="#000000" stroke-linecap="round" stroke-linejoin="round" d="M6.5 12.5h-5c-0.552285 0 -1 -0.4477 -1 -1V6.4399c0 -0.2803 0.117646 -0.54774 0.324275 -0.73715L6.5 0.5 10 3.70833" stroke-width="1"></path></g></svg>