<svg xmlns="http://www.w3.org/2000/svg" fill="none" viewBox="0 0 14 14"><g id="location-person-pin"><path id="Ellipse 1691" stroke="#000000" stroke-linecap="round" stroke-linejoin="round" d="M12.5 6c0 3.52712 -4.08207 6.6655 -5.04723 7.3582 -0.13243 0.0951 -0.28976 0.1418 -0.45277 0.1418v0c-0.16301 0 -0.32034 -0.0467 -0.45277 -0.1418C5.58207 12.6655 1.5 9.52712 1.5 6 1.5 2.96243 3.96243 0.5 7 0.5c3.0376 0 5.5 2.46243 5.5 5.5Z" stroke-width="1"></path><path id="Vector" stroke="#000000" stroke-linecap="round" stroke-linejoin="round" d="M7 6c0.82843 0 1.5 -0.67157 1.5 -1.5S7.82843 3 7 3s-1.5 0.67157 -1.5 1.5S6.17157 6 7 6Z" stroke-width="1"></path><path id="Vector_2" stroke="#000000" stroke-linecap="round" stroke-linejoin="round" d="M5 8.26389C5.53076 7.78885 6.23165 7.5 7 7.5c0.76835 0 1.46924 0.28885 2 0.76389" stroke-width="1"></path></g></svg>