<svg xmlns="http://www.w3.org/2000/svg" fill="none" viewBox="0 0 14 14"><g id="location-company-building-pin"><path id="Vector 1309" stroke="#000000" stroke-linecap="round" stroke-linejoin="round" d="M7 7.5 7 9" stroke-width="1"></path><path id="Vector 1312" stroke="#000000" stroke-linecap="round" stroke-linejoin="round" d="M9 9H5c-0.27614 0 -0.5 -0.22386 -0.5 -0.5V4c0 -0.55228 0.44772 -1 1 -1h3c0.55228 0 1 0.44772 1 1v4.5c0 0.27614 -0.22386 0.5 -0.5 0.5Z" stroke-width="1"></path><path id="Ellipse 1691" stroke="#000000" stroke-linecap="round" stroke-linejoin="round" d="M12.5 6c0 3.52712 -4.08207 6.6655 -5.04723 7.3582 -0.13243 0.0951 -0.28976 0.1418 -0.45277 0.1418v0c-0.16301 0 -0.32034 -0.0467 -0.45277 -0.1418C5.58207 12.6655 1.5 9.52712 1.5 6 1.5 2.96243 3.96243 0.5 7 0.5c3.0376 0 5.5 2.46243 5.5 5.5Z" stroke-width="1"></path></g></svg>