<svg xmlns="http://www.w3.org/2000/svg" fill="none" viewBox="0 0 14 14"><g id="locker-room-man"><path id="Ellipse 1977" stroke="#000000" stroke-linecap="round" stroke-linejoin="round" d="M8.75 1.75C8.75 1.05964 9.30964 0.5 10 0.5c0.6904 0 1.25 0.55964 1.25 1.25S10.6904 3 10 3v0.5" stroke-width="1"></path><path id="Vector 4957" stroke="#000000" stroke-linecap="round" stroke-linejoin="round" d="M9.5 6.5h3.3672c0.3495 0 0.6328 -0.28331 0.6328 -0.63278 0 -0.22708 -0.1217 -0.43675 -0.3189 -0.54941L9.99997 3.5 8.5 4.35713" stroke-width="1"></path><path id="Vector" stroke="#000000" stroke-linecap="round" stroke-linejoin="round" d="M4 4c0.9665 0 1.75 -0.7835 1.75 -1.75S4.9665 0.5 4 0.5s-1.75 0.7835 -1.75 1.75S3.0335 4 4 4Z" stroke-width="1"></path><path id="Vector 3811" stroke="#000000" stroke-linecap="round" stroke-linejoin="round" d="M0.5 9.25H2l0.5 4.25h3L6 9.25h1.5V7.5C7.5 5.567 5.933 4 4 4S0.5 5.567 0.5 7.5v1.75Z" stroke-width="1"></path></g></svg>