<svg xmlns="http://www.w3.org/2000/svg" fill="none" viewBox="0 0 14 14"><g id="locker-room-women"><path id="Ellipse 1977" stroke="#000000" stroke-linecap="round" stroke-linejoin="round" d="M8.75 1.75C8.75 1.05964 9.30964 0.5 10 0.5c0.6904 0 1.25 0.55964 1.25 1.25S10.6904 3 10 3v0.5" stroke-width="1"></path><path id="Vector 4957" stroke="#000000" stroke-linecap="round" stroke-linejoin="round" d="M9.13281 6.5h3.73439c0.3495 0 0.6328 -0.28331 0.6328 -0.63278 0 -0.22708 -0.1217 -0.43675 -0.3188 -0.54941L10 3.5 7.91052 4.694" stroke-width="1"></path><path id="Vector 4945" stroke="#000000" stroke-linecap="round" stroke-linejoin="round" d="m2.5 13.5 -0.25 -3.25H0.999997c-0.276141 0 -0.500671 -0.2226 -0.488067 -0.49848C0.602412 7.77122 1.25363 4 4 4c2.74637 0 3.39758 3.77122 3.48807 5.75152 0.0126 0.27588 -0.21193 0.49848 -0.48807 0.49848H5.75L5.5 13.5h-3Z" stroke-width="1"></path><path id="Vector" stroke="#000000" stroke-linecap="round" stroke-linejoin="round" d="M4 4c0.9665 0 1.75 -0.7835 1.75 -1.75S4.9665 0.5 4 0.5s-1.75 0.7835 -1.75 1.75S3.0335 4 4 4Z" stroke-width="1"></path></g></svg>