<svg xmlns="http://www.w3.org/2000/svg" fill="none" viewBox="0 0 14 14"><g id="love-hand"><path id="Vector 2004" stroke="#000000" stroke-linecap="round" stroke-linejoin="round" d="m2.79565 13.5 -0.7 -0.9333c-0.51928 -0.6924 -0.8 -1.5346 -0.8 -2.4V3.75c0 -0.69036 0.55965 -1.25 1.25 -1.25v0c0.69036 0 1.25 0.55964 1.25 1.25V6.5c1.49164 -0.66979 1.85984 -0.73643 3.5 -0.5V1.75c0 -0.69036 0.55965 -1.25 1.25 -1.25v0c0.69036 0 1.25 0.55964 1.25 1.25v7.23675" stroke-width="1"></path><path id="Vector 2005" stroke="#000000" stroke-linecap="round" stroke-linejoin="round" d="M9.30012 13.5c0.80758 -0.5384 1.56598 -1.5923 2.13918 -2.3949l1.3349 -1.86891c0.3131 -0.43832 0.3062 -1.02893 -0.017 -1.45985 -0.4847 -0.64633 -1.4491 -0.66138 -1.9538 -0.03049l-1.00328 1.2542c-0.5 0 -1.7 0.2 -2.5 0.99995" stroke-width="1"></path></g></svg>