<svg xmlns="http://www.w3.org/2000/svg" fill="none" viewBox="0 0 14 14"><g id="machine-learning--learning-artificial-robotics-intelligence-machine-technology"><path id="Vector" stroke="#000000" stroke-linecap="round" stroke-linejoin="round" d="M2.38462 3.76923c0.7647 0 1.38461 -0.61991 1.38461 -1.38461C3.76923 1.61991 3.14932 1 2.38462 1 1.61991 1 1 1.61991 1 2.38462c0 0.7647 0.61991 1.38461 1.38462 1.38461Z" stroke-width="1"></path><path id="Vector_2" stroke="#000000" stroke-linecap="round" stroke-linejoin="round" d="M6.99985 3.76923c0.7647 0 1.38462 -0.61991 1.38462 -1.38461C8.38447 1.61991 7.76455 1 6.99985 1c-0.7647 0 -1.38462 0.61991 -1.38462 1.38462 0 0.7647 0.61992 1.38461 1.38462 1.38461Z" stroke-width="1"></path><path id="Vector_3" stroke="#000000" stroke-linecap="round" stroke-linejoin="round" d="M11.6156 3.76923c0.7647 0 1.3846 -0.61991 1.3846 -1.38461C13.0002 1.61991 12.3803 1 11.6156 1s-1.3846 0.61991 -1.3846 1.38462c0 0.7647 0.6199 1.38461 1.3846 1.38461Z" stroke-width="1"></path><path id="Vector_4" stroke="#000000" stroke-linecap="round" stroke-linejoin="round" d="M2.38462 8.38459c0.7647 0 1.38461 -0.61992 1.38461 -1.38462 0 -0.7647 -0.61991 -1.38461 -1.38461 -1.38461C1.61991 5.61536 1 6.23527 1 6.99997c0 0.7647 0.61991 1.38462 1.38462 1.38462Z" stroke-width="1"></path><path id="Vector_5" stroke="#000000" stroke-linecap="round" stroke-linejoin="round" d="M6.99985 8.38459c0.7647 0 1.38462 -0.61992 1.38462 -1.38462 0 -0.7647 -0.61992 -1.38461 -1.38462 -1.38461 -0.7647 0 -1.38462 0.61991 -1.38462 1.38461 0 0.7647 0.61992 1.38462 1.38462 1.38462Z" stroke-width="1"></path><path id="Vector_6" stroke="#000000" stroke-linecap="round" stroke-linejoin="round" d="M11.6156 8.38459c0.7647 0 1.3846 -0.61992 1.3846 -1.38462 0 -0.7647 -0.6199 -1.38461 -1.3846 -1.38461s-1.3846 0.61991 -1.3846 1.38461c0 0.7647 0.6199 1.38462 1.3846 1.38462Z" stroke-width="1"></path><path id="Vector_7" stroke="#000000" stroke-linecap="round" stroke-linejoin="round" d="M2.38462 12.9999c0.7647 0 1.38461 -0.6199 1.38461 -1.3846s-0.61991 -1.3846 -1.38461 -1.3846C1.61991 10.2307 1 10.8506 1 11.6153s0.61991 1.3846 1.38462 1.3846Z" stroke-width="1"></path><path id="Vector_8" stroke="#000000" stroke-linecap="round" stroke-linejoin="round" d="M6.99985 12.9999c0.7647 0 1.38462 -0.6199 1.38462 -1.3846s-0.61992 -1.3846 -1.38462 -1.3846c-0.7647 0 -1.38462 0.6199 -1.38462 1.3846s0.61992 1.3846 1.38462 1.3846Z" stroke-width="1"></path><path id="Vector_9" stroke="#000000" stroke-linecap="round" stroke-linejoin="round" d="M11.6156 12.9999c0.7647 0 1.3846 -0.6199 1.3846 -1.3846s-0.6199 -1.3846 -1.3846 -1.3846 -1.3846 0.6199 -1.3846 1.3846 0.6199 1.3846 1.3846 1.3846Z" stroke-width="1"></path><path id="Vector_10" stroke="#000000" stroke-linecap="round" stroke-linejoin="round" d="m3.36328 3.36316 2.65846 2.65846" stroke-width="1"></path><path id="Vector_11" stroke="#000000" stroke-linecap="round" stroke-linejoin="round" d="m3.36328 10.637 2.65846 -2.65848" stroke-width="1"></path><path id="Vector_12" stroke="#000000" stroke-linecap="round" stroke-linejoin="round" d="M7.97852 6.02162 10.637 3.36316" stroke-width="1"></path></g></svg>