<svg xmlns="http://www.w3.org/2000/svg" fill="none" viewBox="0 0 14 14"><g id="mail-loading--inbox-envelope-email-message-refresh"><path id="Ellipse 1800" stroke="#000000" stroke-linecap="round" stroke-linejoin="round" d="M10 8.5c1.3807 0 2.5 1.11929 2.5 2.5v1.5" stroke-width="1"></path><path id="Ellipse 1801" stroke="#000000" stroke-linecap="round" stroke-linejoin="round" d="M10 13.5c-1.38071 0 -2.5 -1.1193 -2.5 -2.5V9.5" stroke-width="1"></path><path id="Vector 3990" stroke="#000000" stroke-linecap="round" stroke-linejoin="round" d="m6.5 10.5 1 -1 1 1" stroke-width="1"></path><path id="Vector 3989" stroke="#000000" stroke-linecap="round" stroke-linejoin="round" d="m11.5 11.5 1 1 1 -1" stroke-width="1"></path><path id="Vector 3966" stroke="#000000" stroke-linecap="round" stroke-linejoin="round" d="m0.5 2 6 4 6 -4" stroke-width="1"></path><path id="Vector 3967" stroke="#000000" stroke-linecap="round" stroke-linejoin="round" d="M4.5 9.5h-3c-0.552285 0 -1 -0.44772 -1 -1v-7c0 -0.552285 0.447715 -1 1 -1h10c0.5523 0 1 0.447715 1 1V7" stroke-width="1"></path></g></svg>