<svg xmlns="http://www.w3.org/2000/svg" fill="none" viewBox="0 0 14 14"><g id="man-arm-raises-2-alternate--man-raise-arm-scaning-detect-posture-security"><path id="Vector 5030" stroke="#000000" stroke-linecap="round" stroke-linejoin="round" d="M4.93366 12.5712 4.5 6.5l-2.01291 -0.67097C1.89761 5.63254 1.5 5.08088 1.5 4.45951c0 -0.69092 0.70966 -1.16564 1.35974 -0.9316C4.05975 3.95992 5.79991 4.5 7 4.5c1.20009 0 2.94025 -0.54008 4.1403 -0.97209 0.65 -0.23404 1.3597 0.24068 1.3597 0.9316 0 0.62137 -0.3976 1.17303 -0.9871 1.36952L9.5 6.5l-0.43366 6.0712c-0.03738 0.5234 -0.47282 0.9288 -0.99746 0.9288H5.93112c-0.52464 0 -0.96008 -0.4054 -0.99746 -0.9288Z" stroke-width="1"></path><path id="Vector" stroke="#000000" stroke-linecap="round" stroke-linejoin="round" d="M7 4.5c1.10457 0 2 -0.89543 2 -2s-0.89543 -2 -2 -2 -2 0.89543 -2 2 0.89543 2 2 2Z" stroke-width="1"></path><path id="Vector 26" stroke="#000000" stroke-linecap="round" stroke-linejoin="round" d="M7 13.5v-4" stroke-width="1"></path></g></svg>