<svg xmlns="http://www.w3.org/2000/svg" fill="none" viewBox="0 0 14 14"><g id="map-search--map-search-magnifier-navigation-gps-travel"><path id="vector" stroke="#000000" stroke-linecap="round" stroke-linejoin="round" d="M9.5 12.5c1.6569 0 3 -1.3431 3 -3 0 -1.65685 -1.3431 -3 -3 -3 -1.65685 0 -3 1.34315 -3 3 0 1.6569 1.34315 3 3 3Z" stroke-width="1"></path><path id="vector_2" stroke="#000000" stroke-linecap="round" stroke-linejoin="round" d="m13.5 13.5 -1.8787 -1.8787" stroke-width="1"></path><path id="Vector 3975" stroke="#000000" stroke-linecap="round" stroke-linejoin="round" d="M8.5 1.5v2.8055" stroke-width="1"></path><path id="Vector 3974" stroke="#000000" stroke-linecap="round" stroke-linejoin="round" d="M4.5 0.5v11" stroke-width="1"></path><path id="Vector 3976" stroke="#000000" stroke-linecap="round" stroke-linejoin="round" d="m4.5 11.5 -2.75746 0.6894C1.11139 12.3472 0.5 11.8698 0.5 11.2192V2.28078c0 -0.45887 0.312297 -0.85885 0.75746 -0.97015L4.5 0.5l4 1 2.7575 -0.689366C11.8886 0.652847 12.5 1.13021 12.5 1.78078v3.38363" stroke-width="1"></path></g></svg>