<svg xmlns="http://www.w3.org/2000/svg" fill="none" viewBox="0 0 14 14"><g id="map-location--map-location-pin-navigation-gps-travel"><path id="Ellipse 1696" stroke="#000000" stroke-linecap="round" stroke-linejoin="round" d="M13.5 9c0 2.5 -3 4.5 -3 4.5s-3 -2 -3 -4.5c0 -1.65685 1.34315 -3 3 -3 1.6569 0 3 1.34315 3 3Z" stroke-width="1"></path><path id="Vector" stroke="#000000" stroke-linecap="round" stroke-linejoin="round" d="M10.5 9.5c0.2761 0 0.5 -0.22386 0.5 -0.5s-0.2239 -0.5 -0.5 -0.5 -0.5 0.22386 -0.5 0.5 0.2239 0.5 0.5 0.5Z" stroke-width="1"></path><path id="Vector 3975" stroke="#000000" stroke-linecap="round" stroke-linejoin="round" d="M8.5 1.5V4" stroke-width="1"></path><path id="Vector 3974" stroke="#000000" stroke-linecap="round" stroke-linejoin="round" d="M4.5 0.5v11" stroke-width="1"></path><path id="Vector 3976" stroke="#000000" stroke-linecap="round" stroke-linejoin="round" d="M12.5 4V1.78078c0 -0.65057 -0.6114 -1.127933 -1.2425 -0.970146L8.5 1.5l-4 -1 -3.24254 0.81063C0.812297 1.42193 0.5 1.82191 0.5 2.28078v8.93842c0 0.6506 0.61139 1.128 1.24254 0.9702L4.5 11.5l1.7417 0.4354" stroke-width="1"></path></g></svg>