<svg xmlns="http://www.w3.org/2000/svg" fill="none" viewBox="0 0 14 14"><g id="map-location-star-pin"><path id="Ellipse 1691" stroke="#000000" stroke-linecap="round" stroke-linejoin="round" d="M12.5 6c0 3.52712 -4.08207 6.6655 -5.04723 7.3582 -0.13243 0.0951 -0.28976 0.1418 -0.45277 0.1418v0c-0.16301 0 -0.32034 -0.0467 -0.45277 -0.1418C5.58207 12.6655 1.5 9.52712 1.5 6 1.5 2.96243 3.96243 0.5 7 0.5c3.0376 0 5.5 2.46243 5.5 5.5Z" stroke-width="1"></path><path id="Vector" stroke="#000000" stroke-linecap="round" stroke-linejoin="round" d="m7.21025 3.37887 0.70742 1.42308c0.01582 0.036 0.04091 0.06714 0.0727 0.09027 0.0318 0.02312 0.06916 0.03739 0.10827 0.04135l1.57115 0.23855c0.04492 0.00584 0.08724 0.02436 0.12202 0.05337 0.03479 0.02902 0.06059 0.06734 0.0744 0.11048 0.0138 0.04314 0.01504 0.08932 0.00356 0.13314 -0.01147 0.04382 -0.03519 0.08347 -0.06837 0.1143L8.64155 6.68568c-0.01729 0.03299 -0.02633 0.06969 -0.02633 0.10694 0 0.03725 0.00904 0.07394 0.02633 0.10694l0.2221 1.56292c0.00948 0.04517 0.00564 0.09213 -0.01104 0.13517 -0.01667 0.04304 -0.04548 0.08031 -0.08292 0.10731 -0.03745 0.02699 -0.08192 0.04254 -0.12802 0.04476 -0.04611 0.00223 -0.09187 -0.00898 -0.13173 -0.03224l-1.3984 -0.74033c-0.0362 -0.01636 -0.07545 -0.02481 -0.11517 -0.02481 -0.03971 0 -0.07897 0.00845 -0.11516 0.02481l-1.3984 0.74033c-0.03987 0.02326 -0.08563 0.03447 -0.13173 0.03224 -0.04611 -0.00222 -0.09058 -0.01777 -0.12802 -0.04476 -0.03744 -0.027 -0.06625 -0.06427 -0.08293 -0.10731 -0.01668 -0.04304 -0.02051 -0.09 -0.01103 -0.13517l0.26322 -1.56292c0.01132 -0.03628 0.01349 -0.07479 0.00631 -0.11211 -0.00717 -0.03732 -0.02347 -0.07228 -0.04744 -0.10177L4.19134 5.57519c-0.03076 -0.03117 -0.05235 -0.0702 -0.06241 -0.11282 -0.01005 -0.04262 -0.00818 -0.08719 0.00541 -0.12882 0.01359 -0.04163 0.03838 -0.07871 0.07165 -0.10718 0.03327 -0.02848 0.07374 -0.04725 0.11697 -0.05425l1.57114 -0.23033c0.03912 -0.00395 0.07648 -0.01822 0.10827 -0.04135 0.0318 -0.02312 0.05689 -0.05427 0.0727 -0.09026L6.7825 3.3871c0.01893 -0.04028 0.04875 -0.07447 0.0861 -0.09869 0.03734 -0.02422 0.08071 -0.03751 0.12522 -0.03837 0.0445 -0.00085 0.08835 0.01076 0.1266 0.03353 0.03825 0.02276 0.06936 0.05578 0.08983 0.0953Z" stroke-width="1"></path></g></svg>