<svg xmlns="http://www.w3.org/2000/svg" fill="none" viewBox="0 0 14 14"><g id="meat--cook-meat-cown-slice-organic-cooking-nutrition-food"><path id="Ellipse 1832" stroke="#000000" stroke-linecap="round" stroke-linejoin="round" d="M1 4c0 1.65685 1.34315 3 3 3h2.5l1.12981 1.69472C8.17346 9.51019 9.08868 10 10.0688 10 11.6876 10 13 8.68764 13 7.06876V6c0 -2.76142 -2.2386 -5 -5 -5H4C2.34315 1 1 2.34315 1 4Z" stroke-width="1"></path><path id="Ellipse 1833" stroke="#000000" stroke-linecap="round" stroke-linejoin="round" d="M13 6.5v3.5821C13 11.6936 11.6936 13 10.0821 13v0c-1.30077 0 -2.5155 -0.6501 -3.23706 -1.7324L6 10H4c-1.65685 0 -3 -1.34315 -3 -3V4" stroke-width="1"></path><path id="Ellipse 1831" stroke="#000000" stroke-linecap="round" stroke-linejoin="round" d="M3.5 4a0.5 0.5 0 1 0 1 0 0.5 0.5 0 1 0 -1 0" stroke-width="1"></path></g></svg>