<svg xmlns="http://www.w3.org/2000/svg" fill="none" viewBox="0 0 14 14"><g id="medicines--health-medical-hospital-medicine-capsule-pill"><path id="Vector" stroke="#000000" stroke-linecap="round" stroke-linejoin="round" d="M9.25003 6.23c0.4711 -0.44532 1.09727 -0.68937 1.74547 -0.68025 0.6482 0.00911 1.2673 0.27066 1.7257 0.72905 0.4584 0.4584 0.72 1.07749 0.7291 1.7257 0.0091 0.6482 -0.2349 1.2744 -0.6803 1.7455l-2.99997 3c-0.46848 0.4484 -1.09344 0.6964 -1.74194 0.6912 -0.64849 -0.0053 -1.26936 -0.2633 -1.73053 -0.7193 -0.46116 -0.4559 -0.72625 -1.0738 -0.73886 -1.7222 -0.01261 -0.6484 0.22824 -1.27615 0.67133 -1.7497l3.02 -3.02Z" stroke-width="1"></path><path id="Vector_2" stroke="#000000" stroke-linecap="round" stroke-linejoin="round" d="M7.89001 7.59 11.41 11.11" stroke-width="1"></path><path id="Vector_3" stroke="#000000" stroke-linecap="round" stroke-linejoin="round" d="M4 7.5c1.933 0 3.5 -1.567 3.5 -3.5S5.933 0.5 4 0.5 0.5 2.067 0.5 4 2.067 7.5 4 7.5Z" stroke-width="1"></path><path id="Vector_4" stroke="#000000" stroke-linecap="round" stroke-linejoin="round" d="M0.5 4h7" stroke-width="1"></path></g></svg>