<svg xmlns="http://www.w3.org/2000/svg" fill="none" viewBox="0 0 14 14"><g id="meeting-room"><path id="Vector 4964" stroke="#000000" stroke-linecap="round" stroke-linejoin="round" d="M5 12.5 3.5 9.49999H1.88743c-0.68256 0 -1.164531 -0.6687 -0.948687 -1.31623L2.02553 4.9234" stroke-width="1"></path><path id="Vector 4965" stroke="#000000" stroke-linecap="round" stroke-linejoin="round" d="m9 12.5 1.5 -3.00001h1.6126c0.6825 0 1.1645 -0.6687 0.9487 -1.31623L11.9745 4.9234" stroke-width="1"></path><path id="Vector 4966" stroke="#000000" stroke-linecap="round" stroke-linejoin="round" d="M4 7h6" stroke-width="1"></path><path id="Vector 4967" stroke="#000000" stroke-linecap="round" stroke-linejoin="round" d="M7 7v5.5" stroke-width="1"></path><path id="Ellipse 1981" stroke="#000000" stroke-linecap="round" stroke-linejoin="round" d="M1 3.5a1.5 1.5 0 1 0 3 0 1.5 1.5 0 1 0 -3 0" stroke-width="1"></path><path id="Ellipse 1982" stroke="#000000" stroke-linecap="round" stroke-linejoin="round" d="M10 3.5a1.5 1.5 0 1 0 3 0 1.5 1.5 0 1 0 -3 0" stroke-width="1"></path></g></svg>