<svg xmlns="http://www.w3.org/2000/svg" fill="none" viewBox="0 0 14 14"><g id="microphone-setting-gear"><path id="Vector" stroke="#000000" stroke-linecap="round" stroke-linejoin="round" d="m9.68529 7.95392 0.21199 -0.54722c0.03575 -0.09265 0.09865 -0.17234 0.18042 -0.22864 0.0818 -0.0563 0.1787 -0.08658 0.2781 -0.08687h0.4042c0.0993 0.00029 0.1962 0.03057 0.278 0.08687 0.0818 0.0563 0.1447 0.13599 0.1805 0.22864l0.212 0.54722 0.7197 0.41411 0.5818 -0.08874c0.0968 -0.01315 0.1954 0.0028 0.2832 0.04581 0.0878 0.04301 0.1608 0.11115 0.2098 0.19576l0.1972 0.34509c0.0505 0.08595 0.0738 0.1852 0.0667 0.28466 -0.007 0.09946 -0.0441 0.19444 -0.1062 0.27242l-0.3599 0.45848v0.82819l0.3698 0.4585c0.0621 0.078 0.0991 0.173 0.1062 0.2724 0.007 0.0995 -0.0163 0.1987 -0.0668 0.2847l-0.1972 0.3451c-0.0489 0.0846 -0.122 0.1527 -0.2097 0.1957 -0.0878 0.043 -0.1864 0.059 -0.2833 0.0458l-0.5817 -0.0887 -0.7198 0.4141 -0.212 0.5472c-0.0357 0.0927 -0.0986 0.1724 -0.1804 0.2287 -0.0818 0.0563 -0.1787 0.0866 -0.278 0.0868h-0.4141c-0.0994 -0.0002 -0.1963 -0.0305 -0.2781 -0.0868 -0.08177 -0.0563 -0.14467 -0.136 -0.18042 -0.2287l-0.21199 -0.5472 -0.71976 -0.4141 -0.58173 0.0887c-0.09686 0.0132 -0.19545 -0.0028 -0.28323 -0.0458 -0.08778 -0.043 -0.16079 -0.1111 -0.20976 -0.1957l-0.1972 -0.3451c-0.05053 -0.086 -0.07381 -0.1852 -0.06677 -0.2847 0.00705 -0.0994 0.04408 -0.1944 0.10621 -0.2724l0.35989 -0.4585v-0.82819l-0.36975 -0.45848c-0.06213 -0.07798 -0.09916 -0.17296 -0.10621 -0.27242 -0.00704 -0.09946 0.01624 -0.19871 0.06677 -0.28466l0.1972 -0.34509c0.04897 -0.08461 0.12198 -0.15275 0.20976 -0.19576 0.08778 -0.04301 0.18637 -0.05896 0.28323 -0.04581l0.58173 0.08874 0.72962 -0.41411Z" stroke-width="1"></path><path id="Ellipse 1473" stroke="#000000" stroke-linecap="round" stroke-linejoin="round" d="M10.068 10.296a0.49 0.49 0 1 0 0.98 0 0.49 0.49 0 1 0 -0.98 0" stroke-width="1"></path><path id="Vector_2" stroke="#000000" stroke-linecap="round" stroke-linejoin="round" d="M5.5769 10.6539v1.8462" stroke-width="1"></path><path id="Rectangle 2010" stroke="#000000" stroke-linecap="round" stroke-linejoin="round" d="M8.34614 5.57691V3.26924C8.34614 1.73983 7.1063 0.5 5.57689 0.5S2.80765 1.73983 2.80765 3.26924v2.30767c0 1.52941 1.23983 2.76924 2.76924 2.76924" stroke-width="1"></path><path id="Vector_3" stroke="#000000" stroke-linecap="round" stroke-linejoin="round" d="M5.57694 10.6538C2.77303 10.6538 0.5 8.38081 0.5 5.5769" stroke-width="1"></path></g></svg>