<svg xmlns="http://www.w3.org/2000/svg" fill="none" viewBox="0 0 14 14"><g id="mirror-vertically--mirror-vertically-flip-copy-camera-photo-edit-arrow"><path id="vector 1265" stroke="#000000" stroke-linecap="round" stroke-linejoin="round" d="M2.49792 0.499512 2.49793 13.5005" stroke-width="1"></path><path id="vector 1266" stroke="#000000" stroke-linecap="round" stroke-linejoin="round" d="M4.49634 2.49792 2.49792 0.499512 0.499512 2.49792" stroke-width="1"></path><path id="vector 1267" stroke="#000000" stroke-linecap="round" stroke-linejoin="round" d="m4.49634 11.5011 -1.99842 1.9984 -1.998408 -1.9984" stroke-width="1"></path><path id="Vector 3256" stroke="#000000" stroke-linecap="round" stroke-linejoin="round" d="m13.4995 8.9986 0 4c0 0.412 -0.4704 0.6472 -0.8 0.4l-6 -4.5c-0.3844 -0.2883 -0.1805 -0.9 0.3 -0.9l5.5 0c0.5523 0 1 0.44772 1 1Z" stroke-width="1"></path><path id="Vector 3257" stroke="#000000" stroke-linecap="round" stroke-linejoin="round" d="m13.4995 5.00043 0 -4c0 -0.412026 -0.4704 -0.647216 -0.8 -0.400003l-6 4.500003c-0.3844 0.2883 -0.1805 0.9 0.3 0.9l5.5 0c0.5523 0 1 -0.44772 1 -1Z" stroke-width="1"></path></g></svg>