<svg xmlns="http://www.w3.org/2000/svg" fill="none" viewBox="0 0 14 14"><g id="mirror-horizontally--mirror-horizontally-flip-copy-camera-photo-edit-arrow"><path id="vector 1265" stroke="#000000" stroke-linecap="round" stroke-linejoin="round" d="m13.5 2.49841 -13.000956 0" stroke-width="1"></path><path id="vector 1266" stroke="#000000" stroke-linecap="round" stroke-linejoin="round" d="M11.5016 4.49683 13.5 2.49841 11.5016 0.5" stroke-width="1"></path><path id="vector 1267" stroke="#000000" stroke-linecap="round" stroke-linejoin="round" d="M2.49841 4.49683 0.5 2.49841 2.49841 0.5" stroke-width="1"></path><path id="Vector 3256" stroke="#000000" stroke-linecap="round" stroke-linejoin="round" d="M5.00091 13.5h-4c-0.412025 0 -0.647216 -0.4704 -0.400002 -0.8L5.10091 6.69999c0.2883 -0.3844 0.9 -0.1805 0.9 0.3V12.5c0 0.5523 -0.44772 1 -1 1Z" stroke-width="1"></path><path id="Vector 3257" stroke="#000000" stroke-linecap="round" stroke-linejoin="round" d="M8.99908 13.5h4.00002c0.412 0 0.6472 -0.4704 0.4 -0.8L8.89908 6.69999c-0.2883 -0.3844 -0.9 -0.1805 -0.9 0.3V12.5c0 0.5523 0.44772 1 1 1Z" stroke-width="1"></path></g></svg>