<svg xmlns="http://www.w3.org/2000/svg" fill="none" viewBox="0 0 14 14"><g id="module-puzzle-2--code-puzzle-module-programming-plugin-piece"><path id="Vector" stroke="#000000" stroke-linecap="round" stroke-linejoin="round" d="M13.4982 9.00123c-0.0003 -0.35081 -0.093 -0.69534 -0.2686 -0.99901 -0.1757 -0.30367 -0.4281 -0.55579 -0.732 -0.73103 -0.3039 -0.17525 -0.6485 -0.26746 -0.9993 -0.26737 -0.3508 0.00009 -0.6955 0.09248 -0.9993 0.26788V4.50245c0 -0.26514 -0.1053 -0.51943 -0.2928 -0.70691 -0.1875 -0.18749 -0.44174 -0.29281 -0.70688 -0.29281H6.73007c0.17629 -0.3039 0.26939 -0.64888 0.26993 -1.00021 0.00054 -0.35132 -0.0915 -0.69658 -0.26685 -1.00102 -0.17536 -0.30444 -0.42783 -0.557294 -0.73199 -0.733112C5.69699 0.59257 5.35187 0.5 5.00054 0.5c-0.35132 0 -0.69644 0.09257 -1.00061 0.268388 -0.30417 0.175818 -0.55664 0.428672 -0.73199 0.733112s-0.26739 0.6497 -0.26685 1.00102c0.00054 0.35133 0.09364 0.69631 0.26993 1.00021H1.5015c-0.26515 0 -0.519431 0.10532 -0.706917 0.29281 -0.187485 0.18748 -0.292813 0.44177 -0.292813 0.70691v2.05944c0.163559 -0.04026 0.331422 -0.06041 0.49986 -0.05998 0.53029 0 1.03886 0.21065 1.41383 0.58562 0.37497 0.37498 0.58563 0.88354 0.58563 1.41383 0 0.53029 -0.21066 1.03886 -0.58563 1.41383 -0.37497 0.37501 -0.88354 0.58561 -1.41383 0.58561 -0.168438 0.0004 -0.336301 -0.0197 -0.49986 -0.06v2.0595c0 0.2651 0.105328 0.5194 0.292813 0.7069 0.187486 0.1875 0.441767 0.2928 0.706917 0.2928h2.5593c-0.04026 -0.1636 -0.06041 -0.3314 -0.05998 -0.4999 0 -0.5303 0.21065 -1.0388 0.58562 -1.4138s0.88354 -0.5856 1.41383 -0.5856c0.53029 0 1.03886 0.2106 1.41383 0.5856s0.58563 0.8835 0.58563 1.4138c0.00042 0.1685 -0.01972 0.3363 -0.05999 0.4999h1.55958c0.26514 0 0.51938 -0.1053 0.70688 -0.2928s0.2928 -0.4418 0.2928 -0.7069v-1.7695c0.3038 0.1754 0.6485 0.2677 0.9993 0.2678 0.3508 0.0001 0.6954 -0.0921 0.9993 -0.2673 0.3039 -0.1753 0.5563 -0.4274 0.732 -0.7311 0.1756 -0.30363 0.2683 -0.64817 0.2686 -0.99897Z" stroke-width="1"></path></g></svg>