<svg xmlns="http://www.w3.org/2000/svg" fill="none" viewBox="0 0 14 14"><g id="money-shield--shield-pay-product-secure-money-cash-currency-security-business"><path id="Vector 3701" stroke="#000000" stroke-linecap="round" stroke-linejoin="round" d="M12 1H2c-0.55228 0 -1 0.44772 -1 1v2.87355c0 3.65866 2.34116 6.90685 5.81206 8.06385L7 13l0.18794 -0.0626C10.6588 11.7804 13 8.53221 13 4.87355V2c0 -0.55228 -0.4477 -1 -1 -1Z" stroke-width="1"></path><path id="Vector 3" stroke="#000000" stroke-linecap="round" stroke-linejoin="round" d="M8.3828 5.05572c-0.04756 -0.13456 -0.12095 -0.25691 -0.21421 -0.36111 -0.19836 -0.22163 -0.48663 -0.36111 -0.80748 -0.36111h-0.83854c-0.53408 0 -0.96703 0.43295 -0.96703 0.96702 0 0.45444 0.31643 0.84757 0.76038 0.94469l1.27669 0.27927c0.49735 0.1088 0.85184 0.54953 0.85184 1.05864 0 0.59831 -0.48503 1.08373 -1.08334 1.08373h-0.72223c-0.47169 0 -0.87297 -0.30146 -1.02169 -0.72222" stroke-width="1"></path><path id="Vector 2489" stroke="#000000" stroke-linecap="round" stroke-linejoin="round" d="M7 4.33334V3.25" stroke-width="1"></path><path id="Vector 2490" stroke="#000000" stroke-linecap="round" stroke-linejoin="round" d="M7 9.75009V8.66675" stroke-width="1"></path></g></svg>