<svg xmlns="http://www.w3.org/2000/svg" fill="none" viewBox="0 0 14 14"><g id="money-transfer--money-transfer-arrow-cash"><path id="Vector" stroke="#000000" stroke-linecap="round" stroke-linejoin="round" d="M11.5 3h-10c-0.552285 0 -1 0.44772 -1 1v6" stroke-width="1"></path><path id="Vector_2" stroke="#000000" stroke-linecap="round" stroke-linejoin="round" d="M13.5 4v6c0 0.5523 -0.4477 1 -1 1h-10" stroke-width="1"></path><path id="Vector_3" stroke="#000000" stroke-linecap="round" stroke-linejoin="round" d="M7 8.75c0.9665 0 1.75 -0.7835 1.75 -1.75S7.9665 5.25 7 5.25 5.25 6.0335 5.25 7 6.0335 8.75 7 8.75Z" stroke-width="1"></path><g id="Group 8"><path id="Ellipse 1" stroke="#000000" stroke-linecap="round" stroke-linejoin="round" d="M2.7749 7.25c-0.13807 0 -0.25 -0.11193 -0.25 -0.25s0.11193 -0.25 0.25 -0.25" stroke-width="1"></path><path id="Ellipse 2" stroke="#000000" stroke-linecap="round" stroke-linejoin="round" d="M2.77493 7.25c0.13807 0 0.25 -0.11193 0.25 -0.25s-0.11193 -0.25 -0.25 -0.25" stroke-width="1"></path></g><g id="Group 9"><path id="Ellipse 1_2" stroke="#000000" stroke-linecap="round" stroke-linejoin="round" d="M11.2251 7.25c-0.1381 0 -0.25 -0.11193 -0.25 -0.25s0.1119 -0.25 0.25 -0.25" stroke-width="1"></path><path id="Ellipse 2_2" stroke="#000000" stroke-linecap="round" stroke-linejoin="round" d="M11.2251 7.25c0.1381 0 0.25 -0.11193 0.25 -0.25s-0.1119 -0.25 -0.25 -0.25" stroke-width="1"></path></g><path id="Vector 3212" stroke="#000000" stroke-linecap="round" stroke-linejoin="round" d="M10 1.5 11.5 3 10 4.5" stroke-width="1"></path><path id="Vector 3211" stroke="#000000" stroke-linecap="round" stroke-linejoin="round" d="M4 9.5 2.5 11 4 12.5" stroke-width="1"></path></g></svg>