<svg xmlns="http://www.w3.org/2000/svg" fill="none" viewBox="0 0 14 14"><g id="monitor-project-screen"><path id="Vector 510" stroke="#000000" stroke-linecap="round" stroke-linejoin="round" d="M4.85364 11.2827v2.2171" stroke-width="1"></path><path id="Vector 511" stroke="#000000" stroke-linecap="round" stroke-linejoin="round" d="M2.91919 13.4998h3.86892" stroke-width="1"></path><path id="Vector 907" stroke="#000000" stroke-linecap="round" stroke-linejoin="round" d="M2.38916 2.85181V1.4259c0 -0.511359 0.41454 -0.9259 0.9259 -0.9259h9.25904c0.5114 0 0.9259 0.414541 0.9259 0.9259v6.48133c0 0.51136 -0.4145 0.9259 -0.9259 0.9259h-1.1759" stroke-width="1"></path><path id="Rectangle 35" stroke="#000000" stroke-linecap="round" stroke-linejoin="round" d="M0.501099 6.15766c0 -0.56614 0.433043 -1.02509 0.967231 -1.02509h6.77061c0.53419 0 0.96723 0.45895 0.96723 1.02509V10.258c0 0.5661 -0.43304 1.0251 -0.96723 1.0251H1.46833c-0.534188 0 -0.967231 -0.459 -0.967231 -1.0251V6.15766Z" stroke-width="1"></path></g></svg>