<svg xmlns="http://www.w3.org/2000/svg" fill="none" viewBox="0 0 14 14"><g id="monitor-error--wireless-wifi-internet-server-network-monitor-issue-connection"><path id="Vector" stroke="#000000" stroke-linecap="round" stroke-linejoin="round" d="M2.22227 2 1 2c-0.276142 0 -0.5 0.22386 -0.5 0.5v8c0 0.2761 0.223858 0.5 0.5 0.5h12c0.2761 0 0.5 -0.2239 0.5 -0.5V5.38353" stroke-width="1"></path><path id="Vector_2" stroke="#000000" stroke-linecap="round" stroke-linejoin="round" d="m6 11 -1 2.5" stroke-width="1"></path><path id="Vector_3" stroke="#000000" stroke-linecap="round" stroke-linejoin="round" d="m8 11 1 2.5" stroke-width="1"></path><path id="Vector_4" stroke="#000000" stroke-linecap="round" stroke-linejoin="round" d="M4 13.5h6" stroke-width="1"></path><path id="Vector_5" stroke="#000000" stroke-linecap="round" stroke-linejoin="round" d="M8.88867 0.5V4" stroke-width="1"></path><g id="Group 4780"><path id="Vector_6" stroke="#000000" stroke-linecap="round" stroke-linejoin="round" d="M8.88867 6.75c-0.13807 0 -0.25 -0.11193 -0.25 -0.25s0.11193 -0.25 0.25 -0.25" stroke-width="1"></path><path id="Vector_7" stroke="#000000" stroke-linecap="round" stroke-linejoin="round" d="M8.88867 6.75c0.13807 0 0.25 -0.11193 0.25 -0.25s-0.11193 -0.25 -0.25 -0.25" stroke-width="1"></path></g><path id="Vector_8" stroke="#000000" stroke-linecap="round" stroke-linejoin="round" d="M4.37744 2.38395c0.76327 -0.76326 1.67302 -1.29461 2.64022 -1.594033" stroke-width="1"></path><path id="Vector_9" stroke="#000000" stroke-linecap="round" stroke-linejoin="round" d="M13.4996 2.38395c-0.7633 -0.76326 -1.673 -1.29461 -2.6402 -1.594033" stroke-width="1"></path><path id="Vector_10" stroke="#000000" stroke-linecap="round" stroke-linejoin="round" d="M5.96533 4.41042c0.28118 -0.28117 0.59842 -0.51185 0.93878 -0.69204" stroke-width="1"></path><path id="Vector_11" stroke="#000000" stroke-linecap="round" stroke-linejoin="round" d="M11.7806 4.41042c-0.2812 -0.28117 -0.5984 -0.51185 -0.9388 -0.69204" stroke-width="1"></path></g></svg>