<svg xmlns="http://www.w3.org/2000/svg" fill="none" viewBox="0 0 14 14"><g id="monthly-calendar--calendar-date-week-day-month"><path id="Vector 2" stroke="#000000" stroke-linecap="round" stroke-linejoin="round" d="m9.49951 6 0 4.4998" stroke-width="1"></path><path id="Vector 3" stroke="#000000" stroke-linecap="round" stroke-linejoin="round" d="m7.99959 7.12494 0.37498 0c0.62129 0 1.12494 -0.50365 1.12494 -1.12494v0" stroke-width="1"></path><path id="Vector 1" stroke="#000000" stroke-linecap="round" stroke-linejoin="round" d="M10.9995 10.4998H7.99967" stroke-width="1"></path><path id="Vector" stroke="#000000" stroke-linecap="round" stroke-linejoin="round" d="M3 9.74999c0.15444 0.43691 0.57115 0.75001 1.06099 0.75001l0.74999 0c0.62132 0 1.125 -0.50368 1.125 -1.125l0 -0.1875c0 -0.62132 -0.50368 -1.125 -1.125 -1.125l-0.37499 0h0.28125c0.56954 0 1.03124 -0.46171 1.03124 -1.03125 0 -0.56955 -0.46171 -1.03126 -1.03125 -1.03125l-0.5625 0c-0.47203 0.00001 -0.86999 0.31716 -0.99242 0.75" stroke-width="1"></path><path id="Vector_2" stroke="#000000" stroke-linecap="round" stroke-linejoin="round" d="M2 2.5c-0.26522 0 -0.51957 0.10536 -0.70711 0.29289C1.10536 2.98043 1 3.23478 1 3.5V12c0 0.2652 0.10536 0.5196 0.29289 0.7071C1.48043 12.8946 1.73478 13 2 13h10c0.2652 0 0.5196 -0.1054 0.7071 -0.2929S13 12.2652 13 12V3.5c0 -0.26522 -0.1054 -0.51957 -0.2929 -0.70711C12.5196 2.60536 12.2652 2.5 12 2.5H2Z" stroke-width="1"></path><path id="Vector_3" stroke="#000000" stroke-linecap="round" stroke-linejoin="round" d="M3.5 1v3" stroke-width="1"></path><path id="Vector_4" stroke="#000000" stroke-linecap="round" stroke-linejoin="round" d="M10.5 1v3" stroke-width="1"></path></g></svg>