<svg xmlns="http://www.w3.org/2000/svg" fill="none" viewBox="0 0 14 14"><g id="motorcycle-courier"><path id="Vector 4689" stroke="#000000" stroke-linecap="round" stroke-linejoin="round" d="M9.5 7.5v-4c0 -0.55228 -0.44772 -1 -1 -1H8" stroke-width="1"></path><path id="Vector 4690" stroke="#000000" stroke-linecap="round" stroke-linejoin="round" d="M11.5 4h-1c-0.55228 0 -1 0.44772 -1 1s0.44772 1 1 1h1V4Z" stroke-width="1"></path><path id="Vector 4692" stroke="#000000" stroke-linecap="round" stroke-linejoin="round" d="M9.5 11.5h-1c-1.10457 0 -2 -0.8954 -2 -2V9c0 -1.10457 -0.89543 -2 -2 -2h-2c-1.10457 0 -2 0.89543 -2 2v1.5c0 0.5523 0.447715 1 1 1h8Z" stroke-width="1"></path><path id="Vector 4688" stroke="#000000" stroke-linecap="round" stroke-linejoin="round" d="M13 11.5H9.5v-4h0.5c1.933 0 3.5 1.567 3.5 3.5 0 0.2761 -0.2239 0.5 -0.5 0.5Z" stroke-width="1"></path><path id="Vector" stroke="#000000" stroke-linecap="round" stroke-linejoin="round" d="M10.4989 13.5c-0.82897 0 -1.50101 -0.6721 -1.50101 -1.5011 0 -0.1749 0.0299 -0.3428 0.08488 -0.4988h2.83233c0.055 0.156 0.0849 0.3239 0.0849 0.4988 0 0.829 -0.672 1.5011 -1.5011 1.5011Z" stroke-width="1"></path><path id="Vector_2" stroke="#000000" stroke-linecap="round" stroke-linejoin="round" d="M3.49894 13.5c-0.82901 0 -1.50106 -0.6721 -1.50106 -1.5011 0 -0.1749 0.02991 -0.3428 0.08489 -0.4988h2.83234c0.05498 0.156 0.08489 0.3239 0.08489 0.4988 0 0.829 -0.67205 1.5011 -1.50106 1.5011Z" stroke-width="1"></path><path id="Vector 4693" stroke="#000000" stroke-linecap="round" stroke-linejoin="round" d="M1.5 5h4" stroke-width="1"></path></g></svg>