<svg xmlns="http://www.w3.org/2000/svg" fill="none" viewBox="0 0 14 14"><g id="museum-painting-exhibit-1--painting-chair-display-museum-event-exhibit-travel-places"><path id="Vector" stroke="#000000" stroke-linecap="round" stroke-linejoin="round" d="M3 12v1" stroke-width="1"></path><path id="Vector_2" stroke="#000000" stroke-linecap="round" stroke-linejoin="round" d="M11 12v1" stroke-width="1"></path><path id="Vector 4742" stroke="#000000" stroke-linecap="round" stroke-linejoin="round" d="M12 5.625 9.65175 3.57029c-0.37411 -0.32735 -0.93187 -0.33019 -1.3093 -0.00668L3.16666 8" stroke-width="1"></path><path id="Vector_3" stroke="#000000" stroke-linecap="round" stroke-linejoin="round" d="M4.25 3.75c0.27614 0 0.5 -0.22386 0.5 -0.5s-0.22386 -0.5 -0.5 -0.5 -0.5 0.22386 -0.5 0.5 0.22386 0.5 0.5 0.5Z" stroke-width="1"></path><path id="Vector 4743" stroke="#000000" stroke-linecap="round" stroke-linejoin="round" d="M11 1H3c-0.55228 0 -1 0.44772 -1 1v5c0 0.55228 0.44772 1 1 1h8c0.5523 0 1 -0.44772 1 -1V2c0 -0.55228 -0.4477 -1 -1 -1Z" stroke-width="1"></path><path id="Vector 4745" stroke="#000000" stroke-linecap="round" stroke-linejoin="round" d="M1 12v-2h12v2H1Z" stroke-width="1"></path></g></svg>