<svg xmlns="http://www.w3.org/2000/svg" fill="none" viewBox="0 0 14 14"><g id="music-note-circle--music-audio-note-circle-entertainment"><path id="Vector" stroke="#000000" stroke-linecap="round" stroke-linejoin="round" d="M7 13.5c3.5899 0 6.5 -2.9101 6.5 -6.5C13.5 3.41015 10.5899 0.5 7 0.5 3.41015 0.5 0.5 3.41015 0.5 7c0 3.5899 2.91015 6.5 6.5 6.5Z" stroke-width="1"></path><path id="Vector_2" stroke="#000000" stroke-linecap="round" stroke-linejoin="round" d="M5.76998 10.5c0.74559 0 1.35 -0.60443 1.35 -1.35001 0 -0.74559 -0.60441 -1.35 -1.35 -1.35 -0.74558 0 -1.35 0.60441 -1.35 1.35 0 0.74558 0.60442 1.35001 1.35 1.35001Z" stroke-width="1"></path><path id="Vector_3" stroke="#000000" stroke-linecap="round" stroke-linejoin="round" d="M7.12 9.15V3.5c0.79564 0 1.55871 0.31607 2.12132 0.87868 0.5626 0.56261 0.87868 1.32567 0.87868 2.12132" stroke-width="1"></path></g></svg>