<svg xmlns="http://www.w3.org/2000/svg" fill="none" viewBox="0 0 14 14"><g id="music-note-2--music-audio-note-entertainment"><path id="Vector" stroke="#000000" stroke-linecap="round" stroke-linejoin="round" d="M2.5 13.42c1.10457 0 2 -0.8954 2 -2s-0.89543 -2.00002 -2 -2.00002 -2 0.89542 -2 2.00002 0.89543 2 2 2Z" stroke-width="1"></path><path id="Vector_2" stroke="#000000" stroke-linecap="round" stroke-linejoin="round" d="M11.5 10.92c1.1046 0 2 -0.8954 2 -2.00002 0 -1.10457 -0.8954 -2 -2 -2s-2 0.89543 -2 2c0 1.10462 0.8954 2.00002 2 2.00002Z" stroke-width="1"></path><path id="Vector_3" stroke="#000000" stroke-linecap="round" stroke-linejoin="round" d="M13.5 8.92002v-7.84c-0.0004 -0.07651 -0.0184 -0.151895 -0.0526 -0.220361 -0.0341 -0.068466 -0.0835 -0.128182 -0.1444 -0.17455 -0.0608 -0.046368 -0.1315 -0.078152 -0.2066 -0.092903s-0.1525 -0.012077 -0.2264 0.007817l-8 2.219997c-0.10572 0.02847 -0.19917 0.09084 -0.26601 0.17755 -0.06684 0.08672 -0.10338 0.19297 -0.10399 0.30245V11.42" stroke-width="1"></path><path id="Vector_4" stroke="#000000" stroke-linecap="round" stroke-linejoin="round" d="m4.5 5.91998 9 -2.5" stroke-width="1"></path></g></svg>