<svg xmlns="http://www.w3.org/2000/svg" fill="none" viewBox="0 0 14 14"><g id="nail-care--nail-care-polish-color-beauty-fashion"><path id="Vector 3072" stroke="#000000" stroke-linecap="round" stroke-linejoin="round" d="M1.3905 12.624 0.781009 7.74807C0.631795 6.55436 1.56257 5.5 2.76556 5.5h3.46888c1.20299 0 2.13376 1.05436 1.98455 2.24807L7.6095 12.624c-0.06256 0.5005 -0.48796 0.876 -0.99228 0.876H2.38278c-0.50432 0 -0.92972 -0.3755 -0.99228 -0.876Z" stroke-width="1"></path><path id="Vector 3073" stroke="#000000" stroke-linecap="round" stroke-linejoin="round" d="m10 8.5 0.41 4.0995c0.0511 0.5112 0.4812 0.9005 0.995 0.9005h0.69c0.5138 0 0.9439 -0.3893 0.995 -0.9005L13.5 8.5H10Z" stroke-width="1"></path><path id="Vector 3074" stroke="#000000" stroke-linecap="round" stroke-linejoin="round" d="M11.75 8.5v-4" stroke-width="1"></path><path id="Vector 3075" stroke="#000000" stroke-linecap="round" stroke-linejoin="round" d="M10.9304 4.0822 10.5 1.5H13l-0.4304 2.5822c-0.0401 0.24109 -0.2487 0.4178 -0.4932 0.4178h-0.6528c-0.2445 0 -0.4531 -0.17671 -0.4932 -0.4178Z" stroke-width="1"></path><path id="Vector 3076" stroke="#000000" stroke-linecap="round" stroke-linejoin="round" d="M2.5 5.5v-2h4v2" stroke-width="1"></path><path id="Vector 3077" stroke="#000000" stroke-linecap="round" stroke-linejoin="round" d="M1 8.5h7" stroke-width="1"></path></g></svg>