<svg xmlns="http://www.w3.org/2000/svg" fill="none" viewBox="0 0 14 14"><g id="navigation-arrow-east--compass-arrow-map-bearing-navigation-maps-heading-gps-right"><path id="Vector 3969" stroke="#000000" stroke-linecap="round" stroke-linejoin="round" d="m1.86998 1.55333 10.67312 4.7436C12.8209 6.42042 13 6.69595 13 7s-0.1791 0.57958 -0.4569 0.70307L1.86998 12.4467c-0.07911 0.0351 -0.16471 0.0533 -0.25128 0.0533C1.277 12.5 1 12.223 1 11.8813l0 -0.0311c0 -0.0664 0.01017 -0.1324 0.03016 -0.1957l1.37475 -4.35337c0.06189 -0.19598 0.06189 -0.40628 0 -0.60226L1.03016 2.34552C1.01017 2.28221 1 2.21622 1 2.14983l0 -0.03113c0 -0.3417 0.277 -0.6187 0.6187 -0.6187 0.08657 0 0.17217 0.01817 0.25128 0.05333Z" stroke-width="1"></path></g></svg>