<svg xmlns="http://www.w3.org/2000/svg" fill="none" viewBox="0 0 14 14"><g id="navigation-arrow-west--compass-arrow-map-bearing-navigation-maps-heading-gps-left"><path id="Vector 3969" stroke="#000000" stroke-linecap="round" stroke-linejoin="round" d="M12.13 1.55333 1.45691 6.29693C1.17906 6.42042 1 6.69595 1 7s0.17906 0.57958 0.45691 0.70307L12.13 12.4467c0.0791 0.0351 0.1647 0.0533 0.2513 0.0533 0.3417 0 0.6187 -0.277 0.6187 -0.6187l0 -0.0311c0 -0.0664 -0.0102 -0.1324 -0.0302 -0.1957l-1.3747 -4.35337c-0.0619 -0.19598 -0.0619 -0.40628 0 -0.60226l1.3747 -4.35335c0.02 -0.06331 0.0302 -0.1293 0.0302 -0.19569l0 -0.03113c0 -0.3417 -0.277 -0.6187 -0.6187 -0.6187 -0.0866 0 -0.1722 0.01817 -0.2513 0.05333Z" stroke-width="1"></path></g></svg>