<svg xmlns="http://www.w3.org/2000/svg" fill="none" viewBox="0 0 14 14"><g id="new-folder-dash"><path id="Vector" stroke="#000000" stroke-linecap="round" stroke-linejoin="round" d="M5.19 1.00042c0.22844 -0.006651 0.45226 0.06514 0.63421 0.20342 0.18195 0.13828 0.31104 0.33471 0.36579 0.55658l0.31 1.24h2.00006" stroke-width="1"></path><path id="Vector_2" stroke="#000000" stroke-linecap="round" stroke-linejoin="round" d="M13 4.00042c0 -0.26521 -0.1054 -0.51957 -0.2929 -0.7071 -0.1875 -0.18754 -0.4419 -0.2929 -0.7071 -0.2929L11 3" stroke-width="1"></path><path id="Vector_3" stroke="#000000" stroke-linecap="round" stroke-linejoin="round" d="M13 12.0004c0 0.2652 -0.1054 0.5196 -0.2929 0.7071 -0.1875 0.1876 -0.4419 0.2929 -0.7071 0.2929l-1 0" stroke-width="1"></path><path id="Vector_4" stroke="#000000" stroke-linecap="round" stroke-linejoin="round" d="m5.5 13 3 0.0002" stroke-width="1"></path><path id="Vector_5" stroke="#000000" stroke-linecap="round" stroke-linejoin="round" d="M1 11v1.0004c0 0.2652 0.10536 0.5196 0.29289 0.7071 0.18754 0.1876 0.44189 0.2929 0.70711 0.2929h1" stroke-width="1"></path><path id="Vector_6" stroke="#000000" stroke-linecap="round" stroke-linejoin="round" d="M1 5.75v2.5" stroke-width="1"></path><path id="Vector_7" stroke="#000000" stroke-linecap="round" stroke-linejoin="round" d="M13 6.75v2.5" stroke-width="1"></path><path id="Vector_8" stroke="#000000" stroke-linecap="round" stroke-linejoin="round" d="m3 1 -1 0.00009c-0.26522 0 -0.51957 0.10536 -0.70711 0.29289C1.10536 1.48052 1 1.73488 1 2.00009v1" stroke-width="1"></path></g></svg>