<svg xmlns="http://www.w3.org/2000/svg" fill="none" viewBox="0 0 14 14"><g id="no-flight-airport-1"><path id="Vector" stroke="#000000" stroke-linecap="round" stroke-linejoin="round" d="M10.75 13.5C9.23122 13.5 8 12.2688 8 10.75 8 9.23122 9.23122 8 10.75 8c1.5188 0 2.75 1.23122 2.75 2.75 0 1.5188 -1.2312 2.75 -2.75 2.75Z" stroke-width="1"></path><path id="Vector_2" stroke="#000000" stroke-linecap="round" stroke-linejoin="round" d="M12.6945 12.6945 8.80542 8.80542" stroke-width="1"></path><path id="Vector 4711" stroke="#000000" stroke-linecap="round" stroke-linejoin="round" d="m6 9.75 0.22118 1.4376c0.1466 0.953 -0.5907 1.8124 -1.55485 1.8124 -0.38451 0 -0.71266 -0.278 -0.77587 -0.6573L3.5 10l-2.34274 -0.39046C0.777985 9.54633 0.5 9.21818 0.5 8.83367c0 -0.96415 0.85941 -1.70145 1.81235 -1.55485L3.75 7.5l2 -2 -4.61127 -2.63501c-0.306455 -0.17512 -0.339892 -0.60406 -0.06427 -0.82456l0.94732 -0.75786c0.59831 -0.478641 1.41748 -0.573397 2.10926 -0.24398L8.25 3 10.3081 0.941941C10.591 0.658971 10.9748 0.5 11.375 0.5s0.784 0.158971 1.0669 0.441942l0.1162 0.116118C12.841 1.34103 13 1.72482 13 2.125s-0.159 0.78397 -0.4419 1.06694L10.5 5.25l0.2619 0.55005" stroke-width="1"></path></g></svg>