<svg xmlns="http://www.w3.org/2000/svg" fill="none" viewBox="0 0 14 14"><g id="no-touch-sign"><path id="Vector 2060" stroke="#000000" stroke-linecap="round" stroke-linejoin="round" d="m0.5 0.5 13 13" stroke-width="1"></path><path id="Vector" stroke="#000000" stroke-linecap="round" stroke-linejoin="round" d="M4.50006 4.50007 4.50011 3.25c0 -0.69036 0.55964 -1.25 1.25 -1.25s1.25 0.55964 1.25 1.25m0 0V7m0 -3.75v-1.5c0 -0.69036 0.55964 -1.25 1.25 -1.25s1.25 0.55964 1.25 1.25l0 2.5m0 0V7.5m0 -3.25c0 -0.69036 0.55969 -1.25 1.24999 -1.25 0.6904 0 1.25 0.55964 1.25 1.25v7.4216c0 0.1028 -0.0079 0.2048 -0.0234 0.3051" stroke-width="1"></path><path id="Vector_2" stroke="#000000" stroke-linecap="round" stroke-linejoin="round" d="m4.99993 13.5 -0.58493 -0.39c-0.60501 -0.4033 -1.13166 -0.9132 -1.55428 -1.5049L1.52584 9.73615c-0.31307 -0.43833 -0.3062 -1.02894 0.01699 -1.45986 0.48475 -0.64633 1.44912 -0.66138 1.9538 -0.03049L4.49993 9.5 4.50005 7" stroke-width="1"></path><path id="Vector_3" stroke="#000000" stroke-linecap="round" stroke-linejoin="round" d="M4.49988 9.5c0.5 0 1.7 0.2 2.5 1" stroke-width="1"></path><path id="Vector_4" stroke="#000000" stroke-linecap="round" stroke-linejoin="round" d="m11.0001 13.5 0.2071 -0.2072" stroke-width="1"></path></g></svg>