<svg xmlns="http://www.w3.org/2000/svg" fill="none" viewBox="0 0 14 14"><g id="non-commercial-euro"><path id="Ellipse 1939" stroke="#000000" stroke-linecap="round" stroke-linejoin="round" d="M8.89724 4.5c-0.34918 -0.1605 -0.73776 -0.25 -1.14724 -0.25C6.23122 4.25 5 5.48122 5 7s1.23122 2.75 2.75 2.75c0.40948 0 0.79806 -0.0895 1.14724 -0.25" stroke-width="1"></path><path id="Vector 3961" stroke="#000000" stroke-linecap="round" stroke-linejoin="round" d="M3.75 6h3" stroke-width="1"></path><path id="Vector 3962" stroke="#000000" stroke-linecap="round" stroke-linejoin="round" d="M3.75 8h3" stroke-width="1"></path><path id="Vector" stroke="#000000" stroke-linecap="round" stroke-linejoin="round" d="M7 13.5c3.5899 0 6.5 -2.9101 6.5 -6.5C13.5 3.41015 10.5899 0.5 7 0.5 3.41015 0.5 0.5 3.41015 0.5 7c0 3.5899 2.91015 6.5 6.5 6.5Z" stroke-width="1"></path><path id="Vector_2" stroke="#000000" stroke-linecap="round" stroke-linejoin="round" d="m1.37085 3.75 1.53044 0.8836" stroke-width="1"></path><path id="Vector_3" stroke="#000000" stroke-linecap="round" stroke-linejoin="round" d="m12.6292 10.2501 -1.9127 -1.10435" stroke-width="1"></path></g></svg>