<svg xmlns="http://www.w3.org/2000/svg" fill="none" viewBox="0 0 14 14"><g id="noodle--chopstick-noodle"><path id="Vector 2152" stroke="#000000" stroke-linecap="round" stroke-linejoin="round" d="M13 1H2.5C1.67157 1 1 1.67157 1 2.5v0C1 3.32843 1.67157 4 2.5 4H13" stroke-width="1"></path><path id="Vector 2153" stroke="#000000" stroke-linecap="round" stroke-linejoin="round" d="M13 4H2.5C1.67157 4 1 4.67157 1 5.5S1.67157 7 2.5 7h1" stroke-width="1"></path><path id="Vector 2154" stroke="#000000" stroke-linecap="round" stroke-linejoin="round" d="M9.8941 7H13" stroke-width="1"></path><path id="Vector 2155" stroke="#000000" stroke-linecap="round" stroke-linejoin="round" d="M4 13s-1 -1 -1 -3 1 -2 1 -4c0 -0.8453 -0.17863 -1.51197 -0.3849 -2" stroke-width="1"></path><path id="Vector 2156" stroke="#000000" stroke-linecap="round" stroke-linejoin="round" d="M7 13s-1 -1 -1 -3 1 -2 1 -4c0 -0.8453 -0.17863 -1.51197 -0.3849 -2" stroke-width="1"></path><path id="Vector 2157" stroke="#000000" stroke-linecap="round" stroke-linejoin="round" d="M10 13s-1 -1 -1 -3 1 -2 1 -4c0 -0.8453 -0.17863 -1.51197 -0.3849 -2" stroke-width="1"></path></g></svg>