<svg xmlns="http://www.w3.org/2000/svg" fill="none" viewBox="0 0 14 14"><g id="nose-smell--health-medical-nose-smell"><path id="Vector 1101" stroke="#000000" stroke-linecap="round" stroke-linejoin="round" d="M8.54712 0.5s0.62725 3.76349 1.3441 4.48035c0.89608 0.89607 3.13628 0.89607 3.13628 3.13624 0 1.34411 -1.673 2.24021 -3.0171 2.24021" stroke-width="1"></path><path id="Vector 1103" stroke="#000000" stroke-linecap="round" stroke-linejoin="round" d="M5.45288 0.5s-0.62725 3.76349 -1.3441 4.48035c-0.89607 0.89607 -3.136249 0.89607 -3.136249 3.13624 0 1.34411 1.672969 2.24021 3.017079 2.24021" stroke-width="1"></path><path id="Vector 1102" stroke="#000000" stroke-linecap="round" stroke-linejoin="round" d="M10.2754 8.67031c-1.46928 -0.55509 -1.53458 0.48968 -1.82835 0.94683 -0.21016 0.32703 -0.76356 0.57336 -1.41358 0.54956 -0.65003 0.0238 -1.20346 -0.22253 -1.41362 -0.54956 -0.29378 -0.45715 -0.35908 -1.50192 -1.82835 -0.94683" stroke-width="1"></path><path id="Vector 1104" stroke="#000000" stroke-linecap="round" stroke-linejoin="round" d="M9.20054 13.5c-0.89312 -0.4102 -0.91734 -1.1424 -0.91734 -1.1424" stroke-width="1"></path><path id="Vector 1105" stroke="#000000" stroke-linecap="round" stroke-linejoin="round" d="M10.021 11.7137s0.4587 0.5712 1.0541 0.8447" stroke-width="1"></path><path id="Vector 1106" stroke="#000000" stroke-linecap="round" stroke-linejoin="round" d="M4.86635 13.4515c0.89312 -0.4102 0.91734 -1.1423 0.91734 -1.1423" stroke-width="1"></path><path id="Vector 1107" stroke="#000000" stroke-linecap="round" stroke-linejoin="round" d="M4.0459 11.6652s-0.45867 0.5712 -1.05408 0.8447" stroke-width="1"></path></g></svg>