<svg xmlns="http://www.w3.org/2000/svg" fill="none" viewBox="0 0 14 14"><g id="notification-alarm-1--android-phone-mobile-device-smartphone-iphone-alert-bell-alarm"><path id="Vector" stroke="#000000" stroke-linecap="round" stroke-linejoin="round" d="M9.93264 9v0.52527c0 0.39112 0.15536 0.76623 0.43196 1.04283 0.2765 0.2765 0.7443 0.4319 1.1354 0.4319H0.5c0.391124 0 0.85888 -0.1554 1.13545 -0.4319 0.27656 -0.2766 0.43194 -0.65171 0.43194 -1.04283l-0.00001 -3.60095c0 -1.04299 0.41433 -2.04327 1.15184 -2.78078C3.95673 2.40603 4.95701 1.9917 6 1.9917c0.34044 0 0.67632 0.04414 1 0.12925" stroke-width="1"></path><path id="Vector_2" stroke="#000000" stroke-linecap="round" stroke-linejoin="round" d="M10.0186 0.5v3" stroke-width="1"></path><path id="Vector_3" stroke="#000000" stroke-linecap="round" stroke-linejoin="round" d="M5 13.5h2" stroke-width="1"></path><g id="Group 623"><path id="Vector_4" stroke="#000000" stroke-linecap="round" stroke-linejoin="round" d="M10.0186 5.75c-0.13812 0 -0.25005 -0.11193 -0.25005 -0.25s0.11193 -0.25 0.25005 -0.25" stroke-width="1"></path><path id="Vector_5" stroke="#000000" stroke-linecap="round" stroke-linejoin="round" d="M10.0186 5.75c0.138 0 0.25 -0.11193 0.25 -0.25s-0.112 -0.25 -0.25 -0.25" stroke-width="1"></path></g></g></svg>