<svg xmlns="http://www.w3.org/2000/svg" fill="none" viewBox="0 0 14 14"><g id="number-five-square--number-five-square-mathematics-equation-text"><path id="Vector" stroke="#000000" stroke-linecap="round" stroke-linejoin="round" d="m1 2 0 10c0 0.5523 0.44772 1 1 1l10 0c0.5523 0 1 -0.4477 1 -1l0 -10c0 -0.55229 -0.4477 -1 -1 -1L2 1c-0.55228 0 -1 0.44772 -1 1Z" stroke-width="1"></path><path id="Vector 3" stroke="#000000" stroke-linecap="round" stroke-linejoin="round" d="M8.75 4 5.5 4 5 7l0.36656 -0.18328C5.78313 6.60844 6.24247 6.5 6.7082 6.5H7.5C8.32843 6.5 9 7.17157 9 8l0 0.5c0 0.82843 -0.67157 1.5 -1.5 1.5h-1c-0.65311 0 -1.20873 -0.4174 -1.41465 -1" stroke-width="1"></path></g></svg>