<svg xmlns="http://www.w3.org/2000/svg" fill="none" viewBox="0 0 14 14"><g id="number-zero-square--number-zero-square-mathematics-equation-text"><path id="Vector" stroke="#000000" stroke-linecap="round" stroke-linejoin="round" d="m1 2 0 10c0 0.5523 0.44772 1 1 1l10 0c0.5523 0 1 -0.4477 1 -1l0 -10c0 -0.55229 -0.4477 -1 -1 -1L2 1c-0.55228 0 -1 0.44772 -1 1Z" stroke-width="1"></path><path id="Vector 2" stroke="#000000" stroke-linecap="round" stroke-linejoin="round" d="M5 5.45833v3.08334C5 9.34708 5.65292 10 6.45833 10h1.08334C8.34708 10 9 9.34708 9 8.54167V5.45833C9 4.65292 8.34708 4 7.54167 4H6.45833C5.65292 4 5 4.65292 5 5.45833Z" stroke-width="1"></path></g></svg>