<svg xmlns="http://www.w3.org/2000/svg" fill="none" viewBox="0 0 14 14"><g id="nursery-2"><path id="Vector 4996" stroke="#000000" stroke-linecap="round" stroke-linejoin="round" d="M6.50002 7.00002H5.32844c-0.53043 0 -1.03914 -0.21072 -1.41421 -0.58579L2.55811 5.05811" stroke-width="1"></path><path id="Ellipse 238" stroke="#000000" stroke-linecap="round" stroke-linejoin="round" d="M11 10.25a1.25 1.25 0 1 0 2.5 0 1.25 1.25 0 1 0 -2.5 0" stroke-width="1"></path><path id="Ellipse 239" stroke="#000000" stroke-linecap="round" stroke-linejoin="round" d="M2.5 2.25a1.75 1.75 0 1 0 3.5 0 1.75 1.75 0 1 0 -3.5 0" stroke-width="1"></path><path id="Vector 4995" stroke="#000000" stroke-linecap="round" stroke-linejoin="round" d="M3 13.5v-2.5858c0 -0.2652 -0.10536 -0.5195 -0.29289 -0.7071L1.09307 8.59309C0.750035 8.25005 0.702694 7.71028 0.980784 7.31276L3.43782 3.80054" stroke-width="1"></path><path id="Vector 4994" stroke="#000000" stroke-linecap="round" stroke-linejoin="round" d="M10 8.5v2c0 0.5523 -0.44772 1 -1 1H8c-0.55228 0 -1 -0.4477 -1 -1v0c0 -0.55228 -0.44772 -1 -1 -1v0" stroke-width="1"></path></g></svg>