<svg xmlns="http://www.w3.org/2000/svg" fill="none" viewBox="0 0 14 14"><g id="octagram-shape"><path id="Union" stroke="#000000" stroke-linecap="round" stroke-linejoin="round" d="M0.777075 6.33108c-0.369433 0.36944 -0.369434 0.9684 -0.000001 1.33784l1.348706 1.3487v1.90888c0 0.5224 0.42353 0.946 0.94599 0.946h1.90885l1.35046 1.3504c0.36944 0.3695 0.9684 0.3695 1.33784 0l1.35046 -1.3504h1.90692c0.5225 0 0.946 -0.4236 0.946 -0.946V9.01952l1.3506 -1.3506c0.3695 -0.36944 0.3695 -0.9684 0 -1.33784l-1.3506 -1.3506V3.07192c0 -0.52246 -0.4235 -0.94599 -0.946 -0.94599H9.01777L7.66892 0.777075C7.29948 0.407642 6.70052 0.407641 6.33108 0.777074L4.98223 2.12593H3.07177c-0.52245 0 -0.94599 0.42353 -0.94599 0.94599v1.91046L0.777075 6.33108Z" stroke-width="1"></path></g></svg>