<svg xmlns="http://www.w3.org/2000/svg" fill="none" viewBox="0 0 14 14"><g id="ok-hand"><path id="Ellipse 305 (Stroke)" stroke="#000000" stroke-linecap="round" stroke-linejoin="round" d="M8.95571 13.3088c0.46461 -0.1395 0.91015 -0.3706 1.30959 -0.696 0.5392 -0.4393 0.9291 -0.9987 1.159 -1.609 0.2473 -0.6566 -0.0844 -1.38942 -0.7411 -1.63677 -0.1876 -0.07069 -0.3815 -0.09408 -0.5685 -0.0761 0.1833 -0.04231 0.36 -0.12616 0.5157 -0.25301 0.544 -0.44318 0.5856 -1.45212 0.1424 -1.99611 -0.80149 -0.98378 -1.99223 -1.46362 -3.16917 -1.39835l1.32008 -3.0266c0.31602 -0.72454 -0.02297 -1.56748 -0.75263 -1.8715 -0.59842 -0.249345 -1.28782 -0.060416 -1.64818 0.4785 -0.99107 1.48215 -2.81352 4.48778 -2.92703 6.7007 -0.1564 3.04914 0.00003 5.38424 0.00003 5.38424" stroke-width="1"></path><path id="Ellipse 305 (Stroke)_2" fill-rule="evenodd" stroke="#000000" stroke-linecap="round" stroke-linejoin="round" d="M7.1607 8.64003c-0.54399 0.44318 -0.62572 1.24344 -0.18254 1.78747 0.44318 0.544 1.24344 0.6257 1.78743 0.1825 0.18191 -0.1482 0.31008 -0.3331 0.38603 -0.5347 0.15574 -0.41349 0.50397 -0.69815 0.90448 -0.79053 -0.40885 0.03937 -0.8291 -0.1199 -1.10797 -0.46221 -0.44318 -0.54399 -1.24344 -0.62571 -1.78743 -0.18253Z" clip-rule="evenodd" stroke-width="1"></path><path id="Vector 529" stroke="#000000" stroke-linecap="round" stroke-linejoin="round" d="M7.61171 5.64612c-0.25548 0.03026 -0.86323 0.14321 -1.25038 0.35292" stroke-width="1"></path><path id="Ellipse 305 (Stroke)_3" stroke="#000000" stroke-linecap="round" stroke-linejoin="round" d="M3.54033 8.99888C2.6454 6.99798 2.68546 3.71134 2.78 2.00962c0.03595 -0.6473 0.53326 -1.160762 1.1753 -1.250653 0.78282 -0.109604 1.50359 0.443513 1.60027 1.228043l0 0.79853" stroke-width="1"></path></g></svg>