<svg xmlns="http://www.w3.org/2000/svg" fill="none" viewBox="0 0 14 14"><g id="one-finger-long-tap"><path id="Vector 4427" stroke="#000000" stroke-linecap="round" stroke-linejoin="round" d="M6 0.5v1" stroke-width="1"></path><path id="Vector 4428" stroke="#000000" stroke-linecap="round" stroke-linejoin="round" d="M9 4.5h1" stroke-width="1"></path><path id="Vector 4429" stroke="#000000" stroke-linecap="round" stroke-linejoin="round" d="M3 4.5H2" stroke-width="1"></path><path id="Vector 4430" stroke="#000000" stroke-linecap="round" stroke-linejoin="round" d="m8.12134 2.37874 0.7071 -0.70711" stroke-width="1"></path><path id="Vector 4432" stroke="#000000" stroke-linecap="round" stroke-linejoin="round" d="m3.87874 2.37862 -0.70711 -0.70711" stroke-width="1"></path><path id="Vector 107" stroke="#000000" stroke-linecap="round" stroke-linejoin="round" d="m12.0455 13.5 0.1946 -2.1414c0.1387 -1.52573 -1.0782 -2.83387 -2.60996 -2.80556L7.25 8.59702l0 -3.84702c0 -0.69036 -0.55964 -1.25 -1.25 -1.25v0c-0.69036 0 -1.25 0.55964 -1.25 1.25l0 6.25 -1.18793 -1.18793c-0.44849 -0.44849 -1.17565 -0.44849 -1.62414 0v0c-0.39697 0.39693 -0.44877 1.02273 -0.12246 1.47963L3.39286 13.5" stroke-width="1"></path></g></svg>