<svg xmlns="http://www.w3.org/2000/svg" fill="none" viewBox="0 0 14 14"><g id="one-finger-double-tap"><path id="Vector 107" stroke="#000000" stroke-linecap="round" stroke-linejoin="round" d="m4.25 13.5 -1.93453 -2.7083c-0.32631 -0.4569 -0.27451 -1.08266 0.12246 -1.47963v0c0.44849 -0.44849 1.17565 -0.44849 1.62414 0L5.25 10.5l0 -6.25C5.25 3.55964 5.80964 3 6.5 3v0c0.69036 0 1.25 0.55964 1.25 1.25l0 3.84702 2.3801 -0.04398c1.5318 -0.02831 2.7487 1.27983 2.61 2.80556L12.5 13.5" stroke-width="1"></path><path id="Ellipse 1944" stroke="#000000" stroke-linecap="round" stroke-linejoin="round" d="M3.33697 5C3.28009 4.75924 3.25 4.50813 3.25 4.25 3.25 2.45507 4.70507 1 6.5 1s3.25 1.45507 3.25 3.25c0 0.25813 -0.03009 0.50924 -0.08697 0.75" stroke-width="1"></path><path id="Ellipse 1945" stroke="#000000" stroke-linecap="round" stroke-linejoin="round" d="M2.61937 0.5c-0.5489 0.56672 -0.98222 1.24606 -1.26195 2" stroke-width="1"></path><path id="Ellipse 1946" stroke="#000000" stroke-linecap="round" stroke-linejoin="round" d="M10.8806 0.5c0.5489 0.56672 0.9822 1.24606 1.262 2" stroke-width="1"></path></g></svg>