<svg xmlns="http://www.w3.org/2000/svg" fill="none" viewBox="0 0 14 14"><g id="online-shopping--online-shopping-internet-website-bag"><path id="Vector 3245" stroke="#000000" stroke-linecap="round" stroke-linejoin="round" d="M5.5 11.5H1.64213c-0.60479 0 -1.071156 -0.5327 -0.991224 -1.1322L1.49995 4h8l0.2 1.5" stroke-width="1"></path><path id="Vector 3246" stroke="#000000" stroke-linecap="round" stroke-linejoin="round" d="M3.5 4V2.5c0 -1.10457 0.89543 -2 2 -2v0c1.10457 0 2 0.89543 2 2V4" stroke-width="1"></path><path id="Ellipse 1650" stroke="#000000" stroke-linecap="round" stroke-linejoin="round" d="M7.5 10.5a3 3 0 1 0 6 0 3 3 0 1 0 -6 0" stroke-width="1"></path><path id="Ellipse 1651" stroke="#000000" stroke-linecap="round" stroke-linejoin="round" d="M9.25 10.48a1.25 2.98 0 1 0 2.5 0 1.25 2.98 0 1 0 -2.5 0" stroke-width="1"></path><path id="Vector 3244" stroke="#000000" stroke-linecap="round" stroke-linejoin="round" d="M7.5 10.5h6" stroke-width="1"></path></g></svg>