<svg xmlns="http://www.w3.org/2000/svg" fill="none" viewBox="0 0 14 14"><g id="online-status-away-account"><path id="Vector" stroke="#000000" stroke-linecap="round" stroke-linejoin="round" d="M5 5.5c1.38071 0 2.5 -1.11929 2.5 -2.5S6.38071 0.5 5 0.5 2.5 1.61929 2.5 3 3.61929 5.5 5 5.5Z" stroke-width="1"></path><path id="Vector_2" stroke="#000000" stroke-linecap="round" stroke-linejoin="round" d="M12.1863 13.2966c0.4902 -0.2246 0.8857 -0.6202 1.1104 -1.1104" stroke-width="1"></path><path id="Vector_3" stroke="#000000" stroke-linecap="round" stroke-linejoin="round" d="M10.3138 13.2966c-0.49025 -0.2247 -0.88585 -0.6204 -1.11043 -1.1107" stroke-width="1"></path><path id="Vector_4" stroke="#000000" stroke-linecap="round" stroke-linejoin="round" d="M9.20337 10.3138c0.22461 -0.49022 0.62021 -0.88582 1.11043 -1.11043" stroke-width="1"></path><path id="Vector_5" stroke="#000000" stroke-linecap="round" stroke-linejoin="round" d="M13.2967 10.3138c-0.2246 -0.49022 -0.6202 -0.88582 -1.1104 -1.11043" stroke-width="1"></path><path id="Ellipse 1772" stroke="#000000" stroke-linecap="round" stroke-linejoin="round" d="M6.98513 12.5H0.5V12C0.5 9.51472 2.51472 7.5 5 7.5c1.09873 0 2.1055 0.39378 2.88686 1.0479" stroke-width="1"></path></g></svg>