<svg xmlns="http://www.w3.org/2000/svg" fill="none" viewBox="0 0 14 14"><g id="online-medical-app-checkup-service"><path id="union" stroke="#000000" stroke-linecap="round" stroke-linejoin="round" d="M9.42041 0.5c-0.23714 0 -0.42938 0.192242 -0.42938 0.429384V2.13705l-1.20764 0c-0.23714 0 -0.42939 0.19224 -0.42939 0.42938v1.3955c0 0.23714 0.19225 0.42939 0.42939 0.42939h1.20764v1.20762c0 0.23714 0.19224 0.42938 0.42938 0.42938h1.39549c0.2372 0 0.4294 -0.19224 0.4294 -0.42938V4.39132h1.2076c0.2372 0 0.4294 -0.19225 0.4294 -0.42939v-1.3955c0 -0.23714 -0.1922 -0.42938 -0.4294 -0.42938l-1.2076 0V0.929384C11.2453 0.692242 11.0531 0.5 10.8159 0.5H9.42041Z" stroke-width="1"></path><path id="vector" stroke="#000000" stroke-linecap="round" stroke-linejoin="round" d="M6.11768 0.5h-4c-0.55229 0 -1 0.447715 -1 1v11c0 0.5523 0.44771 1 1 1h7c0.55228 0 1.00002 -0.4477 1.00002 -1v-4" stroke-width="1"></path><path id="vector_2" stroke="#000000" stroke-linecap="round" stroke-linejoin="round" d="M5.11768 11h1" stroke-width="1"></path></g></svg>