<svg xmlns="http://www.w3.org/2000/svg" fill="none" viewBox="0 0 14 14"><g id="open-hand"><path id="Vector 1996" stroke="#000000" stroke-linecap="round" stroke-linejoin="round" d="m4.99988 13.5 -0.58493 -0.39c-0.60501 -0.4033 -1.13166 -0.9132 -1.55428 -1.5049L1.52579 9.73614c-0.31307 -0.43832 -0.3062 -1.02893 0.01699 -1.45985v0c0.48475 -0.64633 1.44912 -0.66138 1.9538 -0.03049L4.49988 9.5c0.5 0 1.7 0.2 2.5 1" stroke-width="1"></path><path id="Vector 1997" stroke="#000000" stroke-linecap="round" stroke-linejoin="round" d="M4.50024 9.5V3.25c0 -0.69036 0.55965 -1.25 1.25 -1.25v0c0.69036 0 1.25 0.55964 1.25 1.25V7c0 -0.69036 0.55965 -1.25 1.25 -1.25v0c0.69036 0 1.25 0.55964 1.25 1.25l0.00001 5.75V4.25c0 -0.69036 0.55965 -1.25 1.24995 -1.25v0c0.6904 0 1.25 0.55964 1.25 1.25v7.4216c0 0.5304 -0.2107 1.0391 -0.5857 1.4142l-0.4143 0.4142" stroke-width="1"></path></g></svg>