<svg xmlns="http://www.w3.org/2000/svg" fill="none" viewBox="0 0 14 14"><g id="osx-browser-window"><path id="Vector" stroke="#000000" stroke-linecap="round" stroke-linejoin="round" d="M12.5 1.5h-11c-0.552285 0 -1 0.44772 -1 1v9c0 0.5523 0.447715 1 1 1h11c0.5523 0 1 -0.4477 1 -1v-9c0 -0.55228 -0.4477 -1 -1 -1Z" stroke-width="1"></path><g id="Group 4778"><path id="Ellipse 1765" stroke="#000000" stroke-linecap="round" stroke-linejoin="round" d="M2.75 4c-0.13807 0 -0.25 -0.11193 -0.25 -0.25s0.11193 -0.25 0.25 -0.25" stroke-width="1"></path><path id="Ellipse 1766" stroke="#000000" stroke-linecap="round" stroke-linejoin="round" d="M2.75 4c0.13807 0 0.25 -0.11193 0.25 -0.25s-0.11193 -0.25 -0.25 -0.25" stroke-width="1"></path></g><g id="Group 4779"><path id="Ellipse 1767" stroke="#000000" stroke-linecap="round" stroke-linejoin="round" d="M5.25 4C5.11193 4 5 3.88807 5 3.75s0.11193 -0.25 0.25 -0.25" stroke-width="1"></path><path id="Ellipse 1768" stroke="#000000" stroke-linecap="round" stroke-linejoin="round" d="M5.25 4c0.13807 0 0.25 -0.11193 0.25 -0.25s-0.11193 -0.25 -0.25 -0.25" stroke-width="1"></path></g></g></svg>