<svg xmlns="http://www.w3.org/2000/svg" fill="none" viewBox="0 0 14 14"><g id="oven--oven-appliances-kitchenware-cooking-stove"><path id="Rectangle 1935" stroke="#000000" stroke-linecap="round" stroke-linejoin="round" d="M1 1h12v12H1V1Z" stroke-width="1"></path><g id="Group 4625"><path id="Vector" stroke="#000000" stroke-linecap="round" stroke-linejoin="round" d="M10.5 3.5c-0.1381 0 -0.25 -0.11193 -0.25 -0.25s0.1119 -0.25 0.25 -0.25" stroke-width="1"></path><path id="Vector_2" stroke="#000000" stroke-linecap="round" stroke-linejoin="round" d="M10.5 3.5c0.1381 0 0.25 -0.11193 0.25 -0.25S10.6381 3 10.5 3" stroke-width="1"></path></g><g id="Group 4626"><path id="Vector_3" stroke="#000000" stroke-linecap="round" stroke-linejoin="round" d="M8 3.5c-0.13807 0 -0.25 -0.11193 -0.25 -0.25S7.86193 3 8 3" stroke-width="1"></path><path id="Vector_4" stroke="#000000" stroke-linecap="round" stroke-linejoin="round" d="M8 3.5c0.13807 0 0.25 -0.11193 0.25 -0.25S8.13807 3 8 3" stroke-width="1"></path></g><g id="Group 4627"><path id="Vector_5" stroke="#000000" stroke-linecap="round" stroke-linejoin="round" d="M3.5 3.5c-0.13807 0 -0.25 -0.11193 -0.25 -0.25S3.36193 3 3.5 3" stroke-width="1"></path><path id="Vector_6" stroke="#000000" stroke-linecap="round" stroke-linejoin="round" d="M3.5 3.5c0.13807 0 0.25 -0.11193 0.25 -0.25S3.63807 3 3.5 3" stroke-width="1"></path></g><path id="Vector 2891" stroke="#000000" stroke-linecap="round" stroke-linejoin="round" d="M5.5 7.75h3" stroke-width="1"></path><path id="Rectangle 1936" stroke="#000000" stroke-linecap="round" stroke-linejoin="round" d="M3.25 5.75h7.5v5h-7.5v-5Z" stroke-width="1"></path></g></svg>