<svg xmlns="http://www.w3.org/2000/svg" fill="none" viewBox="0 0 14 14"><g id="paintbrush-3--brush-color-colors-design-paint-painting-head"><path id="Vector" stroke="#000000" stroke-linecap="round" stroke-linejoin="round" d="M9.08494 11.3262C6.75191 13.6492 2.78728 14.4184 0.5 12.0955c3.04971 -3.12236 0 -4.63075 2.28728 -6.89334 0.40163 -0.44255 0.89026 -0.79944 1.43605 -1.04887 0.54578 -0.24942 1.13725 -0.38613 1.73825 -0.40178 0.601 -0.01564 1.19892 0.09011 1.75721 0.31078 0.55829 0.22068 1.06523 0.55166 1.48983 0.9727 0.4246 0.42105 0.75795 0.92332 0.97968 1.47612 0.2217 0.5528 0.3272 1.14452 0.3099 1.73899 -0.0173 0.59448 -0.157 1.17922 -0.4104 1.7185 -0.25351 0.5393 -0.61549 1.0218 -1.06386 1.418l0.061 -0.0604Z" stroke-width="1"></path><path id="Vector 4614" stroke="#000000" stroke-linecap="round" stroke-linejoin="round" d="M9.00022 0.5 6.54443 3.77439" stroke-width="1"></path><path id="Vector 4615" stroke="#000000" stroke-linecap="round" stroke-linejoin="round" d="M10.4224 7.30823 13.5 5" stroke-width="1"></path></g></svg>