<svg xmlns="http://www.w3.org/2000/svg" fill="none" viewBox="0 0 14 14"><g id="password-input--lock-login-padlock-password-secure-security-textbox-type"><path id="Vector" stroke="#000000" stroke-linecap="round" stroke-linejoin="round" d="M12.5 3h-11c-0.552285 0 -1 0.44772 -1 1v6c0 0.5523 0.447715 1 1 1h11c0.5523 0 1 -0.4477 1 -1V4c0 -0.55228 -0.4477 -1 -1 -1Z" stroke-width="1"></path><path id="Vector_2" stroke="#000000" stroke-linecap="round" stroke-linejoin="round" d="M9 8h2" stroke-width="1"></path><g id="Group 2605"><path id="Ellipse 1111" stroke="#000000" stroke-linecap="round" stroke-linejoin="round" d="M3.5 7.25c-0.13807 0 -0.25 -0.11193 -0.25 -0.25s0.11193 -0.25 0.25 -0.25" stroke-width="1"></path><path id="Ellipse 1112" stroke="#000000" stroke-linecap="round" stroke-linejoin="round" d="M3.5 7.25c0.13807 0 0.25 -0.11193 0.25 -0.25s-0.11193 -0.25 -0.25 -0.25" stroke-width="1"></path></g><g id="Group 2612"><path id="Ellipse 1111_2" stroke="#000000" stroke-linecap="round" stroke-linejoin="round" d="M6 7.25c-0.13807 0 -0.25 -0.11193 -0.25 -0.25s0.11193 -0.25 0.25 -0.25" stroke-width="1"></path><path id="Ellipse 1112_2" stroke="#000000" stroke-linecap="round" stroke-linejoin="round" d="M6 7.25c0.13807 0 0.25 -0.11193 0.25 -0.25s-0.11193 -0.25 -0.25 -0.25" stroke-width="1"></path></g></g></svg>