<svg xmlns="http://www.w3.org/2000/svg" fill="none" viewBox="0 0 14 14"><g id="pathfinder-circle-minus-back-2"><path id="Ellipse 1786" stroke="#000000" stroke-linecap="round" stroke-linejoin="round" d="M5 1.02746C5.16417 1.00932 5.331 1 5.5 1c0.169 0 0.33583 0.00932 0.5 0.02746" stroke-width="1"></path><path id="Ellipse 1787" stroke="#000000" stroke-linecap="round" stroke-linejoin="round" d="M1.02746 5.99999C1.00932 5.83583 1 5.669 1 5.5c0 -0.16901 0.00932 -0.33583 0.02746 -0.5" stroke-width="1"></path><path id="Ellipse 1784" stroke="#000000" stroke-linecap="round" stroke-linejoin="round" d="M2.69099 9.0157c-0.12891 -0.10325 -0.25347 -0.21463 -0.37297 -0.33413 -0.1195 -0.11951 -0.23088 -0.24406 -0.33413 -0.37298" stroke-width="1"></path><path id="Ellipse 1782" stroke="#000000" stroke-linecap="round" stroke-linejoin="round" d="M8.30908 1.9834c0.12892 0.10325 0.25347 0.21463 0.37298 0.33413 0.1195 0.11951 0.23088 0.24406 0.33413 0.37298" stroke-width="1"></path><path id="Ellipse 1783" stroke="#000000" stroke-linecap="round" stroke-linejoin="round" d="M1.98389 2.6905c0.10325 -0.12892 0.21462 -0.25347 0.33413 -0.37297 0.1195 -0.1195 0.24405 -0.23088 0.37297 -0.33413" stroke-width="1"></path><path id="Vector" stroke="#000000" stroke-linecap="round" stroke-linejoin="round" d="M5.50007 9.99995c2.48528 0 4.50003 -2.01472 4.50003 -4.5 0 -0.45463 -0.06745 -0.89352 -0.19284 -1.3072 1.84774 0.56004 3.19284 2.27654 3.19284 4.3072 0 2.48525 -2.0148 4.49995 -4.50003 4.49995 -2.03065 0 -3.74716 -1.345 -4.3072 -3.19276 0.41369 0.12539 0.85257 0.19281 1.3072 0.19281Z" stroke-width="1"></path></g></svg>