<svg width="14" height="14" viewBox="0 0 14 14" fill="none" xmlns="http://www.w3.org/2000/svg">
<path d="M9.5 1.5V4.5H12.5C12.7652 4.5 13.0196 4.60536 13.2071 4.79289C13.3946 4.98043 13.5 5.23478 13.5 5.5V12.5C13.5 12.7652 13.3946 13.0196 13.2071 13.2071C13.0196 13.3946 12.7652 13.5 12.5 13.5H5.5C5.23478 13.5 4.98043 13.3946 4.79289 13.2071C4.60536 13.0196 4.5 12.7652 4.5 12.5V9.5H1.5C1.23478 9.5 0.98043 9.39464 0.792893 9.20711C0.605357 9.01957 0.5 8.76522 0.5 8.5V1.5C0.5 1.23478 0.605357 0.98043 0.792893 0.792893C0.98043 0.605357 1.23478 0.5 1.5 0.5H8.5C8.76522 0.5 9.01957 0.605357 9.20711 0.792893C9.39464 0.98043 9.5 1.23478 9.5 1.5Z" stroke="#01040B" stroke-linecap="round" stroke-linejoin="round"/>
<path d="M4.5 9.5V6.5" stroke="#01040B" stroke-linecap="round" stroke-linejoin="round"/>
</svg>
