<svg xmlns="http://www.w3.org/2000/svg" fill="none" viewBox="0 0 14 14"><g id="pathfinder-square-minus-front-2"><path id="Vector" stroke="#000000" stroke-linecap="round" stroke-linejoin="round" d="M7.5 9.5h1c0.26522 0 0.51957 -0.10536 0.70711 -0.29289C9.39464 9.01957 9.5 8.76522 9.5 8.5v-1" stroke-width="1"></path><path id="Vector_2" stroke="#000000" stroke-linecap="round" stroke-linejoin="round" d="M9.5 4.5V2c0 -0.26522 -0.10536 -0.51957 -0.29289 -0.70711C9.01957 1.10536 8.76522 1 8.5 1H2c-0.26522 0 -0.51957 0.10536 -0.70711 0.29289C1.10536 1.48043 1 1.73478 1 2v6.5c0 0.26522 0.10536 0.51957 0.29289 0.70711C1.48043 9.39464 1.73478 9.5 2 9.5h2.5" stroke-width="1"></path><path id="Vector_3" stroke="#000000" stroke-linecap="round" stroke-linejoin="round" d="M4.5 12c0 0.2652 0.10536 0.5196 0.29289 0.7071 0.18754 0.1875 0.44189 0.2929 0.70711 0.2929" stroke-width="1"></path><path id="Vector_4" stroke="#000000" stroke-linecap="round" stroke-linejoin="round" d="M13 5.5c0 -0.26522 -0.1054 -0.51957 -0.2929 -0.70711C12.5196 4.60536 12.2652 4.5 12 4.5" stroke-width="1"></path><path id="Vector_5" stroke="#000000" stroke-linecap="round" stroke-linejoin="round" d="M12 13c0.2652 0 0.5196 -0.1054 0.7071 -0.2929S13 12.2652 13 12" stroke-width="1"></path><path id="Vector_6" stroke="#000000" stroke-linecap="round" stroke-linejoin="round" d="M8 13h1.5" stroke-width="1"></path><path id="Vector_7" stroke="#000000" stroke-linecap="round" stroke-linejoin="round" d="M13 8v1.5" stroke-width="1"></path></g></svg>