<svg xmlns="http://www.w3.org/2000/svg" fill="none" viewBox="0 0 14 14"><g id="pathfinder-circle-intersect"><path id="Ellipse 1780" stroke="#000000" stroke-linecap="round" stroke-linejoin="round" d="M9 12.9727c-0.16417 0.0181 -0.331 0.0274 -0.5 0.0274 -0.169 0 -0.33583 -0.0093 -0.5 -0.0274" stroke-width="1"></path><path id="Ellipse 1785" stroke="#000000" stroke-linecap="round" stroke-linejoin="round" d="M12.9727 8c0.0181 0.16417 0.0274 0.331 0.0274 0.5 0 0.169 -0.0093 0.33583 -0.0274 0.5" stroke-width="1"></path><path id="Ellipse 1781" stroke="#000000" stroke-linecap="round" stroke-linejoin="round" d="M12.0162 11.3086c-0.1033 0.1289 -0.2146 0.2535 -0.3341 0.373 -0.1196 0.1195 -0.2441 0.2308 -0.373 0.3341" stroke-width="1"></path><path id="Ellipse 1784" stroke="#000000" stroke-linecap="round" stroke-linejoin="round" d="M5.69099 12.0157c-0.12891 -0.1033 -0.25347 -0.2146 -0.37297 -0.3341 -0.1195 -0.1195 -0.23088 -0.2441 -0.33413 -0.373" stroke-width="1"></path><path id="Ellipse 1782" stroke="#000000" stroke-linecap="round" stroke-linejoin="round" d="M11.3091 4.9834c0.1289 0.10325 0.2535 0.21463 0.373 0.33413 0.1195 0.11951 0.2308 0.24406 0.3341 0.37298" stroke-width="1"></path><path id="Ellipse 1786" stroke="#000000" stroke-linecap="round" stroke-linejoin="round" d="M5 1.02746C5.16417 1.00932 5.331 1 5.5 1c0.169 0 0.33583 0.00932 0.5 0.02746" stroke-width="1"></path><path id="Ellipse 1787" stroke="#000000" stroke-linecap="round" stroke-linejoin="round" d="M1.02746 5.99999C1.00932 5.83583 1 5.669 1 5.5c0 -0.16901 0.00932 -0.33583 0.02746 -0.5" stroke-width="1"></path><path id="Ellipse 1784_2" stroke="#000000" stroke-linecap="round" stroke-linejoin="round" d="M2.69099 9.0157c-0.12891 -0.10325 -0.25347 -0.21463 -0.37297 -0.33413 -0.1195 -0.11951 -0.23088 -0.24406 -0.33413 -0.37298" stroke-width="1"></path><path id="Ellipse 1782_2" stroke="#000000" stroke-linecap="round" stroke-linejoin="round" d="M8.30908 1.9834c0.12892 0.10325 0.25347 0.21463 0.37298 0.33413 0.1195 0.11951 0.23088 0.24406 0.33413 0.37298" stroke-width="1"></path><path id="Ellipse 1783" stroke="#000000" stroke-linecap="round" stroke-linejoin="round" d="M1.98389 2.6905c0.10325 -0.12892 0.21462 -0.25347 0.33413 -0.37297 0.1195 -0.1195 0.24405 -0.23088 0.37297 -0.33413" stroke-width="1"></path><path id="Intersect" stroke="#000000" stroke-linecap="round" stroke-linejoin="round" d="M5.25 9.5c2.34721 0 4.25 -1.90279 4.25 -4.25 0 -0.23622 -0.01927 -0.46794 -0.05633 -0.69367C9.21794 4.51927 8.98622 4.5 8.75 4.5 6.40279 4.5 4.5 6.40279 4.5 8.75c0 0.23622 0.01927 0.46794 0.05633 0.69367 0.22573 0.03706 0.45745 0.05633 0.69367 0.05633Z" stroke-width="1"></path></g></svg>