<svg xmlns="http://www.w3.org/2000/svg" fill="none" viewBox="0 0 14 14"><g id="pathfinder-square-minus-back-1"><path id="Vector" stroke="#000000" stroke-linecap="round" stroke-linejoin="round" d="M4.5 9.5V12c0 0.5447 0.45533 1 1 1H12c0.5447 0 1 -0.4553 1 -1V5.5c0 -0.54467 -0.4553 -1 -1 -1H9.5" stroke-width="1"></path><path id="Vector 2580" stroke="#000000" stroke-linecap="round" stroke-linejoin="round" d="M1 2c0 -0.55228 0.44772 -1 1 -1" stroke-width="1"></path><path id="Vector 2581" stroke="#000000" stroke-linecap="round" stroke-linejoin="round" d="M9.5 8.5c0 0.55228 -0.44772 1 -1 1" stroke-width="1"></path><path id="Vector 2582" stroke="#000000" stroke-linecap="round" stroke-linejoin="round" d="M2 9.5c-0.55228 0 -1 -0.44772 -1 -1" stroke-width="1"></path><path id="Vector 2583" stroke="#000000" stroke-linecap="round" stroke-linejoin="round" d="M9.5 2c0 -0.55228 -0.44772 -1 -1 -1" stroke-width="1"></path><path id="Vector 2584" stroke="#000000" stroke-linecap="round" stroke-linejoin="round" d="M1 6V4.5" stroke-width="1"></path><path id="Vector 2585" stroke="#000000" stroke-linecap="round" stroke-linejoin="round" d="M9.5 4.5V6" stroke-width="1"></path><path id="Vector 2586" stroke="#000000" stroke-linecap="round" stroke-linejoin="round" d="M6 9.5H4.5" stroke-width="1"></path><path id="Vector 2587" stroke="#000000" stroke-linecap="round" stroke-linejoin="round" d="M6 1H4.5" stroke-width="1"></path></g></svg>