<svg xmlns="http://www.w3.org/2000/svg" fill="none" viewBox="0 0 14 14"><g id="pathfinder-square-outline"><path id="Vector" stroke="#000000" stroke-linecap="round" stroke-linejoin="round" d="M9.5 2.5V2c0 -0.26522 -0.10536 -0.51957 -0.29289 -0.70711C9.01957 1.10536 8.76522 1 8.5 1H2c-0.26522 0 -0.51957 0.10536 -0.70711 0.29289C1.10536 1.48043 1 1.73478 1 2v6.5c0 0.26522 0.10536 0.51957 0.29289 0.70711C1.48043 9.39464 1.73478 9.5 2 9.5h0.5" stroke-width="1"></path><path id="Vector_2" stroke="#000000" stroke-linecap="round" stroke-linejoin="round" d="M11.5 4.5h0.5c0.2652 0 0.5196 0.10536 0.7071 0.29289 0.1875 0.18754 0.2929 0.44189 0.2929 0.70711V12c0 0.2652 -0.1054 0.5196 -0.2929 0.7071S12.2652 13 12 13H5.5c-0.26522 0 -0.51957 -0.1054 -0.70711 -0.2929C4.60536 12.5196 4.5 12.2652 4.5 12v-0.5" stroke-width="1"></path><path id="Vector_3" stroke="#000000" stroke-linecap="round" stroke-linejoin="round" d="M5.5 4.5c-0.55228 0 -1 0.44772 -1 1v3c0 0.55228 0.44772 1 1 1h3c0.55228 0 1 -0.44772 1 -1v-3c0 -0.55228 -0.44772 -1 -1 -1h-3Z" stroke-width="1"></path></g></svg>