<svg xmlns="http://www.w3.org/2000/svg" fill="none" viewBox="0 0 14 14"><g id="pattern"><path id="Vector 4006" stroke="#000000" stroke-linecap="round" stroke-linejoin="round" d="M9.5 4.5H12c0.5523 0 1 0.44772 1 1V12c0 0.5523 -0.4477 1 -1 1H5.5c-0.55228 0 -1 -0.4477 -1 -1V9.5" stroke-width="1"></path><path id="Vector 4005" stroke="#000000" stroke-linecap="round" stroke-linejoin="round" d="M8.5 1H2c-0.55228 0 -1 0.44772 -1 1v6.5c0 0.55229 0.44772 1 1 1h6.5c0.55229 0 1 -0.44771 1 -1V2c0 -0.55228 -0.44771 -1 -1 -1Z" stroke-width="1"></path><path id="Vector 4009" stroke="#000000" stroke-linecap="round" stroke-linejoin="round" d="m2.75 3.75 1 -1" stroke-width="1"></path><path id="Vector 4013" stroke="#000000" stroke-linecap="round" stroke-linejoin="round" d="m5.75 5.75 -1 -1" stroke-width="1"></path><path id="Vector 4010" stroke="#000000" stroke-linecap="round" stroke-linejoin="round" d="m6.75 3.75 1 -1" stroke-width="1"></path><path id="Vector 4011" stroke="#000000" stroke-linecap="round" stroke-linejoin="round" d="m2.75 7.75 1 -1" stroke-width="1"></path><path id="Vector 4012" stroke="#000000" stroke-linecap="round" stroke-linejoin="round" d="m6.75 7.75 1 -1" stroke-width="1"></path></g></svg>