<svg width="14" height="14" viewBox="0 0 14 14" fill="none" xmlns="http://www.w3.org/2000/svg">
<path d="M8.60475 1.59482L3.58678 0.515252C3.52307 0.49897 3.45674 0.495684 3.39173 0.505587C3.32673 0.515491 3.26438 0.538382 3.20841 0.572897C3.15244 0.607411 3.10399 0.652842 3.06596 0.70648C3.02792 0.760119 3.00108 0.820867 2.98702 0.885102L1.62757 7.29252L0.617978 12.0006C0.591106 12.1265 0.614839 12.2578 0.684048 12.3663C0.753256 12.4748 0.86238 12.5517 0.987828 12.5804L2.18734 12.8403C2.25036 12.8534 2.31535 12.8541 2.3786 12.8421C2.44185 12.8301 2.50212 12.8058 2.55597 12.7705C2.60981 12.7353 2.65617 12.6897 2.6924 12.6365C2.72863 12.5833 2.75402 12.5235 2.76711 12.4604L3.76671 7.78232L7.20532 8.52202C7.71751 8.63216 8.24784 8.62653 8.75759 8.50555C9.26733 8.38456 9.74362 8.15127 10.1517 7.82271C10.5598 7.49414 10.8893 7.0786 11.1163 6.60641C11.3433 6.13422 11.4619 5.61731 11.4636 5.0934C11.4602 4.27094 11.1743 3.47461 10.6539 2.83772C10.1335 2.20084 9.41005 1.76205 8.60475 1.59482ZM7.2453 6.25294L4.24651 5.6032L4.79629 3.00425L7.79508 3.65398C8.13707 3.72822 8.43557 3.93526 8.6249 4.22957C8.81424 4.52389 8.8789 4.88136 8.80467 5.22335C8.73044 5.56534 8.5234 5.86384 8.22908 6.05317C7.93477 6.24251 7.5773 6.30717 7.23531 6.23294L7.2453 6.25294Z" stroke="#01040B" stroke-linecap="round" stroke-linejoin="round"/>
<path d="M5.14624 13.5L5.76599 10.6012L8.76478 11.231C11.0039 11.7208 13.3629 9.37171 13.3929 6.94269C13.3933 6.53779 13.3257 6.1357 13.193 5.75317" stroke="#01040B" stroke-linecap="round" stroke-linejoin="round"/>
</svg>
