<svg xmlns="http://www.w3.org/2000/svg" fill="none" viewBox="0 0 14 14"><g id="pen-2--content-creation-edit-fountain-pen-write"><path id="Vector" stroke="#000000" stroke-linecap="round" stroke-linejoin="round" d="M5.5 12.5001c0.27635 -0.2548 0.49691 -0.564 0.64777 -0.9082 0.15087 -0.3442 0.22875 -0.716 0.22875 -1.0918 0 -0.3759 -0.07788 -0.74763 -0.22875 -1.09186 -0.15086 -0.34423 -0.37142 -0.65346 -0.64777 -0.90818 -0.25472 -0.27635 -0.56395 -0.49691 -0.90818 -0.64777 -0.34423 -0.15087 -0.71598 -0.22875 -1.09182 -0.22875 -0.37584 0 -0.74759 0.07788 -1.09182 0.22875 -0.34423 0.15086 -0.65346 0.37142 -0.90818 0.64777 -1 1 -1 5.00004 -1 5.00004s4 0 5 -1Z" stroke-width="1"></path><path id="Vector_2" stroke="#000000" stroke-linecap="round" stroke-linejoin="round" d="M12.92 1.08006c-0.3464 -0.342007 -0.8056 -0.545927 -1.2916 -0.573542 -0.486 -0.027614 -0.9654 0.122975 -1.3484 0.423538L4.50004 5.00006l-0.71 2.64c0.65162 0.08254 1.2552 0.3861 1.71 0.86 0.47389 0.45479 0.77745 1.05838 0.86 1.71004l2.64 -0.71004 4.06996 -5.78c0.3006 -0.38292 0.4512 -0.86232 0.4236 -1.34833 -0.0276 -0.48601 -0.2316 -0.94526 -0.5736 -1.29167v0Z" stroke-width="1"></path><path id="Vector_3" stroke="#000000" stroke-linecap="round" stroke-linejoin="round" d="m0.5 13.5 2.4375 -2.4375" stroke-width="1"></path></g></svg>