<svg xmlns="http://www.w3.org/2000/svg" fill="none" viewBox="0 0 14 14"><g id="pen-1--content-creation-edit-pen-write"><path id="Vector" stroke="#000000" stroke-linecap="round" stroke-linejoin="round" d="m0.5 13.5 2 -2" stroke-width="1"></path><path id="Vector 4158" stroke="#000000" stroke-linecap="round" stroke-linejoin="round" d="m3.29274 12.2929 -1.58578 -1.5858c-0.39053 -0.3905 -0.39053 -1.02368 0 -1.41421l8.26256 -8.26256C10.3091 0.690765 10.7696 0.5 11.2498 0.5c0.4803 0 0.9408 0.190766 1.2804 0.53033l0.4393 0.43934c0.3396 0.33956 0.5303 0.80011 0.5303 1.28033s-0.1907 0.94077 -0.5303 1.28033L4.70696 12.2929c-0.39053 0.3905 -1.02369 0.3905 -1.41422 0Z" stroke-width="1"></path><path id="Vector 4159" stroke="#000000" stroke-linecap="round" stroke-linejoin="round" d="M11.5 5.5 7.20711 1.20711c-0.39053 -0.390528 -1.02369 -0.390527 -1.41422 0L2.5 4.5" stroke-width="1"></path></g></svg>