<svg xmlns="http://www.w3.org/2000/svg" fill="none" viewBox="0 0 14 14"><g id="pepper-bottle--seasoning-cook-cooking-fresh-spice-kitchenware-pepper-bottle"><path id="Vector 4627" stroke="#000000" stroke-linecap="round" stroke-linejoin="round" d="M9.75 4.5h-5.5c-0.82843 0 -1.5 -0.67157 -1.5 -1.5s0.67157 -1.5 1.5 -1.5h5.5c0.8284 0 1.5 0.67157 1.5 1.5s-0.6716 1.5 -1.5 1.5Z" stroke-width="1"></path><path id="Vector 4628" stroke="#000000" stroke-linecap="round" stroke-linejoin="round" d="M1.75 12v0.5c0 0.5523 0.44772 1 1 1h8.5c0.5523 0 1 -0.4477 1 -1V12c0 -0.8284 -0.6716 -1.5 -1.5 -1.5h-7.5c-0.82843 0 -1.5 0.6716 -1.5 1.5Z" stroke-width="1"></path><path id="Vector 4629" stroke="#000000" stroke-linecap="round" stroke-linejoin="round" d="m3.5 10.5 1 -6h5l1 6h-7Z" stroke-width="1"></path><path id="Vector 4630" stroke="#000000" stroke-linecap="round" stroke-linejoin="round" d="M7 1.5v-1" stroke-width="1"></path></g></svg>