<svg xmlns="http://www.w3.org/2000/svg" fill="none" viewBox="0 0 14 14"><g id="permanent-block-account-security"><path id="vector" stroke="#000000" stroke-linecap="round" stroke-linejoin="round" d="M5.26825 9.55933H0.93492c-0.239323 0 -0.433333 0.19401 -0.433333 0.43333V13.026c0 0.2393 0.19401 0.4333 0.433333 0.4333h4.33333c0.23933 0 0.43334 -0.194 0.43334 -0.4333V9.99266c0 -0.23932 -0.19401 -0.43333 -0.43334 -0.43333Z" stroke-width="1"></path><path id="vector_2" stroke="#000000" stroke-linecap="round" stroke-linejoin="round" d="M1.36877 9.55972v-0.86667c0 -0.45971 0.18262 -0.90059 0.50769 -1.22565 0.32506 -0.32506 0.76594 -0.50768 1.22565 -0.50768 0.45971 0 0.90059 0.18262 1.22565 0.50768 0.32506 0.32506 0.50768 0.76594 0.50768 1.22565v0.86667" stroke-width="1"></path><path id="vector_3" stroke="#000000" stroke-linecap="round" stroke-linejoin="round" d="M3.02307 4.39216C3.74263 1.90681 6.18405 0.246514 8.831 0.584347c2.9273 0.373613 4.9975 3.049523 4.6238 5.976813 -0.3383 2.65074 -2.5644 4.59864 -5.15559 4.66564" stroke-width="1"></path><path id="vector_4" stroke="#000000" stroke-linecap="round" stroke-linejoin="round" d="M11.9391 9.67101 4.37623 2.10815" stroke-width="1"></path></g></svg>