<svg xmlns="http://www.w3.org/2000/svg" fill="none" viewBox="0 0 14 14"><g id="pet-food--nature-tray-bowl-cat-dog"><path id="Vector" stroke="#000000" stroke-linecap="round" stroke-linejoin="round" d="M12.201 7.23688c-0.1187 -0.43506 -0.5138 -0.73688 -0.9648 -0.73688H2.7638c-0.45096 0 -0.84611 0.30182 -0.96477 0.73688L0.515537 11.943C0.505225 11.9808 0.5 12.0199 0.5 12.0591v0c0 0.2435 0.19742 0.4409 0.440949 0.4409H13.0591c0.2435 0 0.4409 -0.1974 0.4409 -0.4409v0c0 -0.0392 -0.0052 -0.0783 -0.0155 -0.1161L12.201 7.23688Z" stroke-width="1"></path><path id="Vector_2" stroke="#000000" stroke-linecap="round" stroke-linejoin="round" d="M5.5 9h3" stroke-width="1"></path><path id="Vector_3" stroke="#000000" stroke-linecap="round" stroke-linejoin="round" d="M11.5 4.5c-0.1073 -0.41691 -0.3463 -0.78806 -0.6814 -1.0583 -0.3351 -0.27025 -0.7484 -0.42515 -1.1786 -0.4417 -0.21817 -0.00157 -0.43488 0.03568 -0.64 0.11 -0.11289 -0.44937 -0.36923 -0.84967 -0.73015 -1.14021C7.90893 1.67925 7.46311 1.51431 7 1.5c-0.46311 0.01431 -0.90893 0.17925 -1.26985 0.46979C5.36923 2.26033 5.11289 2.66063 5 3.11c-0.19881 -0.07202 -0.40855 -0.10923 -0.62 -0.11 -0.43365 0.0123 -0.85155 0.16527 -1.19066 0.43584C2.85022 3.70641 2.60828 4.0799 2.5 4.5" stroke-width="1"></path></g></svg>