<svg xmlns="http://www.w3.org/2000/svg" fill="none" viewBox="0 0 14 14"><g id="pet-friendly-hotel--pet-friendly-hotel-animals-canine-feline-cat-dog"><path id="Vector 3720" stroke="#000000" stroke-linecap="round" stroke-linejoin="round" d="M1 6.9399V12c0 0.5523 0.44772 1 1 1h10c0.5523 0 1 -0.4477 1 -1V6.9399c0 -0.2803 -0.1176 -0.54774 -0.3243 -0.73715L7 1 1.32428 6.20275C1.11765 6.39216 1 6.6596 1 6.9399Z" stroke-width="1"></path><path id="Ellipse 1532" stroke="#000000" stroke-linecap="round" stroke-linejoin="round" d="M9 7a0.5 0.5 0 1 0 1 0 0.5 0.5 0 1 0 -1 0" stroke-width="1"></path><path id="Ellipse 1533" stroke="#000000" stroke-linecap="round" stroke-linejoin="round" d="M4 7a0.5 0.5 0 1 0 1 0 0.5 0.5 0 1 0 -1 0" stroke-width="1"></path><path id="Ellipse 1534" stroke="#000000" stroke-linecap="round" stroke-linejoin="round" d="M6.5 5.75a0.5 0.5 0 1 0 1 0 0.5 0.5 0 1 0 -1 0" stroke-width="1"></path><path id="Vector 2825" stroke="#000000" stroke-linecap="round" stroke-linejoin="round" d="M8 11.25H6c-0.55228 0 -1 -0.4477 -1 -1V10c0 -0.15738 0.0741 -0.30557 0.2 -0.4l1.2 -0.9c0.35556 -0.26667 0.84444 -0.26667 1.2 0l1.2 0.9c0.1259 0.09443 0.2 0.24262 0.2 0.4v0.25c0 0.5523 -0.44772 1 -1 1Z" stroke-width="1"></path></g></svg>