<svg xmlns="http://www.w3.org/2000/svg" fill="none" viewBox="0 0 14 14"><g id="phone-pen-2--android-phone-mobile-device-smartphone-iphone-pen-pencil"><g id="Group 636"><path id="Ellipse 1020" stroke="#000000" stroke-linecap="round" stroke-linejoin="round" d="M4.20007 4.05c-0.13807 0 -0.25 -0.11193 -0.25 -0.25s0.11193 -0.25 0.25 -0.25" stroke-width="1"></path><path id="Ellipse 1021" stroke="#000000" stroke-linecap="round" stroke-linejoin="round" d="M4.20007 4.05c0.13807 0 0.25 -0.11193 0.25 -0.25s-0.11193 -0.25 -0.25 -0.25" stroke-width="1"></path></g><path id="Vector" stroke="#000000" stroke-linecap="round" stroke-linejoin="round" d="M1.5 1H7c0.6 0 1 0.4 1 1v10c0 0.6 -0.4 1 -1 1H1.5c-0.6 0 -1 -0.4 -1 -1V2c0 -0.6 0.4 -1 1 -1Z" stroke-width="1"></path><path id="Vector_2" stroke="#000000" stroke-linecap="round" stroke-linejoin="round" d="m10.5 4.5 1.5 -2 1.5 2V12c0 0.6 -0.4 1 -1 1h-1c-0.6 0 -1 -0.4 -1 -1V4.5Z" stroke-width="1"></path></g></svg>