<svg xmlns="http://www.w3.org/2000/svg" fill="none" viewBox="0 0 14 14"><g id="phone-lock--android-phone-mobile-device-smartphone-iphone-lock-key"><path id="Vector" stroke="#000000" stroke-linecap="round" stroke-linejoin="round" d="M6.30501 7.44001c0.99688 0 1.80501 -0.80813 1.80501 -1.80501s-0.80813 -1.80501 -1.80501 -1.80501S4.5 4.63812 4.5 5.635s0.80813 1.80501 1.80501 1.80501Z" stroke-width="1"></path><path id="Vector_2" stroke="#000000" stroke-linecap="round" stroke-linejoin="round" d="M7.70081 4.24912 11.34 0.609986c0.0327 -0.034811 0.0723 -0.062552 0.1161 -0.081515 0.0439 -0.018963 0.0911 -0.028746 0.1389 -0.028746 0.0478 0 0.0951 0.009783 0.1389 0.028746 0.0439 0.018963 0.0834 0.046704 0.1161 0.081515L13 1.75999" stroke-width="1"></path><path id="Vector_3" stroke="#000000" stroke-linecap="round" stroke-linejoin="round" d="m9.94995 2.04001 1.02005 1.02" stroke-width="1"></path><path id="Vector_4" stroke="#000000" stroke-linecap="round" stroke-linejoin="round" d="M4.5 11h1" stroke-width="1"></path><path id="Vector_5" stroke="#000000" stroke-linecap="round" stroke-linejoin="round" d="M8.5 0.5h-7c-0.552285 0 -1 0.447715 -1 1v11c0 0.5523 0.447715 1 1 1h7c0.55228 0 1 -0.4477 1 -1V8" stroke-width="1"></path></g></svg>