<svg xmlns="http://www.w3.org/2000/svg" fill="none" viewBox="0 0 14 14"><g id="phone-lock-1--android-phone-mobile-device-smartphone-iphone-lock-key"><path id="Vector" stroke="#000000" stroke-linecap="round" stroke-linejoin="round" d="M7.14075 3.6875h4.99995c0.3 0 0.5 0.2 0.5 0.5v3c0 0.3 -0.2 0.5 -0.5 0.5H7.14075c-0.3 0 -0.5 -0.2 -0.5 -0.5v-3c0 -0.3 0.2 -0.5 0.5 -0.5Z" stroke-width="1"></path><path id="Vector_2" stroke="#000000" stroke-linecap="round" stroke-linejoin="round" d="M7.64075 3.6875v-1c0 -1.1 0.9 -2 2 -2 1.09995 0 1.99995 0.9 1.99995 2v1" stroke-width="1"></path><path id="Vector_3" stroke="#000000" stroke-linecap="round" stroke-linejoin="round" d="M6 0.5H3c-0.55228 0 -1 0.447715 -1 1v11c0 0.5523 0.44772 1 1 1h7c0.5523 0 1 -0.4477 1 -1V10" stroke-width="1"></path><path id="Vector_4" stroke="#000000" stroke-linecap="round" stroke-linejoin="round" d="M6 11h1" stroke-width="1"></path></g></svg>