<svg xmlns="http://www.w3.org/2000/svg" fill="none" viewBox="0 0 14 14"><g id="phone-status--android-phone-mobile-device-smartphone-iphone-health-medical-heart-rate-information-data-beat-pulse-monitor"><path id="Vector" stroke="#000000" stroke-linecap="round" stroke-linejoin="round" d="M6.33301 0.5H2.625c-0.55228 0 -1 0.447715 -1 1v11c0 0.5523 0.44772 1 1 1h7c0.5523 0 1 -0.4477 1 -1V9.15625" stroke-width="1"></path><path id="Vector_2" stroke="#000000" stroke-linecap="round" stroke-linejoin="round" d="M5.625 11h1" stroke-width="1"></path><path id="vector" stroke="#000000" stroke-linecap="round" stroke-linejoin="round" d="M10.125 7.15625c1.7259 0 3.125 -1.39911 3.125 -3.125s-1.3991 -3.125 -3.125 -3.125C8.39911 0.90625 7 2.30536 7 4.03125s1.39911 3.125 3.125 3.125Z" stroke-width="1"></path><path id="Vector 1940" stroke="#000000" stroke-linecap="round" stroke-linejoin="round" d="M7 4.05995h1.16407l0.68194 -0.7049 1.11866 1.72307L10.9819 3l0.8835 1.05995h1.369" stroke-width="1"></path></g></svg>