<svg xmlns="http://www.w3.org/2000/svg" fill="none" viewBox="0 0 14 14"><g id="phone-setting--android-phone-mobile-device-smartphone-iphone-setting-gear-preferences"><path id="Vector" stroke="#000000" stroke-linecap="round" stroke-linejoin="round" d="M6.83301 0.5H3.1875c-0.55228 0 -1 0.447715 -1 1v11c0 0.5523 0.44772 1 1 1h7c0.5523 0 1 -0.4477 1 -1V9.15625" stroke-width="1"></path><path id="Vector_2" stroke="#000000" stroke-linecap="round" stroke-linejoin="round" d="M6.1875 11h1" stroke-width="1"></path><path id="vector" stroke="#000000" stroke-linecap="round" stroke-linejoin="round" d="M9.81934 0.71875v1.39573" stroke-width="1"></path><path id="vector_2" stroke="#000000" stroke-linecap="round" stroke-linejoin="round" d="m7 2.34711 1.20963 0.69786" stroke-width="1"></path><path id="vector_3" stroke="#000000" stroke-linecap="round" stroke-linejoin="round" d="m7 5.60381 1.20963 -0.69787" stroke-width="1"></path><path id="vector_4" stroke="#000000" stroke-linecap="round" stroke-linejoin="round" d="M9.81934 7.23215V5.83643" stroke-width="1"></path><path id="vector_5" stroke="#000000" stroke-linecap="round" stroke-linejoin="round" d="m12.6387 5.60381 -1.2096 -0.69787" stroke-width="1"></path><path id="vector_6" stroke="#000000" stroke-linecap="round" stroke-linejoin="round" d="m12.6387 2.34711 -1.2096 0.69786" stroke-width="1"></path><path id="vector_7" stroke="#000000" stroke-linecap="round" stroke-linejoin="round" d="M9.81934 5.83641c1.02776 0 1.86096 -0.83319 1.86096 -1.86097s-0.8332 -1.86097 -1.86096 -1.86097c-1.02778 0 -1.86097 0.83319 -1.86097 1.86097s0.83319 1.86097 1.86097 1.86097Z" stroke-width="1"></path></g></svg>