<svg xmlns="http://www.w3.org/2000/svg" fill="none" viewBox="0 0 14 14"><g id="phone-pen-1--android-phone-mobile-device-smartphone-iphone-pen-pencil"><path id="Vector" stroke="#000000" stroke-linecap="round" stroke-linejoin="round" d="m8.36316 8.13681 -3 0.54 0.5 -3.04 4.73004 -4.71c0.0929 -0.093728 0.2035 -0.168122 0.3254 -0.218891 0.1218 -0.050769 0.2525 -0.076907 0.3846 -0.076907 0.132 0 0.2627 0.026138 0.3845 0.076907 0.1219 0.050769 0.2325 0.125163 0.3255 0.218891l1.06 1.06c0.0937 0.09296 0.1681 0.20356 0.2189 0.32542 0.0507 0.12186 0.0769 0.25257 0.0769 0.38458 0 0.13201 -0.0262 0.26272 -0.0769 0.38458 -0.0508 0.12186 -0.1252 0.23246 -0.2189 0.32542l-4.71004 4.73Z" stroke-width="1"></path><path id="Vector_2" stroke="#000000" stroke-linecap="round" stroke-linejoin="round" d="M7.5 0.5h-6c-0.552285 0 -1 0.447715 -1 1v11c0 0.5523 0.447715 1 1 1h7c0.55228 0 1 -0.4477 1 -1V9.75" stroke-width="1"></path><path id="Vector_3" stroke="#000000" stroke-linecap="round" stroke-linejoin="round" d="M4.5 11h1" stroke-width="1"></path></g></svg>