<svg xmlns="http://www.w3.org/2000/svg" fill="none" viewBox="0 0 14 14"><g id="phone-circle--android-phone-mobile-device-smartphone-iphone-circle"><path id="Vector" stroke="#000000" stroke-linecap="round" stroke-linejoin="round" d="M6.35995 10.48c-0.4185 0.177 -0.88249 0.2162 -1.32477 0.112 -0.44228 -0.1043 -0.83988 -0.3467 -1.13523 -0.69201l-0.31 -0.31c-0.13485 -0.10823 -0.22264 -0.2644 -0.24501 -0.43587 -0.02236 -0.17146 0.02243 -0.34493 0.12501 -0.48413l1 -1c0.1392 -0.10258 0.31267 -0.14737 0.48413 -0.125 0.17146 0.02236 0.32764 0.11015 0.43587 0.245 0.10823 0.13486 0.26441 0.22265 0.43587 0.24501 0.17146 0.02236 0.34493 -0.02243 0.48413 -0.12501l1.6 -1.6c0.10258 -0.1392 0.14737 -0.31267 0.12501 -0.48413 -0.02237 -0.17146 -0.11016 -0.32764 -0.24501 -0.43587 -0.13485 -0.10823 -0.22264 -0.2644 -0.24501 -0.43587 -0.02236 -0.17146 0.02243 -0.34493 0.12501 -0.48413l1 -1c0.1392 -0.10258 0.31267 -0.14737 0.48413 -0.125 0.17146 0.02236 0.32764 0.11015 0.43587 0.245l0.31 0.31c0.34405 0.29628 0.58545 0.69386 0.68965 1.13578 0.1042 0.44191 0.0658 0.90546 -0.1097 1.32422 -1.01396 1.69095 -2.429 3.106 -4.11995 4.12001Z" stroke-width="1"></path><path id="Vector_2" stroke="#000000" stroke-linecap="round" stroke-linejoin="round" d="M7 13.5C3.41015 13.5 0.5 10.5899 0.5 7 0.5 3.41015 3.41015 0.5 7 0.5c3.5899 0 6.5 2.91015 6.5 6.5 0 3.5899 -2.9101 6.5 -6.5 6.5Z" stroke-width="1"></path></g></svg>