<svg xmlns="http://www.w3.org/2000/svg" fill="none" viewBox="0 0 14 14"><g id="phone-circle-off--android-phone-mobile-device-smartphone-iphone-off-mute-dnd-circle"><path id="Vector" stroke="#000000" stroke-linecap="round" stroke-linejoin="round" d="M7 13.5C3.41015 13.5 0.5 10.5899 0.5 7 0.5 3.41015 3.41015 0.5 7 0.5c3.5899 0 6.5 2.91015 6.5 6.5 0 3.5899 -2.9101 6.5 -6.5 6.5Z" stroke-width="1"></path><path id="Vector_2" stroke="#000000" stroke-linecap="round" stroke-linejoin="round" d="M11.6 11.6 2.39997 2.39999" stroke-width="1"></path><path id="Vector_3" stroke="#000000" stroke-linecap="round" stroke-linejoin="round" d="M7 10.08c-0.20646 0.144 -0.42006 0.2775 -0.64 0.4 -0.4185 0.177 -0.88249 0.2162 -1.32477 0.112 -0.44228 -0.1043 -0.83988 -0.3467 -1.13523 -0.692l-0.31 -0.30999c-0.13485 -0.10823 -0.22264 -0.26441 -0.24501 -0.43587 -0.02236 -0.17146 0.02243 -0.34493 0.12501 -0.48413l1 -1c0.1392 -0.10259 0.31267 -0.14738 0.48413 -0.12501 0.17146 0.02236 0.32764 0.11015 0.43587 0.24501" stroke-width="1"></path><path id="Vector_4" stroke="#000000" stroke-linecap="round" stroke-linejoin="round" d="m7.10995 7.10999 0.8 -0.8c0.10258 -0.1392 0.14737 -0.31267 0.12501 -0.48413 -0.02237 -0.17146 -0.11016 -0.32764 -0.24501 -0.43587v0c-0.13485 -0.10823 -0.22264 -0.2644 -0.24501 -0.43587 -0.02236 -0.17146 0.02243 -0.34493 0.12501 -0.48413l1 -1c0.1392 -0.10258 0.31267 -0.14737 0.48413 -0.125 0.17146 0.02236 0.32764 0.11015 0.43587 0.245l0.31 0.31c0.34405 0.29628 0.58545 0.69386 0.68965 1.13578 0.1042 0.44191 0.0658 0.90546 -0.1097 1.32422 -0.4926 0.84795 -1.09813 1.62505 -1.79995 2.31" stroke-width="1"></path></g></svg>