<svg xmlns="http://www.w3.org/2000/svg" fill="none" viewBox="0 0 14 14"><g id="phone-rotate-mobile"><path id="Ellipse 1522" stroke="#000000" stroke-linecap="round" stroke-linejoin="round" d="M7 0.499994C3.41015 0.499994 0.5 3.41014 0.5 6.99999c0 2.70395 1.65105 5.02231 4 6.00181" stroke-width="1"></path><path id="Ellipse 1523" stroke="#000000" stroke-linecap="round" stroke-linejoin="round" d="M7 13.5c3.5899 0 6.5 -2.9101 6.5 -6.5 0 -2.70395 -1.651 -5.02228 -4 -6.001837" stroke-width="1"></path><path id="Vector" stroke="#000000" stroke-linecap="round" stroke-linejoin="round" d="m11.5 0.5 -2 0 0 2" stroke-width="1"></path><path id="Vector_2" stroke="#000000" stroke-linecap="round" stroke-linejoin="round" d="m2.5 13.5 2 0 0 -2" stroke-width="1"></path><path id="Vector_3" stroke="#000000" stroke-linecap="round" stroke-linejoin="round" d="M6.05179 3.86741 3.83941 6.07979c-0.17455 0.17455 -0.17455 0.45755 0 0.63211L7.316 10.1885c0.17456 0.1745 0.45756 0.1745 0.63211 0l2.21239 -2.21239c0.1745 -0.17455 0.1745 -0.45755 0 -0.63211L6.6839 3.86741c-0.17456 -0.17455 -0.45756 -0.17455 -0.63211 0Z" stroke-width="1"></path><path id="Vector_4" stroke="#000000" stroke-linecap="round" stroke-linejoin="round" d="m7.68396 8.04422 0.31605 -0.31606" stroke-width="1"></path></g></svg>