<svg xmlns="http://www.w3.org/2000/svg" fill="none" viewBox="0 0 14 14"><g id="pie--pie-bake-bakery-oven-food"><path id="Ellipse 1538" stroke="#000000" stroke-linecap="round" stroke-linejoin="round" d="M7.00002 6C3.50004 6 1 8 1 10c0 0.2761 0.22386 0.5 0.5 0.5h11c0.2761 0 0.5 -0.2239 0.5 -0.5 0 -2 -2.5 -4 -5.99998 -4Z" stroke-width="1"></path><path id="Vector 2874" stroke="#000000" stroke-linecap="round" stroke-linejoin="round" d="M2.74856 12.3714 2 10.5h10l-0.7486 1.8714c-0.1518 0.3796 -0.5195 0.6286 -0.9284 0.6286H3.67703c-0.4089 0 -0.77661 -0.249 -0.92847 -0.6286Z" stroke-width="1"></path><path id="Vector 2875" stroke="#000000" stroke-linecap="round" stroke-linejoin="round" d="m5.25 8.75 0.5 -1" stroke-width="1"></path><path id="Vector 2876" stroke="#000000" stroke-linecap="round" stroke-linejoin="round" d="m8.75 8.75 -0.5 -1" stroke-width="1"></path><path id="Vector" stroke="#000000" stroke-linecap="round" stroke-linejoin="round" d="M3.99782 3.25c1.08333 -1.35417 -1.08334 -1.39583 0 -2.75" stroke-width="1"></path><path id="Vector_2" stroke="#000000" stroke-linecap="round" stroke-linejoin="round" d="M6.99782 3.25c1.08333 -1.35417 -1.08334 -1.39583 0 -2.75" stroke-width="1"></path><path id="Vector_3" stroke="#000000" stroke-linecap="round" stroke-linejoin="round" d="M9.99782 3.25c1.08328 -1.35417 -1.08334 -1.39583 0 -2.75" stroke-width="1"></path></g></svg>