<svg xmlns="http://www.w3.org/2000/svg" fill="none" viewBox="0 0 14 14"><g id="pin-1--pin-push-thumbtack"><path id="Vector" stroke="#000000" stroke-linecap="round" stroke-linejoin="round" d="m10.2486 7.13143 2.77 -1.61c0.1274 -0.07725 0.2359 -0.18198 0.3176 -0.30654 0.0817 -0.12455 0.1346 -0.26579 0.1547 -0.41338 0.0201 -0.1476 0.007 -0.29783 -0.0384 -0.43971 -0.0453 -0.14189 -0.1218 -0.27184 -0.2239 -0.38037l-3.21 -3.210004C9.9101 0.669391 9.78015 0.592893 9.63826 0.547519 9.49638 0.502145 9.34615 0.489043 9.19855 0.50917c-0.14759 0.020127 -0.28883 0.072974 -0.41339 0.15468 -0.12455 0.081707 -0.22928 0.190208 -0.30653 0.317576l-1.66 2.730004 -4.49 1c-0.10267 0.02491 -0.19695 0.0765 -0.2733 0.14954 -0.07634 0.07304 -0.13204 0.16495 -0.16147 0.26642 -0.02943 0.10148 -0.03154 0.20893 -0.00612 0.31148 0.02542 0.10255 0.07748 0.19657 0.15089 0.27256l6.15 6.15997c0.07785 0.0705 0.17256 0.1196 0.27498 0.1428 0.10241 0.0231 0.20906 0.0194 0.30962 -0.0108 0.10056 -0.0302 0.19164 -0.0858 0.26441 -0.1614 0.07277 -0.0757 0.12478 -0.1689 0.15099 -0.2706l1.05997 -4.43997Z" stroke-width="1"></path><path id="Vector_2" stroke="#000000" stroke-linecap="round" stroke-linejoin="round" d="m0.5 13.5 4.66074 -4.66089" stroke-width="1"></path></g></svg>