<svg xmlns="http://www.w3.org/2000/svg" fill="none" viewBox="0 0 14 14"><g id="plane-front"><path id="Vector 4607" stroke="#000000" stroke-linecap="round" stroke-linejoin="round" d="M6.25 7h1.5" stroke-width="1"></path><path id="Ellipse 1736" stroke="#000000" stroke-linecap="round" stroke-linejoin="round" d="M4 7.5a3 3 0 1 0 6 0 3 3 0 1 0 -6 0" stroke-width="1"></path><path id="Vector 4604" stroke="#000000" stroke-linecap="round" stroke-linejoin="round" d="m4 7.5 -3.5 1" stroke-width="1"></path><path id="Vector 4605" stroke="#000000" stroke-linecap="round" stroke-linejoin="round" d="m10 7.5 3.5 1" stroke-width="1"></path><path id="Vector 4606" stroke="#000000" stroke-linecap="round" stroke-linejoin="round" d="M7 4.5V2" stroke-width="1"></path><path id="Ellipse 1737" stroke="#000000" stroke-linecap="round" stroke-linejoin="round" d="M10.5 10.5a1 1 0 1 0 2 0 1 1 0 1 0 -2 0" stroke-width="1"></path><path id="Ellipse 1738" stroke="#000000" stroke-linecap="round" stroke-linejoin="round" d="M1.5 10.5a1 1 0 1 0 2 0 1 1 0 1 0 -2 0" stroke-width="1"></path></g></svg>