<svg xmlns="http://www.w3.org/2000/svg" fill="none" viewBox="0 0 14 14"><g id="plane-boarding-pass--ticket-airplane-flight-boarding-airport"><path id="Vector" stroke="#000000" stroke-linecap="round" stroke-linejoin="round" d="M11.5 7c0 -0.53043 0.2107 -1.03914 0.5858 -1.41421C12.4609 5.21071 12.9696 5 13.5 5V3c0 -0.26522 -0.1054 -0.51957 -0.2929 -0.70711C13.0196 2.10536 12.7652 2 12.5 2h-11c-0.26522 0 -0.51957 0.10536 -0.707107 0.29289C0.605357 2.48043 0.5 2.73478 0.5 3v2c0.53043 0 1.03914 0.21071 1.41421 0.58579C2.28929 5.96086 2.5 6.46957 2.5 7s-0.21071 1.03914 -0.58579 1.41421C1.53914 8.78929 1.03043 9 0.5 9v2c0 0.2652 0.105357 0.5196 0.292893 0.7071C0.98043 11.8946 1.23478 12 1.5 12h11c0.2652 0 0.5196 -0.1054 0.7071 -0.2929S13.5 11.2652 13.5 11V9c-0.5304 0 -1.0391 -0.21071 -1.4142 -0.58579C11.7107 8.03914 11.5 7.53043 11.5 7Z" stroke-width="1"></path><path id="Vector_2" stroke="#000000" stroke-linecap="round" stroke-linejoin="round" d="m5 8 1 1 3 -3" stroke-width="1"></path><path id="Vector_3" stroke="#000000" stroke-linecap="round" stroke-linejoin="round" d="m6.5 6 1.25 1.25" stroke-width="1"></path></g></svg>