<svg xmlns="http://www.w3.org/2000/svg" fill="none" viewBox="0 0 14 14"><g id="play-list-2--player-television-movies-slider-media-tv-players-video-entertainment"><path id="Vector" stroke="#000000" stroke-linecap="round" stroke-linejoin="round" d="M5.5 8.68V5.32c0 -0.25 0.23 -0.4 0.41 -0.28l2.45 1.68c0.04347 0.0326 0.07875 0.07488 0.10305 0.12348 0.0243 0.0486 0.03695 0.10219 0.03695 0.15652 0 0.05434 -0.01265 0.10793 -0.03695 0.15653 -0.0243 0.0486 -0.05958 0.09087 -0.10305 0.12347L5.91 9c-0.18 0.08 -0.41 -0.07 -0.41 -0.32Z" stroke-width="1"></path><path id="Vector_2" stroke="#000000" stroke-linecap="round" stroke-linejoin="round" d="M10 1.5H4c-0.55228 0 -1 0.44772 -1 1v9c0 0.5523 0.44772 1 1 1h6c0.5523 0 1 -0.4477 1 -1v-9c0 -0.55228 -0.4477 -1 -1 -1Z" stroke-width="1"></path><path id="Vector_3" stroke="#000000" stroke-linecap="round" stroke-linejoin="round" d="M0.5 3v8" stroke-width="1"></path><path id="Vector_4" stroke="#000000" stroke-linecap="round" stroke-linejoin="round" d="M13.5 3v8" stroke-width="1"></path></g></svg>