<svg xmlns="http://www.w3.org/2000/svg" fill="none" viewBox="0 0 14 14"><g id="play-list-3--player-television-display-movies-smartphone-media-tv-players-screen-video-entertainment"><path id="Vector" stroke="#000000" stroke-linecap="round" stroke-linejoin="round" d="M5.26133 7.20249v-3.32c-0.00266 -0.05612 0.00998 -0.11192 0.03658 -0.16142 0.0266 -0.04949 0.06614 -0.09083 0.11442 -0.11959 0.04827 -0.02876 0.10345 -0.04386 0.15964 -0.04368 0.05619 0.00018 0.11128 0.01563 0.15936 0.04469l2.85 1.67c0.04786 0.027 0.08767 0.06622 0.11538 0.11367 0.02771 0.04744 0.04231 0.10139 0.04231 0.15633s-0.0146 0.1089 -0.04231 0.15634c-0.02771 0.04744 -0.06752 0.08667 -0.11538 0.11366l-2.85 1.66c-0.04735 0.02855 -0.10148 0.04391 -0.15677 0.04449 -0.05529 0.00058 -0.10973 -0.01364 -0.15768 -0.04118 -0.04794 -0.02755 -0.08765 -0.06741 -0.115 -0.11547 -0.02735 -0.04805 -0.04135 -0.10255 -0.04055 -0.15784Z" stroke-width="1"></path><path id="Vector_2" stroke="#000000" stroke-linecap="round" stroke-linejoin="round" d="M10.5 0.5h-7c-0.55228 0 -1 0.447715 -1 1v11c0 0.5523 0.44772 1 1 1h7c0.5523 0 1 -0.4477 1 -1v-11c0 -0.552285 -0.4477 -1 -1 -1Z" stroke-width="1"></path><path id="Vector_3" stroke="#000000" stroke-linecap="round" stroke-linejoin="round" d="M6.5 11h1" stroke-width="1"></path></g></svg>