<svg xmlns="http://www.w3.org/2000/svg" fill="none" viewBox="0 0 14 14"><g id="play-list-1--screen-television-display-player-movies-movie-tv-media-players-video-entertainment"><path id="Vector" stroke="#000000" stroke-linecap="round" stroke-linejoin="round" d="M12.5 0.5h-11c-0.552285 0 -1 0.447715 -1 1v11c0 0.5523 0.447715 1 1 1h11c0.5523 0 1 -0.4477 1 -1v-11c0 -0.552285 -0.4477 -1 -1 -1Z" stroke-width="1"></path><path id="Vector_2" stroke="#000000" stroke-linecap="round" stroke-linejoin="round" d="M5.48999 10.56V6.72999c0.0028 -0.05885 0.01999 -0.11613 0.05009 -0.16678 0.03009 -0.05066 0.07216 -0.09316 0.12252 -0.12377 0.05035 -0.0306 0.10744 -0.04838 0.16627 -0.05177 0.05883 -0.00339 0.11759 0.00771 0.17112 0.03232l3.32 1.91c0.05377 0.03313 0.09816 0.07947 0.12895 0.13461 0.03079 0.05514 0.04695 0.11724 0.04695 0.18039 0 0.06316 -0.01616 0.12526 -0.04695 0.1804 -0.03079 0.05514 -0.07518 0.10147 -0.12895 0.1346l-3.32 1.92001c-0.05446 0.0224 -0.11348 0.0314 -0.17215 0.0264 -0.05867 -0.005 -0.11529 -0.0239 -0.16517 -0.0552 -0.04988 -0.0313 -0.09156 -0.0741 -0.1216 -0.1247 -0.03003 -0.0506 -0.04754 -0.1077 -0.05108 -0.1665v0Z" stroke-width="1"></path><path id="Vector_3" stroke="#000000" stroke-linecap="round" stroke-linejoin="round" d="M0.5 4h13" stroke-width="1"></path><path id="Vector_4" stroke="#000000" stroke-linecap="round" stroke-linejoin="round" d="M4 4 5.5 0.5" stroke-width="1"></path><path id="Vector_5" stroke="#000000" stroke-linecap="round" stroke-linejoin="round" d="M8.5 4 10 0.5" stroke-width="1"></path></g></svg>