<svg xmlns="http://www.w3.org/2000/svg" fill="none" viewBox="0 0 14 14"><g id="polaroid--photos-polaroid-picture-camera-photography-photo-pictures-image"><path id="Vector" stroke="#000000" stroke-linecap="round" stroke-linejoin="round" d="m1.5 9.5 7 0c0.55228 0 1 -0.44772 1 -1l0 -7c0 -0.552285 -0.44772 -1 -1 -1l-7 0c-0.552285 0 -1 0.447715 -1 1l0 7c0 0.55228 0.447715 1 1 1Z" stroke-width="1"></path><path id="Vector_2" stroke="#000000" stroke-linecap="round" stroke-linejoin="round" d="m12.0279 4.70088 0.78 0.25c0.1258 0.04073 0.2423 0.10601 0.3428 0.19208 0.1004 0.08606 0.1828 0.1912 0.2423 0.30932 0.0595 0.11812 0.095 0.24687 0.1045 0.3788 0.0094 0.13193 -0.0075 0.26442 -0.0496 0.3898l-2.18 6.59002c-0.0824 0.2518 -0.2613 0.4607 -0.4976 0.5807 -0.2362 0.12 -0.5105 0.1413 -0.7624 0.0593l-4.42001 -1.45" stroke-width="1"></path><path id="Vector_3" stroke="#000000" stroke-linecap="round" stroke-linejoin="round" d="M0.5 7h9" stroke-width="1"></path></g></svg>