<svg xmlns="http://www.w3.org/2000/svg" fill="none" viewBox="0 0 14 14"><g id="politics-vote-2"><path id="Rectangle 597" stroke="#000000" stroke-linecap="round" stroke-linejoin="round" d="M5.40628 6.13647H2.27197c-0.55228 0 -1 0.44772 -1 1.00001V10.264H12.1789V7.13647c0 -0.55228 -0.4477 -1 -1 -1H8.04691" stroke-width="1"></path><path id="Rectangle 598" stroke="#000000" stroke-linecap="round" stroke-linejoin="round" d="M1.27197 13.3008V10.264H12.1789v3.0368" stroke-width="1"></path><path id="Vector 1085" stroke="#000000" stroke-linecap="round" stroke-linejoin="round" d="M9.34084 4.84257 7.07896 7.10445c-0.19527 0.19527 -0.51185 0.19527 -0.70711 0L3.36771 4.10032c-0.19526 -0.19526 -0.19526 -0.51185 0 -0.70711L5.6296 1.13132c0.19526 -0.195258 0.51185 -0.195258 0.70711 0l3.00413 3.00414c0.19527 0.19526 0.19527 0.51185 0 0.70711Z" stroke-width="1"></path><path id="Vector 1086" stroke="#000000" stroke-linecap="round" stroke-linejoin="round" d="M4.86987 8.20026h3.71125" stroke-width="1"></path></g></svg>