<svg xmlns="http://www.w3.org/2000/svg" fill="none" viewBox="0 0 14 14"><g id="police-car"><path id="Vector 2533" stroke="#000000" stroke-linecap="round" stroke-linejoin="round" d="M6 0.5v0.75" stroke-width="1"></path><path id="Vector 2534" stroke="#000000" stroke-linecap="round" stroke-linejoin="round" d="m7.75 1.75 0.5 -0.5" stroke-width="1"></path><path id="Vector 2535" stroke="#000000" stroke-linecap="round" stroke-linejoin="round" d="m4.25 1.75 -0.5 -0.5" stroke-width="1"></path><path id="Vector 4629" stroke="#000000" stroke-linecap="round" stroke-linejoin="round" d="M2 12h-0.5c-0.552285 0 -1 -0.4477 -1 -1V9c0 -0.55228 0.447715 -1 1 -1H2l1.24025 -2.89392C3.39783 4.7384 3.75937 4.5 4.1594 4.5h3.6812c0.40003 0 0.76157 0.2384 0.91915 0.60608L10 8h2.5c0.5523 0 1 0.44772 1 1v2c0 0.5523 -0.4477 1 -1 1H12" stroke-width="1"></path><path id="Vector 4679" stroke="#000000" stroke-linecap="round" stroke-linejoin="round" d="M6 4.5V3" stroke-width="1"></path><path id="Vector" stroke="#000000" stroke-linecap="round" stroke-linejoin="round" d="M10.4989 13.4999c-0.82897 0 -1.50101 -0.672 -1.50101 -1.501 0 -0.8291 0.67204 -1.5011 1.50101 -1.5011 0.8291 0 1.5011 0.672 1.5011 1.5011 0 0.829 -0.672 1.501 -1.5011 1.501Z" stroke-width="1"></path><path id="Vector_2" stroke="#000000" stroke-linecap="round" stroke-linejoin="round" d="M3.49894 13.4999c-0.82901 0 -1.50106 -0.672 -1.50106 -1.501 0 -0.829 0.67205 -1.5011 1.50106 -1.5011S5 11.1699 5 11.9989c0 0.829 -0.67205 1.501 -1.50106 1.501Z" stroke-width="1"></path><path id="Vector_3" stroke="#000000" stroke-linecap="round" stroke-linejoin="round" d="m8.99792 12 -3.99789 0" stroke-width="1"></path><path id="Vector 4630" stroke="#000000" stroke-linecap="round" stroke-linejoin="round" d="M2 8h8" stroke-width="1"></path></g></svg>