<svg xmlns="http://www.w3.org/2000/svg" fill="none" viewBox="0 0 14 14"><g id="politics-speech"><path id="Vector" stroke="#000000" stroke-linecap="round" stroke-linejoin="round" d="M7.00002 3.77042c0.88587 0 1.60401 -0.71815 1.60401 -1.60402 0 -0.88588 -0.71814 -1.604022 -1.60401 -1.604022 -0.88588 0 -1.60402 0.718142 -1.60402 1.604022 0 0.88587 0.71814 1.60402 1.60402 1.60402Z" stroke-width="1"></path><path id="Vector 1069" stroke="#000000" stroke-linecap="round" stroke-linejoin="round" d="M1.9588 6.97852h10.0824" stroke-width="1"></path><path id="Vector 1070" stroke="#000000" stroke-linecap="round" stroke-linejoin="round" d="m2.87537 6.97852 0.45829 6.41608" stroke-width="1"></path><path id="Vector 1071" stroke="#000000" stroke-linecap="round" stroke-linejoin="round" d="m11.1246 6.97852 -0.4583 6.41608" stroke-width="1"></path><path id="Star 4" stroke="#000000" stroke-linecap="round" stroke-linejoin="round" d="m7.00004 8.59082 0.58961 1.19467 1.31839 0.19157 -0.954 0.92994 0.22521 1.3131 -1.17921 -0.62 -1.17921 0.62 0.22521 -1.3131 -0.954 -0.92994 1.3184 -0.19157 0.5896 -1.19467Z" stroke-width="1"></path><path id="Vector 1238" stroke="#000000" stroke-linecap="round" stroke-linejoin="round" d="M10 7c0 -1.65685 -1.34315 -3 -3 -3S4 5.34315 4 7" stroke-width="1"></path></g></svg>