<svg xmlns="http://www.w3.org/2000/svg" fill="none" viewBox="0 0 14 14"><g id="potted-flower--nature-flower-plant-tree-pot"><path id="Vector" stroke="#000000" stroke-linecap="round" stroke-linejoin="round" d="M7 6.15002v2.85" stroke-width="1"></path><path id="Vector 3042" stroke="#000000" stroke-linecap="round" stroke-linejoin="round" d="m3.32598 12.7169 -0.69077 -3.10843C2.56582 9.29621 2.80343 9 3.12331 9h7.75339c0.3199 0 0.5575 0.29621 0.4881 0.60847l-0.6908 3.10843c-0.1017 0.4576 -0.5075 0.7831 -0.97617 0.7831H4.30217c-0.4687 0 -0.87451 -0.3255 -0.97619 -0.7831Z" stroke-width="1"></path><path id="Union" stroke="#000000" stroke-linecap="round" stroke-linejoin="round" d="M10.25 2.25c0 0.63658 -0.3399 1.19378 -0.8481 1.5 0.5082 0.30622 0.8481 0.86342 0.8481 1.5C10.25 6.2165 9.4665 7 8.5 7c-0.63658 0 -1.19378 -0.3399 -1.5 -0.8481C6.69378 6.6601 6.13658 7 5.5 7c-0.9665 0 -1.75 -0.7835 -1.75 -1.75 0 -0.63658 0.3399 -1.19378 0.8481 -1.5 -0.5082 -0.30622 -0.8481 -0.86342 -0.8481 -1.5C3.75 1.2835 4.5335 0.5 5.5 0.5c0.63658 0 1.19378 0.339896 1.5 0.8481C7.30622 0.839896 7.86342 0.5 8.5 0.5c0.9665 0 1.75 0.7835 1.75 1.75Z" stroke-width="1"></path></g></svg>