<svg xmlns="http://www.w3.org/2000/svg" fill="none" viewBox="0 0 14 14"><g id="potted-tree-2--nature-tree-plant-pot"><path id="Vector" stroke="#000000" stroke-linecap="round" stroke-linejoin="round" d="M11.3889 6.07873c-0.2028 0.17653 -0.4394 0.30999 -0.6954 0.3923 -0.2559 0.0823 -0.5259 0.11173 -0.79363 0.08649 -0.26768 -0.02524 -0.52744 -0.10462 -0.7635 -0.23332 -0.23607 -0.1287 -0.44351 -0.30403 -0.60974 -0.51535 -0.16624 -0.21133 -0.28779 -0.45423 -0.35727 -0.71396 -0.06949 -0.25974 -0.08546 -0.53088 -0.04695 -0.79698 0.03851 -0.2661 0.1307 -0.52159 0.27096 -0.75097 0.14027 -0.22938 0.3257 -0.42785 0.54502 -0.58338 0.8532 -0.67462 3.56161 -0.27779 3.56161 -0.27779s-0.248 2.71834 -1.1111 3.39296Z" stroke-width="1"></path><path id="Vector_2" stroke="#000000" stroke-linecap="round" stroke-linejoin="round" d="M5.89577 4.80505C6.66434 6.03314 7 7.46833 7 9.00003c0 -0.94797 0.68034 -2.53643 1.50636 -3.21736" stroke-width="1"></path><path id="Vector_3" stroke="#000000" stroke-linecap="round" stroke-linejoin="round" d="M2.41423 4.96722c0.48574 0.41719 1.11114 0.63552 1.75098 0.61127 0.63985 -0.02425 1.24693 -0.28929 1.69969 -0.74206 0.45277 -0.45276 0.71781 -1.05984 0.74206 -1.69969 0.02425 -0.63984 -0.19408 -1.26524 -0.61127 -1.75098C5.0036 0.403593 1.50151 0.502802 1.50151 0.502802s-0.07937 3.472328 0.91272 4.464418Z" stroke-width="1"></path><path id="Vector 3042" stroke="#000000" stroke-linecap="round" stroke-linejoin="round" d="m3.32598 12.7169 -0.69077 -3.10843C2.56582 9.29621 2.80343 9 3.12331 9h7.75339c0.3199 0 0.5575 0.29621 0.4881 0.60847l-0.6908 3.10843c-0.1017 0.4576 -0.5075 0.7831 -0.97617 0.7831H4.30217c-0.4687 0 -0.87451 -0.3255 -0.97619 -0.7831Z" stroke-width="1"></path></g></svg>