<svg xmlns="http://www.w3.org/2000/svg" fill="none" viewBox="0 0 14 14"><g id="potted-plant--nature-tree-plant-succulent-pot"><path id="Vector" stroke="#000000" stroke-linecap="round" stroke-linejoin="round" d="M7 0.5S4.75143 1.96845 4.10776 3.60776L7 6.5l2.89224 -2.89224C9.24856 1.96845 7 0.5 7 0.5Z" stroke-width="1"></path><path id="Vector_2" stroke="#000000" stroke-linecap="round" stroke-linejoin="round" d="M2.35355 1.85356 7 6.50001 4.63319 8.86682c-0.67691 -0.17922 -1.30108 -0.5347 -1.80476 -1.03838l-0.15686 -0.15685C1.92143 6.92144 1.5 5.90402 1.5 4.84316V2.20712c0 -0.44545 0.53857 -0.66854 0.85355 -0.35356Z" stroke-width="1"></path><path id="Vector 3047" stroke="#000000" stroke-linecap="round" stroke-linejoin="round" d="M11.6464 1.85356 4.5 9.00001h3.84315c1.06086 0 2.07825 -0.42142 2.82845 -1.17157l0.1568 -0.15686C12.0786 6.92144 12.5 5.90402 12.5 4.84316V2.20712c0 -0.44545 -0.5386 -0.66854 -0.8536 -0.35356Z" stroke-width="1"></path><path id="Vector 3042" stroke="#000000" stroke-linecap="round" stroke-linejoin="round" d="m3.32598 12.7169 -0.69077 -3.10843C2.56582 9.29621 2.80343 9 3.12331 9h7.75339c0.3199 0 0.5575 0.29621 0.4881 0.60847l-0.6908 3.10843c-0.1017 0.4576 -0.5075 0.7831 -0.97617 0.7831H4.30217c-0.4687 0 -0.87451 -0.3255 -0.97619 -0.7831Z" stroke-width="1"></path></g></svg>