<svg xmlns="http://www.w3.org/2000/svg" fill="none" viewBox="0 0 14 14"><g id="power-off-dot--power-off-dot-button-on-keyboard"><g id="Group 4716"><path id="Ellipse 1666" stroke="#000000" stroke-linecap="round" stroke-linejoin="round" d="M7 1c-0.13807 0 -0.25 -0.111929 -0.25 -0.25S6.86193 0.5 7 0.5" stroke-width="1"></path><path id="Ellipse 1667" stroke="#000000" stroke-linecap="round" stroke-linejoin="round" d="M7 1c0.13807 0 0.25 -0.111929 0.25 -0.25S7.13807 0.5 7 0.5" stroke-width="1"></path></g><g id="Group 4725"><path id="Ellipse 1666_2" stroke="#000000" stroke-linecap="round" stroke-linejoin="round" d="M7 3.5c-0.13807 0 -0.25 -0.11193 -0.25 -0.25S6.86193 3 7 3" stroke-width="1"></path><path id="Ellipse 1667_2" stroke="#000000" stroke-linecap="round" stroke-linejoin="round" d="M7 3.5c0.13807 0 0.25 -0.11193 0.25 -0.25S7.13807 3 7 3" stroke-width="1"></path></g><g id="Group 4727"><path id="Ellipse 1666_3" stroke="#000000" stroke-linecap="round" stroke-linejoin="round" d="M0.75 7.25C0.611929 7.25 0.5 7.13807 0.5 7s0.111929 -0.25 0.25 -0.25" stroke-width="1"></path><path id="Ellipse 1667_3" stroke="#000000" stroke-linecap="round" stroke-linejoin="round" d="M0.75 7.25C0.888071 7.25 1 7.13807 1 7s-0.111929 -0.25 -0.25 -0.25" stroke-width="1"></path></g><g id="Group 4728"><path id="Ellipse 1666_4" stroke="#000000" stroke-linecap="round" stroke-linejoin="round" d="M13.25 7.25c-0.1381 0 -0.25 -0.11193 -0.25 -0.25s0.1119 -0.25 0.25 -0.25" stroke-width="1"></path><path id="Ellipse 1667_4" stroke="#000000" stroke-linecap="round" stroke-linejoin="round" d="M13.25 7.25c0.1381 0 0.25 -0.11193 0.25 -0.25s-0.1119 -0.25 -0.25 -0.25" stroke-width="1"></path></g><g id="Group 4729"><path id="Ellipse 1666_5" stroke="#000000" stroke-linecap="round" stroke-linejoin="round" d="M7 13.5c-0.13807 0 -0.25 -0.1119 -0.25 -0.25S6.86193 13 7 13" stroke-width="1"></path><path id="Ellipse 1667_5" stroke="#000000" stroke-linecap="round" stroke-linejoin="round" d="M7 13.5c0.13807 0 0.25 -0.1119 0.25 -0.25S7.13807 13 7 13" stroke-width="1"></path></g><g id="Group 4726"><path id="Ellipse 1666_6" stroke="#000000" stroke-linecap="round" stroke-linejoin="round" d="M7 6c-0.13807 0 -0.25 -0.11193 -0.25 -0.25s0.11193 -0.25 0.25 -0.25" stroke-width="1"></path><path id="Ellipse 1667_6" stroke="#000000" stroke-linecap="round" stroke-linejoin="round" d="M7 6c0.13807 0 0.25 -0.11193 0.25 -0.25S7.13807 5.5 7 5.5" stroke-width="1"></path></g><g id="Group 4732"><path id="Ellipse 1666_7" stroke="#000000" stroke-linecap="round" stroke-linejoin="round" d="M1.46236 4.09103c-0.11958 -0.06903 -0.16055 -0.22193 -0.09151 -0.3415 0.06904 -0.11958 0.22193 -0.16055 0.34151 -0.09151" stroke-width="1"></path><path id="Ellipse 1667_7" stroke="#000000" stroke-linecap="round" stroke-linejoin="round" d="M1.4624 4.09103c0.11958 0.06904 0.27247 0.02807 0.34151 -0.0915 0.06903 -0.11958 0.02807 -0.27247 -0.09151 -0.34151" stroke-width="1"></path></g><g id="Group 4733"><path id="Ellipse 1666_8" stroke="#000000" stroke-linecap="round" stroke-linejoin="round" d="M12.2878 10.3411c-0.1196 -0.069 -0.1605 -0.2219 -0.0915 -0.34151 0.069 -0.11958 0.2219 -0.16054 0.3415 -0.09151" stroke-width="1"></path><path id="Ellipse 1667_8" stroke="#000000" stroke-linecap="round" stroke-linejoin="round" d="M12.2878 10.3411c0.1196 0.069 0.2725 0.0281 0.3415 -0.0915 0.0691 -0.1196 0.0281 -0.27248 -0.0915 -0.34152" stroke-width="1"></path></g><g id="Group 4734"><path id="Ellipse 1666_9" stroke="#000000" stroke-linecap="round" stroke-linejoin="round" d="M1.71236 10.3415c-0.11958 0.0691 -0.27247 0.0281 -0.34151 -0.0915 -0.06904 -0.1196 -0.02807 -0.27246 0.09151 -0.34149" stroke-width="1"></path><path id="Ellipse 1667_9" stroke="#000000" stroke-linecap="round" stroke-linejoin="round" d="M1.7124 10.3415c0.11958 -0.069 0.16054 -0.2219 0.09151 -0.3415 -0.06904 -0.11956 -0.22193 -0.16053 -0.34151 -0.09149" stroke-width="1"></path></g><g id="Group 4735"><path id="Ellipse 1666_10" stroke="#000000" stroke-linecap="round" stroke-linejoin="round" d="M12.5376 4.09152c-0.1196 0.06904 -0.2725 0.02807 -0.3416 -0.09151 -0.069 -0.11957 -0.028 -0.27247 0.0916 -0.3415" stroke-width="1"></path><path id="Ellipse 1667_10" stroke="#000000" stroke-linecap="round" stroke-linejoin="round" d="M12.5376 4.09152c0.1196 -0.06903 0.1605 -0.22193 0.0915 -0.34151 -0.069 -0.11957 -0.2219 -0.16054 -0.3415 -0.0915" stroke-width="1"></path></g><g id="Group 4736"><path id="Ellipse 1666_11" stroke="#000000" stroke-linecap="round" stroke-linejoin="round" d="M4.09146 12.5376c-0.06904 0.1196 -0.22193 0.1606 -0.34151 0.0916 -0.11957 -0.0691 -0.16054 -0.222 -0.0915 -0.3416" stroke-width="1"></path><path id="Ellipse 1667_11" stroke="#000000" stroke-linecap="round" stroke-linejoin="round" d="M4.09146 12.5377c0.06904 -0.1196 0.02807 -0.2725 -0.09151 -0.3415 -0.11957 -0.0691 -0.27247 -0.0281 -0.3415 0.0915" stroke-width="1"></path></g><g id="Group 4739"><path id="Ellipse 1666_12" stroke="#000000" stroke-linecap="round" stroke-linejoin="round" d="M9.90854 12.5377c-0.06904 -0.1196 -0.02807 -0.2725 0.09146 -0.3415 0.1196 -0.0691 0.2725 -0.0281 0.3416 0.0915" stroke-width="1"></path><path id="Ellipse 1667_12" stroke="#000000" stroke-linecap="round" stroke-linejoin="round" d="M9.90854 12.5377c0.06904 0.1195 0.22196 0.1605 0.34146 0.0915 0.1196 -0.0691 0.1606 -0.222 0.0916 -0.3415" stroke-width="1"></path></g></g></svg>