<svg xmlns="http://www.w3.org/2000/svg" fill="none" viewBox="0 0 14 14"><g id="power-off-square--power-button-on-off-keyboard"><path id="Vector" stroke="#000000" stroke-linecap="round" stroke-linejoin="round" d="M5.5 3.5h-2v2" stroke-width="1"></path><path id="Vector_2" stroke="#000000" stroke-linecap="round" stroke-linejoin="round" d="M3.5 3.5 7 7" stroke-width="1"></path><path id="Vector_3" stroke="#000000" stroke-linecap="round" stroke-linejoin="round" d="M8.57012 3.87c0.49463 0.249 0.92312 0.61182 1.25025 1.05865 0.32713 0.44682 0.54353 0.96489 0.63153 1.51163 0.088 0.54675 0.0449 1.10656 -0.1256 1.63344 -0.1704 0.52688 -0.46352 1.00578 -0.8551 1.39736 -0.39158 0.39158 -0.87048 0.68462 -1.39736 0.85512 -0.52688 0.1705 -1.08669 0.2135 -1.63343 0.1256 -0.54675 -0.088 -1.06482 -0.3044 -1.51164 -0.63155 -0.44682 -0.32714 -0.80965 -0.75562 -1.05865 -1.25026" stroke-width="1"></path><path id="Vector_4" stroke="#000000" stroke-linecap="round" stroke-linejoin="round" d="M12.0769 1H1.92308C1.41328 1 1 1.41328 1 1.92308V12.0769c0 0.5098 0.41328 0.9231 0.92308 0.9231H12.0769c0.5098 0 0.9231 -0.4133 0.9231 -0.9231V1.92308C13 1.41328 12.5867 1 12.0769 1Z" stroke-width="1"></path></g></svg>