<svg xmlns="http://www.w3.org/2000/svg" fill="none" viewBox="0 0 14 14"><g id="product-selection--box-production-robot-arm-automated-factory-claw"><path id="Vector" stroke="#000000" stroke-linecap="round" stroke-linejoin="round" d="M3 5.5 2 4l3 -2.5" stroke-width="1"></path><path id="Vector_2" stroke="#000000" stroke-linecap="round" stroke-linejoin="round" d="M11 5.5 12 4 9 1.5" stroke-width="1"></path><path id="Vector_3" stroke="#000000" stroke-linecap="round" stroke-linejoin="round" d="M5 0.5v1c0 0.53043 0.21071 1.03914 0.58579 1.41421C5.96086 3.28929 6.46957 3.5 7 3.5s1.03914 -0.21071 1.41421 -0.58579C8.78929 2.53914 9 2.03043 9 1.5v-1" stroke-width="1"></path><path id="Vector_4" stroke="#000000" stroke-linecap="round" stroke-linejoin="round" d="M3.5 8v4L7 13.5l3.5 -1.5V8" stroke-width="1"></path><path id="Vector_5" stroke="#000000" stroke-linecap="round" stroke-linejoin="round" d="M10.5 8 7 6.5 3.5 8" stroke-width="1"></path><path id="Vector_6" stroke="#000000" stroke-linecap="round" stroke-linejoin="round" d="M3.5 8 7 9.5" stroke-width="1"></path><path id="Vector_7" stroke="#000000" stroke-linecap="round" stroke-linejoin="round" d="M10.5 8 7 9.5" stroke-width="1"></path></g></svg>