<svg xmlns="http://www.w3.org/2000/svg" fill="none" viewBox="0 0 14 14"><g id="production-belt-user--production-produce-box-clock-belt-factory-user"><path id="Vector" stroke="#000000" stroke-linecap="round" stroke-linejoin="round" d="M11 3.5c0.8284 0 1.5 -0.67157 1.5 -1.5S11.8284 0.5 11 0.5 9.5 1.17157 9.5 2s0.6716 1.5 1.5 1.5Z" stroke-width="1"></path><path id="Vector_2" stroke="#000000" stroke-linecap="round" stroke-linejoin="round" d="M8.7 6.00005c0.5 -1.3 2 -1.9 3.3 -1.3 0.9 0.4 1.5 1.3 1.5 2.3" stroke-width="1"></path><path id="Vector_3" stroke="#000000" stroke-linecap="round" stroke-linejoin="round" d="M4.5 4.5h-4v4h4v-4Z" stroke-width="1"></path><path id="Vector_4" stroke="#000000" stroke-linecap="round" stroke-linejoin="round" d="M0.5 13.5H11c1.4 0 2.5 -1.1 2.5 -2.5S12.4 8.5 11 8.5H0.5" stroke-width="1"></path><g id="Group 4547"><path id="Ellipse 1117" stroke="#000000" stroke-linecap="round" stroke-linejoin="round" d="M0.800003 11.25c0.138071 0 0.249997 -0.1119 0.249997 -0.25s-0.111926 -0.25 -0.249997 -0.25" stroke-width="1"></path><path id="Ellipse 1116" stroke="#000000" stroke-linecap="round" stroke-linejoin="round" d="M0.800003 11.25c-0.138071 0 -0.25 -0.1119 -0.25 -0.25s0.111929 -0.25 0.25 -0.25" stroke-width="1"></path></g><g id="Group 4548"><path id="Ellipse 1117_2" stroke="#000000" stroke-linecap="round" stroke-linejoin="round" d="M5.8 11.25c0.13807 0 0.25 -0.1119 0.25 -0.25s-0.11193 -0.25 -0.25 -0.25" stroke-width="1"></path><path id="Ellipse 1116_2" stroke="#000000" stroke-linecap="round" stroke-linejoin="round" d="M5.8 11.25c-0.13807 0 -0.25 -0.1119 -0.25 -0.25s0.11193 -0.25 0.25 -0.25" stroke-width="1"></path></g><g id="Group 4549"><path id="Ellipse 1117_3" stroke="#000000" stroke-linecap="round" stroke-linejoin="round" d="M10.8 11.25c0.1381 0 0.25 -0.1119 0.25 -0.25s-0.1119 -0.25 -0.25 -0.25" stroke-width="1"></path><path id="Ellipse 1116_3" stroke="#000000" stroke-linecap="round" stroke-linejoin="round" d="M10.8 11.25c-0.1381 0 -0.25 -0.1119 -0.25 -0.25s0.1119 -0.25 0.25 -0.25" stroke-width="1"></path></g></g></svg>