<svg xmlns="http://www.w3.org/2000/svg" fill="none" viewBox="0 0 14 14"><g id="projector--work-meeting-presentation-projection"><path id="Vector" stroke="#000000" stroke-linecap="round" stroke-linejoin="round" d="M5 7H1.5c-0.26522 0 -0.51957 0.10536 -0.707107 0.29289C0.605357 7.48043 0.5 7.73478 0.5 8v3c0 0.2652 0.105357 0.5196 0.292893 0.7071C0.98043 11.8946 1.23478 12 1.5 12h11c0.2652 0 0.5196 -0.1054 0.7071 -0.2929S13.5 11.2652 13.5 11V8c0 -0.26522 -0.1054 -0.51957 -0.2929 -0.70711C13.0196 7.10536 12.7652 7 12.5 7H11" stroke-width="1"></path><path id="Vector_2" stroke="#000000" stroke-linecap="round" stroke-linejoin="round" d="M8 9.5c1.65685 0 3 -1.34315 3 -3s-1.34315 -3 -3 -3 -3 1.34315 -3 3 1.34315 3 3 3Z" stroke-width="1"></path><path id="Vector_3" stroke="#000000" stroke-linecap="round" stroke-linejoin="round" d="M1.5 12v1.5" stroke-width="1"></path><path id="Vector_4" stroke="#000000" stroke-linecap="round" stroke-linejoin="round" d="M12.5 12v1.5" stroke-width="1"></path></g></svg>