<svg xmlns="http://www.w3.org/2000/svg" fill="none" viewBox="0 0 14 14"><g id="properties-mortgage--home-mortgage-debt-sell-rent-properties-building"><path id="Vector 2494" stroke="#000000" stroke-linecap="round" stroke-linejoin="round" d="M8.27643 6.63249c-0.0439 -0.12421 -0.11164 -0.23715 -0.19773 -0.33333 -0.1831 -0.20459 -0.4492 -0.33334 -0.74537 -0.33334h-0.77404c-0.49299 0 -0.89263 0.39965 -0.89263 0.89264 0 0.41948 0.29208 0.78237 0.70188 0.87201l1.17849 0.2578c0.45908 0.10042 0.78631 0.50726 0.78631 0.9772 0 0.55229 -0.44772 1.00037 -1.00001 1.00037h-0.66667c-0.43541 0 -0.80582 -0.27827 -0.9431 -0.66667" stroke-width="1"></path><path id="Vector 2495" stroke="#000000" stroke-linecap="round" stroke-linejoin="round" d="M7.00003 5.96583V4.96582" stroke-width="1"></path><path id="Vector 2496" stroke="#000000" stroke-linecap="round" stroke-linejoin="round" d="M7.00003 10.9658v-0.99998" stroke-width="1"></path><path id="Vector" stroke="#000000" stroke-linecap="round" stroke-linejoin="round" d="M13.5 6.94c0.001 -0.1388 -0.027 -0.27628 -0.0821 -0.40368 -0.0551 -0.1274 -0.1361 -0.24194 -0.2379 -0.33632L7.00002 0.5 0.820023 6.2c-0.101775 0.09438 -0.182787 0.20892 -0.23788 0.33632S0.499084 6.8012 0.500023 6.94v5.56c0 0.2652 0.105357 0.5196 0.292893 0.7071s0.441894 0.2929 0.707104 0.2929H12.5c0.2652 0 0.5196 -0.1054 0.7071 -0.2929 0.1876 -0.1875 0.2929 -0.4419 0.2929 -0.7071V6.94Z" stroke-width="1"></path></g></svg>