<svg xmlns="http://www.w3.org/2000/svg" fill="none" viewBox="0 0 14 14"><g id="public-domain"><path id="Vector" stroke="#000000" stroke-linecap="round" stroke-linejoin="round" d="M7 13.5c3.5899 0 6.5 -2.9101 6.5 -6.5C13.5 3.41015 10.5899 0.5 7 0.5 3.41015 0.5 0.5 3.41015 0.5 7c0 3.5899 2.91015 6.5 6.5 6.5Z" stroke-width="1"></path><path id="Vector 3957" stroke="#000000" stroke-linecap="round" stroke-linejoin="round" d="M8.91465 5C8.70873 4.4174 8.15311 4 7.5 4h-1C5.67157 4 5 4.67157 5 5.5v3c0 0.82843 0.67157 1.5 1.5 1.5h1c0.65311 0 1.20873 -0.4174 1.41465 -1" stroke-width="1"></path><path id="Vector_2" stroke="#000000" stroke-linecap="round" stroke-linejoin="round" d="M1.37085 3.75 3.5 4.97927" stroke-width="1"></path><path id="Vector_3" stroke="#000000" stroke-linecap="round" stroke-linejoin="round" d="m12.6292 10.25 -1.8755 -1.08289" stroke-width="1"></path></g></svg>