<svg xmlns="http://www.w3.org/2000/svg" fill="none" viewBox="0 0 14 14"><g id="quotation-1--quote-quotation-format-formatting-open-close-marks-text"><path id="Ellipse 1837" stroke="#000000" stroke-linecap="round" stroke-linejoin="round" d="M1.00546 7.07412S1.22386 7.5 1.5 7.5c0.27614 0 0.5 -0.22386 0.5 -0.5s-0.22386 -0.5 -0.5 -0.5c-0.30169 0 -0.538553 0.27797 -0.49454 0.57412Zm0 0S0.5 6 0.5 5c0 -0.74381 0.180465 -1.44548 0.5 -2.0636" stroke-width="1"></path><path id="Ellipse 1838" stroke="#000000" stroke-linecap="round" stroke-linejoin="round" d="M4.00546 7.07412S4.22386 7.5 4.5 7.5c0.27614 0 0.5 -0.22386 0.5 -0.5s-0.22386 -0.5 -0.5 -0.5c-0.30169 0 -0.53855 0.27797 -0.49454 0.57412Zm0 0S3.5 6 3.5 5c0 -0.74381 0.18047 -1.44548 0.5 -2.0636" stroke-width="1"></path><path id="Ellipse 1839" stroke="#000000" stroke-linecap="round" stroke-linejoin="round" d="M12.9945 6.86228s-0.2184 -0.42588 -0.4945 -0.42588 -0.5 0.22386 -0.5 0.5 0.2239 0.5 0.5 0.5c0.3017 0 0.5386 -0.27797 0.4945 -0.57412Zm0 0S13.5 7.9364 13.5 8.9364c0 0.74382 -0.1805 1.4455 -0.5 2.0636" stroke-width="1"></path><path id="Ellipse 1840" stroke="#000000" stroke-linecap="round" stroke-linejoin="round" d="M9.99454 6.86228S9.77614 6.4364 9.5 6.4364c-0.27614 0 -0.5 0.22386 -0.5 0.5s0.22386 0.5 0.5 0.5c0.30169 0 0.5386 -0.27797 0.49454 -0.57412Zm0 0S10.5 7.9364 10.5 8.9364c0 0.74382 -0.1805 1.4455 -0.5 2.0636" stroke-width="1"></path></g></svg>