<svg xmlns="http://www.w3.org/2000/svg" fill="none" viewBox="0 0 14 14"><g id="razor-cutter-tool"><path id="Subtract" stroke="#000000" stroke-linecap="round" stroke-linejoin="round" d="M7.07745 0.641621C6.11287 1.52177 4.56636 1.45496 3.6798 0.5L0.5 3.59732c0.9476 0.8946 0.98876 2.42731 0.08521 3.36805l6.33775 6.39103c0.96504 -0.8793 2.51123 -0.8116 3.39714 0.1436L13.5 10.4026c-0.9488 -0.89485 -0.9898 -2.4291 -0.0849 -3.37L7.07745 0.641621Z" stroke-width="1"></path><path id="Rectangle 54" stroke="#000000" stroke-linejoin="round" d="m8.25 5.75 -2.5 0 0 2.5 2.5 0 0 -2.5Z" stroke-width="1"></path><path id="Vector 1201" stroke="#000000" stroke-linecap="round" stroke-linejoin="round" d="M5.75 5.75 4 4" stroke-width="1"></path><path id="Vector 1202" stroke="#000000" stroke-linecap="round" stroke-linejoin="round" d="m3.25 4.75 1.5 -1.5" stroke-width="1"></path><path id="Vector 1203" stroke="#000000" stroke-linecap="round" stroke-linejoin="round" d="M8.25 8.25 10 10" stroke-width="1"></path><path id="Vector 1204" stroke="#000000" stroke-linecap="round" stroke-linejoin="round" d="m10.75 9.25 -1.5 1.5" stroke-width="1"></path></g></svg>