<svg xmlns="http://www.w3.org/2000/svg" fill="none" viewBox="0 0 14 14"><g id="recording-tape-1--film-television-tv-movies-reel-video-entertainment"><path id="Vector" stroke="#000000" stroke-linecap="round" stroke-linejoin="round" d="M5.5 10.5c2.76142 0 5 -2.23858 5 -5s-2.23858 -5 -5 -5 -5 2.23858 -5 5 2.23858 5 5 5Z" stroke-width="1"></path><path id="Vector_2" stroke="#000000" stroke-linecap="round" stroke-linejoin="round" d="M5.5 7C6.32843 7 7 6.32843 7 5.5S6.32843 4 5.5 4 4 4.67157 4 5.5 4.67157 7 5.5 7Z" stroke-width="1"></path><path id="Vector_3" stroke="#000000" stroke-linecap="round" stroke-linejoin="round" d="M10.5 5.5V12c0 0.3978 0.158 0.7794 0.4393 1.0607S11.6022 13.5 12 13.5c0.3978 0 0.7794 -0.158 1.0607 -0.4393S13.5 12.3978 13.5 12v-0.5" stroke-width="1"></path></g></svg>