<svg xmlns="http://www.w3.org/2000/svg" fill="none" viewBox="0 0 14 14"><g id="refresh-location--refresh-location-pin-navigation-map-gps-travel"><path id="Ellipse 1716" stroke="#000000" stroke-linecap="round" stroke-linejoin="round" d="M13.5 7c0 3.5899 -2.9101 6.5 -6.49999 6.5 -2.70395 0 -5.02228 -1.651 -6.001841 -4" stroke-width="1"></path><path id="Ellipse 1717" stroke="#000000" stroke-linecap="round" stroke-linejoin="round" d="M0.5 7C0.5 3.41015 3.41015 0.5 7 0.5c2.70395 0 5.0223 1.65105 6.0018 4" stroke-width="1"></path><path id="Vector 4482" stroke="#000000" stroke-linecap="round" stroke-linejoin="round" d="M13.5 2v2.5H11" stroke-width="1"></path><path id="Vector 4483" stroke="#000000" stroke-linecap="round" stroke-linejoin="round" d="M0.5 12V9.5H3" stroke-width="1"></path><path id="Ellipse 1696" stroke="#000000" stroke-linecap="round" stroke-linejoin="round" d="M9.75 6.5c0 2 -2.75 4 -2.75 4s-2.75 -2 -2.75 -4C4.25 5 5.5 3.75 7 3.75S9.75 5 9.75 6.5Z" stroke-width="1"></path><g id="Group 634"><path id="Ellipse 1020" stroke="#000000" stroke-linecap="round" stroke-linejoin="round" d="M7 6.75c-0.13807 0 -0.25 -0.11193 -0.25 -0.25s0.11193 -0.25 0.25 -0.25" stroke-width="1"></path><path id="Ellipse 1021" stroke="#000000" stroke-linecap="round" stroke-linejoin="round" d="M7 6.75c0.13807 0 0.25 -0.11193 0.25 -0.25s-0.11193 -0.25 -0.25 -0.25" stroke-width="1"></path></g></g></svg>