<svg xmlns="http://www.w3.org/2000/svg" fill="none" viewBox="0 0 14 14"><g id="reorder-dots-vertical--select-drag-reorder-dots"><path id="Ellipse 3" stroke="#000000" stroke-linecap="round" stroke-linejoin="round" d="M6 2c0 0.82843 -0.67157 1.5 -1.5 1.5S3 2.82843 3 2 3.67157 0.5 4.5 0.5 6 1.17157 6 2Z" stroke-width="1"></path><path id="Ellipse 4" stroke="#000000" stroke-linecap="round" stroke-linejoin="round" d="M6 7c0 0.82843 -0.67157 1.5 -1.5 1.5S3 7.82843 3 7s0.67157 -1.5 1.5 -1.5S6 6.17157 6 7Z" stroke-width="1"></path><path id="Ellipse 5" stroke="#000000" stroke-linecap="round" stroke-linejoin="round" d="M6 12c0 0.8284 -0.67157 1.5 -1.5 1.5S3 12.8284 3 12s0.67157 -1.5 1.5 -1.5S6 11.1716 6 12Z" stroke-width="1"></path><path id="Ellipse 6" stroke="#000000" stroke-linecap="round" stroke-linejoin="round" d="M11 2c0 0.82843 -0.6716 1.5 -1.5 1.5C8.67157 3.5 8 2.82843 8 2S8.67157 0.5 9.5 0.5c0.8284 0 1.5 0.67157 1.5 1.5Z" stroke-width="1"></path><path id="Ellipse 7" stroke="#000000" stroke-linecap="round" stroke-linejoin="round" d="M11 7c0 0.82843 -0.6716 1.5 -1.5 1.5C8.67157 8.5 8 7.82843 8 7s0.67157 -1.5 1.5 -1.5c0.8284 0 1.5 0.67157 1.5 1.5Z" stroke-width="1"></path><path id="Ellipse 8" stroke="#000000" stroke-linecap="round" stroke-linejoin="round" d="M11 12c0 0.8284 -0.6716 1.5 -1.5 1.5 -0.82843 0 -1.5 -0.6716 -1.5 -1.5s0.67157 -1.5 1.5 -1.5c0.8284 0 1.5 0.6716 1.5 1.5Z" stroke-width="1"></path></g></svg>