<svg xmlns="http://www.w3.org/2000/svg" fill="none" viewBox="0 0 14 14"><g id="repeat-playlist--repeat-playlist-song-entertainment"><path id="Vector" stroke="#000000" stroke-linecap="round" stroke-linejoin="round" d="m6.95508 3.82906 -0.841 0.63565 -0.63566 -0.841" stroke-width="1"></path><path id="Ellipse 50" stroke="#000000" stroke-linecap="round" stroke-linejoin="round" d="M6.06754 4.4016c0.13884 -0.26675 0.23305 -0.56248 0.2716 -0.87858C6.51158 2.10903 5.5051 0.822978 4.09112 0.650537 3.64359 0.59596 3.20888 0.659476 2.81824 0.816629" stroke-width="1"></path><path id="Vector_2" stroke="#000000" stroke-linecap="round" stroke-linejoin="round" d="m0.600096 2.63115 0.841004 -0.63566 0.63566 0.841" stroke-width="1"></path><path id="Ellipse 52" stroke="#000000" stroke-linecap="round" stroke-linejoin="round" d="M1.48739 2.05909c-0.13884 0.26675 -0.23304 0.56249 -0.27159 0.87858 -0.17244 1.41399 0.83403 2.70005 2.24802 2.87249 0.44752 0.05457 0.88223 -0.00894 1.27288 -0.1661" stroke-width="1"></path><path id="Vector_3" stroke="#000000" stroke-linecap="round" stroke-linejoin="round" d="M7.5 13.5c1.10457 0 2 -0.8954 2 -2s-0.89543 -2 -2 -2 -2 0.8954 -2 2 0.89543 2 2 2Z" stroke-width="1"></path><path id="Vector 3107" stroke="#000000" stroke-linecap="round" stroke-linejoin="round" d="M9.5 11.5v-9c2.2091 0 4 1.79086 4 4v0" stroke-width="1"></path></g></svg>