<svg xmlns="http://www.w3.org/2000/svg" fill="none" viewBox="0 0 14 14"><g id="ribbon--ribbon-reward-like-social-rating-media"><path id="Vector" stroke="#000000" stroke-linecap="round" stroke-linejoin="round" d="M7 9.5c2.48528 0 4.5 -2.01472 4.5 -4.5S9.48528 0.5 7 0.5 2.5 2.51472 2.5 5 4.51472 9.5 7 9.5Z" stroke-width="1"></path><path id="Vector_2" stroke="#000000" stroke-linecap="round" stroke-linejoin="round" d="M7 7c1.10457 0 2 -0.89543 2 -2s-0.89543 -2 -2 -2 -2 0.89543 -2 2 0.89543 2 2 2Z" stroke-width="1"></path><path id="Vector_3" stroke="#000000" stroke-linecap="round" stroke-linejoin="round" d="M3.61597 7.96631c0.59761 0.68121 1.39762 1.18044 2.30611 1.40377L5.25473 12.54c-0.13113 0.6228 -0.80306 0.9663 -1.38469 0.7078l-2.16811 -0.9636c-0.60423 -0.2685 -0.786132 -1.0391 -0.36579 -1.5495l2.27983 -2.76839Z" stroke-width="1"></path><path id="Vector_4" stroke="#000000" stroke-linecap="round" stroke-linejoin="round" d="M8.07788 9.37008c0.90849 -0.22333 1.7085 -0.72256 2.30612 -1.40377l2.2798 2.76839c0.4204 0.5104 0.2385 1.281 -0.3658 1.5495l-2.1681 0.9636c-0.58161 0.2585 -1.25354 -0.085 -1.38467 -0.7078l-0.66735 -3.16992Z" stroke-width="1"></path></g></svg>