<svg xmlns="http://www.w3.org/2000/svg" fill="none" viewBox="0 0 14 14"><g id="rice-bowl"><path id="Ellipse 1796" stroke="#000000" stroke-linecap="round" stroke-linejoin="round" d="M1 7h12c0 2.00753 -0.9859 3.7848 -2.5 4.874V13h-7v-1.126C1.98593 10.7848 1 9.00753 1 7Z" stroke-width="1"></path><path id="Union" stroke="#000000" stroke-linecap="round" stroke-linejoin="round" d="M8.23924 1.65476C7.96912 1.25946 7.5148 1 6.99988 1c-0.51495 0 -0.9693 0.25949 -1.23941 0.65484 -0.03707 0.00945 -0.07397 0.01932 -0.11069 0.0296 -0.43148 -0.20702 -0.9544 -0.20444 -1.40014 0.05291 -0.44647 0.25776 -0.71029 0.71039 -0.74606 1.18843 -0.02641 0.02583 -0.05253 0.05196 -0.07836 0.07837 -0.47824 0.03561 -0.93111 0.29947 -1.18897 0.7461 -0.25759 0.44616 -0.25993 0.96965 -0.05232 1.40136 -0.01011 0.03617 -0.01982 0.07251 -0.02913 0.10901C1.75947 5.53073 1.5 5.98506 1.5 6.5c0 0.17532 0.03008 0.34361 0.08535 0.5H12.4146c0.0553 -0.15639 0.0854 -0.32468 0.0854 -0.5 0 -0.51494 -0.2595 -0.96926 -0.6548 -1.23938 -0.0094 -0.03676 -0.0192 -0.07337 -0.0293 -0.1098 0.2072 -0.43156 0.2047 -0.95468 -0.0527 -1.40057 -0.2578 -0.44643 -0.7104 -0.71025 -1.1884 -0.74605 -0.0259 -0.02651 -0.0521 -0.05273 -0.0786 -0.07866 -0.0359 -0.47795 -0.2997 -0.93047 -0.74607 -1.18819 -0.44571 -0.25734 -0.96859 -0.25993 -1.40005 -0.05295 -0.03678 -0.01029 -0.07373 -0.02017 -0.11084 -0.02964Z" stroke-width="1"></path></g></svg>