<svg xmlns="http://www.w3.org/2000/svg" fill="none" viewBox="0 0 14 14"><g id="right-button-two--right-button-two-controller-console-game"><path id="Vector 2" stroke="#000000" stroke-linecap="round" stroke-linejoin="round" d="M2.875 9.49999V7.41666m0 0V4.5h1.58333c0.69036 0 1.25 0.55964 1.25 1.25v0.41666c0 0.69036 -0.55964 1.25 -1.25 1.25H2.875Z" stroke-width="1"></path><path id="Vector 3" stroke="#000000" stroke-linecap="round" stroke-linejoin="round" d="m4.4585 7.4165 1.45833 2.08334" stroke-width="1"></path><path id="Vector 3270" stroke="#000000" stroke-linecap="round" stroke-linejoin="round" d="M11.1668 9.5H7.8335v-0.71026c0 -0.49663 0.29399 -0.94614 0.74897 -1.1452l1.85483 -0.81148c0.4432 -0.19389 0.7295 -0.63175 0.7295 -1.11549 0 -0.67244 -0.5451 -1.21757 -1.21754 -1.21757H9.0835c-0.54426 0 -1.00728 0.34784 -1.17888 0.83333" stroke-width="1"></path><path id="Vector 3269" stroke="#000000" stroke-linecap="round" stroke-linejoin="round" d="M0.5 12V5c0 -1.65685 1.34315 -3 3 -3h7c1.6569 0 3 1.34315 3 3v7H0.5Z" stroke-width="1"></path></g></svg>