<svg xmlns="http://www.w3.org/2000/svg" fill="none" viewBox="0 0 14 14"><g id="right-button--right-button-controller-console-game"><path id="Vector 1" stroke="#000000" stroke-linecap="round" stroke-linejoin="round" d="M7.875 4.5v2.25H9.25c0.62132 0 1.125 -0.50368 1.125 -1.125S9.87132 4.5 9.25 4.5H7.875Z" stroke-width="1"></path><path id="Vector 3270" stroke="#000000" stroke-linecap="round" stroke-linejoin="round" d="M7.875 6.75V9.5H10c0.7594 0 1.375 -0.61561 1.375 -1.375S10.7594 6.75 10 6.75H7.875Z" stroke-width="1"></path><path id="Vector 2" stroke="#000000" stroke-linecap="round" stroke-linejoin="round" d="M3.25 9.49999V7.41666m0 0V4.5h1.58333c0.69036 0 1.25 0.55964 1.25 1.25v0.41666c0 0.69036 -0.55964 1.25 -1.25 1.25H3.25Z" stroke-width="1"></path><path id="Vector 3" stroke="#000000" stroke-linecap="round" stroke-linejoin="round" d="m4.8335 7.4165 1.45833 2.08334" stroke-width="1"></path><path id="Vector 3269" stroke="#000000" stroke-linecap="round" stroke-linejoin="round" d="M0.5 9V2h13v7c0 1.6569 -1.3431 3 -3 3h-7c-1.65685 0 -3 -1.3431 -3 -3Z" stroke-width="1"></path></g></svg>