<svg xmlns="http://www.w3.org/2000/svg" fill="none" viewBox="0 0 14 14"><g id="rock-and-roll-hand"><path id="Vector 536" stroke="#000000" stroke-linecap="round" stroke-linejoin="round" d="M3.76285 13.5c-1.88276 -0.7507 -2.07105 -2.4353 -1.91596 -3.8332 0.10754 -0.96931 0.91119 -1.58343 1.86528 -1.58343 0.89471 0 2.70778 0.00366 2.70778 0.00366 0.68362 0.0528 1.18001 0.67652 1.1151 1.349 -0.10003 1.03637 -1.3243 1.14777 -2.1472 1.35567 0.63139 0.2913 1.87057 1.0951 1.77617 1.9802" stroke-width="1"></path><path id="Vector 2004" stroke="#000000" stroke-linecap="round" stroke-linejoin="round" d="m10.2628 13.5 0.4534 -0.4534c0.7501 -0.7502 1.1716 -1.7676 1.1716 -2.8285V4.02083c0 -0.74788 -0.6063 -1.35416 -1.3542 -1.35416v0c-0.74788 0 -1.35416 0.60628 -1.35416 1.35416V7c-1.61594 -0.72561 -2.01482 -0.7978 -3.79166 -0.54167V1.85417C5.38778 1.10628 4.7815 0.5 4.03361 0.5v0c-0.74789 0 -1.35417 0.60628 -1.35417 1.35417v6.47751" stroke-width="1"></path></g></svg>