<svg xmlns="http://www.w3.org/2000/svg" fill="none" viewBox="0 0 14 14"><g id="roller--roller-bakery-kitchenware-cooking-baking-knead"><path id="Vector 4653" stroke="#000000" stroke-linecap="round" stroke-linejoin="round" d="M11.2029 0.995209 10 3l1 1 2.0048 -1.20287c0.3072 -0.18434 0.4952 -0.51635 0.4952 -0.87464 0 -0.27051 -0.1075 -0.52995 -0.2987 -0.72124l-0.4026 -0.402502C12.6075 0.607463 12.348 0.5 12.0775 0.5c-0.3583 0 -0.6903 0.187983 -0.8746 0.495209Z" stroke-width="1"></path><path id="Vector 4654" stroke="#000000" stroke-linecap="round" stroke-linejoin="round" d="M1.92249 13.5c0.35829 0 0.6903 -0.188 0.87464 -0.4952L4 11l-1 -1 -2.004792 1.2029C0.687983 11.3872 0.5 11.7192 0.5 12.0775v0c0 0.2705 0.107462 0.53 0.298747 0.7212l0.402503 0.4026c0.19129 0.1912 0.45073 0.2987 0.72124 0.2987v0Z" stroke-width="1"></path><path id="Vector 2898" stroke="#000000" stroke-linecap="round" stroke-linejoin="round" d="M11.5429 4.54289 9.45711 2.45711c-0.39053 -0.39053 -1.02369 -0.39053 -1.41422 0L2.45711 8.04289c-0.39053 0.39053 -0.39053 1.02369 0 1.41422l2.08578 2.08579c0.39053 0.3905 1.02369 0.3905 1.41422 0l5.58579 -5.58579c0.3905 -0.39053 0.3905 -1.02369 0 -1.41422Z" stroke-width="1"></path></g></svg>