<svg xmlns="http://www.w3.org/2000/svg" fill="none" viewBox="0 0 14 14"><g id="rotate-right-dash-1"><path id="Vector" stroke="#000000" stroke-linecap="round" stroke-linejoin="round" d="M13.5 7c0 0.55286 -0.0705 1.10038 -0.2077 1.62992m-0.8877 1.98128c-0.4117 0.6161 -0.9233 1.1538 -1.5102 1.593m-5.16249 1.1709c1.0809 0.215 2.19565 0.1511 3.24013 -0.1815m-6.56823 -1.5974c0.33195 0.332 0.69714 0.6252 1.08841 0.8761" stroke-width="1"></path><path id="Vector_2" stroke="#000000" stroke-linecap="round" stroke-linejoin="round" d="m11.5 0.5 0.5 2 -2 0.5" stroke-width="1"></path><path id="Vector_3" stroke="#000000" stroke-linecap="round" stroke-linejoin="round" d="M2.40381 11.5962C1.49476 10.6872 0.8757 9.52897 0.624896 8.26809 0.374092 7.00722 0.502814 5.70028 0.994783 4.51256 1.48675 3.32484 2.31987 2.30968 3.38879 1.59545 4.45771 0.881223 5.71442 0.500004 7 0.500004 8.86203 0.497944 10.6531 1.21436 12 2.5" stroke-width="1"></path></g></svg>