<svg xmlns="http://www.w3.org/2000/svg" fill="none" viewBox="0 0 14 14"><g id="rotate-right-dash-4"><path id="Vector" stroke="#000000" stroke-linecap="round" stroke-linejoin="round" d="M7 0.5c0.55286 0 1.10038 0.070502 1.62992 0.207673m1.98128 0.887777c0.6161 0.41163 1.1538 0.92322 1.593 1.51019m1.1709 5.16245c0.215 -1.0809 0.1511 -2.19565 -0.1815 -3.24013m-1.5974 6.56824c0.332 -0.332 0.6252 -0.6971 0.8761 -1.0884" stroke-width="1"></path><path id="Vector_2" stroke="#000000" stroke-linecap="round" stroke-linejoin="round" d="m0.5 2.5 2 -0.5 0.5 2" stroke-width="1"></path><path id="Vector_3" stroke="#000000" stroke-linecap="round" stroke-linejoin="round" d="M11.5962 11.5962c-0.909 0.909 -2.06723 1.5281 -3.32811 1.7789 -1.26088 0.2508 -2.56781 0.1221 -3.75553 -0.3699 -1.18772 -0.492 -2.20288 -1.3251 -2.91711 -2.394C0.881222 9.54229 0.500004 8.28558 0.500004 7 0.497944 5.13797 1.21436 3.34694 2.5 2" stroke-width="1"></path></g></svg>