<svg xmlns="http://www.w3.org/2000/svg" fill="none" viewBox="0 0 14 14"><g id="rotate-right-dash-3"><path id="Vector" stroke="#000000" stroke-linecap="round" stroke-linejoin="round" d="M7 13.5c-0.55286 0 -1.10038 -0.0705 -1.62992 -0.2077m-1.98129 -0.8877c-0.61605 -0.4117 -1.15378 -0.9233 -1.59302 -1.5102M0.624895 5.73191C0.409891 6.81281 0.473799 7.92756 0.806364 8.97204M2.4038 2.40381c-0.33195 0.33196 -0.62524 0.69714 -0.87605 1.08841" stroke-width="1"></path><path id="Vector_2" stroke="#000000" stroke-linecap="round" stroke-linejoin="round" d="m13.5 11.5 -2 0.5 -0.5 -2" stroke-width="1"></path><path id="Vector_3" stroke="#000000" stroke-linecap="round" stroke-linejoin="round" d="M2.4038 2.40381C3.31284 1.49476 4.47103 0.8757 5.73191 0.624896 6.99278 0.374092 8.29972 0.502814 9.48744 0.994784 10.6752 1.48675 11.6903 2.31987 12.4045 3.38879 13.1188 4.45771 13.5 5.71442 13.5 7c0.0021 1.86203 -0.7144 3.6531 -2 5" stroke-width="1"></path></g></svg>