<svg xmlns="http://www.w3.org/2000/svg" fill="none" viewBox="0 0 14 14"><g id="rotate-left-dash-3"><path id="Vector" stroke="#000000" stroke-linecap="round" stroke-linejoin="round" d="M7 13.5c0.55286 0 1.10038 -0.0705 1.62992 -0.2077m1.98128 -0.8877c0.6161 -0.4117 1.1538 -0.9233 1.593 -1.5102m1.1709 -5.16249c0.215 1.0809 0.1511 2.19565 -0.1815 3.24013m-1.5974 -6.56823c0.332 0.33196 0.6252 0.69714 0.8761 1.08841" stroke-width="1"></path><path id="Vector_2" stroke="#000000" stroke-linecap="round" stroke-linejoin="round" d="m0.5 11.5 2 0.5 0.5 -2" stroke-width="1"></path><path id="Vector_3" stroke="#000000" stroke-linecap="round" stroke-linejoin="round" d="M11.5962 2.40381C10.6872 1.49476 9.52897 0.8757 8.26809 0.624896 7.00722 0.374092 5.70028 0.502814 4.51256 0.994784 3.32484 1.48675 2.30968 2.31987 1.59545 3.38879 0.881223 4.45771 0.500005 5.71442 0.500005 7 0.497944 8.86203 1.21436 10.6531 2.5 12" stroke-width="1"></path></g></svg>