<svg xmlns="http://www.w3.org/2000/svg" fill="none" viewBox="0 0 14 14"><g id="rv-truck"><path id="Vector 4601" stroke="#000000" stroke-linecap="round" stroke-linejoin="round" d="M2 11.5v0c-0.55228 0 -1 -0.4477 -1 -1V2c0 -0.55228 0.44772 -1 1 -1h9.5c0.8284 0 1.5 0.67157 1.5 1.5v0c0 0.82843 -0.6716 1.5 -1.5 1.5h-3v3.5H13v3c0 0.5523 -0.4477 1 -1 1h-0.5" stroke-width="1"></path><path id="Vector 4602" stroke="#000000" stroke-linecap="round" stroke-linejoin="round" d="M11.5 4 13 7.5" stroke-width="1"></path><path id="Vector" stroke="#000000" stroke-linecap="round" stroke-linejoin="round" d="M9.99894 13c-0.82901 0 -1.50105 -0.6721 -1.50105 -1.5011 0 -0.829 0.67204 -1.50104 1.50105 -1.50104 0.82906 0 1.50106 0.67204 1.50106 1.50104S10.828 13 9.99894 13Z" stroke-width="1"></path><path id="Vector_2" stroke="#000000" stroke-linecap="round" stroke-linejoin="round" d="M3.49894 13c-0.82901 0 -1.50106 -0.6721 -1.50106 -1.5011 0 -0.829 0.67205 -1.50104 1.50106 -1.50104S5 10.6699 5 11.4989 4.32795 13 3.49894 13Z" stroke-width="1"></path><path id="Vector 4576" stroke="#000000" stroke-linecap="round" stroke-linejoin="round" d="M5 11.5h3.5" stroke-width="1"></path></g></svg>