<svg xmlns="http://www.w3.org/2000/svg" fill="none" viewBox="0 0 14 14"><g id="sauna-room--sauna-room-heat-relax-place-hot"><path id="Ellipse 1969" stroke="#000000" stroke-linecap="round" stroke-linejoin="round" d="M1.75 2.75a1.25 1.25 0 1 0 2.5 0 1.25 1.25 0 1 0 -2.5 0" stroke-width="1"></path><path id="Vector 4941" stroke="#000000" stroke-linecap="round" stroke-linejoin="round" d="M1.5 7v1.5c0 0.55228 0.44772 1 1 1h2V7c0 -0.82843 -0.67157 -1.5 -1.5 -1.5S1.5 6.17157 1.5 7Z" stroke-width="1"></path><path id="Vector 4942" stroke="#000000" stroke-linecap="round" stroke-linejoin="round" d="M4.5 9.5h1.21922c0.45887 0 0.85885 0.3123 0.97015 0.7575L7.5 13.5" stroke-width="1"></path><path id="Vector" stroke="#000000" stroke-linecap="round" stroke-linejoin="round" d="M8.92525 0.5c-2 2.5 2.00005 3.5 0 6" stroke-width="1"></path><path id="Vector_2" stroke="#000000" stroke-linecap="round" stroke-linejoin="round" d="M11.9226 0.5c-1.99998 2.5 2.0001 3.5 0.0001 6" stroke-width="1"></path><path id="Vector 4943" stroke="#000000" stroke-linecap="round" stroke-linejoin="round" d="M1.5 11.5h3" stroke-width="1"></path></g></svg>