<svg xmlns="http://www.w3.org/2000/svg" fill="none" viewBox="0 0 14 14"><g id="scale--measure-measuring-bake-baking-cook-cooking-weight-kitchenware-scale"><path id="Vector 4621" stroke="#000000" stroke-linecap="round" stroke-linejoin="round" d="M7 4C2.6 4 1.16667 2 1 1h12c-0.1667 1 -1.6 3 -6 3Z" stroke-width="1"></path><path id="Vector 4622" stroke="#000000" stroke-linecap="round" stroke-linejoin="round" d="m1.0883 10.7351 1.18378 -3.55133c0.13611 -0.40834 0.51825 -0.68377 0.94868 -0.68377h7.55844c0.4305 0 0.8126 0.27543 0.9487 0.68377l1.1838 3.55133c0.0585 0.1754 0.0883 0.3592 0.0883 0.5441C13 12.2296 12.2296 13 11.2792 13H2.72076C1.77041 13 1 12.2296 1 11.2792c0 -0.1849 0.02982 -0.3687 0.0883 -0.5441Z" stroke-width="1"></path><path id="Vector 4623" stroke="#000000" stroke-linecap="round" stroke-linejoin="round" d="M4.5 10.5v-2h5v2h-5Z" stroke-width="1"></path><path id="Vector" stroke="#000000" stroke-linecap="round" stroke-linejoin="round" d="M4.5 3.7395v2.76047" stroke-width="1"></path><path id="Vector_2" stroke="#000000" stroke-linecap="round" stroke-linejoin="round" d="M9.5 3.7395v2.76047" stroke-width="1"></path></g></svg>