<svg xmlns="http://www.w3.org/2000/svg" fill="none" viewBox="0 0 14 14"><g id="school--school-education"><path id="Vector" stroke="#000000" stroke-linecap="round" stroke-linejoin="round" d="M4 8.28174H1.34882C0.88003 8.28174 0.5 8.66177 0.5 9.13056v3.45034c0 0.4688 0.38003 0.8488 0.84882 0.8488H4" stroke-width="1"></path><path id="Vector_2" stroke="#000000" stroke-linecap="round" stroke-linejoin="round" d="M10 8.28174h2.6494c0.4698 0 0.8506 0.38003 0.8506 0.84882v3.45034c0 0.4688 -0.3808 0.8488 -0.8506 0.8488H10" stroke-width="1"></path><path id="Rectangle 643" stroke="#000000" stroke-linecap="round" stroke-linejoin="round" d="M4 7.39002c0 -1.65686 1.34315 -3.00001 3 -3.00001v0c1.65685 0 3 1.34315 3 3v6.03969H4V7.39002Z" stroke-width="1"></path><path id="Vector 1287" stroke="#000000" stroke-linecap="round" stroke-linejoin="round" d="M7 4.39V0.570312" stroke-width="1"></path><path id="Rectangle 644" stroke="#000000" stroke-linecap="round" stroke-linejoin="round" d="M7 0.570312h3V2.5H7V0.570312Z" stroke-width="1"></path><path id="Vector_3" stroke="#000000" stroke-linecap="round" stroke-linejoin="round" d="M7.00108 8.91136c0.67692 0 1.22568 -0.54876 1.22568 -1.22568 0 -0.67693 -0.54876 -1.22569 -1.22568 -1.22569 -0.67693 0 -1.22569 0.54876 -1.22569 1.22569 0 0.67692 0.54876 1.22568 1.22569 1.22568Z" stroke-width="1"></path><path id="Vector_4" stroke="#000000" stroke-linecap="round" stroke-linejoin="round" d="m7 11.7056 0.00781 1.7242" stroke-width="1"></path></g></svg>