<svg xmlns="http://www.w3.org/2000/svg" fill="none" viewBox="0 0 14 14"><g id="screenshot"><path id="Vector 4447" stroke="#000000" stroke-linecap="round" stroke-linejoin="round" d="M5 4.75H3.75c-0.27614 0 -0.5 0.22386 -0.5 0.5V9.5c0 0.27614 0.22386 0.5 0.5 0.5h6.5c0.2761 0 0.5 -0.22386 0.5 -0.5V5.25c0 -0.27614 -0.2239 -0.5 -0.5 -0.5H9L8 3.5H6L5 4.75Z" stroke-width="1"></path><path id="Vector 233" stroke="#000000" stroke-linecap="round" stroke-linejoin="round" d="M1 4V1.92858C1 1.41574 1.41574 1 1.92858 1h2.07145" stroke-width="1"></path><path id="Vector 234" stroke="#000000" stroke-linecap="round" stroke-linejoin="round" d="M10 1h2.0715c0.5128 0 0.9285 0.41574 0.9285 0.92858L13 4" stroke-width="1"></path><path id="Vector 235" stroke="#000000" stroke-linecap="round" stroke-linejoin="round" d="M1 10.0001v2.0713c0 0.5129 0.41574 0.9286 0.92858 0.9286l2.07145 0.0001" stroke-width="1"></path><path id="Vector 236" stroke="#000000" stroke-linecap="round" stroke-linejoin="round" d="m13 10.0001 0 2.0713c0 0.5129 -0.4157 0.9286 -0.9285 0.9286L10 13.0001" stroke-width="1"></path><path id="Ellipse 1959" stroke="#000000" stroke-linecap="round" stroke-linejoin="round" d="M5.75 7.25a1.25 1.25 0 1 0 2.5 0 1.25 1.25 0 1 0 -2.5 0" stroke-width="1"></path></g></svg>