<svg xmlns="http://www.w3.org/2000/svg" fill="none" viewBox="0 0 14 14"><g id="screwdriver--screwdriver-screw-tool-settings-hand"><path id="Vector" stroke="#000000" stroke-linecap="round" stroke-linejoin="round" d="m4.9183 6.97436 2.12133 2.12132c0.09189 0.09189 0.14351 0.21652 0.14351 0.34648 0 0.12995 -0.05162 0.25459 -0.14351 0.34648L3.91421 12.9141c-0.37507 0.375 -0.88378 0.5857 -1.41421 0.5857s-1.03914 -0.2107 -1.41421 -0.5857C0.710714 12.539 0.5 12.0303 0.5 11.4998c0 -0.5304 0.210713 -1.0391 0.58579 -1.4142L4.2112 6.96021c0.04667 -0.04675 0.10232 -0.08358 0.1636 -0.10828s0.12691 -0.03675 0.19297 -0.03543c0.06605 0.00133 0.13115 0.01599 0.19139 0.04312 0.06024 0.02712 0.11437 0.06615 0.15914 0.11474Z" stroke-width="1"></path><path id="Vector_2" stroke="#000000" stroke-linecap="round" stroke-linejoin="round" d="M6 8.00014 10.39 3.61" stroke-width="1"></path><path id="Vector_3" stroke="#000000" stroke-linecap="round" stroke-linejoin="round" d="m10.74 3.95 -0.69 -0.69V1.88L12.12 0.5l1.38 1.38 -1.38 2.07h-1.38Z" stroke-width="1"></path></g></svg>