<svg xmlns="http://www.w3.org/2000/svg" fill="none" viewBox="0 0 14 14"><g id="screwdriver-wrench--tools-construction-tools-wrench-screwdriver-preferences-setting-edit-adjust"><path id="Vector" stroke="#000000" stroke-linecap="round" stroke-linejoin="round" d="M11 7.00184c1.1745 -0.48978 2 -1.64895 2 -3.00092C13 2.64894 12.1745 1.48978 11 1v2.25092c0 0.55228 -0.4477 1 -1 1h-0.5c-0.55228 0 -1 -0.44772 -1 -1V1c-1.17448 0.48978 -2 1.64894 -2 3.00092 0 1.35197 0.82552 2.51114 2 3.00092v4.74906c0 0.6904 0.55964 1.25 1.25 1.25 0.6904 0 1.25 -0.5596 1.25 -1.25V7.00184Z" stroke-width="1"></path><path id="Vector 3964" stroke="#000000" stroke-linecap="round" stroke-linejoin="round" d="M4 7.5H2c-0.55228 0 -1 0.44772 -1 1V11c0 1.1046 0.89543 2 2 2s2 -0.8954 2 -2V8.5c0 -0.55228 -0.44772 -1 -1 -1Z" stroke-width="1"></path><path id="Vector 3965" stroke="#000000" stroke-linecap="round" stroke-linejoin="round" d="M3 7.5v-3" stroke-width="1"></path><path id="Vector 3966" stroke="#000000" stroke-linecap="round" stroke-linejoin="round" d="M3.5 4.5h-1l-1 -1L2 1h2l0.5 2.5 -1 1Z" stroke-width="1"></path></g></svg>