<svg xmlns="http://www.w3.org/2000/svg" fill="none" viewBox="0 0 14 14"><g id="script-1--language-programming-code"><path id="Vector" stroke="#000000" stroke-linecap="round" stroke-linejoin="round" d="M3.5 10.5v-8c0 -0.53043 0.21071 -1.03914 0.58579 -1.41421C4.46086 0.710714 4.96957 0.5 5.5 0.5h6.25" stroke-width="1"></path><path id="Vector_2" stroke="#000000" stroke-linecap="round" stroke-linejoin="round" d="M10 3.5v8c0 0.5304 -0.21071 1.0391 -0.58579 1.4142C9.03914 13.2893 8.53043 13.5 8 13.5" stroke-width="1"></path><path id="Vector_3" stroke="#000000" stroke-linecap="round" stroke-linejoin="round" d="M6 11.5V11c0 -0.1326 -0.05268 -0.2598 -0.14645 -0.3536C5.75979 10.5527 5.63261 10.5 5.5 10.5H1c-0.132608 0 -0.259785 0.0527 -0.353553 0.1464C0.552678 10.7402 0.5 10.8674 0.5 11v0.5c0 0.5304 0.210714 1.0391 0.58579 1.4142 0.37507 0.3751 0.88378 0.5858 1.41421 0.5858H8c-0.53043 0 -1.03914 -0.2107 -1.41421 -0.5858C6.21071 12.5391 6 12.0304 6 11.5Z" stroke-width="1"></path><path id="Vector_4" stroke="#000000" stroke-linecap="round" stroke-linejoin="round" d="M11.75 0.5c0.4641 0 0.9092 0.184374 1.2374 0.51256 0.3282 0.32819 0.5126 0.77331 0.5126 1.23744V3c0 0.13261 -0.0527 0.25979 -0.1464 0.35355 -0.0938 0.09377 -0.221 0.14645 -0.3536 0.14645h-3V2.25c0 -0.46413 0.1844 -0.90925 0.5126 -1.23744C10.8408 0.684374 11.2859 0.5 11.75 0.5v0Z" stroke-width="1"></path><path id="Vector_5" stroke="#000000" stroke-linecap="round" stroke-linejoin="round" d="M6 4h1.5" stroke-width="1"></path><path id="Vector_6" stroke="#000000" stroke-linecap="round" stroke-linejoin="round" d="M6 7h1.5" stroke-width="1"></path></g></svg>