<svg xmlns="http://www.w3.org/2000/svg" fill="none" viewBox="0 0 14 14"><g id="sd-card-setting-1--sd-card-setting-bold-nut-cog"><path id="Vector 160" stroke="#000000" stroke-linecap="round" stroke-linejoin="round" d="M10.2308 4.6875V2.14286C10.2308 1.23553 9.47259 0.5 8.53733 0.5H3.85052c-0.25842 0 -0.50681 0.100041 -0.69309 0.279151L0.806913 3.03915c-0.196089 0.18854 -0.306908 0.44883 -0.306908 0.72085v6.5971c0 0.9074 0.758175 1.6429 1.693445 1.6429h3.17194" stroke-width="1"></path><path id="Rectangle 54" stroke="#000000" stroke-linecap="round" stroke-linejoin="round" d="m5.08179 2.90527 0 1.49591" stroke-width="1"></path><path id="Rectangle 55" stroke="#000000" stroke-linecap="round" stroke-linejoin="round" d="m7.5376 2.90527 0 1.49591" stroke-width="1"></path><path id="Rectangle 1921" stroke="#000000" stroke-linecap="round" stroke-linejoin="round" d="m7.5 8.75 3 -1.75 3 1.75v3l-3 1.75 -3 -1.75v-3Z" stroke-width="1"></path><path id="Ellipse 1472" stroke="#000000" stroke-linecap="round" stroke-linejoin="round" d="M10 10.25a0.5 0.5 0 1 0 1 0 0.5 0.5 0 1 0 -1 0" stroke-width="1"></path></g></svg>