<svg xmlns="http://www.w3.org/2000/svg" fill="none" viewBox="0 0 14 14"><g id="sd-card-setting-2--sd-card-setting-bold-nut-cog"><path id="Rectangle 54" stroke="#000000" stroke-linecap="round" stroke-linejoin="round" d="m5.08179 2.90527 0 1.49591" stroke-width="1"></path><path id="Rectangle 55" stroke="#000000" stroke-linecap="round" stroke-linejoin="round" d="m7.5376 2.90527 0 1.49591" stroke-width="1"></path><path id="Vector" stroke="#000000" stroke-linecap="round" stroke-linejoin="round" d="m9.61025 7.84479 0.21615 -0.55798c0.03645 -0.09448 0.10059 -0.17574 0.184 -0.23314 0.0834 -0.05741 0.1822 -0.08828 0.2835 -0.08858h0.4122c0.1013 0.0003 0.2001 0.03117 0.2835 0.08858 0.0834 0.0574 0.1475 0.13866 0.184 0.23314l0.2162 0.55798 0.7339 0.42226 0.5931 -0.09049c0.0988 -0.0134 0.1993 0.00285 0.2888 0.04671 0.0896 0.04386 0.164 0.11334 0.2139 0.19961l0.2011 0.35188c0.0515 0.08764 0.0753 0.18885 0.0681 0.29026 -0.0072 0.10141 -0.0449 0.19826 -0.1083 0.27777l-0.367 0.4675v0.84451l0.377 0.4675c0.0634 0.0795 0.1012 0.1764 0.1083 0.2778 0.0072 0.1014 -0.0165 0.2026 -0.068 0.2902l-0.2011 0.3519c-0.0499 0.0863 -0.1244 0.1558 -0.2139 0.1996 -0.0895 0.0439 -0.19 0.0601 -0.2888 0.0467l-0.5932 -0.0904 -0.7339 0.4222 -0.2161 0.558c-0.0365 0.0945 -0.1006 0.1757 -0.1841 0.2331 -0.0834 0.0574 -0.1822 0.0883 -0.2834 0.0886h-0.4223c-0.1013 -0.0003 -0.2001 -0.0312 -0.2835 -0.0886 -0.08341 -0.0574 -0.14755 -0.1386 -0.184 -0.2331l-0.21615 -0.558 -0.73393 -0.4222 -0.59317 0.0904c-0.09877 0.0134 -0.19929 -0.0028 -0.2888 -0.0467 -0.08951 -0.0438 -0.16395 -0.1133 -0.21388 -0.1996l-0.20108 -0.3519c-0.05152 -0.0876 -0.07526 -0.1888 -0.06808 -0.2902 0.00718 -0.1014 0.04494 -0.1983 0.1083 -0.2778l0.36696 -0.4675v-0.84451l-0.37702 -0.4675c-0.06335 -0.07951 -0.10112 -0.17636 -0.10829 -0.27777 -0.00718 -0.10141 0.01655 -0.20262 0.06808 -0.29026l0.20107 -0.35188c0.04993 -0.08627 0.12438 -0.15575 0.21389 -0.19961 0.08951 -0.04386 0.19003 -0.06011 0.2888 -0.04671l0.59317 0.09049 0.74398 -0.42226Z" stroke-width="1"></path><path id="Ellipse 1473" stroke="#000000" stroke-linecap="round" stroke-linejoin="round" d="M10 10.232a0.5 0.5 0 1 0 1 0 0.5 0.5 0 1 0 -1 0" stroke-width="1"></path><path id="Vector 160" stroke="#000000" stroke-linecap="round" stroke-linejoin="round" d="M10.2308 4.71875V2.14286C10.2308 1.23553 9.47259 0.5 8.53733 0.5H3.85052c-0.25842 0 -0.50681 0.100041 -0.69309 0.279151L0.806913 3.03915c-0.196089 0.18854 -0.306908 0.44883 -0.306908 0.72085v6.5971c0 0.9074 0.758175 1.6429 1.693445 1.6429h3.17194" stroke-width="1"></path></g></svg>