<svg xmlns="http://www.w3.org/2000/svg" fill="none" viewBox="0 0 14 14"><g id="sd-card-block-remove--sd-card-block-remove-deny-fail-device-chips"><path id="Rectangle 54" stroke="#000000" stroke-linecap="round" stroke-linejoin="round" d="m5.08179 2.90527 0 1.49591" stroke-width="1"></path><path id="Rectangle 55" stroke="#000000" stroke-linecap="round" stroke-linejoin="round" d="m7.5376 2.90527 0 1.49591" stroke-width="1"></path><path id="Vector" stroke="#000000" stroke-linecap="round" stroke-linejoin="round" d="M10.75 13.5C9.23122 13.5 8 12.2688 8 10.75 8 9.23122 9.23122 8 10.75 8c1.5188 0 2.75 1.23122 2.75 2.75 0 1.5188 -1.2312 2.75 -2.75 2.75Z" stroke-width="1"></path><path id="Vector_2" stroke="#000000" stroke-linecap="round" stroke-linejoin="round" d="M12.6945 12.6945 8.80542 8.80542" stroke-width="1"></path><path id="Vector 160" stroke="#000000" stroke-linecap="round" stroke-linejoin="round" d="M10.2307 5.75V2.14286C10.2307 1.23553 9.47253 0.5 8.53727 0.5H3.85046c-0.25842 0 -0.50681 0.100041 -0.69309 0.279151L0.806852 3.03915c-0.196089 0.18854 -0.306908 0.44883 -0.306908 0.72085v6.5971c0 0.9074 0.758176 1.6429 1.693446 1.6429h3.67194" stroke-width="1"></path></g></svg>