<svg xmlns="http://www.w3.org/2000/svg" fill="none" viewBox="0 0 14 14"><g id="search-setting--search-setting-magnifier-cog"><path id="Vector" stroke="#000000" stroke-linecap="round" stroke-linejoin="round" d="m5.77859 3.34462 -0.23154 0.59769 -0.79692 0.45231 -0.63539 -0.09693c-0.1058 -0.01436 -0.21348 0.00306 -0.30935 0.05004 -0.09588 0.04698 -0.17563 0.1214 -0.22911 0.21381l-0.21538 0.37692c-0.0552 0.09388 -0.08062 0.20229 -0.07293 0.31092 0.00769 0.10863 0.04813 0.21238 0.116 0.29754l0.40385 0.50077v0.90462l-0.39308 0.50077c-0.06787 0.08517 -0.10831 0.18891 -0.11601 0.29754 -0.00769 0.10863 0.01774 0.21704 0.07293 0.31092l0.21539 0.37692c0.05348 0.09241 0.13323 0.16683 0.2291 0.21381 0.09588 0.04698 0.20356 0.0644 0.30936 0.05004l0.63539 -0.09693 0.78615 0.45231 0.23154 0.59769c0.03905 0.1012 0.10775 0.18825 0.1971 0.24974 0.08936 0.06149 0.1952 0.09456 0.30367 0.09488h0.4523c0.10847 -0.00032 0.21432 -0.03339 0.30367 -0.09488 0.08935 -0.06149 0.15806 -0.14854 0.1971 -0.24974l0.23154 -0.59769 0.78616 -0.45231 0.63538 0.09693c0.1058 0.01436 0.21348 -0.00306 0.30936 -0.05004 0.09587 -0.04698 0.17562 -0.1214 0.2291 -0.21381l0.21539 -0.37692c0.05519 -0.09388 0.08062 -0.20229 0.07293 -0.31092 -0.00769 -0.10863 -0.04814 -0.21237 -0.11601 -0.29754l-0.40385 -0.50077v-0.90462l0.39308 -0.50077c0.06787 -0.08516 0.10832 -0.18891 0.11601 -0.29754 0.00769 -0.10863 -0.01774 -0.21704 -0.07293 -0.31092l-0.21539 -0.37692c-0.05348 -0.09241 -0.13323 -0.16683 -0.2291 -0.21381 -0.09588 -0.04698 -0.20356 -0.0644 -0.30936 -0.05004l-0.63538 0.09693 -0.78616 -0.45231 -0.23154 -0.59769c-0.03904 -0.1012 -0.10774 -0.18825 -0.1971 -0.24974 -0.08935 -0.06149 -0.1952 -0.09456 -0.30366 -0.09488h-0.44154c-0.10847 0.00032 -0.21431 0.03339 -0.30367 0.09488 -0.08935 0.06149 -0.15805 0.14854 -0.1971 0.24974Z" stroke-width="1"></path><path id="Ellipse 1472" stroke="#000000" stroke-linecap="round" stroke-linejoin="round" d="M6 6.5a0.5 0.5 0 1 0 1 0 0.5 0.5 0 1 0 -1 0" stroke-width="1"></path><path id="Vector_2" stroke="#000000" stroke-linecap="round" stroke-linejoin="round" d="M6.5 12.5c3.31371 0 6 -2.68629 6 -6s-2.68629 -6 -6 -6 -6 2.68629 -6 6 2.68629 6 6 6Z" stroke-width="1"></path><path id="Vector_3" stroke="#000000" stroke-linecap="round" stroke-linejoin="round" d="m10.74 10.7402 2.76 2.76" stroke-width="1"></path></g></svg>