<svg xmlns="http://www.w3.org/2000/svg" fill="none" viewBox="0 0 14 14"><g id="search-category"><path id="Vector 3971" stroke="#000000" stroke-linecap="round" stroke-linejoin="round" d="M4.5 0.5h-3c-0.552285 0 -1 0.447715 -1 1v3c0 0.55228 0.447715 1 1 1h3c0.55228 0 1 -0.44772 1 -1v-3c0 -0.552285 -0.44772 -1 -1 -1Z" stroke-width="1"></path><path id="vector" stroke="#000000" stroke-linecap="round" stroke-linejoin="round" d="M9.5 12.5c1.6569 0 3 -1.3431 3 -3 0 -1.65685 -1.3431 -3 -3 -3 -1.65685 0 -3 1.34315 -3 3 0 1.6569 1.34315 3 3 3Z" stroke-width="1"></path><path id="vector_2" stroke="#000000" stroke-linecap="round" stroke-linejoin="round" d="m13.5 13.5 -1.8787 -1.8787" stroke-width="1"></path><path id="Vector 3975" stroke="#000000" stroke-linecap="round" stroke-linejoin="round" d="M7.5 4.5v-3c0 -0.552285 0.44772 -1 1 -1h3c0.5523 0 1 0.447715 1 1v3c0 0.18214 -0.0487 0.35291 -0.1338 0.5" stroke-width="1"></path><path id="Vector 3976" stroke="#000000" stroke-linecap="round" stroke-linejoin="round" d="M4.5 7.5h-3c-0.552285 0 -1 0.44772 -1 1v3c0 0.5523 0.447715 1 1 1h3c0.18214 0 0.35291 -0.0487 0.5 -0.1338" stroke-width="1"></path></g></svg>