<svg xmlns="http://www.w3.org/2000/svg" fill="none" viewBox="0 0 14 14"><g id="segway-front"><path id="Vector 4526" stroke="#000000" stroke-linecap="round" stroke-linejoin="round" d="M10.5 9.5h-7v2h7v-2Z" stroke-width="1"></path><path id="Vector 4527" stroke="#000000" stroke-linecap="round" stroke-linejoin="round" d="M7 9.5V1" stroke-width="1"></path><path id="Vector 4528" stroke="#000000" stroke-linecap="round" stroke-linejoin="round" d="M3.5 2C3.83333 1.66667 5 1 7 1s3.1667 0.66667 3.5 1" stroke-width="1"></path><path id="Vector 4524" stroke="#000000" stroke-linecap="round" stroke-linejoin="round" d="M1 11.75v-3c0 -0.69036 0.55964 -1.25 1.25 -1.25s1.25 0.55964 1.25 1.25v3c0 0.6904 -0.55964 1.25 -1.25 1.25S1 12.4404 1 11.75Z" stroke-width="1"></path><path id="Vector 4525" stroke="#000000" stroke-linecap="round" stroke-linejoin="round" d="M10.5 11.75v-3c0 -0.69036 0.5596 -1.25 1.25 -1.25S13 8.05964 13 8.75v3c0 0.6904 -0.5596 1.25 -1.25 1.25s-1.25 -0.5596 -1.25 -1.25Z" stroke-width="1"></path></g></svg>