<svg xmlns="http://www.w3.org/2000/svg" fill="none" viewBox="0 0 14 14"><g id="select-all"><path id="Vector 2558" stroke="#000000" stroke-linecap="round" stroke-linejoin="round" d="M5.5 1h3" stroke-width="1"></path><path id="Vector 2559" stroke="#000000" stroke-linecap="round" stroke-linejoin="round" d="M5.5 13h3" stroke-width="1"></path><path id="Vector 2554" stroke="#000000" stroke-linecap="round" stroke-linejoin="round" d="M1 5.5v3" stroke-width="1"></path><path id="Vector 2555" stroke="#000000" stroke-linecap="round" stroke-linejoin="round" d="M1 11v1c0 0.5523 0.44772 1 1 1h1" stroke-width="1"></path><path id="Vector 2556" stroke="#000000" stroke-linecap="round" stroke-linejoin="round" d="M11 13h1c0.5523 0 1 -0.4477 1 -1v-1" stroke-width="1"></path><path id="Vector 2557" stroke="#000000" stroke-linecap="round" stroke-linejoin="round" d="M13 3V2c0 -0.55228 -0.4477 -1 -1 -1h-1" stroke-width="1"></path><path id="Vector 2553" stroke="#000000" stroke-linecap="round" stroke-linejoin="round" d="M1 3V2c0 -0.55228 0.44772 -1 1 -1h1" stroke-width="1"></path><path id="Rectangle 433" stroke="#000000" stroke-linecap="round" stroke-linejoin="round" d="M3.5 4.49988c0 -0.55229 0.44772 -1 1 -1h5c0.5523 0 1 0.44771 1 1v5c0 0.55232 -0.4477 1.00002 -1 1.00002h-5c-0.55228 0 -1 -0.4477 -1 -1.00002v-5Z" stroke-width="1"></path><path id="Vector 2560" stroke="#000000" stroke-linecap="round" stroke-linejoin="round" d="M13 5.5v3" stroke-width="1"></path></g></svg>