<svg xmlns="http://www.w3.org/2000/svg" fill="none" viewBox="0 0 14 14"><g id="share-coin-dollar--payment-cash-money-finance-receive-give-coin-hand"><path id="Vector 294" stroke="#000000" stroke-linecap="round" stroke-linejoin="round" d="m0.645508 10.875 2.443732 2.0364c0.35943 0.2996 0.81249 0.4636 1.28037 0.4636l6.44259 0c0.4602 0 0.8333 -0.3731 0.8333 -0.8333 0 -0.9205 -0.7462 -1.6667 -1.66666 -1.6667H5.4998" stroke-width="1"></path><path id="Vector 295" stroke="#000000" stroke-linecap="round" stroke-linejoin="round" d="m3.64551 9.875 0.75 0.75c0.41421 0.4142 1.08578 0.4142 1.5 0 0.41421 -0.4142 0.41421 -1.08579 0 -1.5L4.73129 7.96079c-0.37507 -0.37508 -0.88378 -0.58579 -1.41421 -0.58579H0.645508" stroke-width="1"></path><path id="Ellipse 19" stroke="#000000" stroke-linecap="round" stroke-linejoin="round" d="M6.416 4.333a3.5 3.5 0 1 0 7 0 3.5 3.5 0 1 0 -7 0" stroke-width="1"></path><path id="Vector 3" stroke="#000000" stroke-linecap="round" stroke-linejoin="round" d="M11.0334 3.16659c-0.0384 -0.10869 -0.0977 -0.20751 -0.173 -0.29167 -0.1602 -0.17901 -0.3931 -0.29167 -0.6522 -0.29167h-0.67731c-0.43136 0 -0.78105 0.34969 -0.78105 0.78106 0 0.36704 0.25557 0.68457 0.61414 0.76301l1.03122 0.22557c0.4017 0.08787 0.688 0.44384 0.688 0.85504 0 0.48325 -0.3918 0.87532 -0.875 0.87532h-0.58336c-0.38098 0 -0.70509 -0.24348 -0.82521 -0.58333" stroke-width="1"></path></g></svg>