<svg xmlns="http://www.w3.org/2000/svg" fill="none" viewBox="0 0 14 14"><g id="sharing-data--sharing-data-signal-wave-device-connection"><path id="Ellipse 1641" stroke="#000000" stroke-linecap="round" stroke-linejoin="round" d="M10.8347 8.83468C11.1009 8.27927 11.25 7.65705 11.25 7c0 -2.34721 -1.90279 -4.25 -4.25 -4.25S2.75 4.65279 2.75 7c0 0.65705 0.1491 1.27927 0.41532 1.83468" stroke-width="1"></path><path id="Vector 3151" stroke="#000000" stroke-linecap="round" stroke-linejoin="round" d="m6.64645 8.35355 -4.2929 4.29285c-0.31498 0.315 -0.0919 0.8536 0.35356 0.8536h8.58579c0.4454 0 0.6685 -0.5386 0.3535 -0.8536L7.35355 8.35355c-0.19526 -0.19526 -0.51184 -0.19526 -0.7071 0Z" stroke-width="1"></path><path id="Vector" stroke="#000000" stroke-linecap="round" stroke-linejoin="round" d="M9 7c0 -1.10457 -0.89543 -2 -2 -2s-2 0.89543 -2 2" stroke-width="1"></path><path id="Vector_2" stroke="#000000" stroke-linecap="round" stroke-linejoin="round" d="M12.4867 10.4867C13.1283 9.47915 13.5 8.28299 13.5 7 13.5 3.41015 10.5899 0.5 7 0.5 3.41015 0.5 0.5 3.41015 0.5 7c0 1.28299 0.371711 2.47915 1.01332 3.4867" stroke-width="1"></path></g></svg>