<svg xmlns="http://www.w3.org/2000/svg" fill="none" viewBox="0 0 14 14"><g id="share-link-circle--share-transmit"><path id="Vector" stroke="#000000" stroke-linecap="round" stroke-linejoin="round" d="m5.61816 6.4408 1.76345 -0.88172" stroke-width="1"></path><path id="Vector_2" stroke="#000000" stroke-linecap="round" stroke-linejoin="round" d="m5.61816 7.55908 1.76345 0.88172" stroke-width="1"></path><path id="Ellipse 1856" stroke="#000000" stroke-linecap="round" stroke-linejoin="round" d="M3.25 7a1.25 1.25 0 1 0 2.5 0 1.25 1.25 0 1 0 -2.5 0" stroke-width="1"></path><path id="Ellipse 1857" stroke="#000000" stroke-linecap="round" stroke-linejoin="round" d="M7.25 5a1.25 1.25 0 1 0 2.5 0 1.25 1.25 0 1 0 -2.5 0" stroke-width="1"></path><path id="Ellipse 1858" stroke="#000000" stroke-linecap="round" stroke-linejoin="round" d="M7.25 9a1.25 1.25 0 1 0 2.5 0 1.25 1.25 0 1 0 -2.5 0" stroke-width="1"></path><path id="Ellipse 19" stroke="#000000" stroke-linecap="round" stroke-linejoin="round" d="M0.5 7a6.5 6.5 0 1 0 13 0 6.5 6.5 0 1 0 -13 0" stroke-width="1"></path></g></svg>