<svg xmlns="http://www.w3.org/2000/svg" fill="none" viewBox="0 0 14 14"><g id="share-setting-bolt-nut"><path id="Vector" stroke="#000000" stroke-linecap="round" stroke-linejoin="round" d="M8.62671 3.20239 4.37305 4.79752" stroke-width="1"></path><path id="Vector_2" stroke="#000000" stroke-linecap="round" stroke-linejoin="round" d="M10.5 4.5c1.1046 0 2 -0.89543 2 -2s-0.8954 -2 -2 -2c-1.10457 0 -2 0.89543 -2 2s0.89543 2 2 2Z" stroke-width="1"></path><path id="Vector_3" stroke="#000000" stroke-linecap="round" stroke-linejoin="round" d="M2.5 7.5c1.10457 0 2 -0.89543 2 -2s-0.89543 -2 -2 -2 -2 0.89543 -2 2 0.89543 2 2 2Z" stroke-width="1"></path><path id="Rectangle 1921" stroke="#000000" stroke-linecap="round" stroke-linejoin="round" d="m7.5 8.75 3 -1.75 3 1.75v3l-3 1.75 -3 -1.75v-3Z" stroke-width="1"></path><path id="Ellipse 1472" stroke="#000000" stroke-linecap="round" stroke-linejoin="round" d="M10 10.25a0.5 0.5 0 1 0 1 0 0.5 0.5 0 1 0 -1 0" stroke-width="1"></path><path id="Vector_4" stroke="#000000" stroke-linecap="round" stroke-linejoin="round" d="m4.37305 6.20239 1.99216 0.74706" stroke-width="1"></path></g></svg>