<svg xmlns="http://www.w3.org/2000/svg" fill="none" viewBox="0 0 14 14"><g id="shark--nature-water-sea-shark-fin-underwater-ocean-danger"><path id="Vector" stroke="#000000" stroke-linecap="round" stroke-linejoin="round" d="M9.49828 5.99585V1S4.50173 0.999309 4.50173 5.99585" stroke-width="1"></path><path id="Vector_2" stroke="#000000" stroke-linecap="round" stroke-linejoin="round" d="M1 9.33159c0.22731 0.10799 0.4816 0.16841 0.75 0.16841 0.9665 0 1.75 -0.7835 1.75 -1.75 0 0.9665 0.7835 1.75 1.75 1.75S7 8.7165 7 7.75c0 0.9665 0.7835 1.75 1.75 1.75s1.75 -0.7835 1.75 -1.75c0 0.9665 0.7835 1.75 1.75 1.75 0.2684 0 0.5227 -0.06042 0.75 -0.16841" stroke-width="1"></path><path id="Vector_3" stroke="#000000" stroke-linecap="round" stroke-linejoin="round" d="M1 12.8316c0.22731 0.108 0.4816 0.1684 0.75 0.1684 0.9665 0 1.75 -0.7835 1.75 -1.75 0 0.9665 0.7835 1.75 1.75 1.75S7 12.2165 7 11.25c0 0.9665 0.7835 1.75 1.75 1.75s1.75 -0.7835 1.75 -1.75c0 0.9665 0.7835 1.75 1.75 1.75 0.2684 0 0.5227 -0.0604 0.75 -0.1684" stroke-width="1"></path></g></svg>