<svg xmlns="http://www.w3.org/2000/svg" fill="none" viewBox="0 0 14 14"><g id="share-link-block--share-transmit-remove-block"><path id="Vector" stroke="#000000" stroke-linecap="round" stroke-linejoin="round" d="M8.62671 3.20239 4.37305 4.79752" stroke-width="1"></path><path id="Vector_2" stroke="#000000" stroke-linecap="round" stroke-linejoin="round" d="M10.5 4.5c1.1046 0 2 -0.89543 2 -2s-0.8954 -2 -2 -2c-1.10457 0 -2 0.89543 -2 2s0.89543 2 2 2Z" stroke-width="1"></path><path id="Vector_3" stroke="#000000" stroke-linecap="round" stroke-linejoin="round" d="M2.5 7.5c1.10457 0 2 -0.89543 2 -2s-0.89543 -2 -2 -2 -2 0.89543 -2 2 0.89543 2 2 2Z" stroke-width="1"></path><path id="Vector_4" stroke="#000000" stroke-linecap="round" stroke-linejoin="round" d="M10.75 13.5C9.23122 13.5 8 12.2688 8 10.75 8 9.23122 9.23122 8 10.75 8c1.5188 0 2.75 1.23122 2.75 2.75 0 1.5188 -1.2312 2.75 -2.75 2.75Z" stroke-width="1"></path><path id="Vector_5" stroke="#000000" stroke-linecap="round" stroke-linejoin="round" d="M12.6948 12.6945 8.80566 8.80542" stroke-width="1"></path><path id="Vector_6" stroke="#000000" stroke-linecap="round" stroke-linejoin="round" d="m4.37305 6.20239 2.89558 1.08585" stroke-width="1"></path></g></svg>