<svg xmlns="http://www.w3.org/2000/svg" fill="none" viewBox="0 0 14 14"><g id="shipment-favorite--shipping-parcel-shipment-favorite-heart"><path id="Vector" stroke="#000000" stroke-linecap="round" stroke-linejoin="round" d="M5.92676 0.5v3.32692" stroke-width="1"></path><path id="Vector_2" stroke="#000000" stroke-linecap="round" stroke-linejoin="round" d="M11.333 5.90625V3.8269H0.520508v6.6539c0 0.2205 0.087628 0.4321 0.243608 0.5881 0.15598 0.156 0.367534 0.2436 0.588124 0.2436h3.63702" stroke-width="1"></path><path id="Vector_3" stroke="#000000" stroke-linecap="round" stroke-linejoin="round" d="M0.520508 3.82692 1.7681 1.42322c0.1345 -0.27092 0.34032 -0.500038 0.59532 -0.66271 0.255 -0.162672 0.54953 -0.252738 0.8519 -0.26051H8.6382c0.30947 0.000164 0.61277 0.086656 0.87578 0.249752 0.263 0.163095 0.4753 0.396328 0.61302 0.673468l1.206 2.4037" stroke-width="1"></path><path id="Vector_4" stroke="#000000" stroke-linecap="round" stroke-linejoin="round" d="m10.0459 13.4113 -2.7396 -2.5341c-1.49307 -1.49992 0.68489 -4.40388 2.7396 -2.05468 2.0547 -2.34235 4.2532 0.56161 2.7396 2.05468l-2.7396 2.5341Z" stroke-width="1"></path></g></svg>