<svg xmlns="http://www.w3.org/2000/svg" fill="none" viewBox="0 0 14 14"><g id="shopping-basket-emoji-sad--shopping-basket"><path id="Vector" stroke="#000000" stroke-linecap="round" stroke-linejoin="round" d="M12.3701 6.00004H1.65009c-0.14301 -0.00122 -0.28462 0.02826 -0.41527 0.08644 -0.13066 0.05817 -0.247307 0.1437 -0.342088 0.2508 -0.094782 0.10711 -0.165487 0.23329 -0.207344 0.37005 -0.041857 0.13676 -0.053893 0.2809 -0.035296 0.42271L1.38009 12.63c0.03174 0.2421 0.15095 0.4643 0.33516 0.6245 0.18421 0.1603 0.42068 0.2476 0.66484 0.2455h9.24001c0.2442 0.0021 0.4806 -0.0852 0.6648 -0.2455 0.1842 -0.1602 0.3035 -0.3824 0.3352 -0.6245l0.73 -5.49996c0.0184 -0.14014 0.0068 -0.28258 -0.0338 -0.41793 -0.0407 -0.13536 -0.1096 -0.26055 -0.2022 -0.36732 -0.0926 -0.10678 -0.2068 -0.19271 -0.3351 -0.25214 -0.1282 -0.05942 -0.2676 -0.09099 -0.4089 -0.09261Z" stroke-width="1"></path><path id="Vector_2" stroke="#000000" stroke-linecap="round" stroke-linejoin="round" d="M9.49023 1.54004c0.59907 0.10349 1.14787 0.39979 1.56307 0.84384 0.4151 0.44404 0.6739 1.01154 0.7369 1.61616l0.22 2" stroke-width="1"></path><path id="Vector_3" stroke="#000000" stroke-linecap="round" stroke-linejoin="round" d="m2.00977 5.99994 0.22 -2c0.06712 -0.60104 0.32772 -1.164 0.74255 -1.60407 0.41483 -0.44008 0.96142 -0.73346 1.55745 -0.83593" stroke-width="1"></path><path id="Vector_4" stroke="#000000" stroke-linecap="round" stroke-linejoin="round" d="M9.50977 1.75c0 0.16415 -0.03234 0.3267 -0.09516 0.47835 -0.06281 0.15166 -0.15489 0.28946 -0.27096 0.40553 -0.11607 0.11608 -0.25387 0.20815 -0.40553 0.27097C8.58646 2.96767 8.42392 3 8.25977 3h-2.5c-0.33152 0 -0.64947 -0.1317 -0.88389 -0.36612 -0.23442 -0.23442 -0.36611 -0.55236 -0.36611 -0.88388 0 -0.33152 0.13169 -0.64946 0.36611 -0.883883C5.1103 0.631696 5.42825 0.5 5.75977 0.5h2.5c0.33152 0 0.64946 0.131696 0.88388 0.366117 0.23442 0.234423 0.36612 0.552363 0.36612 0.883883v0Z" stroke-width="1"></path><path id="Vector 335" stroke="#000000" stroke-linecap="round" stroke-linejoin="round" d="M5.4375 11.2563c0.16794 -0.2194 0.72673 -0.6582 1.61834 -0.6582 0.89161 0 1.38933 0.4388 1.52673 0.6582" stroke-width="1"></path><g id="Group 4470"><path id="Ellipse 1" stroke="#000000" stroke-linecap="round" stroke-linejoin="round" d="M5.18753 8.86304c-0.13807 0 -0.25 -0.11193 -0.25 -0.25s0.11193 -0.25 0.25 -0.25" stroke-width="1"></path><path id="Ellipse 2" stroke="#000000" stroke-linecap="round" stroke-linejoin="round" d="M5.18758 8.86304c0.13807 0 0.25 -0.11193 0.25 -0.25s-0.11193 -0.25 -0.25 -0.25" stroke-width="1"></path></g><g id="Group 4544"><path id="Ellipse 1_2" stroke="#000000" stroke-linecap="round" stroke-linejoin="round" d="M8.83258 8.86304c-0.13807 0 -0.25 -0.11193 -0.25 -0.25s0.11193 -0.25 0.25 -0.25" stroke-width="1"></path><path id="Ellipse 2_2" stroke="#000000" stroke-linecap="round" stroke-linejoin="round" d="M8.83263 8.86304c0.13807 0 0.25 -0.11193 0.25 -0.25s-0.11193 -0.25 -0.25 -0.25" stroke-width="1"></path></g></g></svg>