<svg xmlns="http://www.w3.org/2000/svg" fill="none" viewBox="0 0 14 14"><g id="shopping-basket-remove--shopping-basket"><path id="Vector" stroke="#000000" stroke-linecap="round" stroke-linejoin="round" d="M3.67676 5.56246H1.71995c-0.14998 -0.00304 -0.29872 0.02771 -0.43521 0.08996s-0.25722 0.15441 -0.353254 0.26965c-0.096036 0.11524 -0.164913 0.25062 -0.20153 0.39609 -0.036618 0.14548 -0.040036 0.29733 -0.010003 0.4443L1.81995 12.2625c0.04675 0.2292 0.17243 0.4349 0.35515 0.581 0.18271 0.1462 0.41091 0.2237 0.64485 0.219H11.18c0.2339 0.0047 0.4621 -0.0728 0.6448 -0.219 0.1827 -0.1461 0.3084 -0.3518 0.3552 -0.581l1.1 -5.50004c0.03 -0.14697 0.0266 -0.29882 -0.01 -0.4443 -0.0367 -0.14547 -0.1055 -0.28085 -0.2016 -0.39609 -0.096 -0.11524 -0.2167 -0.2074 -0.3532 -0.26965s-0.2853 -0.093 -0.4352 -0.08996h-2.0516" stroke-width="1"></path><path id="Vector_2" stroke="#000000" stroke-linecap="round" stroke-linejoin="round" d="M3.25 5.5624 1.71434 2.875" stroke-width="1"></path><path id="Vector_3" stroke="#000000" stroke-linecap="round" stroke-linejoin="round" d="m10.75 5.5624 1.5357 -2.6874" stroke-width="1"></path><path id="Vector_4" stroke="#000000" stroke-linecap="round" stroke-linejoin="round" d="m7 5.93726 0 -4.85419" stroke-width="1"></path><path id="Vector_5" stroke="#000000" stroke-linecap="round" stroke-linejoin="round" d="M8.83008 2.91345 6.99964 1.08301 5.16919 2.91345" stroke-width="1"></path><path id="Vector 346" stroke="#000000" stroke-linecap="round" stroke-linejoin="round" d="M5.16943 8.25v2.0951" stroke-width="1"></path><path id="Vector 347" stroke="#000000" stroke-linecap="round" stroke-linejoin="round" d="M8.83057 8.25v2.0951" stroke-width="1"></path></g></svg>