<svg xmlns="http://www.w3.org/2000/svg" fill="none" viewBox="0 0 14 14"><g id="shopping-basket-3--shopping-basket"><path id="Vector" stroke="#000000" stroke-linecap="round" stroke-linejoin="round" d="M13.36 6.62c0.0171 -0.13958 0.0045 -0.28119 -0.0368 -0.4156 -0.0414 -0.1344 -0.1106 -0.25857 -0.2032 -0.3644 -0.0937 -0.10667 -0.2091 -0.19216 -0.3384 -0.25078 -0.1293 -0.05863 -0.2696 -0.08904 -0.4116 -0.08922H1.62999c-0.14198 0.00018 -0.2823 0.03059 -0.41162 0.08922 -0.12932 0.05862 -0.244666 0.14411 -0.338376 0.25078 -0.092598 0.10583 -0.161835 0.23 -0.203189 0.3644 -0.041355 0.13441 -0.053898 0.27602 -0.036811 0.4156l0.749996 6c0.02948 0.2439 0.14771 0.4684 0.33215 0.6307 0.18444 0.1623 0.42218 0.2511 0.66785 0.2493H11.63c0.2457 0.0018 0.4834 -0.087 0.6678 -0.2493 0.1845 -0.1623 0.3027 -0.3868 0.3322 -0.6307l0.73 -6Z" stroke-width="1"></path><path id="Vector_2" stroke="#000000" stroke-linecap="round" stroke-linejoin="round" d="M2.5 5.5V5c0 -1.19347 0.47411 -2.33807 1.31802 -3.18198C4.66193 0.974106 5.80653 0.5 7 0.5c1.19347 0 2.33807 0.474106 3.182 1.31802C11.0259 2.66193 11.5 3.80653 11.5 5v0.5" stroke-width="1"></path><path id="Vector_3" stroke="#000000" stroke-linecap="round" stroke-linejoin="round" d="M5 8.5v2" stroke-width="1"></path><path id="Vector_4" stroke="#000000" stroke-linecap="round" stroke-linejoin="round" d="M9 8.5v2" stroke-width="1"></path></g></svg>