<svg xmlns="http://www.w3.org/2000/svg" fill="none" viewBox="0 0 14 14"><g id="shopping-bag-hand-bag-price-tag--shopping-bag-purse-goods-item-products"><path id="Vector" stroke="#000000" stroke-linecap="round" stroke-linejoin="round" d="M8.60397 4.53131H1.55724L0.688262 12.3225c-0.015551 0.1385 -0.001593 0.2787 0.040956 0.4115 0.04255 0.1328 0.112726 0.255 0.205911 0.3587 0.093431 0.1035 0.207741 0.1861 0.335391 0.2422 0.12765 0.0562 0.26575 0.0847 0.40521 0.0836h9.63767c0.1395 0.0011 0.2776 -0.0274 0.4053 -0.0836 0.1276 -0.0561 0.2419 -0.1387 0.3353 -0.2422 0.0932 -0.1037 0.1634 -0.2259 0.206 -0.3587 0.0425 -0.1328 0.0565 -0.273 0.0409 -0.4115l-0.5008 -4.49013" stroke-width="1"></path><path id="Vector_2" stroke="#000000" stroke-linecap="round" stroke-linejoin="round" d="M4.02591 4.53133v-1.4812c0 -0.65474 0.26009 -1.28265 0.72306 -1.74562C5.21193 0.841543 5.83985 0.581451 6.49459 0.581451c0.65473 0 1.28265 0.260092 1.74561 0.723059 0.46297 0.46297 0.72306 1.09088 0.72306 1.74562v0.25457" stroke-width="1"></path><path id="Union" stroke="#000000" stroke-linecap="round" stroke-linejoin="round" d="m8.3613 5.445 0.59585 -2.13967 2.20335 0.28029 2.1574 3.24786 -2.7992 1.85938L8.3613 5.445Z" stroke-width="1"></path></g></svg>