<svg xmlns="http://www.w3.org/2000/svg" fill="none" viewBox="0 0 14 14"><g id="shopping-cart-add--shopping-basket"><path id="Vector" stroke="#000000" stroke-linecap="round" stroke-linejoin="round" d="M13.5 9.875H4.44c-0.12111 -0.00155 -0.23755 -0.04701 -0.32767 -0.12793 -0.09012 -0.08093 -0.14781 -0.19182 -0.16233 -0.31207L3 2.315c-0.01283 -0.11227 -0.06331 -0.21688 -0.14321 -0.29679 -0.07991 -0.0799 -0.18452 -0.13038 -0.29679 -0.14321H0.5" stroke-width="1"></path><path id="Vector_2" stroke="#000000" stroke-linecap="round" stroke-linejoin="round" d="M12 13.375c-0.2761 0 -0.5 -0.2239 -0.5 -0.5s0.2239 -0.5 0.5 -0.5 0.5 0.2239 0.5 0.5 -0.2239 0.5 -0.5 0.5Z" stroke-width="1"></path><path id="Vector_3" stroke="#000000" stroke-linecap="round" stroke-linejoin="round" d="M5.5 13.375c-0.27614 0 -0.5 -0.2239 -0.5 -0.5s0.22386 -0.5 0.5 -0.5 0.5 0.2239 0.5 0.5 -0.22386 0.5 -0.5 0.5Z" stroke-width="1"></path><path id="Vector_4" stroke="#000000" stroke-linecap="round" stroke-linejoin="round" d="m8.5 7.00012 0 -4.85418" stroke-width="1"></path><path id="Vector_5" stroke="#000000" stroke-linecap="round" stroke-linejoin="round" d="M10.3301 3.97644 8.49964 2.146 6.66919 3.97644" stroke-width="1"></path></g></svg>