<svg xmlns="http://www.w3.org/2000/svg" fill="none" viewBox="0 0 14 14"><g id="show-hat-magician"><path id="Rectangle 1681" stroke="#000000" stroke-linecap="round" stroke-linejoin="round" d="M2.92402 6.8125h5.71446l1.16415 5.3011c0.137 0.6239 -0.338 1.2145 -0.97673 1.2145H2.7366c-0.63873 0 -1.11373 -0.5906 -0.97673 -1.2145l1.16415 -5.3011Z" stroke-width="1"></path><path id="Vector 1881" stroke="#000000" stroke-linecap="round" stroke-linejoin="round" d="M2.4375 9.34375h6.71875" stroke-width="1"></path><path id="Vector 1882" stroke="#000000" stroke-linecap="round" stroke-linejoin="round" d="M1.34375 6.8125H10.25" stroke-width="1"></path><path id="Vector 1883" stroke="#000000" stroke-linecap="round" stroke-linejoin="round" d="M7.625 4.55469 13.3808 0.632812" stroke-width="1"></path><path id="Vector 1884" stroke="#000000" stroke-linecap="round" stroke-linejoin="round" d="M1.9375 0.632812V2.78906" stroke-width="1"></path><path id="Vector 1885" stroke="#000000" stroke-linecap="round" stroke-linejoin="round" d="m3.01562 1.71094 -2.156245 0" stroke-width="1"></path><g id="Group 4515"><path id="Ellipse 1028" stroke="#000000" stroke-linecap="round" stroke-linejoin="round" d="M6.66028 2.50391c-0.13807 0 -0.25 -0.11193 -0.25 -0.25s0.11193 -0.25 0.25 -0.25" stroke-width="1"></path><path id="Ellipse 1029" stroke="#000000" stroke-linecap="round" stroke-linejoin="round" d="M6.66028 2.50391c0.13807 0 0.25 -0.11193 0.25 -0.25s-0.11193 -0.25 -0.25 -0.25" stroke-width="1"></path></g><g id="Group 4516"><path id="Ellipse 1028_2" stroke="#000000" stroke-linecap="round" stroke-linejoin="round" d="M4.03699 4.80469c-0.13807 0 -0.25 -0.11193 -0.25 -0.25s0.11193 -0.25 0.25 -0.25" stroke-width="1"></path><path id="Ellipse 1029_2" stroke="#000000" stroke-linecap="round" stroke-linejoin="round" d="M4.03699 4.80469c0.13807 0 0.25 -0.11193 0.25 -0.25s-0.11193 -0.25 -0.25 -0.25" stroke-width="1"></path></g></g></svg>