<svg xmlns="http://www.w3.org/2000/svg" fill="none" viewBox="0 0 14 14"><g id="show-layer--show-layer-work"><path id="Vector" stroke="#000000" stroke-linecap="round" stroke-linejoin="round" d="M2.5 3H8c0.55228 0 1 0.44772 1 1v8.5c0 0.5523 -0.44772 1 -1 1H2.5c-0.55228 0 -1 -0.4477 -1 -1V4c0 -0.55228 0.44772 -1 1 -1Z" stroke-width="1"></path><path id="Vector_2" stroke="#000000" stroke-linecap="round" stroke-linejoin="round" d="M9 11h2.5c0.2652 0 0.5196 -0.1054 0.7071 -0.2929S12.5 10.2652 12.5 10V1.5c0 -0.26522 -0.1054 -0.51957 -0.2929 -0.707107C12.0196 0.605357 11.7652 0.5 11.5 0.5H6c-0.26522 0 -0.51957 0.105357 -0.70711 0.292893C5.10536 0.98043 5 1.23478 5 1.5V3" stroke-width="1"></path></g></svg>