<svg xmlns="http://www.w3.org/2000/svg" fill="none" viewBox="0 0 14 14"><g id="signage-priority-infant-woman--travel-wayfinder-signage-priority-infant-woman"><path id="Vector" stroke="#000000" stroke-linecap="round" stroke-linejoin="round" d="M10.5 3.5c0.6904 0 1.25 -0.55964 1.25 -1.25S11.1904 1 10.5 1c-0.69036 0 -1.25 0.55964 -1.25 1.25S9.80964 3.5 10.5 3.5Z" stroke-width="1"></path><path id="Vector 2019" stroke="#000000" stroke-linecap="round" stroke-linejoin="round" d="m8.16016 5.98833 0.21988 -1.56369c0.08241 -0.59583 0.66839 -0.9846 1.24939 -0.82892l0.70937 0.19009c0.581 0.15568 0.8941 0.78535 0.6676 1.34255l-0.5965 1.46704" stroke-width="1"></path><path id="Vector_2" stroke="#000000" stroke-linecap="round" stroke-linejoin="round" d="M5 4c0.9665 0 1.75 -0.7835 1.75 -1.75S5.9665 0.5 5 0.5s-1.75 0.7835 -1.75 1.75S4.0335 4 5 4Z" stroke-width="1"></path><path id="Vector_3" stroke="#000000" stroke-linecap="round" stroke-linejoin="round" d="M8 8c-1.5 0 -2 -0.75 -2 -0.75" stroke-width="1"></path><path id="Vector 4951" stroke="#000000" stroke-linecap="round" stroke-linejoin="round" d="m3.5 11 0.5 2.5h2l0.5 -2.5h2L8 8h1.5c0.5523 0 1 -0.44772 1 -1s-0.4477 -1 -1 -1h-1c-0.62951 0 -1.22229 -0.29639 -1.6 -0.8l-0.40026 -0.53368C6.18515 4.24686 5.69142 4 5.1671 4c-1.24347 0 -2.29772 0.91434 -2.47357 2.14532L2 11h1.5Z" stroke-width="1"></path></g></svg>