<svg xmlns="http://www.w3.org/2000/svg" fill="none" viewBox="0 0 14 14"><g id="signage-priority-infant-person--travel-wayfinder-signage-priority-infant-person"><path id="Vector" stroke="#000000" stroke-linecap="round" stroke-linejoin="round" d="M4.5 4c0.9665 0 1.75 -0.7835 1.75 -1.75S5.4665 0.5 4.5 0.5s-1.75 0.7835 -1.75 1.75S3.5335 4 4.5 4Z" stroke-width="1"></path><path id="Vector_2" stroke="#000000" stroke-linecap="round" stroke-linejoin="round" d="M4.50002 4c1.94903 0 1.94021 3 3.32843 3h1.17157C9.55231 7 10 7.44772 10 8s-0.44769 1 -0.99998 1H7.32845c-0.40174 0 -0.79516 -0.08058 -1.15868 -0.23279L5.89288 13.5H3l-0.5 -7.49996C2.49999 4.89545 3.39543 4 4.50002 4Z" stroke-width="1"></path><path id="Vector_3" stroke="#000000" stroke-linecap="round" stroke-linejoin="round" d="M6.16983 8.76714c-0.5572 -0.23331 -0.95885 -0.6421 -1.37686 -1.06011" stroke-width="1"></path><path id="Vector 2019" stroke="#000000" stroke-linecap="round" stroke-linejoin="round" d="m7.66016 6.98833 0.21988 -1.56369c0.08241 -0.59583 0.66839 -0.9846 1.24939 -0.82892l0.70941 0.19009c0.58096 0.15568 0.89406 0.78535 0.66756 1.34255L9.90994 7.5954" stroke-width="1"></path><path id="Vector_4" stroke="#000000" stroke-linecap="round" stroke-linejoin="round" d="M10 4.5c0.6904 0 1.25 -0.55964 1.25 -1.25S10.6904 2 10 2c-0.69036 0 -1.25 0.55964 -1.25 1.25S9.30964 4.5 10 4.5Z" stroke-width="1"></path></g></svg>