<svg xmlns="http://www.w3.org/2000/svg" fill="none" viewBox="0 0 14 14"><g id="sign-cross-circle--health-sign-medical-symbol-hospital-cross-circle"><path id="Ellipse 892" stroke="#000000" stroke-linecap="round" stroke-linejoin="round" d="M0.625 7a6.344 6.344 0 1 0 12.688 0A6.344 6.344 0 1 0 0.625 7" stroke-width="1"></path><path id="Union" stroke="#000000" stroke-linecap="round" stroke-linejoin="round" d="M6.15625 3.78124c-0.27614 0 -0.5 0.22385 -0.5 0.5v1.40627l-1.40625 0c-0.27614 0 -0.5 0.22386 -0.5 0.5v1.625c0 0.27614 0.22386 0.5 0.5 0.5h1.40625v1.40623c0 0.27614 0.22386 0.49996 0.5 0.49996h1.625c0.27614 0 0.5 -0.22382 0.5 -0.49996V8.31251H9.6875c0.27614 0 0.5 -0.22385 0.5 -0.5v-1.625c0 -0.27614 -0.22386 -0.5 -0.5 -0.5l-1.40625 0V4.28124c0 -0.27615 -0.22386 -0.5 -0.5 -0.5h-1.625Z" stroke-width="1"></path></g></svg>