<svg xmlns="http://www.w3.org/2000/svg" fill="none" viewBox="0 0 14 14"><g id="skin-care--skin-care-lotion-cream-sunscreen"><path id="Vector 3092" stroke="#000000" stroke-linecap="round" stroke-linejoin="round" d="M4.5 10.5v2c0 0.5523 0.44772 1 1 1h3c0.55228 0 1 -0.4477 1 -1v-2h-5Z" stroke-width="1"></path><path id="Vector 3093" stroke="#000000" stroke-linecap="round" stroke-linejoin="round" d="M9.5 10.5h-5L3.17225 1.64834C3.08156 1.04374 3.54982 0.5 4.16119 0.5h5.67762c0.61139 0 1.07959 0.54374 0.98889 1.14834L9.5 10.5Z" stroke-width="1"></path><path id="Vector 3094" stroke="#000000" stroke-linecap="round" stroke-linejoin="round" d="M5.5 5V4c0 -0.27614 0.22386 -0.5 0.5 -0.5h2c0.27614 0 0.5 0.22386 0.5 0.5v1c0 0.27614 -0.22386 0.5 -0.5 0.5H6c-0.27614 0 -0.5 -0.22386 -0.5 -0.5Z" stroke-width="1"></path></g></svg>