<svg xmlns="http://www.w3.org/2000/svg" fill="none" viewBox="0 0 14 14"><g id="slippery-sign--slippery-sign-danger-symbol-slip-warning"><path id="Ellipse 1537" stroke="#000000" stroke-linecap="round" stroke-linejoin="round" d="M1.5 2a1.5 1.5 0 1 0 3 0 1.5 1.5 0 1 0 -3 0" stroke-width="1"></path><path id="Vector 2827" stroke="#000000" stroke-linecap="round" stroke-linejoin="round" d="m1.5 9 0.32649 -1.63244c0.11051 -0.55255 0.44898 -1.03284 0.93217 -1.32275l3.27033 -1.9622C6.6314 3.72116 7 3.07014 7 2.36762V1" stroke-width="1"></path><path id="Vector 2828" stroke="#000000" stroke-linecap="round" stroke-linejoin="round" d="M4.40625 5.09375 6 8l2.21409 -0.73803c0.50321 -0.16774 1.05244 -0.1287 1.52688 0.10851L12 8.5" stroke-width="1"></path><path id="Vector 2829" stroke="#000000" stroke-linecap="round" stroke-linejoin="round" d="m6 8 1.79399 0.71759c0.45479 0.18192 0.82701 0.52442 1.04607 0.96253L9.5 11" stroke-width="1"></path><path id="Vector 2867" stroke="#000000" stroke-linecap="round" stroke-linejoin="round" d="M11 13.5c0 -0.3333 0.5 -1.5 1.5 -2" stroke-width="1"></path><path id="Vector 2868" stroke="#000000" stroke-linecap="round" stroke-linejoin="round" d="M8 13.5c0 -0.3333 -0.5 -1.5 -1.5 -2" stroke-width="1"></path></g></svg>