<svg xmlns="http://www.w3.org/2000/svg" fill="none" viewBox="0 0 14 14"><g id="smiley-tongue-out"><g id="Group 623"><path id="Vector" stroke="#000000" stroke-linecap="round" stroke-linejoin="round" d="M4.75 6c-0.13807 0 -0.25 -0.11193 -0.25 -0.25s0.11193 -0.25 0.25 -0.25" stroke-width="1"></path><path id="Vector_2" stroke="#000000" stroke-linecap="round" stroke-linejoin="round" d="M4.75 6c0.13807 0 0.25 -0.11193 0.25 -0.25s-0.11193 -0.25 -0.25 -0.25" stroke-width="1"></path></g><g id="Group 624"><path id="Vector_3" stroke="#000000" stroke-linecap="round" stroke-linejoin="round" d="M9.25 6C9.11193 6 9 5.88807 9 5.75s0.11193 -0.25 0.25 -0.25" stroke-width="1"></path><path id="Vector_4" stroke="#000000" stroke-linecap="round" stroke-linejoin="round" d="M9.25 6c0.13807 0 0.25 -0.11193 0.25 -0.25s-0.11193 -0.25 -0.25 -0.25" stroke-width="1"></path></g><path id="Vector_5" stroke="#000000" stroke-linecap="round" stroke-linejoin="round" d="M11 12.1238C12.5218 10.9342 13.5 9.08132 13.5 7 13.5 3.41015 10.5899 0.5 7 0.5 3.41015 0.5 0.5 3.41015 0.5 7c0 2.08132 0.97823 3.9342 2.5 5.1238" stroke-width="1"></path><path id="Vector_6" stroke="#000000" stroke-linecap="round" stroke-linejoin="round" d="M4.21954 9c0.64641 1.1234 2.1388 1.752 3.6312 1.4041 0.80377 -0.1942 1.4883 -0.70534 1.90764 -1.4041" stroke-width="1"></path><path id="Rectangle 54" stroke="#000000" stroke-linecap="round" stroke-linejoin="round" d="M5.5 10.1583V11.5c0 0.8284 0.67157 1.5 1.5 1.5v0c0.82843 0 1.5 -0.6716 1.5 -1.5v-1.3334" stroke-width="1"></path></g></svg>