<svg xmlns="http://www.w3.org/2000/svg" fill="none" viewBox="0 0 14 14"><g id="smiley-drop"><path id="Vector" stroke="#000000" stroke-linecap="round" stroke-linejoin="round" d="M11.971 4.49154c0.6074 0 1.0999 -0.49242 1.0999 -1.09986 0 -0.60743 -1.0999 -2.00704 -1.0999 -2.00704s-1.0999 1.39961 -1.0999 2.00704c0 0.60744 0.4925 1.09986 1.0999 1.09986Z" stroke-width="1"></path><path id="Vector_2" stroke="#000000" stroke-linecap="round" stroke-linejoin="round" d="M13.5 7c0 3.5899 -2.9101 6.5 -6.5 6.5C3.41015 13.5 0.5 10.5899 0.5 7 0.5 3.41015 3.41015 0.5 7 0.5c0.8859 0 1.73041 0.177228 2.5 0.498163" stroke-width="1"></path><path id="Ellipse 1794" stroke="#000000" stroke-linecap="round" stroke-linejoin="round" d="M4 9.69621C4.61245 8.67979 5.72684 8 7 8c1.27317 0 2.38756 0.67979 3 1.69621" stroke-width="1"></path><g id="Group 623"><path id="Vector_3" stroke="#000000" stroke-linecap="round" stroke-linejoin="round" d="M4.75 5.5c-0.13807 0 -0.25 -0.11193 -0.25 -0.25S4.61193 5 4.75 5" stroke-width="1"></path><path id="Vector_4" stroke="#000000" stroke-linecap="round" stroke-linejoin="round" d="M4.75 5.5c0.13807 0 0.25 -0.11193 0.25 -0.25S4.88807 5 4.75 5" stroke-width="1"></path></g><g id="Group 624"><path id="Vector_5" stroke="#000000" stroke-linecap="round" stroke-linejoin="round" d="M9.25 5.5c-0.13807 0 -0.25 -0.11193 -0.25 -0.25S9.11193 5 9.25 5" stroke-width="1"></path><path id="Vector_6" stroke="#000000" stroke-linecap="round" stroke-linejoin="round" d="M9.25 5.5c0.13807 0 0.25 -0.11193 0.25 -0.25S9.38807 5 9.25 5" stroke-width="1"></path></g></g></svg>