<svg xmlns="http://www.w3.org/2000/svg" fill="none" viewBox="0 0 14 14"><g id="smiley-shocked"><path id="Vector" stroke="#000000" stroke-linecap="round" stroke-linejoin="round" d="M7 13.5c3.5899 0 6.5 -2.9101 6.5 -6.5C13.5 3.41015 10.5899 0.5 7 0.5 3.41015 0.5 0.5 3.41015 0.5 7c0 3.5899 2.91015 6.5 6.5 6.5Z" stroke-width="1"></path><path id="Vector_2" stroke="#000000" stroke-linecap="round" stroke-linejoin="round" d="M7 11c0.69036 0 1.25 -0.6716 1.25 -1.5C8.25 8.67157 7.69036 8 7 8s-1.25 0.67157 -1.25 1.5c0 0.8284 0.55964 1.5 1.25 1.5Z" stroke-width="1"></path><path id="Vector 865" stroke="#000000" stroke-linecap="round" stroke-linejoin="round" d="m5.5 4 -2 2" stroke-width="1"></path><path id="Vector 866" stroke="#000000" stroke-linecap="round" stroke-linejoin="round" d="m3.5 4 2 2" stroke-width="1"></path><path id="Vector 867" stroke="#000000" stroke-linecap="round" stroke-linejoin="round" d="m10.5 4 -2 2" stroke-width="1"></path><path id="Vector 868" stroke="#000000" stroke-linecap="round" stroke-linejoin="round" d="m8.5 4 2 2" stroke-width="1"></path></g></svg>