<svg xmlns="http://www.w3.org/2000/svg" fill="none" viewBox="0 0 14 14"><g id="smiley-very-happy-1"><path id="Vector" stroke="#000000" stroke-linecap="round" stroke-linejoin="round" d="M7 13.5c3.5899 0 6.5 -2.9101 6.5 -6.5C13.5 3.41015 10.5899 0.5 7 0.5 3.41015 0.5 0.5 3.41015 0.5 7c0 3.5899 2.91015 6.5 6.5 6.5Z" stroke-width="1"></path><path id="Vector 558" stroke="#000000" stroke-linecap="round" stroke-linejoin="round" d="M8.36719 5.18901c0.15641 -0.25417 0.50052 -0.4171 0.8342 -0.4171 0.33367 0 0.67778 0.16293 0.83421 0.4171" stroke-width="1"></path><path id="Vector 559" stroke="#000000" stroke-linecap="round" stroke-linejoin="round" d="M5.63281 5.18901c-0.15641 -0.25417 -0.50052 -0.4171 -0.8342 -0.4171 -0.33367 0 -0.67778 0.16293 -0.83419 0.4171" stroke-width="1"></path><path id="Ellipse 1793" stroke="#000000" stroke-linecap="round" stroke-linejoin="round" d="M3.64494 8C4.07522 9.44574 5.41449 10.5 7 10.5S9.92479 9.44574 10.3551 8" stroke-width="1"></path></g></svg>