<svg xmlns="http://www.w3.org/2000/svg" fill="none" viewBox="0 0 14 14"><g id="smiley-worried"><g id="Group 623"><path id="Vector" stroke="#000000" stroke-linecap="round" stroke-linejoin="round" d="M4.75 5c-0.13807 0 -0.25 -0.11193 -0.25 -0.25s0.11193 -0.25 0.25 -0.25" stroke-width="1"></path><path id="Vector_2" stroke="#000000" stroke-linecap="round" stroke-linejoin="round" d="M4.75 5c0.13807 0 0.25 -0.11193 0.25 -0.25s-0.11193 -0.25 -0.25 -0.25" stroke-width="1"></path></g><g id="Group 624"><path id="Vector_3" stroke="#000000" stroke-linecap="round" stroke-linejoin="round" d="M9.25 5C9.11193 5 9 4.88807 9 4.75s0.11193 -0.25 0.25 -0.25" stroke-width="1"></path><path id="Vector_4" stroke="#000000" stroke-linecap="round" stroke-linejoin="round" d="M9.25 5c0.13807 0 0.25 -0.11193 0.25 -0.25s-0.11193 -0.25 -0.25 -0.25" stroke-width="1"></path></g><path id="Vector_5" stroke="#000000" stroke-linecap="round" stroke-linejoin="round" d="M10 1.23221C9.10249 0.764435 8.08213 0.5 7 0.5 3.41015 0.5 0.5 3.41015 0.5 7c0 3.5899 2.91015 6.5 6.5 6.5 3.5899 0 6.5 -2.9101 6.5 -6.5 0 -0.22295 -0.0112 -0.44328 -0.0331 -0.66045" stroke-width="1"></path><path id="Vector_6" stroke="#000000" stroke-linecap="round" stroke-linejoin="round" d="M12.4002 4.6069c0.6074 0 1.0998 -0.49242 1.0998 -1.09986C13.5 2.89961 12.4002 1.5 12.4002 1.5s-1.0999 1.39961 -1.0999 2.00704c0 0.60744 0.4924 1.09986 1.0999 1.09986Z" stroke-width="1"></path><path id="Ellipse 651" stroke="#000000" stroke-linecap="round" stroke-linejoin="round" d="M7 7c1.65685 0 3 1.34315 3 3H4c0 -1.65685 1.34315 -3 3 -3Z" stroke-width="1"></path></g></svg>