<svg xmlns="http://www.w3.org/2000/svg" fill="none" viewBox="0 0 14 14"><g id="smiley-kiss-and-wink"><path id="Vector 559" stroke="#000000" stroke-linecap="round" stroke-linejoin="round" d="M8.47536 5.29796c0.15641 -0.25417 0.50052 -0.4171 0.8342 -0.4171 0.33367 0 0.67778 0.16293 0.83424 0.4171" stroke-width="1"></path><path id="Vector 563" stroke="#000000" stroke-linecap="round" stroke-linejoin="round" d="m6.73903 6.83594 0.44657 0.09699c0.70227 0.15252 0.9168 1.04932 0.35959 1.50314l-0.36866 0.30026 0.36866 0.30025c0.55721 0.45383 0.34268 1.35062 -0.35959 1.50312l-0.44657 0.097" stroke-width="1"></path><g id="Group 623"><path id="Vector" stroke="#000000" stroke-linecap="round" stroke-linejoin="round" d="M4.75 5.5c-0.13807 0 -0.25 -0.11193 -0.25 -0.25S4.61193 5 4.75 5" stroke-width="1"></path><path id="Vector_2" stroke="#000000" stroke-linecap="round" stroke-linejoin="round" d="M4.75 5.5c0.13807 0 0.25 -0.11193 0.25 -0.25S4.88807 5 4.75 5" stroke-width="1"></path></g><path id="Vector_3" stroke="#000000" stroke-linecap="round" stroke-linejoin="round" d="M7 13.5c3.5899 0 6.5 -2.9101 6.5 -6.5C13.5 3.41015 10.5899 0.5 7 0.5 3.41015 0.5 0.5 3.41015 0.5 7c0 3.5899 2.91015 6.5 6.5 6.5Z" stroke-width="1"></path></g></svg>