<svg xmlns="http://www.w3.org/2000/svg" fill="none" viewBox="0 0 14 14"><g id="snooze--nap-sleep-rest-break-clock-bed-time-moon"><path id="Vector 3" stroke="#000000" stroke-linecap="round" stroke-linejoin="round" d="M8.5 4.5H11l-2.5 3H11" stroke-width="1"></path><path id="Vector 1174" stroke="#000000" stroke-linecap="round" stroke-linejoin="round" d="M12 9h1.5L12 11h1.5" stroke-width="1"></path><path id="Subtract" stroke="#000000" stroke-linecap="round" stroke-linejoin="round" d="M9.36065 0.941944c0.47257 0.184286 0.26921 0.879926 -0.22281 1.003206C6.89318 2.50759 5.14286 4.55713 5.14286 7s1.75032 4.4924 3.99498 5.0548c0.49202 0.1233 0.69538 0.819 0.22281 1.0033C8.6289 13.3434 7.83274 13.5 7 13.5 3.41015 13.5 0.5 10.5899 0.5 7 0.5 3.41015 3.41015 0.5 7 0.5c0.83274 0 1.6289 0.156595 2.36065 0.441944Z" stroke-width="1"></path></g></svg>