<svg xmlns="http://www.w3.org/2000/svg" fill="none" viewBox="0 0 14 14"><g id="sofa--decoration-furniture-interior-design-couch-sofa-decorate-shopping"><path id="Vector" stroke="#000000" stroke-linecap="round" stroke-linejoin="round" d="M1.5 7.5h1c0.26522 0 0.51957 0.10536 0.70711 0.29289 0.18753 0.18754 0.29289 0.44189 0.29289 0.70711v5h-3v-5c0 -0.26522 0.105357 -0.51957 0.292893 -0.70711C0.98043 7.60536 1.23478 7.5 1.5 7.5v0Z" stroke-width="1"></path><path id="Vector_2" stroke="#000000" stroke-linecap="round" stroke-linejoin="round" d="M11.5 7.5h1c0.2652 0 0.5196 0.10536 0.7071 0.29289 0.1875 0.18754 0.2929 0.44189 0.2929 0.70711v5h-3v-5c0 -0.26522 0.1054 -0.51957 0.2929 -0.70711 0.1875 -0.18753 0.4419 -0.29289 0.7071 -0.29289v0Z" stroke-width="1"></path><path id="Vector_3" stroke="#000000" stroke-linecap="round" stroke-linejoin="round" d="M3.5 13.5h7" stroke-width="1"></path><path id="Vector_4" stroke="#000000" stroke-linecap="round" stroke-linejoin="round" d="M2.5 7.5v-2c0 -0.79565 0.31607 -1.55871 0.87868 -2.12132C3.94129 2.81607 4.70435 2.5 5.5 2.5h3c0.79565 0 1.5587 0.31607 2.1213 0.87868 0.5626 0.56261 0.8787 1.32567 0.8787 2.12132v2" stroke-width="1"></path><path id="Vector_5" stroke="#000000" stroke-linecap="round" stroke-linejoin="round" d="M3.5 9.5h7" stroke-width="1"></path></g></svg>