<svg xmlns="http://www.w3.org/2000/svg" fill="none" viewBox="0 0 14 14"><g id="soft-drink-can--soft-drink-can-beverage-soda-pop"><path id="Rectangle 1928" stroke="#000000" stroke-linecap="round" stroke-linejoin="round" d="M4.5 3.5h5l2 2v6c0 1.1046 -0.8954 2 -2 2h-5c-1.10457 0 -2 -0.8954 -2 -2v-6l2 -2Z" stroke-width="1"></path><path id="Vector 2837" stroke="#000000" stroke-linecap="round" stroke-linejoin="round" d="M3 3.5h8" stroke-width="1"></path><path id="Vector 2838" stroke="#000000" stroke-linecap="round" stroke-linejoin="round" d="m6 3.5 -2 -2" stroke-width="1"></path><g id="Group 4624"><path id="Vector" stroke="#000000" stroke-linecap="round" stroke-linejoin="round" d="M9.25 2C9.11193 2 9 1.88807 9 1.75s0.11193 -0.25 0.25 -0.25" stroke-width="1"></path><path id="Vector_2" stroke="#000000" stroke-linecap="round" stroke-linejoin="round" d="M9.25 2c0.13807 0 0.25 -0.11193 0.25 -0.25s-0.11193 -0.25 -0.25 -0.25" stroke-width="1"></path></g><g id="Group 4625"><path id="Vector_3" stroke="#000000" stroke-linecap="round" stroke-linejoin="round" d="M11.75 1c-0.1381 0 -0.25 -0.111929 -0.25 -0.25s0.1119 -0.25 0.25 -0.25" stroke-width="1"></path><path id="Vector_4" stroke="#000000" stroke-linecap="round" stroke-linejoin="round" d="M11.75 1c0.1381 0 0.25 -0.111929 0.25 -0.25S11.8881 0.5 11.75 0.5" stroke-width="1"></path></g></g></svg>