<svg xmlns="http://www.w3.org/2000/svg" fill="none" viewBox="0 0 14 14"><g id="song-recommendation--song-recommendation-entertainment"><path id="vector" stroke="#000000" stroke-linecap="round" stroke-linejoin="round" d="M4.63844 13.428c0.82696 0 1.49733 -0.6704 1.49733 -1.4974 0 -0.8269 -0.67037 -1.4973 -1.49733 -1.4973 -0.82695 0 -1.49733 0.6704 -1.49733 1.4973 0 0.827 0.67038 1.4974 1.49733 1.4974Z" stroke-width="1"></path><path id="vector_2" stroke="#000000" stroke-linecap="round" stroke-linejoin="round" d="M11.3765 11.5563c0.8269 0 1.4973 -0.6704 1.4973 -1.4973 0 -0.82698 -0.6704 -1.49735 -1.4973 -1.49735 -0.827 0 -1.49735 0.67037 -1.49735 1.49735 0 0.8269 0.67035 1.4973 1.49735 1.4973Z" stroke-width="1"></path><path id="vector_3" stroke="#000000" stroke-linecap="round" stroke-linejoin="round" d="M12.8738 10.059V4.18943c-0.0003 -0.05727 -0.0138 -0.11372 -0.0394 -0.16497 -0.0255 -0.05126 -0.0625 -0.09597 -0.1081 -0.13068 -0.0455 -0.03472 -0.0985 -0.05851 -0.1547 -0.06956 -0.0562 -0.01104 -0.1142 -0.00904 -0.1695 0.00586l-2.99463 0.83101" stroke-width="1"></path><path id="vector_4" stroke="#000000" stroke-linecap="round" stroke-linejoin="round" d="M12.8737 5.94135 7.42004 7.45626" stroke-width="1"></path><path id="vector 2001" stroke="#000000" stroke-linecap="round" stroke-linejoin="round" d="M4.76233 2.59702c0.44483 -0.60101 0.71853 -1.829167 0.71853 -1.829167s0.2737 1.228157 0.71853 1.829157c0.44841 0.60585 1.87781 1.1363 1.87781 1.1363s-1.4294 0.53046 -1.87781 1.13631c-0.44484 0.60101 -0.71853 1.82917 -0.71853 1.82917s-0.2737 -1.22816 -0.71853 -1.82916c-0.44841 -0.60585 -1.87781 -1.13631 -1.87781 -1.13631s1.4294 -0.53045 1.87781 -1.1363Z" stroke-width="1"></path><path id="vector_5" stroke="#000000" stroke-linecap="round" stroke-linejoin="round" d="M6.13574 11.9306V8.89105" stroke-width="1"></path><path id="vector_6" stroke="#000000" stroke-linecap="round" stroke-linejoin="round" d="M2.00708 6.62292v2.26813" stroke-width="1"></path><path id="vector_7" stroke="#000000" stroke-linecap="round" stroke-linejoin="round" d="M0.873047 7.75699H3.14117" stroke-width="1"></path></g></svg>