<svg xmlns="http://www.w3.org/2000/svg" fill="none" viewBox="0 0 14 14"><g id="spa--spa-flower-lotus-lily-hotel"><path id="Vector 4913" stroke="#000000" stroke-linecap="round" stroke-linejoin="round" d="m7.00001 1.5 -0.69955 0.46636c-1.12983 0.75323 -1.78285 2.01305 -1.78141 3.33217C5.97486 5.89661 7 7.32859 7 9c0 -1.67141 1.02514 -3.10339 2.48097 -3.70148 0.00143 -1.31911 -0.65158 -2.57893 -1.78142 -3.33216L7.00001 1.5Z" stroke-width="1"></path><path id="Vector 4911" stroke="#000000" stroke-linecap="round" stroke-linejoin="round" d="M1 5v1c0 2.20914 1.79086 4 4 4h2V9c0 -2.20914 -1.79086 -4 -4 -4H1Z" stroke-width="1"></path><path id="Vector 4912" stroke="#000000" stroke-linecap="round" stroke-linejoin="round" d="M7 9v1h2c2.2091 0 4 -1.79086 4 -4V5h-2C8.79086 5 7 6.79086 7 9Z" stroke-width="1"></path><path id="Ellipse 1968" stroke="#000000" stroke-linecap="round" stroke-linejoin="round" d="M0.704778 10C0.571099 10.1598 0.5 10.3274 0.5 10.5c0 1.1046 2.91015 2 6.5 2 3.5899 0 6.5 -0.8954 6.5 -2 0 -0.1726 -0.0711 -0.3402 -0.2048 -0.5" stroke-width="1"></path></g></svg>