<svg xmlns="http://www.w3.org/2000/svg" fill="none" viewBox="0 0 14 14"><g id="star-medal-1--ribbon-reward-like-social-rating-media"><path id="Vector 2366" stroke="#000000" stroke-linecap="round" stroke-linejoin="round" d="M3.58165 8.12241 1.23734 4.60593c-0.42081 -0.63121 -0.304103 -1.47723 0.27188 -1.97094L4.00005 0.5l1.75458 5.64238" stroke-width="1"></path><path id="Vector 2370" stroke="#000000" stroke-linecap="round" stroke-linejoin="round" d="m10.4137 8.12241 2.3443 -3.51648c0.4208 -0.63121 0.3041 -1.47723 -0.2719 -1.97094L9.9953 0.5 8.24072 6.14238" stroke-width="1"></path><path id="Ellipse 20" stroke="#000000" stroke-linecap="round" stroke-linejoin="round" d="M10.7819 9.70615c0 2.08865 -1.69316 3.78185 -3.7818 3.78185 -2.08865 0 -3.78184 -1.6932 -3.78184 -3.78185S4.91145 5.92432 7.0001 5.92432c2.08864 0 3.7818 1.69318 3.7818 3.78183Z" stroke-width="1"></path><path id="Vector" stroke="#000000" stroke-linecap="round" stroke-linejoin="round" d="m7.14336 7.91986 0.48212 0.96985c0.01078 0.02452 0.02787 0.04575 0.04954 0.06151 0.02167 0.01576 0.04713 0.02548 0.07379 0.02818l1.07075 0.16258c0.03062 0.00398 0.05946 0.0166 0.08317 0.03637 0.0237 0.01978 0.04129 0.04589 0.05069 0.07529 0.00941 0.02941 0.01026 0.06088 0.00244 0.09074 -0.00783 0.02986 -0.02399 0.05688 -0.0466 0.0779l-0.79045 0.75122c-0.01179 0.0225 -0.01795 0.0475 -0.01795 0.0729 0 0.0254 0.00616 0.0504 0.01795 0.0728l0.15136 1.0652c0.00646 0.0308 0.00385 0.0628 -0.00752 0.0921 -0.01137 0.0293 -0.031 0.0548 -0.05652 0.0731 -0.02551 0.0184 -0.05582 0.029 -0.08724 0.0306 -0.03142 0.0015 -0.06261 -0.0062 -0.08978 -0.022l-0.95303 -0.5046c-0.02466 -0.0111 -0.05141 -0.0169 -0.07848 -0.0169 -0.02707 0 -0.05382 0.0058 -0.07848 0.0169l-0.95303 0.5046c-0.02717 0.0158 -0.05836 0.0235 -0.08978 0.022 -0.03142 -0.0016 -0.06173 -0.0122 -0.08724 -0.0306 -0.02552 -0.0183 -0.04515 -0.0438 -0.05652 -0.0731 -0.01137 -0.0293 -0.01398 -0.0613 -0.00752 -0.0921l0.17939 -1.0652c0.00772 -0.0247 0.00919 -0.0509 0.0043 -0.0764 -0.00489 -0.0254 -0.01599 -0.0492 -0.03233 -0.0693l-0.79045 -0.75683c-0.02097 -0.02124 -0.03568 -0.04784 -0.04253 -0.07688 -0.00686 -0.02905 -0.00558 -0.05942 0.00368 -0.08779 0.00927 -0.02837 0.02616 -0.05365 0.04883 -0.07305 0.02268 -0.01941 0.05026 -0.0322 0.07972 -0.03697l1.07075 -0.15697c0.02666 -0.0027 0.05212 -0.01242 0.07379 -0.02818 0.02167 -0.01576 0.03876 -0.03699 0.04954 -0.06152l0.48212 -0.96984c0.0129 -0.02746 0.03323 -0.05076 0.05868 -0.06726 0.02545 -0.01651 0.05501 -0.02557 0.08534 -0.02615 0.03033 -0.00058 0.06021 0.00733 0.08628 0.02285 0.02607 0.01551 0.04727 0.03801 0.06122 0.06495Z" stroke-width="1"></path><path id="Vector 2365" stroke="#000000" stroke-linecap="round" stroke-linejoin="round" d="M4.93481 3.5h4.1355" stroke-width="1"></path><path id="Vector 2363" stroke="#000000" stroke-linecap="round" stroke-linejoin="round" d="M4 0.5h6" stroke-width="1"></path></g></svg>