<svg xmlns="http://www.w3.org/2000/svg" fill="none" viewBox="0 0 14 14"><g id="stroller"><path id="Vector 5049" stroke="#000000" stroke-linecap="round" stroke-linejoin="round" d="M13 5H3v2c0 1.10457 0.89543 2 2 2h6c1.1046 0 2 -0.89543 2 -2V5Z" stroke-width="1"></path><path id="Vector 5051" stroke="#000000" stroke-linecap="round" stroke-linejoin="round" d="M13 4v1H9V1h1c1.6569 0 3 1.34315 3 3Z" stroke-width="1"></path><path id="Vector 5050" stroke="#000000" stroke-linecap="round" stroke-linejoin="round" d="M3 5V3c0 -1.10457 -0.89543 -2 -2 -2v0" stroke-width="1"></path><path id="Ellipse 3" stroke="#000000" stroke-linecap="round" stroke-linejoin="round" d="M10 12a1 1 0 1 0 2 0 1 1 0 1 0 -2 0" stroke-width="1"></path><path id="Ellipse 4" stroke="#000000" stroke-linecap="round" stroke-linejoin="round" d="M4 12a1 1 0 1 0 2 0 1 1 0 1 0 -2 0" stroke-width="1"></path></g></svg>