<svg xmlns="http://www.w3.org/2000/svg" fill="none" viewBox="0 0 14 14"><g id="summit--shop-target-flag-summit-mountain-goal"><path id="Vector" stroke="#000000" stroke-linecap="round" stroke-linejoin="round" d="m3.5 13.4999 4.15 -6.63996c0.08968 -0.14471 0.21483 -0.26413 0.36358 -0.34694 0.14874 -0.08282 0.31617 -0.12628 0.48642 -0.12628s0.33768 0.04346 0.48642 0.12628c0.14875 0.08281 0.2739 0.20223 0.36358 0.34694l4.15 6.63996" stroke-width="1"></path><path id="Vector_2" stroke="#000000" stroke-linecap="round" stroke-linejoin="round" d="m0.5 10.5001 1.29 -1.29c0.09296 -0.09372 0.20356 -0.16812 0.32542 -0.21889 0.12186 -0.05076 0.25257 -0.0769 0.38458 -0.0769 0.13201 0 0.26272 0.02614 0.38458 0.0769 0.12186 0.05077 0.23246 0.12517 0.32542 0.21889l1.79 1.79" stroke-width="1"></path><path id="Vector_3" stroke="#000000" stroke-linecap="round" stroke-linejoin="round" d="M8.5 6.39V0.5" stroke-width="1"></path><path id="Vector_4" stroke="#000000" stroke-linecap="round" stroke-linejoin="round" d="M12.5 0.5h-4v3h4v-3Z" stroke-width="1"></path><path id="Vector_5" stroke="#000000" stroke-linecap="round" stroke-linejoin="round" d="M6.15 9.26001c0.68891 0.48187 1.50929 0.74029 2.35 0.74029 0.84071 0 1.6611 -0.25842 2.35 -0.74029" stroke-width="1"></path></g></svg>