<svg xmlns="http://www.w3.org/2000/svg" fill="none" viewBox="0 0 14 14"><g id="surveillance-camera"><path id="Ellipse 1992" stroke="#000000" stroke-linecap="round" stroke-linejoin="round" d="M4 5a0.5 0.5 0 1 0 1 0 0.5 0.5 0 1 0 -1 0" stroke-width="1"></path><path id="Vector 4988" stroke="#000000" stroke-linecap="round" stroke-linejoin="round" d="M5 1.5h7.5c0.5523 0 1 0.44772 1 1v0.7457c0 0.44648 -0.296 0.83887 -0.7253 0.96152L10 5v2.5c0 0.55228 -0.44771 1 -1 1H5C3.067 8.5 1.5 6.933 1.5 5S3.067 1.5 5 1.5Z" stroke-width="1"></path><path id="Vector 4990" stroke="#000000" stroke-linecap="round" stroke-linejoin="round" d="M0.5 9.5v3" stroke-width="1"></path><path id="Vector 4991" stroke="#000000" stroke-linecap="round" stroke-linejoin="round" d="M0.5 11H5l0.5 -2.5" stroke-width="1"></path><path id="Vector 4989" stroke="#000000" stroke-linecap="round" stroke-linejoin="round" d="M10 7.50004h1.5c0.5523 0 1 -0.44771 1 -1V4.33337" stroke-width="1"></path></g></svg>