<svg xmlns="http://www.w3.org/2000/svg" fill="none" viewBox="0 0 14 14"><g id="sushi--japanese-raw-fish-rice-cook-sushi"><path id="Vector 3085" stroke="#000000" stroke-linecap="round" stroke-linejoin="round" d="M10.5 12h-7c-1.10457 0 -2 -0.8954 -2 -2V7.71944C3.29636 7.25894 5.14309 7.01707 7 7c1.85691 0.01707 3.7036 0.25894 5.5 0.71944V10c0 1.1046 -0.8954 2 -2 2Z" stroke-width="1"></path><path id="Vector" stroke="#000000" stroke-linecap="round" stroke-linejoin="round" d="m4 5 2.49147 -2.98718" stroke-width="1"></path><path id="Vector_2" stroke="#000000" stroke-linecap="round" stroke-linejoin="round" d="m8.32649 5.00005 1.77361 -2.48699" stroke-width="1"></path><path id="Vector_3" stroke="#000000" stroke-linecap="round" stroke-linejoin="round" d="M13.5 8c-2.1076 -0.64297 -4.29662 -0.97975 -6.5 -1 -2.20338 0.02025 -4.39242 0.35703 -6.5 1V6.25C0.5 3.9 3.41 2 7 2s6.5 1.9 6.5 4.25V8Z" stroke-width="1"></path></g></svg>