<svg xmlns="http://www.w3.org/2000/svg" fill="none" viewBox="0 0 14 14"><g id="swipe-left"><path id="Ellipse 1942" stroke="#000000" stroke-linecap="round" stroke-linejoin="round" d="M4.14494 5C4.05064 4.68315 4 4.34749 4 4 4 2.067 5.567 0.5 7.5 0.5S11 2.067 11 4c0 0.34749 -0.0506 0.68315 -0.1449 1" stroke-width="1"></path><path id="Vector 4434" stroke="#000000" stroke-linecap="round" stroke-linejoin="round" d="M2 0.5 0.5 2 2 3.5" stroke-width="1"></path><path id="Vector 4435" stroke="#000000" stroke-linecap="round" stroke-linejoin="round" d="M0.5 2h4.12734" stroke-width="1"></path><path id="Vector 107" stroke="#000000" stroke-linecap="round" stroke-linejoin="round" d="m13.0455 13.5 0.1941 -2.1358c0.1389 -1.52773 -1.0813 -2.83679 -2.615 -2.80547L8.75 8.59702l0 -3.84702c0 -0.69036 -0.55964 -1.25 -1.25 -1.25v0c-0.69036 0 -1.25 0.55964 -1.25 1.25l0 6.25 -1.18793 -1.18793c-0.44849 -0.44849 -1.17565 -0.44849 -1.62414 0v0c-0.39697 0.39693 -0.44877 1.02273 -0.12246 1.47963L4.89286 13.5" stroke-width="1"></path></g></svg>