<svg xmlns="http://www.w3.org/2000/svg" fill="none" viewBox="0 0 14 14"><g id="symmetry-mirror"><path id="Vector 4061" stroke="#000000" stroke-linecap="round" stroke-linejoin="round" d="M7 0.5v1" stroke-width="1"></path><path id="Vector 4062" stroke="#000000" stroke-linecap="round" stroke-linejoin="round" d="M7 3.5v1" stroke-width="1"></path><path id="Vector 4063" stroke="#000000" stroke-linecap="round" stroke-linejoin="round" d="M7 6.5v1" stroke-width="1"></path><path id="Vector 4064" stroke="#000000" stroke-linecap="round" stroke-linejoin="round" d="M7 9.5v1" stroke-width="1"></path><path id="Vector 4065" stroke="#000000" stroke-linecap="round" stroke-linejoin="round" d="M7 12.5v1" stroke-width="1"></path><path id="Union" stroke="#000000" stroke-linecap="round" stroke-linejoin="round" d="M4 1.5C2.067 1.5 0.5 3.067 0.5 5c0 1.25441 0.65991 2.35468 1.6515 2.97261C1.74511 8.45194 1.5 9.07235 1.5 9.75c0 1.5188 1.23122 2.75 2.75 2.75 0.44747 0 0.75 -0.4124 0.75 -0.8599V2.39067c0 -0.44242 -0.29084 -0.84716 -0.732 -0.88056C4.17955 1.50341 4.09017 1.5 4 1.5Z" stroke-width="1"></path><path id="Union_2" stroke="#000000" stroke-linecap="round" stroke-linejoin="round" d="M10 1.5c1.933 0 3.5 1.567 3.5 3.5 0 1.25441 -0.6599 2.35468 -1.6515 2.97261 0.4064 0.47933 0.6515 1.09974 0.6515 1.77739 0 1.5188 -1.2312 2.75 -2.75 2.75 -0.44747 0 -0.75 -0.4124 -0.75 -0.8599V2.39067c0 -0.44242 0.29084 -0.84716 0.732 -0.88056C9.82045 1.50341 9.90983 1.5 10 1.5Z" stroke-width="1"></path></g></svg>