<svg xmlns="http://www.w3.org/2000/svg" fill="none" viewBox="0 0 14 14"><g id="sync-playlist--sync-playlist-arrow-refresh-song-entertainment"><path id="Ellipse 972" stroke="#000000" stroke-linecap="round" stroke-linejoin="round" d="M5.44999 2.5C5.21836 1.35888 4.20948 0.5 3 0.5 1.61929 0.5 0.5 1.61929 0.5 3S1.61929 5.5 3 5.5c0.61687 0 1.18156 -0.22342 1.61756 -0.59376" stroke-width="1"></path><path id="Ellipse 973" stroke="#000000" stroke-linecap="round" stroke-linejoin="round" d="m6 1 -0.55001 1.5L4 2.25" stroke-width="1"></path><path id="Vector" stroke="#000000" stroke-linecap="round" stroke-linejoin="round" d="M7.5 13.5c1.10457 0 2 -0.8954 2 -2s-0.89543 -2 -2 -2 -2 0.8954 -2 2 0.89543 2 2 2Z" stroke-width="1"></path><path id="Vector 3107" stroke="#000000" stroke-linecap="round" stroke-linejoin="round" d="M9.5 11.5v-9c2.2091 0 4 1.79086 4 4v0" stroke-width="1"></path></g></svg>