<svg xmlns="http://www.w3.org/2000/svg" fill="none" viewBox="0 0 14 14"><g id="synchronize-disable--arrows-loading-load-sync-synchronize-arrow-reload"><path id="Vector" stroke="#000000" stroke-linecap="round" stroke-linejoin="round" d="m5 11 0.5 2 -2 0.5" stroke-width="1"></path><path id="Vector_2" stroke="#000000" stroke-linecap="round" stroke-linejoin="round" d="M5.5 12.9999c-1.25861 -0.4442 -2.35758 -1.251 -3.15839 -2.3187C1.5408 9.61341 1.07398 8.3325 1 6.99986c-0.000171 -0.95526 0.22767 -1.89262 0.65953 -2.73592M4.95 1.35986c-0.82718 0.30072 -1.57391 0.77814 -2.19063 1.39427" stroke-width="1"></path><path id="Vector_3" stroke="#000000" stroke-linecap="round" stroke-linejoin="round" d="m9 3 -0.5 -2 2 -0.5" stroke-width="1"></path><path id="Vector_4" stroke="#000000" stroke-linecap="round" stroke-linejoin="round" d="M8.5 1c2.3 0.84 4.5 3.42 4.5 6 -0.0035 1.23789 -0.3898 2.4444 -1.1059 3.4541 -0.1888 0.2663 -0.3982 0.5155 -0.6255 0.7456M9 12.64c0.21994 -0.0778 0.43433 -0.168 0.64224 -0.27" stroke-width="1"></path><path id="Vector 1002" stroke="#000000" stroke-linecap="round" stroke-linejoin="round" d="m0.5 0.5 13 13" stroke-width="1"></path></g></svg>