<svg xmlns="http://www.w3.org/2000/svg" fill="none" viewBox="0 0 14 14"><g id="sync-location--sync-location-pin-navigation-map-gps-travel"><path id="Ellipse 1527" stroke="#000000" stroke-linecap="round" stroke-linejoin="round" d="M11 12H7C3.41015 12 0.5 10.8807 0.5 9.50003c0 -0.74042 0.83689 -1.40567 2.1667 -1.86343" stroke-width="1"></path><path id="Ellipse 1529" stroke="#000000" stroke-linecap="round" stroke-linejoin="round" d="M11.3333 7.63672c1.3298 0.45777 2.1666 1.12301 2.1666 1.86343 0 0.3555 -0.1929 0.69365 -0.5406 0.99985" stroke-width="1"></path><path id="Vector 2783" stroke="#000000" stroke-linecap="round" stroke-linejoin="round" d="M9.5 10.5 11 12l-1.5 1.5" stroke-width="1"></path><path id="Ellipse 1523" stroke="#000000" stroke-linecap="round" stroke-linejoin="round" d="M10.5 4C10.5 6.35294 7 9.5 7 9.5S3.5 6.35294 3.5 4C3.5 2.05076 5.067 0.5 7 0.5s3.5 1.55076 3.5 3.5Z" stroke-width="1"></path><path id="Ellipse 1528" stroke="#000000" stroke-linecap="round" stroke-linejoin="round" d="M6.5 4a0.5 0.5 0 1 0 1 0 0.5 0.5 0 1 0 -1 0" stroke-width="1"></path></g></svg>