<svg xmlns="http://www.w3.org/2000/svg" fill="none" viewBox="0 0 14 14"><g id="taco-fastfood"><path id="Vector 3107" stroke="#000000" stroke-linecap="round" stroke-linejoin="round" d="M0.5 6.83032v0.25547c0 0.26521 0.105357 0.51957 0.292893 0.7071l0.737367 0.73737C2.47171 6.44849 4.5667 5 7 5s4.5283 1.44849 5.4697 3.53026l0.7374 -0.73737c0.1875 -0.18753 0.2929 -0.44189 0.2929 -0.7071v-0.25547c0 -0.35885 -0.1923 -0.6902 -0.5039 -0.86824l-0.7422 -0.42416c-0.3116 -0.17804 -0.5039 -0.50939 -0.5039 -0.86824v-0.72147c0 -0.6239 -0.565 -1.09547 -1.1789 -0.98387l-1.0556 0.19193c-0.32285 0.0587 -0.65396 -0.04473 -0.88599 -0.27676L7.42678 1.67678C7.31359 1.56359 7.16007 1.5 7 1.5s-0.31359 0.06359 -0.42678 0.17678L5.37049 2.87951c-0.23203 0.23203 -0.56314 0.33546 -0.88599 0.27676l-1.05561 -0.19193c-0.61385 -0.1116 -1.17889 0.35997 -1.17889 0.98387v0.72147c0 0.35885 -0.19229 0.6902 -0.50386 0.86824l-0.74228 0.42416C0.692286 6.14012 0.5 6.47147 0.5 6.83032Z" stroke-width="1"></path><path id="Vector 3106" stroke="#000000" stroke-linecap="round" stroke-linejoin="round" d="M1 11v0.25c0 0.6904 0.55964 1.25 1.25 1.25h9.5c0.6904 0 1.25 -0.5596 1.25 -1.25V11c0 -3.31371 -2.6863 -6 -6 -6 -3.31371 0 -6 2.68629 -6 6Z" stroke-width="1"></path><g id="Group 4747"><path id="Ellipse 1869" stroke="#000000" stroke-linecap="round" stroke-linejoin="round" d="M3.75 10.5c-0.13807 0 -0.25 -0.1119 -0.25 -0.25s0.11193 -0.25 0.25 -0.25" stroke-width="1"></path><path id="Ellipse 1870" stroke="#000000" stroke-linecap="round" stroke-linejoin="round" d="M3.75 10.5c0.13807 0 0.25 -0.1119 0.25 -0.25S3.88807 10 3.75 10" stroke-width="1"></path></g><g id="Group 4749"><path id="Ellipse 1869_2" stroke="#000000" stroke-linecap="round" stroke-linejoin="round" d="M5.25 8.5c-0.13807 0 -0.25 -0.11193 -0.25 -0.25S5.11193 8 5.25 8" stroke-width="1"></path><path id="Ellipse 1870_2" stroke="#000000" stroke-linecap="round" stroke-linejoin="round" d="M5.25 8.5c0.13807 0 0.25 -0.11193 0.25 -0.25S5.38807 8 5.25 8" stroke-width="1"></path></g><g id="Group 4748"><path id="Ellipse 1869_3" stroke="#000000" stroke-linecap="round" stroke-linejoin="round" d="M6.75 10.5c-0.13807 0 -0.25 -0.1119 -0.25 -0.25s0.11193 -0.25 0.25 -0.25" stroke-width="1"></path><path id="Ellipse 1870_3" stroke="#000000" stroke-linecap="round" stroke-linejoin="round" d="M6.75 10.5c0.13807 0 0.25 -0.1119 0.25 -0.25S6.88807 10 6.75 10" stroke-width="1"></path></g></g></svg>