<svg xmlns="http://www.w3.org/2000/svg" fill="none" viewBox="0 0 14 14"><g id="tag--codes-tags-tag-product-label"><path id="Vector" stroke="#000000" stroke-linecap="round" stroke-linejoin="round" d="M0.749994 9.36001 4.63999 13.25c0.14063 0.1405 0.33125 0.2193 0.53 0.2193 0.19876 0 0.38938 -0.0788 0.53 -0.2193L12.21 6.74001c0.0388 -0.03709 0.0688 -0.08237 0.0878 -0.13255 0.0191 -0.05018 0.0266 -0.10397 0.0222 -0.15745l-0.59 -3.84c-0.0069 -0.08789 -0.0449 -0.17043 -0.1072 -0.23276 -0.0624 -0.06234 -0.1449 -0.10037 -0.2328 -0.10724l-3.84001 -0.59c-0.05348 -0.00444 -0.10727 0.00313 -0.15745 0.02216 -0.05018 0.01904 -0.09546 0.04904 -0.13255 0.08784l-6.509996 6.51c-0.14045 0.14062 -0.21934 0.33124 -0.21934 0.53 0 0.19875 0.07889 0.38937 0.21934 0.53v0Z" stroke-width="1"></path><path id="Vector_2" stroke="#000000" stroke-linecap="round" stroke-linejoin="round" d="M11.75 2.25 13.47 0.530029" stroke-width="1"></path><g id="Group 4470"><path id="Ellipse 1" stroke="#000000" stroke-linecap="round" stroke-linejoin="round" d="M9.24336 4.92987c-0.13807 0 -0.25 -0.11193 -0.25 -0.25s0.11193 -0.25 0.25 -0.25" stroke-width="1"></path><path id="Ellipse 2" stroke="#000000" stroke-linecap="round" stroke-linejoin="round" d="M9.24341 4.92987c0.13807 0 0.25 -0.11193 0.25 -0.25s-0.11193 -0.25 -0.25 -0.25" stroke-width="1"></path></g></g></svg>