<svg xmlns="http://www.w3.org/2000/svg" fill="none" viewBox="0 0 14 14"><g id="target-dollar--target-payment-cash-money-finance"><path id="Vector" stroke="#000000" stroke-linecap="round" stroke-linejoin="round" d="M7 12c2.76142 0 5 -2.23858 5 -5S9.76142 2 7 2 2 4.23858 2 7s2.23858 5 5 5Z" stroke-width="1"></path><path id="Vector_2" stroke="#000000" stroke-linecap="round" stroke-linejoin="round" d="M7 0.5v3" stroke-width="1"></path><path id="Vector_3" stroke="#000000" stroke-linecap="round" stroke-linejoin="round" d="M0.5 7h3" stroke-width="1"></path><path id="Vector_4" stroke="#000000" stroke-linecap="round" stroke-linejoin="round" d="M7 13.5v-3" stroke-width="1"></path><path id="Vector_5" stroke="#000000" stroke-linecap="round" stroke-linejoin="round" d="M13.5 7h-3" stroke-width="1"></path><path id="Vector 3" stroke="#000000" stroke-linecap="round" stroke-linejoin="round" d="M8.11687 5.83333c-0.03841 -0.10868 -0.09769 -0.2075 -0.17301 -0.29166 -0.16022 -0.17901 -0.39305 -0.29167 -0.6522 -0.29167h-0.67728c-0.43136 0 -0.78105 0.34969 -0.78105 0.78105 0 0.36705 0.25557 0.68458 0.61414 0.76301l1.03118 0.22557c0.40169 0.08788 0.68801 0.44385 0.68801 0.85505 0 0.48325 -0.39175 0.87532 -0.875 0.87532h-0.58333c-0.38098 0 -0.70509 -0.24349 -0.82521 -0.58333" stroke-width="1"></path></g></svg>