<svg xmlns="http://www.w3.org/2000/svg" fill="none" viewBox="0 0 14 14"><g id="target-2--shop-bullseye-arrow-target"><path id="Ellipse 207" stroke="#000000" stroke-linecap="round" stroke-linejoin="round" d="M7.19198 0.625073c3.32762 0 6.02522 2.697587 6.02522 6.025227 0 3.32765 -2.6976 6.0252 -6.02522 6.0252 -3.32764 0 -6.02523 -2.69755 -6.02523 -6.02519 0 -3.32765 2.69759 -6.025237 6.02523 -6.025237Z" stroke-width="1"></path><path id="Subtract" stroke="#000000" stroke-linecap="round" stroke-linejoin="round" d="m3.36366 11.3125 -1.02528 2.068" stroke-width="1"></path><path id="Subtract_2" stroke="#000000" stroke-linecap="round" stroke-linejoin="round" d="m11.0204 11.3125 1.0253 2.068" stroke-width="1"></path><path id="Ellipse 208" stroke="#000000" stroke-linecap="round" stroke-linejoin="round" d="M7.19181 2.73385c2.16297 0 3.91639 1.75343 3.91639 3.9164 0 2.16297 -1.75342 3.91645 -3.91639 3.91645 -2.16297 0 -3.9164 -1.75348 -3.9164 -3.91645 0 -2.16297 1.75343 -3.9164 3.9164 -3.9164Z" stroke-width="1"></path><path id="Ellipse 19" stroke="#000000" stroke-linecap="round" stroke-linejoin="round" d="M7.1921 5.14388c0.83191 0 1.50631 0.6744 1.50631 1.50631s-0.6744 1.5063 -1.50631 1.5063 -1.50631 -0.67439 -1.50631 -1.5063c0 -0.83191 0.6744 -1.50631 1.50631 -1.50631Z" stroke-width="1"></path></g></svg>