<svg xmlns="http://www.w3.org/2000/svg" fill="none" viewBox="0 0 14 14"><g id="taxi-station"><path id="Vector 4544" stroke="#000000" stroke-linecap="round" stroke-linejoin="round" d="M3.5 0.5h-3v5h3v-5Z" stroke-width="1"></path><path id="Vector 4545" stroke="#000000" stroke-linecap="round" stroke-linejoin="round" d="M2 5.5v8" stroke-width="1"></path><path id="Vector 4546" stroke="#000000" stroke-linecap="round" stroke-linejoin="round" d="M6 12.5v1" stroke-width="1"></path><path id="Vector 4548" stroke="#000000" stroke-linecap="round" stroke-linejoin="round" d="M5.5 12.5h7c0.5523 0 1 -0.4477 1 -1 0 -1.1046 -0.8954 -2 -2 -2h-5c-1.10457 0 -2 0.8954 -2 2 0 0.5523 0.44772 1 1 1Z" stroke-width="1"></path><path id="Vector 4550" stroke="#000000" stroke-linecap="round" stroke-linejoin="round" d="M9 6.5V5" stroke-width="1"></path><path id="Vector 4549" stroke="#000000" stroke-linecap="round" stroke-linejoin="round" d="M6.24591 7.68571 5.8327 9.61402C6.0414 9.54018 6.266 9.5 6.49999 9.5H11.5c0.234 0 0.4586 0.04018 0.6673 0.11402l-0.4132 -1.92831C11.6059 6.9941 10.9947 6.5 10.2874 6.5H7.71262c-0.70731 0 -1.31851 0.4941 -1.46671 1.18571Z" stroke-width="1"></path><path id="Vector 4547" stroke="#000000" stroke-linecap="round" stroke-linejoin="round" d="M12 12.5v1" stroke-width="1"></path></g></svg>