<svg xmlns="http://www.w3.org/2000/svg" fill="none" viewBox="0 0 14 14"><g id="team-vesus-team--entertainment-gaming-team-vesus-team"><path id="Vector 778" stroke="#000000" stroke-linecap="round" stroke-linejoin="round" d="m5.09797 11.8879 0.0863 0.259c0.1498 0.4495 0.57037 0.7527 1.04409 0.7527 0.65595 0 1.16628 -0.5703 1.09384 -1.2224l-0.16999 -1.5303c-0.11382 -1.02473 -0.97974 -1.79998 -2.0105 -1.79998H2.68735c-1.03075 0 -1.896674 0.77525 -2.010502 1.79998l-0.169986 1.5303c-0.072438 0.6521 0.437886 1.2224 1.093838 1.2224 0.47372 0 0.89429 -0.3032 1.04409 -0.7527l0.0863 -0.259c0.10067 -0.3021 0.3833 -0.5058 0.70165 -0.5058h0.96358c0.31835 0 0.60098 0.2037 0.70165 0.5058Z" stroke-width="1"></path><path id="Vector" stroke="#000000" stroke-linecap="round" stroke-linejoin="round" d="M9.80336 4.97116c1.06884 0 1.93524 -0.86645 1.93524 -1.93528 0 -1.06884 -0.8664 -1.93529 -1.93524 -1.93529" stroke-width="1"></path><path id="Ellipse 4" stroke="#000000" stroke-linecap="round" stroke-linejoin="round" d="M10.0165 6.51465c1.9239 0 3.4835 1.55962 3.4835 3.48352v1.16113h-1.5482" stroke-width="1"></path><path id="Vector_2" stroke="#000000" stroke-linecap="round" stroke-linejoin="round" d="M6.28041 4.97116c-1.06883 0 -1.93529 -0.86645 -1.93529 -1.93528 0 -1.06884 0.86646 -1.93529 1.93529 -1.93529s1.93529 0.86645 1.93529 1.93529c0 1.06883 -0.86646 1.93528 -1.93529 1.93528Z" stroke-width="1"></path><path id="Ellipse 5" stroke="#000000" stroke-linecap="round" stroke-linejoin="round" d="M9.19727 11.1593h0.7799V9.99817c0 -1.9239 -1.55962 -3.48352 -3.48352 -3.48352 -0.13083 0 -0.25997 0.00721 -0.38706 0.02126" stroke-width="1"></path></g></svg>