<svg xmlns="http://www.w3.org/2000/svg" fill="none" viewBox="0 0 14 14"><g id="temperature--wireless-wifi-internet-server-network-smart-control-thermometer-connection"><path id="Vector" stroke="#000000" stroke-linecap="round" stroke-linejoin="round" d="M9 0.5c1.0609 0 2.0783 0.421427 2.8284 1.17157C12.5786 2.42172 13 3.43913 13 4.5" stroke-width="1"></path><path id="Vector_2" stroke="#000000" stroke-linecap="round" stroke-linejoin="round" d="M9 3c0.39782 0 0.77936 0.15804 1.0607 0.43934 0.2813 0.2813 0.4393 0.66284 0.4393 1.06066" stroke-width="1"></path><path id="Ellipse 1921" stroke="#000000" stroke-linecap="round" stroke-linejoin="round" d="M4 13.5c1.65685 0 3 -1.3431 3 -3 0 -1.11042 -0.6033 -2.07994 -1.5 -2.59865V2C5.5 1.17157 4.82843 0.5 4 0.5S2.5 1.17157 2.5 2v5.90135C1.6033 8.42006 1 9.38958 1 10.5c0 1.6569 1.34315 3 3 3Z" stroke-width="1"></path><path id="Ellipse 1922" stroke="#000000" stroke-linecap="round" stroke-linejoin="round" d="M3.5 10.5a0.5 0.5 0 1 0 1 0 0.5 0.5 0 1 0 -1 0" stroke-width="1"></path></g></svg>