<svg xmlns="http://www.w3.org/2000/svg" fill="none" viewBox="0 0 14 14"><g id="text-flow-columns"><path id="Vector 4226" stroke="#000000" stroke-linecap="round" stroke-linejoin="round" d="M12 1h-1.5c-0.55228 0 -1 0.44772 -1 1v1.5c0 0.55228 0.44772 1 1 1H12c0.5523 0 1 -0.44772 1 -1V2c0 -0.55228 -0.4477 -1 -1 -1Z" stroke-width="1"></path><path id="Vector 4227" stroke="#000000" stroke-linecap="round" stroke-linejoin="round" d="M1 12v-1.5c0 -0.55228 0.44772 -1 1 -1h1.5c0.55228 0 1 0.44772 1 1V12c0 0.5523 -0.44772 1 -1 1H2c-0.55228 0 -1 -0.4477 -1 -1Z" stroke-width="1"></path><path id="Vector 4225" stroke="#000000" stroke-linecap="round" stroke-linejoin="round" d="M1 3.5V2c0 -0.55228 0.44772 -1 1 -1h1.5c0.55228 0 1 0.44772 1 1v1.5c0 0.55228 -0.44772 1 -1 1H2c-0.55228 0 -1 -0.44772 -1 -1Z" stroke-width="1"></path><path id="Vector 4235" stroke="#000000" stroke-linecap="round" stroke-linejoin="round" d="M2.75 4.5v5" stroke-width="1"></path><path id="Vector 4236" stroke="#000000" stroke-linecap="round" stroke-linejoin="round" d="M11.25 4.5V13" stroke-width="1"></path><path id="Vector 4237" stroke="#000000" stroke-linecap="round" stroke-linejoin="round" d="m9.25 11 2 2 2 -2" stroke-width="1"></path><path id="Vector 4238" stroke="#000000" stroke-linecap="round" stroke-linejoin="round" d="m4.20715 9.79294 5.58579 -5.58579" stroke-width="1"></path></g></svg>