<svg xmlns="http://www.w3.org/2000/svg" fill="none" viewBox="0 0 14 14"><g id="text-outline"><path id="Vector 4143" stroke="#000000" stroke-linecap="round" stroke-linejoin="round" d="M3.4957 13.5H1.6326c-0.48745 0 -0.8826 -0.3952 -0.8826 -0.8826 0 -0.0779 0.01032 -0.1555 0.030691 -0.2307L3.79997 1.23858C3.91802 0.802682 4.31359 0.5 4.76519 0.5h4.46962c0.4516 0 0.84719 0.302682 0.96519 0.73858l3.0193 11.14812c0.0204 0.0752 0.0307 0.1528 0.0307 0.2307 0 0.4874 -0.3952 0.8826 -0.8826 0.8826h-1.8631c-0.4465 0 -0.83887 -0.296 -0.96152 -0.7253L8.75 10h-3.5l-0.79278 2.7747c-0.12266 0.4293 -0.51504 0.7253 -0.96152 0.7253Z" stroke-width="1"></path><path id="Vector 4144" stroke="#000000" stroke-linecap="round" stroke-linejoin="round" d="M8.5 7h-3l0.75 -3.5h1.5L8.5 7Z" stroke-width="1"></path></g></svg>