<svg xmlns="http://www.w3.org/2000/svg" fill="none" viewBox="0 0 14 14"><g id="theater-mask--hobby-theater-masks-drama-event-show-entertainment-travel-places"><path id="Vector 4765" stroke="#000000" stroke-linecap="round" stroke-linejoin="round" d="M9 2.5V2S7.5 1 5 1 1 2 1 2v3.035c0 1.32026 0.51879 2.55281 1.39515 3.465" stroke-width="1"></path><path id="Vector 4767" stroke="#000000" stroke-linecap="round" stroke-linejoin="round" d="M12.2145 9.27107 13 6.33948s-1.1901 -1.35415 -3.6049 -2.0012c-2.41481 -0.64705 -4.12252 -0.06935 -4.12252 -0.06935l-0.78552 2.93158c-0.53943 2.01321 0.22652 4.14989 1.92214 5.36179l0.35145 0.2513c0.1967 0.1405 0.43767 0.2051 0.67832 0.1817l0.42997 -0.0418c2.07443 -0.2018 3.80606 -1.6692 4.34556 -3.68243Z" stroke-width="1"></path><path id="Ellipse 1952" stroke="#000000" stroke-linecap="round" stroke-linejoin="round" d="M5.89749 7.28339c0.24438 -0.24397 0.60858 -0.35457 0.96611 -0.25877s0.61764 0.37369 0.7073 0.70715" stroke-width="1"></path><path id="Ellipse 1953" stroke="#000000" stroke-linecap="round" stroke-linejoin="round" d="M9.27823 8.18921c0.24437 -0.24397 0.60858 -0.35457 0.96607 -0.25877 0.3576 0.0958 0.6177 0.37369 0.7073 0.70716" stroke-width="1"></path></g></svg>