<svg xmlns="http://www.w3.org/2000/svg" fill="none" viewBox="0 0 14 14"><g id="threat-usb--bug-usb-file-threat-danger"><path id="Vector" stroke="#000000" stroke-linecap="round" stroke-linejoin="round" d="M1.5 4.5v-4h5v4" stroke-width="1"></path><path id="Vector_2" stroke="#000000" stroke-linecap="round" stroke-linejoin="round" d="M4.5 13.5h-2c-0.53043 0 -1.03914 -0.2107 -1.41421 -0.5858C0.710714 12.5391 0.5 12.0304 0.5 11.5v-7h7V7" stroke-width="1"></path><path id="Vector_3" stroke="#000000" stroke-linecap="round" stroke-linejoin="round" d="M3.5 2.5h1" stroke-width="1"></path><path id="Vector_4" stroke="#000000" stroke-linecap="round" stroke-linejoin="round" d="M13.4253 12.61c0.049 0.0906 0.0747 0.192 0.0747 0.295 0 0.103 -0.0257 0.2044 -0.0747 0.295 -0.0461 0.0903 -0.1163 0.1661 -0.2027 0.2191 -0.0865 0.0529 -0.1859 0.0809 -0.2873 0.0809H7.06529c-0.10139 0 -0.20082 -0.028 -0.28729 -0.0809 -0.08647 -0.053 -0.15662 -0.1288 -0.20271 -0.2191 -0.04901 -0.0906 -0.07468 -0.192 -0.07468 -0.295 0 -0.103 0.02567 -0.2044 0.07468 -0.295l2.95 -5.32c0.04053 -0.09935 0.10973 -0.18437 0.19878 -0.24422 0.08906 -0.05985 0.19392 -0.09182 0.30123 -0.09182 0.1073 0 0.2122 0.03197 0.3012 0.09182 0.0891 0.05985 0.1583 0.14487 0.1988 0.24422l2.9 5.32Z" stroke-width="1"></path><path id="Vector_5" stroke="#000000" stroke-linecap="round" stroke-linejoin="round" d="M10.0052 10.6413v-0.99996" stroke-width="1"></path><path id="Ellipse 81" stroke="#000000" stroke-linecap="round" stroke-linejoin="round" d="M10.0005 12.1251c-0.06913 0 -0.12513 -0.056 -0.12513 -0.1251 0 -0.069 0.056 -0.125 0.12513 -0.125" stroke-width="1"></path><path id="Ellipse 82" stroke="#000000" stroke-linecap="round" stroke-linejoin="round" d="M10.0002 12.125c0.0691 0 0.1251 -0.056 0.1251 -0.1251 0 -0.069 -0.056 -0.125 -0.1251 -0.125" stroke-width="1"></path></g></svg>