<svg xmlns="http://www.w3.org/2000/svg" fill="none" viewBox="0 0 14 14"><g id="ticket-star--hobby-ticket-star-event-entertainment-stub-theater-entertainment-culture"><path id="Subtract" stroke="#000000" stroke-linecap="round" stroke-linejoin="round" d="M0.90625 10.6797c0 0.5523 0.44772 1 1 1H12.0938c0.5522 0 1 -0.4477 1 -1V8.84c-0.8103 -0.21965 -1.4063 -0.96023 -1.4063 -1.84s0.596 -1.62035 1.4063 -1.84V3.32031c0 -0.55228 -0.4478 -1 -1 -1H1.90625c-0.55228 0 -1 0.44772 -1 1v1.83552C1.72446 5.37015 2.32812 6.11458 2.32812 7c0 0.88542 -0.60366 1.62985 -1.42187 1.84417v1.83553Z" stroke-width="1"></path><path id="Vector" stroke="#000000" stroke-linecap="round" stroke-linejoin="round" d="m7.19697 4.37079 0.66306 1.33384c0.01482 0.03373 0.03834 0.06292 0.06814 0.0846 0.0298 0.02167 0.06482 0.03505 0.10148 0.03876l1.47261 0.22359c0.0421 0.00547 0.08177 0.02283 0.11438 0.05002 0.0326 0.0272 0.05678 0.06312 0.06972 0.10355 0.01294 0.04044 0.0141 0.08372 0.00334 0.12479 -0.01075 0.04107 -0.03298 0.07823 -0.06408 0.10714L8.53851 7.47022c-0.01621 0.03092 -0.02468 0.06532 -0.02468 0.10023s0.00847 0.06931 0.02468 0.10023l0.20817 1.4649c0.00888 0.04235 0.00529 0.08636 -0.01034 0.1267 -0.01564 0.04034 -0.04264 0.07528 -0.07773 0.10058 -0.0351 0.0253 -0.07678 0.03987 -0.11999 0.04196 -0.04322 0.00208 -0.08611 -0.00842 -0.12347 -0.03023l-1.3107 -0.6939c-0.03393 -0.01532 -0.07072 -0.02325 -0.10794 -0.02325 -0.03723 0 -0.07402 0.00793 -0.10794 0.02325l-1.31071 0.6939c-0.03736 0.02181 -0.08025 0.03231 -0.12347 0.03023 -0.04321 -0.00209 -0.08489 -0.01666 -0.11999 -0.04196 -0.03509 -0.0253 -0.06209 -0.06024 -0.07773 -0.10058 -0.01563 -0.04034 -0.01922 -0.08435 -0.01034 -0.1267l0.24672 -1.4649c0.01061 -0.034 0.01264 -0.0701 0.00592 -0.10507 -0.00673 -0.03498 -0.02201 -0.06775 -0.04447 -0.09539L4.36739 6.42937c-0.02884 -0.02921 -0.04908 -0.0658 -0.0585 -0.10575 -0.00942 -0.03994 -0.00767 -0.08172 0.00507 -0.12073 0.01274 -0.03902 0.03598 -0.07378 0.06716 -0.10047 0.03118 -0.02669 0.06911 -0.04428 0.10963 -0.05084l1.47261 -0.21588c0.03666 -0.00371 0.07168 -0.01709 0.10148 -0.03876 0.0298 -0.02168 0.05332 -0.05087 0.06814 -0.0846l0.66306 -1.33384c0.01775 -0.03776 0.0457 -0.0698 0.0807 -0.0925 0.035 -0.0227 0.07566 -0.03516 0.11737 -0.03596 0.04171 -0.0008 0.08281 0.01008 0.11866 0.03142 0.03585 0.02134 0.06501 0.05228 0.0842 0.08933Z" stroke-width="1"></path></g></svg>