<svg xmlns="http://www.w3.org/2000/svg" fill="none" viewBox="0 0 14 14"><g id="tidal-energy--tidal-energy-wave-current-power-electricity-renewable-clean"><path id="Vector" stroke="#000000" stroke-linecap="round" stroke-linejoin="round" d="M1 2.58159c0.22731 0.10799 0.4816 0.16841 0.75 0.16841 0.9665 0 1.75 -0.7835 1.75 -1.75 0 0.9665 0.7835 1.75 1.75 1.75S7 1.9665 7 1c0 0.9665 0.7835 1.75 1.75 1.75S10.5 1.9665 10.5 1c0 0.9665 0.7835 1.75 1.75 1.75 0.2684 0 0.5227 -0.06042 0.75 -0.16841" stroke-width="1"></path><path id="Vector_2" stroke="#000000" stroke-linecap="round" stroke-linejoin="round" d="M3.41987 4.20093 7 6.26791l1.41506 -0.81698c1.19574 -0.69036 2.72474 -0.28067 3.41504 0.91506l0.25 0.43301L8.5 8.86599V10.5C8.5 11.8807 7.38071 13 6 13h-0.5V8.86599L4.08494 8.049c-1.19574 -0.69035 -1.60542 -2.21933 -0.91507 -3.41506l0.25 -0.43301Z" stroke-width="1"></path><path id="Ellipse 1941" stroke="#000000" stroke-linecap="round" stroke-linejoin="round" d="M5.5 8a1.5 1.5 0 1 0 3 0 1.5 1.5 0 1 0 -3 0" stroke-width="1"></path></g></svg>