<svg xmlns="http://www.w3.org/2000/svg" fill="none" viewBox="0 0 14 14"><g id="tile-window-left"><path id="rectangle 630" stroke="#000000" stroke-linecap="round" stroke-linejoin="round" d="M3 4.5c0 -0.27614 0.22386 -0.5 0.5 -0.5l3 0c0.27614 0 0.5 0.22386 0.5 0.5l0 5c0 0.27614 -0.22386 0.5 -0.5 0.5h-3c-0.27614 0 -0.5 -0.22386 -0.5 -0.5l0 -5Z" stroke-width="1"></path><path id="rectangle 629" stroke="#000000" stroke-linecap="round" stroke-linejoin="round" d="M0.5 2.5c0 -0.55229 0.447715 -1 1 -1l11 0c0.5523 0 1 0.44772 1 1l0 9c0 0.5523 -0.4477 1 -1 1l-11 0c-0.552285 0 -1 -0.4477 -1 -1l0 -9Z" stroke-width="1"></path></g></svg>