<svg xmlns="http://www.w3.org/2000/svg" fill="none" viewBox="0 0 14 14"><g id="transfer-cart--package-box-fulfillment-cart-warehouse-shipping-delivery-transfer"><path id="Vector" stroke="#000000" stroke-linecap="round" stroke-linejoin="round" d="M11 3H6.5c-0.55228 0 -1 0.44772 -1 1v4.5c0 0.55228 0.44772 1 1 1H11c0.5523 0 1 -0.44772 1 -1V4c0 -0.55228 -0.4477 -1 -1 -1Z" stroke-width="1"></path><path id="Vector_2" stroke="#000000" stroke-linecap="round" stroke-linejoin="round" d="M4 12h7.61c0.2623 0.0011 0.5137 0.1053 0.7 0.29l1.19 1.21" stroke-width="1"></path><path id="Vector_3" stroke="#000000" stroke-linecap="round" stroke-linejoin="round" d="M0.5 0.5h1c0.26522 0 0.51957 0.105357 0.70711 0.292893C2.39464 0.98043 2.5 1.23478 2.5 1.5V10" stroke-width="1"></path><path id="Vector_4" stroke="#000000" stroke-linecap="round" stroke-linejoin="round" d="M3.9755 11.635c0.00495 0.0833 0.00495 0.1667 0 0.25 -0.03237 0.4495 -0.23787 0.8689 -0.57324 1.1699 -0.33537 0.301 -0.77444 0.4602 -1.2248 0.444 -0.45036 -0.0162 -0.87686 -0.2065 -1.189742 -0.5308C0.674841 12.6437 0.5 12.2107 0.5 11.76c0 -0.4506 0.174841 -0.8837 0.487718 -1.208 0.312882 -0.3244 0.739382 -0.5147 1.189742 -0.5309 0.45036 -0.0162 0.88943 0.143 1.2248 0.444 0.33537 0.301 0.54087 0.7204 0.57324 1.1699v0Z" stroke-width="1"></path><path id="Vector_5" stroke="#000000" stroke-linecap="round" stroke-linejoin="round" d="M8.5 7h1" stroke-width="1"></path></g></svg>