<svg xmlns="http://www.w3.org/2000/svg" fill="none" viewBox="0 0 14 14"><g id="transfer-van--van-shipping-delivery-transfer"><path id="Rectangle 53" stroke="#000000" stroke-linecap="round" stroke-linejoin="round" d="M9.15876 10.8897V4.10419c0 -0.55229 -0.44771 -1 -1 -1H1.70239c-0.55228 0 -0.999997 0.44771 -0.999997 1v6.62561c0 0.5523 0.447717 1 0.999997 1h0.75" stroke-width="1"></path><path id="Vector 881" stroke="#000000" stroke-linecap="round" stroke-linejoin="round" d="M13.2976 7.83673H9.16016" stroke-width="1"></path><path id="Vector 880" stroke="#000000" stroke-linecap="round" stroke-linejoin="round" d="M11.9519 11.5432h0.3447c0.5523 0 1 -0.4477 1 -1V7.5423l-1.3924 -2.85086c-0.1677 -0.34336 -0.5164 -0.56113 -0.8986 -0.56113H9.33911" stroke-width="1"></path><path id="Ellipse 55" stroke="#000000" stroke-linecap="round" stroke-linejoin="round" d="M2.502 11.76a1.396 1.396 0 1 0 2.792 0 1.396 1.396 0 1 0 -2.792 0" stroke-width="1"></path><path id="Ellipse 56" stroke="#000000" stroke-linecap="round" stroke-linejoin="round" d="M8.839 11.76a1.396 1.396 0 1 0 2.792 0 1.396 1.396 0 1 0 -2.792 0" stroke-width="1"></path><path id="Rectangle 54" stroke="#000000" stroke-linecap="round" stroke-linejoin="round" d="M8.57715 11.7298h-2.9375" stroke-width="1"></path></g></svg>