<svg xmlns="http://www.w3.org/2000/svg" fill="none" viewBox="0 0 14 14"><g id="transparent"><path id="Rectangle 55" stroke="#000000" stroke-linecap="round" stroke-linejoin="round" d="M4 12c0 0.5523 0.44772 1 1 1h7c0.5523 0 1 -0.4477 1 -1V5c0 -0.55228 -0.4477 -1 -1 -1" stroke-width="1"></path><path id="Rectangle 53" stroke="#000000" stroke-linecap="round" stroke-linejoin="round" d="M1 2.00024c0 -0.55228 0.44772 -1 1 -1h7c0.55228 0 1 0.44772 1 1v7c0 0.55229 -0.44772 0.99996 -1 0.99996H2c-0.55228 0 -1 -0.44767 -1 -0.99996v-7Z" stroke-width="1"></path><path id="Vector 4123" stroke="#000000" stroke-linecap="round" stroke-linejoin="round" d="M8 4H5c-0.55228 0 -1 0.44772 -1 1v3" stroke-width="1"></path></g></svg>