<svg xmlns="http://www.w3.org/2000/svg" fill="none" viewBox="0 0 14 14"><g id="transaction-refund-cashback--payment-cash-money-finance-refund-cashback-transaction"><path id="Vector 3" stroke="#000000" stroke-linecap="round" stroke-linejoin="round" d="M8.61158 5.22226c-0.05853 -0.16561 -0.14885 -0.3162 -0.26364 -0.44444 -0.24414 -0.27278 -0.59893 -0.44445 -0.99382 -0.44445H6.32207c-0.65731 0 -1.19017 0.53286 -1.19017 1.19018 0 0.55931 0.38945 1.04316 0.93584 1.16268l1.57131 0.34373c0.61211 0.1339 1.0484 0.67634 1.0484 1.30293 0 0.73638 -0.59695 1.33382 -1.33333 1.33382h-0.88889c-0.58054 0 -1.07443 -0.37103 -1.25746 -0.88889" stroke-width="1"></path><path id="Vector 2489" stroke="#000000" stroke-linecap="round" stroke-linejoin="round" d="M6.90967 4.33333V3" stroke-width="1"></path><path id="Vector 2490" stroke="#000000" stroke-linecap="round" stroke-linejoin="round" d="M6.90967 11V9.66663" stroke-width="1"></path><path id="Ellipse 1115" stroke="#000000" stroke-linecap="round" d="M0.673932 8.5C1.3511 11.3667 3.92642 13.5 7 13.5c3.5899 0 6.5 -2.9101 6.5 -6.5C13.5 3.41015 10.5899 0.5 7 0.5 4.49228 0.5 2.31624 1.92011 1.23221 4" stroke-width="1"></path><path id="Vector" stroke="#000000" stroke-linecap="round" stroke-linejoin="round" d="M0.5 2v2.5H3" stroke-width="1"></path></g></svg>