<svg xmlns="http://www.w3.org/2000/svg" fill="none" viewBox="0 0 14 14"><g id="transaction-repeat-recurring--payment-cash-money-finance-recurring-repeat-transaction"><path id="Vector 3" stroke="#000000" stroke-linecap="round" stroke-linejoin="round" d="M8.61171 5.22226c-0.05854 -0.16561 -0.14886 -0.3162 -0.26364 -0.44444 -0.24415 -0.27278 -0.59894 -0.44445 -0.99383 -0.44445H6.3222c-0.65732 0 -1.19018 0.53286 -1.19018 1.19018 0 0.55931 0.38945 1.04316 0.93584 1.16268l1.57131 0.34373c0.61211 0.1339 1.0484 0.67634 1.0484 1.30293 0 0.73638 -0.59695 1.33382 -1.33333 1.33382h-0.88889c-0.58054 0 -1.07442 -0.37103 -1.25746 -0.88889" stroke-width="1"></path><path id="Vector 2489" stroke="#000000" stroke-linecap="round" stroke-linejoin="round" d="M6.90979 4.33333V3" stroke-width="1"></path><path id="Vector 2490" stroke="#000000" stroke-linecap="round" stroke-linejoin="round" d="M6.90979 11V9.66663" stroke-width="1"></path><path id="Ellipse 1115" stroke="#000000" stroke-linecap="round" d="M13.3261 8.5c-0.6772 2.8667 -3.2525 5 -6.3261 5C3.41015 13.5 0.5 10.5899 0.5 7 0.5 3.41015 3.41015 0.5 7 0.5c2.50772 0 4.6838 1.42011 5.7678 3.5" stroke-width="1"></path><path id="Vector" stroke="#000000" stroke-linecap="round" stroke-linejoin="round" d="M13.5 2v2.5H11" stroke-width="1"></path></g></svg>