<svg xmlns="http://www.w3.org/2000/svg" fill="none" viewBox="0 0 14 14"><g id="truck-front"><path id="Vector 4566" stroke="#000000" stroke-linecap="round" stroke-linejoin="round" d="M3 3.5h8" stroke-width="1"></path><path id="Vector 4594" stroke="#000000" stroke-linecap="round" stroke-linejoin="round" d="M1 2v2.5h2" stroke-width="1"></path><path id="Vector 4562" stroke="#000000" stroke-linecap="round" stroke-linejoin="round" d="M11.5 11.5h-9c-0.55228 0 -1 -0.4477 -1 -1v-3c0 -0.55228 0.44771 -1 1 -1h9c0.5523 0 1 0.44772 1 1v3c0 0.5523 -0.4477 1 -1 1Z" stroke-width="1"></path><path id="Vector 4565" stroke="#000000" stroke-linecap="round" stroke-linejoin="round" d="M3 3v3.5h8V3c0 -1.10457 -0.8954 -2 -2 -2H5c-1.10457 0 -2 0.89543 -2 2Z" stroke-width="1"></path><path id="Vector 4563" stroke="#000000" stroke-linecap="round" stroke-linejoin="round" d="M3 11.5V13" stroke-width="1"></path><path id="Vector 4564" stroke="#000000" stroke-linecap="round" stroke-linejoin="round" d="M11 11.5V13" stroke-width="1"></path><path id="Vector 4595" stroke="#000000" stroke-linecap="round" stroke-linejoin="round" d="M11 4.5h2V2" stroke-width="1"></path><path id="Vector 4596" stroke="#000000" stroke-linecap="round" stroke-linejoin="round" d="M5 7.5v4h4v-4c0 -0.55228 -0.44772 -1 -1 -1H6c-0.55228 0 -1 0.44772 -1 1Z" stroke-width="1"></path><path id="Vector 4597" stroke="#000000" stroke-linecap="round" stroke-linejoin="round" d="M1.5 8.5h2" stroke-width="1"></path><path id="Vector 4598" stroke="#000000" stroke-linecap="round" stroke-linejoin="round" d="M10.5 8.5h2" stroke-width="1"></path></g></svg>