<svg xmlns="http://www.w3.org/2000/svg" fill="none" viewBox="0 0 14 14"><g id="two-finger-tap"><path id="Vector" stroke="#000000" stroke-linecap="round" stroke-linejoin="round" d="M1.79148 5.5C1.7642 5.3374 1.75 5.17036 1.75 5c0 -1.65676 1.343 -2.99985 2.99973 -3C5.43388 1.08916 6.52314 0.5 7.75 0.5c2.07107 0 3.75 1.67893 3.75 3.75 0 0.19224 -0.0145 0.38109 -0.0424 0.56555" stroke-width="1"></path><path id="Vector 721" stroke="#000000" stroke-linecap="round" stroke-linejoin="round" d="m3 13.4999 -0.52842 -0.7927c-0.69047 -1.0357 -0.08257 -2.4388 1.14525 -2.6435L4 9.99988l0 -4.24242c0 -0.68741 0.55505 -1.24583 1.24244 -1.24998v0C5.93574 4.50329 6.5 5.06415 6.5 5.75746l0 3.24242" stroke-width="1"></path><path id="Vector 722" stroke="#000000" stroke-linecap="round" stroke-linejoin="round" d="m6.5 9 0 -4.75C6.5 3.55964 7.05964 3 7.75 3v0C8.44036 3 9 3.55964 9 4.25L9 9l0.5 0c1.1046 0 2 0.89543 2 2l0 2.5" stroke-width="1"></path></g></svg>