<svg xmlns="http://www.w3.org/2000/svg" fill="none" viewBox="0 0 14 14"><g id="two-finger-double-tap"><path id="Ellipse 1955" stroke="#000000" stroke-linecap="round" stroke-linejoin="round" d="M0.5 2.50863c0.5364 -0.6522 1.22 -1.17877 2 -1.528894" stroke-width="1"></path><path id="Ellipse 1954" stroke="#000000" stroke-linecap="round" stroke-linejoin="round" d="M11.8123 0.5c0.6439 0.55126 1.1745 1.23121 1.5518 2" stroke-width="1"></path><path id="Vector" stroke="#000000" stroke-linecap="round" stroke-linejoin="round" d="M1.79148 6.5C1.7642 6.3374 1.75 6.17036 1.75 6c0 -1.65676 1.343 -2.99985 2.99973 -3C5.43388 2.08916 6.52314 1.5 7.75 1.5c2.07107 0 3.75 1.67893 3.75 3.75 0 0.19224 -0.0145 0.38109 -0.0424 0.56555" stroke-width="1"></path><path id="Vector 721" stroke="#000000" stroke-linecap="round" stroke-linejoin="round" d="M6.49995 9.99999V6.75757c0 -0.69331 -0.56426 -1.25417 -1.25756 -1.24998 -0.68739 0.00416 -1.24244 0.56257 -1.24244 1.24998l0 4.24243 -0.62901 0.1048c-1.11247 0.1854 -1.66326 1.4568 -1.03766 2.3952" stroke-width="1"></path><path id="Vector 722" stroke="#000000" stroke-linecap="round" stroke-linejoin="round" d="m6.5 10 0 -4.75C6.5 4.55964 7.05964 4 7.75 4S9 4.55964 9 5.25V10h0.5c1.1046 0 2 0.8954 2 2v1.5" stroke-width="1"></path></g></svg>