<svg xmlns="http://www.w3.org/2000/svg" fill="none" viewBox="0 0 14 14"><g id="two-finger-hold"><path id="Ellipse 1956" stroke="#000000" stroke-linecap="round" stroke-linejoin="round" d="M8.15967 2.32412C8.53977 1.26084 9.55599 0.5 10.7499 0.5c1.5188 0 2.75 1.23122 2.75 2.75S12.2687 6 10.7499 6c-0.5133 0 -0.99367 -0.14061 -1.40483 -0.38542" stroke-width="1"></path><path id="Vector" stroke="#000000" stroke-linecap="round" stroke-linejoin="round" d="m11.5 2.5 -0.75 0.75" stroke-width="1"></path><path id="Vector_2" stroke="#000000" stroke-linecap="round" stroke-linejoin="round" d="M6.5 1.5c-1.22686 0 -2.31612 0.58916 -3.00027 1.5C1.843 3.00015 0.5 4.34324 0.5 6c0 0.17036 0.014199 0.3374 0.041479 0.5" stroke-width="1"></path><path id="Vector 721" stroke="#000000" stroke-linecap="round" stroke-linejoin="round" d="M5.24995 9.99999V6.75757c0 -0.69331 -0.56426 -1.25417 -1.25756 -1.24998 -0.68739 0.00416 -1.24244 0.56257 -1.24244 1.24998l0 4.24243 -0.62901 0.1048C1.00847 11.2902 0.45768 12.5616 1.08328 13.5" stroke-width="1"></path><path id="Vector 722" stroke="#000000" stroke-linecap="round" stroke-linejoin="round" d="m5.25 10 0 -4.75C5.25 4.55964 5.80964 4 6.5 4s1.25 0.55964 1.25 1.25V10h0.5c1.10457 0 2 0.8954 2 2v1.5" stroke-width="1"></path></g></svg>