<svg xmlns="http://www.w3.org/2000/svg" fill="none" viewBox="0 0 14 14"><g id="two-finger-drag-vertical"><path id="Vector 721" stroke="#000000" stroke-linecap="round" stroke-linejoin="round" d="m8.5 7.5 0 -3.75c0 -0.69036 -0.55964 -1.25 -1.25 -1.25v0C6.55964 2.5 6 3.05964 6 3.75L6 9l-0.92813 0.26518c-1.20218 0.34348 -1.64482 1.81642 -0.83114 2.76572L5.5 13.5" stroke-width="1"></path><path id="Vector 722" stroke="#000000" stroke-linecap="round" stroke-linejoin="round" d="m8.5 7.5 0 -5.75C8.5 1.05964 9.05964 0.5 9.75 0.5v0c0.6904 0 1.25 0.55964 1.25 1.25l0 5.75 0.5001 0c1.1046 0 2 0.89543 2 2l0 4" stroke-width="1"></path><path id="Vector 2508" stroke="#000000" stroke-linecap="round" stroke-linejoin="round" d="M0.5 2 2 0.5 3.5 2" stroke-width="1"></path><path id="Vector 2509" stroke="#000000" stroke-linecap="round" stroke-linejoin="round" d="M0.5 5.5 2 7l1.5 -1.5" stroke-width="1"></path><path id="Vector 2510" stroke="#000000" stroke-linecap="round" stroke-linejoin="round" d="M2 0.5V7" stroke-width="1"></path></g></svg>