<svg xmlns="http://www.w3.org/2000/svg" fill="none" viewBox="0 0 14 14"><g id="ubisoft--ubisoft-entertainment-gaming"><path id="Ellipse 259" stroke="#000000" stroke-linecap="round" stroke-linejoin="round" d="M1.27625 10.053C0.882722 9.36841 0.657715 8.57496 0.657715 7.72904c0 -2.58265 2.097375 -4.67631 4.684605 -4.67631 2.58724 0 4.68458 2.09366 4.68458 4.67631 0 0.50696 -0.08078 0.99508 -0.23025 1.45222" stroke-width="1"></path><path id="Ellipse 261" stroke="#000000" stroke-linecap="round" stroke-linejoin="round" d="M6.51584 13.4687c-0.67957 0.0026 -1.369 -0.1668 -2.00209 -0.5264C2.58084 11.8444 1.905 9.38942 3.00422 7.45889 4.10343 5.52835 6.56144 4.85334 8.49435 5.9512c0.19269 0.10945 0.37289 0.23238 0.54008 0.36694" stroke-width="1"></path><path id="Ellipse 260" stroke="#000000" stroke-linecap="round" stroke-linejoin="round" d="M0.5 7a6.5 6.5 0 1 0 13 0 6.5 6.5 0 1 0 -13 0" stroke-width="1"></path><path id="Ellipse 258" stroke="#000000" stroke-linecap="round" stroke-linejoin="round" d="M5.009 8.278a2.471 2.507 0 1 0 4.942 0 2.471 2.507 0 1 0 -4.942 0" stroke-width="1"></path></g></svg>