<svg xmlns="http://www.w3.org/2000/svg" fill="none" viewBox="0 0 14 14"><g id="ui-browser-slider-1--ui-browser-slider-web-app"><path id="Vector" stroke="#000000" stroke-linecap="round" stroke-linejoin="round" d="M12 1H2c-0.55228 0 -1 0.44772 -1 1v10c0 0.5523 0.44772 1 1 1h10c0.5523 0 1 -0.4477 1 -1V2c0 -0.55228 -0.4477 -1 -1 -1Z" stroke-width="1"></path><g id="Group 2"><path id="Vector_2" stroke="#000000" stroke-linecap="round" stroke-linejoin="round" d="M7 11c-0.13807 0 -0.25 -0.1119 -0.25 -0.25s0.11193 -0.25 0.25 -0.25" stroke-width="1"></path><path id="Vector_3" stroke="#000000" stroke-linecap="round" stroke-linejoin="round" d="M7 11c0.13807 0 0.25 -0.1119 0.25 -0.25s-0.11193 -0.25 -0.25 -0.25" stroke-width="1"></path></g><g id="Group 4"><path id="Vector_4" stroke="#000000" stroke-linecap="round" stroke-linejoin="round" d="M4.5 11c-0.13807 0 -0.25 -0.1119 -0.25 -0.25s0.11193 -0.25 0.25 -0.25" stroke-width="1"></path><path id="Vector_5" stroke="#000000" stroke-linecap="round" stroke-linejoin="round" d="M4.5 11c0.13807 0 0.25 -0.1119 0.25 -0.25s-0.11193 -0.25 -0.25 -0.25" stroke-width="1"></path></g><g id="Group 3"><path id="Vector_6" stroke="#000000" stroke-linecap="round" stroke-linejoin="round" d="M9.5 11c-0.13807 0 -0.25 -0.1119 -0.25 -0.25s0.11193 -0.25 0.25 -0.25" stroke-width="1"></path><path id="Vector_7" stroke="#000000" stroke-linecap="round" stroke-linejoin="round" d="M9.5 11c0.13807 0 0.25 -0.1119 0.25 -0.25s-0.11193 -0.25 -0.25 -0.25" stroke-width="1"></path></g><path id="Vector 3020" stroke="#000000" stroke-linecap="round" stroke-linejoin="round" d="m4 5.5 -1 1 1 1" stroke-width="1"></path><path id="Vector 3021" stroke="#000000" stroke-linecap="round" stroke-linejoin="round" d="m10 5.5 1 1 -1 1" stroke-width="1"></path></g></svg>