<svg xmlns="http://www.w3.org/2000/svg" fill="none" viewBox="0 0 14 14"><g id="uniswap-circle--crypto-circle-payment-blockchain-finance-uniswap-currency"><path id="Vector" stroke="#000000" stroke-linecap="round" stroke-linejoin="round" d="M7 13.5c3.5899 0 6.5 -2.9101 6.5 -6.5C13.5 3.41015 10.5899 0.5 7 0.5 3.41015 0.5 0.5 3.41015 0.5 7c0 3.5899 2.91015 6.5 6.5 6.5Z" stroke-width="1"></path><path id="Vector_2" stroke="#000000" stroke-linecap="round" stroke-linejoin="round" d="M8.25 11.25c-0.01805 -0.3164 -0.12026 -0.6223 -0.29606 -0.886 -0.17579 -0.2637 -0.41881 -0.47565 -0.70394 -0.61401 -1 -0.5 -2.12 0.40001 -2.73 0.27001 -0.28 -0.02001 -1.2 -1.62001 -0.31 -2.29001 1.34 -1.01 0.79 -2.19 1.79 -2.73 2.19 -1.2 3.48 1.14 5.18 0.84" stroke-width="1"></path><path id="Vector_3" stroke="#000000" stroke-linecap="round" stroke-linejoin="round" d="M5.72 5.24 4.25 3" stroke-width="1"></path><path id="Vector_4" stroke="#000000" stroke-linecap="round" stroke-linejoin="round" d="m7.5 3.5 0.35 1.23" stroke-width="1"></path><path id="Vector_5" stroke="#000000" stroke-linecap="round" stroke-linejoin="round" d="M9 7c0.7 0.82 1.32 0.3 1.75 1.38" stroke-width="1"></path><path id="Vector_6" stroke="#000000" stroke-linecap="round" stroke-linejoin="round" d="M9 9c0.12883 0.21974 0.31081 0.40357 0.52923 0.53462 0.21841 0.13105 0.46626 0.20511 0.72077 0.21538" stroke-width="1"></path></g></svg>