<svg xmlns="http://www.w3.org/2000/svg" fill="none" viewBox="0 0 14 14"><g id="usb-cable--cables-cable-device-cord-electronics-cords-usb-connection"><path id="Vector" stroke="#000000" stroke-linecap="round" stroke-linejoin="round" d="m7 13.5 0 -2.25" stroke-width="1"></path><path id="Vector_2" stroke="#000000" stroke-linecap="round" stroke-linejoin="round" d="M4 4.25V1.5c0 -0.26522 0.10536 -0.51957 0.29289 -0.707107C4.48043 0.605357 4.73478 0.5 5 0.5h4c0.26522 0 0.51957 0.105357 0.70711 0.292893C9.89464 0.98043 10 1.23478 10 1.5v2.75" stroke-width="1"></path><path id="Vector_3" stroke="#000000" stroke-linecap="round" stroke-linejoin="round" d="M11 4.25H3c-0.13261 0 -0.25979 0.05268 -0.35355 0.14645C2.55268 4.49021 2.5 4.61739 2.5 4.75v2.59c0.0011 0.26234 0.10526 0.51374 0.29 0.7L4 9.25v1c0 0.2652 0.10536 0.5196 0.29289 0.7071 0.18754 0.1875 0.44189 0.2929 0.70711 0.2929h4c0.26522 0 0.51957 -0.1054 0.70711 -0.2929 0.18753 -0.1875 0.29289 -0.4419 0.29289 -0.7071v-1l1.21 -1.21c0.1847 -0.18626 0.2889 -0.43766 0.29 -0.7V4.75c0 -0.13261 -0.0527 -0.25979 -0.1464 -0.35355C11.2598 4.30268 11.1326 4.25 11 4.25Z" stroke-width="1"></path><path id="Vector_4" stroke="#000000" stroke-linecap="round" stroke-linejoin="round" d="M6.25 6.5h1.5" stroke-width="1"></path></g></svg>