<svg xmlns="http://www.w3.org/2000/svg" fill="none" viewBox="0 0 14 14"><g id="usb-port--cables-cable-device-port-electronics-cords-cord-usb-connection"><path id="Vector" stroke="#000000" stroke-linecap="round" stroke-linejoin="round" d="m6.97021 10.5 0 -10" stroke-width="1"></path><path id="Vector_2" stroke="#000000" stroke-linecap="round" stroke-linejoin="round" d="m5.22021 2.25 1.75 -1.75 1.75001 1.75" stroke-width="1"></path><path id="Vector_3" stroke="#000000" stroke-linecap="round" stroke-linejoin="round" d="M2.75 7.625c0.69036 0 1.25 -0.55964 1.25 -1.25s-0.55964 -1.25 -1.25 -1.25 -1.25 0.55964 -1.25 1.25 0.55964 1.25 1.25 1.25Z" stroke-width="1"></path><path id="Vector_4" stroke="#000000" stroke-linecap="round" stroke-linejoin="round" d="M6.97021 13.5c0.82843 0 1.5 -0.6716 1.5 -1.5s-0.67157 -1.5 -1.5 -1.5c-0.82842 0 -1.5 0.6716 -1.5 1.5s0.67158 1.5 1.5 1.5Z" stroke-width="1"></path><path id="Rectangle 2042" stroke="#000000" stroke-linecap="round" stroke-linejoin="round" d="M10 3.766h2.5v2.5H10z" stroke-width="1"></path><path id="Ellipse 1785" stroke="#000000" stroke-linecap="round" stroke-linejoin="round" d="M6.97035 10.5c-1.916 0 -3.56056 -1.18485 -4.26723 -2.875" stroke-width="1"></path><path id="Ellipse 1786" stroke="#000000" stroke-linecap="round" stroke-linejoin="round" d="M6.97008 9.14058c1.916 0 3.56052 -1.1848 4.26722 -2.87496" stroke-width="1"></path></g></svg>