<svg xmlns="http://www.w3.org/2000/svg" fill="none" viewBox="0 0 14 14"><g id="usdc-circle--crypto-circle-payment-blockchain-finance-usdc-currency"><path id="Vector 3" stroke="#000000" stroke-linecap="round" stroke-linejoin="round" d="M8.48918 5.4445c-0.05121 -0.14491 -0.13025 -0.27668 -0.23068 -0.38889 -0.21363 -0.23868 -0.52407 -0.38889 -0.8696 -0.38889h-0.90305c-0.57515 0 -1.04141 0.46625 -1.04141 1.04141 0 0.4894 0.34077 0.91277 0.81887 1.01735l1.3749 0.30076c0.5356 0.11716 0.91736 0.5918 0.91736 1.14007 0 0.64433 -0.52234 1.1671 -1.16667 1.1671h-0.77778c-0.50798 0 -0.94013 -0.32465 -1.10029 -0.77778" stroke-width="1"></path><path id="Vector 2489" stroke="#000000" stroke-linecap="round" stroke-linejoin="round" d="M7 4.66667V3.5" stroke-width="1"></path><path id="Vector 2490" stroke="#000000" stroke-linecap="round" stroke-linejoin="round" d="M7 10.5V9.33334" stroke-width="1"></path><path id="Vector" stroke="#000000" stroke-linecap="round" stroke-linejoin="round" d="M7 13.5c3.5899 0 6.5 -2.9101 6.5 -6.5C13.5 3.41015 10.5899 0.5 7 0.5 3.41015 0.5 0.5 3.41015 0.5 7c0 3.5899 2.91015 6.5 6.5 6.5Z" stroke-width="1"></path><path id="Vector_2" stroke="#000000" stroke-linecap="round" stroke-linejoin="round" d="M4.99999 3.54001c-0.60615 0.35162 -1.1093 0.85631 -1.45906 1.46355 -0.34975 0.60723 -0.53385 1.29569 -0.53385 1.99645s0.1841 1.38922 0.53385 1.99645c0.34976 0.60723 0.85291 1.11194 1.45906 1.46354" stroke-width="1"></path><path id="Vector_3" stroke="#000000" stroke-linecap="round" stroke-linejoin="round" d="M9 10.46c0.60616 -0.3516 1.1093 -0.85631 1.4591 -1.46354 0.3497 -0.60723 0.5338 -1.29569 0.5338 -1.99645s-0.1841 -1.38922 -0.5338 -1.99645C10.1093 4.39632 9.60616 3.89163 9 3.54001" stroke-width="1"></path></g></svg>