<svg xmlns="http://www.w3.org/2000/svg" fill="none" viewBox="0 0 14 14"><g id="user-face-male--user-face-male-man"><path id="Ellipse 1762" stroke="#000000" stroke-linecap="round" stroke-linejoin="round" d="M1 7a6 6 0 1 0 12 0A6 6 0 1 0 1 7" stroke-width="1"></path><path id="Vector" stroke="#000000" stroke-linecap="round" stroke-linejoin="round" d="M3.50001 5.5c1.79204 0 3.40059 -0.78563 4.5 -2.03126C9.09943 4.71437 10.708 5.5 12.5 5.5c0.1036 0 0.2066 -0.00263 0.309 -0.00782C12.1402 2.90831 9.79296 1 7.00001 1 4.35476 1 2.1093 2.71184 1.31104 5.08817 1.98922 5.35403 2.72757 5.5 3.50001 5.5Z" stroke-width="1"></path><path id="Vector 3732" stroke="#000000" stroke-linecap="round" stroke-linejoin="round" d="M5 9.75s0.5 1 2 1 2 -1 2 -1" stroke-width="1"></path><g id="Group 623"><path id="Vector_2" stroke="#000000" stroke-linecap="round" stroke-linejoin="round" d="M4.75 7.75c-0.13807 0 -0.25 -0.11193 -0.25 -0.25s0.11193 -0.25 0.25 -0.25" stroke-width="1"></path><path id="Vector_3" stroke="#000000" stroke-linecap="round" stroke-linejoin="round" d="M4.75 7.75c0.13807 0 0.25 -0.11193 0.25 -0.25s-0.11193 -0.25 -0.25 -0.25" stroke-width="1"></path></g><g id="Group 624"><path id="Vector_4" stroke="#000000" stroke-linecap="round" stroke-linejoin="round" d="M9.25 7.75c-0.13807 0 -0.25 -0.11193 -0.25 -0.25s0.11193 -0.25 0.25 -0.25" stroke-width="1"></path><path id="Vector_5" stroke="#000000" stroke-linecap="round" stroke-linejoin="round" d="M9.25 7.75c0.13807 0 0.25 -0.11193 0.25 -0.25s-0.11193 -0.25 -0.25 -0.25" stroke-width="1"></path></g></g></svg>