<svg xmlns="http://www.w3.org/2000/svg" fill="none" viewBox="0 0 14 14"><g id="user-story"><path id="Vector" stroke="#000000" stroke-linecap="round" stroke-linejoin="round" d="M7 8c1.38071 0 2.5 -1.11929 2.5 -2.5S8.38071 3 7 3 4.5 4.11929 4.5 5.5 5.61929 8 7 8Z" stroke-width="1"></path><path id="Vector_2" stroke="#000000" stroke-linecap="round" stroke-linejoin="round" d="M2.72998 11.9c0.44624 -0.7325 1.07341 -1.3379 1.82121 -1.7579 0.7478 -0.42012 1.59108 -0.64076 2.44879 -0.64076 0.85771 0 1.70099 0.22064 2.44879 0.64076 0.74783 0.42 1.37493 1.0254 1.82123 1.7579" stroke-width="1"></path><path id="Ellipse 1851" stroke="#000000" stroke-linecap="round" stroke-linejoin="round" d="M7.00015 0.5C10.59 0.5 13.5002 3.41015 13.5002 7c0 3.5899 -2.9102 6.5 -6.50005 6.5 -2.3012 0 -4.32311 -1.1958 -5.47818 -3" stroke-width="1"></path><path id="Ellipse 1852" stroke="#000000" stroke-linecap="round" stroke-linejoin="round" d="M4.49537 1c-0.45469 0.19001 -0.88319 0.43019 -1.27857 0.71364" stroke-width="1"></path><path id="Ellipse 1853" stroke="#000000" stroke-linecap="round" stroke-linejoin="round" d="M0.998047 4.5c0.225563 -0.54088 0.522103 -1.04476 0.877993 -1.5" stroke-width="1"></path><path id="Ellipse 1854" stroke="#000000" stroke-linecap="round" stroke-linejoin="round" d="M0.624839 8.2742C0.542946 7.86216 0.5 7.4361 0.5 7.00001c0 -0.196 0.008675 -0.38997 0.025661 -0.58155" stroke-width="1"></path></g></svg>