<svg xmlns="http://www.w3.org/2000/svg" fill="none" viewBox="0 0 14 14"><g id="user-full-body-alert-bell--actions-alert-geometric-human-person-single-user"><path id="Vector" stroke="#000000" stroke-linecap="round" stroke-linejoin="round" d="M4 4c0.9665 0 1.75 -0.7835 1.75 -1.75S4.9665 0.5 4 0.5s-1.75 0.7835 -1.75 1.75S3.0335 4 4 4Z" stroke-width="1"></path><path id="Vector_2" stroke="#000000" stroke-linecap="round" stroke-linejoin="round" d="M12.5 9.5c0 -0.66304 -0.2634 -1.29893 -0.7322 -1.76777C11.2989 7.26339 10.663 7 10 7c-0.66304 0 -1.29893 0.26339 -1.76777 0.73223C7.76339 8.20107 7.5 8.83696 7.5 9.5v3h5v-3Z" stroke-width="1"></path><path id="Vector_3" stroke="#000000" stroke-linecap="round" stroke-linejoin="round" d="M6.5 12.5h7" stroke-width="1"></path><path id="Vector_4" stroke="#000000" stroke-linecap="round" stroke-linejoin="round" d="M10 12.5v1" stroke-width="1"></path><path id="Vector 3812" stroke="#000000" stroke-linecap="round" stroke-linejoin="round" d="M5 13.5H2.5L2 9.25H0.5V7.5C0.5 5.567 2.067 4 4 4c1.3962 0 2.60145 0.81753 3.16318 2" stroke-width="1"></path></g></svg>