<svg xmlns="http://www.w3.org/2000/svg" fill="none" viewBox="0 0 14 14"><g id="user-collaborate-group"><path id="Vector 3779" stroke="#000000" stroke-linecap="round" stroke-linejoin="round" d="M7.5 2h2c1.1046 0 2 0.89543 2 2v0.5" stroke-width="1"></path><path id="Vector 3780" stroke="#000000" stroke-linecap="round" stroke-linejoin="round" d="M2.5 9.5v0.5c0 1.1046 0.89543 2 2 2h1" stroke-width="1"></path><path id="Ellipse 1134" stroke="#000000" stroke-linecap="round" stroke-linejoin="round" d="M2.25 2.25a1.25 1.25 0 1 0 2.5 0 1.25 1.25 0 1 0 -2.5 0" stroke-width="1"></path><path id="Ellipse 1137" stroke="#000000" stroke-linecap="round" stroke-linejoin="round" d="M6 7.5C6 6.11929 4.88071 5 3.5 5S1 6.11929 1 7.5" stroke-width="1"></path><path id="Ellipse 1138" stroke="#000000" stroke-linecap="round" stroke-linejoin="round" d="M9.25 7.75a1.25 1.25 0 1 0 2.5 0 1.25 1.25 0 1 0 -2.5 0" stroke-width="1"></path><path id="Ellipse 1139" stroke="#000000" stroke-linecap="round" stroke-linejoin="round" d="M13 13c0 -1.3807 -1.1193 -2.5 -2.5 -2.5C9.11929 10.5 8 11.6193 8 13" stroke-width="1"></path></g></svg>