<svg xmlns="http://www.w3.org/2000/svg" fill="none" viewBox="0 0 14 14"><g id="user-square-single--square-geometric-human-person-single-user"><path id="Vector" stroke="#000000" stroke-linecap="round" stroke-linejoin="round" d="M7 8c1.38071 0 2.5 -1.11929 2.5 -2.5S8.38071 3 7 3 4.5 4.11929 4.5 5.5 5.61929 8 7 8Z" stroke-width="1"></path><path id="Vector_2" stroke="#000000" stroke-linecap="round" stroke-linejoin="round" d="M2.22876 13h9.54254c-0.6456 -2.0605 -2.60947 -3.505 -4.77126 -3.505 -2.1618 0 -4.12569 1.4445 -4.77128 3.505Z" stroke-width="1"></path><path id="Vector 4141" stroke="#000000" stroke-linecap="round" stroke-linejoin="round" d="M1 12V2c0 -0.55228 0.44772 -1 1 -1h10c0.5523 0 1 0.44772 1 1v10c0 0.5523 -0.4477 1 -1 1H2c-0.55228 0 -1 -0.4477 -1 -1Z" stroke-width="1"></path></g></svg>