<svg xmlns="http://www.w3.org/2000/svg" fill="none" viewBox="0 0 14 14"><g id="user-face-female--user-face-female-woman"><path id="Ellipse 18" stroke="#000000" stroke-linecap="round" stroke-linejoin="round" d="M12.5 6.5c0 3.03757 -2.4624 5.5 -5.5 5.5 -3.03757 0 -5.5 -2.46243 -5.5 -5.5S3.96243 1 7 1c3.0376 0 5.5 2.46243 5.5 5.5Z" stroke-width="1"></path><path id="Vector 1835" stroke="#000000" stroke-linecap="round" stroke-linejoin="round" d="M1.5 6.5S1 9.99999 1 13h12c0 -3 -0.5 -6.5 -0.5 -6.5" stroke-width="1"></path><path id="Vector" stroke="#000000" stroke-linecap="round" stroke-linejoin="round" d="M3.99996 5c1.57603 0 2.99723 -0.66289 4 -1.72506C9.00273 4.33711 10.4239 5 12 5c0.0975 0 0.1945 -0.00254 0.2908 -0.00756C11.6354 2.6878 9.51476 1 6.99996 1 4.64373 1 2.63358 2.48164 1.85034 4.56406 2.51069 4.84473 3.23719 5 3.99996 5Z" stroke-width="1"></path><g id="Group 625"><path id="Vector_2" stroke="#000000" stroke-linecap="round" stroke-linejoin="round" d="M4.75 7c-0.13807 0 -0.25 -0.11193 -0.25 -0.25s0.11193 -0.25 0.25 -0.25" stroke-width="1"></path><path id="Vector_3" stroke="#000000" stroke-linecap="round" stroke-linejoin="round" d="M4.75 7c0.13807 0 0.25 -0.11193 0.25 -0.25s-0.11193 -0.25 -0.25 -0.25" stroke-width="1"></path></g><g id="Group 626"><path id="Vector_4" stroke="#000000" stroke-linecap="round" stroke-linejoin="round" d="M9.25 7C9.11193 7 9 6.88807 9 6.75s0.11193 -0.25 0.25 -0.25" stroke-width="1"></path><path id="Vector_5" stroke="#000000" stroke-linecap="round" stroke-linejoin="round" d="M9.25 7c0.13807 0 0.25 -0.11193 0.25 -0.25s-0.11193 -0.25 -0.25 -0.25" stroke-width="1"></path></g><path id="Ellipse 593" stroke="#000000" stroke-linecap="round" stroke-linejoin="round" d="M9 9s-0.5 1 -2 1 -2 -1 -2 -1" stroke-width="1"></path></g></svg>