<svg xmlns="http://www.w3.org/2000/svg" fill="none" viewBox="0 0 14 14"><g id="user-share--user-share-actions-human-geometric-person-single"><path id="Vector" stroke="#000000" stroke-linecap="round" stroke-linejoin="round" d="M5 5.5c1.38071 0 2.5 -1.11929 2.5 -2.5S6.38071 0.5 5 0.5 2.5 1.61929 2.5 3 3.61929 5.5 5 5.5Z" stroke-width="1"></path><path id="Ellipse 21" stroke="#000000" stroke-linecap="round" stroke-linejoin="round" d="M9.16707 10.2917c0 0.6443 -0.52233 1.1666 -1.16666 1.1666 -0.64434 0 -1.16667 -0.5223 -1.16667 -1.1666 0 -0.64437 0.52233 -1.1667 1.16667 -1.1667 0.64433 0 1.16666 0.52233 1.16666 1.1667Z" stroke-width="1"></path><path id="Ellipse 22" stroke="#000000" stroke-linecap="round" stroke-linejoin="round" d="M13.5001 8.25004c0 0.64433 -0.5224 1.16667 -1.1667 1.16667 -0.6443 0 -1.1667 -0.52234 -1.1667 -1.16667 0 -0.64433 0.5224 -1.16667 1.1667 -1.16667 0.6443 0 1.1667 0.52234 1.1667 1.16667Z" stroke-width="1"></path><path id="Ellipse 23" stroke="#000000" stroke-linecap="round" stroke-linejoin="round" d="M13.5001 12.3333c0 -0.6443 -0.5224 -1.1666 -1.1667 -1.1666 -0.6443 0 -1.1667 0.5223 -1.1667 1.1666 0 0.6444 0.5224 1.1667 1.1667 1.1667 0.6443 0 1.1667 -0.5223 1.1667 -1.1667Z" stroke-width="1"></path><path id="Subtract" stroke="#000000" stroke-linecap="round" stroke-linejoin="round" d="M11.3253 11.7453 9 10.8795" stroke-width="1"></path><path id="Subtract_2" stroke="#000000" stroke-linecap="round" stroke-linejoin="round" d="M11.3253 8.83789 9 9.70367" stroke-width="1"></path><path id="Ellipse 1772" stroke="#000000" stroke-linecap="round" stroke-linejoin="round" d="M5.40194 12.5H0.5V12C0.5 9.51472 2.51472 7.5 5 7.5c0.34369 0 0.67839 0.03853 1 0.11151" stroke-width="1"></path></g></svg>