<svg xmlns="http://www.w3.org/2000/svg" fill="none" viewBox="0 0 14 14"><g id="user-sticker-square"><path id="Vector 176" stroke="#000000" stroke-linecap="round" stroke-linejoin="round" d="M13 1.92857v6.97252c0 0.24627 -0.0978 0.48246 -0.272 0.6566L9.55769 12.728c-0.17414 0.1742 -0.41033 0.272 -0.6566 0.272H1.92857C1.41574 13 1 12.5843 1 12.0714V1.92857C1 1.41574 1.41574 1 1.92857 1H12.0714c0.5129 0 0.9286 0.41574 0.9286 0.92857Z" stroke-width="1"></path><path id="Vector 3778" stroke="#000000" stroke-linecap="round" stroke-linejoin="round" d="M13 8.5H9.5c-0.55228 0 -1 0.44772 -1 1V13" stroke-width="1"></path><g id="Group 2605"><path id="Ellipse 1111" stroke="#000000" stroke-linecap="round" stroke-linejoin="round" d="M5.75 4c-0.13807 0 -0.25 -0.11193 -0.25 -0.25s0.11193 -0.25 0.25 -0.25" stroke-width="1"></path><path id="Ellipse 1112" stroke="#000000" stroke-linecap="round" stroke-linejoin="round" d="M5.75 4c0.13807 0 0.25 -0.11193 0.25 -0.25s-0.11193 -0.25 -0.25 -0.25" stroke-width="1"></path></g><g id="Group 2608"><path id="Ellipse 1111_2" stroke="#000000" stroke-linecap="round" stroke-linejoin="round" d="M3.75 6c-0.13807 0 -0.25 -0.11193 -0.25 -0.25s0.11193 -0.25 0.25 -0.25" stroke-width="1"></path><path id="Ellipse 1112_2" stroke="#000000" stroke-linecap="round" stroke-linejoin="round" d="M3.75 6c0.13807 0 0.25 -0.11193 0.25 -0.25s-0.11193 -0.25 -0.25 -0.25" stroke-width="1"></path></g><path id="Ellipse 1775" stroke="#000000" stroke-linecap="round" stroke-linejoin="round" d="M7.5 5c0 1.38071 -1.11929 2.5 -2.5 2.5" stroke-width="1"></path></g></svg>