<svg xmlns="http://www.w3.org/2000/svg" fill="none" viewBox="0 0 14 14"><g id="user-warning--user-warning-actions-human-geometric-person-single"><path id="Ellipse 1771" stroke="#000000" stroke-linecap="round" stroke-linejoin="round" d="M5 7.5C2.51472 7.5 0.5 9.51472 0.5 12v0.5h9V12c0 -2.48528 -2.01472 -4.5 -4.5 -4.5Z" stroke-width="1"></path><path id="Vector" stroke="#000000" stroke-linecap="round" stroke-linejoin="round" d="M5 5.5c1.38071 0 2.5 -1.11929 2.5 -2.5S6.38071 0.5 5 0.5 2.5 1.61929 2.5 3 3.61929 5.5 5 5.5Z" stroke-width="1"></path><path id="Vector_2" stroke="#000000" stroke-linecap="round" stroke-linejoin="round" d="M12.25 7.75v3" stroke-width="1"></path><g id="Group 2668"><path id="Vector_3" stroke="#000000" stroke-linecap="round" stroke-linejoin="round" d="M12.25 13.5c-0.1381 0 -0.25 -0.1119 -0.25 -0.25s0.1119 -0.25 0.25 -0.25" stroke-width="1"></path><path id="Vector_4" stroke="#000000" stroke-linecap="round" stroke-linejoin="round" d="M12.25 13.5c0.1381 0 0.25 -0.1119 0.25 -0.25s-0.1119 -0.25 -0.25 -0.25" stroke-width="1"></path></g></g></svg>