<svg xmlns="http://www.w3.org/2000/svg" fill="none" viewBox="0 0 14 14"><g id="user-circle-avatar-happy--circle-geometric-human-person-single-user-avatar-happy"><path id="Vector" stroke="#000000" stroke-linecap="round" stroke-linejoin="round" d="M7 13.5c3.5899 0 6.5 -2.9101 6.5 -6.5C13.5 3.41015 10.5899 0.5 7 0.5 3.41015 0.5 0.5 3.41015 0.5 7c0 3.5899 2.91015 6.5 6.5 6.5Z" stroke-width="1"></path><path id="Vector_2" stroke="#000000" stroke-linecap="round" stroke-linejoin="round" d="M7 10c1.933 0 3.5 -1.567 3.5 -3.5S8.933 3 7 3 3.5 4.567 3.5 6.5 5.067 10 7 10Z" stroke-width="1"></path><path id="Vector_3" stroke="#000000" stroke-linecap="round" stroke-linejoin="round" d="M6.99998 13.5c1.53503 0 2.94577 -0.5321 4.05782 -1.4219C10.1499 10.8193 8.6706 10 6.99998 10c-1.67061 0 -3.14986 0.8193 -4.05784 2.0781C4.05422 12.9679 5.46496 13.5 6.99998 13.5Z" stroke-width="1"></path><path id="Ellipse 592" stroke="#000000" stroke-linecap="round" stroke-linejoin="round" d="M8 7.5S7.8112 8 7 8s-1 -0.5 -1 -0.5" stroke-width="1"></path><g id="Group 627"><path id="Vector_4" stroke="#000000" stroke-linecap="round" stroke-linejoin="round" d="M5.625 5.75c-0.06904 0 -0.125 -0.05596 -0.125 -0.125 0 -0.06904 0.05596 -0.125 0.125 -0.125" stroke-width="1"></path><path id="Vector_5" stroke="#000000" stroke-linecap="round" stroke-linejoin="round" d="M5.625 5.75c0.06904 0 0.125 -0.05596 0.125 -0.125 0 -0.06904 -0.05596 -0.125 -0.125 -0.125" stroke-width="1"></path></g><g id="Group 626"><path id="Vector_6" stroke="#000000" stroke-linecap="round" stroke-linejoin="round" d="M8.375 5.75c-0.06904 0 -0.125 -0.05596 -0.125 -0.125 0 -0.06904 0.05596 -0.125 0.125 -0.125" stroke-width="1"></path><path id="Vector_7" stroke="#000000" stroke-linecap="round" stroke-linejoin="round" d="M8.375 5.75c0.06904 0 0.125 -0.05596 0.125 -0.125 0 -0.06904 -0.05596 -0.125 -0.125 -0.125" stroke-width="1"></path></g></g></svg>