<svg xmlns="http://www.w3.org/2000/svg" fill="none" viewBox="0 0 14 14"><g id="user-setting-bolt-nut"><path id="Ellipse 1772" stroke="#000000" stroke-linecap="round" stroke-linejoin="round" d="M5.44834 12.5H0.5V12C0.5 9.51472 2.51472 7.5 5 7.5c0.19891 0 0.3948 0.0129 0.58688 0.03792" stroke-width="1"></path><path id="Vector" stroke="#000000" stroke-linecap="round" stroke-linejoin="round" d="M5 5.5c1.38071 0 2.5 -1.11929 2.5 -2.5S6.38071 0.5 5 0.5 2.5 1.61929 2.5 3 3.61929 5.5 5 5.5Z" stroke-width="1"></path><path id="Rectangle 1920" stroke="#000000" stroke-linecap="round" stroke-linejoin="round" d="m7.5 8.75 3 -1.75 3 1.75v3l-3 1.75 -3 -1.75v-3Z" stroke-width="1"></path><path id="Ellipse 1472" stroke="#000000" stroke-linecap="round" stroke-linejoin="round" d="M10 10.25a0.5 0.5 0 1 0 1 0 0.5 0.5 0 1 0 -1 0" stroke-width="1"></path></g></svg>