<svg xmlns="http://www.w3.org/2000/svg" fill="none" viewBox="0 0 14 14"><g id="user-pin--navigation-map-maps-pin-user-gps-location"><path id="Ellipse 1696" stroke="#000000" stroke-linecap="round" stroke-linejoin="round" d="M13.5 9c0 2.5 -3 4.5 -3 4.5s-3 -2 -3 -4.5c0 -1.65685 1.34315 -3 3 -3 1.6569 0 3 1.34315 3 3Z" stroke-width="1"></path><path id="Vector" stroke="#000000" stroke-linecap="round" stroke-linejoin="round" d="M10.5 9.5c0.2761 0 0.5 -0.22386 0.5 -0.5s-0.2239 -0.5 -0.5 -0.5 -0.5 0.22386 -0.5 0.5 0.2239 0.5 0.5 0.5Z" stroke-width="1"></path><path id="Vector_2" stroke="#000000" stroke-linecap="round" stroke-linejoin="round" d="M4 4c0.9665 0 1.75 -0.7835 1.75 -1.75S4.9665 0.5 4 0.5s-1.75 0.7835 -1.75 1.75S3.0335 4 4 4Z" stroke-width="1"></path><path id="Vector 3811" stroke="#000000" stroke-linecap="round" stroke-linejoin="round" d="M6.87266 5.5C6.24018 4.59326 5.18937 4 4 4 2.067 4 0.5 5.567 0.5 7.5v1.75H2l0.5 4.25h3l0.29412 -2.5" stroke-width="1"></path></g></svg>