<svg xmlns="http://www.w3.org/2000/svg" fill="none" viewBox="0 0 14 14"><g id="user-folder"><path id="Ellipse 1778" stroke="#000000" stroke-linecap="round" stroke-linejoin="round" d="M5.25 7.25a1.75 1.75 0 1 0 3.5 0 1.75 1.75 0 1 0 -3.5 0" stroke-width="1"></path><path id="Ellipse 1780" stroke="#000000" stroke-linecap="round" stroke-linejoin="round" d="M7.00002 10.5c-1.58551 0 -2.92479 1.0543 -3.35506 2.5h6.71014c-0.43029 -1.4457 -1.76957 -2.5 -3.35508 -2.5Z" stroke-width="1"></path><path id="Vector 3867" stroke="#000000" stroke-linecap="round" stroke-linejoin="round" d="M1 12V2c0 -0.55228 0.44772 -1 1 -1h2.71922c0.45887 0 0.85885 0.3123 0.97015 0.75746L6 3h6c0.5523 0 1 0.44772 1 1v8c0 0.5523 -0.4477 1 -1 1H2c-0.55228 0 -1 -0.4477 -1 -1Z" stroke-width="1"></path></g></svg>