<svg xmlns="http://www.w3.org/2000/svg" fill="none" viewBox="0 0 14 14"><g id="user-arrows-account-switch--user-arrows-account-switch-reload"><path id="Ellipse 1916" stroke="#000000" stroke-linecap="round" stroke-linejoin="round" d="M13.0018 4.5C12.0223 2.15105 9.70395 0.5 7 0.5 3.41015 0.5 0.5 3.41015 0.5 7c0 3.5899 2.91015 6.5 6.5 6.5 3.0736 0 5.6489 -2.1333 6.3261 -5" stroke-width="1"></path><path id="Vector" stroke="#000000" stroke-linecap="round" stroke-linejoin="round" d="M10.8089 12.2188c-0.2587 -0.8069 -0.767 -1.5108 -1.45159 -2.0102 -0.68456 -0.49933 -1.51003 -0.76841 -2.35738 -0.76841s-1.67282 0.26908 -2.35739 0.76841c-0.68456 0.4994 -1.19287 1.2033 -1.45162 2.0102" stroke-width="1"></path><path id="Vector_2" stroke="#000000" stroke-linecap="round" stroke-linejoin="round" d="M7 7.5c1.10457 0 2 -0.89543 2 -2s-0.89543 -2 -2 -2 -2 0.89543 -2 2 0.89543 2 2 2Z" stroke-width="1"></path><path id="Vector_3" stroke="#000000" stroke-linecap="round" stroke-linejoin="round" d="M13.5 2v2.5H11" stroke-width="1"></path></g></svg>