<svg xmlns="http://www.w3.org/2000/svg" fill="none" viewBox="0 0 14 14"><g id="user-feedback-heart"><path id="Vector" stroke="#000000" stroke-linecap="round" stroke-linejoin="round" d="M7.57836 9.24317c-0.28923 0.27408 -0.73718 0.27408 -1.02642 0L4.82696 7.60852c-1.15398 -1.10378 0.35291 -3.54244 2.23819 -1.73921 1.88197 -1.80006 3.38885 0.63863 2.23819 1.73921L7.57836 9.24317Z" stroke-width="1"></path><path id="Ellipse 1522" stroke="#000000" stroke-linecap="round" stroke-linejoin="round" d="M13.4999 7c0 3.5899 -2.9102 6.5 -6.50002 6.5 -2.70395 0 -5.02227 -1.651 -6.001833 -4" stroke-width="1"></path><path id="Ellipse 1523" stroke="#000000" stroke-linecap="round" stroke-linejoin="round" d="M0.5 7C0.5 3.41015 3.41015 0.5 7 0.5c2.70395 0 5.0223 1.65105 6.0018 4" stroke-width="1"></path><path id="Vector_2" stroke="#000000" stroke-linecap="round" stroke-linejoin="round" d="M13.5 2.5v2h-2" stroke-width="1"></path><path id="Vector_3" stroke="#000000" stroke-linecap="round" stroke-linejoin="round" d="M0.5 11.5v-2h2" stroke-width="1"></path></g></svg>