<svg xmlns="http://www.w3.org/2000/svg" fill="none" viewBox="0 0 14 14"><g id="user-sticker-circle"><path id="Ellipse 167" stroke="#000000" stroke-linecap="round" stroke-linejoin="round" d="M3.88965 7.50427c0.47499 0.66181 1.17108 1.15383 1.97956 1.36848" stroke-width="1"></path><g id="Group 2605"><path id="Ellipse 1111" stroke="#000000" stroke-linecap="round" stroke-linejoin="round" d="M5.25 5.5c-0.13807 0 -0.25 -0.11193 -0.25 -0.25S5.11193 5 5.25 5" stroke-width="1"></path><path id="Ellipse 1112" stroke="#000000" stroke-linecap="round" stroke-linejoin="round" d="M5.25 5.5c0.13807 0 0.25 -0.11193 0.25 -0.25S5.38807 5 5.25 5" stroke-width="1"></path></g><g id="Group 2606"><path id="Ellipse 1111_2" stroke="#000000" stroke-linecap="round" stroke-linejoin="round" d="M8.75 5.5c-0.13807 0 -0.25 -0.11193 -0.25 -0.25S8.61193 5 8.75 5" stroke-width="1"></path><path id="Ellipse 1112_2" stroke="#000000" stroke-linecap="round" stroke-linejoin="round" d="M8.75 5.5c0.13807 0 0.25 -0.11193 0.25 -0.25S8.88807 5 8.75 5" stroke-width="1"></path></g><path id="Vector" stroke="#000000" stroke-linecap="round" stroke-linejoin="round" d="M13.1994 8.95967C13.3947 8.34129 13.5 7.68294 13.5 7 13.5 3.41015 10.5899 0.5 7 0.5 3.41015 0.5 0.5 3.41015 0.5 7c0 3.5899 2.91015 6.5 6.5 6.5 0.68294 0 1.34129 -0.1053 1.95967 -0.3006l4.23973 -4.23973Z" stroke-width="1"></path><path id="Vector_2" stroke="#000000" stroke-linecap="round" stroke-linejoin="round" d="M13.1994 8.95967c-0.0254 -0.02736 -0.0515 -0.05436 -0.0781 -0.08099 -1.1716 -1.17157 -3.071 -1.17157 -4.24262 0 -1.17157 1.17162 -1.17157 3.07102 0 4.24262 0.02663 0.0266 0.05363 0.0527 0.08099 0.0781l4.23973 -4.23973Z" stroke-width="1"></path></g></svg>