<svg xmlns="http://www.w3.org/2000/svg" fill="none" viewBox="0 0 14 14" stroke-width="1"><g id="vertical-toggle-button--move-slide-horizontal"><path id="Vector 3958" stroke="#000000" stroke-linecap="round" stroke-linejoin="round" d="m6 3.5 0 7C6 11.8807 4.88071 13 3.5 13S1 11.8807 1 10.5l0-7C1 2.11929 2.11929 1 3.5 1S6 2.11929 6 3.5Z"></path><path id="Vector 3959" stroke="#000000" stroke-linecap="round" stroke-linejoin="round" d="m13 3.5 0 7c0 1.3807-1.1193 2.5-2.5 2.5C9.11929 13 8 11.8807 8 10.5l0-7C8 2.11929 9.11929 1 10.5 1 11.8807 1 13 2.11929 13 3.5Z"></path><path id="Ellipse 1803" stroke="#000000" stroke-linecap="round" stroke-linejoin="round" transform="rotate(-90 3.5 3.5)" d="M3 3.5a.5.5 0 1 0 1 0 .5.5 0 1 0-1 0"></path><path id="Ellipse 1804" stroke="#000000" stroke-linecap="round" stroke-linejoin="round" transform="rotate(-90 10.5 10.5)" d="M10 10.5a.5.5 0 1 0 1 0 .5.5 0 1 0-1 0"></path></g></svg>