<svg xmlns="http://www.w3.org/2000/svg" fill="none" viewBox="0 0 14 14"><g id="video-call"><path id="Ellipse 1961" stroke="#000000" stroke-linecap="round" stroke-linejoin="round" d="M3.25 8c0.4561 0.60722 1.18227 1 2.00018 1 0.81791 0 1.54408 -0.39278 2.00019 -1" stroke-width="1"></path><path id="Vector 4445" stroke="#000000" stroke-linecap="round" stroke-linejoin="round" d="M9 2H1.5c-0.552285 0 -1 0.44772 -1 1v8c0 0.5523 0.447715 1 1 1H9c0.55229 0 1 -0.4477 1 -1V9l2.803 1.2013c0.33 0.1414 0.697 -0.1006 0.697 -0.45957V4.25827c0 -0.35896 -0.367 -0.60097 -0.697 -0.45957L10 5V3c0 -0.55228 -0.44772 -1 -1 -1Z" stroke-width="1"></path><g id="Group 2605"><path id="Ellipse 1111" stroke="#000000" stroke-linecap="round" stroke-linejoin="round" d="M3.75 6c-0.13807 0 -0.25 -0.11193 -0.25 -0.25s0.11193 -0.25 0.25 -0.25" stroke-width="1"></path><path id="Ellipse 1112" stroke="#000000" stroke-linecap="round" stroke-linejoin="round" d="M3.75 6c0.13807 0 0.25 -0.11193 0.25 -0.25s-0.11193 -0.25 -0.25 -0.25" stroke-width="1"></path></g><g id="Group 2630"><path id="Ellipse 1111_2" stroke="#000000" stroke-linecap="round" stroke-linejoin="round" d="M6.75 6c-0.13807 0 -0.25 -0.11193 -0.25 -0.25s0.11193 -0.25 0.25 -0.25" stroke-width="1"></path><path id="Ellipse 1112_2" stroke="#000000" stroke-linecap="round" stroke-linejoin="round" d="M6.75 6c0.13807 0 0.25 -0.11193 0.25 -0.25s-0.11193 -0.25 -0.25 -0.25" stroke-width="1"></path></g></g></svg>