<svg xmlns="http://www.w3.org/2000/svg" fill="none" viewBox="0 0 14 14" stroke-width="1"><g id="video-aspect-ratio"><path id="Rectangle 53" stroke="#000000" stroke-linecap="round" stroke-linejoin="round" d="M12 13c.5523 0 1-.4477 1-1l0-10c0-.55228-.4477-1-1-1L2 1c-.55228 0-1 .44772-1 1l0 10c0 .5523.44772 1 1 1l10 0Z"></path><path id="Rectangle 54" stroke="#000000" stroke-linecap="round" stroke-linejoin="round" d="M8.49561 13c.55228 0 1-.4477 1-1l0-6.49553c0-.55229-.44772-1-1-1l-6.49554-.00001c-.55228 0-1 .44772-1 1l0 6.49554c0 .5523.44772 1 1 1l6.49554 0Z"></path><path id="Rectangle 55" stroke="#000000" stroke-linecap="round" stroke-linejoin="round" transform="matrix(0 -1 -1 0 5.962 13)" d="M1 0h2.962s1 0 1 1v2.962s0 1-1 1H1s-1 0-1-1V1s0-1 1-1"></path></g></svg>