<svg xmlns="http://www.w3.org/2000/svg" fill="none" viewBox="0 0 14 14"><g id="view-setting-bolt-nut"><path id="Vector" stroke="#000000" stroke-linecap="round" stroke-linejoin="round" d="M11.9539 5.22321C11.9842 5.1119 12 4.99438 12 4.875c0 -0.27073 -0.0814 -0.53184 -0.2283 -0.73281C10.841 2.90625 8.72278 0.5 6.25 0.5S1.65896 2.90625 0.728346 4.14219C0.581361 4.34316 0.5 4.60427 0.5 4.875c0 0.27073 0.081361 0.53183 0.228346 0.73281C1.53658 6.68122 3.24064 8.63737 5.29474 9.1333" stroke-width="1"></path><path id="Rectangle 1921" stroke="#000000" stroke-linecap="round" stroke-linejoin="round" d="m7.5 8.75 3 -1.75 3 1.75v3l-3 1.75 -3 -1.75v-3Z" stroke-width="1"></path><path id="Ellipse 1472" stroke="#000000" stroke-linecap="round" stroke-linejoin="round" d="M10 10.25a0.5 0.5 0 1 0 1 0 0.5 0.5 0 1 0 -1 0" stroke-width="1"></path><path id="Ellipse 1980" stroke="#000000" stroke-linecap="round" stroke-linejoin="round" d="M4.5 4.875a1.75 1.75 0 1 0 3.5 0 1.75 1.75 0 1 0 -3.5 0" stroke-width="1"></path></g></svg>