<svg xmlns="http://www.w3.org/2000/svg" fill="none" viewBox="0 0 14 14"><g id="virus-immunity--health-medical-covid19-flu-influenza-virus-immunity"><path id="Vector" stroke="#000000" stroke-linecap="round" stroke-linejoin="round" d="M7.36 13.4c-0.23168 0.0894 -0.48832 0.0894 -0.72 0v0c-1.80614 -0.6963 -3.35925 -1.923 -4.45514 -3.51864C1.08896 8.28571 0.501603 6.39577 0.5 4.46004v-2.92c0 -0.26522 0.105357 -0.51957 0.292893 -0.707108C0.98043 0.645396 1.23478 0.540039 1.5 0.540039h11c0.2652 0 0.5196 0.105357 0.7071 0.292893 0.1875 0.187538 0.2929 0.441888 0.2929 0.707108v2.92c-0.0016 1.93573 -0.589 3.82567 -1.6849 5.42132C10.7193 11.477 9.16614 12.7037 7.36 13.4v0Z" stroke-width="1"></path><path id="Vector 2068" stroke="#000000" stroke-linecap="round" stroke-linejoin="round" d="M7 2.6178v1.26811" stroke-width="1"></path><path id="Ellipse 902" stroke="#000000" stroke-linecap="round" stroke-linejoin="round" d="M4.712 6.18a2.288 2.288 0 1 0 4.576 0 2.288 2.288 0 1 0 -4.576 0" stroke-width="1"></path><path id="Vector 2069" stroke="#000000" stroke-linecap="round" stroke-linejoin="round" d="M7 9.7428V8.47469" stroke-width="1"></path><path id="Vector 2070" stroke="#000000" stroke-linecap="round" stroke-linejoin="round" d="m10.5625 6.1803 -1.26811 0" stroke-width="1"></path><path id="Vector 2071" stroke="#000000" stroke-linecap="round" stroke-linejoin="round" d="m3.4375 6.1803 1.26811 0" stroke-width="1"></path><path id="Vector 2072" stroke="#000000" stroke-linecap="round" stroke-linejoin="round" d="m9.51904 3.66119 -0.89669 0.89669" stroke-width="1"></path><path id="Vector 2073" stroke="#000000" stroke-linecap="round" stroke-linejoin="round" d="m4.48096 8.6994 0.89669 -0.89669" stroke-width="1"></path><path id="Vector 2074" stroke="#000000" stroke-linecap="round" stroke-linejoin="round" d="m9.51904 8.6994 -0.89669 -0.89669" stroke-width="1"></path><path id="Vector 2075" stroke="#000000" stroke-linecap="round" stroke-linejoin="round" d="m4.48096 3.66119 0.89669 0.89669" stroke-width="1"></path></g></svg>