<svg xmlns="http://www.w3.org/2000/svg" fill="none" viewBox="0 0 14 14"><g id="visual-blind--disability-visual-blind"><path id="Vector" stroke="#000000" stroke-linecap="round" stroke-linejoin="round" d="M13.2419 6.1625c0.1661 0.22969 0.2581 0.5281 0.2581 0.8375s-0.092 0.60781 -0.2581 0.8375C12.1899 9.25 9.79532 12 7 12 4.20468 12 1.81013 9.25 0.75813 7.8375 0.591974 7.60781 0.5 7.3094 0.5 7s0.091974 -0.60781 0.25813 -0.8375C1.81013 4.75 4.20468 2 7 2s5.1899 2.75 6.2419 4.1625Z" stroke-width="1"></path><path id="Vector_2" stroke="#000000" stroke-linecap="round" stroke-linejoin="round" d="M8.41424 8.41421c0.78105 -0.78105 0.78105 -2.04738 0 -2.82842 -0.78105 -0.78105 -2.04738 -0.78105 -2.82842 0" stroke-width="1"></path><path id="Vector_3" stroke="#000000" stroke-linecap="round" stroke-linejoin="round" d="M10.5917 10.5916 3.40845 3.40839" stroke-width="1"></path><path id="Vector_4" stroke="#000000" stroke-linecap="round" stroke-linejoin="round" d="M8.30588 11.8059 1.61023 5.11023" stroke-width="1"></path></g></svg>