<svg xmlns="http://www.w3.org/2000/svg" fill="none" viewBox="0 0 14 14"><g id="voice-scan-1--identification-secure-id-soundwave-sound-voice-brackets-security"><path id="Vector 3722" stroke="#000000" stroke-linecap="round" stroke-linejoin="round" d="M1.5 7.5h2l1.5 -4L7 9l2 -4 1.5 2.5h2" stroke-width="1"></path><path id="Vector" stroke="#000000" stroke-linecap="round" stroke-linejoin="round" d="M13 10v2c0 0.2652 -0.1054 0.5196 -0.2929 0.7071S12.2652 13 12 13h-2" stroke-width="1"></path><path id="Vector_2" stroke="#000000" stroke-linecap="round" stroke-linejoin="round" d="M10 1h2c0.2652 0 0.5196 0.10536 0.7071 0.29289C12.8946 1.48043 13 1.73478 13 2v2" stroke-width="1"></path><path id="Vector_3" stroke="#000000" stroke-linecap="round" stroke-linejoin="round" d="M1 4V2c0 -0.26522 0.10536 -0.51957 0.29289 -0.70711C1.48043 1.10536 1.73478 1 2 1h2" stroke-width="1"></path><path id="Vector_4" stroke="#000000" stroke-linecap="round" stroke-linejoin="round" d="M4 13H2c-0.26522 0 -0.51957 -0.1054 -0.70711 -0.2929C1.10536 12.5196 1 12.2652 1 12v-2" stroke-width="1"></path></g></svg>