<svg xmlns="http://www.w3.org/2000/svg" fill="none" viewBox="0 0 14 14"><g id="waiting-room"><path id="Vector" stroke="#000000" stroke-linecap="round" stroke-linejoin="round" d="M2.25 6C3.2165 6 4 5.2165 4 4.25S3.2165 2.5 2.25 2.5 0.5 3.2835 0.5 4.25 1.2835 6 2.25 6Z" stroke-width="1"></path><path id="Vector 4968" stroke="#000000" stroke-linecap="round" stroke-linejoin="round" d="m7.50001 13.5 -0.81064 -3.2426c-0.11129 -0.44512 -0.51127 -0.75741 -0.97014 -0.75741H4.07751c-0.48013 0 -0.8925 -0.34124 -0.98234 -0.81289l-0.51766 -2.71771" stroke-width="1"></path><path id="Vector_2" stroke="#000000" stroke-linecap="round" stroke-linejoin="round" d="M10.5 6.5c1.6569 0 3 -1.34315 3 -3s-1.3431 -3 -3 -3c-1.65685 0 -3 1.34315 -3 3s1.34315 3 3 3Z" stroke-width="1"></path><path id="Vector_3" stroke="#000000" stroke-linecap="round" stroke-linejoin="round" d="m11.25 2.75 -0.75 0.75" stroke-width="1"></path><path id="Vector 4943" stroke="#000000" stroke-linecap="round" stroke-linejoin="round" d="M4.5 11.5H2.34713c-0.48884 0 -0.90603 -0.3534 -0.9864 -0.8356L1 8.5" stroke-width="1"></path></g></svg>