<svg xmlns="http://www.w3.org/2000/svg" fill="none" viewBox="0 0 14 14"><g id="walker--disability-walker"><path id="Vector 4996" stroke="#000000" stroke-linecap="round" stroke-linejoin="round" d="M6.50002 6.99999H5.32844c-0.53043 0 -1.03914 -0.21072 -1.41421 -0.58579L2.55811 5.05807" stroke-width="1"></path><path id="Ellipse 239" stroke="#000000" stroke-linecap="round" stroke-linejoin="round" d="M2.5 2.25a1.75 1.75 0 1 0 3.5 0 1.75 1.75 0 1 0 -3.5 0" stroke-width="1"></path><path id="Vector 4995" stroke="#000000" stroke-linecap="round" stroke-linejoin="round" d="M3 13.5v-2.5858c0 -0.2652 -0.10536 -0.5196 -0.29289 -0.7071L1.09307 8.59306C0.750035 8.25002 0.702694 7.71024 0.980784 7.31273L3.43782 3.80051" stroke-width="1"></path><path id="Vector 5071" stroke="#000000" stroke-linecap="round" stroke-linejoin="round" d="m8 13.5 0.86073 -5.1644c0.08037 -0.48219 0.49756 -0.8356 0.9864 -0.8356H12c0.5523 0 1 0.44772 1 1v2" stroke-width="1"></path><path id="Vector 5072" stroke="#000000" stroke-linecap="round" stroke-linejoin="round" d="M13 9.5H8.66663" stroke-width="1"></path><path id="Ellipse 2014" stroke="#000000" stroke-linecap="round" stroke-linejoin="round" d="M12.5 13a0.5 0.5 0 1 0 1 0 0.5 0.5 0 1 0 -1 0" stroke-width="1"></path></g></svg>