<svg xmlns="http://www.w3.org/2000/svg" fill="none" viewBox="0 0 14 14"><g id="wallet-remove-subtract--wallet-remove-subtract-close-minus-money-payment-finance"><path id="Vector" stroke="#000000" stroke-linecap="round" stroke-linejoin="round" d="M9 11.5v1c0 0.2652 -0.10536 0.5196 -0.29289 0.7071 -0.18754 0.1875 -0.44189 0.2929 -0.70711 0.2929H1.5c-0.26522 0 -0.51957 -0.1054 -0.707107 -0.2929C0.605357 13.0196 0.5 12.7652 0.5 12.5V8c0 -1.65685 1.34315 -3 3 -3H7v2" stroke-width="1"></path><path id="Vector_2" stroke="#000000" stroke-linecap="round" stroke-linejoin="round" d="M9 9V8c0 -0.26522 -0.10536 -0.51957 -0.29289 -0.70711C8.51957 7.10536 8.26522 7 8 7H3.5" stroke-width="1"></path><path id="Vector_3" stroke="#000000" stroke-linecap="round" stroke-linejoin="round" d="M9.75 9h-2c-0.27614 0 -0.5 0.22386 -0.5 0.5V11c0 0.2761 0.22386 0.5 0.5 0.5h2c0.2761 0 0.5 -0.2239 0.5 -0.5V9.5c0 -0.27614 -0.2239 -0.5 -0.5 -0.5Z" stroke-width="1"></path><path id="Vector_4" stroke="#000000" stroke-linecap="round" stroke-linejoin="round" d="M8.5 2h5" stroke-width="1"></path></g></svg>