<svg xmlns="http://www.w3.org/2000/svg" fill="none" viewBox="0 0 14 14"><g id="warning-diamond--diamond-alert-warning-frame-exclamation-caution"><path id="Rectangle 53" stroke="#000000" stroke-linejoin="round" d="M0.78389 7.68537c-0.37852 -0.37852 -0.37852 -0.99222 0.000001 -1.37074L6.31463 0.78389c0.37852 -0.37852 0.99222 -0.37852 1.37074 0.000001L13.2161 6.31463c0.3785 0.37852 0.3785 0.99222 0 1.37074L7.68537 13.2161c-0.37852 0.3785 -0.99222 0.3785 -1.37074 0L0.78389 7.68537Z" stroke-width="1"></path><path id="Vector" stroke="#000000" stroke-linecap="round" stroke-linejoin="round" d="M7 4v3.25" stroke-width="1"></path><g id="Group 2605"><path id="Ellipse 1111" stroke="#000000" stroke-linecap="round" stroke-linejoin="round" d="M7 10c-0.13807 0 -0.25 -0.11193 -0.25 -0.25s0.11193 -0.25 0.25 -0.25" stroke-width="1"></path><path id="Ellipse 1112" stroke="#000000" stroke-linecap="round" stroke-linejoin="round" d="M7 10c0.13807 0 0.25 -0.11193 0.25 -0.25S7.13807 9.5 7 9.5" stroke-width="1"></path></g></g></svg>