<svg xmlns="http://www.w3.org/2000/svg" fill="none" viewBox="0 0 14 14"><g id="water-fountain--water-fountain-park-places-outdoor"><path id="Vector 2806" stroke="#000000" stroke-linecap="round" stroke-linejoin="round" d="m7 7.5 0 -5c0 -1.10457 -0.89543 -2 -2 -2v0c-1.10457 0 -2 0.89543 -2 2v0" stroke-width="1"></path><path id="Vector 2810" stroke="#000000" stroke-linecap="round" stroke-linejoin="round" d="m7 7.5 0 -5c0 -1.10457 0.89543 -2 2 -2v0c1.1046 0 2 0.89543 2 2v0" stroke-width="1"></path><path id="Vector 2809" stroke="#000000" stroke-linecap="round" stroke-linejoin="round" d="M3 4.5V5" stroke-width="1"></path><path id="Vector 2811" stroke="#000000" stroke-linecap="round" stroke-linejoin="round" d="M11 4.5V5" stroke-width="1"></path><path id="Vector 2807" stroke="#000000" stroke-linecap="round" stroke-linejoin="round" d="M11 7.5H3c0 1.65685 1.34315 3 3 3h2c1.65685 0 3 -1.34315 3 -3Z" stroke-width="1"></path><path id="Vector 2808" stroke="#000000" stroke-linecap="round" stroke-linejoin="round" d="M12.5 10.5h-11c0 1.6569 1.34315 3 3 3h5c1.6569 0 3 -1.3431 3 -3Z" stroke-width="1"></path></g></svg>