<svg xmlns="http://www.w3.org/2000/svg" fill="none" viewBox="0 0 14 14"><g id="web-application-learning--web-application-learning-education"><path id="Vector" stroke="#000000" stroke-linecap="round" stroke-linejoin="round" d="M12.5 0.5h-11c-0.552285 0 -1 0.447715 -1 1v11c0 0.5523 0.447715 1 1 1h11c0.5523 0 1 -0.4477 1 -1v-11c0 -0.552285 -0.4477 -1 -1 -1Z" stroke-width="1"></path><path id="Vector_2" stroke="#000000" stroke-linecap="round" stroke-linejoin="round" d="M0.5 3.5h13" stroke-width="1"></path><path id="Rectangle 645" stroke="#000000" stroke-linecap="round" stroke-linejoin="round" d="m6.99986 5.75049 4.02524 1.74404 -4.02524 1.74403 -4.02525 -1.74403 4.02525 -1.74404Z" stroke-width="1"></path><path id="Ellipse 346" stroke="#000000" stroke-linecap="round" stroke-linejoin="round" d="m4.80078 8.29004 0.00399 1.89756s0.66457 0.8795 2.19471 0.8795c1.53015 0 2.19826 -0.8795 2.19826 -0.8795l-0.0004 -1.89756" stroke-width="1"></path><path id="Ellipse 347" stroke="#000000" stroke-linecap="round" stroke-linejoin="round" d="M2.97461 10.5625V7.49463" stroke-width="1"></path></g></svg>