<svg xmlns="http://www.w3.org/2000/svg" fill="none" viewBox="0 0 14 14"><g id="webcam-video-call-connecting--webcam-video-call-connecting-connection-dots-loading"><g id="Group 4759"><path id="Ellipse 1655" stroke="#000000" stroke-linecap="round" stroke-linejoin="round" d="M0.75 12c-0.138071 0 -0.25 -0.1119 -0.25 -0.25s0.111929 -0.25 0.25 -0.25" stroke-width="1"></path><path id="Ellipse 1656" stroke="#000000" stroke-linecap="round" stroke-linejoin="round" d="M0.75 12c0.138071 0 0.25 -0.1119 0.25 -0.25s-0.111929 -0.25 -0.25 -0.25" stroke-width="1"></path></g><g id="Group 4760"><path id="Ellipse 1657" stroke="#000000" stroke-linecap="round" stroke-linejoin="round" d="M3.25 12c-0.13807 0 -0.25 -0.1119 -0.25 -0.25s0.11193 -0.25 0.25 -0.25" stroke-width="1"></path><path id="Ellipse 1658" stroke="#000000" stroke-linecap="round" stroke-linejoin="round" d="M3.25 12c0.13807 0 0.25 -0.1119 0.25 -0.25s-0.11193 -0.25 -0.25 -0.25" stroke-width="1"></path></g><g id="Group 4761"><path id="Ellipse 1653" stroke="#000000" stroke-linecap="round" stroke-linejoin="round" d="M5.75 12c-0.13807 0 -0.25 -0.1119 -0.25 -0.25s0.11193 -0.25 0.25 -0.25" stroke-width="1"></path><path id="Ellipse 1654" stroke="#000000" stroke-linecap="round" stroke-linejoin="round" d="M5.75 12c0.13807 0 0.25 -0.1119 0.25 -0.25s-0.11193 -0.25 -0.25 -0.25" stroke-width="1"></path></g><path id="Vector" stroke="#000000" stroke-linecap="round" stroke-linejoin="round" d="m10.5 3 2.32 -1.25c0.076 -0.02934 0.1581 -0.03965 0.239 -0.03004 0.0809 0.00962 0.1583 0.03886 0.2253 0.0852 0.067 0.04633 0.1217 0.10835 0.1593 0.18065 0.0376 0.07231 0.057 0.1527 0.0564 0.23419v4.56c0.0006 0.08149 -0.0188 0.16189 -0.0564 0.23419 -0.0376 0.0723 -0.0923 0.13432 -0.1593 0.18065 -0.067 0.04634 -0.1444 0.07558 -0.2253 0.0852 -0.0809 0.00961 -0.163 -0.0007 -0.239 -0.03004L10.5 6v1.5c0 0.26522 -0.1054 0.51957 -0.2929 0.70711C10.0196 8.39464 9.76522 8.5 9.5 8.5h-6c-0.55228 0 -1 -0.44772 -1 -1v-6c0 -0.26522 0.10536 -0.51957 0.29289 -0.707107C2.98043 0.605357 3.23478 0.5 3.5 0.5h6c0.26522 0 0.5196 0.105357 0.7071 0.292893 0.1875 0.187537 0.2929 0.441887 0.2929 0.707107V3Z" stroke-width="1"></path></g></svg>