<svg xmlns="http://www.w3.org/2000/svg" fill="none" viewBox="0 0 14 14"><g id="webcam--webcam-camera-future-tech-chat-skype-technology-video"><path id="Vector" stroke="#000000" stroke-linecap="round" stroke-linejoin="round" d="M7 12.5c3.3137 0 6 -2.68629 6 -6s-2.6863 -6 -6 -6c-3.31371 0 -6 2.68629 -6 6s2.68629 6 6 6Z" stroke-width="1"></path><path id="Vector_2" stroke="#000000" stroke-linecap="round" stroke-linejoin="round" d="M10.0699 11.6801c0.9433 0.425 1.788 1.0449 2.48 1.8198" stroke-width="1"></path><path id="Vector_3" stroke="#000000" stroke-linecap="round" stroke-linejoin="round" d="M1.44995 13.4999c0.69202 -0.7749 1.5368 -1.3948 2.48 -1.8198" stroke-width="1"></path><path id="Vector_4" stroke="#000000" stroke-linecap="round" stroke-linejoin="round" d="M7 9.5c1.65685 0 3 -1.34315 3 -3s-1.34315 -3 -3 -3 -3 1.34315 -3 3 1.34315 3 3 3Z" stroke-width="1"></path><path id="Vector_5" stroke="#000000" stroke-linecap="round" stroke-linejoin="round" d="M7 7c0.27614 0 0.5 -0.22386 0.5 -0.5S7.27614 6 7 6s-0.5 0.22386 -0.5 0.5 0.22386 0.5 0.5 0.5Z" stroke-width="1"></path></g></svg>