<svg width="14" height="14" viewBox="0 0 14 14" fill="none" xmlns="http://www.w3.org/2000/svg">
<path d="M7.00039 0.879396C3.66539 0.880434 0.879087 3.67033 0.879102 7.00258C0.879108 8.20393 1.23666 9.39065 1.90401 10.3939L0.877197 13.1258L4.3156 12.504C5.15553 12.9145 6.07785 13.1202 7.00039 13.1208C10.3383 13.1231 13.1272 10.3369 13.1272 7.00258C13.1272 3.67208 10.3373 0.877426 7.00039 0.879396Z" stroke="#01040B" stroke-linecap="round" stroke-linejoin="round"/>
<path d="M7.3375 9.69923C8.16587 10.231 9.02952 9.84369 9.63099 9.3951C10.0465 9.08524 10.0327 8.4876 9.67781 8.10984L8.9781 7.36494C8.71268 7.63036 8.19546 7.76173 7.83609 7.65235C7.06364 7.41726 6.73944 7.01475 6.47671 6.60548C6.17497 6.13542 6.51572 5.43339 6.78114 5.16798L6.00123 4.45597C5.67243 4.15581 5.17301 4.10516 4.88613 4.44561C4.31851 5.11919 3.9655 6.14183 4.38357 6.79298C5.13407 7.9619 6.16851 8.94884 7.3375 9.69923Z" stroke="#01040B" stroke-linecap="round" stroke-linejoin="round"/>
</svg>
