<svg xmlns="http://www.w3.org/2000/svg" fill="none" viewBox="0 0 14 14"><g id="wheelchair--health-medical-hospital-wheelchair-disable-help-sign"><path id="Vector" stroke="#000000" stroke-linecap="round" stroke-linejoin="round" d="M4 13.5c1.933 0 3.5 -1.567 3.5 -3.5S5.933 6.5 4 6.5 0.5 8.067 0.5 10s1.567 3.5 3.5 3.5Z" stroke-width="1"></path><path id="Vector_2" stroke="#000000" stroke-linecap="round" stroke-linejoin="round" d="M4.2 6.51 3 0.5H0.5" stroke-width="1"></path><path id="Vector_3" stroke="#000000" stroke-linecap="round" stroke-linejoin="round" d="M7.46003 10.5h4.50057l0.266 0.9766L10.78 6.17c-0.0788 -0.47142 -0.3238 -0.89902 -0.6907 -1.20537 -0.36689 -0.30634 -0.83135 -0.47117 -1.30927 -0.46463h-5" stroke-width="1"></path><path id="Vector_4" stroke="#000000" stroke-linecap="round" stroke-linejoin="round" d="M11.08 8H6.87" stroke-width="1"></path><path id="Vector_5" stroke="#000000" stroke-linecap="round" stroke-linejoin="round" d="M12.5 13.5c0.5523 0 1 -0.4477 1 -1s-0.4477 -1 -1 -1 -1 0.4477 -1 1 0.4477 1 1 1Z" stroke-width="1"></path></g></svg>