<svg xmlns="http://www.w3.org/2000/svg" fill="none" viewBox="0 0 14 14"><g id="wicca--religion-wicca-culture-pagan-witch"><path id="Vector" stroke="#000000" stroke-linecap="round" stroke-linejoin="round" d="M9.54161 0.871948H4.4649L0.875244 4.4616v5.07672L4.4649 13.128h5.07671l3.58969 -3.58968V4.4616L9.54161 0.871948Z" stroke-width="1"></path><path id="Vector 709" stroke="#000000" stroke-linecap="round" stroke-linejoin="round" d="M9.41479 13.1281 7.78246 9.064M4.4921 0.871932 6.15012 4.99995" stroke-width="1"></path><path id="Vector 712" stroke="#000000" stroke-linecap="round" stroke-linejoin="round" d="M4.57886 13.1281 6.21119 9.064M9.50155 0.871932 7.84353 4.99995" stroke-width="1"></path><path id="Vector 713" stroke="#000000" stroke-linecap="round" stroke-linejoin="round" d="M0.868896 9.41779 5.00336 7.75717M13.125 4.49509 9.00336 6.15056" stroke-width="1"></path><path id="Vector 714" stroke="#000000" stroke-linecap="round" stroke-linejoin="round" d="M0.868896 4.58221 5.00336 6.24283M13.125 9.50491 9.00336 7.84944" stroke-width="1"></path><path id="Vector_2" stroke="#000000" stroke-linecap="round" stroke-linejoin="round" d="M7.84334 4.99982H6.17443L4.99438 6.17987v1.6689l1.18005 1.18005h1.66891l1.18005 -1.18005v-1.6689L7.84334 4.99982Z" stroke-width="1"></path></g></svg>