<svg xmlns="http://www.w3.org/2000/svg" fill="none" viewBox="0 0 14 14"><g id="wifi-not-secure-connection"><path id="Vector" stroke="#000000" stroke-linecap="round" stroke-linejoin="round" d="M4.5 9.5h5c0.3 0 0.5 0.2 0.5 0.5v3c0 0.3 -0.2 0.5 -0.5 0.5h-5c-0.3 0 -0.5 -0.2 -0.5 -0.5v-3c0 -0.3 0.2 -0.5 0.5 -0.5Z" stroke-width="1"></path><path id="Vector_2" stroke="#000000" stroke-linecap="round" stroke-linejoin="round" d="M5 9.5v-1c0 -1.1 0.9 -2 2 -2 0.59572 0 1.13278 0.26396 1.5 0.6807" stroke-width="1"></path><path id="Vector 524" stroke="#000000" stroke-linecap="round" stroke-linejoin="round" d="M3.19629 1.45091C3.67175 1.13394 5.09812 0.5 6.99995 0.5c1.90182 0 3.32815 0.63394 3.80365 0.95091" stroke-width="1"></path><path id="Vector 525" stroke="#000000" stroke-linecap="round" stroke-linejoin="round" d="M5.09814 3.82824c0.31698 -0.15849 1.1411 -0.47546 1.90183 -0.47546 0.76073 0 1.58486 0.31697 1.90183 0.47546" stroke-width="1"></path></g></svg>