<svg xmlns="http://www.w3.org/2000/svg" fill="none" viewBox="0 0 14 14"><g id="wine-bottle-and-glass--drink-cook-glass-cooking-wine-nutrition-food"><path id="Vector" stroke="#000000" stroke-linecap="round" stroke-linejoin="round" d="M4.5 4V1c0 -0.132608 -0.05268 -0.259785 -0.14645 -0.353553C4.25979 0.552678 4.13261 0.5 4 0.5H2.5c-0.13261 0 -0.25978 0.052678 -0.35355 0.146447C2.05268 0.740215 2 0.867392 2 1v3c-0.46156 0.3068 -0.84006 0.72301 -1.101773 1.21155C0.636511 5.70009 0.499706 6.24578 0.5 6.8v5.7c0 0.2652 0.105358 0.5196 0.292894 0.7071 0.187536 0.1875 0.441886 0.2929 0.707106 0.2929H5c0.26522 0 0.51957 -0.1054 0.70711 -0.2929C5.89464 13.0196 6 12.7652 6 12.5V6.8c0.0003 -0.55422 -0.13651 -1.09991 -0.39823 -1.58845C5.34006 4.72301 4.96156 4.3068 4.5 4Z" stroke-width="1"></path><path id="Vector 2062" stroke="#000000" stroke-linecap="round" stroke-linejoin="round" d="M13.5 5.5h-5V8c0 1.38071 1.11929 2.5 2.5 2.5 1.3807 0 2.5 -1.11929 2.5 -2.5V5.5Z" stroke-width="1"></path><path id="Vector 2063" stroke="#000000" stroke-linecap="round" stroke-linejoin="round" d="M11 10.5v3" stroke-width="1"></path><path id="Vector 2064" stroke="#000000" stroke-linecap="round" stroke-linejoin="round" d="M9.5 13.5h3" stroke-width="1"></path></g></svg>