<svg xmlns="http://www.w3.org/2000/svg" fill="none" viewBox="0 0 14 14"><g id="wordpress"><path id="Ellipse 29" stroke="#000000" stroke-linecap="round" stroke-linejoin="round" d="m9.19238 13.1029 2.51802 -8.1521c0.2514 -0.7542 -0.0745 -1.91603 -0.8287 -2.16743 -1.07851 -0.35951 -2.24593 0.46035 -1.3387 1.75307 0.32494 0.46301 1.0339 0.41436 1.7905 1.63479" stroke-width="1"></path><path id="Ellipse 30" stroke="#000000" stroke-linecap="round" stroke-linejoin="round" d="m4.82812 13.1068 2.0137 -6.51928" stroke-width="1"></path><path id="Ellipse 28" stroke="#000000" stroke-linecap="round" stroke-linejoin="round" d="M13.5 7c0 2.59294 -1.5183 4.8313 -3.71429 5.8745 -0.8443 0.4011 -1.7888 0.6255 -2.78571 0.6255 -0.81788 0 -1.60049 -0.1511 -2.32143 -0.4268C2.23516 12.1387 0.5 9.77197 0.5 7 0.5 3.41015 3.41015 0.5 7 0.5c0.81788 0 1.60049 0.151059 2.32143 0.426798" stroke-width="1"></path><path id="Ellipse 24" stroke="#000000" stroke-linecap="round" stroke-linejoin="round" d="m9.19446 13.1072 -2.7312 -7.58034h-0.71717" stroke-width="1"></path><path id="Ellipse 26" stroke="#000000" stroke-linecap="round" stroke-linejoin="round" d="m4.82997 13.1072 -2.7312 -7.58034H0.820801" stroke-width="1"></path><path id="Ellipse 27" stroke="#000000" stroke-linecap="round" stroke-linejoin="round" d="M2.10938 5.52686H4.0776l1.66869 4.63134" stroke-width="1"></path><path id="Vector 1148" stroke="#000000" stroke-linecap="round" stroke-linejoin="round" d="M6.20947 5.52686h2.22548l1.71895 4.43048" stroke-width="1"></path></g></svg>