<svg xmlns="http://www.w3.org/2000/svg" fill="none" viewBox="0 0 14 14"><g id="workflow--workflow-arrow-nodes-circle-diamond-direction-plan"><path id="Vector 3229" stroke="#000000" stroke-linecap="round" stroke-linejoin="round" d="M11.75 0.75c0.9665 0 1.75 0.7835 1.75 1.75s-0.7835 1.75 -1.75 1.75S10 3.4665 10 2.5 10.7835 0.75 11.75 0.75Z" stroke-width="1"></path><path id="Vector 3236" stroke="#000000" stroke-linecap="round" stroke-linejoin="round" d="M11.75 10c0.9665 0 1.75 0.7835 1.75 1.75s-0.7835 1.75 -1.75 1.75S10 12.7165 10 11.75 10.7835 10 11.75 10Z" stroke-width="1"></path><path id="Vector 3235" stroke="#000000" stroke-linecap="round" stroke-linejoin="round" d="M0.75 12.5V11c0 -0.5523 0.44772 -1 1 -1h1.5c0.55228 0 1 0.4477 1 1v1.5c0 0.5523 -0.44772 1 -1 1h-1.5c-0.55228 0 -1 -0.4477 -1 -1Z" stroke-width="1"></path><path id="Vector 3231" stroke="#000000" stroke-linecap="round" stroke-linejoin="round" d="m4.5 2.5 -2 -2 -2 2 2 2 2 -2Z" stroke-width="1"></path><path id="Vector 3232" stroke="#000000" stroke-linecap="round" stroke-linejoin="round" d="m7.5 10.25 1.5 1.5 -1.5 1.5" stroke-width="1"></path><path id="Vector 3234" stroke="#000000" stroke-linecap="round" stroke-linejoin="round" d="M7 1 5.5 2.5 7 4" stroke-width="1"></path><path id="Vector 3233" stroke="#000000" stroke-linecap="round" stroke-linejoin="round" d="M1 7.5 2.5 9 4 7.5" stroke-width="1"></path><path id="Vector 3237" stroke="#000000" stroke-linecap="round" stroke-linejoin="round" d="m2.5 9 0 -4.5" stroke-width="1"></path><path id="Vector 3238" stroke="#000000" stroke-linecap="round" stroke-linejoin="round" d="M5.5 2.5H10" stroke-width="1"></path><path id="Vector 3239" stroke="#000000" stroke-linecap="round" stroke-linejoin="round" d="M4.25 11.75H9" stroke-width="1"></path></g></svg>