<svg xmlns="http://www.w3.org/2000/svg" fill="none" viewBox="0 0 14 14"><g id="wrench-hand--crescent-tool-construction-tools-wrench-setting-edit-adjust"><path id="Vector" stroke="#000000" stroke-linecap="round" stroke-linejoin="round" d="M6.58083 5.40539c-0.20286 -0.28175 -0.3581 -0.5971 -0.45753 -0.93369 -0.17528 -0.59335 -0.16912 -1.22556 0.0177 -1.81539 0.18681 -0.58982 0.54574 -1.1103 1.03066 -1.49455C7.65657 0.777508 8.24532 0.547049 8.86223 0.5l-0.53522 1.99747c-0.07098 0.26488 -0.03382 0.54711 0.10329 0.78459 0.13712 0.23749 0.36295 0.41078 0.62783 0.48176 0.26489 0.07097 0.54711 0.03381 0.7846 -0.1033 0.23747 -0.13711 0.41077 -0.36295 0.48177 -0.62783l0.5352 -1.99747c0.5107 0.3492 0.9054 0.84316 1.1332 1.41838 0.2278 0.57523 0.2784 1.20545 0.1453 1.80966 -0.1331 0.60421 -0.4439 1.1548 -0.8924 1.58102 -0.4484 0.42622 -1.0141 0.70858 -1.62433 0.81081l-0.36271 1.35364" stroke-width="1"></path><path id="Vector 1518" stroke="#000000" stroke-linecap="round" stroke-linejoin="round" d="M1.30017 9.30347 2.89798 8.371l1.91543 -2.76631c0.31936 -0.46837 0.93205 -0.64092 1.45182 -0.40887 0.55465 0.24762 0.82623 0.87502 0.6253 1.44456L6.1863 8.00005h3.63836c1.16154 0 2.04514 1.03479 1.85424 2.17155l-0.2181 1.7696c-0.151 0.8993 -0.9353 1.5584 -1.85416 1.5584H1.30017" stroke-width="1"></path></g></svg>