<svg xmlns="http://www.w3.org/2000/svg" fill="none" viewBox="0 0 14 14"><g id="wrench-circle--crescent-tool-construction-tools-wrench-setting-edit-adjust"><path id="Vector" stroke="#000000" stroke-linecap="round" stroke-linejoin="round" d="M7 13.5c3.5899 0 6.5 -2.9101 6.5 -6.5C13.5 3.41015 10.5899 0.5 7 0.5 3.41015 0.5 0.5 3.41015 0.5 7c0 3.5899 2.91015 6.5 6.5 6.5Z" stroke-width="1"></path><path id="Union" stroke="#000000" stroke-linecap="round" stroke-linejoin="round" d="m5.61932 13.3535 0 -2.9325c-0.62327 -0.2318 -1.17561 -0.62344 -1.60098 -1.13663 -0.45409 -0.54784 -0.74524 -1.21217 -0.8403 -1.91736 -0.09505 -0.70519 0.0098 -1.4229 0.30263 -2.07142 0.29282 -0.64852 0.76185 -1.20179 1.35369 -1.59683 0.09812 -0.05268 0.20661 -0.08315 0.3178 -0.08926 0.11119 -0.00611 0.22237 0.01229 0.32567 0.0539l0 2.79232c0 0.55228 0.44771 1 1 1l1.02642 0c0.55228 0 0.99999 -0.44772 0.99999 -1l0.00001 -2.87717c0.10363 -0.02483 0.21132 -0.02759 0.31608 -0.0081 0.10477 0.01949 0.20426 0.0608 0.29203 0.12124 0.58358 0.39512 1.04614 0.94436 1.33624 1.58666 0.2901 0.64229 0.3963 1.35246 0.3069 2.05153 -0.0894 0.69907 -0.3709 1.35964 -0.81331 1.90827 -0.40007 0.49615 -0.91751 0.88315 -1.50413 1.12685l-0.04155 2.9781" stroke-width="1"></path></g></svg>