<svg xmlns="http://www.w3.org/2000/svg" fill="none" viewBox="0 0 14 14"><g id="wrench-square--crescent-tool-construction-tools-wrench-setting-edit-adjust"><path id="Union" stroke="#000000" stroke-linecap="round" stroke-linejoin="round" d="M5.61932 13V9.96532c-0.62327 -0.2318 -1.17561 -0.62345 -1.60098 -1.13664 -0.45409 -0.54784 -0.74524 -1.21217 -0.8403 -1.91736 -0.09505 -0.70519 0.0098 -1.4229 0.30263 -2.07142 0.29282 -0.64852 0.76185 -1.2018 1.35369 -1.59683 0.09812 -0.05268 0.20661 -0.08315 0.3178 -0.08926 0.1112 -0.00611 0.22237 0.01229 0.32567 0.0539l0 2.79232c0 0.55228 0.44771 1 1 1l1.02642 0c0.55228 0 0.99999 -0.44772 0.99999 -1V3.12286c0.10363 -0.02483 0.21133 -0.02759 0.31609 -0.0081 0.10477 0.0195 0.20426 0.0608 0.29203 0.12124 0.58358 0.39512 1.04614 0.94437 1.33624 1.58666 0.2901 0.64229 0.3963 1.35246 0.3069 2.05153 -0.0894 0.69907 -0.3709 1.35964 -0.81331 1.90827 -0.40007 0.49615 -0.91751 0.88315 -1.50413 1.12686L8.3965 13" stroke-width="1"></path><path id="Vector 3962" stroke="#000000" stroke-linecap="round" stroke-linejoin="round" d="M12 1H2c-0.55228 0 -1 0.44772 -1 1v10c0 0.5523 0.44772 1 1 1h10c0.5523 0 1 -0.4477 1 -1V2c0 -0.55228 -0.4477 -1 -1 -1Z" stroke-width="1"></path></g></svg>