<svg xmlns="http://www.w3.org/2000/svg" fill="none" viewBox="0 0 14 14"><g id="zoom-document--zoom-magnifier-square-area"><path id="Vector 2125" stroke="#000000" stroke-linecap="round" stroke-linejoin="round" d="M4.5 11.5h-3c-0.552285 0 -1 -0.4477 -1 -1v-9c0 -0.552285 0.447715 -1 1 -1h8c0.5523 0 1 0.447715 1 1v3" stroke-width="1"></path><path id="Vector 2126" stroke="#000000" stroke-linecap="round" stroke-linejoin="round" d="M3 3.5h3" stroke-width="1"></path><path id="Vector 2127" stroke="#000000" stroke-linecap="round" stroke-linejoin="round" d="M3 6h2" stroke-width="1"></path><path id="vector" stroke="#000000" stroke-linecap="round" stroke-linejoin="round" d="M9.5 12.5c1.6569 0 3 -1.3431 3 -3 0 -1.65685 -1.3431 -3 -3 -3 -1.65685 0 -3 1.34315 -3 3 0 1.6569 1.34315 3 3 3Z" stroke-width="1"></path><path id="vector_2" stroke="#000000" stroke-linecap="round" stroke-linejoin="round" d="m13.5 13.5 -1.75 -1.75" stroke-width="1"></path></g></svg>