<svg width="126" height="40" viewBox="0 0 126 40" fill="none" xmlns="http://www.w3.org/2000/svg">
<g id="Full Logo">
<path id="Vector" d="M99.4593 10.0518H95.0875L87.6621 24.7404L80.261 10.0518H75.957C80.6003 19.2592 87.7009 33.366 87.7009 33.366L99.4593 10.0518Z" fill="#F7981D"/>
<path id="Vector_2" d="M65.5418 13.5285C69.1672 13.5285 72.2207 16.0143 73.0544 19.3607H58.0292C58.8629 16.0191 61.9164 13.5285 65.5418 13.5285ZM65.5418 28.8806C61.9164 28.8806 58.8629 26.3949 58.0292 23.0533H77.0094V21.207C77.0094 14.9373 71.8669 9.83594 65.5418 9.83594C59.2167 9.83594 54.0742 14.9373 54.0742 21.207C54.0742 27.4767 59.2215 32.578 65.5418 32.578C69.8894 32.578 73.7475 30.1836 75.6911 26.5055H71.1447C69.7198 27.9815 67.7229 28.8806 65.5418 28.8806Z" fill="#F7981D"/>
<path id="Vector_3" d="M109.799 28.9627C105.529 28.9627 102.058 25.5153 102.058 21.289C102.058 17.0627 105.533 13.6154 109.799 13.6154C114.064 13.6154 117.462 16.9906 117.534 21.164V21.4188C117.466 25.5922 114.025 28.9675 109.799 28.9675M121.266 21.2938C121.266 21.2554 121.266 21.2121 121.266 21.164V10.1151H117.539V12.9182C115.499 11.0623 112.789 9.91797 109.804 9.91797C103.483 9.91797 98.3359 15.0193 98.3359 21.289C98.3359 27.5587 103.483 32.6601 109.804 32.6601C112.784 32.6601 115.494 31.5157 117.539 29.6598V32.4822H121.266V21.414C121.266 21.3707 121.266 21.3275 121.266 21.289" fill="#F7981D"/>
<path id="Vector_4" d="M40.0955 13.5285C43.7209 13.5285 46.7696 16.0143 47.6081 19.3607H32.5781C33.4166 16.0191 36.4652 13.5285 40.0955 13.5285ZM40.0955 28.8806C36.4652 28.8806 33.4166 26.3949 32.5781 23.0533H51.5582V21.207C51.5582 14.9373 46.4157 9.83594 40.0906 9.83594C33.7655 9.83594 28.623 14.9373 28.623 21.207C28.623 27.4767 33.7655 32.578 40.0906 32.578C44.4334 32.578 48.2915 30.1836 50.2351 26.5055H45.6887C44.2686 27.9815 42.2669 28.8806 40.0906 28.8806" fill="#F7981D"/>
<path id="Vector_5" d="M4.73438 6.59961H9.33886L18.1068 24.0721L26.8117 6.59961H31.3289L18.0583 33.3324L4.73438 6.59961Z" fill="#F7981D"/>
<path id="Vector_6" opacity="0.2" d="M12.043 6.6482L18.0385 18.5097L24.0243 6.6482C24.0243 6.6482 12.043 6.62896 12.043 6.6482Z" fill="#F7981D"/>
</g>
</svg>
