<svg width="120" height="39" viewBox="0 0 120 39" fill="none" xmlns="http://www.w3.org/2000/svg">
<g id="Full Logo">
<path id="Vector" d="M95.0036 9.77295H90.8066L83.6783 24.0535L76.5732 9.77295H72.4414C76.8989 18.7246 83.7155 32.4396 83.7155 32.4396L95.0036 9.77295Z" fill="white"/>
<path id="Vector_2" d="M62.4386 13.1525C65.919 13.1525 68.8503 15.5692 69.6507 18.8227H55.2265C56.0268 15.5739 58.9582 13.1525 62.4386 13.1525ZM62.4386 28.0782C58.9582 28.0782 56.0268 25.6615 55.2265 22.4127H73.4475V20.6177C73.4475 14.5221 68.5107 9.5625 62.4386 9.5625C56.3665 9.5625 51.4297 14.5221 51.4297 20.6177C51.4297 26.7132 56.3711 31.6729 62.4386 31.6729C66.6123 31.6729 70.316 29.345 72.1819 25.769H67.8174C66.4494 27.204 64.5324 28.0782 62.4386 28.0782Z" fill="white"/>
<path id="Vector_3" d="M104.926 28.1578C100.827 28.1578 97.4953 24.8062 97.4953 20.6973C97.4953 16.5884 100.832 13.2368 104.926 13.2368C109.021 13.2368 112.282 16.5183 112.352 20.5757V20.8235C112.287 24.8809 108.983 28.1624 104.926 28.1624M115.935 20.7019C115.935 20.6645 115.935 20.6225 115.935 20.5757V9.83374H112.357V12.559C110.398 10.7546 107.797 9.64209 104.931 9.64209C98.8633 9.64209 93.9219 14.6017 93.9219 20.6973C93.9219 26.7928 98.8633 31.7525 104.931 31.7525C107.792 31.7525 110.393 30.6399 112.357 28.8356V31.5795H115.935V20.8188C115.935 20.7767 115.935 20.7347 115.935 20.6973" fill="white"/>
<path id="Vector_4" d="M38.0135 13.1525C41.4939 13.1525 44.4207 15.5692 45.2256 18.8227H30.7968C31.6018 15.5739 34.5285 13.1525 38.0135 13.1525ZM38.0135 28.0782C34.5285 28.0782 31.6018 25.6615 30.7968 22.4127H49.0178V20.6177C49.0178 14.5221 44.081 9.5625 38.0089 9.5625C31.9368 9.5625 27 14.5221 27 20.6177C27 26.7132 31.9368 31.6729 38.0089 31.6729C42.1779 31.6729 45.8817 29.345 47.7475 25.769H43.383C42.0197 27.204 40.0981 28.0782 38.0089 28.0782" fill="white"/>
<path id="Vector_5" d="M4.06641 6.4165H8.48671L16.9039 23.4036L25.2606 6.4165H29.5972L16.8574 32.4067L4.06641 6.4165Z" fill="white"/>
<path id="Vector_6" d="M11.082 6.46339L16.8377 17.9954L22.5841 6.46339C22.5841 6.46339 11.082 6.44469 11.082 6.46339Z" fill="white"/>
</g>
</svg>
