<svg xmlns="http://www.w3.org/2000/svg" fill="none" viewBox="0 0 14 14"><g id="3d-rotate-2"><path id="Vector 2076" stroke="#000000" stroke-linecap="round" stroke-linejoin="round" d="M4.60349 7.35314c-0.19523 -0.19528 -0.19521 -0.51184 0.00006 -0.70708L6.6463 4.60348c0.19525 -0.19523 0.51179 -0.19524 0.70705 -0.00002l2.04303 2.04257c0.1953 0.19525 0.19532 0.51185 0.00006 0.70713L7.35341 9.39638c-0.19528 0.19529 -0.5119 0.19528 -0.70717 -0.00003L4.60349 7.35314Z" stroke-width="1"></path><path id="Vector" stroke="#000000" stroke-linecap="round" stroke-linejoin="round" d="M12.4785 3.5c-1.1551 -1.80416 -3.17696 -3 -5.47817 -3C3.41048 0.5 0.500334 3.41015 0.500334 7" stroke-width="1"></path><path id="Vector_2" stroke="#000000" stroke-linecap="round" stroke-linejoin="round" d="M1.52182 10.5c1.15507 1.8042 3.17697 3 5.47818 3 3.5899 0 6.5 -2.9101 6.5 -6.5" stroke-width="1"></path><path id="Vector 4482" stroke="#000000" stroke-linecap="round" stroke-linejoin="round" d="M12.5 1v2.5H10" stroke-width="1"></path><path id="Vector 4483" stroke="#000000" stroke-linecap="round" stroke-linejoin="round" d="M1.5 13v-2.5H4" stroke-width="1"></path></g></svg>