<svg xmlns="http://www.w3.org/2000/svg" fill="none" viewBox="0 0 14 14"><g id="3d-rotate-z-axis"><path id="Ellipse 1853" stroke="#000000" stroke-linecap="round" stroke-linejoin="round" d="M13.5 7C13.5 3.41015 10.5899 0.5 7 0.5 4.29774 0.5 1.98062 2.14899 1 4.4956" stroke-width="1"></path><path id="Ellipse 1854" stroke="#000000" stroke-linecap="round" stroke-linejoin="round" d="M13 9.50439c-0.2919 0.69851 -0.7022 1.33521 -1.2059 1.88501" stroke-width="1"></path><path id="Ellipse 1855" stroke="#000000" stroke-linecap="round" stroke-linejoin="round" d="M6.99999 13.5c0.88759 0 1.73363 -0.1779 2.5044 -0.5" stroke-width="1"></path><path id="Ellipse 1856" stroke="#000000" stroke-linecap="round" stroke-linejoin="round" d="M4.31543 12.9214c-0.62512 -0.2838 -1.19736 -0.6638 -1.69784 -1.121" stroke-width="1"></path><path id="Ellipse 1857" stroke="#000000" stroke-linecap="round" stroke-linejoin="round" d="M0.576448 8C0.657488 8.52483 0.80131 9.02894 1 9.5044" stroke-width="1"></path><path id="Vector 4411" stroke="#000000" stroke-linecap="round" stroke-linejoin="round" d="M4 4.5H0.5V1" stroke-width="1"></path><path id="Ellipse 1114" stroke="#000000" stroke-linecap="round" stroke-linejoin="round" d="M6.5 7a0.5 0.5 0 1 0 1 0 0.5 0.5 0 1 0 -1 0" stroke-width="1"></path></g></svg>