<svg xmlns="http://www.w3.org/2000/svg" fill="none" viewBox="0 0 14 14"><g id="address-field--input-address-location-gps-pin-internet-form-fill"><path id="Vector" stroke="#000000" stroke-linecap="round" stroke-linejoin="round" d="M5.5 9.5h-4c-0.26522 0 -0.51957 -0.10536 -0.707107 -0.29289C0.605357 9.01957 0.5 8.76522 0.5 8.5v-6c0 -0.26522 0.105357 -0.51957 0.292893 -0.70711C0.98043 1.60536 1.23478 1.5 1.5 1.5h11c0.2652 0 0.5196 0.10536 0.7071 0.29289 0.1875 0.18754 0.2929 0.44189 0.2929 0.70711v1.25" stroke-width="1"></path><path id="Vector_2" stroke="#000000" stroke-linecap="round" stroke-linejoin="round" d="M3.5 4.5v2" stroke-width="1"></path><path id="Ellipse 1698" stroke="#000000" stroke-linecap="round" stroke-linejoin="round" d="M13.5 8c0 2.5 -3 4.5 -3 4.5s-3 -2 -3 -4.5c0 -1.65685 1.34315 -3 3 -3 1.6569 0 3 1.34315 3 3Z" stroke-width="1"></path><path id="Vector_3" stroke="#000000" stroke-linecap="round" stroke-linejoin="round" d="M10.5 8.5c0.2761 0 0.5 -0.22386 0.5 -0.5s-0.2239 -0.5 -0.5 -0.5 -0.5 0.22386 -0.5 0.5 0.2239 0.5 0.5 0.5Z" stroke-width="1"></path></g></svg>