<svg xmlns="http://www.w3.org/2000/svg" fill="none" viewBox="0 0 14 14"><g id="affordable-and-clean-energy"><path id="Vector" stroke="#000000" stroke-linecap="round" stroke-linejoin="round" d="M7 10.75c2.07107 0 3.75 -1.67893 3.75 -3.75 0 -2.07107 -1.67893 -3.75 -3.75 -3.75 -2.07107 0 -3.75 1.67893 -3.75 3.75 0 2.07107 1.67893 3.75 3.75 3.75Z" stroke-width="1"></path><path id="Vector_2" stroke="#000000" stroke-linecap="round" stroke-linejoin="round" d="M5.5 6.09808c-0.1587 0.26339 -0.25 0.57198 -0.25 0.9019 0 0.9665 0.7835 1.75 1.75 1.75s1.75 -0.7835 1.75 -1.75c0 -0.32992 -0.0913 -0.63851 -0.25 -0.9019" stroke-width="1"></path><path id="Vector 4547" stroke="#000000" stroke-linecap="round" stroke-linejoin="round" d="M7 5v1" stroke-width="1"></path><path id="Vector_3" stroke="#000000" stroke-linecap="round" stroke-linejoin="round" d="M7 0.5v1" stroke-width="1"></path><path id="Vector_4" stroke="#000000" stroke-linecap="round" stroke-linejoin="round" d="M7 12.5v1" stroke-width="1"></path><path id="Vector_5" stroke="#000000" stroke-linecap="round" stroke-linejoin="round" d="M13.5 7h-1" stroke-width="1"></path><path id="Vector_6" stroke="#000000" stroke-linecap="round" stroke-linejoin="round" d="M1.5 7h-1" stroke-width="1"></path><path id="Vector_7" stroke="#000000" stroke-linecap="round" stroke-linejoin="round" d="m11.6 2.40002 -0.71 0.71" stroke-width="1"></path><path id="Vector_8" stroke="#000000" stroke-linecap="round" stroke-linejoin="round" d="m3.11002 10.89 -0.71 0.71" stroke-width="1"></path><path id="Vector_9" stroke="#000000" stroke-linecap="round" stroke-linejoin="round" d="m11.6 11.6 -0.71 -0.71" stroke-width="1"></path><path id="Vector_10" stroke="#000000" stroke-linecap="round" stroke-linejoin="round" d="m3.11002 3.11002 -0.71 -0.71" stroke-width="1"></path></g></svg>