<svg xmlns="http://www.w3.org/2000/svg" fill="none" viewBox="0 0 14 14"><g id="ai-chat-spark--bubble-conversation-message-artificial-intelligence-ai"><path id="Vector" stroke="#000000" stroke-linecap="round" stroke-linejoin="round" d="M13.5 7v4.5c0 0.2652 -0.1054 0.5196 -0.2929 0.7071s-0.4419 0.2929 -0.7071 0.2929h-8l-4 1 1 -3v-9c0 -0.26522 0.10536 -0.51957 0.29289 -0.707107C1.98043 0.605357 2.23478 0.5 2.5 0.5h4" stroke-width="1"></path><path id="Vector 2136" stroke="#000000" stroke-linecap="round" stroke-linejoin="round" d="M7.2632 3.93395c-0.35093 -0.06105 -0.35093 -0.56483 0 -0.62588C8.53455 3.08689 9.54574 2.11853 9.82169 0.857921l0.02116 -0.096629c0.07592 -0.346833 0.56975 -0.348992 0.64875 -0.002836l0.0257 0.11261c0.2861 1.254654 1.2976 2.214844 2.5654 2.435404 0.3527 0.06137 0.3527 0.56771 0 0.62907 -1.2678 0.22057 -2.2793 1.18076 -2.5654 2.43541l-0.0257 0.11261c-0.079 0.34616 -0.57283 0.344 -0.64875 -0.00283l-0.02116 -0.09663C9.54574 5.1235 8.53455 4.15513 7.2632 3.93395Z" stroke-width="1"></path></g></svg>