<svg xmlns="http://www.w3.org/2000/svg" fill="none" viewBox="0 0 14 14"><g id="ai-cloud-robot--cloud-internet-server-network-artificial-intelligence-ai"><path id="Rectangle 721" stroke="#000000" stroke-linecap="round" stroke-linejoin="round" d="M4 12c0 -1.6569 1.34315 -3 3 -3v0c1.65685 0 3 1.3431 3 3v0.5c0 0.5523 -0.44772 1 -1 1H5c-0.55228 0 -1 -0.4477 -1 -1V12Z" stroke-width="1"></path><g id="Group 627"><path id="Vector" stroke="#000000" stroke-linecap="round" stroke-linejoin="round" d="M5.75 11.75c-0.13807 0 -0.25 -0.1119 -0.25 -0.25s0.11193 -0.25 0.25 -0.25" stroke-width="1"></path><path id="Vector_2" stroke="#000000" stroke-linecap="round" stroke-linejoin="round" d="M5.75 11.75c0.13807 0 0.25 -0.1119 0.25 -0.25s-0.11193 -0.25 -0.25 -0.25" stroke-width="1"></path></g><g id="Group 628"><path id="Vector_3" stroke="#000000" stroke-linecap="round" stroke-linejoin="round" d="M8.25 11.75c-0.13807 0 -0.25 -0.1119 -0.25 -0.25s0.11193 -0.25 0.25 -0.25" stroke-width="1"></path><path id="Vector_4" stroke="#000000" stroke-linecap="round" stroke-linejoin="round" d="M8.25 11.75c0.13807 0 0.25 -0.1119 0.25 -0.25s-0.11193 -0.25 -0.25 -0.25" stroke-width="1"></path></g><path id="Vector 2678" stroke="#000000" stroke-linecap="round" stroke-linejoin="round" d="M7 9V7.5" stroke-width="1"></path><path id="Vector_5" stroke="#000000" stroke-linecap="round" stroke-linejoin="round" d="M11.7801 9.40558c0.2918 -0.118 0.5634 -0.2865 0.8014 -0.50035 0.4969 -0.44659 0.8129 -1.0599 0.8881 -1.72382 0.0751 -0.66391 -0.0958 -1.33233 -0.4804 -1.8787 -0.3846 -0.54636 -0.9562 -0.93273 -1.6066 -1.08595 -0.0449 -0.0134 -0.085 -0.03938 -0.1157 -0.07485 -0.0306 -0.03548 -0.0505 -0.07898 -0.0572 -0.12537 -0.0804 -0.88109 -0.4604 -1.70799 -1.0767 -2.3428C9.51675 1.03893 8.70148 0.634575 7.82316 0.528112 6.94484 0.421649 6.05657 0.619511 5.30647 1.0887c-0.75009 0.46919 -1.31667 1.18135 -1.60524 2.01772 -0.01909 0.03899 -0.04895 0.07171 -0.08604 0.09429 -0.0371 0.02258 -0.07987 0.03407 -0.12329 0.03312 -0.41831 0.02809 -0.827 0.13829 -1.20272 0.32433 -0.37573 0.18603 -0.71113 0.44424 -0.98706 0.7599C0.744843 4.95555 0.463638 5.7883 0.520362 6.63313s0.44673 1.63252 1.084218 2.18979c0.30458 0.26624 0.63664 0.45653 1.00069 0.58266" stroke-width="1"></path></g></svg>