<svg xmlns="http://www.w3.org/2000/svg" fill="none" viewBox="0 0 14 14"><g id="ai-file-spark--document-paper-artificial-intellitence-ai"><path id="Vector" stroke="#000000" stroke-linecap="round" stroke-linejoin="round" d="M2.42365 5.5v-4c0 -0.26522 0.10535 -0.51957 0.29289 -0.707107C2.90407 0.605357 3.15843 0.5 3.42365 0.5h6.5L13.4236 4v8.5c0 0.2652 -0.1053 0.5196 -0.2928 0.7071 -0.1876 0.1875 -0.4419 0.2929 -0.7072 0.2929H6.42365" stroke-width="1"></path><path id="Vector 2136" stroke="#000000" stroke-linecap="round" stroke-linejoin="round" d="M0.839552 10.6919c-0.350929 -0.061 -0.35093 -0.5648 0 -0.6258C2.11091 9.84487 3.1221 8.87651 3.39805 7.6159l0.02115 -0.09663c0.07593 -0.34683 0.56977 -0.34899 0.64872 -0.00283l0.02569 0.11261c0.28616 1.25465 1.29762 2.21484 2.56545 2.43545 0.35272 0.0613 0.35272 0.5677 0 0.629 -1.26783 0.2206 -2.27929 1.1808 -2.56545 2.4354l-0.02569 0.1126c-0.07895 0.3462 -0.57279 0.344 -0.64872 -0.0028l-0.02115 -0.0966c-0.27595 -1.2606 -1.28714 -2.229 -2.558498 -2.4502Z" stroke-width="1"></path></g></svg>