<svg xmlns="http://www.w3.org/2000/svg" fill="none" viewBox="0 0 14 14"><g id="ai-generate-music-robot--music-audio-note-entertainment-artificial-intelligence-ai"><path id="Rectangle 721" stroke="#000000" stroke-linecap="round" stroke-linejoin="round" d="M7.5 5c0 -1.65685 1.34315 -3 3 -3v0c1.6569 0 3 1.34315 3 3v0.5c0 0.55228 -0.4477 1 -1 1h-4c-0.55228 0 -1 -0.44772 -1 -1V5Z" stroke-width="1"></path><g id="Group 627"><path id="Vector" stroke="#000000" stroke-linecap="round" stroke-linejoin="round" d="M9.25 4.75c-0.13807 0 -0.25 -0.11193 -0.25 -0.25s0.11193 -0.25 0.25 -0.25" stroke-width="1"></path><path id="Vector_2" stroke="#000000" stroke-linecap="round" stroke-linejoin="round" d="M9.25 4.75c0.13807 0 0.25 -0.11193 0.25 -0.25s-0.11193 -0.25 -0.25 -0.25" stroke-width="1"></path></g><g id="Group 628"><path id="Vector_3" stroke="#000000" stroke-linecap="round" stroke-linejoin="round" d="M11.75 4.75c-0.1381 0 -0.25 -0.11193 -0.25 -0.25s0.1119 -0.25 0.25 -0.25" stroke-width="1"></path><path id="Vector_4" stroke="#000000" stroke-linecap="round" stroke-linejoin="round" d="M11.75 4.75c0.1381 0 0.25 -0.11193 0.25 -0.25s-0.1119 -0.25 -0.25 -0.25" stroke-width="1"></path></g><path id="Vector 2678" stroke="#000000" stroke-linecap="round" stroke-linejoin="round" d="M10.5 2V0.5" stroke-width="1"></path><path id="vector" stroke="#000000" stroke-linecap="round" stroke-linejoin="round" d="M2.09674 13.5001c0.88186 0 1.59674 -0.7149 1.59674 -1.5967 0 -0.8819 -0.71488 -1.5968 -1.59674 -1.5968C1.21489 10.3066 0.5 11.0215 0.5 11.9034c0 0.8818 0.71489 1.5967 1.59674 1.5967Z" stroke-width="1"></path><path id="vector_2" stroke="#000000" stroke-linecap="round" stroke-linejoin="round" d="M9.28204 11.504c0.88186 0 1.59676 -0.7149 1.59676 -1.59671 0 -0.88186 -0.7149 -1.59674 -1.59676 -1.59674 -0.88185 0 -1.59674 0.71488 -1.59674 1.59674 0 0.88181 0.71489 1.59671 1.59674 1.59671Z" stroke-width="1"></path><path id="vector_3" stroke="#000000" stroke-linecap="round" stroke-linejoin="round" d="M3.6936 11.9034V5.42062c0.00049 -0.08741 0.02966 -0.17224 0.08302 -0.24146 0.05337 -0.06923 0.12798 -0.11903 0.21238 -0.14176L5.5 4.60425" stroke-width="1"></path><path id="vector_4" stroke="#000000" stroke-linecap="round" stroke-linejoin="round" d="m3.6936 7.51214 2.38964 -0.66379" stroke-width="1"></path><path id="vector_5" stroke="#000000" stroke-linecap="round" stroke-linejoin="round" d="m10.8789 9.90739 0 -1.90739" stroke-width="1"></path></g></svg>