<svg xmlns="http://www.w3.org/2000/svg" fill="none" viewBox="0 0 14 14"><g id="ai-generate-variation-spark--module-application-artificial-intelligence-ai"><g id="Group 631"><path id="Vector" stroke="#000000" stroke-linecap="round" stroke-linejoin="round" d="M5.28092 8.23096H1.13134c-0.269614 0 -0.488182 0.21857 -0.488182 0.48818v4.14956c0 0.2696 0.218568 0.4882 0.488182 0.4882h4.14958c0.26962 0 0.48819 -0.2186 0.48819 -0.4882V8.71914c0 -0.26961 -0.21857 -0.48818 -0.48819 -0.48818Z" stroke-width="1"></path><path id="Vector_2" stroke="#000000" stroke-linecap="round" stroke-linejoin="round" d="M12.8687 8.23096H8.71908c-0.26962 0 -0.48818 0.21857 -0.48818 0.48818v4.14956c0 0.2696 0.21856 0.4882 0.48818 0.4882h4.14962c0.2696 0 0.4881 -0.2186 0.4881 -0.4882V8.71914c0 -0.26961 -0.2185 -0.48818 -0.4881 -0.48818Z" stroke-width="1"></path><path id="Vector_3" stroke="#000000" stroke-linecap="round" stroke-linejoin="round" d="M5.28092 0.643097H1.13134c-0.269614 0 -0.488182 0.218568 -0.488182 0.488183v4.14958c0 0.26962 0.218568 0.48819 0.488182 0.48819h4.14958c0.26962 0 0.48819 -0.21857 0.48819 -0.48819V1.13128c0 -0.269615 -0.21857 -0.488183 -0.48819 -0.488183Z" stroke-width="1"></path><path id="Vector 2136" stroke="#000000" stroke-linecap="round" stroke-linejoin="round" d="M8.14554 3.58442c-0.30058 -0.05229 -0.30058 -0.48379 0 -0.53609C9.23452 2.85888 10.1006 2.02943 10.337 0.949672l0.0181 -0.082767c0.0651 -0.297078 0.4881 -0.298927 0.5557 -0.002429l0.022 0.096455c0.2451 1.074669 1.1115 1.897109 2.1974 2.086029 0.3021 0.05257 0.3021 0.48627 0 0.53883 -1.0859 0.18893 -1.9523 1.01137 -2.1974 2.08603l-0.022 0.09646c-0.0676 0.2965 -0.4906 0.29465 -0.5557 -0.00243l-0.0181 -0.08276c-0.2364 -1.07977 -1.10248 -1.90921 -2.19146 -2.09867Z" stroke-width="1"></path></g></g></svg>