<svg xmlns="http://www.w3.org/2000/svg" fill="none" viewBox="0 0 14 14"><g id="ai-generate-landscape-image-robot--picture-photography-photo-image-artificial-intelligence-ai"><path id="Vector" stroke="#000000" stroke-linecap="round" stroke-linejoin="round" d="M5 10.5H1.5c-0.26522 0 -0.51957 -0.1054 -0.707107 -0.2929C0.605357 10.0196 0.5 9.76522 0.5 9.5v-8c0 -0.26522 0.105357 -0.51957 0.292893 -0.707107C0.98043 0.605357 1.23478 0.5 1.5 0.5h8c0.26522 0 0.5196 0.105357 0.7071 0.292893 0.1875 0.187537 0.2929 0.441887 0.2929 0.707107V5" stroke-width="1"></path><path id="Intersect" stroke="#000000" stroke-linecap="round" stroke-linejoin="round" d="M0.5 6.6039C0.877607 6.53564 1.26656 6.5 1.66384 6.5c1.57941 0 3.02725 0.56332 4.15357 1.5" stroke-width="1"></path><path id="Vector_2" stroke="#000000" stroke-linecap="round" stroke-linejoin="round" d="M6.25 5.5c0.69036 0 1.25 -0.55964 1.25 -1.25S6.94036 3 6.25 3 5 3.55964 5 4.25 5.55964 5.5 6.25 5.5Z" stroke-width="1"></path><path id="Rectangle 721" stroke="#000000" stroke-linecap="round" stroke-linejoin="round" d="M7.5 12c0 -1.6569 1.34315 -3 3 -3v0c1.6569 0 3 1.3431 3 3v0.5c0 0.5523 -0.4477 1 -1 1h-4c-0.55228 0 -1 -0.4477 -1 -1V12Z" stroke-width="1"></path><g id="Group 627"><path id="Vector_3" stroke="#000000" stroke-linecap="round" stroke-linejoin="round" d="M9.25 11.75c-0.13807 0 -0.25 -0.1119 -0.25 -0.25s0.11193 -0.25 0.25 -0.25" stroke-width="1"></path><path id="Vector_4" stroke="#000000" stroke-linecap="round" stroke-linejoin="round" d="M9.25 11.75c0.13807 0 0.25 -0.1119 0.25 -0.25s-0.11193 -0.25 -0.25 -0.25" stroke-width="1"></path></g><g id="Group 628"><path id="Vector_5" stroke="#000000" stroke-linecap="round" stroke-linejoin="round" d="M11.75 11.75c-0.1381 0 -0.25 -0.1119 -0.25 -0.25s0.1119 -0.25 0.25 -0.25" stroke-width="1"></path><path id="Vector_6" stroke="#000000" stroke-linecap="round" stroke-linejoin="round" d="M11.75 11.75c0.1381 0 0.25 -0.1119 0.25 -0.25s-0.1119 -0.25 -0.25 -0.25" stroke-width="1"></path></g><path id="Vector 2678" stroke="#000000" stroke-linecap="round" stroke-linejoin="round" d="M10.5 9V7.5" stroke-width="1"></path></g></svg>