<svg xmlns="http://www.w3.org/2000/svg" fill="none" viewBox="0 0 14 14"><g id="ai-generate-voice-spark-2--mic-audio-mike-microphone-artificial-intelligence-ai"><path id="Vector 2679" stroke="#000000" stroke-linecap="round" stroke-linejoin="round" d="M0.576416 8.81873v0c0 2.06827 1.676704 3.74497 3.745014 3.74497v0c2.06832 0 3.74501 -1.6767 3.74501 -3.74497v0" stroke-width="1"></path><path id="Rectangle 722" stroke="#000000" stroke-linecap="round" stroke-linejoin="round" d="M2.44885 6.4781c0 -1.03416 0.83835 -1.87251 1.87251 -1.87251s1.87251 0.83835 1.87251 1.87251v2.34063c0 1.03416 -0.83835 1.87247 -1.87251 1.87247s-1.87251 -0.83831 -1.87251 -1.87247V6.4781Z" stroke-width="1"></path><path id="Vector 2680" stroke="#000000" stroke-linecap="round" stroke-linejoin="round" d="M4.32141 12.5638V13.5" stroke-width="1"></path><path id="Vector 2136" stroke="#000000" stroke-linecap="round" stroke-linejoin="round" d="M7.33961 3.93395c-0.35093 -0.06105 -0.35093 -0.56483 0 -0.62588 1.27136 -0.22118 2.28255 -1.18954 2.5585 -2.450149l0.02115 -0.096629C9.99519 0.414459 10.489 0.4123 10.568 0.758456l0.0257 0.11261c0.2861 1.254654 1.2976 2.214844 2.5654 2.435404 0.3527 0.06137 0.3527 0.56771 0 0.62907 -1.2678 0.22057 -2.2793 1.18076 -2.5654 2.43541l-0.0257 0.11261c-0.079 0.34616 -0.57281 0.344 -0.64874 -0.00283l-0.02115 -0.09663c-0.27595 -1.2606 -1.28714 -2.22897 -2.5585 -2.45015Z" stroke-width="1"></path></g></svg>