<svg xmlns="http://www.w3.org/2000/svg" fill="none" viewBox="0 0 14 14"><g id="ai-generate-voice-spark-1--soundwave-sound-voice-audio-artificial-intelligence-ai"><path id="Vector" stroke="#000000" stroke-linecap="round" stroke-linejoin="round" d="M0.5 2v11" stroke-width="1"></path><path id="Vector_2" stroke="#000000" stroke-linecap="round" stroke-linejoin="round" d="m5.70001 5.5 0 5.5" stroke-width="1"></path><path id="Vector_3" stroke="#000000" stroke-linecap="round" stroke-linejoin="round" d="M3.09998 5.5v4" stroke-width="1"></path><path id="Vector_4" stroke="#000000" stroke-linecap="round" stroke-linejoin="round" d="M13.5 7v6" stroke-width="1"></path><path id="Vector_5" stroke="#000000" stroke-linecap="round" stroke-linejoin="round" d="M10.9 9.5V11" stroke-width="1"></path><path id="Vector_6" stroke="#000000" stroke-linecap="round" stroke-linejoin="round" d="M8.29999 8.5v1" stroke-width="1"></path><path id="Vector 2136" stroke="#000000" stroke-linecap="round" stroke-linejoin="round" d="M7.41597 4.43395c-0.35093 -0.06105 -0.35093 -0.56483 0 -0.62588 1.27136 -0.22118 2.28254 -1.18954 2.5585 -2.45015l0.02115 -0.09663c0.07588 -0.346831 0.56978 -0.34899 0.64868 -0.00283l0.0257 0.11261c0.2862 1.25465 1.2976 2.21484 2.5655 2.4354 0.3527 0.06137 0.3527 0.56771 0 0.62907 -1.2679 0.22057 -2.2793 1.18076 -2.5655 2.43541l-0.0257 0.11261c-0.0789 0.34616 -0.5728 0.344 -0.64868 -0.00283l-0.02115 -0.09663c-0.27596 -1.2606 -1.28714 -2.22897 -2.5585 -2.45015Z" stroke-width="1"></path></g></svg>