<svg xmlns="http://www.w3.org/2000/svg" fill="none" viewBox="0 0 14 14"><g id="ai-generate-video-camera-robot--television-movies-tv-media-video-entertainment-artificial-intelligence-ai"><path id="Rectangle 721" stroke="#000000" stroke-linecap="round" stroke-linejoin="round" d="M0.5 11.5c0 -1.65685 1.34315 -3 3 -3v0c1.65685 0 3 1.34315 3 3v0.5c0 0.5523 -0.44772 1 -1 1h-4c-0.552285 0 -1 -0.4477 -1 -1v-0.5Z" stroke-width="1"></path><g id="Group 627"><path id="Vector" stroke="#000000" stroke-linecap="round" stroke-linejoin="round" d="M2.25 11.25c-0.13807 0 -0.25 -0.1119 -0.25 -0.25s0.11193 -0.25 0.25 -0.25" stroke-width="1"></path><path id="Vector_2" stroke="#000000" stroke-linecap="round" stroke-linejoin="round" d="M2.25 11.25c0.13807 0 0.25 -0.1119 0.25 -0.25s-0.11193 -0.25 -0.25 -0.25" stroke-width="1"></path></g><g id="Group 628"><path id="Vector_3" stroke="#000000" stroke-linecap="round" stroke-linejoin="round" d="M4.75 11.25c-0.13807 0 -0.25 -0.1119 -0.25 -0.25s0.11193 -0.25 0.25 -0.25" stroke-width="1"></path><path id="Vector_4" stroke="#000000" stroke-linecap="round" stroke-linejoin="round" d="M4.75 11.25c0.13807 0 0.25 -0.1119 0.25 -0.25s-0.11193 -0.25 -0.25 -0.25" stroke-width="1"></path></g><path id="Vector 2678" stroke="#000000" stroke-linecap="round" stroke-linejoin="round" d="M3.5 8.5V7" stroke-width="1"></path><path id="Vector_5" stroke="#000000" stroke-linecap="round" stroke-linejoin="round" d="M2.5 5V2c0 -0.26522 0.10536 -0.51957 0.29289 -0.70711C2.98043 1.10536 3.23478 1 3.5 1h6c0.26522 0 0.5196 0.10536 0.7071 0.29289 0.1875 0.18754 0.2929 0.44189 0.2929 0.70711v1.5l2.32 -1.25c0.076 -0.02934 0.1581 -0.03965 0.239 -0.03004 0.0809 0.00962 0.1583 0.03886 0.2253 0.0852 0.067 0.04633 0.1217 0.10835 0.1593 0.18065 0.0376 0.07231 0.057 0.1527 0.0564 0.23419v4.56c0.0006 0.08149 -0.0188 0.16189 -0.0564 0.23419 -0.0376 0.0723 -0.0923 0.13432 -0.1593 0.18065 -0.067 0.04634 -0.1444 0.07558 -0.2253 0.0852 -0.0809 0.00961 -0.163 -0.0007 -0.239 -0.03004L10.5 6.5V8c0 0.26522 -0.1054 0.51957 -0.2929 0.70711C10.0196 8.89464 9.76522 9 9.5 9H9" stroke-width="1"></path></g></svg>