<svg xmlns="http://www.w3.org/2000/svg" fill="none" viewBox="0 0 14 14"><g id="ai-generate-video-camera-spark--television-movies-tv-media-video-entertainment-artificial-intelligence-ai"><path id="Vector" stroke="#000000" stroke-linecap="round" stroke-linejoin="round" d="M2.42365 4.78979v-3c0 -0.26521 0.10535 -0.51957 0.29289 -0.7071 0.18753 -0.187538 0.44189 -0.292895 0.70711 -0.292895h6c0.26521 0 0.51957 0.105357 0.70715 0.292895 0.1875 0.18753 0.2928 0.44189 0.2928 0.7071v1.5l2.32 -1.25c0.0761 -0.02933 0.1581 -0.03965 0.239 -0.03003 0.081 0.00961 0.1583 0.03886 0.2253 0.08519 0.0671 0.04634 0.1218 0.10836 0.1594 0.18066 0.0376 0.0723 0.0569 0.15269 0.0563 0.23418v4.56c0.0006 0.08149 -0.0187 0.16189 -0.0563 0.23419 -0.0376 0.07231 -0.0923 0.13432 -0.1594 0.18066 -0.067 0.04633 -0.1443 0.07558 -0.2253 0.08519 -0.0809 0.00962 -0.1629 -0.0007 -0.239 -0.03004l-2.32 -1.25v1.5c0 0.26522 -0.1053 0.51958 -0.2928 0.70711 -0.18758 0.18754 -0.44194 0.29289 -0.70715 0.29289h-0.5" stroke-width="1"></path><path id="Vector 2136" stroke="#000000" stroke-linecap="round" stroke-linejoin="round" d="M0.839552 10.4021c-0.350929 -0.061 -0.35093 -0.56479 0 -0.62584C2.11091 9.55507 3.1221 8.58671 3.39805 7.32611l0.02115 -0.09663c0.07593 -0.34684 0.56977 -0.34899 0.64872 -0.00284l0.02569 0.11261c0.28616 1.25466 1.29762 2.21484 2.56545 2.43541 0.35272 0.06136 0.35272 0.56774 0 0.62904 -1.26783 0.2206 -2.27929 1.1808 -2.56545 2.4354l-0.02569 0.1126c-0.07895 0.3462 -0.57279 0.344 -0.64872 -0.0028l-0.02115 -0.0966c-0.27595 -1.2606 -1.28714 -2.229 -2.558498 -2.4502Z" stroke-width="1"></path></g></svg>