<svg xmlns="http://www.w3.org/2000/svg" fill="none" viewBox="0 0 14 14"><g id="ai-generate-video-robot--screen-television-display-player-movies-players-tv-media-video-entertainment-artificial-intelligence-ai"><path id="Vector" stroke="#000000" stroke-linecap="round" stroke-linejoin="round" d="M11 5.5v-4c0 -0.552285 -0.4477 -1 -1 -1H1.5c-0.552285 0 -1 0.447715 -1 1V10c0 0.5523 0.447715 1 1 1H5" stroke-width="1"></path><path id="Vector_2" stroke="#000000" stroke-linecap="round" stroke-linejoin="round" d="M3.74992 7.64009v-3.78c-0.00076 -0.06454 0.01584 -0.1281 0.04808 -0.18402 0.03223 -0.05592 0.0789 -0.10214 0.13513 -0.13384 0.05623 -0.03169 0.11994 -0.04768 0.18447 -0.0463 0.06453 0.00138 0.1275 0.02009 0.18232 0.05416l3.27 1.89c0.0539 0.03182 0.09858 0.07716 0.12961 0.13152 0.03104 0.05436 0.04736 0.11588 0.04736 0.17848s-0.01632 0.12411 -0.04736 0.17848c-0.03103 0.05436 -0.07571 0.09969 -0.12961 0.13152l-3.27 1.94c-0.05849 0.03756 -0.1266 0.0574 -0.19611 0.0571 -0.06951 -0.0003 -0.13745 -0.02072 -0.19561 -0.05879 -0.05816 -0.03807 -0.10405 -0.09216 -0.13214 -0.15574 -0.02809 -0.06359 -0.03717 -0.13394 -0.02614 -0.20257Z" stroke-width="1"></path><path id="Rectangle 721" stroke="#000000" stroke-linecap="round" stroke-linejoin="round" d="M7.5 12c0 -1.6569 1.34315 -3 3 -3v0c1.6569 0 3 1.3431 3 3v0.5c0 0.5523 -0.4477 1 -1 1h-4c-0.55228 0 -1 -0.4477 -1 -1V12Z" stroke-width="1"></path><g id="Group 627"><path id="Vector_3" stroke="#000000" stroke-linecap="round" stroke-linejoin="round" d="M9.25 11.75c-0.13807 0 -0.25 -0.1119 -0.25 -0.25s0.11193 -0.25 0.25 -0.25" stroke-width="1"></path><path id="Vector_4" stroke="#000000" stroke-linecap="round" stroke-linejoin="round" d="M9.25 11.75c0.13807 0 0.25 -0.1119 0.25 -0.25s-0.11193 -0.25 -0.25 -0.25" stroke-width="1"></path></g><g id="Group 628"><path id="Vector_5" stroke="#000000" stroke-linecap="round" stroke-linejoin="round" d="M11.75 11.75c-0.1381 0 -0.25 -0.1119 -0.25 -0.25s0.1119 -0.25 0.25 -0.25" stroke-width="1"></path><path id="Vector_6" stroke="#000000" stroke-linecap="round" stroke-linejoin="round" d="M11.75 11.75c0.1381 0 0.25 -0.1119 0.25 -0.25s-0.1119 -0.25 -0.25 -0.25" stroke-width="1"></path></g><path id="Vector 2678" stroke="#000000" stroke-linecap="round" stroke-linejoin="round" d="M10.5 9V7.5" stroke-width="1"></path></g></svg>