<svg xmlns="http://www.w3.org/2000/svg" fill="none" viewBox="0 0 14 14"><g id="ai-generate-music-spark--music-audio-note-entertainment-artificial-intelligence-ai"><path id="vector" stroke="#000000" stroke-linecap="round" stroke-linejoin="round" d="M2.12024 13.4622c0.88185 0 1.59674 -0.7149 1.59674 -1.5968 0 -0.8818 -0.71489 -1.5967 -1.59674 -1.5967 -0.88186 0 -1.596741 0.7149 -1.596741 1.5967 0 0.8819 0.714881 1.5968 1.596741 1.5968Z" stroke-width="1"></path><path id="vector_2" stroke="#000000" stroke-linecap="round" stroke-linejoin="round" d="M9.30554 11.8653c0.88186 0 1.59676 -0.7149 1.59676 -1.5967 0 -0.88189 -0.7149 -1.59677 -1.59676 -1.59677 -0.88185 0 -1.59674 0.71488 -1.59674 1.59677 0 0.8818 0.71489 1.5967 1.59674 1.5967Z" stroke-width="1"></path><path id="vector_3" stroke="#000000" stroke-linecap="round" stroke-linejoin="round" d="M3.7171 11.8653V5.38255c0.00049 -0.08741 0.02966 -0.17224 0.08302 -0.24147 0.05337 -0.06923 0.12798 -0.11903 0.21238 -0.14175l1.26052 -0.36135" stroke-width="1"></path><path id="vector_4" stroke="#000000" stroke-linecap="round" stroke-linejoin="round" d="M3.7171 7.47423 7.77731 6.3464" stroke-width="1"></path><path id="vector_5" stroke="#000000" stroke-linecap="round" stroke-linejoin="round" d="m10.9024 10.2687 0 -1.40742" stroke-width="1"></path><path id="Vector 2136" stroke="#000000" stroke-linecap="round" stroke-linejoin="round" d="M7.39241 3.97178c-0.35093 -0.06105 -0.35093 -0.56482 0 -0.62588 1.27136 -0.22118 2.28254 -1.18954 2.5585 -2.450145l0.02115 -0.096629c0.07594 -0.346833 0.56974 -0.348991 0.64874 -0.002835l0.0257 0.112609c0.2861 1.25465 1.2976 2.21484 2.5654 2.43541 0.3527 0.06136 0.3527 0.56771 0 0.62907 -1.2678 0.22057 -2.2793 1.18075 -2.5654 2.43541l-0.0257 0.11261c-0.079 0.34615 -0.5728 0.34399 -0.64874 -0.00284l-0.02115 -0.09663c-0.27596 -1.2606 -1.28714 -2.22897 -2.5585 -2.45015Z" stroke-width="1"></path></g></svg>