<svg xmlns="http://www.w3.org/2000/svg" fill="none" viewBox="0 0 14 14"><g id="ai-health-robot--app-tracker-heart-well-being-monitoring-artificial-intelligence-ai"><path id="Vector" stroke="#000000" stroke-linecap="round" stroke-linejoin="round" d="M12.4785 7.42397c2.9554 -2.95537 -1.3984 -8.6876 -5.4744 -4.06612 -4.07603 -4.62148 -8.44958 1.09091 -5.47437 4.06612L5.5 11.0202" stroke-width="1"></path><path id="Rectangle 721" stroke="#000000" stroke-linecap="round" stroke-linejoin="round" d="M7.5 12c0 -1.6569 1.34315 -3 3 -3v0c1.6569 0 3 1.3431 3 3v0.5c0 0.5523 -0.4477 1 -1 1h-4c-0.55228 0 -1 -0.4477 -1 -1V12Z" stroke-width="1"></path><g id="Group 627"><path id="Vector_2" stroke="#000000" stroke-linecap="round" stroke-linejoin="round" d="M9.25 11.75c-0.13807 0 -0.25 -0.1119 -0.25 -0.25s0.11193 -0.25 0.25 -0.25" stroke-width="1"></path><path id="Vector_3" stroke="#000000" stroke-linecap="round" stroke-linejoin="round" d="M9.25 11.75c0.13807 0 0.25 -0.1119 0.25 -0.25s-0.11193 -0.25 -0.25 -0.25" stroke-width="1"></path></g><g id="Group 628"><path id="Vector_4" stroke="#000000" stroke-linecap="round" stroke-linejoin="round" d="M11.75 11.75c-0.1381 0 -0.25 -0.1119 -0.25 -0.25s0.1119 -0.25 0.25 -0.25" stroke-width="1"></path><path id="Vector_5" stroke="#000000" stroke-linecap="round" stroke-linejoin="round" d="M11.75 11.75c0.1381 0 0.25 -0.1119 0.25 -0.25s-0.1119 -0.25 -0.25 -0.25" stroke-width="1"></path></g><path id="Vector 2678" stroke="#000000" stroke-linecap="round" stroke-linejoin="round" d="M10.5 9V7.5" stroke-width="1"></path></g></svg>