<svg xmlns="http://www.w3.org/2000/svg" fill="none" viewBox="0 0 14 14"><g id="ai-new-robot--button-cross-add-plus-circle-+-artificial-intelligence-ai"><path id="Rectangle 721" stroke="#000000" stroke-linecap="round" stroke-linejoin="round" d="M7.5 5c0 -1.65685 1.34315 -3 3 -3v0c1.6569 0 3 1.34315 3 3v0.5c0 0.55228 -0.4477 1 -1 1h-4c-0.55228 0 -1 -0.44772 -1 -1V5Z" stroke-width="1"></path><g id="Group 627"><path id="Vector" stroke="#000000" stroke-linecap="round" stroke-linejoin="round" d="M9.25 4.75c-0.13807 0 -0.25 -0.11193 -0.25 -0.25s0.11193 -0.25 0.25 -0.25" stroke-width="1"></path><path id="Vector_2" stroke="#000000" stroke-linecap="round" stroke-linejoin="round" d="M9.25 4.75c0.13807 0 0.25 -0.11193 0.25 -0.25s-0.11193 -0.25 -0.25 -0.25" stroke-width="1"></path></g><g id="Group 628"><path id="Vector_3" stroke="#000000" stroke-linecap="round" stroke-linejoin="round" d="M11.75 4.75c-0.1381 0 -0.25 -0.11193 -0.25 -0.25s0.1119 -0.25 0.25 -0.25" stroke-width="1"></path><path id="Vector_4" stroke="#000000" stroke-linecap="round" stroke-linejoin="round" d="M11.75 4.75c0.1381 0 0.25 -0.11193 0.25 -0.25s-0.1119 -0.25 -0.25 -0.25" stroke-width="1"></path></g><path id="Vector 2678" stroke="#000000" stroke-linecap="round" stroke-linejoin="round" d="M10.5 2V0.5" stroke-width="1"></path><path id="Ellipse 1509" stroke="#000000" stroke-linecap="round" stroke-linejoin="round" d="M10.5 8.5c0 2.7614 -2.23858 5 -5 5s-5 -2.2386 -5 -5c0 -2.76142 2.23858 -5 5 -5" stroke-width="1"></path><path id="Vector_5" stroke="#000000" stroke-linecap="round" stroke-linejoin="round" d="M5.5 6.25v4.5" stroke-width="1"></path><path id="Vector_6" stroke="#000000" stroke-linecap="round" stroke-linejoin="round" d="M3.25 8.5h4.5" stroke-width="1"></path></g></svg>