<svg xmlns="http://www.w3.org/2000/svg" fill="none" viewBox="0 0 14 14"><g id="ai-navigation-spark--map-location-direction-travel-artificial-intelligence-ai"><path id="Ellipse 1507" stroke="#000000" stroke-linecap="round" stroke-linejoin="round" d="M3.519 6.746a1.75 1.75 0 1 0 3.5 0 1.75 1.75 0 1 0 -3.5 0" stroke-width="1"></path><path id="Ellipse 1508" stroke="#000000" stroke-linecap="round" stroke-linejoin="round" d="M9.62857 8.74029C8.68082 11.2818 6.26315 13.496 5.26892 13.496c-1.25 0 -4.749999 -3.49999 -4.749999 -6.74999 0 -2.62335 2.126649 -4.75 4.749999 -4.75 0.14819 0 0.2948 0.00679 0.43953 0.02007" stroke-width="1"></path><path id="Vector 2136" stroke="#000000" stroke-linecap="round" stroke-linejoin="round" d="M7.69583 3.76928c-0.3337 -0.05805 -0.3337 -0.53708 0 -0.59514C8.90474 2.96383 9.86627 2.04302 10.1287 0.844332l0.0201 -0.091883c0.0722 -0.329799 0.5418 -0.331851 0.6168 -0.002696l0.0245 0.107079c0.2721 1.193028 1.2339 2.106058 2.4394 2.315798 0.3354 0.05835 0.3354 0.53982 0 0.59817 -1.2055 0.20974 -2.1673 1.12276 -2.4394 2.3158l-0.0245 0.10708c-0.075 0.32915 -0.5446 0.3271 -0.6168 -0.0027l-0.0201 -0.09188c-0.26243 -1.19869 -1.22396 -2.1195 -2.43287 -2.32982Z" stroke-width="1"></path></g></svg>