<svg xmlns="http://www.w3.org/2000/svg" fill="none" viewBox="0 0 14 14"><g id="ai-new-spark--button-cross-add-plus-circle-+-artificial-intelligence-ai"><path id="Ellipse 1509" stroke="#000000" stroke-linecap="round" stroke-linejoin="round" d="M10.5104 8.48534c0 2.76146 -2.2386 4.99996 -5.00002 4.99996 -2.76143 0 -5.000004 -2.2385 -5.000004 -4.99996 0 -2.76143 2.238574 -5 5.000004 -5" stroke-width="1"></path><path id="Vector" stroke="#000000" stroke-linecap="round" stroke-linejoin="round" d="M5.51038 6.23534v4.49996" stroke-width="1"></path><path id="Vector_2" stroke="#000000" stroke-linecap="round" stroke-linejoin="round" d="M3.26038 8.48534h4.5" stroke-width="1"></path><path id="Vector 2136" stroke="#000000" stroke-linecap="round" stroke-linejoin="round" d="M7.40553 3.9486c-0.35093 -0.06105 -0.35093 -0.56483 0 -0.62588 1.27136 -0.22118 2.28255 -1.18955 2.5585 -2.45015l0.02115 -0.09663c0.07592 -0.346833 0.56972 -0.348991 0.64872 -0.002835l0.0257 0.11261c0.2862 1.254655 1.2976 2.214845 2.5654 2.435405 0.3528 0.06137 0.3528 0.56771 0 0.62907 -1.2678 0.22057 -2.2792 1.18076 -2.5654 2.43541l-0.0257 0.11261c-0.079 0.34616 -0.5728 0.344 -0.64872 -0.00283l-0.02115 -0.09663c-0.27595 -1.26061 -1.28714 -2.22897 -2.5585 -2.45015Z" stroke-width="1"></path></g></svg>