<svg xmlns="http://www.w3.org/2000/svg" fill="none" viewBox="0 0 14 14"><g id="ai-network-spark--globe-internet-world-artificial-intelligence-ai"><path id="Vector" stroke="#000000" stroke-linecap="round" stroke-linejoin="round" d="M12.5117 7.46329c0 3.31371 -2.68633 6.00001 -6.00004 6.00001 -3.31371 0 -6.000002 -2.6863 -6.000002 -6.00001 0 -3.31371 2.686292 -6 6.000002 -6" stroke-width="1"></path><path id="Vector_2" stroke="#000000" stroke-linecap="round" stroke-linejoin="round" d="M0.511658 7.46329H7.43473" stroke-width="1"></path><path id="Vector_3" stroke="#000000" stroke-linecap="round" stroke-linejoin="round" d="M6.51173 1.46329c-1.38616 1.7046 -2.19434 3.80586 -2.30769 6 0.11335 2.19415 0.92153 4.29541 2.30769 6.00001 1.09132 -1.342 1.82438 -2.9299 2.14217 -4.61539" stroke-width="1"></path><path id="Vector 2136" stroke="#000000" stroke-linecap="round" stroke-linejoin="round" d="M7.40425 3.97066c-0.35093 -0.06105 -0.35093 -0.56483 0 -0.62588C8.67561 3.1236 9.68679 2.15523 9.96275 0.89463L9.9839 0.798001c0.0759 -0.346833 0.5698 -0.348992 0.6487 -0.002836l0.0257 0.11261c0.2862 1.254655 1.2976 2.214845 2.5655 2.435405 0.3527 0.06137 0.3527 0.56771 0 0.62907 -1.2679 0.22057 -2.2793 1.18076 -2.5655 2.43541l-0.0257 0.11261c-0.0789 0.34616 -0.5728 0.344 -0.6487 -0.00283l-0.02115 -0.09663c-0.27596 -1.26061 -1.28714 -2.22897 -2.5585 -2.45015Z" stroke-width="1"></path></g></svg>