<svg xmlns="http://www.w3.org/2000/svg" fill="none" viewBox="0 0 14 14"><g id="ai-prompt-robot--app-code-apps-window-website-web-artificial-intelligence-ai"><path id="Vector" stroke="#000000" stroke-linecap="round" stroke-linejoin="round" d="m3 11 1.5 -1.5L3 8" stroke-width="1"></path><path id="Vector_2" stroke="#000000" stroke-linecap="round" stroke-linejoin="round" d="M6 11h1.5" stroke-width="1"></path><path id="Rectangle 721" stroke="#000000" stroke-linecap="round" stroke-linejoin="round" d="M7.5 5c0 -1.65685 1.34315 -3 3 -3v0c1.6569 0 3 1.34315 3 3v0.5c0 0.55228 -0.4477 1 -1 1h-4c-0.55228 0 -1 -0.44772 -1 -1V5Z" stroke-width="1"></path><g id="Group 627"><path id="Vector_3" stroke="#000000" stroke-linecap="round" stroke-linejoin="round" d="M9.25 4.75c-0.13807 0 -0.25 -0.11193 -0.25 -0.25s0.11193 -0.25 0.25 -0.25" stroke-width="1"></path><path id="Vector_4" stroke="#000000" stroke-linecap="round" stroke-linejoin="round" d="M9.25 4.75c0.13807 0 0.25 -0.11193 0.25 -0.25s-0.11193 -0.25 -0.25 -0.25" stroke-width="1"></path></g><g id="Group 628"><path id="Vector_5" stroke="#000000" stroke-linecap="round" stroke-linejoin="round" d="M11.75 4.75c-0.1381 0 -0.25 -0.11193 -0.25 -0.25s0.1119 -0.25 0.25 -0.25" stroke-width="1"></path><path id="Vector_6" stroke="#000000" stroke-linecap="round" stroke-linejoin="round" d="M11.75 4.75c0.1381 0 0.25 -0.11193 0.25 -0.25s-0.1119 -0.25 -0.25 -0.25" stroke-width="1"></path></g><path id="Vector 2678" stroke="#000000" stroke-linecap="round" stroke-linejoin="round" d="M10.5 2V0.5" stroke-width="1"></path><path id="Vector_7" stroke="#000000" stroke-linecap="round" stroke-linejoin="round" d="M5.5 3.5h-4c-0.26522 0 -0.51957 0.10536 -0.707107 0.29289C0.605357 3.98043 0.5 4.23478 0.5 4.5v8c0 0.2652 0.105357 0.5196 0.292893 0.7071 0.187537 0.1875 0.441887 0.2929 0.707107 0.2929h9c0.5523 0 1 -0.4477 1 -1v-4" stroke-width="1"></path><path id="Vector_8" stroke="#000000" stroke-linecap="round" stroke-linejoin="round" d="M0.5 6h5" stroke-width="1"></path></g></svg>