<svg xmlns="http://www.w3.org/2000/svg" fill="none" viewBox="0 0 14 14"><g id="ai-settings-robot--cog-gear-settings-machine-artificial-intelligence"><path id="Vector" stroke="#000000" stroke-linecap="round" stroke-linejoin="round" d="M6.62267 3.1446c-0.06076 -0.15746 -0.16765 -0.29289 -0.30668 -0.38857 -0.13903 -0.09568 -0.30372 -0.14713 -0.47249 -0.14763h-0.687c-0.16877 0.0005 -0.33346 0.05195 -0.47249 0.14763 -0.13903 0.09568 -0.24592 0.23111 -0.30668 0.38857l-0.36025 0.92997 -1.23996 0.70376 -0.98862 -0.15081c-0.16462 -0.02234 -0.33216 0.00476 -0.48134 0.07785 -0.14918 0.0731 -0.27326 0.1889 -0.35647 0.33268l-0.335125 0.58647c-0.085874 0.14607 -0.125439 0.31474 -0.113473 0.48376 0.011966 0.16903 0.074901 0.33045 0.180498 0.46296l0.62836 0.77917v1.40752l-0.611604 0.77916C0.593749 9.66961 0.530815 9.83103 0.518848 10c-0.011966 0.1691 0.027599 0.3377 0.113474 0.4838l0.335124 0.5865c0.083214 0.1438 0.207294 0.2596 0.356474 0.3327s0.31672 0.1002 0.48134 0.0778l0.98861 -0.1508 1.22321 0.7038 0.36025 0.9299c0.06076 0.1575 0.16765 0.2929 0.30668 0.3886 0.13903 0.0957 0.30372 0.1471 0.47249 0.1476h0.70376c0.16877 -0.0005 0.33345 -0.0519 0.47248 -0.1476 0.13903 -0.0957 0.24593 -0.2311 0.30668 -0.3886l0.36026 -0.9299 1.2232 -0.7038 0.98862 0.1508c0.16462 0.0224 0.33216 -0.0047 0.48134 -0.0778 0.14918 -0.0731 0.27326 -0.1889 0.35646 -0.3327l0.3351 -0.5865c0.0859 -0.1461 0.1255 -0.3147 0.1135 -0.4838 -0.012 -0.16897 -0.0749 -0.33039 -0.1805 -0.46291l-0.62835 -0.77916v-0.90752m-5.86467 0.20376c0 0.3314 0.09827 0.65537 0.28239 0.93092 0.18412 0.27556 0.44582 0.49032 0.752 0.61715 0.30618 0.12682 0.64309 0.16 0.96813 0.09535s0.6236 -0.22424 0.85794 -0.45858 0.39393 -0.53291 0.45858 -0.85795c0.06466 -0.32504 0.03148 -0.66195 -0.09535 -0.96813 -0.12682 -0.30618 -0.34159 -0.56787 -0.61715 -0.75199 -0.27555 -0.18412 -0.59951 -0.28239 -0.93092 -0.28239 -0.4444 0 -0.8706 0.17653 -1.18484 0.49077 -0.31424 0.31424 -0.49078 0.74044 -0.49078 1.18485Z" stroke-width="1"></path><path id="Rectangle 721" stroke="#000000" stroke-linecap="round" stroke-linejoin="round" d="M8 4.75C8 3.23122 9.23122 2 10.75 2v0c1.5188 0 2.75 1.23122 2.75 2.75V5c0 0.55228 -0.4477 1 -1 1H9c-0.55228 0 -1 -0.44772 -1 -1v-0.25Z" stroke-width="1"></path><g id="Group 627"><path id="Vector_2" stroke="#000000" stroke-linecap="round" stroke-linejoin="round" d="M9.75 4.5c-0.13807 0 -0.25 -0.11193 -0.25 -0.25S9.61193 4 9.75 4" stroke-width="1"></path><path id="Vector_3" stroke="#000000" stroke-linecap="round" stroke-linejoin="round" d="M9.75 4.5c0.13807 0 0.25 -0.11193 0.25 -0.25S9.88807 4 9.75 4" stroke-width="1"></path></g><g id="Group 628"><path id="Vector_4" stroke="#000000" stroke-linecap="round" stroke-linejoin="round" d="M11.75 4.5c-0.1381 0 -0.25 -0.11193 -0.25 -0.25s0.1119 -0.25 0.25 -0.25" stroke-width="1"></path><path id="Vector_5" stroke="#000000" stroke-linecap="round" stroke-linejoin="round" d="M11.75 4.5c0.1381 0 0.25 -0.11193 0.25 -0.25S11.8881 4 11.75 4" stroke-width="1"></path></g><path id="Vector 2678" stroke="#000000" stroke-linecap="round" stroke-linejoin="round" d="M10.75 2V0.5" stroke-width="1"></path></g></svg>