<svg xmlns="http://www.w3.org/2000/svg" fill="none" viewBox="0 0 14 14"><g id="ai-sparkles--artificial-intelligence-ai-sparks-sparkles"><path id="Vector 2138" stroke="#000000" stroke-linecap="round" stroke-linejoin="round" d="M0.838442 3.53381c-0.303795 -0.05285 -0.303795 -0.48897 0 -0.54182C1.93904 2.80052 2.81441 1.96222 3.0533 0.870929l0.01831 -0.083651c0.06573 -0.300249 0.49324 -0.302117 0.56159 -0.002454l0.02224 0.097484C3.90317 1.96845 4.77878 2.79967 5.87632 2.99061c0.30535 0.05312 0.30535 0.49146 0 0.54458 -1.09754 0.19094 -1.97315 1.02216 -2.22088 2.1083l-0.02224 0.09749c-0.06835 0.29966 -0.49586 0.29779 -0.56159 -0.00246l-0.01831 -0.08365C2.81441 4.56359 1.93904 3.72528 0.838442 3.53381Z" stroke-width="1"></path><path id="Vector 2139" stroke="#000000" stroke-linecap="round" stroke-linejoin="round" d="M4.33341 9.25919c-0.52235 -0.09087 -0.52235 -0.84073 0 -0.9316C6.2258 7.99836 7.73092 6.55698 8.14167 4.6806l0.03149 -0.14383c0.11301 -0.51625 0.84808 -0.51947 0.9656 -0.00422l0.03823 0.16762c0.42595 1.86752 1.93151 3.29673 3.81861 3.62504 0.525 0.09134 0.525 0.84502 0 0.93636 -1.8871 0.32831 -3.39266 1.75753 -3.81861 3.62503l-0.03823 0.1676c-0.11752 0.5153 -0.85259 0.5121 -0.9656 -0.0042l-0.03149 -0.1438c-0.41074 -1.8764 -1.91587 -3.31779 -3.80826 -3.64701Z" stroke-width="1"></path></g></svg>