<svg xmlns="http://www.w3.org/2000/svg" fill="none" viewBox="0 0 14 14"><g id="ai-science-spark--atom-scientific-experiment-artificial-intelligence-ai"><path id="Ellipse 967" stroke="#000000" stroke-linecap="round" stroke-linejoin="round" d="M6.02228 4.34734c-0.64173 0.48343 -1.29436 1.04948 -1.93066 1.68578C1.24823 8.87651 -0.192409 12.0459 0.873863 13.1122c1.066267 1.0663 4.235677 -0.3744 7.079067 -3.21777 0.6363 -0.6363 1.20235 -1.28892 1.68578 -1.93065" stroke-width="1"></path><path id="Ellipse 968" stroke="#000000" stroke-linecap="round" stroke-linejoin="round" d="M9.63871 7.96377c1.67689 2.22593 2.35969 4.32073 1.53199 5.14843 -1.0663 1.0663 -4.23569 -0.3744 -7.07908 -3.21777C1.24823 7.05104 -0.192409 3.88163 0.873863 2.81536 1.70152 1.9877 3.79635 2.67049 6.02228 4.34734" stroke-width="1"></path><path id="Ellipse 969" stroke="#000000" stroke-linecap="round" stroke-linejoin="round" d="M5.52228 7.96377c0 0.27615 0.22386 0.5 0.5 0.5s0.5 -0.22385 0.5 -0.5c0 -0.27614 -0.22386 -0.5 -0.5 -0.5s-0.5 0.22386 -0.5 0.5Z" stroke-width="1"></path><path id="Vector 2136" stroke="#000000" stroke-linecap="round" stroke-linejoin="round" d="M8.03162 3.61011c-0.31413 -0.05465 -0.31413 -0.5056 0 -0.56025C9.16967 2.85187 10.0748 1.98504 10.3218 0.856618l0.019 -0.086498c0.0679 -0.310465 0.51 -0.312398 0.5807 -0.002538l0.023 0.100802c0.2561 1.123096 1.1615 1.982606 2.2964 2.180046 0.3158 0.05493 0.3158 0.50818 0 0.56311 -1.1349 0.19744 -2.0403 1.05694 -2.2964 2.18004l-0.023 0.1008c-0.0707 0.30986 -0.5128 0.30793 -0.5807 -0.00254l-0.019 -0.08649c-0.247 -1.12843 -1.15213 -1.99525 -2.29018 -2.19324Z" stroke-width="1"></path></g></svg>