<svg xmlns="http://www.w3.org/2000/svg" fill="none" viewBox="0 0 14 14"><g id="ai-scanner-robot--scan-scanning-artificial-intelligence-ai"><path id="Vector 233" stroke="#000000" stroke-linecap="round" stroke-linejoin="round" d="M0.5 3.43981V1.42857C0.5 0.915736 0.915736 0.5 1.42857 0.5h2.01124" stroke-width="1"></path><path id="Vector 234" stroke="#000000" stroke-linecap="round" stroke-linejoin="round" d="M10.5603 0.5h2.0112c0.5129 0 0.9286 0.415736 0.9286 0.92857v2.01124" stroke-width="1"></path><path id="Vector 235" stroke="#000000" stroke-linecap="round" stroke-linejoin="round" d="M0.5 10.5602v2.0112c0 0.5129 0.415736 0.9286 0.92857 0.9286h2.01124" stroke-width="1"></path><path id="Vector 236" stroke="#000000" stroke-linecap="round" stroke-linejoin="round" d="M13.5001 10.5602v2.0112c0 0.5129 -0.4157 0.9286 -0.9286 0.9286h-2.0112" stroke-width="1"></path><path id="Rectangle 721" stroke="#000000" stroke-linecap="round" stroke-linejoin="round" d="M3.5 8.5C3.5 6.567 5.067 5 7 5v0c1.933 0 3.5 1.567 3.5 3.5V9c0 0.55228 -0.4477 1 -1 1h-5c-0.55228 0 -1 -0.44772 -1 -1v-0.5Z" stroke-width="1"></path><g id="Group 627"><path id="Vector" stroke="#000000" stroke-linecap="round" stroke-linejoin="round" d="M5.75 8c-0.13807 0 -0.25 -0.11193 -0.25 -0.25s0.11193 -0.25 0.25 -0.25" stroke-width="1"></path><path id="Vector_2" stroke="#000000" stroke-linecap="round" stroke-linejoin="round" d="M5.75 8c0.13807 0 0.25 -0.11193 0.25 -0.25s-0.11193 -0.25 -0.25 -0.25" stroke-width="1"></path></g><g id="Group 628"><path id="Vector_3" stroke="#000000" stroke-linecap="round" stroke-linejoin="round" d="M8.25 8C8.11193 8 8 7.88807 8 7.75s0.11193 -0.25 0.25 -0.25" stroke-width="1"></path><path id="Vector_4" stroke="#000000" stroke-linecap="round" stroke-linejoin="round" d="M8.25 8c0.13807 0 0.25 -0.11193 0.25 -0.25s-0.11193 -0.25 -0.25 -0.25" stroke-width="1"></path></g><path id="Vector 2678" stroke="#000000" stroke-linecap="round" stroke-linejoin="round" d="M7 5V3" stroke-width="1"></path></g></svg>