<svg xmlns="http://www.w3.org/2000/svg" fill="none" viewBox="0 0 14 14"><g id="ai-technology-robot--lightbulb-idea-bright-lighting-artificial-intelligence-ai"><path id="Rectangle 721" stroke="#000000" stroke-linecap="round" stroke-linejoin="round" d="M7.5 5c0 -1.65685 1.34315 -3 3 -3v0c1.6569 0 3 1.34315 3 3v0.5c0 0.55228 -0.4477 1 -1 1h-4c-0.55228 0 -1 -0.44772 -1 -1V5Z" stroke-width="1"></path><g id="Group 627"><path id="Vector" stroke="#000000" stroke-linecap="round" stroke-linejoin="round" d="M9.25 4.75c-0.13807 0 -0.25 -0.11193 -0.25 -0.25s0.11193 -0.25 0.25 -0.25" stroke-width="1"></path><path id="Vector_2" stroke="#000000" stroke-linecap="round" stroke-linejoin="round" d="M9.25 4.75c0.13807 0 0.25 -0.11193 0.25 -0.25s-0.11193 -0.25 -0.25 -0.25" stroke-width="1"></path></g><g id="Group 628"><path id="Vector_3" stroke="#000000" stroke-linecap="round" stroke-linejoin="round" d="M11.75 4.75c-0.1381 0 -0.25 -0.11193 -0.25 -0.25s0.1119 -0.25 0.25 -0.25" stroke-width="1"></path><path id="Vector_4" stroke="#000000" stroke-linecap="round" stroke-linejoin="round" d="M11.75 4.75c0.1381 0 0.25 -0.11193 0.25 -0.25s-0.1119 -0.25 -0.25 -0.25" stroke-width="1"></path></g><path id="Vector 2678" stroke="#000000" stroke-linecap="round" stroke-linejoin="round" d="M10.5 2V0.5" stroke-width="1"></path><path id="Vector_5" stroke="#000000" stroke-linecap="round" stroke-linejoin="round" d="M7.20866 1.07931C6.50881 0.68506 5.71619 0.485325 4.91309 0.50084c-0.80311 0.015514 -1.58743 0.245713 -2.27153 0.6667 -0.6841 0.42098 -1.24304 1.01741 -1.61881 1.72735C0.646986 3.60484 0.4681 4.40242 0.504666 5.20485c0.036565 0.80242 0.287248 1.58043 0.726024 2.25326 0.43878 0.67283 1.04965 1.21594 1.7692 1.57297v1.50002c0 0.1326 0.05268 0.2598 0.14645 0.3535 0.09377 0.0938 0.22095 0.1465 0.35355 0.1465h3c0.13261 0 0.25979 -0.0527 0.35356 -0.1465 0.09377 -0.0937 0.14644 -0.2209 0.14644 -0.3535V9.03108c0.36396 -0.17932 0.70005 -0.40633 1.00011 -0.67364" stroke-width="1"></path><path id="Vector_6" stroke="#000000" stroke-linecap="round" stroke-linejoin="round" d="M2.99988 13.5h4" stroke-width="1"></path></g></svg>