<svg xmlns="http://www.w3.org/2000/svg" fill="none" viewBox="0 0 14 14"><g id="ai-tagging-robot--tag-tags-bookmark-artificial-intelligence-ai"><path id="Vector" stroke="#000000" stroke-linecap="round" stroke-linejoin="round" d="M5.66901 13.281c-0.14062 0.1404 -0.33125 0.2193 -0.53 0.2193 -0.19875 0 -0.38937 -0.0789 -0.53 -0.2193l-3.89 -3.89001c-0.14045 -0.14063 -0.21934 -0.33125 -0.21934 -0.53 0 -0.19875 0.07889 -0.38938 0.21934 -0.53l7.72 -7.72c0.03708 -0.038791 0.08237 -0.068801 0.13255 -0.087833 0.05017 -0.019033 0.10397 -0.026606 0.15745 -0.022167l3.82999 0.59c0.0913 0.00481 0.1775 0.04323 0.2422 0.10786 0.0646 0.06462 0.103 0.15087 0.1078 0.24214l0.59 3.83c0.0044 0.05348 -0.0031 0.10728 -0.0222 0.15745 -0.019 0.05018 -0.049 0.09547 -0.0878 0.13255L12.5 6.45" stroke-width="1"></path><path id="Vector_2" stroke="#000000" stroke-linecap="round" stroke-linejoin="round" d="M9.88916 4.61084c-0.27614 0 -0.5 -0.22386 -0.5 -0.5s0.22386 -0.5 0.5 -0.5 0.50004 0.22386 0.50004 0.5 -0.2239 0.5 -0.50004 0.5Z" stroke-width="1"></path><path id="Rectangle 721" stroke="#000000" stroke-linecap="round" stroke-linejoin="round" d="M7.5 12c0 -1.6569 1.34315 -3 3 -3v0c1.6569 0 3 1.3431 3 3v0.5c0 0.5523 -0.4477 1 -1 1h-4c-0.55228 0 -1 -0.4477 -1 -1V12Z" stroke-width="1"></path><g id="Group 627"><path id="Vector_3" stroke="#000000" stroke-linecap="round" stroke-linejoin="round" d="M9.25 11.75c-0.13807 0 -0.25 -0.1119 -0.25 -0.25s0.11193 -0.25 0.25 -0.25" stroke-width="1"></path><path id="Vector_4" stroke="#000000" stroke-linecap="round" stroke-linejoin="round" d="M9.25 11.75c0.13807 0 0.25 -0.1119 0.25 -0.25s-0.11193 -0.25 -0.25 -0.25" stroke-width="1"></path></g><g id="Group 628"><path id="Vector_5" stroke="#000000" stroke-linecap="round" stroke-linejoin="round" d="M11.75 11.75c-0.1381 0 -0.25 -0.1119 -0.25 -0.25s0.1119 -0.25 0.25 -0.25" stroke-width="1"></path><path id="Vector_6" stroke="#000000" stroke-linecap="round" stroke-linejoin="round" d="M11.75 11.75c0.1381 0 0.25 -0.1119 0.25 -0.25s-0.1119 -0.25 -0.25 -0.25" stroke-width="1"></path></g><path id="Vector 2678" stroke="#000000" stroke-linecap="round" stroke-linejoin="round" d="M10.5 9V7.5" stroke-width="1"></path></g></svg>