<svg xmlns="http://www.w3.org/2000/svg" fill="none" viewBox="0 0 14 14"><g id="ai-upscale-robot--magnifier-zoom-view-find-search-ai"><path id="Vector" stroke="#000000" stroke-linecap="round" stroke-linejoin="round" d="M6.5 12.5c3.31371 0 6 -2.68629 6 -6s-2.68629 -6 -6 -6 -6 2.68629 -6 6 2.68629 6 6 6Z" stroke-width="1"></path><path id="Vector_2" stroke="#000000" stroke-linecap="round" stroke-linejoin="round" d="m10.74 10.7402 2.76 2.76" stroke-width="1"></path><path id="Rectangle 721" stroke="#000000" stroke-linecap="round" stroke-linejoin="round" d="M3.5 7.5c0 -1.65685 1.34315 -3 3 -3v0c1.65685 0 3 1.34315 3 3V8c0 0.55228 -0.44772 1 -1 1h-4c-0.55228 0 -1 -0.44772 -1 -1v-0.5Z" stroke-width="1"></path><g id="Group 627"><path id="Vector_3" stroke="#000000" stroke-linecap="round" stroke-linejoin="round" d="M5.25 7.25C5.11193 7.25 5 7.13807 5 7s0.11193 -0.25 0.25 -0.25" stroke-width="1"></path><path id="Vector_4" stroke="#000000" stroke-linecap="round" stroke-linejoin="round" d="M5.25 7.25c0.13807 0 0.25 -0.11193 0.25 -0.25s-0.11193 -0.25 -0.25 -0.25" stroke-width="1"></path></g><g id="Group 628"><path id="Vector_5" stroke="#000000" stroke-linecap="round" stroke-linejoin="round" d="M7.75 7.25c-0.13807 0 -0.25 -0.11193 -0.25 -0.25s0.11193 -0.25 0.25 -0.25" stroke-width="1"></path><path id="Vector_6" stroke="#000000" stroke-linecap="round" stroke-linejoin="round" d="M7.75 7.25c0.13807 0 0.25 -0.11193 0.25 -0.25s-0.11193 -0.25 -0.25 -0.25" stroke-width="1"></path></g><path id="Vector 2678" stroke="#000000" stroke-linecap="round" stroke-linejoin="round" d="M6.5 4.5V3" stroke-width="1"></path></g></svg>