<svg xmlns="http://www.w3.org/2000/svg" fill="none" viewBox="0 0 14 14"><g id="ai-upscale-spark--magnifier-zoom-view-find-search-ai"><path id="Vector" stroke="#000000" stroke-linecap="round" stroke-linejoin="round" d="M6.5 12.5c3.31371 0 6 -2.68629 6 -6s-2.68629 -6 -6 -6 -6 2.68629 -6 6 2.68629 6 6 6Z" stroke-width="1"></path><path id="Vector_2" stroke="#000000" stroke-linecap="round" stroke-linejoin="round" d="m10.74 10.7402 2.76 2.76" stroke-width="1"></path><path id="Vector 2136" stroke="#000000" stroke-linecap="round" stroke-linejoin="round" d="M3.44959 6.82799c-0.36781 -0.06399 -0.36781 -0.59199 0 -0.65598 1.33251 -0.23182 2.39233 -1.24676 2.68155 -2.56799l0.02217 -0.10128c0.07958 -0.36351 0.59717 -0.36578 0.67992 -0.00297l0.02692 0.11802c0.29993 1.315 1.36004 2.32137 2.68885 2.55255 0.36968 0.06431 0.36968 0.59501 0 0.65932 -1.32881 0.23118 -2.38892 1.23755 -2.68885 2.55254l-0.02692 0.11803c-0.08275 0.36281 -0.60034 0.36054 -0.67992 -0.00297l-0.02217 -0.10128C5.84192 8.07475 4.7821 7.05981 3.44959 6.82799Z" stroke-width="1"></path></g></svg>