<svg xmlns="http://www.w3.org/2000/svg" fill="none" viewBox="0 0 14 14"><g id="ai-vehicle-spark-1--car-automated-transportation-artificial-intelligence-ai"><path id="Vector" stroke="#000000" stroke-linecap="round" stroke-linejoin="round" d="M5.51272 4.96322h-0.74273c-0.21807 -0.01138 -0.43386 0.04893 -0.61443 0.17172 -0.18057 0.12279 -0.31599 0.3013 -0.38557 0.50828l-0.77 2.32h-1.5c-0.26522 0 -0.519571 0.10536 -0.707107 0.2929 -0.187536 0.18753 -0.292893 0.44189 -0.292893 0.7071v1.99998c0 0.2652 0.105357 0.5196 0.292893 0.7071 0.187536 0.1876 0.441887 0.2929 0.707107 0.2929h0.5" stroke-width="1"></path><path id="Vector_2" stroke="#000000" stroke-linecap="round" stroke-linejoin="round" d="M12 7.96333h0.5c0.2652 0 0.5196 0.10536 0.7071 0.29289 0.1875 0.18754 0.2929 0.44189 0.2929 0.70711v1.99997c0 0.2652 -0.1054 0.5196 -0.2929 0.7071 -0.1875 0.1876 -0.4419 0.2929 -0.7071 0.2929H12" stroke-width="1"></path><path id="Vector_3" stroke="#000000" stroke-linecap="round" stroke-linejoin="round" d="M10.4989 13.4632c-0.82897 0 -1.50101 -0.672 -1.50101 -1.501 0 -0.829 0.67204 -1.5011 1.50101 -1.5011 0.8291 0 1.5011 0.6721 1.5011 1.5011 0 0.829 -0.672 1.501 -1.5011 1.501Z" stroke-width="1"></path><path id="Vector_4" stroke="#000000" stroke-linecap="round" stroke-linejoin="round" d="M3.49894 13.4633c-0.82901 0 -1.50106 -0.6721 -1.50106 -1.5011 0 -0.829 0.67205 -1.5011 1.50106 -1.5011S5 11.1332 5 11.9622c0 0.829 -0.67205 1.5011 -1.50106 1.5011Z" stroke-width="1"></path><path id="Vector_5" stroke="#000000" stroke-linecap="round" stroke-linejoin="round" d="m8.99805 11.9633 -3.9979 0" stroke-width="1"></path><path id="Vector 2136" stroke="#000000" stroke-linecap="round" stroke-linejoin="round" d="M7.41594 3.9707c-0.35093 -0.06106 -0.35093 -0.56483 0 -0.62588C8.6873 3.12364 9.69848 2.15527 9.97443 0.894668l0.02116 -0.096629c0.07591 -0.346833 0.56981 -0.348992 0.64871 -0.002836l0.0257 0.11261c0.2862 1.254657 1.2976 2.214837 2.5654 2.435407 0.3528 0.06136 0.3528 0.56771 0 0.62907 -1.2678 0.22057 -2.2792 1.18076 -2.5654 2.43541l-0.0257 0.11261c-0.0789 0.34616 -0.5728 0.344 -0.64871 -0.00284l-0.02115 -0.09662C9.69848 5.16024 8.6873 4.19188 7.41594 3.9707Z" stroke-width="1"></path></g></svg>