<svg xmlns="http://www.w3.org/2000/svg" fill="none" viewBox="0 0 14 14"><g id="airship"><path id="Vector 4626" stroke="#000000" stroke-linecap="round" stroke-linejoin="round" d="M2.59234 5.26621 0.5 1.5H4l0.71694 1.29049c-1.0889 0.5901 -1.86729 1.4664 -2.1246 2.47572Z" stroke-width="1"></path><path id="Vector 4627" stroke="#000000" stroke-linecap="round" stroke-linejoin="round" d="m0.5 10.5 2.09234 -3.76624c0.25731 1.00933 1.0357 1.88562 2.1246 2.47573L4 10.5H0.5Z" stroke-width="1"></path><path id="Vector" stroke="#000000" stroke-linecap="round" stroke-linejoin="round" d="M12 11.5V8.74542C10.9972 9.51791 9.57603 10 8 10c-0.16854 0 -0.33532 -0.0055 -0.5 -0.01629V11.5c0 0.5523 0.44772 1 1 1H11c0.5523 0 1 -0.4477 1 -1Z" stroke-width="1"></path><path id="Vector 4625" stroke="#000000" stroke-linecap="round" stroke-linejoin="round" d="M0.5 6h4" stroke-width="1"></path><path id="Ellipse 1742" stroke="#000000" stroke-linecap="round" stroke-linejoin="round" d="M2.5 6a5.5 4 0 1 0 11 0 5.5 4 0 1 0 -11 0" stroke-width="1"></path></g></svg>