<svg xmlns="http://www.w3.org/2000/svg" fill="none" viewBox="0 0 14 14"><g id="alarm-setting-bolt-nut"><path id="Vector" stroke="#000000" stroke-linecap="round" stroke-linejoin="round" d="M5 13.5h2" stroke-width="1"></path><path id="Rectangle 1920" stroke="#000000" stroke-linecap="round" stroke-linejoin="round" d="m7.5 2.25 3 -1.75 3 1.75v3L10.5 7l-3 -1.75v-3Z" stroke-width="1"></path><path id="Ellipse 1472" stroke="#000000" stroke-linecap="round" stroke-linejoin="round" d="M10 3.75a0.5 0.5 0 1 0 1 0 0.5 0.5 0 1 0 -1 0" stroke-width="1"></path><path id="Vector_2" stroke="#000000" stroke-linecap="round" stroke-linejoin="round" d="M10 9v0.50004c0 0.39782 0.158 0.77936 0.4393 1.06066 0.2813 0.2813 0.6629 0.4393 1.0607 0.4393H0.5c0.397825 0 0.77936 -0.158 1.06066 -0.4393C1.84196 10.2794 2 9.89786 2 9.50004v-3.5c0 -1.06087 0.42143 -2.07829 1.17157 -2.82843 0.59422 -0.59421 1.35613 -0.98217 2.17451 -1.11778" stroke-width="1"></path></g></svg>