<svg xmlns="http://www.w3.org/2000/svg" fill="none" viewBox="0 0 14 14"><g id="align-horizontal-center-1--align-center-design-horizontal"><path id="Vector" stroke="#000000" stroke-linecap="round" stroke-linejoin="round" d="M9.5 0.5h-5c-0.55228 0 -1 0.447715 -1 1v2c0 0.55228 0.44772 1 1 1h5c0.5523 0 1 -0.44772 1 -1v-2c0 -0.552285 -0.4477 -1 -1 -1Z" stroke-width="1"></path><path id="Vector_2" stroke="#000000" stroke-linecap="round" stroke-linejoin="round" d="M11.5 9.5h-9c-0.55228 0 -1 0.44772 -1 1v2c0 0.5523 0.44772 1 1 1h9c0.5523 0 1 -0.4477 1 -1v-2c0 -0.55228 -0.4477 -1 -1 -1Z" stroke-width="1"></path><path id="Vector_3" stroke="#000000" stroke-linecap="round" stroke-linejoin="round" d="M7 4.5v5" stroke-width="1"></path></g></svg>