<svg xmlns="http://www.w3.org/2000/svg" fill="none" viewBox="0 0 14 14"><g id="align-margins-horizontal"><path id="Vector 382" stroke="#000000" stroke-linecap="round" stroke-linejoin="round" d="m3.5 1.5 0 11" stroke-width="1"></path><path id="Vector" stroke="#000000" stroke-linecap="round" stroke-linejoin="round" d="M1.5 1.5c-0.26522 0 -0.51957 0.10536 -0.707106 0.29289C0.605357 1.98043 0.5 2.23478 0.5 2.5l0 9c0 0.2652 0.105357 0.5196 0.292893 0.7071 0.187537 0.1875 0.441887 0.2929 0.707107 0.2929l11 0c0.2652 0 0.5196 -0.1054 0.7071 -0.2929s0.2929 -0.4419 0.2929 -0.7071V5L10 1.5l-8.5 0Z" stroke-width="1"></path><path id="Vector 2529" stroke="#000000" stroke-linecap="round" stroke-linejoin="round" d="M13.5 5.5h-4l0 -4" stroke-width="1"></path><path id="Vector 383" stroke="#000000" stroke-linecap="round" stroke-linejoin="round" d="M3.49997 7H7c0.27614 0 0.5 0.22386 0.5 0.5v2c0 0.27614 -0.22386 0.5 -0.5 0.5H3.49997" stroke-width="1"></path></g></svg>