<svg xmlns="http://www.w3.org/2000/svg" fill="none" viewBox="0 0 14 14"><g id="align-two-bottom-frame"><path id="Vector" stroke="#000000" stroke-linecap="round" stroke-linejoin="round" d="m1 4 0 -2c0 -0.26522 0.10536 -0.51957 0.29289 -0.70711C1.48043 1.10536 1.73478 1 2 1l2 0" stroke-width="1"></path><path id="Vector_2" stroke="#000000" stroke-linecap="round" stroke-linejoin="round" d="m4 13 -2 0c-0.26522 0 -0.51957 -0.1054 -0.70711 -0.2929C1.10536 12.5196 1 12.2652 1 12l0 -2" stroke-width="1"></path><path id="Vector_3" stroke="#000000" stroke-linecap="round" stroke-linejoin="round" d="m13 4 0 -2c0 -0.26522 -0.1054 -0.51957 -0.2929 -0.70711C12.5196 1.10536 12.2652 1 12 1l-2 0" stroke-width="1"></path><path id="Vector_4" stroke="#000000" stroke-linecap="round" stroke-linejoin="round" d="m10 13 2 0c0.2652 0 0.5196 -0.1054 0.7071 -0.2929S13 12.2652 13 12l0 -2" stroke-width="1"></path><path id="Vector 3612" stroke="#000000" stroke-linecap="round" stroke-linejoin="round" d="m4 7 6 0" stroke-width="1"></path><path id="Vector 3614" stroke="#000000" stroke-linecap="round" stroke-linejoin="round" d="m4 9.5 6 0" stroke-width="1"></path></g></svg>