<svg xmlns="http://www.w3.org/2000/svg" fill="none" viewBox="0 0 14 14"><g id="align-selection"><path id="Vector 3908" stroke="#000000" stroke-linecap="round" stroke-linejoin="round" d="M3 1H1v2h2V1Z" stroke-width="1"></path><path id="Vector 3909" stroke="#000000" stroke-linecap="round" stroke-linejoin="round" d="M8 1H6v2h2V1Z" stroke-width="1"></path><path id="Vector 3910" stroke="#000000" stroke-linecap="round" stroke-linejoin="round" d="M13 1h-2v2h2V1Z" stroke-width="1"></path><path id="Vector 3911" stroke="#000000" stroke-linecap="round" stroke-linejoin="round" d="M3 6H1v2h2V6Z" stroke-width="1"></path><path id="Vector 3914" stroke="#000000" stroke-linecap="round" stroke-linejoin="round" d="M3 11H1v2h2v-2Z" stroke-width="1"></path><path id="Vector 3915" stroke="#000000" stroke-linecap="round" stroke-linejoin="round" d="M8 11H6v2h2v-2Z" stroke-width="1"></path><path id="Vector 3913" stroke="#000000" stroke-linecap="round" stroke-linejoin="round" d="M13 6h-2v2h2V6Z" stroke-width="1"></path><path id="Vector 3916" stroke="#000000" stroke-linecap="round" stroke-linejoin="round" d="M13 11h-2v2h2v-2Z" stroke-width="1"></path><path id="Vector 3917" stroke="#000000" stroke-linecap="round" stroke-linejoin="round" d="M2 3v3" stroke-width="1"></path><path id="Vector 3918" stroke="#000000" stroke-linecap="round" stroke-linejoin="round" d="M2 8v3" stroke-width="1"></path><path id="Vector 3919" stroke="#000000" stroke-linecap="round" stroke-linejoin="round" d="M3 12h3" stroke-width="1"></path><path id="Vector 3920" stroke="#000000" stroke-linecap="round" stroke-linejoin="round" d="M8 12h3" stroke-width="1"></path><path id="Vector 3921" stroke="#000000" stroke-linecap="round" stroke-linejoin="round" d="M12 11V8" stroke-width="1"></path><path id="Vector 3922" stroke="#000000" stroke-linecap="round" stroke-linejoin="round" d="M12 6V3" stroke-width="1"></path><path id="Vector 3923" stroke="#000000" stroke-linecap="round" stroke-linejoin="round" d="M11 2H8" stroke-width="1"></path><path id="Vector 3924" stroke="#000000" stroke-linecap="round" stroke-linejoin="round" d="M6 2H3" stroke-width="1"></path></g></svg>