<svg xmlns="http://www.w3.org/2000/svg" fill="none" viewBox="0 0 14 14"><g id="align-bottom-left-square"><path id="Vector" stroke="#000000" stroke-linecap="round" stroke-linejoin="round" d="m13 12 0 -10c0 -0.55228 -0.4477 -1 -1 -1L2 1c-0.55228 0 -1 0.44772 -1 1l0 10c0 0.5523 0.44771 1 1 1l10 0c0.5523 0 1 -0.4477 1 -1Z" stroke-width="1"></path><path id="Vector 3609" stroke="#000000" stroke-linecap="round" stroke-linejoin="round" d="M6 7.5H3.5c-0.27614 0 -0.5 0.22386 -0.5 0.5v2.5c0 0.2761 0.22386 0.5 0.5 0.5H6c0.27614 0 0.5 -0.2239 0.5 -0.5V8c0 -0.27614 -0.22386 -0.5 -0.5 -0.5Z" stroke-width="1"></path></g></svg>