<svg xmlns="http://www.w3.org/2000/svg" fill="none" viewBox="0 0 14 14"><g id="align-center-horizontal-frame"><path id="Vector" stroke="#000000" stroke-linecap="round" stroke-linejoin="round" d="M10 1h2c0.2652 0 0.5196 0.10536 0.7071 0.29289C12.8946 1.48043 13 1.73478 13 2v2" stroke-width="1"></path><path id="Vector_2" stroke="#000000" stroke-linecap="round" stroke-linejoin="round" d="M1 4V2c0 -0.26522 0.10536 -0.51957 0.29289 -0.70711C1.48043 1.10536 1.73478 1 2 1h2" stroke-width="1"></path><path id="Vector_3" stroke="#000000" stroke-linecap="round" stroke-linejoin="round" d="M10 13h2c0.2652 0 0.5196 -0.1054 0.7071 -0.2929S13 12.2652 13 12v-2" stroke-width="1"></path><path id="Vector_4" stroke="#000000" stroke-linecap="round" stroke-linejoin="round" d="M1 10v2c0 0.2652 0.10536 0.5196 0.29289 0.7071C1.48043 12.8946 1.73478 13 2 13h2" stroke-width="1"></path><path id="Vector 3612" stroke="#000000" stroke-linecap="round" stroke-linejoin="round" d="M10 7 4 7" stroke-width="1"></path></g></svg>