<svg xmlns="http://www.w3.org/2000/svg" fill="none" viewBox="0 0 14 14"><g id="align-two-top-frame"><path id="Vector" stroke="#000000" stroke-linecap="round" stroke-linejoin="round" d="m1 10 0 2c0 0.2652 0.10536 0.5196 0.29289 0.7071C1.48043 12.8946 1.73478 13 2 13l2 0" stroke-width="1"></path><path id="Vector_2" stroke="#000000" stroke-linecap="round" stroke-linejoin="round" d="M4 1 2 1c-0.26522 0 -0.51957 0.10536 -0.70711 0.29289C1.10536 1.48043 1 1.73478 1 2l0 2" stroke-width="1"></path><path id="Vector_3" stroke="#000000" stroke-linecap="round" stroke-linejoin="round" d="m13 10 0 2c0 0.2652 -0.1054 0.5196 -0.2929 0.7071S12.2652 13 12 13l-2 0" stroke-width="1"></path><path id="Vector_4" stroke="#000000" stroke-linecap="round" stroke-linejoin="round" d="m10 1 2 0c0.2652 0 0.5196 0.10536 0.7071 0.29289C12.8946 1.48043 13 1.73478 13 2l0 2" stroke-width="1"></path><path id="Vector 3612" stroke="#000000" stroke-linecap="round" stroke-linejoin="round" d="m4 7 6 0" stroke-width="1"></path><path id="Vector 3614" stroke="#000000" stroke-linecap="round" stroke-linejoin="round" d="m4 4.5 6 0" stroke-width="1"></path></g></svg>