<svg xmlns="http://www.w3.org/2000/svg" fill="none" viewBox="0 0 14 14"><g id="allergens-mustard--mustard-sauce-seasoning-food-allergens-allergy"><path id="Rectangle 1948" stroke="#000000" stroke-linecap="round" stroke-linejoin="round" d="M2.26257 5.5754C2.2542 5.52522 2.25 5.47443 2.25 5.42356v0c0 -0.51007 0.41349 -0.92356 0.92356 -0.92356h7.65284c0.5101 0 0.9236 0.41349 0.9236 0.92356v0c0 0.05087 -0.0042 0.10166 -0.0126 0.15184l-0.4532 2.71944c-0.0226 0.13533 -0.017 0.27384 0.0162 0.40694l0.923 3.69192c0.0177 0.0706 0.0266 0.1431 0.0266 0.2159v0c0 0.4918 -0.3986 0.8904 -0.8904 0.8904H2.64039c-0.49175 0 -0.89039 -0.3986 -0.89039 -0.8904v0c0 -0.0728 0.00893 -0.1453 0.02658 -0.2159l0.92298 -3.69192c0.03327 -0.1331 0.0388 -0.27161 0.01625 -0.40694L2.26257 5.5754Z" stroke-width="1"></path><path id="Rectangle 1949" stroke="#000000" stroke-linecap="round" stroke-linejoin="round" d="M4.75 2.5h4.5v2h-4.5v-2Z" stroke-width="1"></path><path id="Vector 2952" stroke="#000000" stroke-linecap="round" stroke-linejoin="round" d="M7 2.5v-2" stroke-width="1"></path><path id="Vector 2953" stroke="#000000" stroke-linecap="round" stroke-linejoin="round" d="m4.5 11.5 0.5 -3h4l0.5 3h-5Z" stroke-width="1"></path></g></svg>