<svg xmlns="http://www.w3.org/2000/svg" fill="none" viewBox="0 0 14 14"><g id="allergens-moluscs--moluscs-food-produce-allergens-allergy-shells"><path id="Vector" stroke="#000000" stroke-linecap="round" stroke-linejoin="round" d="m1.93874 11.1837 0.48295 -1.44884L5.4598 12.0825c0.35021 0.2706 0.7803 0.4174 1.22289 0.4174h0.63462c0.44259 0 0.87268 -0.1468 1.22289 -0.4174l3.0381 -2.34763 0.483 1.44883c0.2158 0.6476 -0.2662 1.3163 -0.9487 1.3163H2.88742c-0.68255 0 -1.16452 -0.6687 -0.94868 -1.3163Z" stroke-width="1"></path><path id="Ellipse 1583" stroke="#000000" stroke-linecap="round" stroke-linejoin="round" d="M7 1.5C3.41015 1.5 0.5 4.41015 0.5 8c0 0.15767 0.073056 0.30645 0.197821 0.40286L5.4598 12.0826c0.35021 0.2706 0.7803 0.4174 1.22289 0.4174h0.63462c0.44259 0 0.87268 -0.1468 1.22289 -0.4174l4.762 -3.67974C13.4269 8.30645 13.5 8.15767 13.5 8c0 -3.58985 -2.9101 -6.5 -6.5 -6.5Z" stroke-width="1"></path><path id="Vector_2" stroke="#000000" stroke-linecap="round" stroke-linejoin="round" d="M10.2165 2.35059 8.5 7.50022" stroke-width="1"></path><path id="Vector_3" stroke="#000000" stroke-linecap="round" stroke-linejoin="round" d="m3.78345 2.35059 1.71654 5.14963" stroke-width="1"></path></g></svg>