<svg xmlns="http://www.w3.org/2000/svg" fill="none" viewBox="0 0 14 14"><g id="allergens-soy-bean-1--soy-bean-food-produce-allergens-allergy"><path id="Rectangle 1952" stroke="#000000" stroke-linecap="round" stroke-linejoin="round" d="M8.62649 1c1.18712 0 2.31291 0.52729 3.07291 1.43926l0.3735 0.44822c0.599 0.71885 0.9271 1.62497 0.9271 2.5607l0 0.81653c0 1.59132 -0.6321 3.11747 -1.7574 4.24269l-0.7352 0.7353C9.38216 12.3679 7.85604 13 6.26475 13h-0.81656c-0.93575 0 -1.84188 -0.3281 -2.56074 -0.9271l-0.44819 -0.3735C1.52728 10.9394 0.999992 9.81361 1 8.62648l0 -0.26388c0.00001 -1.43502 0.85008 -2.73372 2.1652 -3.30793 0.82759 -0.36135 1.49351 -1.02842 1.85942 -1.85401C5.61367 1.87162 6.9373 1 8.39104 1h0.23545Z" stroke-width="1"></path><path id="Vector 2956" stroke="#000000" stroke-linecap="round" stroke-linejoin="round" d="M4 7c0.59719 0.2986 1.31845 0.18155 1.79057 -0.29057l0.91886 -0.91886C7.18155 5.31845 7.2986 4.59719 7 4" stroke-width="1"></path></g></svg>