<svg xmlns="http://www.w3.org/2000/svg" fill="none" viewBox="0 0 14 14"><g id="allergens-sesame--sesame-seeds-food-produce-allergens-allergy"><path id="Ellipse 1591" stroke="#000000" stroke-linecap="round" stroke-linejoin="round" d="M4 11.5c0 0.8284 -0.67157 1.5 -1.5 1.5S1 12.3284 1 11.5c0 -1.5 1.5 -3 1.5 -3S4 10 4 11.5Z" stroke-width="1"></path><path id="Ellipse 1594" stroke="#000000" stroke-linecap="round" stroke-linejoin="round" d="M12.3321 4.33211c-0.2833 0.77846 -1.1441 1.17985 -1.9225 0.89651 -0.7785 -0.28333 -1.17989 -1.14409 -0.89655 -1.92256C10.0261 1.89652 11.9486 1 11.9486 1s0.8966 1.92256 0.3835 3.33211Z" stroke-width="1"></path><path id="Ellipse 1592" stroke="#000000" stroke-linecap="round" stroke-linejoin="round" d="M8.3693 7.56485c0.42971 0.70826 0.20391 1.63078 -0.50435 2.06049 -0.70827 0.42976 -1.63078 0.20391 -2.0605 -0.50435 -0.77807 -1.28242 -0.27372 -3.34291 -0.27372 -3.34291s2.0605 0.50435 2.83857 1.78677Z" stroke-width="1"></path><path id="Ellipse 1593" stroke="#000000" stroke-linecap="round" stroke-linejoin="round" d="M12.5058 12.3165c-0.451 0.6949 -1.38 0.8926 -2.0749 0.4416 -0.69487 -0.451 -0.89258 -1.38 -0.44157 -2.0749 0.81657 -1.25819 2.89147 -1.6998 2.89147 -1.6998s0.4416 2.0748 -0.375 3.3331Z" stroke-width="1"></path><path id="Ellipse 1595" stroke="#000000" stroke-linecap="round" stroke-linejoin="round" d="M3.93155 4.5676c-0.64934 0.51445 -1.59277 0.4051 -2.10722 -0.24424 -0.51444 -0.64933 -0.40509 -1.59276 0.24424 -2.10721 1.17573 -0.93149 3.28294 -0.68725 3.28294 -0.68725s-0.24424 2.10722 -1.41996 3.0387Z" stroke-width="1"></path></g></svg>