<svg xmlns="http://www.w3.org/2000/svg" fill="none" viewBox="0 0 14 14"><g id="allergens-gluten--gluten-produce-food-allergens-allergy-wheat-bread"><path id="Vector 2965" stroke="#000000" stroke-linecap="round" stroke-linejoin="round" d="m3 11 1.17157 -1.17157c1.5621 -1.5621 1.5621 -4.09476 0 -5.65686L4 4" stroke-width="1"></path><path id="Vector" stroke="#000000" stroke-linecap="round" stroke-linejoin="round" d="M11.9659 5.434c0.2605 -0.28147 0.4592 -0.63453 0.5631 -1.05001l0.5893 -2.35698c0.1729 -0.69168 -0.4536 -1.318211 -1.1453 -1.145291l-2.35702 0.589251c-0.41547 0.10386 -0.76853 0.30259 -1.05 0.56312" stroke-width="1"></path><path id="Vector 2963" stroke="#000000" stroke-linecap="round" stroke-linejoin="round" d="m2.50001 11.5 -0.17158 -0.1716c-1.562094 -1.56207 -1.562094 -4.09473 0 -5.65683L7.50001 0.5l0.17157 0.171572c1.56209 1.562098 1.56209 4.094758 0 5.656858L2.50001 11.5Z" stroke-width="1"></path><path id="Vector 2964" stroke="#000000" stroke-linecap="round" stroke-linejoin="round" d="M2.67157 11.6716 2.5 11.5l5.17158 -5.17157c1.56209 -1.5621 4.09472 -1.56209 5.65682 0l0.1716 0.17158 -5.17158 5.17159c-1.56209 1.5621 -4.09475 1.5621 -5.65685 0Z" stroke-width="1"></path><path id="Vector 2966" stroke="#000000" stroke-linecap="round" stroke-linejoin="round" d="m3 11 1.17157 -1.17157c1.5621 -1.56209 4.09476 -1.56209 5.65686 0L10 10" stroke-width="1"></path><path id="Vector 2967" stroke="#000000" stroke-linecap="round" stroke-linejoin="round" d="m0.5 13.5 3 -3" stroke-width="1"></path></g></svg>