<svg xmlns="http://www.w3.org/2000/svg" fill="none" viewBox="0 0 14 14"><g id="allergens-celery--celery-vegetables-green-food-produce-allergy-allergens"><path id="Vector 4659" stroke="#000000" stroke-linecap="round" stroke-linejoin="round" d="M6.18068 2.30666 6.50001 5.5l2 2 3.19329 0.31933c0.9674 0.09673 1.8067 -0.66287 1.8067 -1.635 0 -0.70727 -0.4526 -1.33519 -1.1235 -1.55885L12 4.5l0.9697 -0.96967c0.3395 -0.33956 0.5303 -0.80011 0.5303 -1.28033v-0.04289c0 -0.45276 -0.1798 -0.88697 -0.5 -1.20711 -0.3201 -0.320145 -0.7543 -0.5 -1.2071 -0.5H11.75c-0.4802 0 -0.9408 0.190766 -1.2803 0.53033L9.50001 2l-0.12548 -0.37645C9.15087 0.952577 8.52295 0.5 7.81569 0.5c-0.97213 0 -1.73174 0.83936 -1.63501 1.80666Z" stroke-width="1"></path><path id="Vector 4658" stroke="#000000" stroke-linecap="round" stroke-linejoin="round" d="m1.3 9.4 5.2 -3.9 2 2 -3.9 5.2c-0.37771 0.5036 -0.97049 0.8 -1.6 0.8h-0.17157c-0.53044 0 -1.03914 -0.2107 -1.41422 -0.5858l-0.32842 -0.3284C0.710714 12.2107 0.5 11.702 0.5 11.1716V11c0 -0.6295 0.296388 -1.22229 0.8 -1.6Z" stroke-width="1"></path></g></svg>