<svg xmlns="http://www.w3.org/2000/svg" fill="none" viewBox="0 0 14 14"><g id="allergens-sulfites--sulfites-food-chemical-allergens-allergy"><path id="Ellipse 1610" stroke="#000000" stroke-linecap="round" stroke-linejoin="round" d="M13.5 7C13.5 3.41015 10.5899 0.5 7 0.5 3.41015 0.5 0.5 3.41015 0.5 7c0 3.5899 2.91015 6.5 6.5 6.5" stroke-width="1"></path><path id="Vector 2947" stroke="#000000" stroke-linecap="round" stroke-linejoin="round" d="M2.72359 8.33333c0.13728 0.3884 0.50769 0.66667 0.9431 0.66667h0.66666c0.55229 0 1 -0.44808 1 -1.00037 0 -0.46994 -0.32722 -0.87677 -0.7863 -0.97719l-1.17848 -0.25779c-0.4098 -0.08965 -0.70188 -0.45253 -0.70188 -0.87202 0 -0.49298 0.39964 -0.89263 0.89263 -0.89263h0.77403c0.29617 0 0.56227 0.12875 0.74537 0.33333 0.08609 0.09619 0.15383 0.20913 0.19773 0.33334" stroke-width="1"></path><path id="Vector 2" stroke="#000000" stroke-linecap="round" stroke-linejoin="round" d="M6.66669 6v2c0 0.55228 0.44771 1 1 1h0.66666c0.55229 0 1 -0.44772 1 -1V6c0 -0.55228 -0.44771 -1 -1 -1h-0.66666c-0.55229 0 -1 0.44772 -1 1Z" stroke-width="1"></path><path id="Vector 3" stroke="#000000" stroke-linecap="round" stroke-linejoin="round" d="M13 13.5h-2.6667v-0.5682c0 -0.3973 0.2352 -0.7569 0.5992 -0.9162l1.4838 -0.6492c0.3546 -0.1551 0.5837 -0.5054 0.5837 -0.8923 0 -0.538 -0.4361 -0.9741 -0.9741 -0.9741h-0.6926c-0.4354 0 -0.8058 0.27827 -0.9431 0.6667" stroke-width="1"></path></g></svg>