<svg xmlns="http://www.w3.org/2000/svg" fill="none" viewBox="0 0 14 14"><g id="allergens-soy-bean-2--soy-bean-food-produce-allergens-allergy"><path id="Union" stroke="#000000" stroke-linecap="round" stroke-linejoin="round" d="M10.4913 7.24822c0.8113 -0.05733 1.6064 -0.39612 2.2267 -1.01636 1.0286 -1.02866 0.8071 -3.61071 0.6345 -4.82542 -0.0563 -0.39658 -0.3625 -0.702731 -0.759 -0.759059C11.3788 0.474854 8.79686 0.25346 7.76821 1.28211c-0.62022 0.62022 -0.95901 1.4153 -1.01636 2.22655 -1.7354 0.12156 -3.12192 1.50824 -3.24323 3.24371 -0.81147 0.05722 -1.60681 0.39602 -2.2272 1.01641C0.252642 8.79756 0.475144 11.3792 0.648137 12.5934c0.056461 0.3962 0.362343 0.7021 0.758603 0.7585 1.21408 0.173 3.79566 0.3954 4.82443 -0.6334 0.62037 -0.6203 0.95917 -1.4157 1.0164 -2.2271 1.73547 -0.1213 3.12213 -1.50779 3.24373 -3.24318Z" stroke-width="1"></path><path id="Ellipse 1605" stroke="#000000" stroke-linecap="round" stroke-linejoin="round" d="M5.5 7a1.5 1.5 0 1 0 3 0 1.5 1.5 0 1 0 -3 0" stroke-width="1"></path><path id="Ellipse 1606" stroke="#000000" stroke-linecap="round" stroke-linejoin="round" d="M8.75 3.75a1.5 1.5 0 1 0 3 0 1.5 1.5 0 1 0 -3 0" stroke-width="1"></path><path id="Ellipse 1607" stroke="#000000" stroke-linecap="round" stroke-linejoin="round" d="M2.25 10.25a1.5 1.5 0 1 0 3 0 1.5 1.5 0 1 0 -3 0" stroke-width="1"></path></g></svg>