<svg xmlns="http://www.w3.org/2000/svg" fill="none" viewBox="0 0 14 14"><g id="allergens-peanut--peanuts-food-produce-allergens-allergy-nut"><path id="Union" stroke="#000000" stroke-linecap="round" stroke-linejoin="round" d="M13.5 4.5c0 -2.20914 -1.7909 -4 -4 -4 -1.83281 0 -3.37767 1.23738 -3.85086 2.91664 -0.16232 0.57605 -0.67825 1.04379 -1.2703 1.13131C2.23897 4.86425 0.5 6.73678 0.5 9c0 2.4853 2.01472 4.5 4.5 4.5 2.26323 0 4.13574 -1.739 4.45205 -3.87884 0.08751 -0.59205 0.55525 -1.10798 1.13135 -1.2703C12.2626 7.87768 13.5 6.33281 13.5 4.5Z" stroke-width="1"></path><g id="Group 1"><path id="Vector" stroke="#000000" stroke-linecap="round" stroke-linejoin="round" d="M4.75 11c-0.13807 0 -0.25 -0.1119 -0.25 -0.25s0.11193 -0.25 0.25 -0.25" stroke-width="1"></path><path id="Vector_2" stroke="#000000" stroke-linecap="round" stroke-linejoin="round" d="M4.75 11c0.13807 0 0.25 -0.1119 0.25 -0.25s-0.11193 -0.25 -0.25 -0.25" stroke-width="1"></path></g><g id="Group 3"><path id="Vector_3" stroke="#000000" stroke-linecap="round" stroke-linejoin="round" d="M4.75 8.5c-0.13807 0 -0.25 -0.11193 -0.25 -0.25S4.61193 8 4.75 8" stroke-width="1"></path><path id="Vector_4" stroke="#000000" stroke-linecap="round" stroke-linejoin="round" d="M4.75 8.5c0.13807 0 0.25 -0.11193 0.25 -0.25S4.88807 8 4.75 8" stroke-width="1"></path></g><g id="Group 2"><path id="Vector_5" stroke="#000000" stroke-linecap="round" stroke-linejoin="round" d="M7.25 8.5c-0.13807 0 -0.25 -0.11193 -0.25 -0.25S7.11193 8 7.25 8" stroke-width="1"></path><path id="Vector_6" stroke="#000000" stroke-linecap="round" stroke-linejoin="round" d="M7.25 8.5c0.13807 0 0.25 -0.11193 0.25 -0.25S7.38807 8 7.25 8" stroke-width="1"></path></g><g id="Group 4"><path id="Vector_7" stroke="#000000" stroke-linecap="round" stroke-linejoin="round" d="M10.25 5.5c-0.1381 0 -0.25 -0.11193 -0.25 -0.25s0.1119 -0.25 0.25 -0.25" stroke-width="1"></path><path id="Vector_8" stroke="#000000" stroke-linecap="round" stroke-linejoin="round" d="M10.25 5.5c0.1381 0 0.25 -0.11193 0.25 -0.25S10.3881 5 10.25 5" stroke-width="1"></path></g></g></svg>