<svg xmlns="http://www.w3.org/2000/svg" fill="none" viewBox="0 0 14 14"><g id="allergens-nuts--nuts-tree-cashew-almond-hazzlenut-food-allergens-allergy"><path id="Vector 2957" stroke="#000000" stroke-linecap="round" stroke-linejoin="round" d="M1 8.15685V12c0 0.5523 0.44772 1 1 1h3.84315c1.06086 0 2.07828 -0.4214 2.82842 -1.1716L10.25 10.25l-6.5 -6.5 -1.57843 1.57843C1.42143 6.07857 1 7.09599 1 8.15685Z" stroke-width="1"></path><path id="Vector 2958" stroke="#000000" stroke-linecap="round" stroke-linejoin="round" d="M10.5556 10.5555 3.44447 3.44441c-0.24546 -0.24546 -0.24546 -0.64343 0 -0.88889 1.96368 -1.963675 5.14743 -1.963677 7.11113 0l0.8889 0.88889c1.9636 1.96368 1.9637 5.14743 0 7.11109 -0.2455 0.2455 -0.6435 0.2455 -0.8889 0Z" stroke-width="1"></path><path id="Vector 2959" stroke="#000000" stroke-linecap="round" stroke-linejoin="round" d="m11 3 2 -2" stroke-width="1"></path></g></svg>