<svg xmlns="http://www.w3.org/2000/svg" fill="none" viewBox="0 0 14 14"><g id="allergens-lupin--lupin-food-bread-allergens-allergy"><path id="Ellipse 1557" stroke="#000000" stroke-linecap="round" stroke-linejoin="round" d="M6.5 3.5c0 1 -1.23122 2.5 -2.75 2.5S1 5.5 1 3.5 2.23122 1 3.75 1 6.5 2.5 6.5 3.5Z" stroke-width="1"></path><path id="Vector 4663" stroke="#000000" stroke-linecap="round" stroke-linejoin="round" d="M4.5 3.25v0.5" stroke-width="1"></path><path id="Vector 4664" stroke="#000000" stroke-linecap="round" stroke-linejoin="round" d="M9.5 6.75v0.5" stroke-width="1"></path><path id="Vector 4665" stroke="#000000" stroke-linecap="round" stroke-linejoin="round" d="M4.5 10.25v0.5" stroke-width="1"></path><path id="Ellipse 1558" stroke="#000000" stroke-linecap="round" stroke-linejoin="round" d="M6.5 10.5c0 1 -1.23122 2.5 -2.75 2.5S1 12.5 1 10.5 2.23122 8 3.75 8 6.5 9.5 6.5 10.5Z" stroke-width="1"></path><path id="Ellipse 1559" stroke="#000000" stroke-linecap="round" stroke-linejoin="round" d="M7.5 7c0 1 1.23122 2.5 2.75 2.5C11.7688 9.5 13 9 13 7s-1.2312 -2.5 -2.75 -2.5C8.73122 4.5 7.5 6 7.5 7Z" stroke-width="1"></path></g></svg>