<svg width="14" height="14" viewBox="0 0 14 14" fill="none" xmlns="http://www.w3.org/2000/svg">
<path d="M8.46921 6.77665C8.46921 7.82259 7.40934 8.67049 6.10191 8.67049C4.79449 8.67049 3.73462 7.82259 3.73462 6.77665C3.73462 5.73071 4.79449 4.88281 6.10191 4.88281H8.46921" stroke="#01040B" stroke-linecap="round" stroke-linejoin="round"/>
<path d="M3.73462 2.98759C3.73462 1.94165 4.79449 1.09375 6.10191 1.09375C7.40934 1.09375 8.46921 1.94165 8.46921 2.98759V7.0065C8.55141 7.40902 8.88833 8.25547 9.57837 8.42108" stroke="#01040B" stroke-linecap="round" stroke-linejoin="round"/>
<path d="M0.839844 10.061C1.97511 11.0906 4.40931 12.0569 7.44014 11.9089C10.4709 11.761 12.6191 10.5711 13.3143 9.99469" stroke="#01040B" stroke-linecap="round" stroke-linejoin="round"/>
<path d="M10.5454 9.4954C11.723 9.07167 13.3243 9.8255 13.3243 9.8255C13.3243 9.8255 13.2443 11.5935 12.3203 12.4376" stroke="#01040B" stroke-linecap="round" stroke-linejoin="round"/>
</svg>
