<svg xmlns="http://www.w3.org/2000/svg" fill="none" viewBox="0 0 14 14"><g id="angled-moon--astronomy-moon-science-space-crescent"><path id="Vector" stroke="#000000" stroke-linecap="round" stroke-linejoin="round" d="M12 10.48c-1.1617 -0.0071 -2.30054 -0.323 -3.29986 -0.91537 -0.99931 -0.59235 -1.82311 -1.43981 -2.38693 -2.4555 -0.56381 -1.01568 -0.84736 -2.16304 -0.82157 -3.32444 0.02579 -1.16139 0.36 -2.29504 0.96835 -3.28469 -1.60282 0.281382 -3.0435 1.14934 -4.0414 2.4348 -0.9979 1.28546 -1.481555 2.89636 -1.35674 4.5189 0.12481 1.62254 0.84914 3.1405 2.0319 4.2582 1.18276 1.1178 2.73924 1.7552 4.36624 1.7881 1.11313 0.0028 2.2081 -0.282 3.17871 -0.8269 0.9707 -0.5449 1.7841 -1.3313 2.3613 -2.2831 -0.3307 0.0546 -0.6649 0.0847 -1 0.09Z" stroke-width="1"></path></g></svg>