<svg width="14" height="14" viewBox="0 0 14 14" fill="none" xmlns="http://www.w3.org/2000/svg">
<path d="M1.80542 12.5836C1.86826 12.8285 2.02557 13.049 2.2616 13.1859C2.72832 13.4566 3.32608 13.2977 3.59675 12.8309L3.80581 12.4705" stroke="#01040B" stroke-linecap="round" stroke-linejoin="round"/>
<path d="M6.91827 9.43603H5.56593L7.01041 6.94526L8.94822 3.60386C9.21888 3.13714 9.05995 2.53937 8.59324 2.26871C8.12652 1.99804 7.52875 2.15697 7.25809 2.62369L7.01041 3.05076L6.76274 2.62369C6.49207 2.15697 5.89431 1.99804 5.42759 2.26871C4.96087 2.53937 4.80194 3.13714 5.07261 3.60386L5.88113 4.99801L3.30736 9.43603H1.60189C1.06237 9.43603 0.625 9.8734 0.625 10.4129C0.625 10.9524 1.06237 11.3898 1.60189 11.3898H2.17429H4.43285H7.75" stroke="#01040B" stroke-linecap="round" stroke-linejoin="round"/>
<path d="M8.93896 6.32397L10.7142 9.43697H12.27C12.8095 9.43697 13.2469 9.87435 13.2469 10.4139C13.2469 10.9534 12.8095 11.3908 12.27 11.3908H11.8472L12.115 11.8525C12.3857 12.3193 12.2268 12.917 11.76 13.1877C11.2933 13.4584 10.6956 13.2994 10.4249 12.8327L7.93896 8.57397" stroke="#01040B" stroke-linecap="round" stroke-linejoin="round"/>
</svg>
