<svg xmlns="http://www.w3.org/2000/svg" fill="none" viewBox="0 0 14 14"><g id="arrow-curvy-right--snake-arrow-sideways-diagram-right"><path id="Vector" stroke="#000000" stroke-linecap="round" stroke-linejoin="round" d="M0.5 0.75h12c0.2652 0 0.5196 0.105357 0.7071 0.29289 0.1875 0.18754 0.2929 0.44189 0.2929 0.70711v3c0 0.26522 -0.1054 0.51957 -0.2929 0.70711 -0.1875 0.18753 -0.4419 0.29289 -0.7071 0.29289h-11c-0.26522 0 -0.51957 0.10536 -0.707107 0.29289C0.605357 6.23043 0.5 6.48478 0.5 6.75v3c0 0.2652 0.105357 0.5196 0.292893 0.7071 0.187537 0.1875 0.441887 0.2929 0.707107 0.2929h12" stroke-width="1"></path><path id="Vector_2" stroke="#000000" stroke-linecap="round" stroke-linejoin="round" d="m11 8.25 2.5 2.5 -2.5 2.5" stroke-width="1"></path></g></svg>