<svg xmlns="http://www.w3.org/2000/svg" fill="none" viewBox="0 0 14 14"><g id="artist-song--artist-song-entertainment"><path id="vector" stroke="#000000" stroke-linecap="round" stroke-linejoin="round" d="M8.97083 13.1297c0.69035 0 1.24997 -0.5596 1.24997 -1.25s-0.55962 -1.25 -1.24997 -1.25c-0.69036 0 -1.25 0.5596 -1.25 1.25s0.55964 1.25 1.25 1.25Z" stroke-width="1"></path><path id="vector_2" stroke="#000000" stroke-linecap="round" stroke-linejoin="round" d="M10.2208 11.8797V7.12972c0.3807 -0.02299 0.7621 0.03122 1.1213 0.15935 0.3593 0.12813 0.6889 0.32755 0.9691 0.58627 0.2802 0.25873 0.5052 0.57142 0.6615 0.9193 0.1563 0.34788 0.2407 0.72376 0.2481 1.10508" stroke-width="1"></path><path id="vector_3" stroke="#000000" stroke-linecap="round" stroke-linejoin="round" d="M4.93953 5.29167c1.23689 0 2.23959 -1.0027 2.23959 -2.23959 0 -1.23688 -1.0027 -2.23958 -2.23959 -2.23958 -1.23688 0 -2.23958 1.0027 -2.23958 2.23958 0 1.23689 1.0027 2.23959 2.23958 2.23959Z" stroke-width="1"></path><path id="vector_4" stroke="#000000" stroke-linecap="round" stroke-linejoin="round" d="M4.93958 11.5625H0.908325l0 -0.4857c0.007132 -0.6828 0.187205 -1.35264 0.523415 -1.94699 0.3362 -0.59434 0.81756 -1.09378 1.39911 -1.45166 0.58155 -0.35788 1.24432 -0.56252 1.92641 -0.59481 0.06081 -0.00288 0.1216 -0.00438 0.18232 -0.00451 0.06071 0.00013 0.1215 0.00163 0.18231 0.00451 0.68209 0.03229 1.34486 0.23693 1.92641 0.59481" stroke-width="1"></path></g></svg>