<svg xmlns="http://www.w3.org/2000/svg" fill="none" viewBox="0 0 14 14"><g id="artificial-intelligence-brain--brain-thought-ai-automated-wires-electronic-ai"><path id="Union" stroke="#000000" stroke-linecap="round" stroke-linejoin="round" d="M4.61965 1.43823c1.31451 0 2.38014 1.06563 2.38014 2.38014l-0.00006 6.47043c0 1.5044 -1.2196 2.724 -2.72405 2.724s-2.72405 -1.2196 -2.72405 -2.724c0 -0.0771 0.0032 -0.1534 0.00948 -0.2289C0.994177 9.45085 0.636475 8.25951 0.636475 7.26549c0 -1.35449 0.664155 -2.67144 1.616865 -3.18911 -0.00914 -0.08475 -0.01383 -0.17083 -0.01383 -0.25801 0 -1.31451 1.06563 -2.38014 2.38014 -2.38014Z" stroke-width="1"></path><path id="Union_2" stroke="#000000" stroke-linecap="round" stroke-linejoin="round" d="M9.38011 1.43823c-1.31452 0 -2.38014 1.06563 -2.38014 2.38014l0.00006 6.47043c0 1.5044 1.2196 2.724 2.72405 2.724 1.50442 0 2.72402 -1.2196 2.72402 -2.724 0 -0.0771 -0.0032 -0.1534 -0.0095 -0.2289 0.567 -0.60905 0.9247 -1.80039 0.9247 -2.79441 0 -1.35449 -0.6642 -2.67144 -1.6169 -3.18911 0.0092 -0.08475 0.0138 -0.17083 0.0138 -0.25801 0 -1.31451 -1.0656 -2.38014 -2.38009 -2.38014Z" stroke-width="1"></path><path id="Vector 611" stroke="#000000" stroke-linecap="round" stroke-linejoin="round" d="M10.4886 5.69409c0.3495 -0.07968 1.1414 -0.59904 1.2609 -1.61157" stroke-width="1"></path><path id="Vector 612" stroke="#000000" stroke-linecap="round" stroke-linejoin="round" d="M9.02979 8.36479c-1.42751 -0.15933 -1.9932 -1.66583 -2.02999 -2.27861" stroke-width="1"></path><path id="Vector 613" stroke="#000000" stroke-linecap="round" stroke-linejoin="round" d="M11.7103 8.63184c0.3555 0.28074 0.639 0.91698 0.7309 1.42666" stroke-width="1"></path><path id="Ellipse 1506" stroke="#000000" stroke-linecap="round" stroke-linejoin="round" d="M2.5 7.5a1 1 0 1 0 2 0 1 1 0 1 0 -2 0" stroke-width="1"></path><path id="Vector 2700" stroke="#000000" stroke-linecap="round" stroke-linejoin="round" d="M4.5 7.5H7" stroke-width="1"></path><path id="Vector 2702" stroke="#000000" stroke-linecap="round" stroke-linejoin="round" d="M7 10H4.5v1" stroke-width="1"></path><path id="Vector 2701" stroke="#000000" stroke-linecap="round" stroke-linejoin="round" d="M7.00002 4.50006H4.50001L2.68743 2.68757" stroke-width="1"></path></g></svg>