<svg xmlns="http://www.w3.org/2000/svg" fill="none" viewBox="0 0 14 14"><g id="artificial-intelligence-robot--brain-thought-ai-automated-ai"><path id="Rectangle 721" stroke="#000000" stroke-linecap="round" stroke-linejoin="round" d="M7.5 5c0 -1.65685 1.34315 -3 3 -3v0c1.6569 0 3 1.34315 3 3v0.5c0 0.55228 -0.4477 1 -1 1h-4c-0.55228 0 -1 -0.44772 -1 -1V5Z" stroke-width="1"></path><g id="Group 627"><path id="Vector" stroke="#000000" stroke-linecap="round" stroke-linejoin="round" d="M9.25 4.75c-0.13807 0 -0.25 -0.11193 -0.25 -0.25s0.11193 -0.25 0.25 -0.25" stroke-width="1"></path><path id="Vector_2" stroke="#000000" stroke-linecap="round" stroke-linejoin="round" d="M9.25 4.75c0.13807 0 0.25 -0.11193 0.25 -0.25s-0.11193 -0.25 -0.25 -0.25" stroke-width="1"></path></g><g id="Group 628"><path id="Vector_3" stroke="#000000" stroke-linecap="round" stroke-linejoin="round" d="M11.75 4.75c-0.1381 0 -0.25 -0.11193 -0.25 -0.25s0.1119 -0.25 0.25 -0.25" stroke-width="1"></path><path id="Vector_4" stroke="#000000" stroke-linecap="round" stroke-linejoin="round" d="M11.75 4.75c0.1381 0 0.25 -0.11193 0.25 -0.25s-0.1119 -0.25 -0.25 -0.25" stroke-width="1"></path></g><path id="Vector 2678" stroke="#000000" stroke-linecap="round" stroke-linejoin="round" d="M10.5 2V0.5" stroke-width="1"></path><path id="Union" stroke="#000000" stroke-linecap="round" stroke-linejoin="round" d="M6.99973 8v2.2888c0 1.5044 -1.2196 2.724 -2.72405 2.724s-2.72405 -1.2196 -2.72405 -2.724c0 -0.0771 0.0032 -0.1535 0.00948 -0.2289C0.994177 9.45085 0.636475 8.25951 0.636475 7.26549c0 -1.35449 0.664155 -2.67144 1.616865 -3.18911 -0.00914 -0.08475 -0.01383 -0.17083 -0.01383 -0.25801 0 -1.31451 1.06563 -2.38014 2.38014 -2.38014 0.68843 0 1.30859 0.29228 1.74317 0.75951" stroke-width="1"></path><path id="Vector 605" stroke="#000000" stroke-linecap="round" stroke-linejoin="round" d="M3.51115 5.69409c-0.34948 -0.07968 -1.14142 -0.59904 -1.26091 -1.61157" stroke-width="1"></path><path id="Vector 606" stroke="#000000" stroke-linecap="round" stroke-linejoin="round" d="M2.28949 8.63184c-0.35556 0.28074 -0.63905 0.91698 -0.7309 1.42666" stroke-width="1"></path><path id="Union_2" stroke="#000000" stroke-linecap="round" stroke-linejoin="round" d="M7.00002 10.2888c0 1.5044 1.2196 2.724 2.72406 2.724 1.50442 0 2.72402 -1.2196 2.72402 -2.724 0 -0.0771 -0.0032 -0.1535 -0.0095 -0.2289 0.3334 -0.3581 0.5944 -0.91747 0.7529 -1.51968" stroke-width="1"></path><path id="Vector 613" stroke="#000000" stroke-linecap="round" stroke-linejoin="round" d="M11.7103 8.63184c0.3555 0.28074 0.639 0.91698 0.7309 1.42666" stroke-width="1"></path></g></svg>