<svg xmlns="http://www.w3.org/2000/svg" fill="none" viewBox="0 0 14 14"><g id="artificial-intelligence-brain-chip--brain-thought-ai-automated-processor-implant-ai"><path id="Rectangle 723" stroke="#000000" stroke-linecap="round" stroke-linejoin="round" d="M8.5 1.5h4v4h-4z" stroke-width="1"></path><path id="Vector 2689" stroke="#000000" stroke-linecap="round" stroke-linejoin="round" d="M9.5 1.5v-1" stroke-width="1"></path><path id="Vector 2690" stroke="#000000" stroke-linecap="round" stroke-linejoin="round" d="M11.5 1.5v-1" stroke-width="1"></path><path id="Vector 2691" stroke="#000000" stroke-linecap="round" stroke-linejoin="round" d="M9.5 6.5v-1" stroke-width="1"></path><path id="Vector 2692" stroke="#000000" stroke-linecap="round" stroke-linejoin="round" d="M11.5 6.5v-1" stroke-width="1"></path><path id="Vector 2693" stroke="#000000" stroke-linecap="round" stroke-linejoin="round" d="m12.5 2.5 1 0" stroke-width="1"></path><path id="Vector 2694" stroke="#000000" stroke-linecap="round" stroke-linejoin="round" d="m12.5 4.5 1 0" stroke-width="1"></path><path id="Vector 2695" stroke="#000000" stroke-linecap="round" stroke-linejoin="round" d="m7.5 2.5 1 0" stroke-width="1"></path><path id="Vector 2696" stroke="#000000" stroke-linecap="round" stroke-linejoin="round" d="m7.5 4.5 1 0" stroke-width="1"></path><path id="Union" stroke="#000000" stroke-linecap="round" stroke-linejoin="round" d="m6.99979 7.31837 -0.00006 2.97043c0 1.5044 -1.2196 2.724 -2.72405 2.724s-2.72405 -1.2196 -2.72405 -2.724c0 -0.0771 0.0032 -0.1535 0.00948 -0.2289C0.994177 9.45085 0.636475 8.25951 0.636475 7.26549c0 -1.35449 0.664155 -2.67144 1.616865 -3.18911 -0.00914 -0.08475 -0.01383 -0.17083 -0.01383 -0.25801 0 -1.31451 1.06563 -2.38014 2.38014 -2.38014 0.31099 0 0.60804 0.05964 0.88035 0.16811" stroke-width="1"></path><path id="Vector 605" stroke="#000000" stroke-linecap="round" stroke-linejoin="round" d="M3.51115 5.69409c-0.34948 -0.07968 -1.14142 -0.59904 -1.26091 -1.61157" stroke-width="1"></path><path id="Vector 606" stroke="#000000" stroke-linecap="round" stroke-linejoin="round" d="M2.28949 8.63184c-0.35556 0.28074 -0.63905 0.91698 -0.7309 1.42666" stroke-width="1"></path><path id="Union_2" stroke="#000000" stroke-linecap="round" stroke-linejoin="round" d="M7.00002 10.2888c0 1.5044 1.2196 2.724 2.72405 2.724 1.50443 0 2.72403 -1.2196 2.72403 -2.724 0 -0.0771 -0.0032 -0.1535 -0.0095 -0.2289 0.497 -0.53386 0.8332 -1.51508 0.9086 -2.41866" stroke-width="1"></path><path id="Vector 613" stroke="#000000" stroke-linecap="round" stroke-linejoin="round" d="M11.7103 8.63184c0.3555 0.28074 0.639 0.91698 0.7309 1.42666" stroke-width="1"></path></g></svg>