<svg xmlns="http://www.w3.org/2000/svg" fill="none" viewBox="0 0 14 14"><g id="ascending-number-order"><path id="Vector 2" stroke="#000000" stroke-linecap="round" stroke-linejoin="round" d="m10.6667 0.499512 0 4.999998" stroke-width="1"></path><path id="Vector 3" stroke="#000000" stroke-linecap="round" stroke-linejoin="round" d="m9.00008 1.74951 0.41667 0c0.69035 0 1.24995 -0.55964 1.24995 -1.249998v0" stroke-width="1"></path><path id="Vector 1" stroke="#000000" stroke-linecap="round" stroke-linejoin="round" d="m12.3335 5.49951 -3.33334 0" stroke-width="1"></path><path id="Vector 2_2" stroke="#000000" stroke-linecap="round" stroke-linejoin="round" d="m9.92214 11.0933 0.65626 0c0.7852 0 1.4218 -0.6366 1.4218 -1.4219 0 -0.78529 -0.6366 -1.42188 -1.4218 -1.42188l-0.65628 0.00001c-0.78527 0 -1.42186 0.63659 -1.42186 1.42187 0 0.7853 0.6366 1.4219 1.42188 1.4219Z" stroke-width="1"></path><path id="Vector 3_2" stroke="#000000" stroke-linecap="round" stroke-linejoin="round" d="m12.0001 9.56201 0 2.62499c0 0.7249 -0.5876 1.3125 -1.3125 1.3125h-0.87496c-0.57147 0 -1.05763 -0.3652 -1.23781 -0.875" stroke-width="1"></path><path id="Vector 348" stroke="#000000" stroke-linecap="round" stroke-linejoin="round" d="m6 11 -2.5 2.5L1 11" stroke-width="1"></path><path id="Vector 349" stroke="#000000" stroke-linecap="round" stroke-linejoin="round" d="M3.5 0.5v13" stroke-width="1"></path></g></svg>