<svg xmlns="http://www.w3.org/2000/svg" fill="none" viewBox="0 0 14 14"><g id="atom--science-atom"><path id="Ellipse 967" stroke="#000000" stroke-linecap="round" stroke-linejoin="round" d="M9.10623 9.10617C6.00435 12.2081 2.54681 13.7797 1.38361 12.6165c-1.163207 -1.1633 0.4084 -4.62079 3.51028 -7.72267C7.99577 1.79195 11.4533 0.220342 12.6165 1.38355c1.1632 1.1632 -0.4084 4.62074 -3.51027 7.72262Z" stroke-width="1"></path><path id="Ellipse 968" stroke="#000000" stroke-linecap="round" stroke-linejoin="round" d="M4.89383 9.10617c3.10188 3.10193 6.55937 4.67353 7.72267 3.51033 1.1632 -1.1633 -0.4084 -4.62079 -3.51033 -7.72267C6.00429 1.79195 2.54675 0.220342 1.38355 1.38355c-1.163208 1.1632 0.4084 4.62074 3.51028 7.72262Z" stroke-width="1"></path><g id="Group 4484"><path id="Ellipse 969" stroke="#000000" stroke-linecap="round" stroke-linejoin="round" d="M7 7.5c-0.27614 0 -0.5 -0.22386 -0.5 -0.5s0.22386 -0.5 0.5 -0.5" stroke-width="1"></path><path id="Ellipse 970" stroke="#000000" stroke-linecap="round" stroke-linejoin="round" d="M7 7.5c0.27614 0 0.5 -0.22386 0.5 -0.5s-0.22386 -0.5 -0.5 -0.5" stroke-width="1"></path></g></g></svg>