<svg xmlns="http://www.w3.org/2000/svg" fill="none" viewBox="0 0 14 14"><g id="auto-correction-check"><g id="Group 4625"><path id="Ellipse 1849" stroke="#000000" stroke-linecap="round" stroke-linejoin="round" d="M0.75 11c-0.138071 0 -0.25 -0.1119 -0.25 -0.25s0.111929 -0.25 0.25 -0.25" stroke-width="1"></path><path id="Ellipse 1850" stroke="#000000" stroke-linecap="round" stroke-linejoin="round" d="M0.75 11c0.138071 0 0.25 -0.1119 0.25 -0.25s-0.111929 -0.25 -0.25 -0.25" stroke-width="1"></path></g><g id="Group 4626"><path id="Ellipse 1849_2" stroke="#000000" stroke-linecap="round" stroke-linejoin="round" d="M3.875 11c-0.13807 0 -0.25 -0.1119 -0.25 -0.25s0.11193 -0.25 0.25 -0.25" stroke-width="1"></path><path id="Ellipse 1850_2" stroke="#000000" stroke-linecap="round" stroke-linejoin="round" d="M3.875 11c0.13807 0 0.25 -0.1119 0.25 -0.25s-0.11193 -0.25 -0.25 -0.25" stroke-width="1"></path></g><g id="Group 4627"><path id="Ellipse 1849_3" stroke="#000000" stroke-linecap="round" stroke-linejoin="round" d="M7 11c-0.13807 0 -0.25 -0.1119 -0.25 -0.25s0.11193 -0.25 0.25 -0.25" stroke-width="1"></path><path id="Ellipse 1850_3" stroke="#000000" stroke-linecap="round" stroke-linejoin="round" d="M7 11c0.13807 0 0.25 -0.1119 0.25 -0.25s-0.11193 -0.25 -0.25 -0.25" stroke-width="1"></path></g><g id="Group 4628"><path id="Ellipse 1849_4" stroke="#000000" stroke-linecap="round" stroke-linejoin="round" d="M10.125 11c-0.13807 0 -0.25 -0.1119 -0.25 -0.25s0.11193 -0.25 0.25 -0.25" stroke-width="1"></path><path id="Ellipse 1850_4" stroke="#000000" stroke-linecap="round" stroke-linejoin="round" d="M10.125 11c0.1381 0 0.25 -0.1119 0.25 -0.25s-0.1119 -0.25 -0.25 -0.25" stroke-width="1"></path></g><g id="Group 4629"><path id="Ellipse 1849_5" stroke="#000000" stroke-linecap="round" stroke-linejoin="round" d="M13.25 11c-0.1381 0 -0.25 -0.1119 -0.25 -0.25s0.1119 -0.25 0.25 -0.25" stroke-width="1"></path><path id="Ellipse 1850_5" stroke="#000000" stroke-linecap="round" stroke-linejoin="round" d="M13.25 11c0.1381 0 0.25 -0.1119 0.25 -0.25s-0.1119 -0.25 -0.25 -0.25" stroke-width="1"></path></g><path id="Vector 4281" stroke="#000000" stroke-linecap="round" stroke-linejoin="round" d="m0.5 7.5 1.38141 -4.14424C1.95223 3.1433 2.15105 3 2.375 3c0.22395 0 0.42277 0.1433 0.49359 0.35576L4.25 7.5" stroke-width="1"></path><path id="Vector 4282" stroke="#000000" stroke-linecap="round" stroke-linejoin="round" d="M1 6h2.75" stroke-width="1"></path><path id="Vector 4283" stroke="#000000" stroke-linecap="round" stroke-linejoin="round" d="M5.75 5V3h1.5c0.55228 0 1 0.44772 1 1s-0.44772 1 -1 1h-1.5Z" stroke-width="1"></path><path id="Vector 4284" stroke="#000000" stroke-linecap="round" stroke-linejoin="round" d="M5.75 7.5V5H7.5c0.69036 0 1.25 0.55964 1.25 1.25S8.19036 7.5 7.5 7.5H5.75Z" stroke-width="1"></path><path id="Vector 4285" stroke="#000000" stroke-linecap="round" stroke-linejoin="round" d="M13.5 6.5c0 0.55228 -0.4477 1 -1 1h-1c-0.5523 0 -1 -0.44772 -1 -1V4c0 -0.55228 0.4477 -1 1 -1h1c0.5523 0 1 0.44772 1 1" stroke-width="1"></path></g></svg>