<svg xmlns="http://www.w3.org/2000/svg" fill="none" viewBox="0 0 14 14"><g id="back-camera-2--android-phone-mobile-device-smartphone-iphone-camera-lenses-three"><g id="Group 636"><path id="Ellipse 1020" stroke="#000000" stroke-linecap="round" stroke-linejoin="round" d="M4.80005 3.25c-0.13807 0 -0.25 -0.11193 -0.25 -0.25s0.11193 -0.25 0.25 -0.25" stroke-width="1"></path><path id="Ellipse 1021" stroke="#000000" stroke-linecap="round" stroke-linejoin="round" d="M4.80005 3.25c0.13807 0 0.25 -0.11193 0.25 -0.25s-0.11193 -0.25 -0.25 -0.25" stroke-width="1"></path></g><g id="Group 639"><path id="Ellipse 1020_2" stroke="#000000" stroke-linecap="round" stroke-linejoin="round" d="M4.80005 5.64999c-0.13807 0 -0.25 -0.11192 -0.25 -0.25 0 -0.13807 0.11193 -0.25 0.25 -0.25" stroke-width="1"></path><path id="Ellipse 1021_2" stroke="#000000" stroke-linecap="round" stroke-linejoin="round" d="M4.80005 5.64999c0.13807 0 0.25 -0.11192 0.25 -0.25 0 -0.13807 -0.11193 -0.25 -0.25 -0.25" stroke-width="1"></path></g><g id="Group 640"><path id="Ellipse 1020_3" stroke="#000000" stroke-linecap="round" stroke-linejoin="round" d="M4.80005 8.04999c-0.13807 0 -0.25 -0.11193 -0.25 -0.25s0.11193 -0.25 0.25 -0.25" stroke-width="1"></path><path id="Ellipse 1021_3" stroke="#000000" stroke-linecap="round" stroke-linejoin="round" d="M4.80005 8.04999c0.13807 0 0.25 -0.11193 0.25 -0.25s-0.11193 -0.25 -0.25 -0.25" stroke-width="1"></path></g><path id="Vector" stroke="#000000" stroke-linecap="round" stroke-linejoin="round" d="M10.4573 0.5H3.45728c-0.55229 0 -1 0.447715 -1 1v11c0 0.5523 0.44771 1 1 1h7.00002c0.5523 0 1 -0.4477 1 -1v-11c0 -0.552285 -0.4477 -1 -1 -1Z" stroke-width="1"></path></g></svg>