<svg xmlns="http://www.w3.org/2000/svg" fill="none" viewBox="0 0 14 14"><g id="bag-bitcoin--bag-payment-cash-money-finance-crypto"><path id="Vector" stroke="#000000" stroke-linecap="round" stroke-linejoin="round" d="M7.58248 7.95571c0.13618 0.00199 0.27139 -0.02312 0.39778 -0.07386 0.12639 -0.05074 0.24143 -0.1261 0.33843 -0.22171 0.097 -0.0956 0.17402 -0.20953 0.22659 -0.33517 0.05256 -0.12564 0.07963 -0.26048 0.07961 -0.39667v0c0 -0.27249 -0.10824 -0.53382 -0.30092 -0.7265 -0.19268 -0.19268 -0.454 -0.30092 -0.72649 -0.30092H6.01511c-0.09945 0 -0.19483 0.0395 -0.26515 0.10982 -0.07032 0.07033 -0.10982 0.1657 -0.10982 0.26515v3.74965c0 0.0995 0.0395 0.1949 0.10982 0.2652s0.1657 0.1098 0.26515 0.1098h1.56737c0.32221 0 0.63123 -0.128 0.85906 -0.3558 0.22784 -0.22786 0.35584 -0.53688 0.35584 -0.85909s-0.128 -0.63123 -0.35584 -0.85906c-0.22783 -0.22784 -0.53685 -0.35584 -0.85906 -0.35584v-0.015Z" stroke-width="1"></path><path id="Vector_2" stroke="#000000" stroke-linecap="round" stroke-linejoin="round" d="M7.59748 7.95569H5.64014" stroke-width="1"></path><path id="Vector_3" stroke="#000000" stroke-linecap="round" stroke-linejoin="round" d="M6.88379 5.90088v-0.68994" stroke-width="1"></path><path id="Vector_4" stroke="#000000" stroke-linecap="round" stroke-linejoin="round" d="m6.88379 11.2104 0 -0.81" stroke-width="1"></path><path id="Vector_5" stroke="#000000" stroke-linecap="round" stroke-linejoin="round" d="M7 13.5c3.5 0 6 -1.2381 6 -3.99386 0 -2.99539 -1.5 -4.99232 -4.5 -6.49001l1.18 -1.51767c0.05995 -0.09957 0.09246 -0.2132 0.09425 -0.32937S9.74704 0.938348 9.69018 0.836979C9.63333 0.73561 9.55065 0.651051 9.45051 0.591872 9.35038 0.532693 9.23636 0.500998 9.12 0.5H4.88c-0.11636 0.000998 -0.23038 0.032693 -0.33051 0.091872 -0.10014 0.059179 -0.18282 0.143738 -0.23967 0.245107 -0.05686 0.101369 -0.08586 0.215941 -0.08407 0.332111s0.0343 0.2298 0.09425 0.32937L5.5 3.02611c-3 1.50768 -4.5 3.50461 -4.5 6.5C1 12.2619 3.5 13.5 7 13.5Z" stroke-width="1"></path></g></svg>