<svg xmlns="http://www.w3.org/2000/svg" fill="none" viewBox="0 0 14 14"><g id="baggage-lockers"><path id="Vector 4701" stroke="#000000" stroke-linecap="round" stroke-linejoin="round" d="M1 11V6c0 -1.10457 0.89543 -2 2 -2h8c1.1046 0 2 0.89543 2 2v5c0 1.1046 -0.8954 2 -2 2H3c-1.10457 0 -2 -0.8954 -2 -2Z" stroke-width="1"></path><path id="Vector 4702" stroke="#000000" stroke-linecap="round" stroke-linejoin="round" d="M5 4V3c0 -1.10457 0.89543 -2 2 -2v0c1.10457 0 2 0.89543 2 2v1" stroke-width="1"></path><path id="Vector" stroke="#000000" stroke-linecap="round" stroke-linejoin="round" d="M5 10.25c0.9665 0 1.75 -0.7835 1.75 -1.75S5.9665 6.75 5 6.75s-1.75 0.7835 -1.75 1.75 0.7835 1.75 1.75 1.75Z" stroke-width="1"></path><path id="Vector_2" stroke="#000000" stroke-linecap="round" stroke-linejoin="round" d="M6.75 8.5h4V10" stroke-width="1"></path><path id="Vector_3" stroke="#000000" stroke-linecap="round" stroke-linejoin="round" d="M8.75 8.5V10" stroke-width="1"></path></g></svg>