<svg xmlns="http://www.w3.org/2000/svg" fill="none" viewBox="0 0 14 14"><g id="baggage-airplane--checked-travel-plane-baggage-luggage-check-adventure-bag-airport"><path id="Vector" stroke="#000000" stroke-linecap="round" stroke-linejoin="round" d="m1.67704 7.08943 1.06 0.29c0.06869 0.02113 0.12891 0.06348 0.17203 0.12097 0.04312 0.0575 0.06692 0.12717 0.06797 0.19903v1.3l4.4 0.52c0.36002 0.01661 0.71209 0.11149 1.0317 0.27803 0.31962 0.16655 0.59909 0.40074 0.81897 0.68634 0.21988 0.2855 0.37488 0.6156 0.4542 0.9671 0.07933 0.3516 0.08108 0.7162 0.00513 1.0685 -0.02188 0.0864 -0.06104 0.1675 -0.11511 0.2384 -0.05406 0.0708 -0.12193 0.13 -0.19949 0.1739 -0.07756 0.044 -0.16322 0.0717 -0.2518 0.0816 -0.08858 0.0099 -0.17825 0.0018 -0.2636 -0.0239l-2.65 -0.71 -0.23 -0.02 -1.33 1.15c-0.04656 0.0389 -0.10153 0.0663 -0.16055 0.0802 -0.05902 0.0139 -0.12046 0.0138 -0.17945 -0.0002l-1.2 -0.33c-0.06326 -0.0144 -0.12144 -0.0456 -0.1684 -0.0904 -0.04696 -0.0448 -0.08094 -0.1014 -0.09836 -0.1639 -0.01742 -0.0625 -0.01762 -0.1286 -0.00059 -0.1912 0.01703 -0.0626 0.05067 -0.1194 0.09735 -0.1645l0.83 -0.88 -0.17 -0.05 -2.59 -0.7c-0.170143 -0.0426 -0.316766 -0.1503 -0.408383 -0.2999s-0.120922 -0.3291 -0.08162 -0.5001l0.760003 -2.80997c0.02749 -0.07976 0.08366 -0.14645 0.15758 -0.18711 0.07393 -0.04066 0.16033 -0.05238 0.24242 -0.03289Z" stroke-width="1"></path><path id="Vector 4703" stroke="#000000" stroke-linecap="round" stroke-linejoin="round" d="M5.5 3v4" stroke-width="1"></path><path id="Vector 4704" stroke="#000000" stroke-linecap="round" stroke-linejoin="round" d="M10.5 3v5.5" stroke-width="1"></path><path id="Vector 4705" stroke="#000000" stroke-linecap="round" stroke-linejoin="round" d="M12 11v0c0.8284 0 1.5 -0.6716 1.5 -1.5v-5c0 -0.82843 -0.6716 -1.5 -1.5 -1.5H4c-0.82843 0 -1.5 0.67157 -1.5 1.5V5" stroke-width="1"></path><path id="Vector 4702" stroke="#000000" stroke-linecap="round" stroke-linejoin="round" d="M6 3v-0.5c0 -1.10457 0.89543 -2 2 -2v0c1.10457 0 2 0.89543 2 2V3" stroke-width="1"></path></g></svg>