<svg xmlns="http://www.w3.org/2000/svg" fill="none" viewBox="0 0 14 14"><g id="baggage-scale--checked-travel-weight-baggage-luggage-check-adventure-bag-weigh-scale-airport"><path id="Vector 4702" stroke="#000000" stroke-linecap="round" stroke-linejoin="round" d="M4 3v-0.5c0 -1.10457 0.89543 -2 2 -2v0c1.10457 0 2 0.89543 2 2V3" stroke-width="1"></path><path id="Vector 4703" stroke="#000000" stroke-linecap="round" stroke-linejoin="round" d="M3.5 3v8" stroke-width="1"></path><path id="Vector 4704" stroke="#000000" stroke-linecap="round" stroke-linejoin="round" d="M8.5 3v3" stroke-width="1"></path><path id="vector" stroke="#000000" stroke-linecap="round" stroke-linejoin="round" d="M10.5 13.5c1.6569 0 3 -1.3431 3 -3 0 -1.65685 -1.3431 -3 -3 -3 -1.65685 0 -3 1.34315 -3 3 0 1.6569 1.34315 3 3 3Z" stroke-width="1"></path><path id="vector_2" stroke="#000000" stroke-linecap="round" stroke-linejoin="round" d="m11.25 9.75 -0.75 0.75" stroke-width="1"></path><path id="Vector 4705" stroke="#000000" stroke-linecap="round" stroke-linejoin="round" d="M5.25 11H2c-0.82843 0 -1.5 -0.6716 -1.5 -1.5v-5C0.5 3.67157 1.17157 3 2 3h8c0.8284 0 1.5 0.67157 1.5 1.5v0.75" stroke-width="1"></path></g></svg>