<svg xmlns="http://www.w3.org/2000/svg" fill="none" viewBox="0 0 14 14"><g id="behance"><path id="Ellipse 21" stroke="#000000" stroke-linecap="round" stroke-linejoin="round" d="M10.7144 6.07056c-1.53822 0 -2.7852 1.24698 -2.7852 2.7852h5.5704c0 -1.53822 -1.247 -2.7852 -2.7852 -2.7852Z" stroke-width="1"></path><path id="Ellipse 22" stroke="#000000" stroke-linecap="round" stroke-linejoin="round" d="M7.9292 8.85571c0 1.53819 1.24698 2.78519 2.7852 2.78519 0.8108 0 1.5403 -0.3473 2.0493 -0.9002 0.0807 -0.0877 0.1559 -0.1806 0.2249 -0.2781" stroke-width="1"></path><path id="Vector 568" stroke="#000000" stroke-linecap="round" stroke-linejoin="round" d="M8.85498 3.28833h3.71362" stroke-width="1"></path><path id="Vector" stroke="#000000" stroke-linecap="round" stroke-linejoin="round" d="M0.5 6.99992h3.1158m-3.1158 0v4.64198h3.1158c1.43401 0 2.59651 -1.0391 2.59651 -2.32097 0 -1.28186 -1.1625 -2.32101 -2.59651 -2.32101m-3.1158 0V2.35791h3.1158c1.43401 0 2.59651 1.03915 2.59651 2.32101 0 1.28185 -1.1625 2.321 -2.59651 2.321" stroke-width="1"></path></g></svg>