<svg xmlns="http://www.w3.org/2000/svg" fill="none" viewBox="0 0 14 14"><g id="bell-set-timer--notification-alarm-alert-bell-set-time"><path id="Vector" stroke="#000000" stroke-linecap="round" stroke-linejoin="round" d="M5 13.5h2" stroke-width="1"></path><path id="Vector_2" stroke="#000000" stroke-linecap="round" stroke-linejoin="round" d="M10 6.5c1.6569 0 3 -1.34315 3 -3s-1.3431 -3 -3 -3c-1.65685 0 -3 1.34315 -3 3s1.34315 3 3 3Z" stroke-width="1"></path><path id="Vector_3" stroke="#000000" stroke-linecap="round" stroke-linejoin="round" d="m10 3.5 0.75 -0.75" stroke-width="1"></path><path id="Vector_4" stroke="#000000" stroke-linecap="round" stroke-linejoin="round" d="M10 8.5v0.99995c0 0.39782 0.158 0.77935 0.4393 1.06065 0.2813 0.2813 0.6629 0.4393 1.0607 0.4393H0.5c0.397825 0 0.77936 -0.158 1.06066 -0.4393C1.84196 10.2793 2 9.89777 2 9.49995v-3.5c0 -1.06087 0.42143 -2.07828 1.17157 -2.82843C3.68111 2.66198 4.31397 2.3041 5 2.12695" stroke-width="1"></path></g></svg>