<svg xmlns="http://www.w3.org/2000/svg" fill="none" viewBox="0 0 14 14"><g id="bill-dollar-4--accounting-billing-payment-finance-cash-currency-money-bill-dollar-stack-dollar"><path id="Vector" stroke="#000000" stroke-linecap="round" stroke-linejoin="round" d="M10 1.75H1.5c-0.552285 0 -1 0.44772 -1 1v6c0 0.55228 0.447715 1 1 1H10c0.5523 0 1 -0.44772 1 -1v-6c0 -0.55228 -0.4477 -1 -1 -1Z" stroke-width="1"></path><path id="Vector_2" stroke="#000000" stroke-linecap="round" stroke-linejoin="round" d="M3.5 12.25h9c0.2652 0 0.5196 -0.1054 0.7071 -0.2929s0.2929 -0.4419 0.2929 -0.7071v-5" stroke-width="1"></path><g id="Group 8"><path id="Ellipse 1" stroke="#000000" stroke-linecap="round" stroke-linejoin="round" d="M2.5249 5.85669c-0.13807 0 -0.25 -0.11193 -0.25 -0.25s0.11193 -0.25 0.25 -0.25" stroke-width="1"></path><path id="Ellipse 2" stroke="#000000" stroke-linecap="round" stroke-linejoin="round" d="M2.52495 5.85669c0.13807 0 0.25 -0.11193 0.25 -0.25s-0.11193 -0.25 -0.25 -0.25" stroke-width="1"></path></g><g id="Group 9"><path id="Ellipse 1_2" stroke="#000000" stroke-linecap="round" stroke-linejoin="round" d="M8.9751 5.85669c-0.13807 0 -0.25 -0.11193 -0.25 -0.25s0.11193 -0.25 0.25 -0.25" stroke-width="1"></path><path id="Ellipse 2_2" stroke="#000000" stroke-linecap="round" stroke-linejoin="round" d="M8.97514 5.85669c0.13807 0 0.25 -0.11193 0.25 -0.25s-0.11193 -0.25 -0.25 -0.25" stroke-width="1"></path></g><path id="Vector 3" stroke="#000000" stroke-linecap="round" stroke-linejoin="round" d="M6.8137 4.49562c-0.03659 -0.1035 -0.09304 -0.19762 -0.16478 -0.27778 -0.15259 -0.17048 -0.37433 -0.27778 -0.62114 -0.27778h-0.64503c-0.41083 0 -0.74387 0.33304 -0.74387 0.74387 0 0.34957 0.24341 0.65198 0.58491 0.72668l0.98207 0.21483c0.38257 0.08369 0.65526 0.42271 0.65526 0.81433 0 0.46024 -0.3731 0.83364 -0.83334 0.83364h-0.55556c-0.36284 0 -0.67152 -0.23189 -0.78592 -0.55555" stroke-width="1"></path><path id="Vector 2489" stroke="#000000" stroke-linecap="round" stroke-linejoin="round" d="M5.75 3.94003v-0.83334" stroke-width="1"></path><path id="Vector 2490" stroke="#000000" stroke-linecap="round" stroke-linejoin="round" d="M5.75 8.10665v-0.83333" stroke-width="1"></path></g></svg>