<svg xmlns="http://www.w3.org/2000/svg" fill="none" viewBox="0 0 14 14"><g id="bill-dollar-2--currency-billing-payment-finance-cash-bill-money-accounting-dollar"><path id="Vector" stroke="#000000" stroke-linecap="round" stroke-linejoin="round" d="M12.5 2.5h-11c-0.552285 0 -1 0.44772 -1 1v7c0 0.5523 0.447715 1 1 1h11c0.5523 0 1 -0.4477 1 -1v-7c0 -0.55228 -0.4477 -1 -1 -1Z" stroke-width="1"></path><g id="Group 8"><path id="Ellipse 1" stroke="#000000" stroke-linecap="round" stroke-linejoin="round" d="M2.7749 7.25c-0.13807 0 -0.25 -0.11193 -0.25 -0.25s0.11193 -0.25 0.25 -0.25" stroke-width="1"></path><path id="Ellipse 2" stroke="#000000" stroke-linecap="round" stroke-linejoin="round" d="M2.77495 7.25c0.13807 0 0.25 -0.11193 0.25 -0.25s-0.11193 -0.25 -0.25 -0.25" stroke-width="1"></path></g><g id="Group 9"><path id="Ellipse 1_2" stroke="#000000" stroke-linecap="round" stroke-linejoin="round" d="M11.2251 7.25c-0.1381 0 -0.25 -0.11193 -0.25 -0.25s0.1119 -0.25 0.25 -0.25" stroke-width="1"></path><path id="Ellipse 2_2" stroke="#000000" stroke-linecap="round" stroke-linejoin="round" d="M11.2251 7.25c0.1381 0 0.25 -0.11193 0.25 -0.25s-0.1119 -0.25 -0.25 -0.25" stroke-width="1"></path></g><path id="Vector 3" stroke="#000000" stroke-linecap="round" stroke-linejoin="round" d="M8.0637 5.88893c-0.03658 -0.1035 -0.09304 -0.19762 -0.16477 -0.27778 -0.15259 -0.17048 -0.37434 -0.27778 -0.62115 -0.27778h-0.64503c-0.41083 0 -0.74386 0.33304 -0.74386 0.74387 0 0.34957 0.2434 0.65198 0.5849 0.72668l0.98207 0.21483c0.38257 0.08369 0.65526 0.42271 0.65526 0.81433 0 0.46024 -0.3731 0.83364 -0.83334 0.83364h-0.55556c-0.36284 0 -0.67152 -0.23189 -0.78592 -0.55555" stroke-width="1"></path><path id="Vector 2489" stroke="#000000" stroke-linecap="round" stroke-linejoin="round" d="M7 5.33334V4.5" stroke-width="1"></path><path id="Vector 2490" stroke="#000000" stroke-linecap="round" stroke-linejoin="round" d="M7 9.49996v-0.83333" stroke-width="1"></path></g></svg>