<svg xmlns="http://www.w3.org/2000/svg" fill="none" viewBox="0 0 14 14"><g id="binary-code"><path id="Vector 4" stroke="#000000" stroke-linecap="round" stroke-linejoin="round" d="m10.5 0.5 0 5.49999" stroke-width="1"></path><path id="Vector 5" stroke="#000000" stroke-linecap="round" stroke-linejoin="round" d="M8.5 2 9 2c0.82843 0 1.5 -0.67157 1.5 -1.5v0" stroke-width="1"></path><path id="Vector 1" stroke="#000000" stroke-linecap="round" stroke-linejoin="round" d="M12.5 6h-4" stroke-width="1"></path><path id="Vector 6" stroke="#000000" stroke-linecap="round" stroke-linejoin="round" d="m4 8 0 5.5" stroke-width="1"></path><path id="Vector 7" stroke="#000000" stroke-linecap="round" stroke-linejoin="round" d="m2 9.5 0.5 0C3.32843 9.5 4 8.82843 4 8v0" stroke-width="1"></path><path id="Vector 8" stroke="#000000" stroke-linecap="round" stroke-linejoin="round" d="M6 13.5H2" stroke-width="1"></path><path id="Vector 2" stroke="#000000" stroke-linecap="round" stroke-linejoin="round" d="M1.5 2v2.5C1.5 5.32843 2.17157 6 3 6h1c0.82843 0 1.5 -0.67157 1.5 -1.5V2C5.5 1.17157 4.82843 0.5 4 0.5H3c-0.82843 0 -1.5 0.67157 -1.5 1.5Z" stroke-width="1"></path><path id="Vector 3" stroke="#000000" stroke-linecap="round" stroke-linejoin="round" d="M8.5 9.5V12c0 0.8284 0.67157 1.5 1.5 1.5h1c0.8284 0 1.5 -0.6716 1.5 -1.5V9.5c0 -0.82843 -0.6716 -1.5 -1.5 -1.5h-1c-0.82843 0 -1.5 0.67157 -1.5 1.5Z" stroke-width="1"></path></g></svg>