<svg xmlns="http://www.w3.org/2000/svg" fill="none" viewBox="0 0 14 14"><g id="binder-clip--binder-clip-clipper-company-office-supplies-work"><path id="Vector 3959" stroke="#000000" stroke-linecap="round" stroke-linejoin="round" d="M3 6H1.92356C1.41349 6 1 6.41349 1 6.92356v0c0 0.05087 0.0042 0.10166 0.01257 0.15184l0.84816 5.089c0.08037 0.4822 0.49756 0.8356 0.9864 0.8356h8.30577c0.4888 0 0.906 -0.3534 0.9864 -0.8356l0.8481 -5.089c0.0084 -0.05018 0.0126 -0.10097 0.0126 -0.15184v0C13 6.41349 12.5865 6 12.0764 6H11" stroke-width="1"></path><path id="Vector 3960" stroke="#000000" stroke-linecap="round" stroke-linejoin="round" d="m4.25 13 1.5 -9h-0.5c-0.82843 0 -1.5 -0.67157 -1.5 -1.5v0c0 -0.82843 0.67157 -1.5 1.5 -1.5h3.5c0.82843 0 1.5 0.67157 1.5 1.5v0c0 0.82843 -0.67157 1.5 -1.5 1.5h-0.5l1.5 9" stroke-width="1"></path></g></svg>