<svg xmlns="http://www.w3.org/2000/svg" fill="none" viewBox="0 0 14 14"><g id="bird--nature-pet-animals"><path id="Vector 2274" stroke="#000000" stroke-linecap="round" stroke-linejoin="round" d="M11.5 5.5V3.04675C11.5 1.64022 10.3598 0.5 8.95325 0.5c-0.90067 0 -1.73436 0.475728 -2.19256 1.25114L1.89152 9.99127c-0.39391 0.66663 0.08663 1.50873 0.86093 1.50873H5.5c3.31371 0 6 -2.68629 6 -6Z" stroke-width="1"></path><path id="Vector 2276" stroke="#000000" stroke-linecap="round" stroke-linejoin="round" d="M9.5 10.1775 11 13.5" stroke-width="1"></path><path id="Vector 2277" stroke="#000000" stroke-linecap="round" stroke-linejoin="round" d="M7.0389 11.3127 8 13.5" stroke-width="1"></path><path id="Vector 2275" stroke="#000000" stroke-linecap="round" stroke-linejoin="round" d="M11.5 3.5H13" stroke-width="1"></path><g id="Group 4546"><path id="Vector" stroke="#000000" stroke-linecap="round" stroke-linejoin="round" d="M8.75 3.5c-0.13807 0 -0.25 -0.11193 -0.25 -0.25S8.61193 3 8.75 3" stroke-width="1"></path><path id="Vector_2" stroke="#000000" stroke-linecap="round" stroke-linejoin="round" d="M8.75 3.5c0.13807 0 0.25 -0.11193 0.25 -0.25S8.88807 3 8.75 3" stroke-width="1"></path></g><path id="Vector 2278" stroke="#000000" stroke-linecap="round" stroke-linejoin="round" d="M2.58298 9h2.56296c0.8178 0 1.55322 -0.4979 1.85695 -1.25722L7.5 6.5" stroke-width="1"></path></g></svg>