<svg xmlns="http://www.w3.org/2000/svg" fill="none" viewBox="0 0 14 14"><g id="bitcoin-circle-1--crypto-circle-payment-blockchain-finance-bitcoin-money-currency"><path id="Vector" stroke="#000000" stroke-linecap="round" stroke-linejoin="round" d="M7.88 6.66001c0.18159 0.00265 0.36189 -0.03082 0.53042 -0.09848 0.16853 -0.06767 0.32193 -0.16816 0.45127 -0.29564s0.23205 -0.27941 0.30215 -0.44694c0.07009 -0.16753 0.10618 -0.34733 0.10616 -0.52894v0c0 -0.36334 -0.14434 -0.71181 -0.40126 -0.96873 -0.25693 -0.25693 -0.60539 -0.40127 -0.96874 -0.40127H5.79c-0.13261 0 -0.25978 0.05268 -0.35355 0.14645 -0.09377 0.09377 -0.14645 0.22095 -0.14645 0.35355v5c0 0.13261 0.05268 0.25979 0.14645 0.35356 0.09377 0.09377 0.22094 0.14644 0.35355 0.14644h2.09c0.42965 0 0.8417 -0.17067 1.14551 -0.47448S9.5 8.72966 9.5 8.30001c0 -0.42965 -0.17068 -0.8417 -0.47449 -1.14551S8.30965 6.68001 7.88 6.68001v-0.02Z" stroke-width="1"></path><path id="Vector_2" stroke="#000000" stroke-linecap="round" stroke-linejoin="round" d="M7.9 6.66H5.29" stroke-width="1"></path><path id="Vector_3" stroke="#000000" stroke-linecap="round" stroke-linejoin="round" d="M6.24 3.92V3" stroke-width="1"></path><path id="Vector_4" stroke="#000000" stroke-linecap="round" stroke-linejoin="round" d="M7.78 3.92V3" stroke-width="1"></path><path id="Vector_5" stroke="#000000" stroke-linecap="round" stroke-linejoin="round" d="M6.24 11V9.89999" stroke-width="1"></path><path id="Vector_6" stroke="#000000" stroke-linecap="round" stroke-linejoin="round" d="M7.78 11V9.89999" stroke-width="1"></path><path id="Vector_7" stroke="#000000" stroke-linecap="round" stroke-linejoin="round" d="M7 13.5c3.5899 0 6.5 -2.9101 6.5 -6.5C13.5 3.41015 10.5899 0.5 7 0.5 3.41015 0.5 0.5 3.41015 0.5 7c0 3.5899 2.91015 6.5 6.5 6.5Z" stroke-width="1"></path></g></svg>