<svg xmlns="http://www.w3.org/2000/svg" fill="none" viewBox="0 0 14 14"><g id="blender--blender-vitamix-mixer-appliances-kitchenware-cooking"><path id="Rectangle 1938" stroke="#000000" stroke-linecap="round" stroke-linejoin="round" d="M2.5 9.5h6l0.96424 2.4106c0.02362 0.0591 0.03576 0.1221 0.03576 0.1857V13c0 0.2761 -0.22386 0.5 -0.5 0.5H2c-0.27614 0 -0.5 -0.2239 -0.5 -0.5v-0.9037c0 -0.0636 0.01214 -0.1266 0.03576 -0.1857L2.5 9.5Z" stroke-width="1"></path><path id="Vector 2892" stroke="#000000" stroke-linecap="round" stroke-linejoin="round" d="M9.5 0.5h-8l1 9h6l1 -9Z" stroke-width="1"></path><path id="Vector 2894" stroke="#000000" stroke-linecap="round" stroke-linejoin="round" d="M9.5 0.5h1c1.1046 0 2 0.89543 2 2v4" stroke-width="1"></path><g id="Group 4625"><path id="Vector" stroke="#000000" stroke-linecap="round" stroke-linejoin="round" d="M5.5 11.75c-0.13807 0 -0.25 -0.1119 -0.25 -0.25s0.11193 -0.25 0.25 -0.25" stroke-width="1"></path><path id="Vector_2" stroke="#000000" stroke-linecap="round" stroke-linejoin="round" d="M5.5 11.75c0.13807 0 0.25 -0.1119 0.25 -0.25s-0.11193 -0.25 -0.25 -0.25" stroke-width="1"></path></g></g></svg>