<svg xmlns="http://www.w3.org/2000/svg" fill="none" viewBox="0 0 14 14"><g id="block-bell-notification--notification-alarm-alert-bell-block"><path id="Vector" stroke="#000000" stroke-linecap="round" stroke-linejoin="round" d="M10 9.49995c0 0.39782 0.158 0.77935 0.4393 1.06065 0.2813 0.2813 0.6629 0.4393 1.0607 0.4393H0.5c0.397825 0 0.77936 -0.158 1.06066 -0.4393C1.84196 10.2793 2 9.89777 2 9.49995v-3.5c0 -1.06087 0.42143 -2.07828 1.17157 -2.82843 0.46733 -0.46733 1.0384 -0.80708 1.65907 -0.99684" stroke-width="1"></path><path id="Vector_2" stroke="#000000" stroke-linecap="round" stroke-linejoin="round" d="M5 13.5h2" stroke-width="1"></path><path id="Vector_3" stroke="#000000" stroke-linecap="round" stroke-linejoin="round" d="M10.25 7C8.45507 7 7 5.54493 7 3.75S8.45507 0.5 10.25 0.5c1.7949 0 3.25 1.45507 3.25 3.25S12.0449 7 10.25 7Z" stroke-width="1"></path><path id="Vector_4" stroke="#000000" stroke-linecap="round" stroke-linejoin="round" d="m12.55 6.04995 -4.59995 -4.6" stroke-width="1"></path></g></svg>