<svg xmlns="http://www.w3.org/2000/svg" fill="none" viewBox="0 0 14 14"><g id="blood-drop-donation"><g id="Group 4565"><path id="vector" stroke="#000000" stroke-linecap="round" stroke-linejoin="round" d="M2.0918 8.95339c0 -4.646 4.90827 -8.353414 4.90827 -8.353414S11.9083 4.30739 11.9083 8.95339c0 3.00291 -2.48609 4.44661 -4.90823 4.44661 -2.42215 0 -4.90827 -1.4437 -4.90827 -4.44661Z" stroke-width="1"></path><path id="union" stroke="#000000" stroke-linecap="round" stroke-linejoin="round" d="M6.37883 6.01416c-0.21114 0 -0.38229 0.17116 -0.38229 0.38229v1.07521l-1.07519 0c-0.21113 0 -0.38229 0.17115 -0.38229 0.38228v1.24244c0 0.21114 0.17116 0.38229 0.38229 0.38229h1.07519v1.07513c0 0.2112 0.17115 0.3823 0.38229 0.3823h1.24244c0.21113 0 0.38228 -0.1711 0.38228 -0.3823V9.47867h1.07519c0.21113 0 0.38229 -0.17115 0.38229 -0.38229V7.85394c0 -0.21113 -0.17116 -0.38228 -0.38229 -0.38228l-1.07519 0V6.39645c0 -0.21113 -0.17115 -0.38229 -0.38228 -0.38229H6.37883Z" stroke-width="1"></path></g></g></svg>