<svg xmlns="http://www.w3.org/2000/svg" fill="none" viewBox="0 0 14 14"><g id="book-reading--book-reading-learning"><path id="Vector" stroke="#000000" stroke-linecap="round" stroke-linejoin="round" d="M7 13.5V8.25c0 -0.33152 0.1317 -0.64946 0.36612 -0.88388C7.60054 7.1317 7.91848 7 8.25 7v0c0.33152 0 0.64946 0.1317 0.88388 0.36612 0.23442 0.23442 0.36612 0.55236 0.36612 0.88388V11h2c0.5304 0 1.0391 0.2107 1.4142 0.5858S13.5 12.4696 13.5 13v0.5" stroke-width="1"></path><path id="Vector_2" stroke="#000000" stroke-linecap="round" stroke-linejoin="round" d="M6.25738 3.0952C5.01088 1.72351 3.3382 0.812276 1.50976 0.508812c-0.12442 -0.017619 -0.25115 -0.008566 -0.3718 0.026559C1.01732 0.570495 0.905526 0.630887 0.810014 0.712534 0.712789 0.795694 0.634733 0.898929 0.581217 1.01514c-0.053517 0.1162 -0.081224 0.24263 -0.081216 0.37056V8.516c-0.001328 0.21897 0.078501 0.43067 0.224081 0.59424s0.346588 0.26742 0.564238 0.29151c1.4281 0.19369 2.77105 0.75885 3.89995 1.62755" stroke-width="1"></path><path id="Vector_3" stroke="#000000" stroke-linecap="round" stroke-linejoin="round" d="M6.25781 5.8584V3.09521" stroke-width="1"></path><path id="Vector_4" stroke="#000000" stroke-linecap="round" stroke-linejoin="round" d="M11.2264 9.40175c0.2177 -0.02409 0.4187 -0.12794 0.5643 -0.29151 0.1455 -0.16357 0.2254 -0.37527 0.224 -0.59424V1.3857c0 -0.12793 -0.0277 -0.25436 -0.0812 -0.37056 -0.0535 -0.116211 -0.1316 -0.219446 -0.2288 -0.302606 -0.0955 -0.081647 -0.2073 -0.142039 -0.3279 -0.177163 -0.1207 -0.035125 -0.2474 -0.044178 -0.3718 -0.026559C9.17653 0.812276 7.50386 1.72351 6.25735 3.0952" stroke-width="1"></path></g></svg>