<svg xmlns="http://www.w3.org/2000/svg" fill="none" viewBox="0 0 14 14"><g id="border-corner--border-cell-format-formatting-corner-top-up-left"><path id="Vector" stroke="#000000" stroke-linecap="round" stroke-linejoin="round" d="M13 11v1c0 0.2652 -0.1054 0.5196 -0.2929 0.7071S12.2652 13 12 13h-1" stroke-width="1"></path><path id="Vector_2" stroke="#000000" stroke-linecap="round" stroke-linejoin="round" d="M13 5.5v3" stroke-width="1"></path><path id="Vector_3" stroke="#000000" stroke-linecap="round" stroke-linejoin="round" d="M8.5 13h-3" stroke-width="1"></path><path id="Vector_4" stroke="#000000" stroke-linecap="round" stroke-linejoin="round" d="M13 3V2c0 -0.26522 -0.1054 -0.51957 -0.2929 -0.70711C12.5196 1.10536 12.2652 1 12 1H2c-0.26522 0 -0.51957 0.10536 -0.70711 0.29289C1.10536 1.48043 1 1.73478 1 2v10c0 0.2652 0.10536 0.5196 0.29289 0.7071C1.48043 12.8946 1.73478 13 2 13h1" stroke-width="1"></path></g></svg>