<svg xmlns="http://www.w3.org/2000/svg" fill="none" viewBox="0 0 14 14"><g id="box-waterproof--box-package-label-delivery-shipment-shipping-waterproof-protect-water-wet"><path id="Vector" stroke="#000000" stroke-linecap="round" stroke-linejoin="round" d="M9.25 7h-4.5c-0.55228 0 -1 0.44772 -1 1v4.5c0 0.5523 0.44772 1 1 1h4.5c0.55228 0 1 -0.4477 1 -1V8c0 -0.55228 -0.44772 -1 -1 -1Z" stroke-width="1"></path><path id="Vector_2" stroke="#000000" stroke-linecap="round" stroke-linejoin="round" d="M7 11.25h1" stroke-width="1"></path><path id="Vector_3" stroke="#000000" stroke-linecap="round" stroke-linejoin="round" d="M13.5 7c-0.7989 -0.94535 -1.7943 -1.70507 -2.9169 -2.22619C9.46046 4.2527 8.23768 3.98273 7 3.98273c-1.23768 0 -2.46046 0.26997 -3.58308 0.79108C2.29429 5.29493 1.29885 6.05465 0.5 7" stroke-width="1"></path><path id="Vector_4" stroke="#000000" stroke-linecap="round" stroke-linejoin="round" d="m1.5 1.5 1 1" stroke-width="1"></path><path id="Vector_5" stroke="#000000" stroke-linecap="round" stroke-linejoin="round" d="m6.5 0.5 1 1" stroke-width="1"></path><path id="Vector_6" stroke="#000000" stroke-linecap="round" stroke-linejoin="round" d="m11.5 1.5 1 1" stroke-width="1"></path></g></svg>