<svg xmlns="http://www.w3.org/2000/svg" fill="none" viewBox="0 0 14 14"><g id="brain--medical-health-brain"><path id="Union" stroke="#000000" stroke-linecap="round" stroke-linejoin="round" d="M4.61965 1.43817c1.31451 0 2.38014 1.06563 2.38014 2.38014l-0.00006 6.47039c0 1.5045 -1.2196 2.7241 -2.72405 2.7241s-2.72405 -1.2196 -2.72405 -2.7241c0 -0.0771 0.0032 -0.1534 0.00948 -0.2289C0.994177 9.45079 0.636475 8.25945 0.636475 7.26543c0 -1.35449 0.664155 -2.67144 1.616865 -3.18911 -0.00914 -0.08475 -0.01383 -0.17083 -0.01383 -0.25801 0 -1.31451 1.06563 -2.38014 2.38014 -2.38014Z" stroke-width="1"></path><path id="Vector 605" stroke="#000000" stroke-linecap="round" stroke-linejoin="round" d="M3.51103 5.69404c-0.34948 -0.07967 -1.14142 -0.59904 -1.26091 -1.61157" stroke-width="1"></path><path id="Vector 610" stroke="#000000" stroke-linecap="round" stroke-linejoin="round" d="M4.96997 8.36479c1.42751 -0.15933 1.9932 -1.66583 2.02998 -2.27861" stroke-width="1"></path><path id="Vector 606" stroke="#000000" stroke-linecap="round" stroke-linejoin="round" d="M2.28949 8.63196c-0.35556 0.28074 -0.63905 0.91698 -0.7309 1.42664" stroke-width="1"></path><path id="Union_2" stroke="#000000" stroke-linecap="round" stroke-linejoin="round" d="M9.38011 1.43817c-1.31452 0 -2.38014 1.06563 -2.38014 2.38014l0.00006 6.47039c0 1.5045 1.2196 2.7241 2.72405 2.7241 1.50442 0 2.72402 -1.2196 2.72402 -2.7241 0 -0.0771 -0.0032 -0.1534 -0.0095 -0.2289 0.567 -0.60901 0.9247 -1.80035 0.9247 -2.79437 0 -1.35449 -0.6642 -2.67144 -1.6169 -3.18911 0.0092 -0.08475 0.0138 -0.17083 0.0138 -0.25801 0 -1.31451 -1.0656 -2.38014 -2.38009 -2.38014Z" stroke-width="1"></path><path id="Vector 611" stroke="#000000" stroke-linecap="round" stroke-linejoin="round" d="M10.4887 5.69404c0.3495 -0.07967 1.1414 -0.59904 1.2609 -1.61157" stroke-width="1"></path><path id="Vector 612" stroke="#000000" stroke-linecap="round" stroke-linejoin="round" d="M9.02979 8.36479c-1.42751 -0.15933 -1.9932 -1.66583 -2.02999 -2.27861" stroke-width="1"></path><path id="Vector 613" stroke="#000000" stroke-linecap="round" stroke-linejoin="round" d="M11.7103 8.63196c0.3555 0.28074 0.639 0.91698 0.7309 1.42664" stroke-width="1"></path></g></svg>