<svg xmlns="http://www.w3.org/2000/svg" fill="none" viewBox="0 0 14 14"><g id="bridge--bridge-cross-water-outdoor-road"><path id="Vector 2854" stroke="#000000" stroke-linecap="round" stroke-linejoin="round" d="M0.5 1.5h13" stroke-width="1"></path><path id="Vector 2855" stroke="#000000" stroke-linecap="round" stroke-linejoin="round" d="M0.5 5v0c1.10457 0 2 0.89543 2 2v2" stroke-width="1"></path><path id="Vector 2856" stroke="#000000" stroke-linecap="round" stroke-linejoin="round" d="M11.5 9V7c0 -1.10457 0.8954 -2 2 -2v0" stroke-width="1"></path><path id="Vector 2857" stroke="#000000" stroke-linecap="round" stroke-linejoin="round" d="M5 9V7c0 -1.10457 0.89543 -2 2 -2v0c1.10457 0 2 0.89543 2 2v2" stroke-width="1"></path><path id="Vector" stroke="#000000" stroke-linecap="round" stroke-linejoin="round" d="M0.5 11.9747c0.317629 0.3242 0.76033 0.5253 1.25 0.5253 0.9665 0 1.75 -0.7835 1.75 -1.75 0 0.9665 0.7835 1.75 1.75 1.75S7 11.7165 7 10.75c0 0.9665 0.7835 1.75 1.75 1.75s1.75 -0.7835 1.75 -1.75c0 0.9665 0.7835 1.75 1.75 1.75 0.4897 0 0.9324 -0.2011 1.25 -0.5253" stroke-width="1"></path></g></svg>