<svg xmlns="http://www.w3.org/2000/svg" fill="none" viewBox="0 0 14 14"><g id="brightness-slider-horizontal--brightness-slider-horizontal"><path id="Vector 3660" stroke="#000000" stroke-linecap="round" stroke-linejoin="round" d="M7 0.5V1" stroke-width="1"></path><path id="Vector 3661" stroke="#000000" stroke-linecap="round" stroke-linejoin="round" d="M7 9.5V9" stroke-width="1"></path><path id="Vector 3662" stroke="#000000" stroke-linecap="round" stroke-linejoin="round" d="M11.5 5H11" stroke-width="1"></path><path id="Vector 3663" stroke="#000000" stroke-linecap="round" stroke-linejoin="round" d="M2.5 5H3" stroke-width="1"></path><path id="Vector 3664" stroke="#000000" stroke-linecap="round" stroke-linejoin="round" d="m10.182 1.81799 -0.35355 0.35356" stroke-width="1"></path><path id="Vector 3665" stroke="#000000" stroke-linecap="round" stroke-linejoin="round" d="m3.81802 8.18192 0.35355 -0.35355" stroke-width="1"></path><path id="Vector 3666" stroke="#000000" stroke-linecap="round" stroke-linejoin="round" d="m10.182 8.18192 -0.35357 -0.35355" stroke-width="1"></path><path id="Vector 3667" stroke="#000000" stroke-linecap="round" stroke-linejoin="round" d="m3.81799 1.81799 0.35356 0.35356" stroke-width="1"></path><path id="Ellipse 1795" stroke="#000000" stroke-linecap="round" stroke-linejoin="round" d="M4.75 5a2.25 2.25 0 1 0 4.5 0 2.25 2.25 0 1 0 -4.5 0" stroke-width="1"></path><path id="Vector" stroke="#000000" stroke-linecap="round" stroke-linejoin="round" d="M10 13.5c0.8284 0 1.5 -0.6716 1.5 -1.5s-0.6716 -1.5 -1.5 -1.5c-0.82843 0 -1.5 0.6716 -1.5 1.5s0.67157 1.5 1.5 1.5Z" stroke-width="1"></path><path id="Vector_2" stroke="#000000" stroke-linecap="round" stroke-linejoin="round" d="M13.5 12h-2" stroke-width="1"></path><path id="Vector_3" stroke="#000000" stroke-linecap="round" stroke-linejoin="round" d="M0.5 12h8" stroke-width="1"></path></g></svg>