<svg xmlns="http://www.w3.org/2000/svg" fill="none" viewBox="0 0 14 14"><g id="broken-link-1--break-broken-hyperlink-link-remove-unlink-chain"><path id="Vector 3847" stroke="#000000" stroke-linecap="round" stroke-linejoin="round" d="M1.5 1.5 2 2" stroke-width="1"></path><path id="Vector 3848" stroke="#000000" stroke-linecap="round" stroke-linejoin="round" d="M4 1v1.5" stroke-width="1"></path><path id="Vector 3849" stroke="#000000" stroke-linecap="round" stroke-linejoin="round" d="M2.5 4H1" stroke-width="1"></path><path id="Vector 3850" stroke="#000000" stroke-linecap="round" stroke-linejoin="round" d="M12.5 12.5 12 12" stroke-width="1"></path><path id="Vector 3851" stroke="#000000" stroke-linecap="round" stroke-linejoin="round" d="M13 10h-1" stroke-width="1"></path><path id="Vector 3852" stroke="#000000" stroke-linecap="round" stroke-linejoin="round" d="M10 13v-1" stroke-width="1"></path><path id="Vector 3846" stroke="#000000" stroke-linecap="round" stroke-linejoin="round" d="m5 9 4 -4" stroke-width="1"></path><path id="Vector 3853" stroke="#000000" stroke-linecap="round" stroke-linejoin="round" d="m3.03553 5.96448 -1.5 1.5c-1.380708 1.38071 -1.380708 3.61932 0 5.00002 1.38072 1.3807 3.61929 1.3807 5.00001 0l1.49999 -1.5" stroke-width="1"></path><path id="Vector 3854" stroke="#000000" stroke-linecap="round" stroke-linejoin="round" d="m10.9644 8.03553 1.5 -1.5c1.3807 -1.38071 1.3807 -3.61928 0 -5 -1.3808 -1.380709 -3.61933 -1.380707 -5.00005 0l-1.49999 1.5" stroke-width="1"></path></g></svg>