<svg xmlns="http://www.w3.org/2000/svg" fill="none" viewBox="0 0 14 14"><g id="browser-error--wireless-wifi-internet-server-network-browser-issue-connection"><path id="Vector" stroke="#000000" stroke-linecap="round" stroke-linejoin="round" d="M3.75 11.5H1.5c-0.26522 0 -0.51957 -0.1054 -0.707107 -0.2929C0.605357 11.0196 0.5 10.7652 0.5 10.5v-9c0 -0.26522 0.105357 -0.51957 0.292893 -0.707107C0.98043 0.605357 1.23478 0.5 1.5 0.5h10c0.5523 0 1 0.447715 1 1V6" stroke-width="1"></path><path id="Vector_2" stroke="#000000" stroke-linecap="round" stroke-linejoin="round" d="M0.5 3.5h12" stroke-width="1"></path><path id="Vector_3" stroke="#000000" stroke-linecap="round" stroke-linejoin="round" d="M8.88867 7.25v3.5" stroke-width="1"></path><g id="Group 4763"><path id="Vector_4" stroke="#000000" stroke-linecap="round" stroke-linejoin="round" d="M8.88867 13.5c-0.13807 0 -0.25 -0.1119 -0.25 -0.25s0.11193 -0.25 0.25 -0.25" stroke-width="1"></path><path id="Vector_5" stroke="#000000" stroke-linecap="round" stroke-linejoin="round" d="M8.88867 13.5c0.13807 0 0.25 -0.1119 0.25 -0.25s-0.11193 -0.25 -0.25 -0.25" stroke-width="1"></path></g><path id="Vector_6" stroke="#000000" stroke-linecap="round" stroke-linejoin="round" d="M4.37744 9.13395c0.76327 -0.76326 1.67302 -1.29461 2.64022 -1.59403" stroke-width="1"></path><path id="Vector_7" stroke="#000000" stroke-linecap="round" stroke-linejoin="round" d="M13.4996 9.13395c-0.7633 -0.76326 -1.673 -1.29461 -2.6402 -1.59403" stroke-width="1"></path><path id="Vector_8" stroke="#000000" stroke-linecap="round" stroke-linejoin="round" d="M5.96533 11.1604c0.28118 -0.2812 0.59842 -0.5118 0.93878 -0.692" stroke-width="1"></path><path id="Vector_9" stroke="#000000" stroke-linecap="round" stroke-linejoin="round" d="M11.7806 11.1604c-0.2812 -0.2812 -0.5984 -0.5118 -0.9388 -0.692" stroke-width="1"></path></g></svg>