<svg xmlns="http://www.w3.org/2000/svg" fill="none" viewBox="0 0 14 14"><g id="browser-shield--secure-security-password-window-browser-shield-protection-privacy"><path id="Vector" stroke="#000000" stroke-linecap="round" stroke-linejoin="round" d="M12.0769 1H1.92308C1.41328 1 1 1.41328 1 1.92308V12.0769c0 0.5098 0.41328 0.9231 0.92308 0.9231H12.0769c0.5098 0 0.9231 -0.4133 0.9231 -0.9231V1.92308C13 1.41328 12.5867 1 12.0769 1Z" stroke-width="1"></path><path id="Vector_2" stroke="#000000" stroke-linecap="round" stroke-linejoin="round" d="M1 3.5h12.0001" stroke-width="1"></path><path id="Vector_3" stroke="#000000" stroke-linecap="round" stroke-linejoin="round" d="M7.15584 10.9727c-0.1007 0.0364 -0.21097 0.0364 -0.31167 0 -0.76451 -0.3029 -1.4205 -0.8283 -1.88303 -1.50816 -0.46253 -0.6799 -0.7103 -1.483 -0.71123 -2.30531V5.95835c-0.00373 -0.05809 0.00435 -0.11633 0.02376 -0.1712 0.0194 -0.05488 0.04972 -0.10525 0.08913 -0.14809s0.08709 -0.07724 0.14016 -0.10114c0.05307 -0.0239 0.11043 -0.0368 0.16863 -0.03792h4.65683c0.0582 0.00112 0.11556 0.01402 0.16863 0.03792 0.05307 0.0239 0.10075 0.0583 0.14016 0.10114 0.03941 0.04284 0.06973 0.09321 0.08913 0.14809 0.01941 0.05487 0.02749 0.11311 0.02376 0.1712v1.20088c-0.00093 0.82231 -0.2487 1.62541 -0.71123 2.30531 -0.46253 0.67986 -1.11852 1.20526 -1.88303 1.50816Z" stroke-width="1"></path></g></svg>