<svg xmlns="http://www.w3.org/2000/svg" fill="none" viewBox="0 0 14 14"><g id="browser-favorite-fire--window-star-app-code-favorite-fire-hot-lit-trending-apps"><path id="Vector" stroke="#000000" stroke-linecap="round" stroke-linejoin="round" d="M12.0769 1H1.92308C1.41328 1 1 1.41328 1 1.92308V12.0769c0 0.5098 0.41328 0.9231 0.92308 0.9231H12.0769c0.5098 0 0.9231 -0.4133 0.9231 -0.9231V1.92308C13 1.41328 12.5867 1 12.0769 1Z" stroke-width="1"></path><path id="Vector_2" stroke="#000000" stroke-linecap="round" stroke-linejoin="round" d="M1 3.5h12.0001" stroke-width="1"></path><path id="Vector_3" stroke="#000000" stroke-linecap="round" stroke-linejoin="round" d="M7.41353 5.26677c0.13952 -0.05979 0.26575 0.07973 0.20595 0.17938 -0.48621 0.84716 -0.68432 2.0727 -0.03321 2.88996 0.05842 0.07307 0.18354 0.07646 0.24581 0.00665 0.17251 -0.17867 0.46505 -0.578 0.46505 -0.578 0.03322 -0.06643 0.1528 -0.17273 0.32554 0 0.64996 0.64997 0.79102 1.73668 0.27238 2.52454 -0.43815 0.587 -1.14955 0.9491 -1.88194 0.9581 -1.20951 0.0149 -2.21438 -0.8596 -2.2238 -2.07419 0.00011 -1.66778 1.15376 -3.1985 2.62422 -3.90644Z" stroke-width="1"></path></g></svg>