<svg width="32" height="32" viewBox="0 0 32 32" fill="none" xmlns="http://www.w3.org/2000/svg">
<path d="M14 17.5H18" stroke="#01040B" stroke-width="1.5" stroke-linecap="round" stroke-linejoin="round"/>
<path d="M16 15.5V19.5" stroke="#01040B" stroke-width="1.5" stroke-linecap="round" stroke-linejoin="round"/>
<path d="M21.5 12.5H10.5C9.94771 12.5 9.5 12.9477 9.5 13.5V21.5C9.5 22.0523 9.94771 22.5 10.5 22.5H21.5C22.0523 22.5 22.5 22.0523 22.5 21.5V13.5C22.5 12.9477 22.0523 12.5 21.5 12.5Z" stroke="#01040B" stroke-width="1.5" stroke-linecap="round" stroke-linejoin="round"/>
<path d="M19 12.5V10.5C19 10.2348 18.8946 9.98043 18.7071 9.79289C18.5196 9.60536 18.2652 9.5 18 9.5H14C13.7348 9.5 13.4804 9.60536 13.2929 9.79289C13.1054 9.98043 13 10.2348 13 10.5V12.5" stroke="#01040B" stroke-width="1.5" stroke-linecap="round" stroke-linejoin="round"/>
</svg>
