<svg width="32" height="32" viewBox="0 0 32 32" fill="none" xmlns="http://www.w3.org/2000/svg">
<path d="M11.4359 21.3299C11.4395 21.5383 11.5001 21.7417 11.6112 21.918C11.7223 22.0943 11.8795 22.2368 12.0659 22.3299C12.252 22.4351 12.4622 22.4904 12.6759 22.4904C12.8897 22.4904 13.0998 22.4351 13.2859 22.3299L21.9359 16.9799C22.1241 16.8893 22.2829 16.7473 22.3941 16.5704C22.5052 16.3935 22.5641 16.1889 22.5641 15.9799C22.5641 15.771 22.5052 15.5664 22.3941 15.3895C22.2829 15.2126 22.1241 15.0706 21.9359 14.9799L13.2859 9.66994C13.0998 9.56478 12.8897 9.50952 12.6759 9.50952C12.4622 9.50952 12.252 9.56478 12.0659 9.66994C11.8795 9.76313 11.7223 9.90562 11.6112 10.0819C11.5001 10.2582 11.4395 10.4616 11.4359 10.6699V21.3299Z" fill="#01040B"/>
</svg>
