<svg width="32" height="32" viewBox="0 0 32 32" fill="none" xmlns="http://www.w3.org/2000/svg">
<g clip-path="url(#clip0_166_53)">
<path d="M22.75 17.6875V21.625C22.75 21.9234 22.6315 22.2095 22.4205 22.4205C22.2095 22.6315 21.9234 22.75 21.625 22.75H10.375C10.0766 22.75 9.79048 22.6315 9.5795 22.4205C9.36853 22.2095 9.25 21.9234 9.25 21.625V17.6875C9.25 17.5383 9.30926 17.3952 9.41475 17.2898C9.52024 17.1843 9.66332 17.125 9.8125 17.125C9.96168 17.125 10.1048 17.1843 10.2102 17.2898C10.3157 17.3952 10.375 17.5383 10.375 17.6875V21.625H21.625V17.6875C21.625 17.5383 21.6843 17.3952 21.7898 17.2898C21.8952 17.1843 22.0383 17.125 22.1875 17.125C22.3367 17.125 22.4798 17.1843 22.5852 17.2898C22.6907 17.3952 22.75 17.5383 22.75 17.6875ZM15.602 18.0855C15.6543 18.1378 15.7163 18.1793 15.7846 18.2076C15.8529 18.2359 15.9261 18.2504 16 18.2504C16.0739 18.2504 16.1471 18.2359 16.2154 18.2076C16.2837 18.1793 16.3457 18.1378 16.398 18.0855L19.2105 15.273C19.2892 15.1943 19.3429 15.094 19.3646 14.9849C19.3864 14.8757 19.3752 14.7625 19.3326 14.6597C19.29 14.5568 19.2178 14.469 19.1252 14.4072C19.0327 14.3454 18.9238 14.3124 18.8125 14.3125H16.5625V9.8125C16.5625 9.66332 16.5032 9.52024 16.3977 9.41475C16.2923 9.30926 16.1492 9.25 16 9.25C15.8508 9.25 15.7077 9.30926 15.6023 9.41475C15.4968 9.52024 15.4375 9.66332 15.4375 9.8125V14.3125H13.1875C13.0762 14.3124 12.9673 14.3454 12.8748 14.4072C12.7822 14.469 12.71 14.5568 12.6674 14.6597C12.6248 14.7625 12.6136 14.8757 12.6354 14.9849C12.6571 15.094 12.7108 15.1943 12.7895 15.273L15.602 18.0855Z" fill="#01040B"/>
</g>
<defs>
<clipPath id="clip0_166_53">
<rect width="18" height="18" fill="white" transform="translate(7 7)"/>
</clipPath>
</defs>
</svg>
