<svg width="32" height="32" viewBox="0 0 32 32" fill="none" xmlns="http://www.w3.org/2000/svg">
<path d="M14.25 9H9.75C9.33579 9 9 9.33579 9 9.75V14.25C9 14.6642 9.33579 15 9.75 15H14.25C14.6642 15 15 14.6642 15 14.25V9.75C15 9.33579 14.6642 9 14.25 9Z" stroke="#01040B" stroke-width="1.5" stroke-linecap="round" stroke-linejoin="round"/>
<path d="M22.25 9H17.75C17.3358 9 17 9.33579 17 9.75V14.25C17 14.6642 17.3358 15 17.75 15H22.25C22.6642 15 23 14.6642 23 14.25V9.75C23 9.33579 22.6642 9 22.25 9Z" stroke="#01040B" stroke-width="1.5" stroke-linecap="round" stroke-linejoin="round"/>
<path d="M14.25 17H9.75C9.33579 17 9 17.3358 9 17.75V22.25C9 22.6642 9.33579 23 9.75 23H14.25C14.6642 23 15 22.6642 15 22.25V17.75C15 17.3358 14.6642 17 14.25 17Z" stroke="#01040B" stroke-width="1.5" stroke-linecap="round" stroke-linejoin="round"/>
<path d="M22.25 17H17.75C17.3358 17 17 17.3358 17 17.75V22.25C17 22.6642 17.3358 23 17.75 23H22.25C22.6642 23 23 22.6642 23 22.25V17.75C23 17.3358 22.6642 17 22.25 17Z" stroke="#01040B" stroke-width="1.5" stroke-linecap="round" stroke-linejoin="round"/>
</svg>
