<svg width="32" height="32" viewBox="0 0 32 32" fill="none" xmlns="http://www.w3.org/2000/svg">
<g clip-path="url(#clip0_532_11997)">
<path d="M22.5 16C22.5 19.5899 19.5899 22.5 16 22.5C14.9756 22.5 14.0066 22.263 13.1447 21.8409M13.1447 21.8409L9.5 22.5L10.589 19.6027M13.1447 21.8409L13.15 21.84M10.589 19.6027C9.90102 18.5716 9.5 17.3326 9.5 16C9.5 12.4102 12.4102 9.5 16 9.5M10.589 19.6027L10.59 19.6" stroke="black" stroke-linecap="round" stroke-linejoin="round"/>
<path d="M20 14.5C21.3807 14.5 22.5 13.3807 22.5 12C22.5 10.6193 21.3807 9.5 20 9.5C18.6193 9.5 17.5 10.6193 17.5 12C17.5 13.3807 18.6193 14.5 20 14.5Z" stroke="black" stroke-linecap="round" stroke-linejoin="round"/>
</g>
<defs>
<clipPath id="clip0_532_11997">
<rect width="14" height="14" fill="white" transform="translate(9 9)"/>
</clipPath>
</defs>
</svg>
