<svg width="32" height="32" viewBox="0 0 32 32" fill="none" xmlns="http://www.w3.org/2000/svg">
<path d="M14.2478 21.9817C13.6333 22.3781 12.901 22.5509 12.174 22.471C11.4471 22.391 10.7698 22.0632 10.2562 21.5426L9.80711 21.1035C9.61023 20.9021 9.5 20.6317 9.5 20.3501C9.5 20.0685 9.61023 19.798 9.80711 19.5967L11.7131 17.7106C11.9128 17.5144 12.1816 17.4044 12.4616 17.4044C12.7415 17.4044 13.0103 17.5144 13.21 17.7106C13.4114 17.9075 13.6818 18.0177 13.9634 18.0177C14.245 18.0177 14.5155 17.9075 14.7168 17.7106L17.7106 14.7169C17.8104 14.6184 17.8898 14.5012 17.9439 14.3718C17.998 14.2425 18.0259 14.1037 18.0259 13.9634C18.0259 13.8232 17.998 13.6844 17.9439 13.5551C17.8898 13.4257 17.8104 13.3084 17.7106 13.21C17.5143 13.0103 17.4044 12.7416 17.4044 12.4616C17.4044 12.1816 17.5143 11.9128 17.7106 11.7131L19.6066 9.81711C19.808 9.62024 20.0784 9.51001 20.36 9.51001C20.6417 9.51001 20.9121 9.62024 21.1135 9.81711L21.5526 10.2662C22.0731 10.7798 22.4009 11.4571 22.4809 12.184C22.5609 12.911 22.3881 13.6433 21.9916 14.2578C19.9259 17.3022 17.2975 19.9238 14.2478 21.9817Z" fill="#01040B"/>
</svg>
