<svg width="32" height="32" viewBox="0 0 32 32" fill="none" xmlns="http://www.w3.org/2000/svg">
<path d="M9.54807 12.0848L11.7425 13.2658L13.7012 12.9267C14.3625 12.8122 15.0401 13.0015 15.5463 13.442" stroke="#01040B" stroke-width="1.5" stroke-linecap="round" stroke-linejoin="round"/>
<path d="M20.2822 18.2825L17.1796 20.4859C16.4976 20.9703 15.5862 20.979 14.895 20.5078L9.54807 16.8629" stroke="#01040B" stroke-width="1.5" stroke-linecap="round" stroke-linejoin="round"/>
<path d="M22.4023 16.8395L20.207 18.3396L16.8008 15.5893L15.5479 16.5012C15.0385 16.8719 14.3268 16.772 13.9391 16.2753C13.5523 15.7797 13.6269 15.067 14.108 14.6622L15.4125 13.5646C16.0378 13.0385 16.8506 12.7902 17.6631 12.8772L19.6964 13.0947L22.4023 11.6321" stroke="#01040B" stroke-width="1.5" stroke-linecap="round" stroke-linejoin="round"/>
<path d="M16.8013 15.5966C17.6209 16.3268 18.7832 15.9543 19.2154 15.3582" stroke="#01040B" stroke-width="1.5" stroke-linecap="round" stroke-linejoin="round"/>
</svg>
