<svg xmlns="http://www.w3.org/2000/svg" fill="none" viewBox="0 0 14 14"><g id="bug-virus-usb--bug-usb-file-virus-threat-danger"><path id="Vector" stroke="#000000" stroke-linecap="round" stroke-linejoin="round" d="M7 9c0 -0.66304 0.26339 -1.29893 0.73223 -1.76777C8.20107 6.76339 8.83696 6.5 9.5 6.5c0.663 0 1.2989 0.26339 1.7678 0.73223C11.7366 7.70107 12 8.33696 12 9v2c0 0.663 -0.2634 1.2989 -0.7322 1.7678 -0.4689 0.4688 -1.1048 0.7322 -1.7678 0.7322 -0.66304 0 -1.29893 -0.2634 -1.76777 -0.7322C7.26339 12.2989 7 11.663 7 11V9Z" stroke-width="1"></path><path id="Vector_2" stroke="#000000" stroke-linecap="round" stroke-linejoin="round" d="m6 6.5 1.3 1.3" stroke-width="1"></path><path id="Vector_3" stroke="#000000" stroke-linecap="round" stroke-linejoin="round" d="m6 13.5 1.3 -1.3" stroke-width="1"></path><path id="Vector_4" stroke="#000000" stroke-linecap="round" stroke-linejoin="round" d="M7 10H5.5" stroke-width="1"></path><path id="Vector_5" stroke="#000000" stroke-linecap="round" stroke-linejoin="round" d="m13 6.5 -1.3 1.3" stroke-width="1"></path><path id="Vector_6" stroke="#000000" stroke-linecap="round" stroke-linejoin="round" d="m13 13.5 -1.3 -1.3" stroke-width="1"></path><path id="Vector_7" stroke="#000000" stroke-linecap="round" stroke-linejoin="round" d="M12 10h1.5" stroke-width="1"></path><path id="Vector_8" stroke="#000000" stroke-linecap="round" stroke-linejoin="round" d="M7 9.5h5" stroke-width="1"></path><path id="Vector_9" stroke="#000000" stroke-linecap="round" stroke-linejoin="round" d="M1.5 4.5v-4h5v4" stroke-width="1"></path><path id="Vector_10" stroke="#000000" stroke-linecap="round" stroke-linejoin="round" d="M3.75 13.5H2.5c-0.53043 0 -1.03914 -0.2107 -1.41421 -0.5858C0.710714 12.5391 0.5 12.0304 0.5 11.5v-7h7V5" stroke-width="1"></path><path id="Vector_11" stroke="#000000" stroke-linecap="round" stroke-linejoin="round" d="M3.5 2.5h1" stroke-width="1"></path></g></svg>