<svg xmlns="http://www.w3.org/2000/svg" fill="none" viewBox="0 0 14 14"><g id="bus-side--transportation-travel-bus-transit-transport-motorcoach-public"><path id="Vector 4697" stroke="#000000" stroke-linecap="round" stroke-linejoin="round" d="M2 11.5v0c-0.55228 0 -1 -0.4477 -1 -1v-8c0 -0.55228 0.44772 -1 1 -1h8.2317c0.4531 0 0.8495 0.30458 0.9663 0.74234l1.7682 6.63104c0.0224 0.08405 0.0338 0.17067 0.0338 0.25766V10.5c0 0.5523 -0.4477 1 -1 1h-0.5" stroke-width="1"></path><path id="Vector" stroke="#000000" stroke-linecap="round" stroke-linejoin="round" d="M9.99894 12.9999c-0.82901 0 -1.50105 -0.672 -1.50105 -1.501 0 -0.8291 0.67204 -1.5011 1.50105 -1.5011 0.82906 0 1.50106 0.672 1.50106 1.5011 0 0.829 -0.672 1.501 -1.50106 1.501Z" stroke-width="1"></path><path id="Vector_2" stroke="#000000" stroke-linecap="round" stroke-linejoin="round" d="M3.49894 12.9999c-0.82901 0 -1.50106 -0.672 -1.50106 -1.501 0 -0.829 0.67205 -1.5011 1.50106 -1.5011S5 10.6699 5 11.4989c0 0.829 -0.67205 1.501 -1.50106 1.501Z" stroke-width="1"></path><path id="Vector 4573" stroke="#000000" stroke-linecap="round" stroke-linejoin="round" d="M4.5 4v3" stroke-width="1"></path><path id="Vector 4574" stroke="#000000" stroke-linecap="round" stroke-linejoin="round" d="M8.25 4v3" stroke-width="1"></path><path id="Vector 4576" stroke="#000000" stroke-linecap="round" stroke-linejoin="round" d="M5 11.5h3.5" stroke-width="1"></path><path id="Vector_3" stroke="#000000" stroke-linecap="round" stroke-linejoin="round" d="M12.4667 7H1" stroke-width="1"></path><path id="Vector_4" stroke="#000000" stroke-linecap="round" stroke-linejoin="round" d="M1 4h10.6667" stroke-width="1"></path></g></svg>