<svg xmlns="http://www.w3.org/2000/svg" fill="none" viewBox="0 0 14 14"><g id="button-rewind-circle-2--rewind-television-button-movies-buttons-tv-video-controls"><path id="Vector" stroke="#000000" stroke-linecap="round" stroke-linejoin="round" d="M10.6251 8.75445c0.0003 0.07585 -0.0188 0.15035 -0.0551 0.21548 -0.0364 0.06514 -0.0886 0.11845 -0.1512 0.15421 -0.0615 0.03941 -0.1318 0.06023 -0.2035 0.06023 -0.0717 0 -0.142 -0.02082 -0.2035 -0.06023L7.17942 7.15643c-0.05526 -0.03773 -0.10074 -0.08974 -0.13224 -0.15122 -0.0315 -0.06149 -0.04802 -0.13047 -0.04802 -0.20058s0.01652 -0.1391 0.04802 -0.20058c0.0315 -0.06149 0.07698 -0.11349 0.13224 -0.15122l2.83238 -1.97964c0.0615 -0.03941 0.1318 -0.06023 0.2035 -0.06023 0.0717 0 0.142 0.02082 0.2035 0.06023 0.0626 0.03576 0.1148 0.08907 0.1512 0.15421 0.0363 0.06513 0.0554 0.13963 0.0551 0.21548v3.91157Z" stroke-width="1"></path><path id="Vector_2" stroke="#000000" stroke-linecap="round" stroke-linejoin="round" d="M7.00097 8.75445c0.00027 0.07585 -0.01879 0.15035 -0.05514 0.21548 -0.03634 0.06514 -0.0886 0.11845 -0.15115 0.15421 -0.06149 0.03941 -0.13183 0.06023 -0.20351 0.06023s-0.14202 -0.02082 -0.20351 -0.06023L3.55527 7.15643c-0.05525 -0.03773 -0.10073 -0.08974 -0.13224 -0.15122 -0.0315 -0.06149 -0.04801 -0.13047 -0.04801 -0.20058s0.01651 -0.1391 0.04801 -0.20058c0.03151 -0.06149 0.07699 -0.11349 0.13224 -0.15122l2.83239 -1.97964c0.06149 -0.03941 0.13183 -0.06023 0.20351 -0.06023s0.14202 0.02082 0.20351 0.06023c0.0609 0.03479 0.11209 0.08623 0.14833 0.14909 0.03624 0.06285 0.05624 0.13486 0.05796 0.20868v3.92349Z" stroke-width="1"></path><path id="Vector_3" stroke="#000000" stroke-linecap="round" stroke-linejoin="round" d="M3.37683 4.10944v5.36648" stroke-width="1"></path><path id="Ellipse 609" stroke="#000000" stroke-linecap="round" stroke-linejoin="round" d="M0.5 7a6.5 6.5 0 1 0 13 0 6.5 6.5 0 1 0 -13 0" stroke-width="1"></path></g></svg>