<svg xmlns="http://www.w3.org/2000/svg" fill="none" viewBox="0 0 14 14"><g id="button-go-backward-10"><path id="Vector 2" stroke="#000000" stroke-linecap="round" stroke-linejoin="round" d="M7.46912 6.81641v1.75322c0 0.55228 0.44771 1 1 1h0.50215c0.55228 0 1 -0.44772 1 -1V6.81641c0 -0.55229 -0.44772 -1 -1 -1h-0.50215c-0.55229 0 -1 0.44771 -1 1Z" stroke-width="1"></path><path id="Vector 2_2" stroke="#000000" stroke-linecap="round" stroke-linejoin="round" d="m5.27979 5.81641 -0.00001 3.75322" stroke-width="1"></path><path id="Vector 3" stroke="#000000" stroke-linecap="round" stroke-linejoin="round" d="m4.02871 6.75471 0.31277 0c0.51821 0 0.93831 -0.42009 0.93831 -0.9383v0" stroke-width="1"></path><path id="Vector 1" stroke="#000000" stroke-linecap="round" stroke-linejoin="round" d="M6.53088 9.5697H4.02873" stroke-width="1"></path><path id="Ellipse 1140" stroke="#000000" stroke-linecap="round" d="M5 2h2c3.1756 0 5.75 2.57436 5.75 5.75 0 3.1756 -2.5744 5.75 -5.75 5.75 -3.17564 0 -5.75 -2.5744 -5.75 -5.75 0 -1.62106 0.67082 -3.08543 1.75 -4.13068" stroke-width="1"></path><path id="Vector 2573" stroke="#000000" stroke-linecap="round" stroke-linejoin="round" d="M6.5 0.5 5 2l1.5 1.5" stroke-width="1"></path></g></svg>