<svg xmlns="http://www.w3.org/2000/svg" fill="none" viewBox="0 0 14 14"><g id="button-go-forward-45"><path id="Vector 3" stroke="#000000" stroke-linecap="round" stroke-linejoin="round" d="m10.2404 5.6947 -2.03351 0 -0.31285 1.87706 0.22936 -0.11468c0.26064 -0.13032 0.54804 -0.19816 0.83944 -0.19816h0.49542c0.51833 0 0.93854 0.42019 0.93854 0.93852l0 0.31285c0 0.51833 -0.42021 0.93852 -0.93854 0.93852h-0.62569c-0.40864 0 -0.75628 -0.26116 -0.88512 -0.62568" stroke-width="1"></path><path id="Vector 7" stroke="#000000" stroke-linecap="round" stroke-linejoin="round" d="M6.73168 8.51027H3.83067c-0.12559 0 -0.2274 -0.10181 -0.2274 -0.2274v0c0 -0.05508 0.01999 -0.10829 0.05627 -0.14974l2.06931 -2.36494c0.04087 -0.0467 0.0999 -0.07349 0.16195 -0.07349v0c0.11885 0 0.2152 0.09635 0.2152 0.21519v3.53889" stroke-width="1"></path><path id="Ellipse 1140" stroke="#000000" stroke-linecap="round" d="M9 2H7C3.82436 2 1.25 4.57436 1.25 7.75c0 3.1756 2.57436 5.75 5.75 5.75 3.1756 0 5.75 -2.5744 5.75 -5.75 0 -1.62106 -0.6708 -3.08543 -1.75 -4.13068" stroke-width="1"></path><path id="Vector 2573" stroke="#000000" stroke-linecap="round" stroke-linejoin="round" d="M7.5 0.5 9 2 7.5 3.5" stroke-width="1"></path></g></svg>