<svg xmlns="http://www.w3.org/2000/svg" fill="none" viewBox="0 0 14 14"><g id="button-go-forward-5"><path id="Ellipse 1140" stroke="#000000" stroke-linecap="round" d="M9 2H7C3.82436 2 1.25 4.57436 1.25 7.75c0 3.1756 2.57436 5.75 5.75 5.75 3.1756 0 5.75 -2.5744 5.75 -5.75 0 -1.62106 -0.6708 -3.08543 -1.75 -4.13068" stroke-width="1"></path><path id="Vector 2573" stroke="#000000" stroke-linecap="round" stroke-linejoin="round" d="M7.5 0.5 9 2 7.5 3.5" stroke-width="1"></path><path id="Vector 2574" stroke="#000000" stroke-linecap="round" stroke-linejoin="round" d="m8.3125 5.78113 -2.4375 0 -0.375 2.25 0.27492 -0.13746c0.31243 -0.15622 0.65693 -0.23754 1.00623 -0.23754H7.375c0.62132 0 1.125 0.50368 1.125 1.125l0 0.375c0 0.62132 -0.50368 1.12497 -1.125 1.12497h-0.75c-0.48983 0 -0.90655 -0.31302 -1.06099 -0.74997" stroke-width="1"></path></g></svg>