<svg xmlns="http://www.w3.org/2000/svg" fill="none" viewBox="0 0 14 14"><g id="button-play-pause--button-television-buttons-movies-play-pause-video-controls"><path id="Vector" stroke="#000000" stroke-linecap="round" stroke-linejoin="round" d="M13.5 2.5v9" stroke-width="1"></path><path id="Vector_2" stroke="#000000" stroke-linecap="round" stroke-linejoin="round" d="M10.5 2.5v9" stroke-width="1"></path><path id="Vector_3" stroke="#000000" stroke-linecap="round" stroke-linejoin="round" d="M0.500005 10.29c-0.000484 0.1272 0.033706 0.2522 0.098896 0.3614 0.06519 0.1093 0.158916 0.1987 0.271104 0.2586 0.110278 0.0661 0.236435 0.101 0.365005 0.101 0.12856 0 0.25472 -0.0349 0.365 -0.101l5.08 -3.29996c0.0991 -0.06328 0.18067 -0.1505 0.23717 -0.25361 0.05651 -0.10312 0.08613 -0.21881 0.08613 -0.33639 0 -0.11758 -0.02962 -0.23327 -0.08613 -0.33639 -0.0565 -0.10312 -0.13807 -0.19034 -0.23717 -0.25361l-5.08 -3.32c-0.11028 -0.0661 -0.23644 -0.10101 -0.365 -0.10101 -0.12857 0 -0.254727 0.03491 -0.365005 0.10101 -0.112188 0.05997 -0.205914 0.14938 -0.271104 0.25861 -0.06519 0.10924 -0.09938 0.23418 -0.098896 0.36139V10.29Z" stroke-width="1"></path></g></svg>