<svg xmlns="http://www.w3.org/2000/svg" fill="none" viewBox="0 0 14 14" stroke-width="1"><g id="buttons-all"><path id="Ellipse 5" stroke="#000000" d="M5 2.5a2 2 0 1 0 4 0 2 2 0 1 0-4 0"></path><path id="Ellipse 7" stroke="#000000" transform="rotate(90 11.5 7)" d="M9.5 7a2 2 0 1 0 4 0 2 2 0 1 0-4 0"></path><path id="Ellipse 6" stroke="#000000" d="M5 11.5a2 2 0 1 0 4 0 2 2 0 1 0-4 0"></path><g id="Group 48"><path id="Ellipse 9" stroke="#000000" d="M7 11.75c-.13807 0-.25-.1119-.25-.25s.11193-.25.25-.25"></path><path id="Ellipse 10" stroke="#000000" d="M7 11.75c.13807 0 .25-.1119.25-.25s-.11193-.25-.25-.25"></path></g><g id="Group 49"><path id="Ellipse 9_2" stroke="#000000" d="M7 2.75c-.13807 0-.25-.11193-.25-.25s.11193-.25.25-.25"></path><path id="Ellipse 10_2" stroke="#000000" d="M7 2.75c.13807 0 .25-.11193.25-.25s-.11193-.25-.25-.25"></path></g><g id="Group 50"><path id="Ellipse 9_3" stroke="#000000" d="M2.5 7.25c-.13807 0-.25-.11193-.25-.25s.11193-.25.25-.25"></path><path id="Ellipse 10_3" stroke="#000000" d="M2.5 7.25c.13807 0 .25-.11193.25-.25s-.11193-.25-.25-.25"></path></g><g id="Group 51"><path id="Ellipse 9_4" stroke="#000000" d="M11.5 7.25c-.1381 0-.25-.11193-.25-.25s.1119-.25.25-.25"></path><path id="Ellipse 10_4" stroke="#000000" d="M11.5 7.25c.1381 0 .25-.11193.25-.25s-.1119-.25-.25-.25"></path></g><path id="Ellipse 8" stroke="#000000" transform="rotate(90 2.5 7)" d="M.5 7a2 2 0 1 0 4 0 2 2 0 1 0-4 0"></path></g></svg>