<svg xmlns="http://www.w3.org/2000/svg" fill="none" viewBox="0 0 14 14"><g id="button-go-backward-90"><path id="Vector 2" stroke="#000000" stroke-linecap="round" stroke-linejoin="round" d="M7.69397 6.81812v1.75c0 0.55228 0.44771 1 1 1h0.5c0.55229 0 1.00003 -0.44772 1.00003 -1v-1.75c0 -0.55229 -0.44774 -1 -1.00003 -1h-0.5c-0.55229 0 -1 0.44771 -1 1Z" stroke-width="1"></path><path id="Vector 2_2" stroke="#000000" stroke-linecap="round" stroke-linejoin="round" d="m4.82167 7.84925 0.46874 0c0.56091 -0.00001 1.01562 -0.45471 1.01562 -1.01563 0 -0.56091 -0.45472 -1.01563 -1.01564 -1.01562l-0.46874 0c-0.56091 0 -1.01561 0.45471 -1.01561 1.01562 0 0.56092 0.45471 1.01563 1.01563 1.01563Z" stroke-width="1"></path><path id="Vector 3" stroke="#000000" stroke-linecap="round" stroke-linejoin="round" d="m6.30602 6.75562 0 1.875c0 0.51777 -0.41973 0.9375 -0.93749 0.9375h-0.625c-0.4082 0 -0.75546 -0.26088 -0.88415 -0.625" stroke-width="1"></path><path id="Ellipse 1140" stroke="#000000" stroke-linecap="round" d="M5 2h2c3.1756 0 5.75 2.57436 5.75 5.75 0 3.1756 -2.5744 5.75 -5.75 5.75 -3.17564 0 -5.75 -2.5744 -5.75 -5.75 0 -1.62106 0.67082 -3.08543 1.75 -4.13068" stroke-width="1"></path><path id="Vector 2573" stroke="#000000" stroke-linecap="round" stroke-linejoin="round" d="M6.5 0.5 5 2l1.5 1.5" stroke-width="1"></path></g></svg>