<svg xmlns="http://www.w3.org/2000/svg" fill="none" viewBox="0 0 14 14"><g id="calendar-flight--calendar-date-day-month-plane-flight-trip-schedule"><path id="Vector" stroke="#000000" stroke-linecap="round" stroke-linejoin="round" d="m3.17058 7.2196 0.80104 -0.27236c0.05631 -0.01912 0.11732 -0.0193 0.17373 -0.00049 0.05641 0.0188 0.10512 0.05555 0.13868 0.10463l0.58477 0.90518 3.20419 -1.60209c0.25324 -0.14925 0.53634 -0.24068 0.82903 -0.26775 0.2927 -0.02707 0.58776 0.01089 0.86408 0.11116 0.2763 0.10027 0.5271 0.26037 0.7343 0.46885 0.2072 0.20849 0.3658 0.46019 0.4644 0.73711 0.0271 0.07184 0.0388 0.14861 0.0342 0.22528 -0.0046 0.07667 -0.0253 0.1515 -0.0609 0.21958 -0.0355 0.06808 -0.0851 0.12788 -0.1454 0.17546 -0.0603 0.04758 -0.1299 0.08187 -0.2044 0.10062l-1.84408 0.58231 -0.20828 0.0721 -0.39251 1.34571c-0.01261 0.0469 -0.03684 0.0898 -0.07044 0.1248 -0.03361 0.035 -0.0755 0.061 -0.12181 0.0755l-1.19191 0.395c-0.04826 0.0157 -0.09974 0.0188 -0.14952 0.0089 -0.04978 -0.0099 -0.09619 -0.0324 -0.13478 -0.0654 -0.03859 -0.0329 -0.06807 -0.0753 -0.08562 -0.1229 -0.01754 -0.0476 -0.02257 -0.0989 -0.01458 -0.1491l0.20827 -1.00126h-0.13618l-2.04267 0.66486c-0.13387 0.0462 -0.28054 0.0375 -0.40808 -0.024 -0.12753 -0.06151 -0.22559 -0.17093 -0.27281 -0.30442l-0.72094 -2.21891c-0.00794 -0.05992 0.00429 -0.12077 0.03474 -0.17298 0.03046 -0.05221 0.07741 -0.09281 0.13348 -0.11539Z" stroke-width="1"></path><path id="Vector_2" stroke="#000000" stroke-linecap="round" stroke-linejoin="round" d="M2 2.5c-0.26522 0 -0.51957 0.10536 -0.70711 0.29289C1.10536 2.98043 1 3.23478 1 3.5V12c0 0.2652 0.10536 0.5196 0.29289 0.7071C1.48043 12.8946 1.73478 13 2 13h10c0.2652 0 0.5196 -0.1054 0.7071 -0.2929S13 12.2652 13 12V3.5c0 -0.26522 -0.1054 -0.51957 -0.2929 -0.70711C12.5196 2.60536 12.2652 2.5 12 2.5H2Z" stroke-width="1"></path><path id="Vector_3" stroke="#000000" stroke-linecap="round" stroke-linejoin="round" d="M3.5 1v3" stroke-width="1"></path><path id="Vector_4" stroke="#000000" stroke-linecap="round" stroke-linejoin="round" d="M10.5 1v3" stroke-width="1"></path></g></svg>