<svg xmlns="http://www.w3.org/2000/svg" fill="none" viewBox="0 0 14 14"><g id="calendar-mark--calendar-date-day-month-mark"><g id="Group 2567"><path id="Vector" stroke="#000000" stroke-linecap="round" stroke-linejoin="round" d="M4 6.75c-0.13807 0 -0.25 -0.11193 -0.25 -0.25s0.11193 -0.25 0.25 -0.25" stroke-width="1"></path><path id="Vector_2" stroke="#000000" stroke-linecap="round" stroke-linejoin="round" d="M4 6.75c0.13807 0 0.25 -0.11193 0.25 -0.25s-0.11193 -0.25 -0.25 -0.25" stroke-width="1"></path></g><g id="Group 2617"><path id="Vector_3" stroke="#000000" stroke-linecap="round" stroke-linejoin="round" d="M7 6.75c-0.13807 0 -0.25 -0.11193 -0.25 -0.25s0.11193 -0.25 0.25 -0.25" stroke-width="1"></path><path id="Vector_4" stroke="#000000" stroke-linecap="round" stroke-linejoin="round" d="M7 6.75c0.13807 0 0.25 -0.11193 0.25 -0.25s-0.11193 -0.25 -0.25 -0.25" stroke-width="1"></path></g><g id="Group 2619"><path id="Vector_5" stroke="#000000" stroke-linecap="round" stroke-linejoin="round" d="M4 10.25c-0.13807 0 -0.25 -0.1119 -0.25 -0.25 0 -0.13807 0.11193 -0.25 0.25 -0.25" stroke-width="1"></path><path id="Vector_6" stroke="#000000" stroke-linecap="round" stroke-linejoin="round" d="M4 10.25c0.13807 0 0.25 -0.1119 0.25 -0.25 0 -0.13807 -0.11193 -0.25 -0.25 -0.25" stroke-width="1"></path></g><g id="Group 2620"><path id="Vector_7" stroke="#000000" stroke-linecap="round" stroke-linejoin="round" d="M7 10.25c-0.13807 0 -0.25 -0.1119 -0.25 -0.25 0 -0.13807 0.11193 -0.25 0.25 -0.25" stroke-width="1"></path><path id="Vector_8" stroke="#000000" stroke-linecap="round" stroke-linejoin="round" d="M7 10.25c0.13807 0 0.25 -0.1119 0.25 -0.25 0 -0.13807 -0.11193 -0.25 -0.25 -0.25" stroke-width="1"></path></g><g id="Group 2618"><path id="Vector_9" stroke="#000000" stroke-linecap="round" stroke-linejoin="round" d="M10 6.75c-0.13807 0 -0.25 -0.11193 -0.25 -0.25s0.11193 -0.25 0.25 -0.25" stroke-width="1"></path><path id="Vector_10" stroke="#000000" stroke-linecap="round" stroke-linejoin="round" d="M10 6.75c0.1381 0 0.25 -0.11193 0.25 -0.25s-0.1119 -0.25 -0.25 -0.25" stroke-width="1"></path></g><path id="Vector_11" stroke="#000000" stroke-linecap="round" stroke-linejoin="round" d="M2 2.5c-0.26522 0 -0.51957 0.10536 -0.70711 0.29289C1.10536 2.98043 1 3.23478 1 3.5V12c0 0.2652 0.10536 0.5196 0.29289 0.7071C1.48043 12.8946 1.73478 13 2 13h10c0.2652 0 0.5196 -0.1054 0.7071 -0.2929S13 12.2652 13 12V3.5c0 -0.26522 -0.1054 -0.51957 -0.2929 -0.70711C12.5196 2.60536 12.2652 2.5 12 2.5H2Z" stroke-width="1"></path><path id="Vector_12" stroke="#000000" stroke-linecap="round" stroke-linejoin="round" d="M3.5 1v3" stroke-width="1"></path><path id="Vector_13" stroke="#000000" stroke-linecap="round" stroke-linejoin="round" d="M10.5 1v3" stroke-width="1"></path></g></svg>