<svg xmlns="http://www.w3.org/2000/svg" fill="none" viewBox="0 0 14 14"><g id="calendar-lock--calendar-date-day-lock-month-padlock-secure-security"><path id="Vector 2567" stroke="#000000" stroke-linecap="round" stroke-linejoin="round" d="M4.75 10.25v-2c0 -0.27614 0.22386 -0.5 0.5 -0.5h3.5c0.27614 0 0.5 0.22386 0.5 0.5v2c0 0.2761 -0.22386 0.5 -0.5 0.5h-3.5c-0.27614 0 -0.5 -0.2239 -0.5 -0.5Z" stroke-width="1"></path><path id="Vector 2568" stroke="#000000" stroke-linecap="round" stroke-linejoin="round" d="M5.5 7.75v-1c0 -0.82843 0.67157 -1.5 1.5 -1.5v0c0.82843 0 1.5 0.67157 1.5 1.5v1" stroke-width="1"></path><path id="Vector" stroke="#000000" stroke-linecap="round" stroke-linejoin="round" d="M2 2.5c-0.26522 0 -0.51957 0.10536 -0.70711 0.29289C1.10536 2.98043 1 3.23478 1 3.5V12c0 0.2652 0.10536 0.5196 0.29289 0.7071C1.48043 12.8946 1.73478 13 2 13h10c0.2652 0 0.5196 -0.1054 0.7071 -0.2929S13 12.2652 13 12V3.5c0 -0.26522 -0.1054 -0.51957 -0.2929 -0.70711C12.5196 2.60536 12.2652 2.5 12 2.5H2Z" stroke-width="1"></path><path id="Vector_2" stroke="#000000" stroke-linecap="round" stroke-linejoin="round" d="M3.5 1v3" stroke-width="1"></path><path id="Vector_3" stroke="#000000" stroke-linecap="round" stroke-linejoin="round" d="M10.5 1v3" stroke-width="1"></path></g></svg>