<svg xmlns="http://www.w3.org/2000/svg" fill="none" viewBox="0 0 14 14"><g id="calendar-fire--calendar-date-day-month-fire-trend-deadline"><path id="Vector" stroke="#000000" stroke-linecap="round" stroke-linejoin="round" d="M7.50264 5.01439c0.13952 -0.05979 0.26575 0.07973 0.20596 0.17938 -0.48622 0.84716 -0.68433 2.07269 -0.03322 2.88996 0.05842 0.07307 0.18354 0.07646 0.24581 0.00665 0.17251 -0.17867 0.46505 -0.578 0.46505 -0.578 0.03322 -0.06643 0.15281 -0.17273 0.32554 0 0.64996 0.64997 0.79102 1.73668 0.27239 2.52452 -0.43816 0.587 -1.14956 0.9492 -1.88195 0.9582 -1.20951 0.0148 -2.21438 -0.8597 -2.22379 -2.07427 0.0001 -1.66778 1.15375 -3.1985 2.62421 -3.90644Z" stroke-width="1"></path><path id="Vector_2" stroke="#000000" stroke-linecap="round" stroke-linejoin="round" d="M2 2.5c-0.26522 0 -0.51957 0.10536 -0.70711 0.29289C1.10536 2.98043 1 3.23478 1 3.5V12c0 0.2652 0.10536 0.5196 0.29289 0.7071C1.48043 12.8946 1.73478 13 2 13h10c0.2652 0 0.5196 -0.1054 0.7071 -0.2929S13 12.2652 13 12V3.5c0 -0.26522 -0.1054 -0.51957 -0.2929 -0.70711C12.5196 2.60536 12.2652 2.5 12 2.5H2Z" stroke-width="1"></path><path id="Vector_3" stroke="#000000" stroke-linecap="round" stroke-linejoin="round" d="M3.5 1v3" stroke-width="1"></path><path id="Vector_4" stroke="#000000" stroke-linecap="round" stroke-linejoin="round" d="M10.5 1v3" stroke-width="1"></path></g></svg>