<svg xmlns="http://www.w3.org/2000/svg" fill="none" viewBox="0 0 14 14"><g id="camera-setting-pin--photos-camera-map-photography-pictures-maps-settings-pin-photo"><path id="Vector" stroke="#000000" stroke-linecap="round" stroke-linejoin="round" d="M13 4.25c0 -0.26522 -0.1054 -0.51957 -0.2929 -0.70711C12.5196 3.35536 12.2652 3.25 12 3.25h-1.5L9 1H5L3.5 3.25H2c-0.26522 0 -0.51957 0.10536 -0.70711 0.29289C1.10536 3.73043 1 3.98478 1 4.25v4.5c0 0.26522 0.10536 0.51957 0.29289 0.70711 0.18754 0.18753 0.44189 0.29289 0.70711 0.29289h2.5L7 13l2.5 -3.25H12c0.2652 0 0.5196 -0.10536 0.7071 -0.29289C12.8946 9.26957 13 9.01522 13 8.75v-4.5Z" stroke-width="1"></path><path id="Vector_2" stroke="#000000" stroke-linecap="round" stroke-linejoin="round" d="M7 8.25c1.10457 0 2 -0.89543 2 -2s-0.89543 -2 -2 -2 -2 0.89543 -2 2 0.89543 2 2 2Z" stroke-width="1"></path></g></svg>