<svg xmlns="http://www.w3.org/2000/svg" fill="none" viewBox="0 0 14 14"><g id="camera-tripod--tripod-photos-picture-camera-photography-photo-pictures"><path id="Vector" stroke="#000000" stroke-linecap="round" stroke-linejoin="round" d="M7 8.5v5" stroke-width="1"></path><path id="Vector_2" stroke="#000000" stroke-linecap="round" stroke-linejoin="round" d="m7 8.5 -4.5 5" stroke-width="1"></path><path id="Vector_3" stroke="#000000" stroke-linecap="round" stroke-linejoin="round" d="m7 8.5 4.5 5" stroke-width="1"></path><path id="Vector_4" stroke="#000000" stroke-linecap="round" stroke-linejoin="round" d="M11.5 0.5h-9c-0.55228 0 -1 0.447715 -1 1v6c0 0.55228 0.44772 1 1 1h9c0.5523 0 1 -0.44772 1 -1v-6c0 -0.552285 -0.4477 -1 -1 -1Z" stroke-width="1"></path><path id="Vector_5" stroke="#000000" stroke-linecap="round" stroke-linejoin="round" d="M7 6.25c0.9665 0 1.75 -0.7835 1.75 -1.75S7.9665 2.75 7 2.75s-1.75 0.7835 -1.75 1.75S6.0335 6.25 7 6.25Z" stroke-width="1"></path></g></svg>