<svg xmlns="http://www.w3.org/2000/svg" fill="none" viewBox="0 0 14 14"><g id="camera-timer--camera-timer"><path id="Vector" stroke="#000000" stroke-linecap="round" stroke-linejoin="round" d="M5.75 8.5H1.5c-0.26522 0 -0.51957 -0.10536 -0.707107 -0.29289C0.605357 8.01957 0.5 7.76522 0.5 7.5V3c0 -0.26522 0.105357 -0.51957 0.292893 -0.70711C0.98043 2.10536 1.23478 2 1.5 2h1L4 0.5h3L8.5 2h1c0.26522 0 0.5196 0.10536 0.7071 0.29289 0.1875 0.18754 0.2929 0.44189 0.2929 0.70711v2.75" stroke-width="1"></path><path id="Vector_2" stroke="#000000" stroke-linecap="round" stroke-linejoin="round" d="M5.5 6.5c0.9665 0 1.75 -0.7835 1.75 -1.75S6.4665 3 5.5 3s-1.75 0.7835 -1.75 1.75S4.5335 6.5 5.5 6.5Z" stroke-width="1"></path><path id="Vector_3" stroke="#000000" stroke-linecap="round" stroke-linejoin="round" d="M10.5 13.5c1.6569 0 3 -1.3431 3 -3 0 -1.65685 -1.3431 -3 -3 -3 -1.65685 0 -3 1.34315 -3 3 0 1.6569 1.34315 3 3 3Z" stroke-width="1"></path><path id="Vector_4" stroke="#000000" stroke-linecap="round" stroke-linejoin="round" d="M10.5 9.5v1.25l1 0.25" stroke-width="1"></path></g></svg>