<svg xmlns="http://www.w3.org/2000/svg" fill="none" viewBox="0 0 14 14"><g id="campfire--campfire-burn-leisure-outdoor-activity"><path id="Vector 2790" stroke="#000000" stroke-linecap="round" stroke-linejoin="round" d="m1.5 13 11 -4" stroke-width="1"></path><path id="Vector 2791" stroke="#000000" stroke-linecap="round" stroke-linejoin="round" d="m12.5 13 -11 -4" stroke-width="1"></path><path id="Vector" stroke="#000000" stroke-linecap="round" stroke-linejoin="round" d="M6.38739 1c0.0399 0 0.07902 0.01101 0.11305 0.03183 1.90194 0.83659 3.30249 2.75767 3.30249 4.79904C9.80721 7.5579 8.48911 8.5 6.98092 8.5c-1.52503 0 -2.82632 -1.36318 -2.8243 -2.66913 0 -0.70746 0.47088 -1.53049 1.12851 -1.91621 0.19215 0.44496 0.48194 0.84099 0.84789 1.15878 0.95152 -0.92326 0.84789 -2.6473 0.14132 -3.84377 -0.02216 -0.02821 -0.0342 -0.06305 -0.0342 -0.09892s0.01204 -0.07071 0.0342 -0.09892C6.30837 1.01101 6.34749 1 6.38739 1Z" stroke-width="1"></path></g></svg>