<svg xmlns="http://www.w3.org/2000/svg" fill="none" viewBox="0 0 14 14"><g id="candle--lighting-light-incandescent-candle"><path id="Vector" stroke="#000000" stroke-linecap="round" stroke-linejoin="round" d="M6.37001 0.539062c0.04235 0 0.08387 0.011692 0.12 0.033786C8.50883 1.46085 9.99546 3.5 9.99546 5.66683 10 7.5 8.60089 8.5 7.00002 8.5 5.38126 8.5 4 7.05305 4.00214 5.66683c0 -0.75094 0.49982 -1.62456 1.19787 -2.03398 0.20396 0.47231 0.51155 0.89268 0.9 1.23 1.01 -0.98 0.9 -2.81 0.15 -4.080002 -0.02352 -0.029946 -0.0363 -0.066922 -0.0363 -0.105s0.01278 -0.075053 0.0363 -0.105c0.03613 -0.022094 0.07765 -0.033786 0.12 -0.033786Z" stroke-width="1"></path><path id="Vector_2" stroke="#000000" stroke-linecap="round" stroke-linejoin="round" d="M11.5 13.4609v-2.9097c0 -0.309 -0.2774 -0.544 -0.5822 -0.4932l-8 1.3333c-0.24109 0.0402 -0.4178 0.2488 -0.4178 0.4932v1.5764" stroke-width="1"></path></g></svg>