<svg xmlns="http://www.w3.org/2000/svg" fill="none" viewBox="0 0 14 14"><g id="car-taxi-2--transportation-travel-taxi-transport-cab"><path id="Vector 1961" stroke="#000000" stroke-linecap="round" stroke-linejoin="round" d="M5.5 2.5v1h3v-1c0 -0.55228 -0.44772 -1 -1 -1h-1c-0.55228 0 -1 0.44772 -1 1Z" stroke-width="1"></path><path id="Vector 4508" stroke="#000000" stroke-linecap="round" stroke-linejoin="round" d="M11.5 7.5h-9c-1.10457 0 -2 0.89543 -2 2V11c0 0.5523 0.447715 1 1 1h11c0.5523 0 1 -0.4477 1 -1V9.5c0 -1.10457 -0.8954 -2 -2 -2Z" stroke-width="1"></path><path id="Vector 4509" stroke="#000000" stroke-linecap="round" stroke-linejoin="round" d="M2.5 12v1.5" stroke-width="1"></path><path id="Vector 4510" stroke="#000000" stroke-linecap="round" stroke-linejoin="round" d="M11.5 12v1.5" stroke-width="1"></path><path id="Vector 4511" stroke="#000000" stroke-linecap="round" stroke-linejoin="round" d="M3 9.5h1" stroke-width="1"></path><path id="Vector 4512" stroke="#000000" stroke-linecap="round" stroke-linejoin="round" d="M10 9.5h1" stroke-width="1"></path><path id="Vector 4513" stroke="#000000" stroke-linecap="round" stroke-linejoin="round" d="M2.78101 5.25193 2.5 7.5h9l-0.281 -2.24807C11.0939 4.25107 10.2431 3.5 9.23444 3.5H4.76556c-1.00864 0 -1.85944 0.75107 -1.98455 1.75193Z" stroke-width="1"></path></g></svg>