<svg xmlns="http://www.w3.org/2000/svg" fill="none" viewBox="0 0 14 14"><g id="car-hill-up"><path id="Vector" stroke="#000000" stroke-linecap="round" stroke-linejoin="round" d="M3.43302 10.1134 3 10.3634c-0.22968 0.1326 -0.50264 0.1685 -0.75882 0.0999 -0.25618 -0.0686 -0.47459 -0.2362 -0.6072 -0.46593L0.633977 8.26532c-0.132608 -0.22969 -0.168543 -0.50264 -0.0999 -0.75882C0.60272 7.25032 0.770318 7.0319 1 6.89929l1.29904 -0.75 -0.49316 -2.39418c-0.04323 -0.21404 -0.01522 -0.43635 0.07977 -0.63297 0.09498 -0.19662 0.25171 -0.35675 0.44626 -0.45593L5.80467 0.661215c0.18316 -0.11889 0.4002 -0.174561 0.61797 -0.158508 0.21777 0.016052 0.4243 0.102944 0.58805 0.247405L8.79423 2.39929l1.73207 -1c0.2297 -0.13261 0.5026 -0.16854 0.7588 -0.0999 0.2562 0.06864 0.4746 0.23624 0.6072 0.46593l1 1.73205c0.1326 0.22968 0.1686 0.50264 0.0999 0.75882 -0.0686 0.25618 -0.2362 0.47459 -0.4659 0.6072l-0.433 0.25" stroke-width="1"></path><path id="Vector_2" stroke="#000000" stroke-linecap="round" stroke-linejoin="round" d="M10.7926 7.36442c-0.82905 0 -1.5011 -0.67205 -1.5011 -1.50106s0.67205 -1.50106 1.5011 -1.50106c0.829 0 1.501 0.67205 1.501 1.50106s-0.672 1.50106 -1.501 1.50106Z" stroke-width="1"></path><path id="Vector_3" stroke="#000000" stroke-linecap="round" stroke-linejoin="round" d="M4.73043 10.8644c-0.82901 0 -1.50106 -0.672 -1.50106 -1.50103 0 -0.82902 0.67205 -1.50107 1.50106 -1.50107s1.50106 0.67205 1.50106 1.50107c0 0.82903 -0.67205 1.50103 -1.50106 1.50103Z" stroke-width="1"></path><path id="Vector_4" stroke="#000000" stroke-linecap="round" stroke-linejoin="round" d="M9.49328 6.61426 6.03101 8.6132" stroke-width="1"></path><path id="Vector 3378" stroke="#000000" stroke-linecap="round" stroke-linejoin="round" d="M4 13.5 13.5 8" stroke-width="1"></path></g></svg>