<svg xmlns="http://www.w3.org/2000/svg" fill="none" viewBox="0 0 14 14"><g id="car-hill-down"><path id="Vector" stroke="#000000" stroke-linecap="round" stroke-linejoin="round" d="m1.90677 5.33839 -0.43301 -0.25c-0.22969 -0.13261 -0.39729 -0.35102 -0.46593 -0.6072 -0.068642 -0.25618 -0.032706 -0.52914 0.0999 -0.75882l1 -1.73205c0.13261 -0.22969 0.35103 -0.39729 0.60721 -0.46593 0.25618 -0.06864 0.52913 -0.03271 0.75882 0.0999l1.29904 0.75L6.59964 0.750112c0.16374 -0.144461 0.37028 -0.231353 0.58805 -0.247406 0.21777 -0.016052 0.43481 0.039619 0.61797 0.158509L11.2784 2.66622c0.1946 0.09917 0.3513 0.2593 0.4463 0.45592 0.095 0.19662 0.123 0.41893 0.0797 0.63297l-0.5364 2.36918 1.732 1c0.2297 0.13261 0.3973 0.35103 0.466 0.60721 0.0686 0.25618 0.0327 0.52913 -0.0999 0.75882l-1 1.73208c-0.1326 0.2297 -0.3511 0.3973 -0.6072 0.4659 -0.2562 0.0686 -0.5292 0.0327 -0.7589 -0.0999l-0.433 -0.25" stroke-width="1"></path><path id="Vector_2" stroke="#000000" stroke-linecap="round" stroke-linejoin="round" d="M9.26717 11.0881c-0.82901 0 -1.50106 -0.6721 -1.50106 -1.50111 0 -0.82901 0.67205 -1.50105 1.50106 -1.50105 0.82903 0 1.50103 0.67204 1.50103 1.50105s-0.672 1.50111 -1.50103 1.50111Z" stroke-width="1"></path><path id="Vector_3" stroke="#000000" stroke-linecap="round" stroke-linejoin="round" d="M3.20504 7.58806c-0.82901 0 -1.50106 -0.67205 -1.50106 -1.50106 0 -0.82902 0.67205 -1.50106 1.50106 -1.50106S4.7061 5.25799 4.7061 6.087s-0.67205 1.50106 -1.50106 1.50106Z" stroke-width="1"></path><path id="Vector_4" stroke="#000000" stroke-linecap="round" stroke-linejoin="round" d="M7.96728 8.83684 4.505 6.83789" stroke-width="1"></path><path id="Vector 3378" stroke="#000000" stroke-linecap="round" stroke-linejoin="round" d="M10 13.5 0.5 8" stroke-width="1"></path></g></svg>