<svg xmlns="http://www.w3.org/2000/svg" fill="none" viewBox="0 0 14 14"><g id="carbon"><path id="Vector 2068" stroke="#000000" stroke-linecap="round" stroke-linejoin="round" d="M5.16668 5.66667C5.0294 5.27827 4.65899 5 4.22358 5h-0.66666c-0.55229 0 -1 0.44772 -1 1v2c0 0.55228 0.44771 1 1 1h0.66666c0.43541 0 0.80582 -0.27827 0.9431 -0.66666" stroke-width="1"></path><path id="Ellipse 1610" stroke="#000000" stroke-linecap="round" stroke-linejoin="round" d="M13.5 7C13.5 3.41015 10.5899 0.5 7 0.5 3.41015 0.5 0.5 3.41015 0.5 7c0 3.5899 2.91015 6.5 6.5 6.5" stroke-width="1"></path><path id="Vector 3" stroke="#000000" stroke-linecap="round" stroke-linejoin="round" d="M13 13.5h-2.6667v-0.5682c0 -0.3973 0.2352 -0.7569 0.5992 -0.9162l1.4839 -0.6492c0.3545 -0.1551 0.5836 -0.5054 0.5836 -0.8923 0 -0.538 -0.4361 -0.9741 -0.974 -0.9741h-0.6927c-0.4354 0 -0.8058 0.27827 -0.9431 0.6667" stroke-width="1"></path><path id="Vector 2069" stroke="#000000" stroke-linecap="round" stroke-linejoin="round" d="M6.66669 6v2c0 0.55228 0.44771 1 1 1h0.66666c0.55229 0 1 -0.44772 1 -1V6c0 -0.55228 -0.44771 -1 -1 -1h-0.66666c-0.55229 0 -1 0.44772 -1 1Z" stroke-width="1"></path></g></svg>