<svg xmlns="http://www.w3.org/2000/svg" fill="none" viewBox="0 0 14 14"><g id="card-game-diamond"><path id="Rectangle 1681" stroke="#000000" stroke-linecap="round" stroke-linejoin="round" d="M2.14062 1.67187c0 -0.55228 0.44772 -0.999995 1 -0.999995h7.71878c0.5523 0 1 0.447715 1 1.000005V12.3281c0 0.5523 -0.4477 1 -1 1H3.14062c-0.55228 0 -1 -0.4477 -1 -1V1.67187Z" stroke-width="1"></path><path id="Rectangle 1681_2" stroke="#000000" stroke-linecap="round" stroke-linejoin="round" d="M5.17369 7.27062c-0.10608 -0.16481 -0.10608 -0.37641 0 -0.54123l1.40563 -2.18384c0.19686 -0.30585 0.64402 -0.30585 0.84087 0l1.40563 2.18384c0.10608 0.16482 0.10608 0.37642 0 0.54123L7.42019 9.45447c-0.19685 0.30585 -0.64401 0.30585 -0.84087 0L5.17369 7.27062Z" stroke-width="1"></path><g id="Group 4515"><path id="Ellipse 1028" stroke="#000000" stroke-linecap="round" stroke-linejoin="round" d="M4.19324 3.02637c-0.13807 0 -0.25 -0.11193 -0.25 -0.25s0.11193 -0.25 0.25 -0.25" stroke-width="1"></path><path id="Ellipse 1029" stroke="#000000" stroke-linecap="round" stroke-linejoin="round" d="M4.19324 3.02637c0.13807 0 0.25 -0.11193 0.25 -0.25s-0.11193 -0.25 -0.25 -0.25" stroke-width="1"></path></g><g id="Group 4516"><path id="Ellipse 1028_2" stroke="#000000" stroke-linecap="round" stroke-linejoin="round" d="M9.80676 11.4736c-0.13807 0 -0.25 -0.1119 -0.25 -0.25 0 -0.138 0.11193 -0.25 0.25 -0.25" stroke-width="1"></path><path id="Ellipse 1029_2" stroke="#000000" stroke-linecap="round" stroke-linejoin="round" d="M9.80676 11.4736c0.13807 0 0.25004 -0.1119 0.25004 -0.25 0 -0.138 -0.11197 -0.25 -0.25004 -0.25" stroke-width="1"></path></g></g></svg>