<svg width="16" height="17" viewBox="0 0 16 17" fill="none" xmlns="http://www.w3.org/2000/svg">
<g clip-path="url(#clip0_1926_12142)">
<path d="M13.4623 6.30875C13.4244 6.21738 13.3604 6.13928 13.2782 6.08432C13.1959 6.02936 13.0993 6.00002 13.0004 6H3.00039C2.90145 5.99992 2.8047 6.0292 2.7224 6.08414C2.64011 6.13908 2.57596 6.21719 2.53808 6.3086C2.50021 6.40002 2.4903 6.50061 2.50963 6.59765C2.52895 6.6947 2.57664 6.78382 2.64664 6.85375L7.64664 11.8538C7.69308 11.9002 7.74822 11.9371 7.80892 11.9623C7.86962 11.9874 7.93469 12.0004 8.00039 12.0004C8.0661 12.0004 8.13117 11.9874 8.19186 11.9623C8.25256 11.9371 8.30771 11.9002 8.35414 11.8538L13.3541 6.85375C13.424 6.78379 13.4716 6.69466 13.4909 6.59765C13.5101 6.50064 13.5002 6.4001 13.4623 6.30875Z" fill="#01040B"/>
</g>
<defs>
<clipPath id="clip0_1926_12142">
<rect width="16" height="16" fill="white" transform="translate(0 0.5)"/>
</clipPath>
</defs>
</svg>
