<svg xmlns="http://www.w3.org/2000/svg" fill="none" viewBox="0 0 14 14"><g id="carrot--vegetable-carrot"><path id="Vector 2148" stroke="#000000" stroke-linecap="round" stroke-linejoin="round" d="M9.17789 9.91236 3.1711 13.265c-0.27614 0.1541 -0.58711 0.235 -0.90335 0.235h-0.06064c-0.45276 0 -0.88697 -0.1798 -1.20711 -0.5 -0.320145 -0.3201 -0.5 -0.7543 -0.5 -1.2071v-0.0606c0 -0.3163 0.080909 -0.6272 0.235031 -0.9034L4.08766 4.82213C5.29757 2.65437 8.24457 2.24459 10 4.00002c1.7554 1.75542 1.3456 4.70243 -0.82211 5.91234Z" stroke-width="1"></path><path id="Vector 2143" stroke="#000000" stroke-linecap="round" stroke-linejoin="round" d="m10 4 2.5 -2.5" stroke-width="1"></path><path id="Vector 2144" stroke="#000000" stroke-linecap="round" stroke-linejoin="round" d="M10 4V0.5" stroke-width="1"></path><path id="Vector 2145" stroke="#000000" stroke-linecap="round" stroke-linejoin="round" d="M10 4h3.5" stroke-width="1"></path><path id="Vector 2146" stroke="#000000" stroke-linecap="round" stroke-linejoin="round" d="M5.14286 12.1429 3.5 10.5" stroke-width="1"></path><path id="Vector 2147" stroke="#000000" stroke-linecap="round" stroke-linejoin="round" d="M6.5 8.49994 3.64288 5.64282" stroke-width="1"></path></g></svg>