<svg xmlns="http://www.w3.org/2000/svg" fill="none" viewBox="0 0 14 14"><g id="chair--design-lounge-furniture-chair-interior-decorate-armchair-decoration-shopping"><path id="Vector" stroke="#000000" stroke-linecap="round" stroke-linejoin="round" d="M10 1.5H4c-0.55228 0 -1 0.44772 -1 1v5c0 0.55228 0.44772 1 1 1h6c0.5523 0 1 -0.44772 1 -1v-5c0 -0.55228 -0.4477 -1 -1 -1Z" stroke-width="1"></path><path id="Vector_2" stroke="#000000" stroke-linecap="round" stroke-linejoin="round" d="M3 4.5H1.5c-0.26522 0 -0.51957 0.10536 -0.707107 0.29289C0.605357 4.98043 0.5 5.23478 0.5 5.5V10c0 0.2652 0.105357 0.5196 0.292893 0.7071C0.98043 10.8946 1.23478 11 1.5 11h11c0.2652 0 0.5196 -0.1054 0.7071 -0.2929S13.5 10.2652 13.5 10V5.5c0 -0.26522 -0.1054 -0.51957 -0.2929 -0.70711C13.0196 4.60536 12.7652 4.5 12.5 4.5H11" stroke-width="1"></path><path id="Vector_3" stroke="#000000" stroke-linecap="round" stroke-linejoin="round" d="m4 11 -0.5 2.5" stroke-width="1"></path><path id="Vector_4" stroke="#000000" stroke-linecap="round" stroke-linejoin="round" d="m10 11 0.5 2.5" stroke-width="1"></path></g></svg>