<svg xmlns="http://www.w3.org/2000/svg" fill="none" viewBox="0 0 14 14"><g id="change-account-pin-password"><path id="vector" stroke="#000000" stroke-linecap="round" stroke-linejoin="round" d="M3 13.4426h8c1.4 0 2.5 -1.1 2.5 -2.5 0 -1.39997 -1.1 -2.49997 -2.5 -2.49997H3" stroke-width="1"></path><g id="group 4547"><path id="ellipse 1117" stroke="#000000" stroke-linecap="round" stroke-linejoin="round" d="M3.5 11.1926c0.13807 0 0.25 -0.1119 0.25 -0.25 0 -0.138 -0.11193 -0.25 -0.25 -0.25" stroke-width="1"></path><path id="ellipse 1116" stroke="#000000" stroke-linecap="round" stroke-linejoin="round" d="M3.5 11.1926c-0.13807 0 -0.25 -0.1119 -0.25 -0.25 0 -0.138 0.11193 -0.25 0.25 -0.25" stroke-width="1"></path></g><g id="group 4548"><path id="ellipse 1117_2" stroke="#000000" stroke-linecap="round" stroke-linejoin="round" d="M7 11.1926c0.13807 0 0.25 -0.1119 0.25 -0.25 0 -0.138 -0.11193 -0.25 -0.25 -0.25" stroke-width="1"></path><path id="ellipse 1116_2" stroke="#000000" stroke-linecap="round" stroke-linejoin="round" d="M7 11.1926c-0.13807 0 -0.25 -0.1119 -0.25 -0.25 0 -0.138 0.11193 -0.25 0.25 -0.25" stroke-width="1"></path></g><g id="group 4549"><path id="ellipse 1117_3" stroke="#000000" stroke-linecap="round" stroke-linejoin="round" d="M10.5 11.1926c0.1381 0 0.25 -0.1119 0.25 -0.25 0 -0.138 -0.1119 -0.25 -0.25 -0.25" stroke-width="1"></path><path id="ellipse 1116_3" stroke="#000000" stroke-linecap="round" stroke-linejoin="round" d="M10.5 11.1926c-0.1381 0 -0.25 -0.1119 -0.25 -0.25 0 -0.138 0.1119 -0.25 0.25 -0.25" stroke-width="1"></path></g><path id="vector_2" stroke="#000000" stroke-linecap="round" stroke-linejoin="round" d="m7.24219 2.03554 -0.83636 -0.64175 0.64175 -0.836364" stroke-width="1"></path><path id="ellipse 1467" stroke="#000000" stroke-linecap="round" stroke-linejoin="round" d="M4.86164 2.80125c-0.13285 0.31201 -0.20637 0.65536 -0.20637 1.01589 0 1.4333 1.16192 2.59521 2.59522 2.59521 1.4333 0 2.59521 -1.16191 2.59521 -2.59521 0 -1.4333 -1.16191 -2.59522 -2.59521 -2.59522 -0.27479 0 -0.5396 0.04271 -0.78816 0.12185" stroke-width="1"></path></g></svg>