<svg xmlns="http://www.w3.org/2000/svg" fill="none" viewBox="0 0 14 14"><g id="change-background-transparent"><path id="vector 2602" stroke="#000000" stroke-linecap="round" stroke-linejoin="round" d="M12.7001 1.28498 10.6027 3.3659" stroke-width="1"></path><path id="vector 2605" stroke="#000000" stroke-linecap="round" stroke-linejoin="round" d="m10.1755 1 -0.84015 0.84018M0.999609 10.1759 3.71076 7.46478" stroke-width="1"></path><path id="vector 2606" stroke="#000000" stroke-linecap="round" stroke-linejoin="round" d="m4.51318 1.03772 -3.4884 3.4884" stroke-width="1"></path><path id="vector 2613" stroke="#000000" stroke-linecap="round" stroke-linejoin="round" d="m1.53955 1.03821 -0.53315 0.53315" stroke-width="1"></path><path id="vector 2608" stroke="#000000" stroke-linecap="round" stroke-linejoin="round" d="m7.34717 1.01611 -0.30973 0.30973M1.00422 7.35907l2.09169 -2.0917" stroke-width="1"></path><path id="vector 2610" stroke="#000000" stroke-linecap="round" stroke-linejoin="round" d="m13.0005 3.85095 -2.165 2.16497" stroke-width="1"></path><path id="vector 2611" stroke="#000000" stroke-linecap="round" stroke-linejoin="round" d="m12.9752 9.50073 -0.6797 0.67967" stroke-width="1"></path><path id="vector 2612" stroke="#000000" stroke-linecap="round" stroke-linejoin="round" d="M12.9681 6.69556 10.9758 8.6879" stroke-width="1"></path><path id="vector" stroke="#000000" stroke-linecap="round" stroke-linejoin="round" d="M7.00671 7.58996c1.35826 0 2.45935 -1.10109 2.45935 -2.45935 0 -1.35826 -1.10109 -2.45935 -2.45935 -2.45935 -1.35826 0 -2.45935 1.10109 -2.45935 2.45935 0 1.35826 1.10109 2.45935 2.45935 2.45935Z" stroke-width="1"></path><path id="vector_2" stroke="#000000" stroke-linecap="round" stroke-linejoin="round" d="M2.18469 12.9999c0.22578 -1.1119 0.82903 -2.1115 1.70752 -2.8296 0.87849 -0.71799 1.9782 -1.11024 3.1128 -1.11024s2.23431 0.39225 3.11279 1.11024c0.8785 0.7181 1.4817 1.7177 1.7075 2.8296" stroke-width="1"></path></g></svg>