<svg xmlns="http://www.w3.org/2000/svg" fill="none" viewBox="0 0 14 14"><g id="charging--phone-mobile-charge-device-electricity-power-battery-charging"><path id="Vector" stroke="#000000" stroke-linecap="round" stroke-linejoin="round" d="M13.4999 6.99996C13.4999 3.41013 10.5898 0.5 6.99996 0.5 3.41013 0.5 0.5 3.41013 0.5 6.99996" stroke-width="1"></path><path id="Vector_2" stroke="#000000" stroke-linecap="round" stroke-linejoin="round" d="M7.56738 3.3125v2.83654h2.55292L6.43277 10.6875V7.85096H3.87988l3.6875 -4.53846Z" stroke-width="1"></path><path id="Vector_3" stroke="#000000" stroke-linecap="round" stroke-linejoin="round" d="M1.0498 9.60999c0.19895 0.46291 0.45421 0.89951 0.76 1.30001 0.28967 0.4011 0.62528 0.7669 1 1.09" stroke-width="1"></path><path id="Vector_4" stroke="#000000" stroke-linecap="round" stroke-linejoin="round" d="M13.0002 9.60999c-0.1989 0.46291 -0.4542 0.89951 -0.76 1.30001 -0.2896 0.4011 -0.6252 0.7669 -1 1.09" stroke-width="1"></path><path id="Vector_5" stroke="#000000" stroke-linecap="round" stroke-linejoin="round" d="M5.5 13.33c0.98715 0.2267 2.01285 0.2267 3 0" stroke-width="1"></path></g></svg>