<svg xmlns="http://www.w3.org/2000/svg" fill="none" viewBox="0 0 14 14"><g id="chat-bubble-disable-oval--chat-bubble-disable-oval-deny-cross"><path id="Vector 1944" stroke="#000000" stroke-linecap="round" stroke-linejoin="round" d="m0.5 0.5 13 13" stroke-width="1"></path><path id="Vector" stroke="#000000" stroke-linecap="round" stroke-linejoin="round" d="M10.8891 10.8891C11.8844 9.89378 12.5 8.51878 12.5 7c0 -3.03757 -2.4624 -5.5 -5.50001 -5.5 -1.51879 0 -2.89379 0.61561 -3.88909 1.61091" stroke-width="1"></path><path id="Vector_2" stroke="#000000" stroke-linecap="round" stroke-linejoin="round" d="M9.08928 12.0892c-0.64416 0.2647 -1.34967 0.4107 -2.08928 0.4107 -0.86678 0 -1.68674 -0.2005 -2.416 -0.5576m0 0 -3.084 0.5576 0.92143 -2.4515M4.584 11.9423l0.00446 -0.0009m-2.16703 -1.893C1.83932 9.17585 1.5 8.12752 1.5 6.99993c0 -0.73961 0.14599 -1.44512 0.41072 -2.08929m0.51071 5.13776 0.00088 -0.0023" stroke-width="1"></path></g></svg>