<svg xmlns="http://www.w3.org/2000/svg" fill="none" viewBox="0 0 14 14"><g id="chat-bubble-phone-call-oval--chat-bubble-phone-call-oval-messages-camera"><path id="Ellipse 1144" stroke="#000000" stroke-linecap="round" stroke-linejoin="round" d="M4.14472 12.8409C5.00659 13.263 5.97562 13.5 7 13.5c3.5899 0 6.5 -2.9101 6.5 -6.5C13.5 3.41015 10.5899 0.5 7 0.5 3.41015 0.5 0.5 3.41015 0.5 7c0 1.33261 0.40102 2.57155 1.08896 3.6027m2.55576 2.2382L0.5 13.5l1.08896 -2.8973m2.55576 2.2382L4.15 12.84m-2.56104 -2.2373L1.59 10.6" stroke-width="1"></path><path id="Vector" stroke="#000000" stroke-linecap="round" stroke-linejoin="round" d="M6.36682 10.4859c-0.41851 0.177 -0.8825 0.2162 -1.32477 0.1119 -0.44228 -0.1043 -0.83989 -0.3466 -1.13523 -0.69195l-0.31 -0.31c-0.13486 -0.10823 -0.22265 -0.2644 -0.24501 -0.43587 -0.02237 -0.17146 0.02243 -0.34493 0.12501 -0.48413l1 -1c0.1392 -0.10258 0.31266 -0.14737 0.48413 -0.12501 0.17146 0.02237 0.32764 0.11016 0.43587 0.24501 0.10823 0.13486 0.2644 0.22265 0.43586 0.24501 0.17147 0.02236 0.34494 -0.02243 0.48414 -0.12501l1.6 -1.6c0.10258 -0.1392 0.14737 -0.31267 0.125 -0.48413 -0.02236 -0.17146 -0.11015 -0.32764 -0.245 -0.43587 -0.13486 -0.10823 -0.22265 -0.2644 -0.24501 -0.43587 -0.02237 -0.17146 0.02243 -0.34493 0.12501 -0.48413l1 -1c0.1392 -0.10258 0.31267 -0.14737 0.48413 -0.12501 0.17146 0.02237 0.32764 0.11016 0.43587 0.24501l0.31 0.31c0.34408 0.29628 0.58548 0.69386 0.68968 1.13578 0.1042 0.44191 0.0658 0.90546 -0.1097 1.32422 -1.01399 1.69095 -2.42903 3.106 -4.11998 4.12005Z" stroke-width="1"></path></g></svg>