<svg xmlns="http://www.w3.org/2000/svg" fill="none" viewBox="0 0 14 14"><g id="chat-bubble-oval-lock---message-bubble-chat-oval-secure-password-lock-encryption"><path id="Vector 3823" stroke="#000000" stroke-linecap="round" stroke-linejoin="round" d="M4.5 9.5V7c0 -0.27614 0.22386 -0.5 0.5 -0.5h4c0.27614 0 0.5 0.22386 0.5 0.5v2.5c0 0.27614 -0.22386 0.5 -0.5 0.5H5c-0.27614 0 -0.5 -0.22386 -0.5 -0.5Z" stroke-width="1"></path><path id="Vector 3824" stroke="#000000" stroke-linecap="round" stroke-linejoin="round" d="M5.25 6.5V5.25c0 -0.9665 0.7835 -1.75 1.75 -1.75v0c0.9665 0 1.75 0.7835 1.75 1.75V6.5" stroke-width="1"></path><path id="Ellipse 1144" stroke="#000000" stroke-linecap="round" stroke-linejoin="round" d="M4.14472 12.8409C5.00659 13.263 5.97562 13.5 7 13.5c3.5899 0 6.5 -2.9101 6.5 -6.5C13.5 3.41015 10.5899 0.5 7 0.5 3.41015 0.5 0.5 3.41015 0.5 7c0 1.33261 0.40102 2.57155 1.08896 3.6027m2.55576 2.2382L0.5 13.5l1.08896 -2.8973m2.55576 2.2382L4.15 12.84m-2.56104 -2.2373L1.59 10.6" stroke-width="1"></path></g></svg>