<svg xmlns="http://www.w3.org/2000/svg" fill="none" viewBox="0 0 14 14"><g id="chat-bubble-camera-oval--chat-bubble-camera-oval-messages"><path id="Ellipse 1144" stroke="#000000" stroke-linecap="round" stroke-linejoin="round" d="M4.14472 12.8409C5.00659 13.263 5.97562 13.5 7 13.5c3.5899 0 6.5 -2.9101 6.5 -6.5C13.5 3.41015 10.5899 0.5 7 0.5 3.41015 0.5 0.5 3.41015 0.5 7c0 1.33261 0.40102 2.57155 1.08896 3.6027m2.55576 2.2382L0.5 13.5l1.08896 -2.8973m2.55576 2.2382L4.15 12.84m-2.56104 -2.2373L1.59 10.6" stroke-width="1"></path><path id="Vector" stroke="#000000" stroke-linecap="round" stroke-linejoin="round" d="M10.5 6.25c0 -0.26522 -0.1054 -0.51957 -0.2929 -0.70711C10.0196 5.35536 9.76522 5.25 9.5 5.25H9l-1 -1.5H6l-1 1.5h-0.5c-0.26522 0 -0.51957 0.10536 -0.70711 0.29289C3.60536 5.73043 3.5 5.98478 3.5 6.25v2.5c0 0.26522 0.10536 0.51957 0.29289 0.70711 0.18754 0.18753 0.44189 0.29289 0.70711 0.29289h5c0.26522 0 0.5196 -0.10536 0.7071 -0.29289 0.1875 -0.18754 0.2929 -0.44189 0.2929 -0.70711v-2.5Z" stroke-width="1"></path><g id="Group 11"><path id="Ellipse 1" stroke="#000000" stroke-linecap="round" stroke-linejoin="round" d="M7 7.625c-0.20711 0 -0.375 -0.16789 -0.375 -0.375s0.16789 -0.375 0.375 -0.375" stroke-width="1"></path><path id="Ellipse 2" stroke="#000000" stroke-linecap="round" stroke-linejoin="round" d="M7.00006 7.625c0.20711 0 0.375 -0.16789 0.375 -0.375s-0.16789 -0.375 -0.375 -0.375" stroke-width="1"></path></g></g></svg>