<svg xmlns="http://www.w3.org/2000/svg" fill="none" viewBox="0 0 14 14"><g id="chat-bubble-oval-favorite-star--chat-bubble-favorite-star-message"><path id="Ellipse 1144" stroke="#000000" stroke-linecap="round" stroke-linejoin="round" d="M4.14472 12.8409C5.00659 13.263 5.97562 13.5 7 13.5c3.5899 0 6.5 -2.9101 6.5 -6.5C13.5 3.41015 10.5899 0.5 7 0.5 3.41015 0.5 0.5 3.41015 0.5 7c0 1.33261 0.40102 2.57155 1.08896 3.6027m2.55576 2.2382L0.5 13.5l1.08896 -2.8973m2.55576 2.2382L4.15 12.84m-2.56104 -2.2373L1.59 10.6" stroke-width="1"></path><path id="Vector" stroke="#000000" stroke-linecap="round" stroke-linejoin="round" d="m7.24838 3.90277 0.83591 1.68154c0.01869 0.04252 0.04833 0.07933 0.0859 0.10665 0.03757 0.02733 0.08172 0.04419 0.12794 0.04886l1.85647 0.28188c0.0531 0.00691 0.1031 0.02878 0.1442 0.06307 0.0411 0.03428 0.0716 0.07956 0.0879 0.13054 0.0163 0.05098 0.0178 0.10554 0.0042 0.15732 -0.0135 0.05178 -0.0416 0.09863 -0.0808 0.13506L8.93964 7.81015c-0.02044 0.03899 -0.03111 0.08235 -0.03111 0.12636 0 0.04402 0.01067 0.08738 0.03111 0.12636l0.26244 1.84678c0.01119 0.05338 0.00666 0.10885 -0.01304 0.15975 -0.01971 0.0508 -0.05375 0.0949 -0.09799 0.1268 -0.04425 0.0319 -0.09679 0.0502 -0.15127 0.0529 -0.05448 0.0026 -0.10855 -0.0106 -0.15566 -0.0381l-1.65238 -0.87483c-0.04276 -0.01932 -0.08915 -0.02931 -0.13607 -0.02931 -0.04693 0 -0.09332 0.00999 -0.13608 0.02931l-1.65238 0.87483c-0.04711 0.0275 -0.10118 0.0407 -0.15565 0.0381 -0.05448 -0.0027 -0.10703 -0.021 -0.15127 -0.0529 -0.04425 -0.0319 -0.07829 -0.076 -0.09799 -0.1268 -0.01971 -0.0509 -0.02424 -0.10637 -0.01304 -0.15975l0.31103 -1.84678c0.01338 -0.04286 0.01594 -0.08837 0.00746 -0.13246 -0.00848 -0.0441 -0.02774 -0.08541 -0.05606 -0.12026l-1.3705 -1.31218c-0.03635 -0.03682 -0.06186 -0.08294 -0.07375 -0.13331 -0.01188 -0.05036 -0.00966 -0.10302 0.0064 -0.15221 0.01606 -0.04919 0.04535 -0.09301 0.08466 -0.12665 0.03932 -0.03365 0.08713 -0.05583 0.13821 -0.0641l1.85649 -0.27216c0.04622 -0.00467 0.09037 -0.02154 0.12794 -0.04886 0.03757 -0.02732 0.06721 -0.06413 0.0859 -0.10666l0.83591 -1.68153c0.02237 -0.0476 0.05761 -0.088 0.10173 -0.11662 0.04413 -0.02862 0.09538 -0.04432 0.14797 -0.04533 0.05258 -0.00101 0.1044 0.01271 0.14959 0.03961 0.0452 0.0269 0.08196 0.06591 0.10614 0.11262Z" stroke-width="1"></path></g></svg>