<svg xmlns="http://www.w3.org/2000/svg" fill="none" viewBox="0 0 14 14"><g id="chat-bubble-oval-quotation--messages-message-bubble-square-quote-quotation-text"><path id="Ellipse 1144" stroke="#000000" stroke-linecap="round" stroke-linejoin="round" d="M4.14472 12.8409C5.00659 13.263 5.97562 13.5 7 13.5c3.5899 0 6.5 -2.9101 6.5 -6.5C13.5 3.41015 10.5899 0.5 7 0.5 3.41015 0.5 0.5 3.41015 0.5 7c0 1.33261 0.40102 2.57155 1.08896 3.6027m2.55576 2.2382L0.5 13.5l1.08896 -2.8973m2.55576 2.2382L4.15 12.84m-2.56104 -2.2373L1.59 10.6" stroke-width="1"></path><path id="Vector 2308" stroke="#000000" stroke-linecap="round" stroke-linejoin="round" d="M4.5 9C5.32843 9 6 8.32843 6 7.5V7m0 0V6c0 -0.55228 -0.44772 -1 -1 -1v0c-0.55228 0 -1 0.44772 -1 1v0c0 0.55228 0.44772 1 1 1h1Z" stroke-width="1"></path><path id="Vector 2309" stroke="#000000" stroke-linecap="round" stroke-linejoin="round" d="M8.5 9c0.82843 0 1.5 -0.67157 1.5 -1.5V7m0 0V6c0 -0.55228 -0.44772 -1 -1 -1v0c-0.55228 0 -1 0.44772 -1 1v0c0 0.55228 0.44772 1 1 1h1Z" stroke-width="1"></path></g></svg>