<svg xmlns="http://www.w3.org/2000/svg" fill="none" viewBox="0 0 14 14"><g id="chat-two-bubbles-square-1--messages-message-bubble-chat-square-conversation"><path id="Vector" stroke="#000000" stroke-linecap="round" stroke-linejoin="round" d="M2.5 10.12H2l-1.5 0.38 1 -3v-6c0 -0.26522 0.10536 -0.51957 0.29289 -0.707107C1.98043 0.605357 2.23478 0.5 2.5 0.5h8c0.2652 0 0.5196 0.105357 0.7071 0.292893 0.1875 0.187537 0.2929 0.441887 0.2929 0.707107V3" stroke-width="1"></path><path id="Vector_2" stroke="#000000" stroke-linecap="round" stroke-linejoin="round" d="m10 12.5 3.5 1 -0.5 -3v-4c0 -0.26522 -0.1054 -0.51957 -0.2929 -0.70711C12.5196 5.60536 12.2652 5.5 12 5.5H6c-0.26522 0 -0.51957 0.10536 -0.70711 0.29289C5.10536 5.98043 5 6.23478 5 6.5v5c0 0.2652 0.10536 0.5196 0.29289 0.7071 0.18754 0.1875 0.44189 0.2929 0.70711 0.2929h4Z" stroke-width="1"></path></g></svg>