<svg xmlns="http://www.w3.org/2000/svg" fill="none" viewBox="0 0 14 14"><g id="chat-bubble-oval-warning--bubble-oval-messages-notification-chat-message-warning-alert"><path id="Ellipse 1144" stroke="#000000" stroke-linecap="round" stroke-linejoin="round" d="M4.14472 12.8409C5.00659 13.263 5.97562 13.5 7 13.5c3.5899 0 6.5 -2.9101 6.5 -6.5C13.5 3.41015 10.5899 0.5 7 0.5 3.41015 0.5 0.5 3.41015 0.5 7c0 1.33261 0.40102 2.57155 1.08896 3.6027m2.55576 2.2382L0.5 13.5l1.08896 -2.8973m2.55576 2.2382L4.15 12.84m-2.56104 -2.2373L1.59 10.6" stroke-width="1"></path><path id="Vector" stroke="#000000" stroke-linecap="round" stroke-linejoin="round" d="M7 3.5V7" stroke-width="1"></path><g id="Group 4482"><path id="Vector_2" stroke="#000000" stroke-linecap="round" stroke-linejoin="round" d="M7 9.75c-0.13807 0 -0.25 -0.11193 -0.25 -0.25s0.11193 -0.25 0.25 -0.25" stroke-width="1"></path><path id="Vector_3" stroke="#000000" stroke-linecap="round" stroke-linejoin="round" d="M7 9.75c0.13807 0 0.25 -0.11193 0.25 -0.25s-0.11193 -0.25 -0.25 -0.25" stroke-width="1"></path></g></g></svg>