<svg xmlns="http://www.w3.org/2000/svg" fill="none" viewBox="0 0 14 14"><g id="chat-two-bubbles-square-2--messages-message-bubble-chat-square-conversation"><path id="Vector" stroke="#000000" stroke-linecap="round" stroke-linejoin="round" d="M11.5 10.12h0.5l1.5 0.38 -1 -3v-6c0 -0.26522 -0.1054 -0.51957 -0.2929 -0.707107C12.0196 0.605357 11.7652 0.5 11.5 0.5h-8c-0.26522 0 -0.51957 0.105357 -0.70711 0.292893C2.60536 0.98043 2.5 1.23478 2.5 1.5V3" stroke-width="1"></path><path id="Vector_2" stroke="#000000" stroke-linecap="round" stroke-linejoin="round" d="m4 12.5 -3.5 1 0.5 -3v-4c0 -0.26522 0.10536 -0.51957 0.29289 -0.70711C1.48043 5.60536 1.73478 5.5 2 5.5h6c0.26522 0 0.51957 0.10536 0.70711 0.29289C8.89464 5.98043 9 6.23478 9 6.5v5c0 0.2652 -0.10536 0.5196 -0.29289 0.7071 -0.18754 0.1875 -0.44189 0.2929 -0.70711 0.2929H4Z" stroke-width="1"></path></g></svg>