<svg xmlns="http://www.w3.org/2000/svg" fill="none" viewBox="0 0 14 14"><g id="chat-bubble-square-protect--messages-message-bubble-chat-square-protect"><path id="Vector" stroke="#000000" stroke-linecap="round" stroke-linejoin="round" d="m4.5 12.5 -4 1 1 -3v-9c0 -0.26522 0.10536 -0.51957 0.29289 -0.707107C1.98043 0.605357 2.23478 0.5 2.5 0.5h10c0.2652 0 0.5196 0.105357 0.7071 0.292893 0.1875 0.187537 0.2929 0.441887 0.2929 0.707107v10c0 0.2652 -0.1054 0.5196 -0.2929 0.7071s-0.4419 0.2929 -0.7071 0.2929h-8Z" stroke-width="1"></path><path id="Vector 3703" stroke="#000000" stroke-linecap="round" stroke-linejoin="round" d="M10 3.75H5c-0.27614 0 -0.5 0.22386 -0.5 0.5v1.33772c0 1.88848 1.20843 3.56509 3 4.16228 1.79157 -0.59719 3 -2.2738 3 -4.16228V4.25c0 -0.27614 -0.2239 -0.5 -0.5 -0.5Z" stroke-width="1"></path></g></svg>