<svg xmlns="http://www.w3.org/2000/svg" fill="none" viewBox="0 0 14 14"><g id="cheese--cook-cheese-animal-products-cooking-nutrition-dairy-food"><path id="Ellipse 1818" stroke="#000000" stroke-linecap="round" stroke-linejoin="round" d="M7.5 9.5a1.5 1.5 0 1 0 3 0 1.5 1.5 0 1 0 -3 0" stroke-width="1"></path><path id="Ellipse 1819" stroke="#000000" stroke-linecap="round" stroke-linejoin="round" d="M3.82291 13c0.41521 -0.3665 0.67709 -0.9027 0.67709 -1.5 0 -1.1046 -0.89543 -2 -2 -2 -0.59735 0 -1.13353 0.26188 -1.5 0.6771V12c0 0.5523 0.44772 1 1 1h1.82291Z" stroke-width="1"></path><path id="Vector 3061" stroke="#000000" stroke-linecap="round" stroke-linejoin="round" d="M8.5 1 1 6v6c0 0.5523 0.44772 1 1 1h10c0.5523 0 1 -0.4477 1 -1V6c0 -2.5 -2 -5 -4.5 -5Z" stroke-width="1"></path><path id="Vector 3062" stroke="#000000" stroke-linecap="round" stroke-linejoin="round" d="M1 6h12" stroke-width="1"></path></g></svg>