<svg xmlns="http://www.w3.org/2000/svg" fill="none" viewBox="0 0 14 14"><g id="chess-queen-1"><path id="Rectangle 56" stroke="#000000" stroke-linecap="round" stroke-linejoin="round" d="M2.88709 11.485c0.11841 -0.3553 0.45084 -0.5949 0.82528 -0.5949l6.57523 0c0.3744 0 0.7068 0.2396 0.8253 0.5949l0.6716 2.0149H2.21545l0.67164 -2.0149Z" stroke-width="1"></path><path id="Vector 974" stroke="#000000" stroke-linecap="round" stroke-linejoin="round" d="M5.65223 6.17784 3.2262 5.0339l1.52141 3.83656 -0.27349 2.01994h5.05169l-0.27336 -2.01994L10.7739 5.0339 8.34783 6.17784l-1.3478 -1.52525 -1.3478 1.52525Z" stroke-width="1"></path><path id="Ellipse 50" stroke="#000000" stroke-linecap="round" stroke-linejoin="round" d="M9.94986 5.43203c0 -1.5461 -1.32067 -2.79946 -2.94979 -2.79946 -1.62911 0 -2.94978 1.25336 -2.94978 2.79946" stroke-width="1"></path><path id="Vector" stroke="#000000" stroke-linecap="round" stroke-linejoin="round" d="M5.93359 1.56635c0 0.58892 0.47742 1.06634 1.06635 1.06634s1.06628 -0.47742 1.06628 -1.06634C8.06622 0.977419 7.58887 0.5 6.99994 0.5S5.93359 0.977419 5.93359 1.56635Z" stroke-width="1"></path></g></svg>