<svg width="14" height="14" viewBox="0 0 14 14" fill="none" xmlns="http://www.w3.org/2000/svg">
<path d="M7.04711 13.234C10.4641 13.234 13.2341 10.464 13.2341 7.04699C13.2341 3.63 10.4641 0.859985 7.04711 0.859985C3.63012 0.859985 0.860107 3.63 0.860107 7.04699C0.860107 10.464 3.63012 13.234 7.04711 13.234Z" stroke="#01040B" stroke-linecap="round" stroke-linejoin="round"/>
<path d="M7.04688 4.6152H12.7384" stroke="#01040B" stroke-linecap="round" stroke-linejoin="round"/>
<path d="M7.04599 9.47699C8.38859 9.47699 9.47699 8.38859 9.47699 7.04599C9.47699 5.70339 8.38859 4.61499 7.04599 4.61499C5.70339 4.61499 4.61499 5.70339 4.61499 7.04599C4.61499 8.38859 5.70339 9.47699 7.04599 9.47699Z" stroke="#01040B" stroke-linecap="round" stroke-linejoin="round"/>
<path d="M4.93318 8.26423L2.0874 3.33521" stroke="#01040B" stroke-linecap="round" stroke-linejoin="round"/>
<path d="M9.14803 8.25851L6.30225 13.1876" stroke="#01040B" stroke-linecap="round" stroke-linejoin="round"/>
</svg>
