<svg xmlns="http://www.w3.org/2000/svg" fill="none" viewBox="0 0 14 14"><g id="clapping"><path id="Vector 2007" stroke="#000000" stroke-linecap="round" stroke-linejoin="round" d="m3.5 0.5 0 1" stroke-width="1"></path><path id="Vector 2008" stroke="#000000" stroke-linecap="round" stroke-linejoin="round" d="m5.5 2 0.5 -0.5" stroke-width="1"></path><path id="Vector 2009" stroke="#000000" stroke-linecap="round" stroke-linejoin="round" d="M1.5 2 1 1.5" stroke-width="1"></path><path id="Vector" stroke="#000000" stroke-linecap="round" stroke-linejoin="round" d="m13.2882 9.94532 0.1149 -0.57443c0.1188 -0.59415 0.1286 -1.20495 0.029 -1.80261l-0.3147 -1.88777c-0.0738 -0.44275 -0.4258 -0.78671 -0.8702 -0.85019 -0.6664 -0.0952 -1.2435 0.46416 -1.1692 1.13328l0.1479 1.33018 -3.68286 -3.68254c-0.40678 -0.40678 -1.0663 -0.40678 -1.47308 0 -0.40677 0.40677 -0.40677 1.06629 0 1.47307l-0.88384 -0.88384c-0.40678 -0.40678 -1.0663 -0.40678 -1.47308 0 -0.40678 0.40678 -0.40678 1.06629 0 1.47307l1.47308 1.47308c-0.40678 -0.40678 -1.0663 -0.40678 -1.47308 0 -0.40677 0.40678 -0.40677 1.06629 0 1.47307l4.37302 4.37301c0.31255 0.3126 0.73645 0.4881 1.17846 0.4881l0.48813 0" stroke-width="1"></path><path id="Vector_2" stroke="#000000" stroke-linecap="round" stroke-linejoin="round" d="m5.18604 7.14697 1.91499 1.915" stroke-width="1"></path><path id="Vector_3" stroke="#000000" stroke-linecap="round" stroke-linejoin="round" d="m6.07007 5.08447 2.20961 2.20962" stroke-width="1"></path><path id="Vector_4" stroke="#000000" stroke-linecap="round" stroke-linejoin="round" d="m2.42038 6.16434 -0.4354 -0.43539c-0.33976 -0.33977 -0.89063 -0.33977 -1.230399 0 -0.339767 0.33976 -0.339767 0.89063 -0.000001 1.2304l1.2304 1.2304c-0.33976 -0.33976 -0.89063 -0.33976 -1.230399 0 -0.339766 0.33977 -0.339766 0.89064 0 1.2304L4.40719 13.0728c0.26106 0.261 0.61513 0.4077 0.98432 0.4077l0.40772 0" stroke-width="1"></path></g></svg>