<svg xmlns="http://www.w3.org/2000/svg" fill="none" viewBox="0 0 14 14"><g id="cleaning-room-woman"><path id="Rectangle 322" stroke="#000000" stroke-linecap="round" stroke-linejoin="round" d="M9.81395 10.9884C9.92024 10.1381 10.6431 9.5 11.5 9.5v0c0.8569 0 1.5798 0.6381 1.6861 1.4884L13.5 13.5h-4l0.31395 -2.5116Z" stroke-width="1"></path><path id="Vector 650" stroke="#000000" stroke-linecap="round" stroke-linejoin="round" d="M11.5 9.5v-9" stroke-width="1"></path><path id="Vector 4945" stroke="#000000" stroke-linecap="round" stroke-linejoin="round" d="m2.5 13.5 -0.25 -3.25H0.999997c-0.276141 0 -0.500671 -0.2226 -0.488067 -0.49848C0.602412 7.77122 1.25363 4 4 4c2.74637 0 3.39758 3.77122 3.48807 5.75152 0.0126 0.27588 -0.21193 0.49848 -0.48807 0.49848H5.75L5.5 13.5h-3Z" stroke-width="1"></path><path id="Vector" stroke="#000000" stroke-linecap="round" stroke-linejoin="round" d="M4 4c0.9665 0 1.75 -0.7835 1.75 -1.75S4.9665 0.5 4 0.5s-1.75 0.7835 -1.75 1.75S3.0335 4 4 4Z" stroke-width="1"></path></g></svg>