<svg xmlns="http://www.w3.org/2000/svg" fill="none" viewBox="0 0 14 14"><g id="clock-24-hours--clock-24-twentyfour-hours-time-reset-stopwatch-circle-measure"><path id="vector 7" stroke="#000000" stroke-linecap="round" stroke-linejoin="round" d="M10.2424 7.88891H7.49451c-0.11896 0 -0.2154 -0.09644 -0.2154 -0.2154v0c0 -0.05218 0.01894 -0.10258 0.0533 -0.14184l1.96011 -2.24014c0.03871 -0.04423 0.09463 -0.06961 0.15341 -0.06961v0c0.11257 0 0.20383 0.09126 0.20383 0.20384v3.35213" stroke-width="1"></path><path id="vector 3" stroke="#000000" stroke-linecap="round" stroke-linejoin="round" d="M6.12828 8.7779H3.75763v-0.50514c0 -0.35319 0.20909 -0.67289 0.53267 -0.81445l1.31913 -0.57712c0.31519 -0.1379 0.51885 -0.4493 0.51885 -0.79333 0 -0.47825 -0.38769 -0.86594 -0.86593 -0.86594h-0.61573c-0.38707 0 -0.71637 0.24738 -0.83841 0.59267" stroke-width="1"></path><path id="Ellipse 1524" stroke="#000000" stroke-linecap="round" stroke-linejoin="round" d="M13.0018 4.5C12.0223 2.15105 9.70395 0.5 7 0.5 3.41015 0.5 0.5 3.41015 0.5 7c0 3.5899 2.91015 6.5 6.5 6.5 3.0736 0 5.6489 -2.1333 6.3261 -5" stroke-width="1"></path><path id="Vector" stroke="#000000" stroke-linecap="round" stroke-linejoin="round" d="M13.5 2v2.5H11" stroke-width="1"></path></g></svg>