<svg xmlns="http://www.w3.org/2000/svg" fill="none" viewBox="0 0 14 14"><g id="cloud-globe--cloud-internet-server-network-globe-world"><path id="Vector" stroke="#000000" stroke-linecap="round" stroke-linejoin="round" d="M1.5 13.5c0 -1.4587 0.57946 -2.8576 1.61091 -3.88909C4.14236 8.57946 5.5413 8 6.99999 8c1.45869 0 2.85763 0.57946 3.88911 1.61091C11.9205 10.6424 12.5 12.0413 12.5 13.5" stroke-width="1"></path><path id="Vector_2" stroke="#000000" stroke-linecap="round" stroke-linejoin="round" d="M8.09998 8.11001V10.431c0.00962 0.2454 0.0937 0.4821 0.24106 0.6786 0.14737 0.1965 0.35103 0.3434 0.58393 0.4214 0.23291 0.078 0.43657 0.2249 0.58393 0.4214 0.14736 0.1965 0.23145 0.4332 0.24107 0.6786v0.781" stroke-width="1"></path><path id="Vector_3" stroke="#000000" stroke-linecap="round" stroke-linejoin="round" d="M1.96204 11.3h1.18799c0.58348 0 1.14306 0.2318 1.55563 0.6444 0.41258 0.4125 0.64437 0.9721 0.64437 1.5556" stroke-width="1"></path><path id="Vector_4" stroke="#000000" stroke-linecap="round" stroke-linejoin="round" d="M9.73163 2.81663c-0.028 -0.00836 -0.05302 -0.02455 -0.07212 -0.04666 -0.01909 -0.02211 -0.03147 -0.04923 -0.03566 -0.07814 -0.05011 -0.54918 -0.28697 -1.06458 -0.67109 -1.46025 -0.38412 -0.395671 -0.89228 -0.6477 -1.43973 -0.714058C6.96558 0.451165 6.41193 0.57449 5.9444 0.866933c-0.46752 0.292447 -0.82066 0.736327 -1.00053 1.257627 -0.0119 0.02431 -0.03051 0.0447 -0.05363 0.05877 -0.02312 0.01407 -0.04978 0.02124 -0.07684 0.02065 -0.26073 0.0175 -0.51546 0.08619 -0.74965 0.20214 -0.23419 0.11596 -0.44324 0.2769 -0.61523 0.47364 -0.34734 0.39735 -0.52261 0.9164 -0.48726 1.44297 0.03536 0.52657 0.27844 1.01753 0.67579 1.36488 0.39734 0.34734 0.91639 0.52261 1.44297 0.48726h4.27154c0.41645 -0.00249 0.81754 -0.1576 1.12724 -0.43596 0.3098 -0.27835 0.5068 -0.66063 0.5536 -1.07444 0.0468 -0.41381 -0.0597 -0.83044 -0.2994 -1.17098 -0.2397 -0.34054 -0.596 -0.58136 -1.00137 -0.67686Z" stroke-width="1"></path></g></svg>