<svg xmlns="http://www.w3.org/2000/svg" fill="none" viewBox="0 0 14 14"><g id="cloud--cloud-internet-server-network"><path id="Vector" stroke="#000000" stroke-linecap="round" stroke-linejoin="round" d="M11.3915 6.15913c-0.045 -0.01343 -0.0852 -0.03945 -0.1159 -0.075 -0.0308 -0.03555 -0.0506 -0.07914 -0.0574 -0.12563 -0.0805 -0.88287 -0.4613 -1.71145 -1.0789 -2.34754 -0.61748 -0.6361 -1.43441 -1.04127 -2.31451 -1.14795 -0.8801 -0.10668 -1.77017 0.09158 -2.52179 0.56172 -0.75161 0.47014 -1.31933 1.18375 -1.60849 2.02181 -0.01913 0.03907 -0.04905 0.07186 -0.08622 0.09448 -0.03717 0.02263 -0.08003 0.03414 -0.12353 0.03319 -0.41917 0.02814 -0.82868 0.13857 -1.20517 0.32498 -0.37648 0.18641 -0.71257 0.44515 -0.98906 0.76144C0.732129 6.89942 0.450354 7.73386 0.507193 8.5804c0.056839 0.84654 0.447636 1.6358 1.086417 2.1942 0.63879 0.5584 1.47323 0.8402 2.31977 0.7834h6.86712c0.6695 -0.004 1.3143 -0.2534 1.8122 -0.7009 0.498 -0.4475 0.8146 -1.06205 0.8899 -1.72731 0.0753 -0.66526 -0.0959 -1.33503 -0.4813 -1.8825 -0.3854 -0.54747 -0.9581 -0.93463 -1.6098 -1.08816Z" stroke-width="1"></path></g></svg>