<svg xmlns="http://www.w3.org/2000/svg" fill="none" viewBox="0 0 14 14"><g id="clouds--clouds-meteorology-cloudy-overcast-cover-weather"><path id="Union" stroke="#000000" stroke-linecap="round" stroke-linejoin="round" d="M7.94999 9H8.25c0.9665 0 1.75 0.7835 1.75 1.75s-0.7835 1.75 -1.75 1.75h-5.5c-0.9665 0 -1.75 -0.7835 -1.75 -1.75S1.7835 9 2.75 9h0.30001C3.28164 7.85888 4.29052 7 5.5 7s2.21836 0.85888 2.44999 2Z" stroke-width="1"></path><path id="Vector" stroke="#000000" stroke-linecap="round" stroke-linejoin="round" d="M0.699805 7.32602C0.480327 6.61429 0.440308 5.85689 0.586468 5.1221c0.173634 -0.87292 0.602222 -1.67474 1.231552 -2.30408 0.62934 -0.62934 1.43116 -1.05792 2.30408 -1.23155 0.87291 -0.17364 1.77771 -0.08452 2.59998 0.25607 0.82226 0.3406 1.52507 0.91737 2.01954 1.6574C9.23608 4.23996 9.5 5.10999 9.5 6c0.43308 -0.32391 0.9592 -0.49928 1.5 -0.5 0.663 0 1.2989 0.26339 1.7678 0.73223C13.2366 6.70108 13.5 7.33696 13.5 8c0 0.66304 -0.2634 1.29893 -0.7322 1.76777 -0.1702 0.17021 -0.3625 0.31333 -0.57 0.42663" stroke-width="1"></path></g></svg>