<svg xmlns="http://www.w3.org/2000/svg" fill="none" viewBox="0 0 14 14"><g id="cloud-off--cloud-network-internet-disable-server-off"><path id="Vector" stroke="#000000" stroke-linecap="round" stroke-linejoin="round" d="M8.78048 11.558h-4.8671c-0.84654 0.0568 -1.68098 -0.225 -2.31977 -0.7834C0.954829 10.2162 0.564032 9.42694 0.507193 8.5804c-0.056839 -0.84654 0.224936 -1.68098 0.783337 -2.31977 0.27649 -0.31629 0.61258 -0.57503 0.98906 -0.76144 0.11616 -0.05751 0.23546 -0.10779 0.35722 -0.15065M4.14265 4.1471c0.30167 -0.44837 0.6959 -0.83185 1.16035 -1.12237 0.75162 -0.47014 1.64169 -0.6684 2.52179 -0.56172 0.8801 0.10668 1.69703 0.51185 2.31451 1.14795 0.6176 0.63609 0.9984 1.46467 1.0789 2.34754 0.0068 0.04649 0.0266 0.09008 0.0574 0.12563 0.0307 0.03555 0.0709 0.06157 0.1159 0.075 0.6517 0.15353 1.2244 0.54069 1.6098 1.08816 0.3854 0.54747 0.5566 1.21724 0.4813 1.8825 -0.0753 0.66526 -0.3919 1.27981 -0.8899 1.72731 -0.3231 0.2903 -0.708 0.4973 -1.1213 0.6079" stroke-width="1"></path><path id="Vector 1859" stroke="#000000" stroke-linecap="round" stroke-linejoin="round" d="m0.5 0.5 13 13" stroke-width="1"></path></g></svg>