<svg xmlns="http://www.w3.org/2000/svg" fill="none" viewBox="0 0 14 14"><g id="clover--nature-plant-leaf-tree-flower-luck-lucky"><path id="Vector" stroke="#000000" stroke-linecap="round" stroke-linejoin="round" d="M7 7.89001V13" stroke-width="1"></path><path id="Union" stroke="#000000" stroke-linecap="round" stroke-linejoin="round" d="M7 7.89344 3.88884 10.5898c-0.66086 0.6608 -1.73233 0.6608 -2.39319 0 -0.660866 -0.66089 -0.660865 -1.73235 0 -2.39322l0.71795 -0.71795 -0.71795 -0.71796c-0.660865 -0.66086 -0.660866 -1.73233 0 -2.39319 0.66086 -0.66087 1.73233 -0.66087 2.39319 0l1.6668 1.44456 -1.66677 -1.9232c-0.66086 -0.66086 -0.66086 -1.73233 0 -2.39319 0.66086 -0.660866 1.73233 -0.660865 2.39319 0l0.71796 0.71795 0.71795 -0.71795c0.66087 -0.660865 1.73234 -0.660866 2.39323 0 0.6608 0.66086 0.6608 1.73233 0 2.39319L8.4445 5.81191l1.6667 -1.44443c0.6608 -0.66087 1.7323 -0.66087 2.3932 0 0.6608 0.66086 0.6608 1.73233 0 2.39319l-0.718 0.71796 0.718 0.71795c0.6608 0.66086 0.6608 1.73233 0 2.39322 -0.6609 0.6608 -1.7324 0.6608 -2.3932 0L7 7.89344Z" stroke-width="1"></path></g></svg>