<svg xmlns="http://www.w3.org/2000/svg" fill="none" viewBox="0 0 14 14"><g id="cog-double--work-loading-cog-double-gear-settings-machine"><path id="Vector" stroke="#000000" stroke-linecap="round" stroke-linejoin="round" d="m3.60187 5.21558 -0.28821 0.74398 -0.99197 0.563 -0.79089 -0.12064c-0.13169 -0.01788 -0.26573 0.0038 -0.38507 0.06228 -0.11934 0.05848 -0.218607 0.15112 -0.285178 0.26614l-0.2681 0.46918c-0.068699 0.11685 -0.100351 0.25179 -0.090778 0.38701 0.009573 0.13522 0.05992 0.26435 0.144398 0.37037l0.502688 0.62333v1.12601l-0.489283 0.62336c-0.084478 0.106 -0.134825 0.2351 -0.144398 0.3703 -0.009573 0.1353 0.022079 0.2702 0.090778 0.3871l0.2681 0.4691c0.066571 0.1151 0.165833 0.2077 0.285183 0.2662 0.11934 0.0584 0.25337 0.0801 0.38506 0.0623l0.7909 -0.1207 0.97856 0.563 0.28821 0.744c0.0486 0.126 0.13412 0.2343 0.24534 0.3108 0.11123 0.0766 0.24297 0.1178 0.37799 0.1181h0.56301c0.13501 -0.0003 0.26676 -0.0415 0.37798 -0.1181 0.11123 -0.0765 0.19674 -0.1848 0.24535 -0.3108l0.2882 -0.744 0.97857 -0.563 0.79089 0.1207c0.13169 0.0178 0.26573 -0.0039 0.38507 -0.0623 0.11934 -0.0585 0.21861 -0.1511 0.28518 -0.2662l0.2681 -0.4691c0.0687 -0.1169 0.10035 -0.2518 0.09078 -0.3871 -0.00958 -0.1352 -0.05992 -0.2643 -0.1444 -0.3703l-0.50269 -0.62336V8.58023l0.48928 -0.62333c0.08448 -0.10602 0.13483 -0.23515 0.1444 -0.37037 0.00957 -0.13522 -0.02208 -0.27016 -0.09078 -0.38701l-0.2681 -0.46918c-0.06657 -0.11502 -0.16583 -0.20766 -0.28517 -0.26614 -0.11935 -0.05848 -0.25338 -0.08016 -0.38507 -0.06228l-0.7909 0.12064 -0.97856 -0.563 -0.28821 -0.74398c-0.0486 -0.12596 -0.13412 -0.23431 -0.24534 -0.31085 -0.11123 -0.07654 -0.24297 -0.11771 -0.37799 -0.11811h-0.5496c-0.13502 0.0004 -0.26676 0.04157 -0.37799 0.11811 -0.11122 0.07654 -0.19674 0.18489 -0.24534 0.31085Z" stroke-width="1"></path><path id="Vector_2" stroke="#000000" stroke-linecap="round" stroke-linejoin="round" d="M3.46066 9.83777C3.32331 9.63221 3.25 9.39054 3.25 9.14331c0 -0.33152 0.1317 -0.64946 0.36612 -0.88388 0.23442 -0.23442 0.55236 -0.36612 0.88388 -0.36612 0.24723 0 0.4889 0.07331 0.69446 0.21066 0.20556 0.13736 0.36578 0.33258 0.46039 0.56099 0.09461 0.2284 0.11936 0.47974 0.07113 0.72221 -0.04823 0.24248 -0.16728 0.46521 -0.3421 0.64003 -0.17481 0.1748 -0.39754 0.2939 -0.64002 0.3421 -0.24247 0.0482 -0.49381 0.0235 -0.72221 -0.0711 -0.22841 -0.0947 -0.42364 -0.2549 -0.56099 -0.46043Z" stroke-width="1"></path><path id="Vector_3" stroke="#000000" stroke-linecap="round" stroke-linejoin="round" d="m10.4387 0.768099 -0.1802 0.464981 -0.61994 0.35188 -0.49431 -0.0754c-0.08231 -0.01117 -0.16608 0.00238 -0.24067 0.03893 -0.07459 0.03655 -0.13663 0.09444 -0.17824 0.16634l-0.16756 0.29323c-0.04293 0.07303 -0.06272 0.15737 -0.05673 0.24188 0.00598 0.08451 0.03745 0.16522 0.09025 0.23148l0.31417 0.38958v0.70376l-0.3058 0.38959c-0.0528 0.06625 -0.08426 0.14696 -0.09025 0.23147 -0.00598 0.08451 0.0138 0.16885 0.05674 0.24189l0.16756 0.29323c0.04161 0.07189 0.10365 0.12979 0.17824 0.16634s0.15836 0.0501 0.24067 0.03893l0.49431 -0.07541 0.61156 0.35188 0.1802 0.46499c0.0303 0.07873 0.0838 0.14644 0.1533 0.19428 0.0695 0.04784 0.1519 0.07357 0.2362 0.07382h0.3519c0.0844 -0.00025 0.1668 -0.02598 0.2363 -0.07382 0.0695 -0.04784 0.1229 -0.11555 0.1533 -0.19428l0.1801 -0.46499 0.6116 -0.35188 0.4944 0.07541c0.0823 0.01117 0.166 -0.00238 0.2406 -0.03893s0.1366 -0.09445 0.1783 -0.16634l0.1675 -0.29323c0.043 -0.07304 0.0627 -0.15738 0.0568 -0.24189 -0.006 -0.08451 -0.0375 -0.16522 -0.0903 -0.23147l-0.3142 -0.38959V2.871l0.3058 -0.38958c0.0528 -0.06626 0.0843 -0.14697 0.0903 -0.23148 0.006 -0.08451 -0.0138 -0.16885 -0.0568 -0.24188l-0.1675 -0.29323c-0.0416 -0.0719 -0.1037 -0.12979 -0.1783 -0.16634 -0.0745 -0.03655 -0.1583 -0.0501 -0.2406 -0.03893l-0.4943 0.0754 -0.6116 -0.35188 -0.1802 -0.464981c-0.0303 -0.078727 -0.0838 -0.146444 -0.1533 -0.194283C11.3385 0.525978 11.2561 0.500249 11.1718 0.5h-0.3436c-0.0843 0.000249 -0.1667 0.025978 -0.2362 0.073816 -0.0695 0.047839 -0.123 0.115556 -0.1533 0.194283Z" stroke-width="1"></path><g id="Group 4624"><path id="Vector_4" stroke="#000000" stroke-linecap="round" stroke-linejoin="round" d="M11 3.4729c-0.1381 0 -0.25 -0.11193 -0.25 -0.25s0.1119 -0.25 0.25 -0.25" stroke-width="1"></path><path id="Vector_5" stroke="#000000" stroke-linecap="round" stroke-linejoin="round" d="M11 3.4729c0.1381 0 0.25 -0.11193 0.25 -0.25s-0.1119 -0.25 -0.25 -0.25" stroke-width="1"></path></g></g></svg>