<svg xmlns="http://www.w3.org/2000/svg" fill="none" viewBox="0 0 14 14"><g id="cog-automation"><path id="Vector" stroke="#000000" stroke-linecap="round" stroke-linejoin="round" stroke-miterlimit="10" d="m5.16304 2.28988 0.47101 -1.13045C5.82246 0.78262 6.10507 0.5 6.57608 0.5h0.84782c0.37681 0 0.75363 0.28262 0.94203 0.65943l0.47102 1.13045 1.41305 0.84779 1.2246 -0.18842c0.3769 -0.0942 0.8479 0.09421 1.0363 0.47102l0.3768 0.65943c0.1884 0.37681 0.1884 0.75364 -0.0942 1.13045l-0.7537 0.94203v1.69564l0.7537 0.94203c0.2826 0.28261 0.2826 0.75364 0.0942 1.13045l-0.3768 0.6594c-0.1884 0.3768 -0.5652 0.5652 -1.0363 0.471l-1.2246 -0.1884 -1.41305 0.8479 -0.47102 1.1304c-0.1884 0.3768 -0.47101 0.6594 -0.94203 0.6594h-0.84782c-0.37681 0 -0.75362 -0.2826 -0.94203 -0.6594l-0.47101 -1.1304 -1.41305 -0.8479 -1.22463 0.1884c-0.37681 0.0942 -0.84783 -0.0942 -1.03623 -0.471l-0.37681 -0.6594c-0.188406 -0.37681 -0.188429 -0.75364 0.09418 -1.13045l0.75364 -0.94203V6.15218l-0.75364 -0.94203c-0.282609 -0.28261 -0.282586 -0.75364 -0.09418 -1.13045l0.37681 -0.65943c0.1884 -0.37681 0.56522 -0.56522 1.03623 -0.47102l1.22463 0.18842 1.41305 -0.84779Z" stroke-width="1"></path><path id="Vector 382" stroke="#000000" stroke-linecap="round" stroke-linejoin="round" d="M8.95302 6.14397 6.58938 4.88005C5.98307 4.55583 5.25 4.99513 5.25 5.68268l0 2.59538c0 0.69638 0.75016 1.1348 1.35689 0.79302l2.36364 -1.33146c0.62577 -0.3525 0.61584 -1.25697 -0.01751 -1.59565Z" stroke-width="1"></path></g></svg>