<svg xmlns="http://www.w3.org/2000/svg" fill="none" viewBox="0 0 14 14"><g id="coin--accounting-billing-payment-cash-coin-currency-money-finance"><path id="Ellipse 19" stroke="#000000" stroke-linecap="round" stroke-linejoin="round" d="M7.08301 0.874998C10.4658 0.874998 13.208 3.61725 13.208 7c0 3.3827 -2.7422 6.125 -6.12499 6.125C3.70026 13.125 0.958008 10.3827 0.958009 7c0 -3.38275 2.742251 -6.125003 6.125001 -6.125002Z" stroke-width="1"></path><path id="Ellipse 21" stroke="#000000" stroke-linecap="round" stroke-linejoin="round" d="M7.08268 2.91655c2.2552 0.00001 4.08342 1.82821 4.08342 4.08342 0 2.2552 -1.82822 4.08343 -4.08342 4.08343 -2.25521 0 -4.08341 -1.82823 -4.08341 -4.08344 0 -2.2552 1.8282 -4.08341 4.08341 -4.08341Z" stroke-width="1"></path><path id="Ellipse 22" stroke="#000000" stroke-linecap="round" stroke-linejoin="round" d="M7.08301 4.97945c1.11591 0 2.02054 0.90463 2.02054 2.02055" stroke-width="1"></path></g></svg>