<svg xmlns="http://www.w3.org/2000/svg" fill="none" viewBox="0 0 14 14"><g id="comb--comb-hair-care-beauty-fashion"><path id="Vector 3181" stroke="#000000" stroke-linecap="round" stroke-linejoin="round" d="M3.58579 1.41421 1.25 3.75c-0.414214 0.41421 -0.414213 1.08579 0 1.5 0.41421 0.41421 1.08579 0.41421 1.5 0l1.54289 -1.54289c0.39053 -0.39053 1.02369 -0.39053 1.41422 0l4.58579 4.58578c0.3905 0.39053 0.3905 1.02369 0 1.41422L8.75 11.25c-0.41421 0.4142 -0.41421 1.0858 0 1.5 0.41421 0.4142 1.08579 0.4142 1.5 0l2.3358 -2.3358c0.781 -0.78103 0.781 -2.04736 0 -2.82841L6.41421 1.41421c-0.78105 -0.781045 -2.04737 -0.781046 -2.82842 0Z" stroke-width="1"></path><path id="Vector 3182" stroke="#000000" stroke-linecap="round" stroke-linejoin="round" d="m4 7 2.5 -2.5" stroke-width="1"></path><path id="Vector 3183" stroke="#000000" stroke-linecap="round" stroke-linejoin="round" d="m7 10 2.5 -2.5" stroke-width="1"></path><path id="Vector 3184" stroke="#000000" stroke-linecap="round" stroke-linejoin="round" d="M5.5 8.5 8 6" stroke-width="1"></path></g></svg>