<svg xmlns="http://www.w3.org/2000/svg" fill="none" viewBox="0 0 14 14"><g id="command-square--mac-command-apple-keyboard"><path id="Vector" stroke="#000000" stroke-linecap="round" stroke-linejoin="round" d="M12.0769 1H1.92308C1.41328 1 1 1.41328 1 1.92308V12.0769c0 0.5098 0.41328 0.9231 0.92308 0.9231H12.0769c0.5098 0 0.9231 -0.4133 0.9231 -0.9231V1.92308C13 1.41328 12.5867 1 12.0769 1Z" stroke-width="1"></path><path id="Vector 2456" stroke="#000000" stroke-linecap="round" stroke-linejoin="round" d="M5 5V4c0 -0.55228 -0.44772 -1 -1 -1s-1 0.44772 -1 1 0.44772 1 1 1h1Zm0 0v4m0 -4h4M5 9v1c0 0.5523 -0.44772 1 -1 1s-1 -0.4477 -1 -1c0 -0.55228 0.44772 -1 1 -1h1Zm0 0h4m0 0h1c0.5523 0 1 0.44772 1 1 0 0.5523 -0.4477 1 -1 1 -0.55228 0 -1 -0.4477 -1 -1V9Zm0 0V5m0 0V4c0 -0.55228 0.44772 -1 1 -1 0.5523 0 1 0.44772 1 1s-0.4477 1 -1 1H9Z" stroke-width="1"></path></g></svg>