<svg xmlns="http://www.w3.org/2000/svg" fill="none" viewBox="0 0 14 14"><g id="compare-arrow"><path id="Vector 4024" stroke="#000000" stroke-linecap="round" stroke-linejoin="round" d="M6 1H2c-0.55228 0 -1 0.44772 -1 1v8c0 0.5523 0.44772 1 1 1h4c0.55228 0 1 -0.4477 1 -1V2c0 -0.55228 -0.44772 -1 -1 -1Z" stroke-width="1"></path><path id="Vector 4026" stroke="#000000" stroke-linecap="round" stroke-linejoin="round" d="M1 6h4" stroke-width="1"></path><path id="Vector 4027" stroke="#000000" stroke-linecap="round" stroke-linejoin="round" d="M3.5 4.5 5 6 3.5 7.5" stroke-width="1"></path><path id="Vector 4025" stroke="#000000" stroke-linecap="round" stroke-linejoin="round" d="M12 3H8c-0.55228 0 -1 0.44772 -1 1v8c0 0.5523 0.44772 1 1 1h4c0.5523 0 1 -0.4477 1 -1V4c0 -0.55228 -0.4477 -1 -1 -1Z" stroke-width="1"></path><path id="Vector 4028" stroke="#000000" stroke-linecap="round" stroke-linejoin="round" d="M13 8H9" stroke-width="1"></path><path id="Vector 4029" stroke="#000000" stroke-linecap="round" stroke-linejoin="round" d="M10.5 6.5 9 8l1.5 1.5" stroke-width="1"></path></g></svg>