<svg xmlns="http://www.w3.org/2000/svg" fill="none" viewBox="0 0 14 14"><g id="computer-chip-thirty-two-core--computer-chip-thirty-two-core-device-electronics-cpu-microprocessor"><path id="Vector" stroke="#000000" stroke-linecap="round" stroke-linejoin="round" d="M11 2H3c-0.55228 0 -1 0.44772 -1 1v8c0 0.5523 0.44772 1 1 1h8c0.5523 0 1 -0.4477 1 -1V3c0 -0.55228 -0.4477 -1 -1 -1Z" stroke-width="1"></path><path id="Vector_2" stroke="#000000" stroke-linecap="round" stroke-linejoin="round" d="M5 2V0.5" stroke-width="1"></path><path id="Vector_3" stroke="#000000" stroke-linecap="round" stroke-linejoin="round" d="M9 2V0.5" stroke-width="1"></path><path id="Vector_4" stroke="#000000" stroke-linecap="round" stroke-linejoin="round" d="M2 9H0.5" stroke-width="1"></path><path id="Vector_5" stroke="#000000" stroke-linecap="round" stroke-linejoin="round" d="M2 5H0.5" stroke-width="1"></path><path id="Vector_6" stroke="#000000" stroke-linecap="round" stroke-linejoin="round" d="M9 12v1.5" stroke-width="1"></path><path id="Vector_7" stroke="#000000" stroke-linecap="round" stroke-linejoin="round" d="M5 12v1.5" stroke-width="1"></path><path id="Vector_8" stroke="#000000" stroke-linecap="round" stroke-linejoin="round" d="M12 5h1.5" stroke-width="1"></path><path id="Vector_9" stroke="#000000" stroke-linecap="round" stroke-linejoin="round" d="M12 9h1.5" stroke-width="1"></path><path id="Vector_10" stroke="#000000" stroke-linecap="round" stroke-linejoin="round" d="M5.16888 6.85416h-0.21875m0.21875 0c0.44298 0 0.80208 -0.3591 0.80208 -0.80208 0 -0.44298 -0.35911 -0.80208 -0.80209 -0.80208l-0.43749 0c-0.36714 0.00001 -0.67667 0.24668 -0.77189 0.58333m1.20939 1.02083 0.07291 0.00001c0.48325 0 0.875 0.39175 0.875 0.87499l0 0.14584c0 0.48325 -0.39175 0.875 -0.875 0.875l-0.58332 0c-0.38099 0 -0.7051 -0.24349 -0.82522 -0.58334" stroke-width="1"></path><path id="Vector 3" stroke="#000000" stroke-linecap="round" stroke-linejoin="round" d="M10.1666 8.75H7.83325v-0.49718c0 -0.34764 0.2058 -0.6623 0.52429 -0.80164l1.29836 -0.56804c0.31023 -0.13572 0.5107 -0.44222 0.5107 -0.78084 0 -0.47071 -0.3816 -0.8523 -0.85232 -0.8523h-0.60603c-0.38098 0 -0.70509 0.24349 -0.82521 0.58333" stroke-width="1"></path></g></svg>