<svg xmlns="http://www.w3.org/2000/svg" fill="none" viewBox="0 0 14 14"><g id="construction-helmet-2--hard-helmet-safety-construction-cloth-clothing-accessories"><path id="Vector" stroke="#000000" stroke-linecap="round" stroke-linejoin="round" d="M0.5 10.5H3l1 1h6l1 -1h2.5" stroke-width="1"></path><path id="Vector_2" stroke="#000000" stroke-linecap="round" stroke-linejoin="round" d="M5.5 2.5h3v4c0 0.26522 -0.10536 0.51957 -0.29289 0.70711C8.01957 7.39464 7.76522 7.5 7.5 7.5h-1c-0.26522 0 -0.51957 -0.10536 -0.70711 -0.29289C5.60536 7.01957 5.5 6.76522 5.5 6.5v-4Z" stroke-width="1"></path><path id="Vector_3" stroke="#000000" stroke-linecap="round" stroke-linejoin="round" d="M12.5 10.5V8.99996c0.0013 -1.19731 -0.3888 -2.36223 -1.1109 -3.31725 -0.7222 -0.95503 -1.73673 -1.6478 -2.8891 -1.97275" stroke-width="1"></path><path id="Vector_4" stroke="#000000" stroke-linecap="round" stroke-linejoin="round" d="M5.5 3.70996c-1.15237 0.32495 -2.16692 1.01772 -2.88905 1.97275C1.88881 6.63773 1.49868 7.80265 1.5 8.99996V10.5" stroke-width="1"></path></g></svg>