<svg xmlns="http://www.w3.org/2000/svg" fill="none" viewBox="0 0 14 14"><g id="consellation--science-space-universe-star-astronomy"><path id="Vector 4600" stroke="#000000" stroke-linecap="round" stroke-linejoin="round" d="M12 4V1" stroke-width="1"></path><path id="Vector" stroke="#000000" stroke-linecap="round" stroke-linejoin="round" d="M3.68366 3.94891 2.31628 8.05103" stroke-width="1"></path><path id="Vector_2" stroke="#000000" stroke-linecap="round" stroke-linejoin="round" d="m2.89465 9.44727 4.21076 2.10533" stroke-width="1"></path><path id="Vector_3" stroke="#000000" stroke-linecap="round" stroke-linejoin="round" d="m8.49622 11.1316 3.00758 -5.26325" stroke-width="1"></path><path id="Vector_4" stroke="#000000" stroke-linecap="round" stroke-linejoin="round" d="m4.97034 3.24261 6.05926 1.51482" stroke-width="1"></path><path id="Ellipse 1958" stroke="#000000" stroke-linecap="round" stroke-linejoin="round" d="M3 3a1 1 0 1 0 2 0 1 1 0 1 0 -2 0" stroke-width="1"></path><path id="Ellipse 1959" stroke="#000000" stroke-linecap="round" stroke-linejoin="round" d="M1 9a1 1 0 1 0 2 0 1 1 0 1 0 -2 0" stroke-width="1"></path><path id="Ellipse 1960" stroke="#000000" stroke-linecap="round" stroke-linejoin="round" d="M7 12a1 1 0 1 0 2 0 1 1 0 1 0 -2 0" stroke-width="1"></path><path id="Ellipse 1961" stroke="#000000" stroke-linecap="round" stroke-linejoin="round" d="M11 5a1 1 0 1 0 2 0 1 1 0 1 0 -2 0" stroke-width="1"></path></g></svg>