<svg xmlns="http://www.w3.org/2000/svg" fill="none" viewBox="0 0 14 14" stroke-width="1"><g id="controller-nintendo-switch--entertainment-gaming-controller-nintendo-switch"><path id="Rectangle 1681" stroke="#000000" stroke-linecap="round" stroke-linejoin="round" d="M.59375 5.8125c0-1.65685 1.34315-3 3-3h1.075c.55228 0 1 .44772 1 1v8.5c0 .5523-.44772 1-1 1h-1.075c-1.65685 0-3-1.3431-3-3v-4.5Z"></path><path id="Rectangle 1682" stroke="#000000" stroke-linecap="round" stroke-linejoin="round" d="M13.2627 8.0625c0 1.65685-1.3432 3-3 3h-1.075c-.55229 0-1-.4477-1-1v-8.5c0-.55228.44771-1 1-1h1.075c1.6568 0 3 1.34315 3 3v4.5Z"></path><path id="Vector 1904" stroke="#000000" stroke-linecap="round" stroke-linejoin="round" d="M3.09375 9.46875v1.59375"></path><path id="Vector 1906" stroke="#000000" stroke-linecap="round" stroke-linejoin="round" d="M10.7627 4.40625V2.8125"></path><path id="Vector 1905" stroke="#000000" stroke-linecap="round" stroke-linejoin="round" d="m3.89062 10.2656-1.59374 0"></path><path id="Vector 1907" stroke="#000000" stroke-linecap="round" stroke-linejoin="round" d="m9.96582 3.60938 1.59378 0"></path><path id="Ellipse 874" stroke="#000000" stroke-linecap="round" stroke-linejoin="round" d="M2.131 6.063a1 1 0 1 0 2 0 1 1 0 1 0-2 0"></path><path id="Ellipse 875" stroke="#000000" stroke-linecap="round" stroke-linejoin="round" transform="rotate(-180 10.725 7.813)" d="M9.725 7.813a1 1 0 1 0 2 0 1 1 0 1 0-2 0"></path></g></svg>