<svg xmlns="http://www.w3.org/2000/svg" fill="none" viewBox="0 0 14 14"><g id="controller-setting-bolt-nut"><path id="Vector 2433" stroke="#000000" stroke-linecap="round" stroke-linejoin="round" d="M4.1499 7.5v2.3109" stroke-width="1"></path><path id="Vector 2434" stroke="#000000" stroke-linecap="round" stroke-linejoin="round" d="m5.30518 8.65552 -2.3109 0" stroke-width="1"></path><path id="Vector 2435" stroke="#000000" stroke-linecap="round" stroke-linejoin="round" d="M5.26209 5.52405H3.98751c-1.59198 0 -2.93121 1.14178 -3.114231 2.6551L0.514936 11.1421C0.363045 12.398 1.38904 13.5 2.71023 13.5c0.84341 0 1.61329 -0.4594 1.98445 -1.1841l0.35819 -0.6994h2.89386l0.3582 0.6994c0.37116 0.7247 1.14103 1.1841 1.98447 1.1841 1.3212 0 2.3472 -1.102 2.1953 -2.3579l-0.332 -2.74487" stroke-width="1"></path><g id="Group 4782"><path id="Vector" stroke="#000000" stroke-linecap="round" stroke-linejoin="round" d="M7.73284 9.23319c0 -0.13674 0.11085 -0.24759 0.24759 -0.24759s0.2476 0.11085 0.2476 0.24759" stroke-width="1"></path><path id="Vector_2" stroke="#000000" stroke-linecap="round" stroke-linejoin="round" d="M7.73284 9.23312c0 0.13674 0.11085 0.24759 0.24759 0.24759s0.2476 -0.11085 0.2476 -0.24759" stroke-width="1"></path></g><path id="Rectangle 1921" stroke="#000000" stroke-linecap="round" stroke-linejoin="round" d="m7.5 2.25 3 -1.75 3 1.75v3L10.5 7l-3 -1.75v-3Z" stroke-width="1"></path><path id="Ellipse 1472" stroke="#000000" stroke-linecap="round" stroke-linejoin="round" d="M10 3.75a0.5 0.5 0 1 0 1 0 0.5 0.5 0 1 0 -1 0" stroke-width="1"></path></g></svg>