<svg xmlns="http://www.w3.org/2000/svg" fill="none" viewBox="0 0 14 14"><g id="controller-setting-gear"><path id="Vector 2433" stroke="#000000" stroke-linecap="round" stroke-linejoin="round" d="M4.1499 7.5v2.3109" stroke-width="1"></path><path id="Vector 2434" stroke="#000000" stroke-linecap="round" stroke-linejoin="round" d="m5.30518 8.65552 -2.3109 0" stroke-width="1"></path><path id="Vector 2435" stroke="#000000" stroke-linecap="round" stroke-linejoin="round" d="M5.51209 5.52405H3.98751c-1.59198 0 -2.93121 1.14178 -3.114231 2.6551L0.514936 11.1421C0.363045 12.398 1.38904 13.5 2.71023 13.5c0.84341 0 1.61329 -0.4594 1.98445 -1.1841l0.35819 -0.6994h2.89386l0.3582 0.6994c0.37116 0.7247 1.14103 1.1841 1.98447 1.1841 1.3212 0 2.3472 -1.102 2.1953 -2.3579l-0.3083 -2.5489" stroke-width="1"></path><g id="Group 4781"><path id="Vector" stroke="#000000" stroke-linecap="round" stroke-linejoin="round" d="M7.73284 9.23319c0 -0.13674 0.11085 -0.24759 0.24759 -0.24759s0.2476 0.11085 0.2476 0.24759" stroke-width="1"></path><path id="Vector_2" stroke="#000000" stroke-linecap="round" stroke-linejoin="round" d="M7.73284 9.23312c0 0.13674 0.11085 0.24759 0.24759 0.24759s0.2476 -0.11085 0.2476 -0.24759" stroke-width="1"></path></g><path id="Vector_3" stroke="#000000" stroke-linecap="round" stroke-linejoin="round" d="M9.61025 1.3808 9.8264 0.822818c0.03645 -0.094473 0.10059 -0.175734 0.184 -0.23314 0.0834 -0.057406 0.1822 -0.08828 0.2835 -0.088579h0.4122c0.1013 0.000299 0.2001 0.031173 0.2835 0.088579 0.0834 0.057406 0.1475 0.138667 0.184 0.23314l0.2162 0.557982 0.7339 0.42226 0.5931 -0.09049c0.0988 -0.0134 0.1993 0.00286 0.2888 0.04671 0.0896 0.04386 0.164 0.11334 0.2139 0.19961l0.2011 0.35188c0.0515 0.08764 0.0753 0.18885 0.0681 0.29026 -0.0072 0.10141 -0.0449 0.19827 -0.1083 0.27777l-0.367 0.4675v0.84452l0.377 0.46749c0.0634 0.07951 0.1012 0.17637 0.1083 0.27778 0.0072 0.10141 -0.0165 0.20262 -0.068 0.29026l-0.2011 0.35188c-0.0499 0.08627 -0.1244 0.15575 -0.2139 0.1996 -0.0895 0.04386 -0.19 0.06012 -0.2888 0.04672l-0.5932 -0.09049 -0.7339 0.42226 -0.2161 0.55798c-0.0365 0.09447 -0.1006 0.17573 -0.1841 0.23314 -0.0834 0.05741 -0.1822 0.08828 -0.2834 0.08858h-0.4223c-0.1013 -0.0003 -0.2001 -0.03117 -0.2835 -0.08858 -0.08341 -0.05741 -0.14755 -0.13867 -0.184 -0.23314l-0.21615 -0.55798 -0.73393 -0.42226 -0.59317 0.09049c-0.09877 0.0134 -0.19929 -0.00286 -0.2888 -0.04672 -0.08951 -0.04385 -0.16395 -0.11333 -0.21388 -0.1996l-0.20108 -0.35188c-0.05152 -0.08764 -0.07526 -0.18885 -0.06808 -0.29026 0.00718 -0.10141 0.04494 -0.19827 0.1083 -0.27778l0.36696 -0.46749V3.3463l-0.37702 -0.4675c-0.06335 -0.0795 -0.10112 -0.17636 -0.10829 -0.27777 -0.00718 -0.10141 0.01655 -0.20262 0.06808 -0.29026l0.20107 -0.35188c0.04993 -0.08627 0.12438 -0.15575 0.21389 -0.19961 0.08951 -0.04385 0.19003 -0.06011 0.2888 -0.04671l0.59317 0.09049 0.74398 -0.42226Z" stroke-width="1"></path><path id="Ellipse 1473" stroke="#000000" stroke-linecap="round" stroke-linejoin="round" d="M10 3.769a0.5 0.5 0 1 0 1 0 0.5 0.5 0 1 0 -1 0" stroke-width="1"></path></g></svg>