<svg xmlns="http://www.w3.org/2000/svg" fill="none" viewBox="0 0 14 14"><g id="convert-PDF-1--essential-files-folder-PDF-converter"><path id="Rectangle 603" stroke="#000000" stroke-linecap="round" stroke-linejoin="round" d="M8 8c0 -0.55228 0.44772 -1 1 -1h2l2 2v3c0 0.5523 -0.4477 1 -1 1H9c-0.55228 0 -1 -0.4477 -1 -1V8Z" stroke-width="1"></path><path id="Rectangle 604" stroke="#000000" stroke-linecap="round" stroke-linejoin="round" d="M1 2c0 -0.55228 0.44772 -1 1 -1h2l2 2v3c0 0.55228 -0.44772 1 -1 1H2c-0.55228 0 -1 -0.44772 -1 -1V2Z" stroke-width="1"></path><path id="Vector 3205" stroke="#000000" stroke-linecap="round" stroke-linejoin="round" d="M13 5.5v-1c0 -1.10457 -0.8954 -2 -2 -2H8.5" stroke-width="1"></path><path id="Vector 3212" stroke="#000000" stroke-linecap="round" stroke-linejoin="round" d="M10 1 8.5 2.5 10 4" stroke-width="1"></path><path id="Vector 3206" stroke="#000000" stroke-linecap="round" stroke-linejoin="round" d="M1 9v0.5c0 1.1046 0.89543 2 2 2h2.5" stroke-width="1"></path><path id="Vector 3211" stroke="#000000" stroke-linecap="round" stroke-linejoin="round" d="m4 10 1.5 1.5L4 13" stroke-width="1"></path></g></svg>