<svg xmlns="http://www.w3.org/2000/svg" fill="none" viewBox="0 0 14 14"><g id="credit-card-cvv--credit-card-cvv-code-number-online-payment"><path id="Vector" stroke="#000000" stroke-linecap="round" stroke-linejoin="round" d="M13.5 8V3.25c0 -0.55228 -0.4477 -1 -1 -1h-11c-0.552285 0 -1 0.44772 -1 1v7.5c0 0.5523 0.447715 1 1 1" stroke-width="1"></path><path id="Vector_2" stroke="#000000" stroke-linecap="round" stroke-linejoin="round" d="M0.5 5.75h13" stroke-width="1"></path><path id="Vector 2" stroke="#000000" stroke-linecap="round" stroke-linejoin="round" d="M5.62044 10.7917c-0.11154 -0.3156 -0.4125 -0.5417 -0.76627 -0.5417H4.3125c-0.44873 0 -0.8125 0.3638 -0.8125 0.8125v1.625c0 0.4487 0.36377 0.8125 0.8125 0.8125h0.54167c0.35376 0 0.65472 -0.2261 0.76626 -0.5417" stroke-width="1"></path><path id="Vector 1" stroke="#000000" stroke-linecap="round" stroke-linejoin="round" d="m9.5602 10.25 -0.99769 2.9931c-0.05114 0.1534 -0.19474 0.2569 -0.35648 0.2569 -0.16173 0 -0.30533 -0.1035 -0.35647 -0.2569L6.85187 10.25" stroke-width="1"></path><path id="Vector 3242" stroke="#000000" stroke-linecap="round" stroke-linejoin="round" d="m13.5 10.25 -0.9977 2.9931c-0.0512 0.1534 -0.1948 0.2569 -0.3565 0.2569 -0.1617 0 -0.3053 -0.1035 -0.3565 -0.2569l-0.9977 -2.9931" stroke-width="1"></path></g></svg>