<svg xmlns="http://www.w3.org/2000/svg" fill="none" viewBox="0 0 14 14"><g id="critical-thinking-2--critical-thinking-nut-bolt-cog-brain-plan-head"><path id="Vector" stroke="#000000" stroke-linecap="round" stroke-linejoin="round" d="M9.5 13.5V11h2c0.2652 0 0.5196 -0.1054 0.7071 -0.2929 0.1875 -0.1876 0.2929 -0.4419 0.2929 -0.70714v-4c-0.0002 -0.97748 -0.2609 -1.93724 -0.7552 -2.7805 -0.4943 -0.84326 -1.2045 -1.53954 -2.0573 -2.01717C8.83466 0.724665 7.86995 0.482948 6.89266 0.502024c-0.97728 0.019077 -1.93183 0.298258 -2.76538 0.808806 -0.83354 0.51054 -1.51596 1.23401 -1.97702 2.09591 -0.46105 0.86191 -0.68407 1.83112 -0.64611 2.80785 0.03797 0.97674 0.33555 1.92571 0.86211 2.74923C2.89282 9.78734 3.62934 10.4556 4.5 10.9v2.6" stroke-width="1"></path><path id="Vector_2" stroke="#000000" stroke-linecap="round" stroke-linejoin="round" d="m6.11025 3.8797 0.21615 -0.55798c0.03645 -0.09447 0.10059 -0.17573 0.18401 -0.23314 0.08342 -0.05741 0.18223 -0.08828 0.28349 -0.08858h0.4122c0.10126 0.0003 0.20007 0.03117 0.28349 0.08858 0.08342 0.05741 0.14756 0.13867 0.18401 0.23314l0.21615 0.55798 0.73393 0.42226 0.59317 -0.09049c0.09877 -0.0134 0.19929 0.00286 0.2888 0.04671 0.08951 0.04386 0.16395 0.11334 0.21388 0.19961l0.20108 0.35188c0.05152 0.08764 0.07526 0.18885 0.06808 0.29026 -0.00718 0.10141 -0.04494 0.19827 -0.1083 0.27778l-0.36696 0.46749v0.84452l0.37702 0.4675c0.06335 0.0795 0.10112 0.17636 0.10829 0.27777 0.00716 0.10141 -0.01655 0.20262 -0.06808 0.29026l-0.20107 0.35188c-0.04993 0.08627 -0.12438 0.15575 -0.21389 0.19961 -0.0895 0.04385 -0.19003 0.06011 -0.2888 0.04671l-0.59317 -0.09049 -0.73392 0.42226 -0.21616 0.55798c-0.03645 0.09447 -0.10059 0.17574 -0.184 0.23314 -0.08342 0.05741 -0.18223 0.08828 -0.28349 0.08858H6.7939c-0.10126 -0.0003 -0.20007 -0.03117 -0.28349 -0.08858 -0.08342 -0.0574 -0.14756 -0.13867 -0.18401 -0.23314l-0.21615 -0.55798 -0.73393 -0.42226 -0.59317 0.09049c-0.09877 0.0134 -0.19929 -0.00286 -0.2888 -0.04671 -0.08951 -0.04386 -0.16395 -0.11334 -0.21388 -0.19961l-0.20108 -0.35188c-0.05152 -0.08764 -0.07526 -0.18885 -0.06808 -0.29026 0.00718 -0.10141 0.04494 -0.19827 0.1083 -0.27777l0.36696 -0.4675V5.8452l-0.37702 -0.46749c-0.06335 -0.07951 -0.10112 -0.17637 -0.10829 -0.27778 -0.00718 -0.10141 0.01655 -0.20262 0.06808 -0.29026l0.20107 -0.35188c0.04993 -0.08627 0.12438 -0.15575 0.21389 -0.19961 0.08951 -0.04385 0.19003 -0.06011 0.2888 -0.04671l0.59317 0.09049 0.74398 -0.42226Z" stroke-width="1"></path><path id="Ellipse 1473" stroke="#000000" stroke-linecap="round" stroke-linejoin="round" d="M6.5 6.268a0.5 0.5 0 1 0 1 0 0.5 0.5 0 1 0 -1 0" stroke-width="1"></path></g></svg>