<svg xmlns="http://www.w3.org/2000/svg" fill="none" viewBox="0 0 14 14"><g id="croissant--dessert-croissant"><path id="Vector" stroke="#000000" stroke-linecap="round" stroke-linejoin="round" d="M3.32973 3.13464C1.62099 4.30579 0.5 6.27199 0.5 8.50001c0 1.48986 0.50125 2.86269 1.34431 3.95889 0.02 0.026 0.05102 0.0411 0.08383 0.0411 0.0548 0 0.10058 -0.0418 0.10704 -0.0962 0.20729 -1.7445 1.31273 -3.21349 2.84093 -3.93158 -0.2041 -0.25788 -0.36336 -0.55579 -0.46428 -0.88377l-1.0577 -3.43752c-0.10473 -0.34037 -0.11429 -0.69704 -0.0244 -1.01629Z" stroke-width="1"></path><path id="Vector_2" stroke="#000000" stroke-linecap="round" stroke-linejoin="round" d="M13.5 8.50001c0 -2.22802 -1.121 -4.19422 -2.8297 -5.36537 0.0899 0.31924 0.0803 0.67592 -0.0244 1.01628L9.58817 7.58845c-0.10091 0.32798 -0.26017 0.62589 -0.46428 0.88376 1.52821 0.71809 2.63361 2.18709 2.84091 3.93159 0.0065 0.0544 0.0523 0.0962 0.1071 0.0962 0.0328 0 0.0638 -0.0151 0.0838 -0.0411 0.843 -1.0962 1.3443 -2.46903 1.3443 -3.95889Z" stroke-width="1"></path><path id="Vector 2188" stroke="#000000" stroke-linecap="round" stroke-linejoin="round" d="m4.41183 7.58844 -1.0577 -3.43753c-0.21786 -0.70806 -0.02388 -1.48674 0.62058 -1.85209C4.66362 1.90828 5.69572 1.5 7 1.5s2.33638 0.40828 3.0253 0.79882c0.6445 0.36535 0.8384 1.14403 0.6206 1.85209L9.58817 7.58844C9.23857 8.72466 8.18879 9.5 7 9.5c-1.18879 0 -2.23856 -0.77534 -2.58817 -1.91156Z" stroke-width="1"></path><path id="Vector_3" stroke="#000000" stroke-linecap="round" stroke-linejoin="round" d="m0.829063 6.45251 2.385817 3.2805" stroke-width="1"></path><path id="Vector_4" stroke="#000000" stroke-linecap="round" stroke-linejoin="round" d="m13.1709 6.45251 -2.3858 3.2805" stroke-width="1"></path></g></svg>