<svg xmlns="http://www.w3.org/2000/svg" fill="none" viewBox="0 0 14 14"><g id="crypto-wallet--crypto-wallet-digital-money-payment-finance-currency"><path id="Vector 3043" stroke="#000000" stroke-linecap="round" stroke-linejoin="round" d="M0.5 8h5" stroke-width="1"></path><path id="Vector 3044" stroke="#000000" stroke-linecap="round" stroke-linejoin="round" d="M2.5 8V6h1" stroke-width="1"></path><path id="Vector 3045" stroke="#000000" stroke-linecap="round" stroke-linejoin="round" d="M0.5 10.5H2" stroke-width="1"></path><path id="Vector 3046" stroke="#000000" stroke-linecap="round" stroke-linejoin="round" d="M6.5 13.5v-2h1" stroke-width="1"></path><path id="Vector 3047" stroke="#000000" stroke-linecap="round" stroke-linejoin="round" d="M7 3.5v2h1" stroke-width="1"></path><g id="Group 12"><path id="Ellipse 1" stroke="#000000" stroke-linecap="round" stroke-linejoin="round" d="M4.25 10.75c-0.13807 0 -0.25 -0.1119 -0.25 -0.25s0.11193 -0.25 0.25 -0.25" stroke-width="1"></path><path id="Ellipse 2" stroke="#000000" stroke-linecap="round" stroke-linejoin="round" d="M4.25 10.75c0.13807 0 0.25 -0.1119 0.25 -0.25s-0.11193 -0.25 -0.25 -0.25" stroke-width="1"></path></g><path id="Vector" stroke="#000000" stroke-linecap="round" stroke-linejoin="round" d="M12 10v2.5c0 0.2652 -0.1054 0.5196 -0.2929 0.7071S11.2652 13.5 11 13.5H1.5c-0.26522 0 -0.51957 -0.1054 -0.707107 -0.2929C0.605357 13.0196 0.5 12.7652 0.5 12.5v-9c0 -1.65685 1.34315 -3 3 -3H10v3" stroke-width="1"></path><path id="Vector_2" stroke="#000000" stroke-linecap="round" stroke-linejoin="round" d="M13 7h-3c-0.27614 0 -0.5 0.22386 -0.5 0.5v2c0 0.27614 0.22386 0.5 0.5 0.5h3c0.2761 0 0.5 -0.22386 0.5 -0.5v-2c0 -0.27614 -0.2239 -0.5 -0.5 -0.5Z" stroke-width="1"></path><path id="Vector_3" stroke="#000000" stroke-linecap="round" stroke-linejoin="round" d="M12 7V4.5c0 -0.26522 -0.1054 -0.51957 -0.2929 -0.70711C11.5196 3.60536 11.2652 3.5 11 3.5H3.5" stroke-width="1"></path></g></svg>