<svg xmlns="http://www.w3.org/2000/svg" fill="none" viewBox="0 0 14 14"><g id="customer-support-2--customer-headphones-headset-help-microphone-phone-person-support"><path id="Vector" stroke="#000000" stroke-linecap="round" stroke-linejoin="round" d="M5.5 7.5c0.5 1 2.5 1 3 0" stroke-width="1"></path><g id="Group 2657"><path id="Ellipse 1121" stroke="#000000" stroke-linecap="round" stroke-linejoin="round" d="M5.75 5.5c-0.13807 0 -0.25 -0.11193 -0.25 -0.25S5.61193 5 5.75 5" stroke-width="1"></path><path id="Ellipse 1122" stroke="#000000" stroke-linecap="round" stroke-linejoin="round" d="M5.75 5.5c0.13807 0 0.25 -0.11193 0.25 -0.25S5.88807 5 5.75 5" stroke-width="1"></path></g><g id="Group 2658"><path id="Ellipse 1121_2" stroke="#000000" stroke-linecap="round" stroke-linejoin="round" d="M8.25 5.5c-0.13807 0 -0.25 -0.11193 -0.25 -0.25S8.11193 5 8.25 5" stroke-width="1"></path><path id="Ellipse 1122_2" stroke="#000000" stroke-linecap="round" stroke-linejoin="round" d="M8.25 5.5c0.13807 0 0.25 -0.11193 0.25 -0.25S8.38807 5 8.25 5" stroke-width="1"></path></g><path id="Vector 3826" stroke="#000000" stroke-linecap="round" stroke-linejoin="round" d="M3.5 5v-0.5C3.5 2.567 5.067 1 7 1v0c1.933 0 3.5 1.567 3.5 3.5V5" stroke-width="1"></path><path id="Vector 3827" stroke="#000000" stroke-linecap="round" stroke-linejoin="round" d="M10.5 9V5H12c0.5523 0 1 0.44772 1 1v2c0 0.55228 -0.4477 1 -1 1h-1.5Z" stroke-width="1"></path><path id="Vector 3829" stroke="#000000" stroke-linecap="round" stroke-linejoin="round" d="M10.5 9v1c0 0.9319 -0.63739 1.715 -1.5 1.937" stroke-width="1"></path><path id="Vector 3830" stroke="#000000" stroke-linecap="round" stroke-linejoin="round" d="M8 13H6c-0.55228 0 -1 -0.4477 -1 -1s0.44772 -1 1 -1h2c0.55228 0 1 0.4477 1 1s-0.44772 1 -1 1Z" stroke-width="1"></path><path id="Vector 3828" stroke="#000000" stroke-linecap="round" stroke-linejoin="round" d="M1 8V6c0 -0.55228 0.44772 -1 1 -1h1.5v4H2c-0.55228 0 -1 -0.44772 -1 -1Z" stroke-width="1"></path></g></svg>