<svg xmlns="http://www.w3.org/2000/svg" fill="none" viewBox="0 0 14 14"><g id="customer-support-6--customer-headphones-help-headset-person-profile-support"><path id="Vector" stroke="#000000" stroke-linecap="round" stroke-linejoin="round" d="M7 9.5c1.38071 0 2.5 -1.11929 2.5 -2.5S8.38071 4.5 7 4.5 4.5 5.61929 4.5 7 5.61929 9.5 7 9.5Z" stroke-width="1"></path><path id="Vector_2" stroke="#000000" stroke-linecap="round" stroke-linejoin="round" d="M7 4.5v-4" stroke-width="1"></path><path id="Vector_3" stroke="#000000" stroke-linecap="round" stroke-linejoin="round" d="M9.5 13.5V12h2c0.2652 0 0.5196 -0.1054 0.7071 -0.2929 0.1875 -0.1876 0.2929 -0.4419 0.2929 -0.7071V6.99998c0.0002 -1.01392 -0.2799 -2.00815 -0.8093 -2.87287 -0.5294 -0.86472 -1.2876 -1.56626 -2.1907 -2.02713" stroke-width="1"></path><path id="Vector_4" stroke="#000000" stroke-linecap="round" stroke-linejoin="round" d="M4.50005 2.09998C3.59656 2.56057 2.838 3.262 2.30822 4.12674c-0.52979 0.86474 -0.81017 1.85911 -0.81017 2.87324 0 1.01412 0.28038 2.0085 0.81017 2.87323C2.838 10.738 3.59656 11.4394 4.50005 11.9v1.6" stroke-width="1"></path></g></svg>