<svg xmlns="http://www.w3.org/2000/svg" fill="none" viewBox="0 0 14 14"><g id="cutter--cutter-company-office-supplies-work"><path id="Vector" stroke="#000000" stroke-linecap="round" stroke-linejoin="round" d="M3.52631 7.49707 1.54199 9.48139V13.45l3.96864 -3.96861" stroke-width="1"></path><path id="Vector_2" stroke="#000000" stroke-linecap="round" stroke-linejoin="round" d="M11.6323 1.37522c-0.26 -0.26159 -0.5692 -0.469178 -0.9098 -0.610834C10.382 0.62273 10.0168 0.549805 9.64796 0.549805c-0.36884 0 -0.73403 0.072925 -1.07458 0.214581 -0.34054 0.141656 -0.64972 0.349244 -0.90974 0.610834L2.53418 6.50468l3.96863 3.96862 5.12949 -5.12945c0.2616 -0.26002 0.4691 -0.5692 0.6108 -0.90974 0.1417 -0.34055 0.2146 -0.70574 0.2146 -1.07458 0 -0.36883 -0.0729 -0.73402 -0.2146 -1.07457 -0.1417 -0.34054 -0.3492 -0.64972 -0.6108 -0.90974v0Z" stroke-width="1"></path><path id="Vector_3" stroke="#000000" stroke-linecap="round" stroke-linejoin="round" d="m6.50293 6.5048 2.97648 -2.97648" stroke-width="1"></path></g></svg>