<svg xmlns="http://www.w3.org/2000/svg" fill="none" viewBox="0 0 14 14"><g id="daily-calendar--one-calendar-date-day-month"><path id="Vector 2" stroke="#000000" stroke-linecap="round" stroke-linejoin="round" d="m7 6.00012 0 4.49978" stroke-width="1"></path><path id="Vector 3" stroke="#000000" stroke-linecap="round" stroke-linejoin="round" d="m5.50008 7.12506 0.37498 0C6.49635 7.12506 7 6.62141 7 6.00012v0" stroke-width="1"></path><path id="Vector 1" stroke="#000000" stroke-linecap="round" stroke-linejoin="round" d="M8.5 10.4999H5.50016" stroke-width="1"></path><path id="Vector" stroke="#000000" stroke-linecap="round" stroke-linejoin="round" d="M2 2.5c-0.26522 0 -0.51957 0.10536 -0.70711 0.29289C1.10536 2.98043 1 3.23478 1 3.5V12c0 0.2652 0.10536 0.5196 0.29289 0.7071C1.48043 12.8946 1.73478 13 2 13h10c0.2652 0 0.5196 -0.1054 0.7071 -0.2929S13 12.2652 13 12V3.5c0 -0.26522 -0.1054 -0.51957 -0.2929 -0.70711C12.5196 2.60536 12.2652 2.5 12 2.5H2Z" stroke-width="1"></path><path id="Vector_2" stroke="#000000" stroke-linecap="round" stroke-linejoin="round" d="M3.5 1v3" stroke-width="1"></path><path id="Vector_3" stroke="#000000" stroke-linecap="round" stroke-linejoin="round" d="M10.5 1v3" stroke-width="1"></path></g></svg>