<svg xmlns="http://www.w3.org/2000/svg" fill="none" viewBox="0 0 14 14"><g id="dashboard-circle-horizontal-pill-1"><path id="Rectangle 2040" stroke="#000000" stroke-linecap="round" stroke-linejoin="round" d="M1 3.5C1 2.11929 2.11929 1 3.5 1h7C11.8807 1 13 2.11929 13 3.5v0C13 4.88071 11.8807 6 10.5 6h-7C2.11929 6 1 4.88071 1 3.5v0Z" stroke-width="1"></path><path id="Rectangle 2042" stroke="#000000" stroke-linecap="round" stroke-linejoin="round" d="M3.5 8h0S6 8 6 10.5v0S6 13 3.5 13h0S1 13 1 10.5v0S1 8 3.5 8" stroke-width="1"></path><path id="Rectangle 2043" stroke="#000000" stroke-linecap="round" stroke-linejoin="round" d="M10.5 8h0S13 8 13 10.5v0s0 2.5 -2.5 2.5h0S8 13 8 10.5v0S8 8 10.5 8" stroke-width="1"></path></g></svg>