<svg xmlns="http://www.w3.org/2000/svg" fill="none" viewBox="0 0 14 14"><g id="dashboard-vertical-rectangle-thirds"><path id="Vector" stroke="#000000" stroke-linecap="round" stroke-linejoin="round" d="M5 1H2c-0.55228 0 -1 0.44772 -1 1v10c0 0.5523 0.44772 1 1 1h3c0.55228 0 1 -0.4477 1 -1V2c0 -0.55228 -0.44772 -1 -1 -1Z" stroke-width="1"></path><path id="Vector_2" stroke="#000000" stroke-linecap="round" stroke-linejoin="round" d="M12 1H9c-0.55228 0 -1 0.44772 -1 1v10c0 0.5523 0.44772 1 1 1h3c0.5523 0 1 -0.4477 1 -1V2c0 -0.55228 -0.4477 -1 -1 -1Z" stroke-width="1"></path><path id="Vector 885" stroke="#000000" stroke-linecap="round" stroke-linejoin="round" d="M1 9h5" stroke-width="1"></path><path id="Vector 886" stroke="#000000" stroke-linecap="round" stroke-linejoin="round" d="M1 5h5" stroke-width="1"></path><path id="Vector 887" stroke="#000000" stroke-linecap="round" stroke-linejoin="round" d="M8 9h5" stroke-width="1"></path><path id="Vector 888" stroke="#000000" stroke-linecap="round" stroke-linejoin="round" d="M8 5h5" stroke-width="1"></path></g></svg>