<svg xmlns="http://www.w3.org/2000/svg" fill="none" viewBox="0 0 14 14"><g id="dashboard-vertical-rectangle-split-5"><path id="Vector" stroke="#000000" stroke-linecap="round" stroke-linejoin="round" d="m9 1 3 0c0.5523 0 1 0.44772 1 1l0 10c0 0.5523 -0.4477 1 -1 1l-3 0c-0.55229 0 -1 -0.4477 -1 -1L8 2c0 -0.55229 0.44772 -1 1 -1Z" stroke-width="1"></path><path id="Vector_2" stroke="#000000" stroke-linecap="round" stroke-linejoin="round" d="m2 1 3 0c0.55228 0 1 0.44772 1 1l0 10c0 0.5523 -0.44772 1 -1 1l-3 0c-0.55229 0 -1.000001 -0.4477 -1.000001 -1L1 2c0 -0.55229 0.44772 -1 1 -1Z" stroke-width="1"></path><path id="Vector 885" stroke="#000000" stroke-linecap="round" stroke-linejoin="round" d="M13 9 8 9" stroke-width="1"></path><path id="Vector 888" stroke="#000000" stroke-linecap="round" stroke-linejoin="round" d="M13 5 8 5" stroke-width="1"></path><path id="Vector 887" stroke="#000000" stroke-linecap="round" stroke-linejoin="round" d="M6 5 1 5" stroke-width="1"></path></g></svg>