<svg xmlns="http://www.w3.org/2000/svg" fill="none" viewBox="0 0 14 14"><g id="dashboard-vertical-pills-4"><path id="Vector 885" stroke="#000000" stroke-linecap="round" stroke-linejoin="round" d="m9 1 0 5" stroke-width="1"></path><path id="Vector 888" stroke="#000000" stroke-linecap="round" stroke-linejoin="round" d="m5 1 0 5" stroke-width="1"></path><path id="Vector 887" stroke="#000000" stroke-linecap="round" stroke-linejoin="round" d="m9 8 0 5" stroke-width="1"></path><path id="Rectangle 2040" stroke="#000000" stroke-linecap="round" stroke-linejoin="round" d="M10.5 1C11.8807 1 13 2.11929 13 3.5v0C13 4.88071 11.8807 6 10.5 6l-7 0C2.11929 6 1 4.88071 1 3.5v0C1 2.11929 2.11929 1 3.5 1l7 0Z" stroke-width="1"></path><path id="Rectangle 2041" stroke="#000000" stroke-linecap="round" stroke-linejoin="round" d="M10.5 8c1.3807 0 2.5 1.11929 2.5 2.5v0c0 1.3807 -1.1193 2.5 -2.5 2.5l-7 0C2.11929 13 1 11.8807 1 10.5v0C1 9.11929 2.11929 8 3.5 8l7 0Z" stroke-width="1"></path></g></svg>