<svg xmlns="http://www.w3.org/2000/svg" fill="none" viewBox="0 0 14 14"><g id="dashboard-mix-circle-square-2"><path id="Vector" stroke="#000000" stroke-linecap="round" stroke-linejoin="round" d="M5 1H2c-0.55228 0 -1 0.44772 -1 1v3c0 0.55228 0.44772 1 1 1h3c0.55228 0 1 -0.44772 1 -1V2c0 -0.55228 -0.44772 -1 -1 -1Z" stroke-width="1"></path><path id="Vector_2" stroke="#000000" stroke-linecap="round" stroke-linejoin="round" d="M12 8H9c-0.55228 0 -1 0.44772 -1 1v3c0 0.5523 0.44772 1 1 1h3c0.5523 0 1 -0.4477 1 -1V9c0 -0.55228 -0.4477 -1 -1 -1Z" stroke-width="1"></path><path id="Rectangle 2041" stroke="#000000" stroke-linecap="round" stroke-linejoin="round" d="M10.5 1h0S13 1 13 3.5v0S13 6 10.5 6h0S8 6 8 3.5v0S8 1 10.5 1" stroke-width="1"></path><path id="Rectangle 2042" stroke="#000000" stroke-linecap="round" stroke-linejoin="round" d="M3.5 8h0S6 8 6 10.5v0S6 13 3.5 13h0S1 13 1 10.5v0S1 8 3.5 8" stroke-width="1"></path></g></svg>