<svg xmlns="http://www.w3.org/2000/svg" fill="none" viewBox="0 0 14 14"><g id="dashboard-square--app-application-dashboard-home-layout-square"><path id="Vector" stroke="#000000" stroke-linecap="round" stroke-linejoin="round" d="M5 1H2c-0.55228 0 -1 0.44772 -1 1v3c0 0.55228 0.44772 1 1 1h3c0.55228 0 1 -0.44772 1 -1V2c0 -0.55228 -0.44772 -1 -1 -1Z" stroke-width="1"></path><path id="Vector_2" stroke="#000000" stroke-linecap="round" stroke-linejoin="round" d="M12 1H9c-0.55228 0 -1 0.44772 -1 1v3c0 0.55228 0.44772 1 1 1h3c0.5523 0 1 -0.44772 1 -1V2c0 -0.55228 -0.4477 -1 -1 -1Z" stroke-width="1"></path><path id="Vector_3" stroke="#000000" stroke-linecap="round" stroke-linejoin="round" d="M5 8H2c-0.55228 0 -1 0.44772 -1 1v3c0 0.5523 0.44772 1 1 1h3c0.55228 0 1 -0.4477 1 -1V9c0 -0.55228 -0.44772 -1 -1 -1Z" stroke-width="1"></path><path id="Vector_4" stroke="#000000" stroke-linecap="round" stroke-linejoin="round" d="M12 8H9c-0.55228 0 -1 0.44772 -1 1v3c0 0.5523 0.44772 1 1 1h3c0.5523 0 1 -0.4477 1 -1V9c0 -0.55228 -0.4477 -1 -1 -1Z" stroke-width="1"></path></g></svg>