<svg xmlns="http://www.w3.org/2000/svg" fill="none" viewBox="0 0 14 14"><g id="dashboard-vertical-pills-split-5"><path id="Vector 885" stroke="#000000" stroke-linecap="round" stroke-linejoin="round" d="M13 9 8 9" stroke-width="1"></path><path id="Vector 888" stroke="#000000" stroke-linecap="round" stroke-linejoin="round" d="M13 5 8 5" stroke-width="1"></path><path id="Vector 887" stroke="#000000" stroke-linecap="round" stroke-linejoin="round" d="M6 5 1 5" stroke-width="1"></path><path id="Rectangle 2040" stroke="#000000" stroke-linecap="round" stroke-linejoin="round" d="M1 3.5C1 2.11929 2.11929 1 3.5 1v0C4.88071 1 6 2.11929 6 3.5v7C6 11.8807 4.88071 13 3.5 13v0C2.11929 13 1 11.8807 1 10.5v-7Z" stroke-width="1"></path><path id="Rectangle 2041" stroke="#000000" stroke-linecap="round" stroke-linejoin="round" d="M8 3.5C8 2.11929 9.11929 1 10.5 1v0C11.8807 1 13 2.11929 13 3.5v7c0 1.3807 -1.1193 2.5 -2.5 2.5v0C9.11929 13 8 11.8807 8 10.5v-7Z" stroke-width="1"></path></g></svg>