<svg xmlns="http://www.w3.org/2000/svg" fill="none" viewBox="0 0 14 14"><g id="dashboard-circle-vertical-pill-2"><path id="Rectangle 2040" stroke="#000000" stroke-linecap="round" stroke-linejoin="round" d="M1 3.5C1 2.11929 2.11929 1 3.5 1v0C4.88071 1 6 2.11929 6 3.5v7C6 11.8807 4.88071 13 3.5 13v0C2.11929 13 1 11.8807 1 10.5v-7Z" stroke-width="1"></path><path id="Rectangle 2041" stroke="#000000" stroke-linecap="round" stroke-linejoin="round" d="M10.5 1h0S13 1 13 3.5v0S13 6 10.5 6h0S8 6 8 3.5v0S8 1 10.5 1" stroke-width="1"></path><path id="Rectangle 2043" stroke="#000000" stroke-linecap="round" stroke-linejoin="round" d="M10.5 8h0S13 8 13 10.5v0s0 2.5 -2.5 2.5h0S8 13 8 10.5v0S8 8 10.5 8" stroke-width="1"></path></g></svg>