<svg xmlns="http://www.w3.org/2000/svg" fill="none" viewBox="0 0 14 14"><g id="dashboard-vertical-rectangle-5"><path id="Vector" stroke="#000000" stroke-linecap="round" stroke-linejoin="round" d="m1 9 0 3c0 0.5523 0.44772 1 1 1l10 0c0.5523 0 1 -0.4477 1 -1l0 -3c0 -0.55229 -0.4477 -1 -1 -1L2 8c-0.55228 0 -1 0.44772 -1 1Z" stroke-width="1"></path><path id="Vector_2" stroke="#000000" stroke-linecap="round" stroke-linejoin="round" d="m1 2 0 3c0 0.55228 0.44772 1 1 1l10 0c0.5523 0 1 -0.44772 1 -1l0 -3c0 -0.55229 -0.4477 -1.000001 -1 -1L2 1c-0.55228 0 -1 0.44772 -1 1Z" stroke-width="1"></path><path id="Vector 885" stroke="#000000" stroke-linecap="round" stroke-linejoin="round" d="m9 13 0 -5" stroke-width="1"></path><path id="Vector 888" stroke="#000000" stroke-linecap="round" stroke-linejoin="round" d="m5 13 0 -5" stroke-width="1"></path><path id="Vector 887" stroke="#000000" stroke-linecap="round" stroke-linejoin="round" d="m5 6 0 -5" stroke-width="1"></path></g></svg>