<svg xmlns="http://www.w3.org/2000/svg" fill="none" viewBox="0 0 14 14"><g id="dashboard-vertical-rectangle-split-6"><path id="Vector" stroke="#000000" stroke-linecap="round" stroke-linejoin="round" d="M5 1 2 1c-0.55228 0 -1 0.44772 -1 1l0 10c0 0.5523 0.44772 1 1 1l3 0c0.55229 0 1 -0.4477 1 -1L6 2c0 -0.55229 -0.44772 -1 -1 -1Z" stroke-width="1"></path><path id="Vector_2" stroke="#000000" stroke-linecap="round" stroke-linejoin="round" d="M12 1 9 1c-0.55228 0 -1 0.44772 -1 1l0 10c0 0.5523 0.44772 1 1 1l3 0c0.5523 0 1 -0.4477 1 -1l0 -10c0 -0.55229 -0.4477 -1 -1 -1Z" stroke-width="1"></path><path id="Vector 885" stroke="#000000" stroke-linecap="round" stroke-linejoin="round" d="m1 9 5 0" stroke-width="1"></path><path id="Vector 888" stroke="#000000" stroke-linecap="round" stroke-linejoin="round" d="m1 5 5 0" stroke-width="1"></path><path id="Vector 887" stroke="#000000" stroke-linecap="round" stroke-linejoin="round" d="m8 9 5 0" stroke-width="1"></path></g></svg>