<svg xmlns="http://www.w3.org/2000/svg" fill="none" viewBox="0 0 14 14"><g id="database-server-3--server-network-internet"><path id="Vector" stroke="#000000" stroke-linecap="round" stroke-linejoin="round" d="M12.5 1.5h-11c-0.552285 0 -1 0.44772 -1 1V7c0 0.55228 0.447715 1 1 1h11c0.5523 0 1 -0.44772 1 -1V2.5c0 -0.55228 -0.4477 -1 -1 -1Z" stroke-width="1"></path><path id="Vector_2" stroke="#000000" stroke-linecap="round" stroke-linejoin="round" d="M7.5 4.75H11" stroke-width="1"></path><path id="Vector_3" stroke="#000000" stroke-linecap="round" stroke-linejoin="round" d="M7 8v4.5" stroke-width="1"></path><path id="Vector_4" stroke="#000000" stroke-linecap="round" stroke-linejoin="round" d="M2 12.5h10" stroke-width="1"></path><g id="Group 627"><path id="Vector_5" stroke="#000000" stroke-linecap="round" stroke-linejoin="round" d="M3.5 5c-0.13807 0 -0.25 -0.11193 -0.25 -0.25s0.11193 -0.25 0.25 -0.25" stroke-width="1"></path><path id="Vector_6" stroke="#000000" stroke-linecap="round" stroke-linejoin="round" d="M3.5 5c0.13807 0 0.25 -0.11193 0.25 -0.25s-0.11193 -0.25 -0.25 -0.25" stroke-width="1"></path></g></g></svg>