<svg xmlns="http://www.w3.org/2000/svg" fill="none" viewBox="0 0 14 14"><g id="database-download--database-download-raid-storage-code-disk-programming-array-hard-disc"><path id="Vector" stroke="#000000" stroke-linecap="round" stroke-linejoin="round" d="M6 4.74c3.03757 0 5.5 -0.94916 5.5 -2.12S9.03757 0.5 6 0.5 0.5 1.44916 0.5 2.62 2.96243 4.74 6 4.74Z" stroke-width="1"></path><path id="Vector_2" stroke="#000000" stroke-linecap="round" stroke-linejoin="round" d="M0.5 6C0.5 7.17084 2.96243 8.12 6 8.12c1.29747 0 2.49001 -0.17317 3.43054 -0.46283" stroke-width="1"></path><path id="Vector_3" stroke="#000000" stroke-linecap="round" stroke-linejoin="round" d="M0.5 2.62v6.75999C0.5 10.5508 2.96243 11.5 6 11.5c0.45874 0 0.90437 -0.0217 1.33037 -0.0624" stroke-width="1"></path><path id="Vector_4" stroke="#000000" stroke-linecap="round" stroke-linejoin="round" d="M11.5 6.25V2.62" stroke-width="1"></path><path id="Vector_5" stroke="#000000" stroke-linecap="round" stroke-linejoin="round" d="M0.5 6C0.5 7.17084 2.96243 8.12 6 8.12c0.47557 0 0.93703 -0.02327 1.37716 -0.067" stroke-width="1"></path><path id="Vector 3802" stroke="#000000" stroke-linecap="round" stroke-linejoin="round" d="m11.5 8.5 0 5" stroke-width="1"></path><path id="Vector 3803" stroke="#000000" stroke-linecap="round" stroke-linejoin="round" d="m9.5 11.5 2 2 2 -2" stroke-width="1"></path></g></svg>