<svg xmlns="http://www.w3.org/2000/svg" fill="none" viewBox="0 0 14 14"><g id="database-setting-bolt-nut"><path id="Vector" stroke="#000000" stroke-linecap="round" stroke-linejoin="round" d="M6 4.74c3.03757 0 5.5 -0.94916 5.5 -2.12S9.03757 0.5 6 0.5 0.5 1.44916 0.5 2.62 2.96243 4.74 6 4.74Z" stroke-width="1"></path><path id="Vector_2" stroke="#000000" stroke-linecap="round" stroke-linejoin="round" d="M0.5 2.62v6.75999c0 1.06511 2.03767 1.94671 4.69233 2.09731" stroke-width="1"></path><path id="Vector_3" stroke="#000000" stroke-linecap="round" stroke-linejoin="round" d="M11.5 5V2.62" stroke-width="1"></path><path id="Vector_4" stroke="#000000" stroke-linecap="round" stroke-linejoin="round" d="M0.5 6c0 1.0902 2.13492 1.98821 4.88118 2.10673" stroke-width="1"></path><path id="Rectangle 1921" stroke="#000000" stroke-linecap="round" stroke-linejoin="round" d="m7.5 8.75 3 -1.75 3 1.75v3l-3 1.75 -3 -1.75v-3Z" stroke-width="1"></path><path id="Ellipse 1472" stroke="#000000" stroke-linecap="round" stroke-linejoin="round" d="M10 10.25a0.5 0.5 0 1 0 1 0 0.5 0.5 0 1 0 -1 0" stroke-width="1"></path></g></svg>