<svg xmlns="http://www.w3.org/2000/svg" fill="none" viewBox="0 0 14 14"><g id="database-encryption-2"><path id="Vector 232" stroke="#000000" stroke-linecap="round" stroke-linejoin="round" d="M6.34244 10.5383H0.500244v0.8888c0 1.0227 0.829036 1.8517 1.851706 1.8517h4.02756" stroke-width="1"></path><path id="Vector 1034" stroke="#000000" stroke-linecap="round" stroke-linejoin="round" d="M4.50269 2.55322v2" stroke-width="1"></path><path id="Vector 1035" stroke="#000000" stroke-linecap="round" stroke-linejoin="round" d="M4.50269 6.4939v2" stroke-width="1"></path><path id="Vector 3867" stroke="#000000" stroke-linecap="round" stroke-linejoin="round" d="M6.71631 6.4939v2" stroke-width="1"></path><path id="Vector 1037" stroke="#000000" stroke-linecap="round" stroke-linejoin="round" d="m2.35181 10.0384 0.00053 -7.68669C2.35234 1.32904 3.18138 0.5 4.20405 0.5l8.15685 0c-1.0227 0 -1.8517 0.82904 -1.8517 1.8517v2.67586" stroke-width="1"></path><path id="Rectangle 593" stroke="#000000" stroke-linecap="round" stroke-linejoin="round" d="M6.3042 3.40261c0 -0.4691 0.35914 -0.84939 0.80217 -0.84939 0.44302 0 0.80217 0.38029 0.80217 0.84939v0.30122c0 0.46911 -0.35915 0.84939 -0.80217 0.84939 -0.44303 0 -0.80217 -0.38028 -0.80217 -0.84939v-0.30122Z" stroke-width="1"></path><path id="Vector 3866" stroke="#000000" stroke-linecap="round" stroke-linejoin="round" d="M8.5 13v-2.5c0 -0.2761 0.22386 -0.5 0.5 -0.5h4c0.2761 0 0.5 0.2239 0.5 0.5V13c0 0.2761 -0.2239 0.5 -0.5 0.5H9c-0.27614 0 -0.5 -0.2239 -0.5 -0.5Z" stroke-width="1"></path><path id="Vector 3864" stroke="#000000" stroke-linecap="round" stroke-linejoin="round" d="M9.25 10V8.75C9.25 7.7835 10.0335 7 11 7s1.75 0.7835 1.75 1.75V10" stroke-width="1"></path></g></svg>