<svg xmlns="http://www.w3.org/2000/svg" fill="none" viewBox="0 0 14 14"><g id="database-crypto-blockchain--crypto-currency-block-chain-technology-system"><path id="Vector 2447" stroke="#000000" stroke-linecap="round" stroke-linejoin="round" d="M5.25 1H2c-0.55228 0 -1 0.44772 -1 1v3.25c0 0.55228 0.44772 1 1 1h3.25c0.55228 0 1 -0.44772 1 -1V2c0 -0.55228 -0.44772 -1 -1 -1Z" stroke-width="1"></path><path id="Vector 2454" stroke="#000000" stroke-linecap="round" stroke-linejoin="round" d="M12 7.75H8.75c-0.55228 0 -1 0.44772 -1 1V12c0 0.5523 0.44772 1 1 1H12c0.5523 0 1 -0.4477 1 -1V8.75c0 -0.55228 -0.4477 -1 -1 -1Z" stroke-width="1"></path><path id="Vector 2449" stroke="#000000" stroke-linecap="round" stroke-linejoin="round" d="M11.375 5.625h-2c-0.55228 0 -1 -0.44772 -1 -1v-2c0 -0.55228 0.44772 -1 1 -1h2c0.5523 0 1 0.44772 1 1v2c0 0.55228 -0.4477 1 -1 1Z" stroke-width="1"></path><path id="Vector 2450" stroke="#000000" stroke-linecap="round" stroke-linejoin="round" d="M5.5 11.125v-1.5c0 -0.55228 -0.44772 -1 -1 -1H3c-0.55228 0 -1 0.44772 -1 1v1.5c0 0.5523 0.44772 1 1 1h1.5c0.55228 0 1 -0.4477 1 -1Z" stroke-width="1"></path><path id="Vector 2451" stroke="#000000" stroke-linecap="round" stroke-linejoin="round" d="M5.5 10.375h2.25" stroke-width="1"></path><path id="Vector 2452" stroke="#000000" stroke-linecap="round" stroke-linejoin="round" d="M10.375 7.75V5.625" stroke-width="1"></path><path id="Vector 2453" stroke="#000000" stroke-linecap="round" stroke-linejoin="round" d="m8.375 3.625 -2.125 0" stroke-width="1"></path><g id="Group 4762"><path id="Ellipse 81" stroke="#000000" stroke-linecap="round" stroke-linejoin="round" d="M4.25 4.5c-0.13807 0 -0.25 -0.11193 -0.25 -0.25S4.11193 4 4.25 4" stroke-width="1"></path><path id="Ellipse 82" stroke="#000000" stroke-linecap="round" stroke-linejoin="round" d="M4.24976 4.49988c0.13807 0 0.25 -0.11193 0.25 -0.25s-0.11193 -0.25 -0.25 -0.25" stroke-width="1"></path></g></g></svg>