<svg xmlns="http://www.w3.org/2000/svg" fill="none" viewBox="0 0 14 14"><g id="deep-water-area"><path id="Vector" stroke="#000000" stroke-linecap="round" stroke-linejoin="round" d="M0.5 12.9747c0.317629 0.3242 0.76033 0.5253 1.25 0.5253 0.9665 0 1.75 -0.7835 1.75 -1.75 0 0.9665 0.7835 1.75 1.75 1.75S7 12.7165 7 11.75c0 0.9665 0.7835 1.75 1.75 1.75s1.75 -0.7835 1.75 -1.75c0 0.9665 0.7835 1.75 1.75 1.75 0.4897 0 0.9324 -0.2011 1.25 -0.5253" stroke-width="1"></path><path id="Vector_2" stroke="#000000" stroke-linecap="round" stroke-linejoin="round" d="m9.45483 10.3437 0.32658 -0.3266c0.29569 -0.29572 0.46179 -0.69681 0.46179 -1.11501V3.46234c0 -0.54433 -0.44122 -0.98558 -0.98549 -0.98558 -0.54435 0 -0.98561 0.44125 -0.98561 0.98558v2.15062c0 -0.544322 -0.44125 -0.985575 -0.98557 -0.985575 -0.54432 0 -0.98558 0.441253 -0.98558 0.985575v3.72754c0 -0.54432 -0.44125 -0.98558 -0.98557 -0.98558 -0.54431 0 -0.98557 0.44126 -0.98557 0.98558v4.516l-0.7917 -0.98885c-0.39792 -0.49743 -1.15828 -0.48556 -1.54049 0.02404 -0.25482 0.33976 -0.26024 0.80543 -0.01339 1.15103l1.05249 1.4736c0.33322 0.46653 0.74846 0.86856 1.22549 1.1866l0.46119 0.3075" stroke-width="1"></path></g></svg>