<svg xmlns="http://www.w3.org/2000/svg" fill="none" viewBox="0 0 14 14"><g id="delete-PDF--essential-files-folder-delete-PDF-page"><path id="Vector" stroke="#000000" stroke-linecap="round" stroke-linejoin="round" d="M11.5 4.5V4L8 0.5H1.5C1.23478 0.5 0.98043 0.605357 0.792893 0.792893 0.605357 0.98043 0.5 1.23478 0.5 1.5v11c0 0.2652 0.105357 0.5196 0.292893 0.7071 0.187537 0.1875 0.441887 0.2929 0.707107 0.2929h4" stroke-width="1"></path><path id="Rectangle 609" stroke="#000000" stroke-linecap="round" stroke-linejoin="round" d="M7.5 8.5h5v4c0 0.5523 -0.4477 1 -1 1h-3c-0.55228 0 -1 -0.4477 -1 -1v-4Z" stroke-width="1"></path><path id="Vector 1264" stroke="#000000" stroke-linecap="round" stroke-linejoin="round" d="M13.5 8.5h-7" stroke-width="1"></path><path id="Vector 1265" stroke="#000000" stroke-linecap="round" stroke-linejoin="round" d="M8.5 8.5V8c0 -0.82843 0.67157 -1.5 1.5 -1.5v0c0.8284 0 1.5 0.67157 1.5 1.5v0.5" stroke-width="1"></path></g></svg>