<svg xmlns="http://www.w3.org/2000/svg" fill="none" viewBox="0 0 14 14"><g id="delivery-shipping--shipment-delivery-shipping"><path id="Vector" stroke="#000000" stroke-linecap="round" stroke-linejoin="round" d="M10.0956 0.753662V2.791" stroke-width="1"></path><path id="Vector_2" stroke="#000000" stroke-linecap="round" stroke-linejoin="round" d="M13.4062 2.79097H6.78491v4.084c0 0.27615 0.22386 0.5 0.5 0.5h5.61199c0.1351 0 0.2647 -0.05366 0.3602 -0.14918 0.0955 -0.09552 0.1491 -0.22507 0.1491 -0.36015V2.79097Z" stroke-width="1"></path><path id="Vector_3" stroke="#000000" stroke-linecap="round" stroke-linejoin="round" d="m6.78491 2.791 0.764 -1.47198c0.08237 -0.1659 0.20841 -0.30621 0.36456 -0.405827 0.15616 -0.099617 0.33652 -0.154772 0.52168 -0.159531H11.756c0.1895 0.000101 0.3753 0.053067 0.5363 0.152943 0.1611 0.099875 0.2911 0.242705 0.3754 0.412415l0.7385 1.47198" stroke-width="1"></path><path id="Vector 294" stroke="#000000" stroke-linecap="round" stroke-linejoin="round" d="m0.625 10.875 2.44373 2.0364c0.35943 0.2996 0.8125 0.4636 1.28037 0.4636l6.4426 0c0.4602 0 0.8333 -0.3731 0.8333 -0.8333 0 -0.9205 -0.7462 -1.6667 -1.66667 -1.6667H5.47929" stroke-width="1"></path><path id="Vector 295" stroke="#000000" stroke-linecap="round" stroke-linejoin="round" d="m3.625 9.875 0.75 0.75c0.41421 0.4142 1.08579 0.4142 1.5 0 0.41421 -0.4142 0.41421 -1.08579 0 -1.5L4.71079 7.96079c-0.37508 -0.37508 -0.88378 -0.58579 -1.41422 -0.58579H0.625" stroke-width="1"></path></g></svg>