<svg xmlns="http://www.w3.org/2000/svg" fill="none" viewBox="0 0 14 14"><g id="descending-number-order"><path id="Vector 2" stroke="#000000" stroke-linecap="round" stroke-linejoin="round" d="m10.6667 8.49951 0 4.99999" stroke-width="1"></path><path id="Vector 3" stroke="#000000" stroke-linecap="round" stroke-linejoin="round" d="m9.00008 9.74951 0.41667 0c0.69035 0 1.24995 -0.55964 1.24995 -1.25v0" stroke-width="1"></path><path id="Vector 1" stroke="#000000" stroke-linecap="round" stroke-linejoin="round" d="m12.3335 13.4995 -3.33334 0" stroke-width="1"></path><path id="Vector 2_2" stroke="#000000" stroke-linecap="round" stroke-linejoin="round" d="m9.92214 3.34425 0.65626 -0.00001c0.7852 0 1.4218 -0.63659 1.4218 -1.42187S11.3636 0.500492 10.5784 0.500498l-0.65628 0.000006C9.13685 0.50051 8.50026 1.1371 8.50026 1.92237c0 0.78528 0.6366 1.42188 1.42188 1.42188Z" stroke-width="1"></path><path id="Vector 3_2" stroke="#000000" stroke-linecap="round" stroke-linejoin="round" d="m12.0001 1.81299 0 2.625c0 0.72487 -0.5876 1.3125 -1.3125 1.3125h-0.87496c-0.57147 0 -1.05763 -0.36523 -1.23781 -0.875" stroke-width="1"></path><path id="Vector 348" stroke="#000000" stroke-linecap="round" stroke-linejoin="round" d="m6 11 -2.5 2.5L1 11" stroke-width="1"></path><path id="Vector 349" stroke="#000000" stroke-linecap="round" stroke-linejoin="round" d="M3.5 0.5v13" stroke-width="1"></path></g></svg>