<svg xmlns="http://www.w3.org/2000/svg" fill="none" viewBox="0 0 14 14"><g id="desktop-music--playlist-music-note-display-device-computer"><path id="Vector" stroke="#000000" stroke-linecap="round" stroke-linejoin="round" d="M8.22227 2 1 2c-0.276142 0 -0.5 0.22386 -0.5 0.5v8c0 0.2761 0.223858 0.5 0.5 0.5h12c0.2761 0 0.5 -0.2239 0.5 -0.5V5.38353" stroke-width="1"></path><path id="Vector_2" stroke="#000000" stroke-linecap="round" stroke-linejoin="round" d="m6 11 -1 2.5" stroke-width="1"></path><path id="Vector_3" stroke="#000000" stroke-linecap="round" stroke-linejoin="round" d="m8 11 1 2.5" stroke-width="1"></path><path id="Vector_4" stroke="#000000" stroke-linecap="round" stroke-linejoin="round" d="M4 13.5h6" stroke-width="1"></path><path id="Vector_5" stroke="#000000" stroke-linecap="round" stroke-linejoin="round" d="M9.25 6.50623c0.69036 0 1.25 -0.55965 1.25 -1.25 0 -0.69036 -0.55964 -1.25 -1.25 -1.25S8 4.56587 8 5.25623c0 0.69035 0.55964 1.25 1.25 1.25Z" stroke-width="1"></path><path id="Vector_6" stroke="#000000" stroke-linecap="round" stroke-linejoin="round" d="M10.5 5.25624V0.506241c0.3807 -0.022981 0.7621 0.031222 1.1213 0.159355 0.3592 0.128132 0.6888 0.32755 0.9691 0.586274 0.2802 0.25873 0.5052 0.57142 0.6615 0.9193 0.1563 0.34787 0.2407 0.72376 0.2481 1.10507" stroke-width="1"></path></g></svg>