<svg xmlns="http://www.w3.org/2000/svg" fill="none" viewBox="0 0 14 14"><g id="desktop--screen-device-display-desktop-electronics-monitor-keyboard"><path id="Vector" stroke="#000000" stroke-linecap="round" stroke-linejoin="round" d="M11.2632 0.5H2.76318c-0.55228 0 -1 0.447715 -1 1v6c0 0.55228 0.44772 1 1 1h8.50002c0.5523 0 1 -0.44772 1 -1v-6c0 -0.552285 -0.4477 -1 -1 -1Z" stroke-width="1"></path><path id="Vector_2" stroke="#000000" stroke-linecap="round" stroke-linejoin="round" d="M11.9535 11.03c-0.0785 -0.1664 -0.1989 -0.3061 -0.3477 -0.4033 -0.1489 -0.0972 -0.3201 -0.148 -0.4945 -0.1467H2.91348c-0.17441 -0.0013 -0.34568 0.0495 -0.4945 0.1467s-0.26926 0.2369 -0.34774 0.4033l-0.46791 1c-0.07514 0.1564 -0.11038 0.3312 -0.10216 0.5067 0.00821 0.1756 0.05959 0.3457 0.14895 0.4933 0.08429 0.1441 0.20156 0.2629 0.34074 0.3451 0.13918 0.0823 0.29567 0.1252 0.45471 0.1249h9.13363c0.159 0.0003 0.3155 -0.0426 0.4547 -0.1249 0.1392 -0.0822 0.2564 -0.201 0.3407 -0.3451 0.0822 -0.152 0.1254 -0.3245 0.1254 -0.5s-0.0432 -0.348 -0.1254 -0.5l-0.4211 -1Z" stroke-width="1"></path><path id="Vector_3" stroke="#000000" stroke-linecap="round" stroke-linejoin="round" d="M1.76318 6 12.2632 6" stroke-width="1"></path></g></svg>