<svg xmlns="http://www.w3.org/2000/svg" fill="none" viewBox="0 0 14 14"><g id="dial-pad--right--dial-pad--right"><path id="Vector" stroke="#000000" stroke-linecap="round" stroke-linejoin="round" d="M2.5 4C3.32843 4 4 3.32843 4 2.5S3.32843 1 2.5 1 1 1.67157 1 2.5 1.67157 4 2.5 4Z" stroke-width="1"></path><path id="Vector_2" stroke="#000000" stroke-linecap="round" stroke-linejoin="round" d="M2.5 8.5C3.32843 8.5 4 7.82843 4 7s-0.67157 -1.5 -1.5 -1.5S1 6.17157 1 7s0.67157 1.5 1.5 1.5Z" stroke-width="1"></path><path id="Vector_3" stroke="#000000" stroke-linecap="round" stroke-linejoin="round" d="M7 4c0.82843 0 1.5 -0.67157 1.5 -1.5S7.82843 1 7 1s-1.5 0.67157 -1.5 1.5S6.17157 4 7 4Z" stroke-width="1"></path><path id="Vector_4" stroke="#000000" stroke-linecap="round" stroke-linejoin="round" d="M7 8.5c0.82843 0 1.5 -0.67157 1.5 -1.5S7.82843 5.5 7 5.5 5.5 6.17157 5.5 7 6.17157 8.5 7 8.5Z" stroke-width="1"></path><path id="Vector_5" stroke="#000000" stroke-linecap="round" stroke-linejoin="round" d="M7 13c0.82843 0 1.5 -0.6716 1.5 -1.5S7.82843 10 7 10s-1.5 0.6716 -1.5 1.5S6.17157 13 7 13Z" stroke-width="1"></path><path id="Vector_6" stroke="#000000" stroke-linecap="round" stroke-linejoin="round" d="M11.5 4c0.8284 0 1.5 -0.67157 1.5 -1.5S12.3284 1 11.5 1 10 1.67157 10 2.5 10.6716 4 11.5 4Z" stroke-width="1"></path><path id="Vector_7" stroke="#000000" stroke-linecap="round" stroke-linejoin="round" d="M11.5 8.5c0.8284 0 1.5 -0.67157 1.5 -1.5s-0.6716 -1.5 -1.5 -1.5S10 6.17157 10 7s0.6716 1.5 1.5 1.5Z" stroke-width="1"></path><path id="Vector_8" stroke="#000000" stroke-linecap="round" stroke-linejoin="round" d="M2.5 13c0.82843 0 1.5 -0.6716 1.5 -1.5S3.32843 10 2.5 10 1 10.6716 1 11.5 1.67157 13 2.5 13Z" stroke-width="1"></path><path id="Vector_9" stroke="#000000" stroke-linecap="round" stroke-linejoin="round" d="M11.5 13c0.8284 0 1.5 -0.6716 1.5 -1.5s-0.6716 -1.5 -1.5 -1.5 -1.5 0.6716 -1.5 1.5 0.6716 1.5 1.5 1.5Z" stroke-width="1"></path><path id="Vector 3361" stroke="#000000" stroke-linecap="round" stroke-linejoin="round" d="m10.4395 8.06065 2.1213 -2.12132" stroke-width="1"></path></g></svg>