<svg xmlns="http://www.w3.org/2000/svg" fill="none" viewBox="0 0 14 14"><g id="dial-pad-disable-2--dial-pad-disable-dot-login"><path id="Vector 1859" stroke="#000000" stroke-linecap="round" stroke-linejoin="round" d="m0.5 0.5 13 13" stroke-width="1"></path><path id="Vector" stroke="#000000" stroke-linecap="round" stroke-linejoin="round" d="M11.5 4c0.8284 0 1.5 -0.67157 1.5 -1.5S12.3284 1 11.5 1 10 1.67157 10 2.5 10.6716 4 11.5 4Z" stroke-width="1"></path><path id="Vector_2" stroke="#000000" stroke-linecap="round" stroke-linejoin="round" d="M7 4c0.82843 0 1.5 -0.67157 1.5 -1.5S7.82843 1 7 1s-1.5 0.67157 -1.5 1.5S6.17157 4 7 4Z" stroke-width="1"></path><path id="Vector_3" stroke="#000000" stroke-linecap="round" stroke-linejoin="round" d="M8.06077 5.93934c-0.58578 -0.58579 -1.53553 -0.58579 -2.12132 0l2.12132 2.12132c0.58579 -0.58579 0.58579 -1.53553 0 -2.12132Z" stroke-width="1"></path><path id="Vector_4" stroke="#000000" stroke-linecap="round" stroke-linejoin="round" d="M3.56077 1.43934c-0.58578 -0.585787 -1.53553 -0.585787 -2.12132 0l2.12132 2.12132c0.58579 -0.58579 0.58579 -1.53553 0 -2.12132Z" stroke-width="1"></path><path id="Vector_5" stroke="#000000" stroke-linecap="round" stroke-linejoin="round" d="M11.5 8.5c0.8284 0 1.5 -0.67157 1.5 -1.5s-0.6716 -1.5 -1.5 -1.5S10 6.17157 10 7s0.6716 1.5 1.5 1.5Z" stroke-width="1"></path><path id="Vector_6" stroke="#000000" stroke-linecap="round" stroke-linejoin="round" d="M7 13c0.82843 0 1.5 -0.6716 1.5 -1.5S7.82843 10 7 10s-1.5 0.6716 -1.5 1.5S6.17157 13 7 13Z" stroke-width="1"></path><path id="Vector_7" stroke="#000000" stroke-linecap="round" stroke-linejoin="round" d="M2.5 8.5C3.32843 8.5 4 7.82843 4 7s-0.67157 -1.5 -1.5 -1.5S1 6.17157 1 7s0.67157 1.5 1.5 1.5Z" stroke-width="1"></path><path id="Vector_8" stroke="#000000" stroke-linecap="round" stroke-linejoin="round" d="M2.5 13c0.82843 0 1.5 -0.6716 1.5 -1.5S3.32843 10 2.5 10 1 10.6716 1 11.5 1.67157 13 2.5 13Z" stroke-width="1"></path><path id="Vector_9" stroke="#000000" stroke-linecap="round" stroke-linejoin="round" d="M12.5608 10.4393c-0.5858 -0.58575 -1.5356 -0.58575 -2.1213 0l2.1213 2.1214c0.5858 -0.5858 0.5858 -1.5356 0 -2.1214Z" stroke-width="1"></path></g></svg>