<svg xmlns="http://www.w3.org/2000/svg" fill="none" viewBox="0 0 14 14"><g id="dial-pad-finger-2--hand-lock-login-padlock-password-textbox-touch-type"><path id="Vector 107" stroke="#000000" stroke-linecap="round" stroke-linejoin="round" d="m12.9999 13 0 -1.927c0 -1.42102 -1.152 -2.573 -2.573 -2.573h-0.92698V5.75c0 -0.69036 -0.55964 -1.25 -1.25 -1.25 -0.69035 0 -1.25 0.55964 -1.25 1.25V9.5l-0.04898 0.00816C5.64392 9.726 5.06691 11.2804 5.91518 12.2983L6.49992 13" stroke-width="1"></path><path id="Vector" stroke="#000000" stroke-linecap="round" stroke-linejoin="round" d="M5.5 1h-4c-0.27614 0 -0.5 0.22386 -0.5 0.5V3c0 0.27614 0.22386 0.5 0.5 0.5h4c0.27614 0 0.5 -0.22386 0.5 -0.5V1.5c0 -0.27614 -0.22386 -0.5 -0.5 -0.5Z" stroke-width="1"></path><path id="Vector_2" stroke="#000000" stroke-linecap="round" stroke-linejoin="round" d="M10.5 3.5h2c0.2761 0 0.5 -0.22386 0.5 -0.5V1.5c0 -0.27614 -0.2239 -0.5 -0.5 -0.5h-4c-0.27614 0 -0.5 0.22386 -0.5 0.5v1" stroke-width="1"></path><path id="Vector_3" stroke="#000000" stroke-linecap="round" stroke-linejoin="round" d="M5 5.5H1.5c-0.27614 0 -0.5 0.22386 -0.5 0.5v1.5c0 0.27614 0.22386 0.5 0.5 0.5H4" stroke-width="1"></path></g></svg>