<svg xmlns="http://www.w3.org/2000/svg" fill="none" viewBox="0 0 14 14"><g id="dice-skull"><path id="Union" stroke="#000000" stroke-linecap="round" stroke-linejoin="round" d="M8.85814 9.59929c0.97701 -0.61718 1.62586 -1.70667 1.62586 -2.94773 0 -1.9242 -1.55984 -3.48408 -3.48405 -3.48408 -1.9242 0 -3.48408 1.55988 -3.48408 3.48408 0 1.24106 0.64889 2.33057 1.62591 2.94775v1.23319h3.71636V9.59929Z" stroke-width="1"></path><g id="Group 2270"><path id="Ellipse 81" stroke="#000000" stroke-linecap="round" stroke-linejoin="round" d="M5.70101 6.77506c-0.06901 0 -0.12496 -0.05594 -0.12496 -0.12495 0 -0.06902 0.05595 -0.12496 0.12496 -0.12496" stroke-width="1"></path><path id="Ellipse 82" stroke="#000000" stroke-linecap="round" stroke-linejoin="round" d="M5.70081 6.77506c0.06901 0 0.12495 -0.05594 0.12495 -0.12495 0 -0.06902 -0.05594 -0.12496 -0.12495 -0.12496" stroke-width="1"></path></g><g id="Group 2271"><path id="Ellipse 81_2" stroke="#000000" stroke-linecap="round" stroke-linejoin="round" d="M8.30123 6.77506c-0.06901 0 -0.12496 -0.05594 -0.12496 -0.12495 0 -0.06902 0.05595 -0.12496 0.12496 -0.12496" stroke-width="1"></path><path id="Ellipse 82_2" stroke="#000000" stroke-linecap="round" stroke-linejoin="round" d="M8.30103 6.77506c0.06901 0 0.12495 -0.05594 0.12495 -0.12495 0 -0.06902 -0.05594 -0.12496 -0.12495 -0.12496" stroke-width="1"></path></g><path id="Rectangle 569" stroke="#000000" stroke-linecap="round" stroke-linejoin="round" d="M2.5 0.5h9s2 0 2 2v9s0 2 -2 2h-9s-2 0 -2 -2v-9s0 -2 2 -2" stroke-width="1"></path></g></svg>