<svg xmlns="http://www.w3.org/2000/svg" fill="none" viewBox="0 0 14 14"><g id="dice-question"><path id="Ellipse 63" stroke="#000000" stroke-linecap="round" stroke-linejoin="round" d="M5.10425 5.38864c0 -1.04698 0.84874 -1.89572 1.89572 -1.89572s1.89572 0.84874 1.89572 1.89572 -0.84874 1.89572 -1.89572 1.89572v1.01545" stroke-width="1"></path><path id="Rectangle 569" stroke="#000000" stroke-linecap="round" stroke-linejoin="round" d="M2.5 0.5h9s2 0 2 2v9s0 2 -2 2h-9s-2 0 -2 -2v-9s0 -2 2 -2" stroke-width="1"></path><g id="Group 623"><path id="Vector" stroke="#000000" stroke-linecap="round" stroke-linejoin="round" d="M7 10.5679c-0.13807 0 -0.25 -0.112 -0.25 -0.25 0 -0.1381 0.11193 -0.25 0.25 -0.25" stroke-width="1"></path><path id="Vector_2" stroke="#000000" stroke-linecap="round" stroke-linejoin="round" d="M7 10.5679c0.13807 0 0.25 -0.112 0.25 -0.25 0 -0.1381 -0.11193 -0.25 -0.25 -0.25" stroke-width="1"></path></g></g></svg>