<svg xmlns="http://www.w3.org/2000/svg" fill="none" viewBox="0 0 14 14"><g id="disable-star"><path id="Vector" stroke="#000000" stroke-linecap="round" stroke-linejoin="round" d="m10.938 10.938 -0.328 -1.89808c-0.0155 -0.087 -0.0089 -0.17649 0.019 -0.26033 0.028 -0.08383 0.0764 -0.15934 0.141 -0.21967l2.53 -2.51c0.0748 -0.06999 0.1282 -0.15983 0.1539 -0.25902 0.0257 -0.09919 0.0226 -0.20365 -0.0088 -0.30117 -0.0315 -0.09752 -0.09 -0.18407 -0.1689 -0.24956 -0.0788 -0.06548 -0.1746 -0.10719 -0.2762 -0.12025l-3.51001 -0.52c-0.0886 -0.00981 -0.17308 -0.04268 -0.24502 -0.09532 -0.07194 -0.05263 -0.12882 -0.12321 -0.16498 -0.20468l-1.59 -3.21c-0.0433 -0.093492 -0.11245 -0.172645 -0.19927 -0.228117 -0.08682 -0.055472 -0.1877 -0.084948 -0.29073 -0.084948 -0.10304 0 -0.20392 0.029476 -0.29074 0.084948 -0.08682 0.055472 -0.15596 0.134625 -0.19926 0.228117l-1.59 3.21c-0.03617 0.08147 -0.09305 0.15205 -0.16499 0.20468 -0.05111 0.0374 -0.10855 0.06482 -0.16931 0.08108" stroke-width="1"></path><path id="Vector_2" stroke="#000000" stroke-linecap="round" stroke-linejoin="round" d="m2 4.97177 -1.000028 0.14815c-0.10412 0.00809 -0.203662 0.04619 -0.286569 0.10969 -0.082907 0.06351 -0.14562 0.14969 -0.180544 0.24811 -0.034923 0.09842 -0.040559 0.20486 -0.016223 0.30642 0.024336 0.10156 0.077599 0.19388 0.153336 0.26578l2.559998 2.47c0.06457 0.06033 0.11303 0.13585 0.14098 0.21968 0.02794 0.08383 0.03448 0.17332 0.01902 0.26032l-0.61 3.56998c-0.01766 0.1015 -0.0065 0.2058 0.03222 0.3012 0.03872 0.0954 0.10344 0.178 0.1868 0.2385 0.08335 0.0604 0.182 0.0962 0.28471 0.1033 0.10271 0.0072 0.20536 -0.0147 0.29627 -0.063l3.16 -1.67c0.08092 -0.0397 0.16986 -0.0604 0.26 -0.0604s0.17909 0.0207 0.26 0.0604l2.64715 1.399" stroke-width="1"></path><path id="Vector_3" stroke="#000000" stroke-linecap="round" stroke-linejoin="round" d="M13.5 13.5 0.5 0.5" stroke-width="1"></path></g></svg>