<svg xmlns="http://www.w3.org/2000/svg" fill="none" viewBox="0 0 14 14"><g id="discount-percent-bag--shop-shops-stores-discount-coupon-bag"><path id="Vector" stroke="#000000" stroke-linecap="round" stroke-linejoin="round" d="m4.5 11 5 -5" stroke-width="1"></path><path id="Vector_2" stroke="#000000" stroke-linecap="round" stroke-linejoin="round" d="M5 7c0.27614 0 0.5 -0.22386 0.5 -0.5S5.27614 6 5 6s-0.5 0.22386 -0.5 0.5 0.22386 0.5 0.5 0.5Z" stroke-width="1"></path><path id="Vector_3" stroke="#000000" stroke-linecap="round" stroke-linejoin="round" d="M9 11c0.27614 0 0.5 -0.2239 0.5 -0.5S9.27614 10 9 10s-0.5 0.2239 -0.5 0.5 0.22386 0.5 0.5 0.5Z" stroke-width="1"></path><path id="Vector_4" stroke="#000000" stroke-linecap="round" stroke-linejoin="round" d="M7 13.5c3.5 0 6 -1.2381 6 -3.99386 0 -2.99539 -1.5 -4.99232 -4.5 -6.49001l1.18 -1.51767c0.05995 -0.09957 0.09246 -0.2132 0.09425 -0.32937S9.74704 0.938348 9.69018 0.836979C9.63333 0.73561 9.55065 0.651051 9.45051 0.591872 9.35038 0.532693 9.23636 0.500998 9.12 0.5H4.88c-0.11636 0.000998 -0.23038 0.032693 -0.33051 0.091872 -0.10014 0.059179 -0.18282 0.143738 -0.23967 0.245107 -0.05686 0.101369 -0.08586 0.215941 -0.08407 0.332111s0.0343 0.2298 0.09425 0.32937L5.5 3.02611c-3 1.50768 -4.5 3.50461 -4.5 6.5C1 12.2619 3.5 13.5 7 13.5Z" stroke-width="1"></path></g></svg>