<svg width="14" height="14" viewBox="0 0 14 14" fill="none" xmlns="http://www.w3.org/2000/svg">
<path d="M4.61206 7C4.8882 7 5.11206 6.77614 5.11206 6.5C5.11206 6.22386 4.8882 6 4.61206 6C4.33592 6 4.11206 6.22386 4.11206 6.5C4.11206 6.77614 4.33592 7 4.61206 7Z" stroke="#01040B"/>
<path d="M9.11206 7C9.3882 7 9.61206 6.77614 9.61206 6.5C9.61206 6.22386 9.3882 6 9.11206 6C8.83592 6 8.61206 6.22386 8.61206 6.5C8.61206 6.77614 8.83592 7 9.11206 7Z" stroke="#01040B"/>
<path d="M0.858154 9.86442C0.858154 7.46294 1.71582 4.28956 2.5735 3.00305C2.5735 3.00305 3.43117 2.57422 6.86185 2.57422C10.2925 2.57422 11.1502 3.00305 11.1502 3.00305C12.0078 4.28956 12.8655 7.46294 12.8655 9.86442C12.5796 10.2933 11.579 11.2367 9.8637 11.5798L8.35496 9.69385C7.90722 9.79906 7.39761 9.86442 6.86185 9.86442C6.32609 9.86442 5.81648 9.79906 5.36874 9.69385L3.86 11.5798C2.14466 11.2367 1.14404 10.2933 0.858154 9.86442Z" stroke="#01040B" stroke-linecap="round" stroke-linejoin="round"/>
<path d="M3.86011 9.00684C4.12152 9.26825 4.66976 9.52966 5.36884 9.69393C5.81658 9.79914 6.32619 9.86451 6.86195 9.86451C7.39771 9.86451 7.90733 9.79914 8.35507 9.69393C9.05415 9.52966 9.60239 9.26825 9.8638 9.00684" stroke="#01040B" stroke-linecap="round" stroke-linejoin="round"/>
</svg>
