<svg xmlns="http://www.w3.org/2000/svg" fill="none" viewBox="0 0 14 14"><g id="dislike-2--reward-down-thumb-hand-social-media-dislike-rating"><path id="Vector" stroke="#000000" stroke-linecap="round" stroke-linejoin="round" d="M2.4975 8.26999h1.5l2.45 3.94001c0.09986 0.1591 0.2385 0.2903 0.4029 0.3813 0.16441 0.0909 0.34921 0.1387 0.5371 0.1387 0.29266 0 0.57349 -0.1156 0.78137 -0.3216 0.20788 -0.206 0.32599 -0.4858 0.32863 -0.7784V8.76999h3.85c0.1661 -0.00107 0.33 -0.03779 0.4806 -0.10767 0.1507 -0.06988 0.2846 -0.17129 0.3927 -0.29739 0.108 -0.12609 0.1878 -0.27392 0.2338 -0.43349 0.046 -0.15958 0.0572 -0.32717 0.0329 -0.49145l-0.8 -4.93999c-0.0341 -0.27576 -0.1678 -0.52957 -0.3759 -0.71371 -0.2081 -0.18415 -0.4762 -0.28596 -0.7541 -0.28629h-9.06" stroke-width="1"></path><path id="Vector_2" stroke="#000000" stroke-linecap="round" stroke-linejoin="round" d="M0.5 8.27002V1.5" stroke-width="1"></path></g></svg>