<svg xmlns="http://www.w3.org/2000/svg" fill="none" viewBox="0 0 14 14"><g id="dislike-circle--reward-social-up-rating-media-dislike-thumb-hand"><path id="Vector" stroke="#000000" stroke-linecap="round" stroke-linejoin="round" d="m4.19 8 1.64 2.66c0.06448 0.1038 0.15431 0.1894 0.26102 0.2489 0.10672 0.0595 0.22681 0.0908 0.34898 0.0911 0.19096 0 0.37409 -0.0759 0.50912 -0.2109 0.13503 -0.135 0.21088 -0.3181 0.21088 -0.5091v-1.9H10c0.1078 -0.00148 0.214 -0.02618 0.3113 -0.0724 0.0974 -0.04622 0.1836 -0.11288 0.2529 -0.19545 0.0693 -0.08256 0.12 -0.17908 0.1486 -0.28299 0.0286 -0.10392 0.0345 -0.21277 0.0172 -0.31916l-0.51 -3.37c-0.0263 -0.17759 -0.1155 -0.33984 -0.25127 -0.45727 -0.13579 -0.11744 -0.3092 -0.18228 -0.48873 -0.18273H4.5" stroke-width="1"></path><path id="Vector_2" stroke="#000000" stroke-linecap="round" stroke-linejoin="round" d="M7 13.5c3.5899 0 6.5 -2.9101 6.5 -6.5C13.5 3.41015 10.5899 0.5 7 0.5 3.41015 0.5 0.5 3.41015 0.5 7c0 3.5899 2.91015 6.5 6.5 6.5Z" stroke-width="1"></path></g></svg>