<svg xmlns="http://www.w3.org/2000/svg" fill="none" viewBox="0 0 14 14"><g id="distribute-center-horizontal"><path id="Vector 734" stroke="#000000" stroke-linecap="round" stroke-linejoin="round" d="m3.5 13.5 0 -3.5" stroke-width="1"></path><path id="Vector 738" stroke="#000000" stroke-linecap="round" stroke-linejoin="round" d="m3.5 4 0 -3.5" stroke-width="1"></path><path id="Vector 736" stroke="#000000" stroke-linecap="round" stroke-linejoin="round" d="m10.5 13.5 0 -1.5" stroke-width="1"></path><path id="Vector 739" stroke="#000000" stroke-linecap="round" stroke-linejoin="round" d="m10.5 2 0 -1.5" stroke-width="1"></path><path id="Vector 735" stroke="#000000" stroke-linecap="round" stroke-linejoin="round" d="m4.5 10 -2 0c-0.55228 0 -1 -0.44772 -1 -1l0 -4c0 -0.55228 0.44771 -1 1 -1l2 0c0.55228 0 1 0.44772 1 1l0 4c0 0.55228 -0.44772 1 -1 1Z" stroke-width="1"></path><path id="Vector 737" stroke="#000000" stroke-linecap="round" stroke-linejoin="round" d="m11.5 12 -2 0c-0.55228 0 -1 -0.4477 -1 -1l0 -8c0 -0.55229 0.44771 -1 1 -1l2 0c0.5523 0 1 0.44772 1 1l0 8c0 0.5523 -0.4477 1 -1 1Z" stroke-width="1"></path></g></svg>