<svg xmlns="http://www.w3.org/2000/svg" fill="none" viewBox="0 0 14 14"><g id="document-setting-gear"><path id="Vector" stroke="#000000" stroke-linecap="round" stroke-linejoin="round" d="M2.5 5V1.5c0 -0.26522 0.10536 -0.51957 0.29289 -0.707107C2.98043 0.605357 3.23478 0.5 3.5 0.5H10L13.5 4v8.5c0 0.2652 -0.1054 0.5196 -0.2929 0.7071s-0.4419 0.2929 -0.7071 0.2929H8" stroke-width="1"></path><path id="Vector_2" stroke="#000000" stroke-linecap="round" stroke-linejoin="round" d="m2.61025 7.84479 0.21615 -0.55798c0.03645 -0.09448 0.10059 -0.17574 0.18401 -0.23314 0.08342 -0.05741 0.18223 -0.08828 0.28349 -0.08858h0.4122c0.10126 0.0003 0.20007 0.03117 0.28349 0.08858 0.08342 0.0574 0.14756 0.13866 0.18401 0.23314l0.21615 0.55798 0.73393 0.42226 0.59317 -0.09049c0.09877 -0.0134 0.19929 0.00285 0.2888 0.04671s0.16395 0.11334 0.21388 0.19961l0.20108 0.35188c0.05152 0.08764 0.07526 0.18885 0.06808 0.29026 -0.00718 0.10141 -0.04494 0.19826 -0.1083 0.27777l-0.36696 0.4675v0.84451l0.37702 0.4675c0.06335 0.0795 0.10112 0.1764 0.10829 0.2778 0.00718 0.1014 -0.01655 0.2026 -0.06808 0.2902l-0.20107 0.3519c-0.04993 0.0863 -0.12438 0.1558 -0.21389 0.1996 -0.0895 0.0439 -0.19003 0.0601 -0.2888 0.0467l-0.59317 -0.0904 -0.73392 0.4222 -0.21616 0.558c-0.03645 0.0945 -0.10059 0.1757 -0.184 0.2331 -0.08342 0.0574 -0.18223 0.0883 -0.28349 0.0886H3.2939c-0.10126 -0.0003 -0.20007 -0.0312 -0.28349 -0.0886 -0.08342 -0.0574 -0.14756 -0.1386 -0.18401 -0.2331l-0.21615 -0.558 -0.73393 -0.4222 -0.59317 0.0904c-0.09877 0.0134 -0.19929 -0.0028 -0.288798 -0.0467 -0.089508 -0.0438 -0.163956 -0.1133 -0.213885 -0.1996l-0.201074 -0.3519c-0.051525 -0.0876 -0.075264 -0.1888 -0.068084 -0.2902 0.00718 -0.1014 0.04494 -0.1983 0.108299 -0.2778l0.366961 -0.4675v-0.84451l-0.377015 -0.4675c-0.063358 -0.07951 -0.101119 -0.17636 -0.108299 -0.27777 -0.007179 -0.10141 0.01656 -0.20262 0.068084 -0.29026l0.201075 -0.35188c0.049928 -0.08627 0.124377 -0.15575 0.213884 -0.19961 0.089512 -0.04386 0.190032 -0.06011 0.288802 -0.04671l0.59317 0.09049 0.74398 -0.42226Z" stroke-width="1"></path><path id="Ellipse 1473" stroke="#000000" stroke-linecap="round" stroke-linejoin="round" d="M3 10.232a0.5 0.5 0 1 0 1 0 0.5 0.5 0 1 0 -1 0" stroke-width="1"></path></g></svg>