<svg xmlns="http://www.w3.org/2000/svg" fill="none" viewBox="0 0 14 14"><g id="dog-2--nature-head-dog-pet-animals-canine"><path id="Rectangle 347" stroke="#000000" stroke-linecap="round" stroke-linejoin="round" d="M3.49998 5.5V13h1.5c1.10457 0 2 -0.8954 2 -2v-1" stroke-width="1"></path><path id="Vector 4520" stroke="#000000" stroke-linecap="round" stroke-linejoin="round" d="M10.5 11c1.3807 0 2.5 -1.11929 2.5 -2.5v-0.30094c0 -0.13254 -0.0094 -0.26491 -0.0282 -0.39612l-0.4812 -3.36863C12.2091 2.46372 10.5214 1 8.53082 1H5.46918c-1.9906 0 -3.67828 1.46372 -3.9598 3.43431l-0.48123 3.36863C1.00941 7.93415 1 8.06652 1 8.19906V8.5C1 9.88071 2.11929 11 3.5 11" stroke-width="1"></path><path id="Vector 1635" stroke="#000000" stroke-linecap="round" stroke-linejoin="round" d="M10.5 5.5V13H8.99998c-1.10456 0 -2 -0.8954 -2 -2v-1" stroke-width="1"></path><path id="Vector 1632" stroke="#000000" stroke-linecap="round" stroke-linejoin="round" d="M8 9H6l1 1 1 -1Z" stroke-width="1"></path><g id="Group 2631"><path id="Vector" stroke="#000000" stroke-linecap="round" stroke-linejoin="round" d="M5.50014 6.00037c-0.13807 0 -0.25 -0.11193 -0.25 -0.25s0.11193 -0.25 0.25 -0.25" stroke-width="1"></path><path id="Vector_2" stroke="#000000" stroke-linecap="round" stroke-linejoin="round" d="M5.50014 6.00037c0.13808 0 0.25 -0.11193 0.25 -0.25s-0.11192 -0.25 -0.25 -0.25" stroke-width="1"></path></g><g id="Group 4558"><path id="Vector_3" stroke="#000000" stroke-linecap="round" stroke-linejoin="round" d="M8.50014 6.00037c-0.13807 0 -0.25 -0.11193 -0.25 -0.25s0.11193 -0.25 0.25 -0.25" stroke-width="1"></path><path id="Vector_4" stroke="#000000" stroke-linecap="round" stroke-linejoin="round" d="M8.50014 6.00037c0.13808 0 0.25 -0.11193 0.25 -0.25s-0.11192 -0.25 -0.25 -0.25" stroke-width="1"></path></g></g></svg>