<svg xmlns="http://www.w3.org/2000/svg" fill="none" viewBox="0 0 14 14"><g id="dog-1--nature-head-dog-pet-animals-canine"><path id="Union" stroke="#000000" stroke-linecap="round" stroke-linejoin="round" d="M8.47309 1C11.2646 1 13.5 3.88263 13.5 6.5v1c0 1.10457 -0.8954 2 -2 2h-0.3266C10.8291 11.458 9.12007 13 7 13s-3.82914 -1.542 -4.17337 -3.5H2.5c-1.10457 0 -2 -0.89543 -2 -2v-1C0.5 3.88263 2.73542 1 5.52691 1h2.94618Z" stroke-width="1"></path><path id="Rectangle 347" stroke="#000000" stroke-linecap="round" stroke-linejoin="round" d="m3.5 4 -0.678 4.06803C2.3917 10.6498 4.38263 13 7 13s4.6083 -2.3502 4.178 -4.93197L10.5 4" stroke-width="1"></path><path id="Vector 1632" stroke="#000000" stroke-linecap="round" stroke-linejoin="round" d="M7.75 9.5h-1.5L7 10l0.75 -0.5Z" stroke-width="1"></path><g id="Group 2631"><path id="Vector" stroke="#000000" stroke-linecap="round" stroke-linejoin="round" d="M5.50014 6.25024c-0.13807 0 -0.25 -0.11192 -0.25 -0.25 0 -0.13807 0.11193 -0.25 0.25 -0.25" stroke-width="1"></path><path id="Vector_2" stroke="#000000" stroke-linecap="round" stroke-linejoin="round" d="M5.50014 6.25024c0.13808 0 0.25 -0.11192 0.25 -0.25 0 -0.13807 -0.11192 -0.25 -0.25 -0.25" stroke-width="1"></path></g><g id="Group 4558"><path id="Vector_3" stroke="#000000" stroke-linecap="round" stroke-linejoin="round" d="M8.50014 6.25024c-0.13807 0 -0.25 -0.11192 -0.25 -0.25 0 -0.13807 0.11193 -0.25 0.25 -0.25" stroke-width="1"></path><path id="Vector_4" stroke="#000000" stroke-linecap="round" stroke-linejoin="round" d="M8.50014 6.25024c0.13808 0 0.25 -0.11192 0.25 -0.25 0 -0.13807 -0.11192 -0.25 -0.25 -0.25" stroke-width="1"></path></g></g></svg>