<svg xmlns="http://www.w3.org/2000/svg" fill="none" viewBox="0 0 14 14"><g id="dollar-decrease--dollar-decrease-arrow-down-fluctuate-investment"><path id="Ellipse 1688" stroke="#000000" stroke-linecap="round" stroke-linejoin="round" d="M10.5 9.24394c1.7478 -0.61775 3 -2.28461 3 -4.24394C13.5 2.51472 11.4853 0.5 9 0.5 6.51472 0.5 4.5 2.51472 4.5 5c0 0.74382 0.18047 1.44548 0.5 2.0636" stroke-width="1"></path><path id="Vector" stroke="#000000" stroke-linecap="round" stroke-linejoin="round" d="m9 13.5 -4 -4L3.5 11l-3 -3" stroke-width="1"></path><path id="Vector_2" stroke="#000000" stroke-linecap="round" stroke-linejoin="round" d="M6 13.5h3v-3" stroke-width="1"></path><path id="Vector 2491" stroke="#000000" stroke-linecap="round" stroke-linejoin="round" d="M10.2765 3.66667c-0.0439 -0.12421 -0.1116 -0.23715 -0.1977 -0.33333C9.89569 3.12875 9.62959 3 9.33342 3h-0.77403c-0.49299 0 -0.89264 0.39965 -0.89264 0.89264 0 0.41948 0.29209 0.78237 0.70188 0.87201l1.17849 0.2578c0.45908 0.10042 0.78628 0.50726 0.78628 0.9772 0 0.55229 -0.44769 1.00037 -0.99998 1.00037h-0.66667c-0.43541 0 -0.80582 -0.27827 -0.9431 -0.66667" stroke-width="1"></path><path id="Vector 2492" stroke="#000000" stroke-linecap="round" stroke-linejoin="round" d="M8.99976 3.00001V2.25" stroke-width="1"></path><path id="Vector 2493" stroke="#000000" stroke-linecap="round" stroke-linejoin="round" d="M8.99976 7.75V7" stroke-width="1"></path></g></svg>