<svg xmlns="http://www.w3.org/2000/svg" fill="none" viewBox="0 0 14 14"><g id="dollar-increase--dollar-increase-arrow-up-fluctuate-investment"><path id="Vector" stroke="#000000" stroke-linecap="round" stroke-linejoin="round" d="m13.5 8 -4 4L8 10.5l-3 3" stroke-width="1"></path><path id="Vector_2" stroke="#000000" stroke-linecap="round" stroke-linejoin="round" d="M10.5 8h3v3" stroke-width="1"></path><path id="Ellipse 1688" stroke="#000000" stroke-linecap="round" stroke-linejoin="round" d="M9.38849 6C9.46147 5.67839 9.5 5.34369 9.5 5 9.5 2.51472 7.48528 0.5 5 0.5S0.5 2.51472 0.5 5 2.51472 9.5 5 9.5c0.34369 0 0.67839 -0.03853 1 -0.11151" stroke-width="1"></path><path id="Vector 2491" stroke="#000000" stroke-linecap="round" stroke-linejoin="round" d="M6.27653 3.66667c-0.04391 -0.12421 -0.11165 -0.23715 -0.19773 -0.33333C5.89569 3.12875 5.62959 3 5.33342 3h-0.77403c-0.49299 0 -0.89264 0.39965 -0.89264 0.89264 0 0.41948 0.29209 0.78237 0.70188 0.87201l1.17849 0.2578c0.45909 0.10042 0.78631 0.50726 0.78631 0.9772 0 0.55229 -0.44772 1.00037 -1.00001 1.00037h-0.66667c-0.43541 0 -0.80582 -0.27827 -0.9431 -0.66667" stroke-width="1"></path><path id="Vector 2492" stroke="#000000" stroke-linecap="round" stroke-linejoin="round" d="M4.99976 3.00001V2.25" stroke-width="1"></path><path id="Vector 2493" stroke="#000000" stroke-linecap="round" stroke-linejoin="round" d="M4.99976 7.75V7" stroke-width="1"></path></g></svg>