<svg xmlns="http://www.w3.org/2000/svg" fill="none" viewBox="0 0 14 14"><g id="double-star--reward-rating-rate-social-star-media-favorite-like-stars"><path id="Vector" stroke="#000000" stroke-linecap="round" stroke-linejoin="round" d="m6 11.6558 -2.4218 1.2799c-0.09091 0.0483 -0.19356 0.0701 -0.29627 0.063 -0.10271 -0.0072 -0.20136 -0.043 -0.28471 -0.1034 -0.08336 -0.0604 -0.14808 -0.1431 -0.1868 -0.2385 -0.03872 -0.0954 -0.04988 -0.1997 -0.03222 -0.3011l0.61 -3.57004c0.01546 -0.08701 0.00892 -0.1765 -0.01902 -0.26033 -0.02795 -0.08383 -0.07641 -0.15935 -0.14098 -0.21967l-2.559998 -2.47c-0.075737 -0.07191 -0.129 -0.16423 -0.153336 -0.26579 -0.024336 -0.10156 -0.0187 -0.20799 0.016223 -0.30642 0.034924 -0.09842 0.097637 -0.1846 0.180544 -0.2481 0.082906 -0.06351 0.182449 -0.10161 0.286569 -0.10969l3.509998 -0.52c0.0886 -0.00982 0.17308 -0.04268 0.24502 -0.09532 0.07193 -0.05264 0.12882 -0.12321 0.16498 -0.20468l1.59 -3.210005c0.0433 -0.093491 0.11244 -0.172644 0.19927 -0.228116 0.08682 -0.055472 0.1877 -0.084947 0.29073 -0.084947 0.10303 0 0.20391 0.029475 0.29074 0.084947 0.08682 0.055472 0.15596 0.134625 0.19926 0.228116l1.59 3.210005c0.03616 0.08147 0.09305 0.15204 0.16499 0.20468 0.07194 0.05264 0.15641 0.0855 0.24501 0.09532l3.51 0.52c0.1016 0.01306 0.1974 0.05477 0.2763 0.12025 0.0788 0.06548 0.1373 0.15204 0.1688 0.24956 0.0314 0.09752 0.0345 0.20197 0.0088 0.30117 -0.0257 0.09919 -0.0791 0.18903 -0.1539 0.25902l-0.7982 0.79189" stroke-width="1"></path><path id="Vector_2" stroke="#000000" stroke-linecap="round" stroke-linejoin="round" d="m10.2574 6.47047 0.86 1.73c0.0192 0.04375 0.0497 0.08162 0.0884 0.10973 0.0386 0.02811 0.0841 0.04545 0.1316 0.05027l1.91 0.29c0.0546 0.0071 0.1061 0.02961 0.1483 0.06488 0.0423 0.03528 0.0737 0.08186 0.0905 0.13431 0.0168 0.05244 0.0183 0.10858 0.0043 0.16185 -0.0139 0.05327 -0.0428 0.10147 -0.0831 0.13896l-1.41 1.34003c-0.021 0.0401 -0.032 0.0847 -0.032 0.13 0 0.0452 0.011 0.0899 0.032 0.13l0.27 1.9c0.0115 0.0549 0.0069 0.112 -0.0134 0.1643s-0.0553 0.0976 -0.1008 0.1304c-0.0455 0.0329 -0.0996 0.0518 -0.1557 0.0545 -0.056 0.0027 -0.1116 -0.0109 -0.1601 -0.0392l-1.7 -0.9c-0.044 -0.0199 -0.0917 -0.0302 -0.14 -0.0302 -0.04827 0 -0.096 0.0103 -0.14 0.0302l-1.7 0.9c-0.04846 0.0283 -0.10409 0.0419 -0.16014 0.0392 -0.05605 -0.0027 -0.11011 -0.0216 -0.15563 -0.0545 -0.04551 -0.0328 -0.08053 -0.0781 -0.10081 -0.1304 -0.02028 -0.0523 -0.02494 -0.1094 -0.01342 -0.1643l0.32 -1.9c0.01376 -0.0441 0.0164 -0.091 0.00768 -0.1363 -0.00873 -0.0454 -0.02854 -0.0879 -0.05768 -0.1237l-1.41 -1.35003c-0.0374 -0.03789 -0.06365 -0.08534 -0.07587 -0.13715 -0.01222 -0.05182 -0.00995 -0.106 0.00658 -0.1566 0.01652 -0.05061 0.04666 -0.09569 0.0871 -0.13031 0.04045 -0.03461 0.08964 -0.05743 0.14219 -0.06594l1.91 -0.28c0.04755 -0.00482 0.09297 -0.02216 0.13163 -0.05027 0.03865 -0.02811 0.06915 -0.06598 0.08837 -0.10973l0.86 -1.73c0.02302 -0.04898 0.05927 -0.09054 0.10467 -0.11998 0.0454 -0.02944 0.09813 -0.0456 0.15223 -0.04664 0.0541 -0.00104 0.1074 0.01308 0.1539 0.04075 0.0465 0.02768 0.0843 0.06781 0.1092 0.11587Z" stroke-width="1"></path></g></svg>