<svg width="20" height="19" viewBox="0 0 20 19" fill="none" xmlns="http://www.w3.org/2000/svg">
<g clip-path="url(#clip0_725_3123)">
<path d="M16.6805 11.2812V15.4375C16.6805 15.7524 16.5554 16.0545 16.3327 16.2772C16.11 16.4999 15.808 16.625 15.493 16.625H3.61804C3.3031 16.625 3.00105 16.4999 2.77835 16.2772C2.55565 16.0545 2.43054 15.7524 2.43054 15.4375V11.2812C2.43054 11.1238 2.4931 10.9728 2.60445 10.8614C2.7158 10.7501 2.86682 10.6875 3.02429 10.6875C3.18176 10.6875 3.33279 10.7501 3.44414 10.8614C3.55549 10.9728 3.61804 11.1238 3.61804 11.2812V15.4375H15.493V11.2812C15.493 11.1238 15.5556 10.9728 15.6669 10.8614C15.7783 10.7501 15.9293 10.6875 16.0868 10.6875C16.2443 10.6875 16.3953 10.7501 16.5066 10.8614C16.618 10.9728 16.6805 11.1238 16.6805 11.2812ZM9.13546 11.7013C9.19061 11.7565 9.25609 11.8003 9.32817 11.8302C9.40025 11.8601 9.47751 11.8755 9.55554 11.8755C9.63357 11.8755 9.71083 11.8601 9.78291 11.8302C9.85499 11.8003 9.92048 11.7565 9.97562 11.7013L12.9444 8.73258C13.0275 8.64954 13.0841 8.5437 13.1071 8.42846C13.13 8.31323 13.1183 8.19377 13.0733 8.08522C13.0283 7.97667 12.9521 7.8839 12.8544 7.81867C12.7567 7.75343 12.6418 7.71866 12.5243 7.71875H10.1493V2.96875C10.1493 2.81128 10.0867 2.66026 9.97539 2.54891C9.86404 2.43756 9.71301 2.375 9.55554 2.375C9.39807 2.375 9.24705 2.43756 9.1357 2.54891C9.02435 2.66026 8.96179 2.81128 8.96179 2.96875V7.71875H6.58679C6.46929 7.71866 6.35441 7.75343 6.25668 7.81867C6.15895 7.8839 6.08278 7.97667 6.0378 8.08522C5.99282 8.19377 5.98106 8.31323 6.00401 8.42846C6.02696 8.5437 6.08358 8.64954 6.16671 8.73258L9.13546 11.7013Z" fill="#01040B"/>
</g>
<defs>
<clipPath id="clip0_725_3123">
<rect width="19" height="19" fill="white" transform="translate(0.055542)"/>
</clipPath>
</defs>
</svg>
