<svg xmlns="http://www.w3.org/2000/svg" fill="none" viewBox="0 0 14 14"><g id="dribble"><path id="Ellipse 22" stroke="#000000" stroke-linecap="round" stroke-linejoin="round" d="M7 0.5C5.61898 0.5 4.33856 0.930685 3.28571 1.66507 1.84212 2.67201 0.826373 4.24991 0.565825 6.07143 0.522445 6.3747 0.5 6.68473 0.5 7c0 2.36444 1.26247 4.434 3.1501 5.5714 0.97829 0.5895 2.12449 0.9286 3.3499 0.9286 1.22541 0 2.37161 -0.3391 3.3499 -0.9286 1.6359 -0.9857 2.8023 -2.67162 3.0843 -4.64283 0.0434 -0.30327 0.0658 -0.6133 0.0658 -0.92857 0 -1.81878 -0.747 -3.46309 -1.9509 -4.64286C10.3767 1.20833 8.77107 0.5 7 0.5Z" stroke-width="1"></path><path id="Ellipse 24" stroke="#000000" stroke-linecap="round" stroke-linejoin="round" d="M0.565918 6.07134c1.216152 0.30953 4.205602 0.74286 6.434172 0 2.22857 -0.74286 3.96131 -2.78571 4.54901 -3.71428" stroke-width="1"></path><path id="Ellipse 23" stroke="#000000" stroke-linecap="round" stroke-linejoin="round" d="M3.28613 1.66504c0.92857 0.54021 3.15715 2.17779 4.64286 4.40636 1.48571 2.22857 2.23331 5.2619 2.42131 6.5" stroke-width="1"></path><path id="Ellipse 25" stroke="#000000" stroke-linecap="round" stroke-linejoin="round" d="M3.65039 12.5713c0.61905 -0.9285 2.8057 -2.9714 4.74276 -3.71426 1.93705 -0.74286 4.01325 -0.92857 5.04135 -0.92857" stroke-width="1"></path></g></svg>