<svg xmlns="http://www.w3.org/2000/svg" fill="none" viewBox="0 0 14 14"><g id="drum-stick--cook-animal-drumsticks-products-chicken-cooking-nutrition-food"><path id="Vector 3068" stroke="#000000" stroke-linecap="round" stroke-linejoin="round" d="m3.63129 9.45706 -1.01451 -0.63407C1.29996 7.99998 0.5 6.55665 0.5 5.00379 0.5 2.51641 2.51641 0.5 5.00379 0.5c1.55286 0 2.99619 0.79996 3.8192 2.11679l0.63407 1.0145c0.3568 0.57088 0.57214 1.21871 0.62804 1.88959 0.2171 2.60538 -1.95884 4.78132 -4.56422 4.56422 -0.67088 -0.0559 -1.31871 -0.27124 -1.88959 -0.62804Z" stroke-width="1"></path><path id="Vector" stroke="#000000" stroke-linecap="round" stroke-linejoin="round" d="M8.5 12c0 -0.5423 0.28783 -1.0174 0.71906 -1.2809L8.01657 9.5166c0.61767 -0.36477 1.13523 -0.88233 1.5 -1.5l1.20253 1.20249c0.2634 -0.43123 0.7386 -0.71906 1.2809 -0.71906 0.8284 0 1.5 0.67157 1.5 1.49997 0 0.8285 -0.6716 1.5 -1.5 1.5 -0.2312 0 -0.4501 -0.0523 -0.6457 -0.1457 0.0934 0.1956 0.1457 0.4145 0.1457 0.6457 0 0.8285 -0.6716 1.5 -1.5 1.5 -0.82843 0 -1.5 -0.6715 -1.5 -1.5Z" stroke-width="1"></path></g></svg>