<svg xmlns="http://www.w3.org/2000/svg" fill="none" viewBox="0 0 14 14"><g id="ear-speciality--hearing-health-medical-ear-speciality"><path id="Vector 639" stroke="#000000" stroke-linecap="round" stroke-linejoin="round" d="M2.25146 3.64396C2.771 2.23152 4.06885 0.638855 6.3223 0.638855c3.03655 0 4.698 2.205615 4.698 4.384405 0 2.11604 -1.31307 3.48177 -2.30962 4.21358 -0.62829 0.46138 -1.3288 1.00526 -1.3288 1.91576 0 2.2977 -2.9342 3.0787 -4.1767 0.6647" stroke-width="1"></path><path id="Vector 640" stroke="#000000" stroke-linecap="round" stroke-linejoin="round" d="M4.30024 4.84895c0.22836 -0.62083 0.79882 -1.32087 1.78931 -1.32087 1.33469 0 2.06496 0.96946 2.06496 1.92713 0 0.93009 -0.53555 1.14145 -0.97357 1.46311 -0.27617 0.2028 -1.09143 0.355 -1.09139 1.9525 0.00002 1.00993 -1.59298 1.70008 -2.13911 0.639" stroke-width="1"></path></g></svg>