<svg xmlns="http://www.w3.org/2000/svg" fill="none" viewBox="0 0 14 14"><g id="ear-hearing--health-medical-hearing-ear"><path id="Vector 1115" stroke="#000000" stroke-linecap="round" stroke-linejoin="round" d="M0.540283 3.18944C0.854053 2.29296 2.08864 0.5 4.51682 0.5c3.03522 0 4.77721 2.57969 4.24547 4.99468 -0.46105 2.09392 -1.76735 2.82391 -2.34366 3.32338 -0.84188 0.72963 -0.84164 1.32494 -1.14699 2.28794 -0.17662 0.5571 -0.79033 1.3514 -1.64521 1.4493 -0.61955 0.0709 -1.36575 -0.2239 -2.16405 -1.2399" stroke-width="1"></path><path id="Ellipse 343" stroke="#000000" stroke-linecap="round" stroke-linejoin="round" d="M13.4999 9.78571C13.4999 11.837 11.837 13.5 9.78564 13.5" stroke-width="1"></path><path id="Ellipse 345" stroke="#000000" stroke-linecap="round" stroke-linejoin="round" d="M11.7831 9.71556c0 1.10314 -0.8943 1.99744 -1.99746 1.99744" stroke-width="1"></path><path id="Ellipse 344" stroke="#000000" stroke-linecap="round" stroke-linejoin="round" d="M10.1222 9.15981c0 0.51283 -0.41576 0.92859 -0.9286 0.92859" stroke-width="1"></path><path id="Vector 1116" stroke="#000000" stroke-linecap="round" stroke-linejoin="round" d="M2.34618 4.49576c0.18179 -0.44891 0.83025 -1.32536 1.96982 -1.23982 1.13958 0.08554 2.11805 1.23982 1.71463 2.31082 -0.40341 1.07101 -0.93658 0.73946 -1.42156 1.45999 -0.48498 0.72053 -0.30383 2.16621 -1.38315 2.38207 -0.67236 0.13447 -1.02548 -0.25136 -1.02548 -0.25136" stroke-width="1"></path></g></svg>