<svg xmlns="http://www.w3.org/2000/svg" fill="none" viewBox="0 0 14 14"><g id="electric-car"><path id="Vector 4516" stroke="#000000" stroke-linecap="round" stroke-linejoin="round" d="m3 0.5 -2.5 3H4l-2.5 3" stroke-width="1"></path><path id="Vector 4508" stroke="#000000" stroke-linecap="round" stroke-linejoin="round" d="M12 8H4c-0.82843 0 -1.5 0.67157 -1.5 1.5V11c0 0.5523 0.44771 1 1 1h9c0.5523 0 1 -0.4477 1 -1V9.5c0 -0.82843 -0.6716 -1.5 -1.5 -1.5Z" stroke-width="1"></path><path id="Vector 4509" stroke="#000000" stroke-linecap="round" stroke-linejoin="round" d="M4.5 12v1.5" stroke-width="1"></path><path id="Vector 4510" stroke="#000000" stroke-linecap="round" stroke-linejoin="round" d="M11.5 12v1.5" stroke-width="1"></path><path id="Vector 4511" stroke="#000000" stroke-linecap="round" stroke-linejoin="round" d="M5 10h1" stroke-width="1"></path><path id="Vector 4512" stroke="#000000" stroke-linecap="round" stroke-linejoin="round" d="M10 10h1" stroke-width="1"></path><path id="Vector 4513" stroke="#000000" stroke-linecap="round" stroke-linejoin="round" d="M4.50469 6.21716 4.25 8h7.5l-0.2547 -1.78284C11.3546 5.23186 10.5107 4.5 9.51541 4.5H6.48459c-0.9953 0 -1.83914 0.73186 -1.9799 1.71716Z" stroke-width="1"></path></g></svg>