<svg xmlns="http://www.w3.org/2000/svg" fill="none" viewBox="0 0 14 14"><g id="elevator"><path id="Vector 4971" stroke="#000000" stroke-linecap="round" stroke-linejoin="round" d="M12 1H2c-0.55228 0 -1 0.44772 -1 1v10c0 0.5523 0.44772 1 1 1h10c0.5523 0 1 -0.4477 1 -1V2c0 -0.55228 -0.4477 -1 -1 -1Z" stroke-width="1"></path><path id="Vector 4972" stroke="#000000" stroke-linecap="round" stroke-linejoin="round" d="M3.5 7v6h7V7c0 -0.27614 -0.2239 -0.5 -0.5 -0.5H4c-0.27614 0 -0.5 0.22386 -0.5 0.5Z" stroke-width="1"></path><path id="Vector 4974" stroke="#000000" stroke-linecap="round" stroke-linejoin="round" d="M3.5 4.25 4.75 3 6 4.25" stroke-width="1"></path><path id="Vector 4975" stroke="#000000" stroke-linecap="round" stroke-linejoin="round" d="m8 3 1.25 1.25L10.5 3" stroke-width="1"></path><path id="Vector 4973" stroke="#000000" stroke-linecap="round" stroke-linejoin="round" d="M7 6.5V13" stroke-width="1"></path></g></svg>