<svg xmlns="http://www.w3.org/2000/svg" fill="none" viewBox="0 0 14 14"><g id="email-attachment-document--mail-send-email-attachment-file-paperclip"><path id="Vector" stroke="#000000" stroke-linecap="round" stroke-linejoin="round" d="M3 9.5v2.75c0 0.3315 -0.1317 0.6495 -0.36612 0.8839 -0.23442 0.2344 -0.55236 0.3661 -0.88388 0.3661 -0.33152 0 -0.64946 -0.1317 -0.883883 -0.3661C0.631696 12.8995 0.5 12.5815 0.5 12.25V9c0 -0.66304 0.263392 -1.29893 0.73223 -1.76777C1.70107 6.76339 2.33696 6.5 3 6.5c0.66304 0 1.29893 0.26339 1.76777 0.73223C5.23661 7.70107 5.5 8.33696 5.5 9v3.5" stroke-width="1"></path><path id="Vector_2" stroke="#000000" stroke-linecap="round" stroke-linejoin="round" d="M2.5 4V1.5c0 -0.26522 0.10536 -0.51957 0.29289 -0.707107C2.98043 0.605357 3.23478 0.5 3.5 0.5H10L13.5 4v8.5c0 0.2652 -0.1054 0.5196 -0.2929 0.7071s-0.4419 0.2929 -0.7071 0.2929h-5" stroke-width="1"></path></g></svg>