<svg xmlns="http://www.w3.org/2000/svg" fill="none" viewBox="0 0 14 14"><g id="emergency-call--health-medical-ambulance-emergency-call"><path id="Union" stroke="#000000" stroke-linecap="round" stroke-linejoin="round" d="M9.80915 0.687523c-0.27614 0 -0.5 0.223857 -0.5 0.499997v1.18415l-1.18415 0c-0.27614 0 -0.5 0.22386 -0.5 0.5l0 1.31915c0 0.27615 0.22386 0.5 0.5 0.5h1.18415v1.18415c0 0.27615 0.22386 0.5 0.5 0.5h1.31915c0.2761 0 0.5 -0.22385 0.5 -0.5V4.69083h1.1842c0.2761 0 0.5 -0.22386 0.5 -0.50001V2.87167c0 -0.27614 -0.2239 -0.5 -0.5 -0.5l-1.1842 0V1.18752c0 -0.276139 -0.2239 -0.499997 -0.5 -0.499997H9.80915Z" stroke-width="1"></path><path id="Vector" stroke="#000000" stroke-linecap="round" stroke-linejoin="round" d="M7.13196 12.9537c0.49181 0.3173 1.07787 0.4555 1.65964 0.3915 0.58177 -0.064 1.12376 -0.3263 1.5348 -0.7429l0.3594 -0.3514c0.1576 -0.1612 0.2458 -0.3776 0.2458 -0.603s-0.0882 -0.4418 -0.2458 -0.6029L9.16046 9.53557c-0.15981 -0.15706 -0.37491 -0.24506 -0.59897 -0.24506 -0.22406 0 -0.43916 0.088 -0.59897 0.24506 -0.16115 0.15755 -0.37758 0.24577 -0.60296 0.24577 -0.22537 0 -0.4418 -0.08822 -0.60296 -0.24577L4.36074 7.1397c-0.07993 -0.07876 -0.1434 -0.17263 -0.18672 -0.27614 -0.04332 -0.10352 -0.06563 -0.21461 -0.06563 -0.32682s0.02231 -0.2233 0.06563 -0.32682c0.04332 -0.10351 0.10679 -0.19738 0.18672 -0.27614 0.15705 -0.15981 0.24505 -0.3749 0.24505 -0.59897 0 -0.22406 -0.088 -0.43916 -0.24505 -0.59896L2.84335 3.21846c-0.16115 -0.15755 -0.37758 -0.24577 -0.60295 -0.24577 -0.22538 0 -0.44181 0.08822 -0.60296 0.24577l-0.3514 0.35938c-0.416603 0.41109 -0.67896 0.95308 -0.742954 1.53485 -0.063995 0.58177 0.074276 1.16783 0.391562 1.65964C2.58783 9.20871 4.69132 11.3068 7.13196 12.9537Z" stroke-width="1"></path></g></svg>