<svg xmlns="http://www.w3.org/2000/svg" fill="none" viewBox="0 0 14 14"><g id="empty-gas--empty-gas-station"><path id="Vector 2363" stroke="#000000" stroke-linecap="round" stroke-linejoin="round" d="M1 4v8c0 0.5523 0.44772 1 1 1h5.5c0.55228 0 1 -0.4477 1 -1v-0.5" stroke-width="1"></path><path id="Vector 2364" stroke="#000000" stroke-linecap="round" stroke-linejoin="round" d="M1.85794 1.85793C2.18174 1.6323 2.57543 1.5 3.00001 1.5h3.5c1.10457 0 2 0.89543 2 2v5" stroke-width="1"></path><path id="Vector 1965" stroke="#000000" stroke-linecap="round" stroke-linejoin="round" d="M4.5 4.5h4" stroke-width="1"></path><path id="Vector 1966" stroke="#000000" stroke-linecap="round" stroke-linejoin="round" d="M1 7.5h3.5" stroke-width="1"></path><path id="Vector 1967" stroke="#000000" stroke-linecap="round" stroke-linejoin="round" d="M13 1.5 10.5 4v2.875c0 0.34518 0.2798 0.625 0.625 0.625C12.1605 7.5 13 8.33947 13 9.375V9.5c0 0.9501 -0.6625 1.7454 -1.5507 1.9493" stroke-width="1"></path><path id="Vector 1969" stroke="#000000" stroke-linecap="round" stroke-linejoin="round" d="M10.5 5.5h1.75V2.25" stroke-width="1"></path><path id="Vector 2362" stroke="#000000" stroke-linecap="round" stroke-linejoin="round" d="M3 9.75v1" stroke-width="1"></path><path id="Vector" stroke="#000000" stroke-linecap="round" stroke-linejoin="round" d="M0.502522 0.502441 13.4976 13.4975" stroke-width="1"></path></g></svg>