<svg xmlns="http://www.w3.org/2000/svg" fill="none" viewBox="0 0 14 14"><g id="empty-recycle-bin-1--remove-delete-empty-bin-trash-garbage-undo-put-back"><path id="Vector" stroke="#000000" stroke-linecap="round" stroke-linejoin="round" d="M0.5 3.5h12" stroke-width="1"></path><path id="Vector_2" stroke="#000000" stroke-linecap="round" stroke-linejoin="round" d="M7 13.5H3c-0.26522 0 -0.51957 -0.1054 -0.70711 -0.2929C2.10536 13.0196 2 12.7652 2 12.5v-9h9V7" stroke-width="1"></path><path id="Vector_3" stroke="#000000" stroke-linecap="round" stroke-linejoin="round" d="M4 3.5V3c0 -0.66304 0.26339 -1.29893 0.73223 -1.76777C5.20107 0.763392 5.83696 0.5 6.5 0.5c0.66304 0 1.29893 0.263392 1.76777 0.73223C8.73661 1.70107 9 2.33696 9 3v0.5" stroke-width="1"></path><path id="Vector_4" stroke="#000000" stroke-linecap="round" stroke-linejoin="round" d="M6.5 9.5h5c0.5304 0 1.0391 0.21071 1.4142 0.5858 0.3751 0.3751 0.5858 0.8838 0.5858 1.4142 0 0.5304 -0.2107 1.0391 -0.5858 1.4142S12.0304 13.5 11.5 13.5H10" stroke-width="1"></path><path id="Vector_5" stroke="#000000" stroke-linecap="round" stroke-linejoin="round" d="m8.5 11.5 -2 -2 2 -2" stroke-width="1"></path></g></svg>