<svg xmlns="http://www.w3.org/2000/svg" fill="none" viewBox="0 0 14 14"><g id="explorer"><path id="Ellipse 55" stroke="#000000" stroke-linecap="round" stroke-linejoin="round" d="M12.8481 4.34279c0.7191 -1.53942 0.8512 -2.81038 0.225 -3.439863 -1.2357 -1.242235 -4.95656 0.484103 -8.3107 3.855883C1.40827 8.13059 -0.309037 11.871 0.926697 13.1132c0.640723 0.6441 2.272353 0.4971 3.835703 -0.5413" stroke-width="1"></path><path id="Ellipse 54" stroke="#000000" stroke-linecap="round" stroke-linejoin="round" d="M7.52548 3.3111c-1.56603 0 -2.83554 1.1531 -2.83554 2.57552H10.361c0 -1.42242 -1.2695 -2.57552 -2.83552 -2.57552Z" stroke-width="1"></path><path id="Union" stroke="#000000" stroke-linecap="round" stroke-linejoin="round" d="M13.2985 7.89118c0.0206 -0.22731 0.0311 -0.45965 0.0311 -0.69651 0 -3.73904 -2.1575 -5.8342 -5.57186 -5.86671 -3.59595 -0.03424 -6.02922 2.22646 -6.02922 5.86841 0 4.13933 2.58198 5.89953 6.02922 5.86673 2.63526 -0.0251 4.49566 -1.4654 5.22726 -3.64941H9.89406c-0.51647 0.63451 -1.34611 1.04591 -2.28155 1.04591 -1.56603 0 -2.83554 -1.15306 -2.83554 -2.57549h8.52223" stroke-width="1"></path></g></svg>