<svg xmlns="http://www.w3.org/2000/svg" fill="none" viewBox="0 0 14 14"><g id="facebook-2--media-facebook-social"><path id="Vector" stroke="#000000" stroke-linecap="round" stroke-linejoin="round" d="M7.99992 3.98693c0 -1.00138 0.5 -1.00138 1 -1.00138h0.6c0.10018 0.00135 0.19961 -0.01742 0.29242 -0.05519 0.09282 -0.03776 0.17716 -0.09377 0.24796 -0.16471 0.0709 -0.07094 0.1268 -0.15537 0.1645 -0.24832 0.0377 -0.09294 0.0565 -0.19251 0.0551 -0.29282v-0.9413c0 -0.10079 -0.02 -0.20057 -0.0588 -0.293568 -0.0388 -0.092993 -0.0957 -0.177339 -0.1673 -0.248141 -0.0716 -0.070802 -0.1566 -0.12665 -0.24997 -0.164302 -0.09336 -0.037652 -0.19327 -0.056358 -0.29391 -0.055031l-1.42 -0.020028c-0.41347 -0.016014 -0.82549 0.058003 -1.20761 0.216944 -0.38213 0.158941 -0.72526 0.399016 -1.00572 0.703666 -0.28046 0.30465 -0.49157 0.66661 -0.61875 1.0609 -0.12719 0.39429 -0.16742 0.81152 -0.11792 1.22289v1.452h-0.79c-0.20156 0 -0.39487 0.08018 -0.5374 0.2229 -0.14253 0.14273 -0.2226 0.3363 -0.2226 0.53814v0.9413c0 0.20184 0.08007 0.39541 0.2226 0.53814 0.14253 0.14272 0.33584 0.2229 0.5374 0.2229h0.79v5.37738c0 0.1328 0.05268 0.2602 0.14645 0.3541 0.09377 0.0939 0.22094 0.1466 0.35355 0.1466h1.81c0.12734 -0.0077 0.24694 -0.0638 0.33432 -0.1569 0.08737 -0.093 0.13591 -0.216 0.13568 -0.3438V7.62192h0.88c0.20157 0 0.39488 -0.08018 0.5374 -0.2229 0.14253 -0.14273 0.2226 -0.3363 0.2226 -0.53814v-0.9413c0 -0.20184 -0.08007 -0.39541 -0.2226 -0.53814 -0.14252 -0.14272 -0.33583 -0.2229 -0.5374 -0.2229h-0.88V3.98693Z" stroke-width="1"></path></g></svg>