<svg xmlns="http://www.w3.org/2000/svg" fill="none" viewBox="0 0 14 14"><g id="factory-plant--business-factory-plant"><path id="Vector" stroke="#000000" stroke-linecap="round" stroke-linejoin="round" d="M5.71032 6.19915v3.484h7.21188c0.1533 0 0.3002 0.06088 0.4086 0.16923 0.1083 0.10835 0.1692 0.25532 0.1692 0.40852v3.1778H0.5V8.38662c0.000037 -0.09087 0.021507 -0.18046 0.062668 -0.26147 0.04116 -0.08102 0.10085 -0.15118 0.174221 -0.2048l4.054761 -2.1892c0.08624 -0.06302 0.18827 -0.1009 0.29475 -0.10943 0.10647 -0.00853 0.21323 0.01262 0.30841 0.06111 0.09518 0.04849 0.17505 0.12241 0.23075 0.21356 0.0557 0.09114 0.08504 0.19595 0.08476 0.30276Z" stroke-width="1"></path><path id="Vector_2" stroke="#000000" stroke-linecap="round" stroke-linejoin="round" d="M12.2235 9.66763 11.4968 0.583496H9.31657L8.58984 9.66763" stroke-width="1"></path><path id="Vector_3" stroke="#000000" stroke-linecap="round" stroke-linejoin="round" d="M9.06641 3.78564h2.67729" stroke-width="1"></path><path id="Vector_4" stroke="#000000" stroke-linecap="round" stroke-linejoin="round" d="M1 1.16093c2.5 2 3.5 -1.999999 6 0" stroke-width="1"></path><path id="Vector_5" stroke="#000000" stroke-linecap="round" stroke-linejoin="round" d="M1 3.42582c2.5 2 3.5 -2 6 0" stroke-width="1"></path><path id="Vector 590" stroke="#000000" stroke-linecap="round" stroke-linejoin="round" d="m3.1875 13.4387 0 -2.1684" stroke-width="1"></path></g></svg>