<svg xmlns="http://www.w3.org/2000/svg" fill="none" viewBox="0 0 14 14"><g id="favorite-star-playlist--favorite-star-playlist-bookmark-like-song-entertainment"><path id="Vector" stroke="#000000" stroke-linecap="round" stroke-linejoin="round" d="m4.14847 0.65228 0.83591 1.68154c0.01869 0.04253 0.04833 0.07933 0.0859 0.10665 0.03757 0.02733 0.08172 0.04419 0.12793 0.04886l1.8565 0.28188c0.05307 0.00691 0.10309 0.02878 0.14419 0.06307 0.0411 0.03429 0.07159 0.07956 0.0879 0.13054 0.01631 0.05098 0.01777 0.10555 0.00421 0.15732 -0.01356 0.05178 -0.04158 0.09863 -0.08078 0.13506l-1.3705 1.30247c-0.02044 0.03898 -0.03112 0.08234 -0.03112 0.12635 0 0.04402 0.01068 0.08738 0.03112 0.12636l0.26243 1.84678c0.0112 0.05338 0.00667 0.10886 -0.01304 0.15972 -0.01971 0.05085 -0.05375 0.0949 -0.09799 0.1268 -0.04424 0.03189 -0.09679 0.05027 -0.15127 0.05289 -0.05448 0.00263 -0.10855 -0.0106 -0.15565 -0.0381l-1.65238 -0.87478c-0.04276 -0.01933 -0.08915 -0.02932 -0.13608 -0.02932 -0.04692 0 -0.09331 0.00999 -0.13608 0.02932l-1.65237 0.87478c-0.04711 0.0275 -0.10118 0.04073 -0.15566 0.0381 -0.05448 -0.00262 -0.10702 -0.021 -0.15127 -0.05289 -0.04424 -0.0319 -0.07828 -0.07595 -0.09799 -0.1268 -0.01971 -0.05086 -0.02424 -0.10634 -0.01304 -0.15972l0.31104 -1.84678c0.01337 -0.04286 0.01593 -0.08837 0.00746 -0.13246 -0.00848 -0.0441 -0.02774 -0.08541 -0.05606 -0.12025L0.581277 3.24748c-0.036352 -0.03682 -0.061866 -0.08294 -0.073747 -0.1333 -0.01188 -0.05037 -0.009668 -0.10303 0.006393 -0.15222 0.016062 -0.04919 0.045354 -0.093 0.084666 -0.12665 0.039312 -0.03365 0.087127 -0.05582 0.138206 -0.0641l1.856495 -0.27216c0.04622 -0.00467 0.09037 -0.02153 0.12793 -0.04886 0.03757 -0.02732 0.06722 -0.06412 0.08591 -0.10665L3.64304 0.662c0.02236 -0.047601 0.0576 -0.087995 0.10173 -0.116614 0.04412 -0.02862 0.09538 -0.044323 0.14796 -0.045334 0.05259 -0.001011 0.1044 0.01271 0.1496 0.039611 0.04519 0.026902 0.08196 0.065911 0.10614 0.112617Z" stroke-width="1"></path><path id="Vector_2" stroke="#000000" stroke-linecap="round" stroke-linejoin="round" d="M7.5 13.5c1.10457 0 2 -0.8954 2 -2s-0.89543 -2 -2 -2 -2 0.8954 -2 2 0.89543 2 2 2Z" stroke-width="1"></path><path id="Vector 3107" stroke="#000000" stroke-linecap="round" stroke-linejoin="round" d="M9.5 11.5v-9c2.2091 0 4 1.79086 4 4v0" stroke-width="1"></path></g></svg>