<svg width="14" height="14" viewBox="0 0 14 14" fill="none" xmlns="http://www.w3.org/2000/svg">
<path d="M2.5354 2.75883C2.5354 1.64939 3.43479 0.75 4.54424 0.75H6.99948V4.76767H4.54424C3.43479 4.76767 2.5354 3.86828 2.5354 2.75883Z" stroke="#01040B" stroke-linecap="round" stroke-linejoin="round"/>
<path d="M11.4643 2.75883C11.4643 1.64939 10.565 0.75 9.45548 0.75H7.00024V4.76767H9.45548C10.565 4.76767 11.4643 3.86828 11.4643 2.75883Z" stroke="#01040B" stroke-linecap="round" stroke-linejoin="round"/>
<path d="M11.4636 6.99937C11.4636 5.76665 10.4643 4.76733 9.23155 4.76733C7.99883 4.76733 6.99951 5.76665 6.99951 6.99937C6.99951 8.23209 7.99883 9.23141 9.23155 9.23141C10.4643 9.23141 11.4636 8.23209 11.4636 6.99937Z" stroke="#01040B" stroke-linecap="round" stroke-linejoin="round"/>
<path d="M2.5354 11.2413C2.5354 10.1318 3.43479 9.23242 4.54424 9.23242H6.99948V11.0181C6.99948 12.2508 6.00016 13.2501 4.76744 13.2501H4.54424C3.43479 13.2501 2.5354 12.3507 2.5354 11.2413Z" stroke="#01040B" stroke-linecap="round" stroke-linejoin="round"/>
<path d="M2.5354 6.99962C2.5354 5.7669 3.53472 4.76758 4.76744 4.76758H6.99948V9.23165H4.76744C3.53472 9.23165 2.5354 8.23234 2.5354 6.99962Z" stroke="#01040B" stroke-linecap="round" stroke-linejoin="round"/>
</svg>
