<svg xmlns="http://www.w3.org/2000/svg" fill="none" viewBox="0 0 14 14"><g id="file-lock"><path id="Vector" stroke="#000000" stroke-linecap="round" stroke-linejoin="round" d="m2.5 4.5 0 -3c0 -0.26522 0.10536 -0.51957 0.29289 -0.707107C2.98043 0.605357 3.23478 0.5 3.5 0.5H10L13.5 4v8.5c0 0.2652 -0.1054 0.5196 -0.2929 0.7071s-0.4419 0.2929 -0.7071 0.2929H8" stroke-width="1"></path><path id="Vector 3864" stroke="#000000" stroke-linecap="round" stroke-linejoin="round" d="M1.25 10V8.75C1.25 7.7835 2.0335 7 3 7v0c0.9665 0 1.75 0.7835 1.75 1.75V10" stroke-width="1"></path><path id="Vector 3865" stroke="#000000" stroke-linecap="round" stroke-linejoin="round" d="M0.5 13v-2.5c0 -0.2761 0.223858 -0.5 0.5 -0.5h4c0.27614 0 0.5 0.2239 0.5 0.5V13c0 0.2761 -0.22386 0.5 -0.5 0.5H1c-0.276142 0 -0.5 -0.2239 -0.5 -0.5Z" stroke-width="1"></path></g></svg>