<svg xmlns="http://www.w3.org/2000/svg" fill="none" viewBox="0 0 14 14"><g id="finder"><path id="Rectangle 444" stroke="#000000" stroke-linecap="round" stroke-linejoin="round" d="M0.998047 3.57228c0 -1.4206 1.151623 -2.57222 2.572213 -2.57222h6.85924c1.4206 0 2.5722 1.15162 2.5722 2.57222v6.85922c0 1.4206 -1.1516 2.5722 -2.5722 2.5722H3.57026c-1.42059 0 -2.572213 -1.1516 -2.572213 -2.5722V3.57228Z" stroke-width="1"></path><path id="Vector 866" stroke="#000000" stroke-linecap="round" stroke-linejoin="round" d="M8.71479 1.00006C7.42869 2.28617 6.14258 5.37283 6.14258 7.4306h1.28611c0 2.14351 0.4287 4.287 0.8574 5.5731" stroke-width="1"></path><path id="Vector 867" stroke="#000000" stroke-linecap="round" stroke-linejoin="round" d="M10.001 4.42969V5.7158" stroke-width="1"></path><path id="Vector 869" stroke="#000000" stroke-linecap="round" stroke-linejoin="round" d="M3.99902 4.42969V5.7158" stroke-width="1"></path><path id="Vector 868" stroke="#000000" stroke-linecap="round" stroke-linejoin="round" d="M3.57031 9.57404c0.57161 0.2858 2.05777 0.85736 3.42962 0.85736 1.37185 0 2.85802 -0.57156 3.42967 -0.85736" stroke-width="1"></path></g></svg>