<svg xmlns="http://www.w3.org/2000/svg" fill="none" viewBox="0 0 14 14"><g id="fingerprint-scan-2--identification-touch-id-secure-security-fingerprint-scan-finger-security"><path id="Vector 3952" stroke="#000000" stroke-linecap="round" stroke-linejoin="round" d="M7 11c1.65685 0 3 -1.34315 3 -3V6c0 -0.35064 -0.06015 -0.68722 -0.17071 -1" stroke-width="1"></path><path id="Vector 3954" stroke="#000000" stroke-linecap="round" stroke-linejoin="round" d="M4 7v1c0 1.00387 0.49307 1.89258 1.25025 2.4372" stroke-width="1"></path><path id="Vector 3955" stroke="#000000" stroke-linecap="round" stroke-linejoin="round" d="M8.58997 3.45552C8.12901 3.16686 7.58399 3 7 3c-1.40316 0 -2.58133 0.96332 -2.90923 2.26469" stroke-width="1"></path><path id="Vector 3953" stroke="#000000" stroke-linecap="round" stroke-linejoin="round" d="M6.57117 5.09636C6.70113 5.03457 6.84653 5 7 5c0.55228 0 1 0.44772 1 1v1" stroke-width="1"></path><path id="Vector 3956" stroke="#000000" stroke-linecap="round" stroke-linejoin="round" d="M6 6.5V8c0 0.55228 0.44772 1 1 1 0.29957 0 0.56837 -0.13172 0.75164 -0.34041" stroke-width="1"></path><path id="Vector" stroke="#000000" stroke-linecap="round" stroke-linejoin="round" d="M13 10v2c0 0.2652 -0.1054 0.5196 -0.2929 0.7071S12.2652 13 12 13h-2" stroke-width="1"></path><path id="Vector_2" stroke="#000000" stroke-linecap="round" stroke-linejoin="round" d="M10 1h2c0.2652 0 0.5196 0.10536 0.7071 0.29289C12.8946 1.48043 13 1.73478 13 2v2" stroke-width="1"></path><path id="Vector_3" stroke="#000000" stroke-linecap="round" stroke-linejoin="round" d="M1 4V2c0 -0.26522 0.10536 -0.51957 0.29289 -0.70711C1.48043 1.10536 1.73478 1 2 1h2" stroke-width="1"></path><path id="Vector_4" stroke="#000000" stroke-linecap="round" stroke-linejoin="round" d="M4 13H2c-0.26522 0 -0.51957 -0.1054 -0.70711 -0.2929C1.10536 12.5196 1 12.2652 1 12v-2" stroke-width="1"></path></g></svg>