<svg xmlns="http://www.w3.org/2000/svg" fill="none" viewBox="0 0 14 14"><g id="fingers-cross"><path id="Vector 107" stroke="#000000" stroke-linecap="round" stroke-linejoin="round" d="M7.17663 5.88623c2.18532 0.28198 5.07177 1.29579 4.75837 3.20748 -0.1818 1.10899 -0.282 2.96079 -1.7624 4.40589" stroke-width="1"></path><path id="Vector 536" stroke="#000000" stroke-linecap="round" stroke-linejoin="round" d="M3.77575 13.4982c-2.00193 -0.7983 -2.31218 -2.8244 -2.2196 -4.23935 0.05791 -0.88512 0.86146 -1.50165 1.74848 -1.50165l3.23424 0c0.58263 0.00001 1.05495 0.47232 1.05495 1.05495 0 0.48788 -0.33454 0.91212 -0.80898 1.02587l-1.82731 0.43818c0.57574 -0.0944 1.89085 0.4866 1.93934 1.7543" stroke-width="1"></path><path id="Vector 543" stroke="#000000" stroke-linecap="round" stroke-linejoin="round" d="M5.18425 2.97561 4.2936 1.21244C3.96691 0.5657 3.17368 0.312084 2.53238 0.649325c-0.61537 0.323609 -0.86607 1.074925 -0.56833 1.703225l1.92641 4.0652" stroke-width="1"></path><path id="Vector 544" stroke="#000000" stroke-linecap="round" stroke-linejoin="round" d="m3.40723 7.73323 2.05528 -5.36864c0.28312 -0.73954 1.10378 -1.09073 1.8343 -0.78497 0.73171 0.30627 1.09603 1.15563 0.81361 1.89687L6.48858 7.73323" stroke-width="1"></path></g></svg>