<svg xmlns="http://www.w3.org/2000/svg" fill="none" viewBox="0 0 14 14"><g id="fingerprint-scan-1--touch-id-identification-hand-finger-circle-fingerprint"><path id="Vector 3720" stroke="#000000" stroke-linecap="round" stroke-linejoin="round" d="M5.5 13.5V8.25C5.5 7.55964 6.05964 7 6.75 7v0C7.44036 7 8 7.55964 8 8.25V11h2c1.1046 0 2 0.8954 2 2v0.5" stroke-width="1"></path><path id="Vector" stroke="#000000" stroke-linecap="round" stroke-linejoin="round" d="M3.39 8.60995c-0.66395 -0.66443 -1.11599 -1.51081 -1.29898 -2.43212 -0.183 -0.92132 -0.08873 -1.8762 0.27089 -2.74395 0.35962 -0.86774 0.96844 -1.60938 1.7495 -2.13116C4.89247 0.780935 5.81069 0.502441 6.75 0.502441c0.93931 0 1.85754 0.278494 2.63859 0.800279 0.78111 0.52178 1.38991 1.26342 1.74951 2.13116 0.3596 0.86775 0.4539 1.82263 0.2709 2.74395 -0.183 0.92131 -0.6351 1.76769 -1.299 2.43212" stroke-width="1"></path></g></svg>