<svg xmlns="http://www.w3.org/2000/svg" fill="none" viewBox="0 0 14 14"><g id="finger-snapping"><path id="Vector 4439" stroke="#000000" stroke-linecap="round" stroke-linejoin="round" d="m6 0.5 1 1" stroke-width="1"></path><path id="Vector 4438" stroke="#000000" stroke-linecap="round" stroke-linejoin="round" d="m10.5 0.5 -1 1" stroke-width="1"></path><path id="Vector 4437" stroke="#000000" stroke-linecap="round" stroke-linejoin="round" d="M12 13.5V5.19258C12 4.53394 11.4661 4 10.8074 4v0c-0.4876 0 -0.92616 0.29689 -1.10727 0.74967L9 6.5 3.54697 2.72483c-0.58454 -0.40469 -1.38443 -0.27488 -1.81101 0.29389v0c-0.41512 0.5535 -0.33353 1.3334 0.18716 1.78901L5 7.5 3.42201 9.34099c-0.76419 0.89151 -0.59948 2.24651 0.35604 2.92901L5.5 13.5" stroke-width="1"></path><path id="Vector 4512" stroke="#000000" stroke-linecap="round" stroke-linejoin="round" d="M9 6.5 8.5 8S7 8 7 9.5" stroke-width="1"></path></g></svg>