<svg xmlns="http://www.w3.org/2000/svg" fill="none" viewBox="0 0 14 14"><g id="fingerprint-lock-privacy--fingerprint-lock-privacy-indentification-password-touch-id-secure"><path id="Vector 3864" stroke="#000000" stroke-linecap="round" stroke-linejoin="round" d="M9.25 10V8.75C9.25 7.7835 10.0335 7 11 7v0c0.9665 0 1.75 0.7835 1.75 1.75V10" stroke-width="1"></path><path id="Vector 3865" stroke="#000000" stroke-linecap="round" stroke-linejoin="round" d="M8.5 13v-2.5c0 -0.2761 0.22386 -0.5 0.5 -0.5h4c0.2761 0 0.5 0.2239 0.5 0.5V13c0 0.2761 -0.2239 0.5 -0.5 0.5H9c-0.27614 0 -0.5 -0.2239 -0.5 -0.5Z" stroke-width="1"></path><path id="Vector 3728" stroke="#000000" stroke-linecap="round" stroke-linejoin="round" d="M10.2428 2.5c0.5436 0.65818 0.937 1.44497 1.1276 2.3079" stroke-width="1"></path><path id="Vector 3733" stroke="#000000" stroke-linecap="round" stroke-linejoin="round" d="M0.5 6.5V8c0 2.2186 1.31363 4.1304 3.20551 5" stroke-width="1"></path><path id="Vector 3732" stroke="#000000" stroke-linecap="round" stroke-linejoin="round" d="M8.29447 1C7.59611 0.678996 6.81895 0.5 5.99999 0.5 3.54696 0.5 1.469 2.1059 0.760101 4.32374" stroke-width="1"></path><path id="Vector 3729" stroke="#000000" stroke-linecap="round" stroke-linejoin="round" d="M6 11c-1.65685 0 -3 -1.34315 -3 -3V6c0 -0.35064 0.06015 -0.68722 0.17071 -1" stroke-width="1"></path><path id="Vector 3731" stroke="#000000" stroke-linecap="round" stroke-linejoin="round" d="M5.38718 3.06264C5.58501 3.02158 5.78999 3 6.00001 3c1.39097 0 2.56084 0.94665 2.90048 2.23084" stroke-width="1"></path><path id="Vector 3730" stroke="#000000" stroke-linecap="round" stroke-linejoin="round" d="M6 6v2" stroke-width="1"></path></g></svg>