<svg xmlns="http://www.w3.org/2000/svg" fill="none" viewBox="0 0 14 14"><g id="firefighter-truck"><path id="Vector 881" stroke="#000000" stroke-linecap="round" stroke-linejoin="round" d="m13.25 8.5 -4.75 0" stroke-width="1"></path><path id="Vector 885" stroke="#000000" stroke-linecap="round" stroke-linejoin="round" d="M8.5 7h-2" stroke-width="1"></path><path id="Vector 880" stroke="#000000" stroke-linecap="round" stroke-linejoin="round" d="m12 12 1.5 0V8.76556c0 -0.17402 -0.0454 -0.34504 -0.1318 -0.49613L11.789 5.50579c-0.1786 -0.3126 -0.5115 -0.50505 -0.8715 -0.50385l-1.42083 0.00472c-0.55098 0.00184 -0.99667 0.44901 -0.99667 1V12" stroke-width="1"></path><path id="Vector 882" stroke="#000000" stroke-linecap="round" stroke-linejoin="round" d="M6.5 12V6.5c0 -0.55228 -0.44772 -1 -1 -1h-4c-0.552285 0 -1 0.44772 -1 1V12H2" stroke-width="1"></path><path id="Vector 884" stroke="#000000" stroke-linecap="round" stroke-linejoin="round" d="m10.5 0.5 -9 5" stroke-width="1"></path><path id="Vector 883" stroke="#000000" stroke-linecap="round" stroke-linejoin="round" d="m9 12 -4 0" stroke-width="1"></path><path id="Vector" stroke="#000000" stroke-linecap="round" stroke-linejoin="round" d="M10.4989 13.5c-0.82897 0 -1.50101 -0.6721 -1.50101 -1.5011 0 -0.829 0.67204 -1.501 1.50101 -1.501 0.8291 0 1.5011 0.672 1.5011 1.501 0 0.829 -0.672 1.5011 -1.5011 1.5011Z" stroke-width="1"></path><path id="Vector_2" stroke="#000000" stroke-linecap="round" stroke-linejoin="round" d="M3.49894 13.5c-0.82901 0 -1.50106 -0.6721 -1.50106 -1.5011 0 -0.829 0.67205 -1.501 1.50106 -1.501S5 11.1699 5 11.9989c0 0.829 -0.67205 1.5011 -1.50106 1.5011Z" stroke-width="1"></path></g></svg>