<svg xmlns="http://www.w3.org/2000/svg" fill="none" viewBox="0 0 14 14"><g id="fire-exit--sign-arrow-point-direction-signal"><path id="Vector" stroke="#000000" stroke-linecap="round" stroke-linejoin="round" d="M3.85754 2.5c0.06005 0 0.11893 0.01615 0.17016 0.04668 2.8626 1.227 4.97058 4.04459 4.97058 7.03859C9.00471 12.1183 7.02084 13.5 4.75087 13.5 2.45554 13.5 0.496971 11.5007 0.500003 9.58527c0 -1.0376 0.708727 -2.24472 1.698527 -2.81044 0.28921 0.65261 0.72536 1.23346 1.27616 1.69955 1.43214 -1.35411 1.27616 -3.88271 0.2127 -5.63753 -0.03335 -0.04138 -0.05148 -0.09247 -0.05148 -0.14508 0 -0.05262 0.01813 -0.10371 0.05148 -0.14509 0.05122 -0.03053 0.1101 -0.04668 0.17015 -0.04668Z" stroke-width="1"></path><path id="Vector 5013" stroke="#000000" stroke-linecap="round" stroke-linejoin="round" d="M9 2.5h4.5" stroke-width="1"></path><path id="Vector 5014" stroke="#000000" stroke-linecap="round" stroke-linejoin="round" d="m11.5 0.5 2 2 -2 2" stroke-width="1"></path></g></svg>