<svg xmlns="http://www.w3.org/2000/svg" fill="none" viewBox="0 0 14 14"><g id="fishing--fishing-fish-bait-lure-leisure-activity"><path id="Vector 2785" stroke="#000000" stroke-linecap="round" stroke-linejoin="round" d="M0.5 1v3c0 0.55228 0.447715 1 1 1v0c0.55228 0 1 -0.44772 1 -1v0" stroke-width="1"></path><path id="Vector 2786" stroke="#000000" stroke-linecap="round" stroke-linejoin="round" d="M5.5 6C2.7 6 1.16667 8.33333 1 9.5c0.16667 1.1667 1.7 3.5 4.5 3.5s3.66667 -1.5 4.5 -2.5c0 1 1 2.5 3.5 2.5 0 0 0 -3.5 -1.5 -3.5 1.5 0 1.5 -3.5 1.5 -3.5C11 6 10 7.5 10 8.5 9.16667 7.5 8.3 6 5.5 6Z" stroke-width="1"></path><g id="Group 1"><path id="Vector" stroke="#000000" stroke-linecap="round" stroke-linejoin="round" d="M3.75024 9c-0.13807 0 -0.25 -0.11193 -0.25 -0.25s0.11193 -0.25 0.25 -0.25" stroke-width="1"></path><path id="Vector_2" stroke="#000000" stroke-linecap="round" stroke-linejoin="round" d="M3.75024 9c0.13808 0 0.25 -0.11193 0.25 -0.25s-0.11192 -0.25 -0.25 -0.25" stroke-width="1"></path></g><path id="Vector 2787" stroke="#000000" stroke-linecap="round" stroke-linejoin="round" d="M6 8s0.5 0.5 0.5 1.5S6 11 6 11" stroke-width="1"></path></g></svg>