<svg xmlns="http://www.w3.org/2000/svg" fill="none" viewBox="0 0 14 14"><g id="flash-constant-light"><path id="Vector" stroke="#000000" stroke-linecap="round" stroke-linejoin="round" d="M8.52772 6.84088 10.125 4.875H6.1875V0.5L0.5 7.5h3.9375v4.375l1.85585 -2.28412" stroke-width="1"></path><path id="vector" stroke="#000000" stroke-linecap="round" stroke-linejoin="round" d="M10.75 7.14918v1.44381" stroke-width="1"></path><path id="vector_2" stroke="#000000" stroke-linecap="round" stroke-linejoin="round" d="M10.75 12.0562V13.5" stroke-width="1"></path><path id="vector_3" stroke="#000000" stroke-linecap="round" stroke-linejoin="round" d="m13.5 8.7369 -1.2504 0.72191" stroke-width="1"></path><path id="vector_4" stroke="#000000" stroke-linecap="round" stroke-linejoin="round" d="m9.25037 11.1904 -1.25038 0.7219" stroke-width="1"></path><path id="vector_5" stroke="#000000" stroke-linecap="round" stroke-linejoin="round" d="m13.5 11.9123 -1.2504 -0.7219" stroke-width="1"></path><path id="vector_6" stroke="#000000" stroke-linecap="round" stroke-linejoin="round" d="m9.25037 9.45881 -1.25038 -0.7219" stroke-width="1"></path><path id="vector_7" stroke="#000000" stroke-linecap="round" stroke-linejoin="round" d="M10.7501 12.0562c0.9564 0 1.7316 -0.7753 1.7316 -1.7316 0 -0.95634 -0.7752 -1.7316 -1.7316 -1.7316 -0.95629 0 -1.73155 0.77526 -1.73155 1.7316 0 0.9563 0.77526 1.7316 1.73155 1.7316Z" stroke-width="1"></path></g></svg>