<svg xmlns="http://www.w3.org/2000/svg" fill="none" viewBox="0 0 14 14"><g id="flip-horizontal-circle-1--flip-left-object-work"><path id="Vector" stroke="#000000" stroke-linecap="round" stroke-linejoin="round" d="M7 13.5V0.5c-1.72391 0 -3.37721 0.68482 -4.59619 1.90381C1.18482 3.62279 0.5 5.27609 0.5 7s0.68482 3.3772 1.90381 4.5962C3.62279 12.8152 5.27609 13.5 7 13.5Z" stroke-width="1"></path><path id="Vector_2" stroke="#000000" stroke-linecap="round" stroke-linejoin="round" d="M9.60986 1.05005c0.46294 0.19894 0.89954 0.4542 1.30004 0.76 0.4011 0.28966 0.7669 0.62528 1.09 1" stroke-width="1"></path><path id="Vector_3" stroke="#000000" stroke-linecap="round" stroke-linejoin="round" d="M9.60986 13c0.46294 -0.199 0.89954 -0.4542 1.30004 -0.76 0.4011 -0.2897 0.7669 -0.6253 1.09 -1" stroke-width="1"></path><path id="Vector_4" stroke="#000000" stroke-linecap="round" stroke-linejoin="round" d="M13.3301 5.5c0.2267 0.98715 0.2267 2.01285 0 3" stroke-width="1"></path></g></svg>