<svg xmlns="http://www.w3.org/2000/svg" fill="none" viewBox="0 0 14 14"><g id="flip-vertical-circle-2--flip-top-object-work"><path id="Vector" stroke="#000000" stroke-linecap="round" stroke-linejoin="round" d="M13.5 7H0.5c0 -1.72391 0.68482 -3.37721 1.90381 -4.59619C3.62279 1.18482 5.27609 0.5 7 0.5s3.3772 0.68482 4.5962 1.90381C12.8152 3.62279 13.5 5.27609 13.5 7Z" stroke-width="1"></path><path id="Vector_2" stroke="#000000" stroke-linecap="round" stroke-linejoin="round" d="M1.0498 9.60999c0.19895 0.46291 0.45421 0.89951 0.76 1.30001 0.28967 0.4011 0.62528 0.7669 1 1.09" stroke-width="1"></path><path id="Vector_3" stroke="#000000" stroke-linecap="round" stroke-linejoin="round" d="M13.0002 9.60999c-0.1989 0.46291 -0.4542 0.89951 -0.76 1.30001 -0.2896 0.4011 -0.6252 0.7669 -1 1.09" stroke-width="1"></path><path id="Vector_4" stroke="#000000" stroke-linecap="round" stroke-linejoin="round" d="M5.5 13.33c0.98715 0.2267 2.01285 0.2267 3 0" stroke-width="1"></path></g></svg>