<svg xmlns="http://www.w3.org/2000/svg" fill="none" viewBox="0 0 14 14"><g id="focus-center-square"><path id="Vector 3421" stroke="#000000" stroke-linecap="round" stroke-linejoin="round" d="M8.5 4.5h-3c-0.55228 0 -1 0.44772 -1 1v3c0 0.55228 0.44772 1 1 1h3c0.55228 0 1 -0.44771 1 -1v-3c0 -0.55228 -0.44771 -1 -1 -1Z" stroke-width="1"></path><path id="Vector" stroke="#000000" stroke-linecap="round" stroke-linejoin="round" d="M10.5 1.5h2c0.2652 0 0.5196 0.10536 0.7071 0.29289 0.1875 0.18754 0.2929 0.44189 0.2929 0.70711v2" stroke-width="1"></path><path id="Vector_2" stroke="#000000" stroke-linecap="round" stroke-linejoin="round" d="M0.5 4.5v-2c0 -0.26522 0.105357 -0.51957 0.292893 -0.70711C0.98043 1.60536 1.23478 1.5 1.5 1.5h2" stroke-width="1"></path><path id="Vector_3" stroke="#000000" stroke-linecap="round" stroke-linejoin="round" d="M10.5 12.5h2c0.2652 0 0.5196 -0.1054 0.7071 -0.2929s0.2929 -0.4419 0.2929 -0.7071v-2" stroke-width="1"></path><path id="Vector_4" stroke="#000000" stroke-linecap="round" stroke-linejoin="round" d="M0.5 9.5v2c0 0.2652 0.105357 0.5196 0.292893 0.7071 0.187537 0.1875 0.441887 0.2929 0.707107 0.2929h2" stroke-width="1"></path></g></svg>