<svg xmlns="http://www.w3.org/2000/svg" fill="none" viewBox="0 0 14 14"><g id="focus-frame--photos-frame-photo-camera-photography-pictures-focus"><path id="Vector" stroke="#000000" stroke-linecap="round" stroke-linejoin="round" d="M11 7.5V10H8.5" stroke-width="1"></path><path id="Vector_2" stroke="#000000" stroke-linecap="round" stroke-linejoin="round" d="M3 6.5V4h2.5" stroke-width="1"></path><path id="Vector_3" stroke="#000000" stroke-linecap="round" stroke-linejoin="round" d="M13.2071 1.79289C13.0196 1.60536 12.7652 1.5 12.5 1.5l-11 0c-0.26522 0 -0.51957 0.10536 -0.707107 0.29289C0.605357 1.98043 0.5 2.23478 0.5 2.5l0 9c0 0.2652 0.105357 0.5196 0.292893 0.7071S1.23478 12.5 1.5 12.5l11 0c0.2652 0 0.5196 -0.1054 0.7071 -0.2929s0.2929 -0.4419 0.2929 -0.7071l0 -9c0 -0.26522 -0.1054 -0.51957 -0.2929 -0.70711Z" stroke-width="1"></path></g></svg>