<svg xmlns="http://www.w3.org/2000/svg" fill="none" viewBox="0 0 14 14"><g id="folder-search"><path id="vector" stroke="#000000" stroke-linecap="round" stroke-linejoin="round" d="M9.5 12.5c1.6569 0 3 -1.3431 3 -3 0 -1.65685 -1.3431 -3 -3 -3 -1.65685 0 -3 1.34315 -3 3 0 1.6569 1.34315 3 3 3Z" stroke-width="1"></path><path id="vector_2" stroke="#000000" stroke-linecap="round" stroke-linejoin="round" d="m13.5 13.5 -1.8787 -1.8787" stroke-width="1"></path><path id="Vector 3868" stroke="#000000" stroke-linecap="round" stroke-linejoin="round" d="M4.71922 11.5H1.5c-0.552285 0 -1 -0.4477 -1 -1v-9c0 -0.552285 0.447715 -1 1 -1h3.21922c0.45887 0 0.85885 0.312297 0.97015 0.75746L6 2.5h6.5c0.5523 0 1 0.44772 1 1V6" stroke-width="1"></path></g></svg>