<svg xmlns="http://www.w3.org/2000/svg" fill="none" viewBox="0 0 14 14"><g id="food-truck-event-fair"><path id="Vector 4601" stroke="#000000" stroke-linecap="round" stroke-linejoin="round" d="M2 11h-0.5c-0.552285 0 -1 -0.4477 -1 -1V1.5h9v8.37844" stroke-width="1"></path><path id="Vector 4602" stroke="#000000" stroke-linecap="round" stroke-linejoin="round" d="M9.5 4.5h2l2 2.5v3c0 0.5523 -0.4477 1 -1 1H12" stroke-width="1"></path><path id="Vector" stroke="#000000" stroke-linecap="round" stroke-linejoin="round" d="M10.4989 12.4999c-0.82897 0 -1.50101 -0.672 -1.50101 -1.501 0 -0.8291 0.67204 -1.5011 1.50101 -1.5011 0.8291 0 1.5011 0.672 1.5011 1.5011 0 0.829 -0.672 1.501 -1.5011 1.501Z" stroke-width="1"></path><path id="Vector_2" stroke="#000000" stroke-linecap="round" stroke-linejoin="round" d="M3.49894 12.4999c-0.82901 0 -1.50106 -0.672 -1.50106 -1.501 0 -0.829 0.67205 -1.5011 1.50106 -1.5011S5 10.1699 5 10.9989c0 0.829 -0.67205 1.501 -1.50106 1.501Z" stroke-width="1"></path><path id="Vector 4576" stroke="#000000" stroke-linecap="round" stroke-linejoin="round" d="M5 11h4" stroke-width="1"></path><path id="Vector 4607" stroke="#000000" stroke-linecap="round" stroke-linejoin="round" d="M9.5 7h-9" stroke-width="1"></path><path id="Vector 4609" stroke="#000000" stroke-linecap="round" stroke-linejoin="round" d="M3.5 1.5V3c0 0.82843 0.67157 1.5 1.5 1.5v0c0.82843 0 1.5 -0.67157 1.5 -1.5V1.5" stroke-width="1"></path><path id="Vector 4611" stroke="#000000" stroke-linecap="round" stroke-linejoin="round" d="M0.5 1.5V3c0 0.82843 0.67157 1.5 1.5 1.5v0c0.82843 0 1.5 -0.67157 1.5 -1.5V1.5" stroke-width="1"></path><path id="Vector 4610" stroke="#000000" stroke-linecap="round" stroke-linejoin="round" d="M6.5 1.5V3c0 0.82843 0.67157 1.5 1.5 1.5v0c0.82843 0 1.5 -0.67157 1.5 -1.5V1.5" stroke-width="1"></path></g></svg>