<svg xmlns="http://www.w3.org/2000/svg" fill="none" viewBox="0 0 14 14"><g id="form-email--input-mail-email-address-contact-internet-form-fill"><path id="Vector" stroke="#000000" stroke-linecap="round" stroke-linejoin="round" d="M5 9.5H1.5c-0.26522 0 -0.51957 -0.10536 -0.707107 -0.29289C0.605357 9.01957 0.5 8.76522 0.5 8.5v-6c0 -0.26522 0.105357 -0.51957 0.292893 -0.70711C0.98043 1.60536 1.23478 1.5 1.5 1.5h11c0.2652 0 0.5196 0.10536 0.7071 0.29289 0.1875 0.18754 0.2929 0.44189 0.2929 0.70711v2.75" stroke-width="1"></path><path id="Vector_2" stroke="#000000" stroke-linecap="round" stroke-linejoin="round" d="M3.5 4.5v2" stroke-width="1"></path><path id="Vector_3" stroke="#000000" stroke-linecap="round" stroke-linejoin="round" d="M12.5 7.25H8c-0.55228 0 -1 0.44772 -1 1v3.25c0 0.5523 0.44772 1 1 1h4.5c0.5523 0 1 -0.4477 1 -1V8.25c0 -0.55228 -0.4477 -1 -1 -1Z" stroke-width="1"></path><path id="Vector_4" stroke="#000000" stroke-linecap="round" stroke-linejoin="round" d="m7 8.75 3.25 1.5 3.25 -1.5" stroke-width="1"></path></g></svg>