<svg xmlns="http://www.w3.org/2000/svg" fill="none" viewBox="0 0 14 14"><g id="fortune-telling-sphere--religion-fortune-telling-sphere-culture"><path id="Ellipse 891" stroke="#000000" stroke-linecap="round" stroke-linejoin="round" d="M4.37829 9.91342c-1.42354 -0.87977 -2.37206 -2.4546 -2.37206 -4.25097 0 -2.75792 2.23573 -4.993657 4.99365 -4.993657 2.75792 0 4.99362 2.235737 4.99362 4.993657 0 1.79637 -0.9485 3.3712 -2.37203 4.25097" stroke-width="1"></path><path id="Ellipse 903" stroke="#000000" stroke-linecap="round" stroke-linejoin="round" d="m11.9933 12.0109 -0.4755 -1.4061c-0.1373 -0.4063 -0.5184 -0.67967 -0.9473 -0.67967l-7.14103 0c-0.42883 0 -0.80993 0.27337 -0.9473 0.67967l-0.47549 1.4061c-0.21923 0.6483 0.26292 1.3203 0.9473 1.3203l8.09202 0c0.6844 0 1.1666 -0.672 0.9473 -1.3203Z" stroke-width="1"></path><path id="Vector 2095" stroke="#000000" stroke-linecap="round" stroke-linejoin="round" d="M6.99988 3.31558c-2.21539 0 -3.14551 1.9923 -3.14551 2.03363 0 0.04133 0.93012 2.03363 3.14551 2.03363 2.21538 0 3.14552 -1.9923 3.14552 -2.03363 0 -0.04133 -0.93014 -2.03363 -3.14552 -2.03363Z" stroke-width="1"></path><path id="Ellipse 1001" stroke="#000000" stroke-linecap="round" stroke-linejoin="round" d="M6.5 5.291a0.5 0.5 0 1 0 1 0 0.5 0.5 0 1 0 -1 0" stroke-width="1"></path></g></svg>