<svg xmlns="http://www.w3.org/2000/svg" fill="none" viewBox="0 0 14 14"><g id="fox--nature-head-pet-animals-wild"><path id="Vector" stroke="#000000" stroke-linecap="round" stroke-linejoin="round" d="M2.5 1v7l-1.10552 0.73701C1.14803 8.90131 1 9.17791 1 9.47411c0 0.32418 0.17708 0.62249 0.46168 0.77769l4.81446 2.6261c0.14689 0.0801 0.31154 0.1221 0.47885 0.1221h0.49002c0.16731 0 0.33196 -0.042 0.47885 -0.1221l4.81444 -2.6261c0.2846 -0.1552 0.4617 -0.45351 0.4617 -0.77769 0 -0.2962 -0.148 -0.5728 -0.3945 -0.7371L11.5 8V1H11C9.34315 1 8 2.34315 8 4v0.03095C7.8362 4.01052 7.66933 4 7.5 4h-1c-0.16933 0 -0.3362 0.01052 -0.5 0.03095V4c0 -1.65685 -1.34315 -3 -3 -3h-0.5Z" stroke-width="1"></path><path id="Vector 4529" stroke="#000000" stroke-linecap="round" stroke-linejoin="round" d="M4.562 4.5C5.13612 4.18142 5.79687 4 6.5 4h1c0.70313 0 1.36388 0.18142 1.938 0.5" stroke-width="1"></path><g id="Group 4545"><path id="Vector_2" stroke="#000000" stroke-linecap="round" stroke-linejoin="round" d="M5.25 8C5.11193 8 5 7.88807 5 7.75s0.11193 -0.25 0.25 -0.25" stroke-width="1"></path><path id="Vector_3" stroke="#000000" stroke-linecap="round" stroke-linejoin="round" d="M5.25 8c0.13807 0 0.25 -0.11193 0.25 -0.25s-0.11193 -0.25 -0.25 -0.25" stroke-width="1"></path></g><g id="Group 4544"><path id="Vector_4" stroke="#000000" stroke-linecap="round" stroke-linejoin="round" d="M8.75 8c-0.13807 0 -0.25 -0.11193 -0.25 -0.25s0.11193 -0.25 0.25 -0.25" stroke-width="1"></path><path id="Vector_5" stroke="#000000" stroke-linecap="round" stroke-linejoin="round" d="M8.75 8c0.13807 0 0.25 -0.11193 0.25 -0.25s-0.11193 -0.25 -0.25 -0.25" stroke-width="1"></path></g><path id="Vector 1633" stroke="#000000" stroke-linecap="round" stroke-linejoin="round" d="M7.75 10h-1.5l0.75 0.5 0.75 -0.5Z" stroke-width="1"></path></g></svg>