<svg xmlns="http://www.w3.org/2000/svg" fill="none" viewBox="0 0 14 14"><g id="fried-egg-breakfast"><path id="Vector 3096" stroke="#000000" stroke-linecap="round" stroke-linejoin="round" d="m2.96515 2.97338 -0.62089 0.79829C1.47301 4.89184 1 6.27046 1 7.68956v0.60788c0 1.1001 0.38569 2.16536 1.08995 3.01046l0.28802 0.3457C3.08893 12.5067 4.14211 13 5.25266 13c0.80966 0 1.59748 -0.2626 2.24521 -0.7484l0.15576 -0.1168c0.55411 -0.4156 1.20946 -0.6751 1.89786 -0.7516C11.5147 11.165 13 9.50559 13 7.53027v-0.50615c0 -0.98782 -0.3293 -1.94745 -0.9357 -2.72719l-1.0294 -1.32355C10.0664 1.72826 8.57739 1 7 1c-1.57739 0 -3.06643 0.72826 -4.03485 1.97338Z" stroke-width="1"></path><path id="Ellipse 1867" stroke="#000000" stroke-linecap="round" stroke-linejoin="round" d="M5.5 6.25a2.25 2.25 0 1 0 4.5 0 2.25 2.25 0 1 0 -4.5 0" stroke-width="1"></path></g></svg>