<svg xmlns="http://www.w3.org/2000/svg" fill="none" viewBox="0 0 14 14"><g id="galaxy-1--science-space-universe-astronomy"><path id="Vector 2292" stroke="#000000" stroke-linecap="round" stroke-linejoin="round" d="M7.01318 9c3.00002 0 5.71242 -2 5.71242 -5.08301" stroke-width="1"></path><path id="Vector 2293" stroke="#000000" stroke-linecap="round" stroke-linejoin="round" d="M7.01318 5c-3 0 -5.73877 2 -5.73877 5.083" stroke-width="1"></path><path id="Ellipse 962" stroke="#000000" stroke-linecap="round" stroke-linejoin="round" d="M5 7a2 2 0 1 0 4 0 2 2 0 1 0 -4 0" stroke-width="1"></path><path id="Vector 2294" stroke="#000000" stroke-linecap="round" stroke-linejoin="round" d="M8.73869 7.98859C10.2387 5.39051 9.86283 2.0415 7.19287 0.5" stroke-width="1"></path><path id="Vector 2295" stroke="#000000" stroke-linecap="round" stroke-linejoin="round" d="M5.27448 5.98859c-1.5 2.59807 -1.13734 5.96991 1.53263 7.51141" stroke-width="1"></path><path id="Vector 2296" stroke="#000000" stroke-linecap="round" stroke-linejoin="round" d="M8.7255 5.98854c-1.5 -2.59808 -4.58825 -3.94708 -7.25821 -2.40558" stroke-width="1"></path><path id="Vector 2297" stroke="#000000" stroke-linecap="round" stroke-linejoin="round" d="M5.26135 7.98865c1.5 2.59805 4.60144 3.96995 7.27145 2.42845" stroke-width="1"></path></g></svg>