<svg xmlns="http://www.w3.org/2000/svg" fill="none" viewBox="0 0 14 14"><g id="gallery-2--pages-filter-picture-pagination-image"><path id="Vector" stroke="#000000" stroke-linecap="round" stroke-linejoin="round" d="m4.57692 13 7.72118 0c0.3876 0 0.7019 -0.3143 0.7019 -0.7019l0 -7.72118c0 -0.38766 -0.3143 -0.70192 -0.7019 -0.70192l-7.72118 0c-0.38766 0 -0.70192 0.31426 -0.70192 0.70192l0 7.72118c0 0.3876 0.31426 0.7019 0.70192 0.7019Z" stroke-width="1"></path><path id="Vector_2" stroke="#000000" stroke-linecap="round" stroke-linejoin="round" d="M1.70192 10.125C1.31426 10.125 1 9.81074 1 9.42308l0 -7.72116C1 1.31426 1.31426 1 1.70192 1l7.72116 0c0.38766 0 0.70192 0.31426 0.70192 0.70192" stroke-width="1"></path><path id="Vector_3" stroke="#000000" stroke-linecap="round" stroke-linejoin="round" d="M10 8.25c-0.69036 0 -1.25 -0.55964 -1.25 -1.25S9.30964 5.75 10 5.75c0.6904 0 1.25 0.55964 1.25 1.25S10.6904 8.25 10 8.25Z" stroke-width="1"></path><path id="Vector 3951" stroke="#000000" stroke-linecap="round" stroke-linejoin="round" d="M11.2328 13 6.48279 8.25l-2.60468 2.6047" stroke-width="1"></path></g></svg>