<svg xmlns="http://www.w3.org/2000/svg" fill="none" viewBox="0 0 14 14"><g id="gender-gay-1--gender-gay0symbol-sign"><path id="Vector 592" stroke="#000000" stroke-linecap="round" stroke-linejoin="round" d="M4.5 10v3.5" stroke-width="1"></path><path id="Vector 1035" stroke="#000000" stroke-linecap="round" stroke-linejoin="round" d="M12.5 0.5 9.62134 3.37868" stroke-width="1"></path><path id="Vector 1036" stroke="#000000" stroke-linecap="round" stroke-linejoin="round" d="M10 0.5h2.5V3" stroke-width="1"></path><path id="Vector 2722" stroke="#000000" stroke-linecap="round" stroke-linejoin="round" d="m3 12 1.5 1.5L6 12" stroke-width="1"></path><path id="Ellipse 236" stroke="#000000" stroke-linecap="round" stroke-linejoin="round" d="M7.11282 8.47525C7.23957 8.49158 7.3688 8.5 7.5 8.5c1.65685 0 3 -1.34315 3 -3s-1.34315 -3 -3 -3 -3 1.34315 -3 3c0 0.61337 0.18408 1.18374 0.5 1.6589" stroke-width="1"></path><path id="Ellipse 1657" stroke="#000000" stroke-linecap="round" stroke-linejoin="round" d="M4.87793 4.02358C4.75414 4.00802 4.62801 4 4.5 4c-1.65685 0 -3 1.34315 -3 3s1.34315 3 3 3 3 -1.34315 3 -3c0 -0.61337 -0.18408 -1.18354 -0.5 -1.65869" stroke-width="1"></path></g></svg>