<svg xmlns="http://www.w3.org/2000/svg" fill="none" viewBox="0 0 14 14"><g id="geothermal-energy--geothermal-energy-earth-globe-world-power-electricity-renewable-clean"><path id="Vector" stroke="#000000" stroke-linecap="round" stroke-linejoin="round" d="M3.5 6.5v2.75h2l-3 4.25v-2.75h-2l3 -4.25Z" stroke-width="1"></path><path id="Vector_2" stroke="#000000" stroke-linecap="round" stroke-linejoin="round" d="M13.0769 8.11524h-1.4807c-0.3928 0 -0.7694 -0.15601 -1.0471 -0.43371 -0.2777 -0.2777 -0.4337 -0.65434 -0.4337 -1.04706V5.36524c0 -0.39273 -0.15602 -0.76937 -0.43372 -1.04707 -0.2777 -0.27769 -0.65434 -0.4337 -1.04706 -0.4337 -0.39273 0 -0.76937 -0.15601 -1.04707 -0.43371 -0.27769 -0.2777 -0.4337 -0.65434 -0.4337 -1.04706V0.559082" stroke-width="1"></path><path id="Ellipse 1943" stroke="#000000" stroke-linecap="round" stroke-linejoin="round" d="M2.70703 4.5C3.35996 2.1915 5.48244 0.5 8 0.5c3.0376 0 5.5 2.46243 5.5 5.5s-2.4624 5.5 -5.5 5.5c-0.41566 0 -0.82055 -0.0461 -1.20983 -0.1335" stroke-width="1"></path></g></svg>