<svg xmlns="http://www.w3.org/2000/svg" fill="none" viewBox="0 0 14 14"><g id="give-star--reward-social-rating-media-hand-star"><path id="Vector 294" stroke="#000000" stroke-linecap="round" stroke-linejoin="round" d="m0.5 11 2.44373 2.0364c0.35943 0.2996 0.8125 0.4636 1.28037 0.4636l6.4426 0c0.4602 0 0.8333 -0.3731 0.8333 -0.8333C11.5 11.7462 10.7538 11 9.83333 11H5.35429" stroke-width="1"></path><path id="Vector 295" stroke="#000000" stroke-linecap="round" stroke-linejoin="round" d="m3.5 10 0.75 0.75c0.41421 0.4142 1.08579 0.4142 1.5 0 0.41421 -0.4142 0.41421 -1.08579 0 -1.5L4.58579 8.08579C4.21071 7.71071 3.70201 7.5 3.17157 7.5H0.5" stroke-width="1"></path><path id="Vector" stroke="#000000" stroke-linecap="round" stroke-linejoin="round" d="m10.2575 0.656669 0.86 1.730001c0.0193 0.04375 0.0498 0.08162 0.0884 0.10973 0.0387 0.02811 0.0841 0.04546 0.1316 0.05027l1.91 0.29c0.0546 0.0071 0.1061 0.02961 0.1484 0.06488 0.0423 0.03528 0.0736 0.08186 0.0904 0.13431 0.0168 0.05245 0.0183 0.10859 0.0043 0.16186 -0.0139 0.05327 -0.0427 0.10146 -0.0831 0.13895l-1.41 1.34c-0.021 0.04011 -0.032 0.08471 -0.032 0.13 0 0.04528 0.011 0.08989 0.032 0.13l0.27 1.9c0.0115 0.05492 0.0069 0.112 -0.0134 0.16432 -0.0203 0.05232 -0.0553 0.09764 -0.1008 0.13046 -0.0455 0.03281 -0.0996 0.05172 -0.1556 0.05442 -0.0561 0.0027 -0.1117 -0.01092 -0.1602 -0.0392l-1.7 -0.9c-0.044 -0.01988 -0.0917 -0.03016 -0.13997 -0.03016 -0.04828 0 -0.09601 0.01028 -0.14 0.03016l-1.7 0.9c-0.04847 0.02828 -0.1041 0.0419 -0.16015 0.0392 -0.05604 -0.0027 -0.11011 -0.02161 -0.15562 -0.05442 -0.04552 -0.03282 -0.08054 -0.07814 -0.10082 -0.13046 -0.02027 -0.05232 -0.02493 -0.1094 -0.01341 -0.16432l0.32 -1.9c0.01376 -0.0441 0.01639 -0.09092 0.00767 -0.13628 -0.00873 -0.04537 -0.02854 -0.08787 -0.05767 -0.12372l-1.41 -1.35c-0.0374 -0.03789 -0.06365 -0.08534 -0.07588 -0.13715 -0.01222 -0.05182 -0.00994 -0.10599 0.00658 -0.1566 0.01653 -0.05061 0.04666 -0.09569 0.08711 -0.13031 0.04044 -0.03461 0.08963 -0.05743 0.14219 -0.06594l1.91 -0.28c0.04755 -0.00481 0.09297 -0.02216 0.13162 -0.05027 0.03865 -0.02811 0.06915 -0.06598 0.08838 -0.10973l0.86 -1.730001c0.02301 -0.048973 0.05926 -0.090531 0.10466 -0.119975 0.0454 -0.029445 0.09813 -0.0456 0.15223 -0.04664 0.05408 -0.001041 0.10738 0.013075 0.15388 0.040752 0.0465 0.027677 0.0843 0.067811 0.1092 0.115863v0Z" stroke-width="1"></path></g></svg>