<svg xmlns="http://www.w3.org/2000/svg" fill="none" viewBox="0 0 14 14"><g id="global-learning--global-learning-education"><path id="Vector" stroke="#000000" stroke-linecap="round" stroke-linejoin="round" d="M11.3657 7.31835c0.1029 -0.42066 0.1574 -0.86028 0.1574 -1.31264C11.5231 2.96499 9.05815 0.5 6.01743 0.5 2.97671 0.5 0.511719 2.96499 0.511719 6.00571c0 2.25848 1.359851 4.19929 3.305441 5.04849" stroke-width="1"></path><path id="Vector_2" stroke="#000000" stroke-linecap="round" stroke-linejoin="round" d="M0.511719 6.00571H11.5231" stroke-width="1"></path><path id="Vector_3" stroke="#000000" stroke-linecap="round" stroke-linejoin="round" d="M4.38184 8.54688c-0.27467 -0.81611 -0.43883 -1.67067 -0.4838 -2.54117C4.00206 3.99232 4.74365 2.06417 6.01562 0.5c1.27197 1.56417 2.01357 3.49232 2.11759 5.50571 -0.01833 0.35479 -0.05646 0.70692 -0.11379 1.05488" stroke-width="1"></path><path id="Rectangle 645" stroke="#000000" stroke-linecap="round" stroke-linejoin="round" d="m9.45836 8.17789 4.02944 1.74585 -4.02944 1.74586 -4.02944 -1.74586 4.02944 -1.74585Z" stroke-width="1"></path><path id="Ellipse 346" stroke="#000000" stroke-linecap="round" stroke-linejoin="round" d="m7.257 10.7201 0.004 1.8995s0.66525 0.8804 2.19699 0.8804c1.53171 0 2.20051 -0.8804 2.20051 -0.8804l-0.0004 -1.8995" stroke-width="1"></path><path id="Ellipse 347" stroke="#000000" stroke-linecap="round" stroke-linejoin="round" d="M5.42892 12.9949V9.92383" stroke-width="1"></path></g></svg>