<svg xmlns="http://www.w3.org/2000/svg" fill="none" viewBox="0 0 14 14"><g id="global-warming-1--nature-environment-earth-planet-hot-fire-warm"><path id="Vector" stroke="#000000" stroke-linecap="round" stroke-linejoin="round" d="M13.0769 8.11536h-1.4807c-0.3928 0 -0.7694 -0.15601 -1.0471 -0.43371 -0.2777 -0.2777 -0.4337 -0.65434 -0.4337 -1.04706V5.36536c0 -0.39273 -0.15602 -0.76937 -0.43372 -1.04706 -0.2777 -0.2777 -0.65434 -0.43371 -1.04706 -0.43371 -0.39273 0 -0.76937 -0.15601 -1.04707 -0.43371 -0.27769 -0.2777 -0.4337 -0.65434 -0.4337 -1.04706V0.559204" stroke-width="1"></path><path id="Vector_2" stroke="#000000" stroke-linecap="round" stroke-linejoin="round" d="M2.73077 6c0.0399 0 0.07902 0.01101 0.11306 0.03183 1.90193 0.83659 3.30248 2.75767 3.30248 4.79907 0.00428 1.727 -1.31382 2.6691 -2.822 2.6691 -1.52503 0 -2.826323 -1.3632 -2.824308 -2.6691 0 -0.7075 0.470882 -1.53052 1.128518 -1.91624 0.19215 0.44496 0.48193 0.84099 0.84789 1.15874 0.95152 -0.92322 0.84789 -2.64726 0.14131 -3.84373 -0.02216 -0.02821 -0.0342 -0.06305 -0.0342 -0.09892s0.01204 -0.07071 0.0342 -0.09892C2.65176 6.01101 2.69088 6 2.73077 6Z" stroke-width="1"></path><path id="Vector_3" stroke="#000000" stroke-linecap="round" stroke-linejoin="round" d="M3.01241 3.67871C3.8877 1.80123 5.79189 0.5 8 0.5c3.0376 0 5.5 2.46243 5.5 5.5 0 2.82518 -2.1301 5.1528 -4.87193 5.4645" stroke-width="1"></path></g></svg>