<svg width="14" height="14" viewBox="0 0 14 14" fill="none" xmlns="http://www.w3.org/2000/svg">
<path d="M1.74275 12.0032H4.39286V3.0883L3.58149 2.56859C2.40571 1.81546 0.859375 2.65663 0.859375 4.04936V5.22586V11.123C0.859375 11.6091 1.25487 12.0032 1.74275 12.0032Z" stroke="#01040B" stroke-linecap="round" stroke-linejoin="round"/>
<path d="M0.859375 4.04936V5.22586L4.39286 7.48917L7.04297 9.18665L9.69308 7.48917L13.2266 5.22586V4.04936C13.2266 2.65663 11.6802 1.81546 10.5044 2.56859L9.69308 3.0883L7.04297 4.78578L4.39286 3.0883L3.58149 2.56859C2.40571 1.81546 0.859375 2.65663 0.859375 4.04936Z" stroke="#01040B" stroke-linecap="round" stroke-linejoin="round"/>
<path d="M9.69312 12.0032H12.3433C12.8311 12.0032 13.2266 11.6091 13.2266 11.123V5.22586V4.04936C13.2266 2.65663 11.6803 1.81546 10.5045 2.56859L9.69312 3.0883V12.0032Z" stroke="#01040B" stroke-linecap="round" stroke-linejoin="round"/>
</svg>
