<svg xmlns="http://www.w3.org/2000/svg" fill="none" viewBox="0 0 14 14"><g id="government-building-1--government-building-travel-places"><g id="Group 2677"><path id="Ellipse 1956" stroke="#000000" stroke-linecap="round" stroke-linejoin="round" d="M7 6c-0.13807 0 -0.25 -0.11193 -0.25 -0.25s0.11193 -0.25 0.25 -0.25" stroke-width="1"></path><path id="Ellipse 1957" stroke="#000000" stroke-linecap="round" stroke-linejoin="round" d="M7 6c0.13807 0 0.25 -0.11193 0.25 -0.25S7.13807 5.5 7 5.5" stroke-width="1"></path></g><path id="Vector 4811" stroke="#000000" stroke-linecap="round" stroke-linejoin="round" d="M7 13v-2" stroke-width="1"></path><path id="Vector 4812" stroke="#000000" stroke-linecap="round" stroke-linejoin="round" d="M4 13v-2" stroke-width="1"></path><path id="Vector 4813" stroke="#000000" stroke-linecap="round" stroke-linejoin="round" d="M10 13v-2" stroke-width="1"></path><path id="Vector 4808" stroke="#000000" stroke-linecap="round" stroke-linejoin="round" d="M1 8v5h12V8H9.5V3.5L7 1 4.5 3.5V8H1Z" stroke-width="1"></path><path id="Vector 4809" stroke="#000000" stroke-linecap="round" stroke-linejoin="round" d="M9.5 4.5H12c0.5523 0 1 0.44772 1 1V8" stroke-width="1"></path><path id="Vector 4810" stroke="#000000" stroke-linecap="round" stroke-linejoin="round" d="M4.5 4.5H2c-0.55228 0 -1 0.44772 -1 1V8" stroke-width="1"></path></g></svg>