<svg xmlns="http://www.w3.org/2000/svg" fill="none" viewBox="0 0 14 14"><g id="graph-arrow-user-increase--ascend-growth-up-arrow-stats-graph-right-grow-user"><path id="Vector" stroke="#000000" stroke-linecap="round" stroke-linejoin="round" d="M8 7.5c1.10457 0 2 -0.89543 2 -2s-0.89543 -2 -2 -2 -2 0.89543 -2 2 0.89543 2 2 2Z" stroke-width="1"></path><path id="Vector_2" stroke="#000000" stroke-linecap="round" stroke-linejoin="round" d="M3.5 13.5c0 -1.1935 0.47411 -2.3381 1.31802 -3.182C5.66193 9.47411 6.80653 9 8 9c1.19347 0 2.3381 0.47411 3.182 1.318 0.8439 0.8439 1.318 1.9885 1.318 3.182h-9Z" stroke-width="1"></path><path id="Vector_3" stroke="#000000" stroke-linecap="round" stroke-linejoin="round" d="m11.5 2.5 2 -2" stroke-width="1"></path><path id="Vector_4" stroke="#000000" stroke-linecap="round" stroke-linejoin="round" d="M10.5 0.5h3v3" stroke-width="1"></path><path id="Vector_5" stroke="#000000" stroke-linecap="round" stroke-linejoin="round" d="m0.5 7.5 2 -2 1.41 1.41" stroke-width="1"></path></g></svg>