<svg xmlns="http://www.w3.org/2000/svg" fill="none" viewBox="0 0 14 14"><g id="graphic-template-website-ui"><path id="Vector 3881" stroke="#000000" stroke-linecap="round" stroke-linejoin="round" d="m4 13.5 4.40318 -3.96286c0.34864 -0.31378 0.86852 -0.34307 1.2502 -0.07044L12.5 11.5" stroke-width="1"></path><path id="Vector 3880" stroke="#000000" stroke-linecap="round" stroke-linejoin="round" d="M11.5 0.5h-9c-0.55228 0 -1 0.447715 -1 1v11c0 0.5523 0.44771 1 1 1h9c0.5523 0 1 -0.4477 1 -1v-11c0 -0.552285 -0.4477 -1 -1 -1Z" stroke-width="1"></path><path id="vector 2599" stroke="#000000" stroke-linecap="round" stroke-linejoin="round" d="M1.5 6.5h11" stroke-width="1"></path><path id="vector 2600" stroke="#000000" stroke-linecap="round" stroke-linejoin="round" d="M4 2.5h3" stroke-width="1"></path><path id="vector 2601" stroke="#000000" stroke-linecap="round" stroke-linejoin="round" d="M4 4.5h6" stroke-width="1"></path><path id="vector" stroke="#000000" stroke-linecap="round" stroke-linejoin="round" d="M4 9.5c0.27614 0 0.5 -0.22386 0.5 -0.5s-0.22386 -0.5 -0.5 -0.5 -0.5 0.22386 -0.5 0.5 0.22386 0.5 0.5 0.5Z" stroke-width="1"></path></g></svg>