<svg xmlns="http://www.w3.org/2000/svg" fill="none" viewBox="0 0 14 14"><g id="green-house--nature-glass-building-plants-crops-produce-farm"><path id="Vector 3720" stroke="#000000" stroke-linecap="round" stroke-linejoin="round" d="M1 6.9399V12c0 0.5523 0.44772 1 1 1h10c0.5523 0 1 -0.4477 1 -1V6.9399c0 -0.2803 -0.1176 -0.54774 -0.3243 -0.73715L7 1 1.32428 6.20275C1.11765 6.39216 1 6.6596 1 6.9399Z" stroke-width="1"></path><path id="Vector 4510" stroke="#000000" stroke-linecap="round" stroke-linejoin="round" d="M7.98157 9.10132C7.43781 9.96301 7 11.248 7 13c0 -0.8089 -0.45705 -1.8181 -1.26095 -2.6145" stroke-width="1"></path><path id="Ellipse 1922" stroke="#000000" stroke-linecap="round" stroke-linejoin="round" d="M10.0607 9.06068c-0.58583 0.58579 -1.53557 0.58579 -2.12136 0 -0.58579 -0.58578 -0.58579 -1.53553 0 -2.12132C8.52513 6.35358 10.5 6.50004 10.5 6.50004s0.1464 1.97486 -0.4393 2.56064Z" stroke-width="1"></path><path id="Ellipse 1923" stroke="#000000" stroke-linecap="round" stroke-linejoin="round" d="M3.45561 10.5769c0.58579 0.5858 1.53554 0.5858 2.12132 0 0.58579 -0.58577 0.58579 -1.53551 0 -2.1213 -0.58578 -0.58579 -2.56066 -0.43932 -2.56066 -0.43932s-0.14644 1.97485 0.43934 2.56062Z" stroke-width="1"></path></g></svg>