<svg xmlns="http://www.w3.org/2000/svg" fill="none" viewBox="0 0 14 14"><g id="group-meeting-approval--group-meeting-approval-work-check"><path id="Vector" stroke="#000000" stroke-linecap="round" stroke-linejoin="round" d="m5.51758 3.75436 1.11161 1.11161 1.85267 -2.59375" stroke-width="1"></path><path id="Vector_2" stroke="#000000" stroke-linecap="round" stroke-linejoin="round" d="M11.7818 0.544922H2.21823c-0.39667 0 -0.71823 0.321564 -0.71823 0.718228V6c0 0.39667 0.32156 0.71823 0.71823 0.71823h9.56357c0.3966 0 0.7182 -0.32156 0.7182 -0.71823V1.26315c0 -0.396664 -0.3216 -0.718228 -0.7182 -0.718228Z" stroke-width="1"></path><path id="Vector_3" stroke="#000000" stroke-linecap="round" stroke-linejoin="round" d="M3.48121 10.5327c0.63036 0 1.14137 -0.511 1.14137 -1.14133 0 -0.63036 -0.51101 -1.14137 -1.14137 -1.14137s-1.14137 0.51101 -1.14137 1.14137c0 0.63033 0.51101 1.14133 1.14137 1.14133Z" stroke-width="1"></path><path id="Vector_4" stroke="#000000" stroke-linecap="round" stroke-linejoin="round" d="M1.42578 13.4787c0.00364 -0.348 0.09541 -0.6894 0.26675 -0.9923 0.36107 -0.6383 1.05453 -1.0436 1.78771 -1.0452 0.73318 0.0016 1.42664 0.4069 1.78771 1.0452 0.17134 0.3029 0.26312 0.6443 0.26675 0.9923" stroke-width="1"></path><path id="Vector_5" stroke="#000000" stroke-linecap="round" stroke-linejoin="round" d="M10.5261 10.5327c0.6304 0 1.1414 -0.511 1.1414 -1.14133 0 -0.63036 -0.511 -1.14137 -1.1414 -1.14137 -0.63033 0 -1.14133 0.51101 -1.14133 1.14137 0 0.63033 0.511 1.14133 1.14133 1.14133Z" stroke-width="1"></path><path id="Vector_6" stroke="#000000" stroke-linecap="round" stroke-linejoin="round" d="M8.4707 13.4787c0.00364 -0.348 0.09541 -0.6894 0.26675 -0.9923 0.36107 -0.6383 1.05453 -1.0436 1.78775 -1.0452 0.7331 0.0016 1.4266 0.4069 1.7877 1.0452 0.1713 0.3029 0.2631 0.6443 0.2667 0.9923" stroke-width="1"></path></g></svg>