<svg xmlns="http://www.w3.org/2000/svg" fill="none" viewBox="0 0 14 14"><g id="guitar--guitar-instrument-leisure-music-song-entertainment"><path id="Vector" stroke="#000000" stroke-linecap="round" stroke-linejoin="round" d="M8.20891 9.58152C8.98439 9.09525 9.5 8.23283 9.5 7.24997c0 -0.3698 -0.07299 -0.72256 -0.20536 -1.04464l1.54526 -1.54122h0.9142l1.2929 -1.2929c0.3905 -0.39052 0.3905 -1.02368 0 -1.41421l-0.9999 -0.999922c-0.3906 -0.390524 -1.0237 -0.390525 -1.4142 -0.000001L9.33997 2.24997v0.91406l-1.54533 1.5413c-0.32208 -0.13237 -0.67484 -0.20536 -1.04464 -0.20536 -0.98285 0 -1.84527 0.51561 -2.33154 1.29109 -0.24354 0.38839 -0.64154 0.6858 -1.09089 0.77666C1.73689 6.88934 0.5 8.3176 0.5 9.99997 0.5 11.933 2.067 13.5 4 13.5c1.68239 0 3.11062 -1.2369 3.43225 -2.8276 0.09086 -0.4493 0.38827 -0.84734 0.77666 -1.09088Z" stroke-width="1"></path><path id="Ellipse 1637" stroke="#000000" stroke-linecap="round" stroke-linejoin="round" d="M5.75 7.25a1 1 0 1 0 2 0 1 1 0 1 0 -2 0" stroke-width="1"></path><path id="Vector 3118" stroke="#000000" stroke-linecap="round" stroke-linejoin="round" d="m2.5 9.5 2 2" stroke-width="1"></path></g></svg>