<svg xmlns="http://www.w3.org/2000/svg" fill="none" viewBox="0 0 14 14"><g id="half-star-1--reward-rating-rate-social-star-media-favorite-like-stars-half"><path id="Vector" stroke="#000000" stroke-linecap="round" stroke-linejoin="round" d="M6.73991 11.48c0.08092 -0.0397 0.16986 -0.0603 0.26 -0.0603V0.776978c-0.10303 0 -0.20391 0.029475 -0.29073 0.084947 -0.08683 0.055472 -0.15597 0.134625 -0.19927 0.228115l-1.59 3.21c-0.03616 0.08148 -0.09305 0.15205 -0.16498 0.20469 -0.07194 0.05263 -0.15642 0.0855 -0.24502 0.09531l-3.509999 0.52c-0.10412 0.00808 -0.203663 0.04619 -0.286569 0.10969 -0.082907 0.06351 -0.14562 0.14969 -0.180544 0.24811 -0.034923 0.09842 -0.040559 0.20486 -0.016223 0.30642 0.024336 0.10155 0.077599 0.19388 0.153336 0.26578l2.559999 2.47c0.06457 0.06033 0.11303 0.13584 0.14098 0.21968 0.02794 0.08383 0.03448 0.17332 0.01902 0.26032l-0.61 3.56996c-0.01766 0.1015 -0.0065 0.2058 0.03222 0.3012 0.03872 0.0954 0.10344 0.178 0.1868 0.2385 0.08335 0.0604 0.182 0.0962 0.28471 0.1034 0.10271 0.0071 0.20536 -0.0147 0.29627 -0.0631l3.16 -1.67Z" stroke-width="1"></path></g></svg>