<svg xmlns="http://www.w3.org/2000/svg" fill="none" viewBox="0 0 14 14"><g id="half-star-2--reward-rating-rate-social-star-media-favorite-like-stars-half"><path id="Vector" stroke="#000000" stroke-linecap="round" stroke-linejoin="round" d="M6.73991 11.48c0.08092 -0.0397 0.16986 -0.0603 0.26 -0.0603V0.776978c-0.10303 0 -0.20391 0.029475 -0.29073 0.084947 -0.08683 0.055472 -0.15597 0.134625 -0.19927 0.228115l-1.59 3.21c-0.03616 0.08148 -0.09305 0.15205 -0.16498 0.20469 -0.07194 0.05263 -0.15642 0.0855 -0.24502 0.09531l-3.509999 0.52c-0.10412 0.00808 -0.203663 0.04619 -0.286569 0.10969 -0.082907 0.06351 -0.14562 0.14969 -0.180544 0.24811 -0.034923 0.09842 -0.040559 0.20486 -0.016223 0.30642 0.024336 0.10155 0.077599 0.19388 0.153336 0.26578l2.559999 2.47c0.06457 0.06033 0.11303 0.13584 0.14098 0.21968 0.02794 0.08383 0.03448 0.17332 0.01902 0.26032l-0.61 3.56996c-0.01766 0.1015 -0.0065 0.2058 0.03222 0.3012 0.03872 0.0954 0.10344 0.178 0.1868 0.2385 0.08335 0.0604 0.182 0.0962 0.28471 0.1034 0.10271 0.0071 0.20536 -0.0147 0.29627 -0.0631l3.16 -1.67Z" stroke-width="1"></path><path id="Vector_2" stroke="#000000" stroke-linecap="round" stroke-linejoin="round" d="M7 0.776978c0.10303 0 0.20391 0.029475 0.29074 0.084947 0.08682 0.055472 0.15596 0.134625 0.19926 0.228115L8.43605 3" stroke-width="1"></path><path id="Vector_3" stroke="#000000" stroke-linecap="round" stroke-linejoin="round" d="M10.5 4.74963 13 5.12c0.1016 0.01307 0.1974 0.05478 0.2763 0.12026 0.0788 0.06548 0.1373 0.15204 0.1688 0.24956 0.0314 0.09751 0.0345 0.20197 0.0088 0.30116 -0.0257 0.0992 -0.0791 0.18904 -0.1539 0.25902l-1.9655 1.94996" stroke-width="1"></path><path id="Vector_4" stroke="#000000" stroke-linecap="round" stroke-linejoin="round" d="M7 11.4196c0.09014 0 0.17908 0.0206 0.26 0.0603l3.16 1.67c0.0909 0.0484 0.1936 0.0702 0.2963 0.0631 0.1027 -0.0072 0.2013 -0.043 0.2847 -0.1034 0.0833 -0.0605 0.1481 -0.1431 0.1868 -0.2385 0.0387 -0.0954 0.0499 -0.1997 0.0322 -0.3012l-0.3288 -1.9029" stroke-width="1"></path></g></svg>