<svg xmlns="http://www.w3.org/2000/svg" fill="none" viewBox="0 0 14 14"><g id="hand-washing--hand-washing-clean-sanitize-washroom"><path id="Ellipse 1535" stroke="#000000" stroke-linecap="round" stroke-linejoin="round" d="M13.5 3.75c0 0.9665 -0.7835 1.75 -1.75 1.75S10 4.7165 10 3.75C10 2.4375 11.75 0.5 11.75 0.5s1.75 1.9375 1.75 3.25Z" stroke-width="1"></path><path id="vector 1997" stroke="#000000" stroke-linecap="round" stroke-linejoin="round" d="M9.17308 9.26905H6m3.17308 0h1.26922c0.5842 0 1.0577 0.47355 1.0577 1.05765 0 0.5842 -0.4735 1.0577 -1.0577 1.0577l-2.11537 0m0.84615 -2.11535c0.58414 0 1.05772 -0.47354 1.05772 -1.05769s-0.47358 -1.05769 -1.05772 -1.05769l-5.28846 0 1.06125 -0.84892c0.53383 -0.42704 0.5211 -1.24305 -0.0258 -1.65322 -0.36462 -0.27347 -0.86437 -0.27928 -1.23526 -0.01437L2.18693 5.70702c-0.55588 0.39704 -1.03496 0.89181 -1.413887 1.4602l-0.273035 0.40955M8.32693 11.3844H5.57692m2.75001 0c0.58414 0 1.05768 0.4736 1.05768 1.0577 0 0.5842 -0.47354 1.0577 -1.05769 1.0577H2.37394c-0.65808 0 -1.28921 -0.2614 -1.754542 -0.7267L0.5 12.6537" stroke-width="1"></path></g></svg>