<svg xmlns="http://www.w3.org/2000/svg" fill="none" viewBox="0 0 14 14"><g id="hard-drive-upload--hard-drive-upload-disk-device-electronics-storage-code-disk-programming"><path id="Vector" stroke="#000000" stroke-linecap="round" stroke-linejoin="round" d="M4.5 3.5 7 1l2.5 2.5" stroke-width="1"></path><path id="Vector_2" stroke="#000000" stroke-linecap="round" stroke-linejoin="round" d="M7 1v5.5" stroke-width="1"></path><path id="Vector_3" stroke="#000000" stroke-linecap="round" stroke-linejoin="round" d="M13 12V9.5c0 -0.55228 -0.4477 -1 -1 -1H2c-0.55228 0 -1 0.44772 -1 1V12c0 0.5523 0.44772 1 1 1h10c0.5523 0 1 -0.4477 1 -1Z" stroke-width="1"></path><path id="Vector_4" stroke="#000000" stroke-linecap="round" stroke-linejoin="round" d="M3 10.75h3" stroke-width="1"></path><g id="Group 4776"><path id="Vector_5" stroke="#000000" stroke-linecap="round" stroke-linejoin="round" d="M10.75 11c-0.1381 0 -0.25 -0.1119 -0.25 -0.25s0.1119 -0.25 0.25 -0.25" stroke-width="1"></path><path id="Vector_6" stroke="#000000" stroke-linecap="round" stroke-linejoin="round" d="M10.75 11c0.1381 0 0.25 -0.1119 0.25 -0.25s-0.1119 -0.25 -0.25 -0.25" stroke-width="1"></path></g></g></svg>