<svg xmlns="http://www.w3.org/2000/svg" fill="none" viewBox="0 0 14 14"><g id="headphones--headphones-audio-music-wireless-headset-entertainment"><path id="Vector" stroke="#000000" stroke-linecap="round" stroke-linejoin="round" d="M3 8H1.5c-0.552285 0 -1 0.44772 -1 1v3c0 0.5523 0.447715 1 1 1H3c0.55228 0 1 -0.4477 1 -1V9c0 -0.55228 -0.44772 -1 -1 -1Z" stroke-width="1"></path><path id="Vector_2" stroke="#000000" stroke-linecap="round" stroke-linejoin="round" d="M12.5 8H11c-0.5523 0 -1 0.44772 -1 1v3c0 0.5523 0.4477 1 1 1h1.5c0.5523 0 1 -0.4477 1 -1V9c0 -0.55228 -0.4477 -1 -1 -1Z" stroke-width="1"></path><path id="Vector_3" stroke="#000000" stroke-linecap="round" stroke-linejoin="round" d="M2 8V6c0 -1.32608 0.52678 -2.59785 1.46447 -3.53553C4.40215 1.52678 5.67392 1 7 1c1.32608 0 2.59785 0.52678 3.5355 1.46447C11.4732 3.40215 12 4.67392 12 6v2" stroke-width="1"></path></g></svg>