<svg xmlns="http://www.w3.org/2000/svg" fill="none" viewBox="0 0 14 14"><g id="heart-rate-clipboard--heart-rate-clipboard-checkup-medical-report-information-data-beat-pulse-monitor"><path id="vector" stroke="#000000" stroke-linecap="round" stroke-linejoin="round" d="M9.5 1.5H11c0.2652 0 0.5196 0.10536 0.7071 0.29289 0.1875 0.18754 0.2929 0.44189 0.2929 0.70711v10c0 0.2652 -0.1054 0.5196 -0.2929 0.7071S11.2652 13.5 11 13.5H3c-0.26522 0 -0.51957 -0.1054 -0.70711 -0.2929C2.10536 13.0196 2 12.7652 2 12.5v-10c0 -0.26522 0.10536 -0.51957 0.29289 -0.70711C2.48043 1.60536 2.73478 1.5 3 1.5h1.5" stroke-width="1"></path><path id="vector_2" stroke="#000000" stroke-linecap="round" stroke-linejoin="round" d="M8.5 0.5h-3c-0.55228 0 -1 0.447715 -1 1V2c0 0.55228 0.44772 1 1 1h3c0.55228 0 1 -0.44772 1 -1v-0.5c0 -0.552285 -0.44772 -1 -1 -1Z" stroke-width="1"></path><path id="Vector 2105" stroke="#000000" stroke-linecap="round" stroke-linejoin="round" d="M2 8.46875h2.58545L6 6l2 5 1.52295 -2.53125H12" stroke-width="1"></path></g></svg>