<svg xmlns="http://www.w3.org/2000/svg" fill="none" viewBox="0 0 14 14"><g id="heatmap-2"><path id="vector 2087" stroke="#000000" stroke-linecap="round" stroke-linejoin="round" d="M1.31274 8.35942C-0.316495 2.37038 4.77614 0.219852 8.36131 1.54985 11.9465 2.87985 13 6.80511 13 9.40725c0 3.03585 -3.76036 3.63845 -5.7963 3.36135 -3.4117 -0.1735 -5.34987 -2.4201 -5.89096 -4.40918Z" stroke-width="1"></path><path id="vector 2088" stroke="#000000" stroke-linecap="round" stroke-linejoin="round" d="M3.23289 7.18128C2.11108 3.64131 5.29693 2.6596 7.35612 3.40432 9.41532 4.14906 10 5.94683 10 7.40388c0 1.6999 -2.21419 2.40144 -3.38356 2.24629 -1.95956 -0.09713 -3.03408 -1.36608 -3.38355 -2.46889Z" stroke-width="1"></path><path id="ellipse 55" stroke="#000000" stroke-linecap="round" stroke-linejoin="round" d="M4.75 5.921a1.25 1.25 0 1 0 2.5 0 1.25 1.25 0 1 0 -2.5 0" stroke-width="1"></path></g></svg>