<svg xmlns="http://www.w3.org/2000/svg" fill="none" viewBox="0 0 14 14"><g id="heatmap-1"><path id="Ellipse 1818" stroke="#000000" stroke-linecap="round" stroke-linejoin="round" d="M2 3.5a1.5 1.5 0 1 0 3 0 1.5 1.5 0 1 0 -3 0" stroke-width="1"></path><path id="Ellipse 1820" stroke="#000000" stroke-linecap="round" stroke-linejoin="round" d="M8.5 10.5a2 2 0 1 0 4 0 2 2 0 1 0 -4 0" stroke-width="1"></path><path id="Ellipse 1819" stroke="#000000" stroke-linecap="round" stroke-linejoin="round" d="M7.5 3.75a2.75 2.75 0 1 0 5.5 0 2.75 2.75 0 1 0 -5.5 0" stroke-width="1"></path><path id="Ellipse 1821" stroke="#000000" stroke-linecap="round" stroke-linejoin="round" d="M1 10.25a2.75 2.75 0 1 0 5.5 0 2.75 2.75 0 1 0 -5.5 0" stroke-width="1"></path></g></svg>