<svg xmlns="http://www.w3.org/2000/svg" fill="none" viewBox="0 0 14 14"><g id="helicopter-side"><path id="Vector 4621" stroke="#000000" stroke-linecap="round" stroke-linejoin="round" d="m8 10.5 -1 2" stroke-width="1"></path><path id="Vector 4622" stroke="#000000" stroke-linecap="round" stroke-linejoin="round" d="m10.5 10.5 1 2" stroke-width="1"></path><path id="Vector 4620" stroke="#000000" stroke-linecap="round" stroke-linejoin="round" d="M5 12.5h8.5" stroke-width="1"></path><path id="Vector 4617" stroke="#000000" stroke-linecap="round" stroke-linejoin="round" d="M4.5 2.5h8" stroke-width="1"></path><path id="Vector 4618" stroke="#000000" stroke-linecap="round" stroke-linejoin="round" d="M8.5 1.5v5c0 1.10457 0.89543 2 2 2H13" stroke-width="1"></path><path id="Vector 4619" stroke="#000000" stroke-linecap="round" stroke-linejoin="round" d="M9 4.5H3.5l-0.72361 -1.44721C2.607 2.714 2.26074 2.5 1.88197 2.5H0.945194C0.69932 2.5 0.5 2.69932 0.5 2.94519c0 0.0364 0.004464 0.07267 0.013292 0.10798l0.797338 3.18937C1.42193 6.6877 1.82191 7 2.28078 7H3.8406c0.40003 0 0.76157 0.2384 0.91915 0.60608l0.72075 1.68176C5.79566 10.0232 6.51874 10.5 7.31879 10.5H11c1.1046 0 2 -0.89543 2 -2 0 -2.20914 -1.7909 -4 -4 -4Z" stroke-width="1"></path></g></svg>