<svg xmlns="http://www.w3.org/2000/svg" fill="none" viewBox="0 0 14 14"><g id="help-chat-1--bubble-help-mark-message-query-question-speech-square"><g id="Group 2571"><path id="Vector" stroke="#000000" stroke-linecap="round" stroke-linejoin="round" d="M7 8.75c-0.13807 0 -0.25 -0.11193 -0.25 -0.25s0.11193 -0.25 0.25 -0.25" stroke-width="1"></path><path id="Vector_2" stroke="#000000" stroke-linecap="round" stroke-linejoin="round" d="M7 8.75c0.13807 0 0.25 -0.11193 0.25 -0.25s-0.11193 -0.25 -0.25 -0.25" stroke-width="1"></path></g><path id="Ellipse 1846" stroke="#000000" stroke-linecap="round" stroke-linejoin="round" d="M5.5 4.5C5.5 3.67157 6.17157 3 7 3s1.5 0.67157 1.5 1.5S7.82843 6 7 6v0.5" stroke-width="1"></path><path id="Vector_3" stroke="#000000" stroke-linecap="round" stroke-linejoin="round" d="M12.5 0.5h-11C1.23478 0.5 0.98043 0.605357 0.792893 0.792893 0.605357 0.98043 0.5 1.23478 0.5 1.5V10c0 0.2652 0.105357 0.5196 0.292893 0.7071C0.98043 10.8946 1.23478 11 1.5 11h2v2.5L6.62 11h5.88c0.2652 0 0.5196 -0.1054 0.7071 -0.2929S13.5 10.2652 13.5 10V1.5c0 -0.26522 -0.1054 -0.51957 -0.2929 -0.707107C13.0196 0.605357 12.7652 0.5 12.5 0.5Z" stroke-width="1"></path></g></svg>