<svg xmlns="http://www.w3.org/2000/svg" fill="none" viewBox="0 0 14 14"><g id="hide-layer--show-layer-work"><path id="Vector" stroke="#000000" stroke-linecap="round" stroke-linejoin="round" d="M9 9V4c0 -0.26522 -0.10536 -0.51957 -0.29289 -0.70711C8.51957 3.10536 8.26522 3 8 3H3" stroke-width="1"></path><path id="Vector_2" stroke="#000000" stroke-linecap="round" stroke-linejoin="round" d="M1.5 4.5v8c0 0.2652 0.10536 0.5196 0.29289 0.7071 0.18754 0.1875 0.44189 0.2929 0.70711 0.2929H8c0.26522 0 0.51957 -0.1054 0.70711 -0.2929C8.89464 13.0196 9 12.7652 9 12.5V12" stroke-width="1"></path><path id="Vector_3" stroke="#000000" stroke-linecap="round" stroke-linejoin="round" d="M5 3V1.5c0 -0.26522 0.10536 -0.51957 0.29289 -0.707107C5.48043 0.605357 5.73478 0.5 6 0.5h5.5c0.2652 0 0.5196 0.105357 0.7071 0.292893 0.1875 0.187537 0.2929 0.441887 0.2929 0.707107V10c0 0.2652 -0.1054 0.5196 -0.2929 0.7071S11.7652 11 11.5 11H11" stroke-width="1"></path><path id="Vector_4" stroke="#000000" stroke-linecap="round" stroke-linejoin="round" d="M13.5 13.5 0.5 0.5" stroke-width="1"></path></g></svg>