<svg xmlns="http://www.w3.org/2000/svg" fill="none" viewBox="0 0 14 14"><g id="hierarchy-11--node-organization-links-structure-link-nodes-network-hierarchy"><path id="Vector" stroke="#000000" stroke-linecap="round" stroke-linejoin="round" d="M3.5 7v6.5" stroke-width="1"></path><path id="Vector_2" stroke="#000000" stroke-linecap="round" stroke-linejoin="round" d="M3.5 3V0.5" stroke-width="1"></path><path id="Vector 4315" stroke="#000000" stroke-linecap="round" stroke-linejoin="round" d="M5.5 5h3c1.10457 0 2 0.89543 2 2v2.5" stroke-width="1"></path><path id="Vector 4344" stroke="#000000" stroke-linecap="round" stroke-linejoin="round" d="M1.5 6.5v-3c0 -0.27614 0.22386 -0.5 0.5 -0.5h3c0.27614 0 0.5 0.22386 0.5 0.5v3c0 0.27614 -0.22386 0.5 -0.5 0.5H2c-0.27614 0 -0.5 -0.22386 -0.5 -0.5Z" stroke-width="1"></path><path id="Vector 4345" stroke="#000000" stroke-linecap="round" stroke-linejoin="round" d="M8.5 13v-3c0 -0.27614 0.22386 -0.5 0.5 -0.5h3c0.2761 0 0.5 0.22386 0.5 0.5v3c0 0.2761 -0.2239 0.5 -0.5 0.5H9c-0.27614 0 -0.5 -0.2239 -0.5 -0.5Z" stroke-width="1"></path></g></svg>