<svg xmlns="http://www.w3.org/2000/svg" fill="none" viewBox="0 0 14 14"><g id="hierarchy-16"><path id="Vector 2255" stroke="#000000" stroke-linecap="round" stroke-linejoin="round" d="m7 3.5 -6 0C0.723858 3.5 0.5 3.27614 0.5 3l0 -2C0.5 0.723858 0.723858 0.5 1 0.5l6 0c0.27614 0 0.5 0.223857 0.5 0.5l0 2c0 0.27614 -0.22386 0.5 -0.5 0.5Z" stroke-width="1"></path><path id="Vector 2256" stroke="#000000" stroke-linecap="round" stroke-linejoin="round" d="m13 8.45834 -6 0c-0.27614 0 -0.5 -0.22385 -0.5 -0.5l0 -2c0 -0.27614 0.22386 -0.5 0.5 -0.5l6 0c0.2761 0 0.5 0.22386 0.5 0.5l0 2c0 0.27615 -0.2239 0.5 -0.5 0.5Z" stroke-width="1"></path><path id="Vector 2257" stroke="#000000" stroke-linecap="round" stroke-linejoin="round" d="m13 13.5 -6 0c-0.27614 0 -0.5 -0.2239 -0.5 -0.5l0 -2c0 -0.2761 0.22386 -0.5 0.5 -0.5l6 0c0.2761 0 0.5 0.2239 0.5 0.5l0 2c0 0.2761 -0.2239 0.5 -0.5 0.5Z" stroke-width="1"></path><path id="Vector 2264" stroke="#000000" stroke-linecap="round" stroke-linejoin="round" d="M3 3.5V11c0 0.5523 0.44772 1 1 1h2.5" stroke-width="1"></path><path id="Vector 2265" stroke="#000000" stroke-linecap="round" stroke-linejoin="round" d="M3 7h3.5" stroke-width="1"></path></g></svg>