<svg xmlns="http://www.w3.org/2000/svg" fill="none" viewBox="0 0 14 14"><g id="hierarchy-1--node-organization-links-structure-link-nodes-network-hierarchy"><path id="Vector 4332" stroke="#000000" stroke-linecap="round" stroke-linejoin="round" d="M13 1.5h-3c-0.27614 0 -0.5 0.22386 -0.5 0.5v3c0 0.27614 0.22386 0.5 0.5 0.5h3c0.2761 0 0.5 -0.22386 0.5 -0.5V2c0 -0.27614 -0.2239 -0.5 -0.5 -0.5Z" stroke-width="1"></path><path id="Vector 4333" stroke="#000000" stroke-linecap="round" stroke-linejoin="round" d="M13 8.5h-3c-0.27614 0 -0.5 0.22386 -0.5 0.5v3c0 0.2761 0.22386 0.5 0.5 0.5h3c0.2761 0 0.5 -0.2239 0.5 -0.5V9c0 -0.27614 -0.2239 -0.5 -0.5 -0.5Z" stroke-width="1"></path><path id="Vector 4334" stroke="#000000" stroke-linecap="round" stroke-linejoin="round" d="M4 5H1c-0.276142 0 -0.5 0.22386 -0.5 0.5v3c0 0.27614 0.223858 0.5 0.5 0.5h3c0.27614 0 0.5 -0.22386 0.5 -0.5v-3c0 -0.27614 -0.22386 -0.5 -0.5 -0.5Z" stroke-width="1"></path><path id="Vector" stroke="#000000" stroke-linecap="round" stroke-linejoin="round" d="m4.5 6.22222 5 -2.44445" stroke-width="1"></path><path id="Vector_2" stroke="#000000" stroke-linecap="round" stroke-linejoin="round" d="m4.5 7.77777 5 2.44443" stroke-width="1"></path></g></svg>