<svg xmlns="http://www.w3.org/2000/svg" fill="none" viewBox="0 0 14 14"><g id="hierarchy-17--hierarchy-nodes-organization-links-structure-network"><path id="Vector" stroke="#000000" stroke-linecap="round" stroke-linejoin="round" d="M3 9V5" stroke-width="1"></path><path id="Vector_2" stroke="#000000" stroke-linecap="round" stroke-linejoin="round" d="M11 9V6.5" stroke-width="1"></path><path id="Vector 2744" stroke="#000000" stroke-linecap="round" stroke-linejoin="round" d="M13 5 9 1" stroke-width="1"></path><path id="Vector 2745" stroke="#000000" stroke-linecap="round" stroke-linejoin="round" d="m9 5 4 -4" stroke-width="1"></path><path id="Vector 4344" stroke="#000000" stroke-linecap="round" stroke-linejoin="round" d="M1 4.5v-3c0 -0.27614 0.22386 -0.5 0.5 -0.5h3c0.27614 0 0.5 0.22386 0.5 0.5v3c0 0.27614 -0.22386 0.5 -0.5 0.5h-3c-0.27614 0 -0.5 -0.22386 -0.5 -0.5Z" stroke-width="1"></path><path id="Vector 4345" stroke="#000000" stroke-linecap="round" stroke-linejoin="round" d="M1 12.5v-3c0 -0.27614 0.22386 -0.5 0.5 -0.5h3c0.27614 0 0.5 0.22386 0.5 0.5v3c0 0.2761 -0.22386 0.5 -0.5 0.5h-3c-0.27614 0 -0.5 -0.2239 -0.5 -0.5Z" stroke-width="1"></path><path id="Vector 4346" stroke="#000000" stroke-linecap="round" stroke-linejoin="round" d="M9 12.5v-3c0 -0.27614 0.22386 -0.5 0.5 -0.5h3c0.2761 0 0.5 0.22386 0.5 0.5v3c0 0.2761 -0.2239 0.5 -0.5 0.5h-3c-0.27614 0 -0.5 -0.2239 -0.5 -0.5Z" stroke-width="1"></path></g></svg>