<svg xmlns="http://www.w3.org/2000/svg" fill="none" viewBox="0 0 14 14"><g id="hierarchy-6--node-organization-links-structure-link-nodes-network-hierarchy"><path id="Vector" stroke="#000000" stroke-linecap="round" stroke-linejoin="round" d="M3.5 9.5v-5" stroke-width="1"></path><path id="Vector_2" stroke="#000000" stroke-linecap="round" stroke-linejoin="round" d="M10.5 4.5V5c0 0.53043 -0.2107 1.03914 -0.58579 1.41421C9.53914 6.78929 9.03043 7 8.5 7H5c-0.39782 0 -0.77936 0.15804 -1.06066 0.43934C3.65804 7.72064 3.5 8.10218 3.5 8.5" stroke-width="1"></path><path id="Vector 4344" stroke="#000000" stroke-linecap="round" stroke-linejoin="round" d="M1.5 4V1c0 -0.276142 0.22386 -0.5 0.5 -0.5h3c0.27614 0 0.5 0.223858 0.5 0.5v3c0 0.27614 -0.22386 0.5 -0.5 0.5H2c-0.27614 0 -0.5 -0.22386 -0.5 -0.5Z" stroke-width="1"></path><path id="Vector 4346" stroke="#000000" stroke-linecap="round" stroke-linejoin="round" d="M8.5 4V1c0 -0.276142 0.22386 -0.5 0.5 -0.5h3c0.2761 0 0.5 0.223858 0.5 0.5v3c0 0.27614 -0.2239 0.5 -0.5 0.5H9c-0.27614 0 -0.5 -0.22386 -0.5 -0.5Z" stroke-width="1"></path><path id="Vector 4345" stroke="#000000" stroke-linecap="round" stroke-linejoin="round" d="M1.5 13v-3c0 -0.27614 0.22386 -0.5 0.5 -0.5h3c0.27614 0 0.5 0.22386 0.5 0.5v3c0 0.2761 -0.22386 0.5 -0.5 0.5H2c-0.27614 0 -0.5 -0.2239 -0.5 -0.5Z" stroke-width="1"></path></g></svg>