<svg xmlns="http://www.w3.org/2000/svg" fill="none" viewBox="0 0 14 14"><g id="hierarchy-5--node-organization-links-structure-link-nodes-network-hierarchy"><path id="Vector" stroke="#000000" stroke-linecap="round" stroke-linejoin="round" d="M7 4.5v0.25c0 0.59674 -0.23705 1.16903 -0.65901 1.59099C5.91903 6.76295 5.34674 7 4.75 7c-0.59674 0 -1.16903 0.23705 -1.59099 0.65901C2.73705 8.08097 2.5 8.65326 2.5 9.25v0.25" stroke-width="1"></path><path id="Vector_2" stroke="#000000" stroke-linecap="round" stroke-linejoin="round" d="M7 4.5v0.25c0 0.59674 0.23705 1.16903 0.65901 1.59099C8.08097 6.76295 8.65326 7 9.25 7c0.59674 0 1.169 0.23705 1.591 0.65901 0.4219 0.42196 0.659 0.99425 0.659 1.59099v0.25" stroke-width="1"></path><path id="Vector 4344" stroke="#000000" stroke-linecap="round" stroke-linejoin="round" d="M5 4V1c0 -0.276142 0.22386 -0.5 0.5 -0.5h3c0.27614 0 0.5 0.223858 0.5 0.5v3c0 0.27614 -0.22386 0.5 -0.5 0.5h-3c-0.27614 0 -0.5 -0.22386 -0.5 -0.5Z" stroke-width="1"></path><path id="Vector 4345" stroke="#000000" stroke-linecap="round" stroke-linejoin="round" d="M0.5 13v-3c0 -0.27614 0.223858 -0.5 0.5 -0.5h3c0.27614 0 0.5 0.22386 0.5 0.5v3c0 0.2761 -0.22386 0.5 -0.5 0.5H1c-0.276142 0 -0.5 -0.2239 -0.5 -0.5Z" stroke-width="1"></path><path id="Vector 4346" stroke="#000000" stroke-linecap="round" stroke-linejoin="round" d="M9.5 13v-3c0 -0.27614 0.22386 -0.5 0.5 -0.5h3c0.2761 0 0.5 0.22386 0.5 0.5v3c0 0.2761 -0.2239 0.5 -0.5 0.5h-3c-0.27614 0 -0.5 -0.2239 -0.5 -0.5Z" stroke-width="1"></path></g></svg>