<svg xmlns="http://www.w3.org/2000/svg" fill="none" viewBox="0 0 14 14"><g id="hinduism--religion-hinduism-culture-hindu"><path id="Vector" stroke="#000000" stroke-linecap="round" stroke-linejoin="round" d="M0.796387 9.18589c0 2.11231 1.712373 3.82471 3.824693 3.82471 2.11231 0 3.82468 -1.7124 3.82468 -3.82471S6.73339 5.36121 4.62108 5.36121" stroke-width="1"></path><path id="Vector_2" stroke="#000000" stroke-linecap="round" stroke-linejoin="round" d="M2.32666 1.58596c0.48947 -0.37421 1.10126 -0.596519 1.76497 -0.596519 1.60637 0 2.90859 1.302219 2.90859 2.908599 0 0.70048 -0.24762 1.34314 -0.66011 1.84519" stroke-width="1"></path><path id="Vector_3" stroke="#000000" stroke-linecap="round" stroke-linejoin="round" d="M12.6548 3.36639c-0.9554 0.95548 -2.5046 0.95548 -3.46004 0" stroke-width="1"></path><path id="Vector_4" stroke="#000000" stroke-linecap="round" stroke-linejoin="round" d="M11.6677 11.5457c0.401 -0.4915 0.6627 -1.1051 0.719 -1.78505 0.1482 -1.78961 -1.1825 -3.36052 -2.97207 -3.50873 -0.62038 -0.05137 -1.46784 0.09401 -1.87725 0.45865" stroke-width="1"></path><g id="Group 1"><path id="Ellipse 1001" stroke="#000000" stroke-linecap="round" stroke-linejoin="round" d="M10.925 1.45687c-0.138 0 -0.25 -0.11192 -0.25 -0.25 0 -0.13807 0.112 -0.249995 0.25 -0.249995" stroke-width="1"></path><path id="Ellipse 1002" stroke="#000000" stroke-linecap="round" stroke-linejoin="round" d="M10.925 1.45687c0.1381 0 0.25 -0.11192 0.25 -0.25 0 -0.13807 -0.1119 -0.249995 -0.25 -0.249995" stroke-width="1"></path></g></g></svg>