<svg xmlns="http://www.w3.org/2000/svg" fill="none" viewBox="0 0 14 14"><g id="honey-pot--dessert-honey-pot"><path id="Vector 2176" stroke="#000000" stroke-linecap="round" stroke-linejoin="round" d="M2 2.5v-1c0 -0.552285 0.44772 -1 1 -1h8c0.5523 0 1 0.447715 1 1v1c0 0.55228 -0.4477 1 -1 1H3c-0.55228 0 -1 -0.44772 -1 -1Z" stroke-width="1"></path><path id="Vector 2177" stroke="#000000" stroke-linecap="round" stroke-linejoin="round" d="M2.40533 4.09467 3 3.5h8l0.5947 0.59467c0.5796 0.57967 0.9053 1.36588 0.9053 2.18566 0 0.14626 -0.0104 0.29234 -0.0311 0.43713l-0.7236 5.06534c-0.1407 0.9853 -0.9846 1.7172 -1.97989 1.7172H4.23459c-0.9953 0 -1.83914 -0.7319 -1.9799 -1.7172l-0.72362 -5.06534C1.51038 6.57267 1.5 6.42659 1.5 6.28033c0 -0.81978 0.32566 -1.60599 0.90533 -2.18566Z" stroke-width="1"></path><path id="Vector 2178" stroke="#000000" stroke-linecap="round" stroke-linejoin="round" d="m4.75 7 -1 1.5 1 1.5h1.5l1 -1.5 -1 -1.5h-1.5Z" stroke-width="1"></path><path id="Vector 2179" stroke="#000000" stroke-linecap="round" stroke-linejoin="round" d="m7.25 5.5 -1 1.5 1 1.5h1.5l1 -1.5 -1 -1.5h-1.5Z" stroke-width="1"></path><path id="Vector 2180" stroke="#000000" stroke-linecap="round" stroke-linejoin="round" d="m7.25 8.5 -1 1.5 1 1.5h1.5l1 -1.5 -1 -1.5h-1.5Z" stroke-width="1"></path></g></svg>