<svg xmlns="http://www.w3.org/2000/svg" fill="none" viewBox="0 0 14 14"><g id="horizontal-scroll--move-scroll-horizontal"><path id="Vector" stroke="#000000" stroke-linecap="round" stroke-linejoin="round" d="m9 2.25 4.39 4.49c0.0351 0.0336 0.063 0.07396 0.0821 0.11865 0.0191 0.04468 0.0289 0.09276 0.0289 0.14135 0 0.04859 -0.0098 0.09667 -0.0289 0.14135 -0.0191 0.04469 -0.047 0.08505 -0.0821 0.11865L9 11.75" stroke-width="1"></path><path id="Vector_2" stroke="#000000" stroke-linecap="round" stroke-linejoin="round" d="M5.00003 2.25 0.610025 6.74c-0.035089 0.0336 -0.063013 0.07396 -0.08209 0.11865C0.508858 6.90333 0.499023 6.95141 0.499023 7c0 0.04859 0.009835 0.09667 0.028912 0.14135 0.019077 0.04469 0.047001 0.08505 0.08209 0.11865l4.390005 4.49" stroke-width="1"></path></g></svg>