<svg xmlns="http://www.w3.org/2000/svg" fill="none" viewBox="0 0 14 14"><g id="hotel-five-star--five-stars-reviews-review-rating-hotel-star"><path id="Vector 3" stroke="#000000" stroke-linecap="round" stroke-linejoin="round" d="m8.25875 5.47 -2.3376 0 -0.35963 2.15778 0.26366 -0.13182c0.29962 -0.14981 0.63 -0.22781 0.96499 -0.22781h0.56951c0.59585 0 1.07889 0.48304 1.07889 1.07889l0 0.35963c0 0.59586 -0.48304 1.0789 -1.0789 1.0789h-0.71926c-0.46975 0 -0.86939 -0.30023 -1.0175 -0.71927" stroke-width="1"></path><path id="Vector 4838" stroke="#000000" stroke-linecap="round" stroke-linejoin="round" d="M6.16042 1.29751 4.24999 4.24999l-2.80413 0.46736C0.689348 4.84343 0.350512 5.7391 0.834142 6.33433L2.99999 8.99999l-0.63796 3.18981c-0.15574 0.7787 0.61464 1.4195 1.35197 1.1246L6.99999 12l3.62811 1.3193c0.773 0.2811 1.5359 -0.4393 1.2995 -1.2271L11 8.99999l2.1658 -2.66566c0.4837 -0.59523 0.1448 -1.4909 -0.6117 -1.61698l-2.80411 -0.46736 -1.91043 -2.95248c-0.39406 -0.609 -1.28508 -0.609 -1.67914 0Z" stroke-width="1"></path></g></svg>