<svg xmlns="http://www.w3.org/2000/svg" fill="none" viewBox="0 0 14 14"><g id="hotel-four-star--four-stars-reviews-review-rating-hotel-star"><path id="Vector 7" stroke="#000000" stroke-linecap="round" stroke-linejoin="round" d="M8.55002 8.58H5.21169c-0.14452 0 -0.26168 -0.11715 -0.26168 -0.26167v0c0 -0.06339 0.02301 -0.12462 0.06475 -0.17232l2.38126 -2.72145c0.04703 -0.05374 0.11496 -0.08456 0.18637 -0.08456v0c0.13676 0 0.24763 0.11087 0.24763 0.24763V9.66" stroke-width="1"></path><path id="Vector 4838" stroke="#000000" stroke-linecap="round" stroke-linejoin="round" d="M6.16042 1.29751 4.24999 4.24999l-2.80413 0.46736C0.689348 4.84343 0.350512 5.7391 0.834142 6.33433L2.99999 8.99999l-0.63796 3.18981c-0.15574 0.7787 0.61464 1.4195 1.35197 1.1246L6.99999 12l3.62811 1.3193c0.773 0.2811 1.5359 -0.4393 1.2995 -1.2271L11 8.99999l2.1658 -2.66566c0.4837 -0.59523 0.1448 -1.4909 -0.6117 -1.61698l-2.80411 -0.46736 -1.91043 -2.95248c-0.39406 -0.609 -1.28508 -0.609 -1.67914 0Z" stroke-width="1"></path></g></svg>