<svg xmlns="http://www.w3.org/2000/svg" fill="none" viewBox="0 0 14 14"><g id="ice-cream-1--cook-frozen-bite-popsicle-cream-ice-cooking-nutrition-freezer-cold-food"><path id="Vector 3071" stroke="#000000" stroke-linecap="round" stroke-linejoin="round" d="M5.5 12V9.5h3V12c0 0.8284 -0.67157 1.5 -1.5 1.5s-1.5 -0.6716 -1.5 -1.5Z" stroke-width="1"></path><path id="Subtract" stroke="#000000" stroke-linecap="round" stroke-linejoin="round" d="M10.9334 3.76928C10.6548 3.91659 10.3371 4 10 4c-1.10457 0 -2 -0.89543 -2 -2 0 -0.46717 0.16017 -0.89692 0.4286 -1.237345C7.98493 0.592963 7.50332 0.5 7 0.5c-2.20914 0 -4 1.79086 -4 4v4c0 0.55229 0.44772 1 1 1h6c0.5523 0 1 -0.44771 1 -1v-4c0 -0.24957 -0.0229 -0.4938 -0.0666 -0.73072Z" stroke-width="1"></path></g></svg>