<svg xmlns="http://www.w3.org/2000/svg" fill="none" viewBox="0 0 14 14"><g id="image-location--image-location-photo-gps-pin-tracker-picture"><path id="Vector" stroke="#000000" stroke-linecap="round" stroke-linejoin="round" d="M5.75 10.5H1.5c-0.26522 0 -0.51957 -0.1054 -0.707107 -0.2929C0.605357 10.0196 0.5 9.76522 0.5 9.5v-8c0 -0.26522 0.105357 -0.51957 0.292893 -0.707107C0.98043 0.605357 1.23478 0.5 1.5 0.5h8c0.26522 0 0.5196 0.105357 0.7071 0.292893 0.1875 0.187537 0.2929 0.441887 0.2929 0.707107v1.75" stroke-width="1"></path><path id="Vector_2" stroke="#000000" stroke-linecap="round" stroke-linejoin="round" d="M13.5 8.8125c0 1.5562 -2.8125 4.6875 -2.8125 4.6875S7.875 10.3687 7.875 8.8125c0 -0.74592 0.29632 -1.46129 0.82376 -1.98874C9.22621 6.29632 9.94158 6 10.6875 6c0.7459 0 1.4613 0.29632 1.9887 0.82376 0.5275 0.52745 0.8238 1.24282 0.8238 1.98874Z" stroke-width="1"></path><path id="Vector_3" stroke="#000000" stroke-linecap="round" stroke-linejoin="round" d="M10.6875 9c0.2761 0 0.5 -0.22386 0.5 -0.5s-0.2239 -0.5 -0.5 -0.5 -0.5 0.22386 -0.5 0.5 0.2239 0.5 0.5 0.5Z" stroke-width="1"></path><path id="Vector_4" stroke="#000000" stroke-linecap="round" stroke-linejoin="round" d="M7.125 4.875c-0.69036 0 -1.25 -0.55964 -1.25 -1.25s0.55964 -1.25 1.25 -1.25 1.25 0.55964 1.25 1.25 -0.55964 1.25 -1.25 1.25Z" stroke-width="1"></path><path id="Vector 3951" stroke="#000000" stroke-linecap="round" stroke-linejoin="round" d="m0.5 7.07343 2.60468 -2.60468 3.02578 3.02579" stroke-width="1"></path></g></svg>