<svg xmlns="http://www.w3.org/2000/svg" fill="none" viewBox="0 0 14 14"><g id="inbox-setting-bolt-nut"><path id="Vector" stroke="#000000" stroke-linecap="round" stroke-linejoin="round" d="M5.5 2.5h-4c-0.552285 0 -1 0.44772 -1 1v9c0 0.5523 0.447715 1 1 1h9c0.5523 0 1 -0.4477 1 -1v-4" stroke-width="1"></path><path id="Vector 2577" stroke="#000000" stroke-linecap="round" stroke-linejoin="round" d="M0.5 9h3.375c0.34518 0 0.625 0.27982 0.625 0.625V10c0 0.8284 0.67157 1.5 1.5 1.5s1.5 -0.6716 1.5 -1.5v-0.375c0 -0.34518 0.27982 -0.625 0.625 -0.625H11.5" stroke-width="1"></path><path id="Rectangle 1920" stroke="#000000" stroke-linecap="round" stroke-linejoin="round" d="m7.5 2.25 3 -1.75 3 1.75v3L10.5 7l-3 -1.75v-3Z" stroke-width="1"></path><path id="Ellipse 1472" stroke="#000000" stroke-linecap="round" stroke-linejoin="round" d="M10 3.75a0.5 0.5 0 1 0 1 0 0.5 0.5 0 1 0 -1 0" stroke-width="1"></path></g></svg>