<svg xmlns="http://www.w3.org/2000/svg" fill="none" viewBox="0 0 14 14"><g id="inbox-schedule--mail-envelope-email-message-time-schedule-clock"><path id="Vector 3966" stroke="#000000" stroke-linecap="round" stroke-linejoin="round" d="m0.5 2 6 4 6 -4" stroke-width="1"></path><path id="Vector 3967" stroke="#000000" stroke-linecap="round" stroke-linejoin="round" d="M5 9.5H1.5c-0.552285 0 -1 -0.44772 -1 -1v-7c0 -0.552285 0.447715 -1 1 -1h10c0.5523 0 1 0.447715 1 1v4" stroke-width="1"></path><path id="Vector" stroke="#000000" stroke-linecap="round" stroke-linejoin="round" d="M10.5 13.5c1.6569 0 3 -1.3431 3 -3 0 -1.65685 -1.3431 -3 -3 -3 -1.65685 0 -3 1.34315 -3 3 0 1.6569 1.34315 3 3 3Z" stroke-width="1"></path><path id="Vector_2" stroke="#000000" stroke-linecap="round" stroke-linejoin="round" d="m10.5 10.5 0.75 -0.75" stroke-width="1"></path></g></svg>