<svg xmlns="http://www.w3.org/2000/svg" fill="none" viewBox="0 0 14 14"><g id="inbox-setting-gear"><path id="Vector" stroke="#000000" stroke-linecap="round" stroke-linejoin="round" d="M5.5 2.5h-4c-0.552285 0 -1 0.44772 -1 1v9c0 0.5523 0.447715 1 1 1h9c0.5523 0 1 -0.4477 1 -1v-4" stroke-width="1"></path><path id="Vector_2" stroke="#000000" stroke-linecap="round" stroke-linejoin="round" d="M9.61025 1.3797 9.8264 0.821719c0.03645 -0.094473 0.10059 -0.175734 0.184 -0.23314 0.0834 -0.057405 0.1822 -0.08828 0.2835 -0.088579h0.4122c0.1013 0.000299 0.2001 0.031174 0.2835 0.088579 0.0834 0.057406 0.1475 0.138667 0.184 0.23314l0.2162 0.557981 0.7339 0.42226 0.5931 -0.09049c0.0988 -0.0134 0.1993 0.00286 0.2888 0.04671 0.0896 0.04386 0.164 0.11334 0.2139 0.19961l0.2011 0.35188c0.0515 0.08764 0.0753 0.18885 0.0681 0.29026 -0.0072 0.10141 -0.0449 0.19827 -0.1083 0.27778l-0.367 0.46749v0.84452l0.377 0.4675c0.0634 0.0795 0.1012 0.17636 0.1083 0.27777 0.0072 0.10141 -0.0165 0.20262 -0.068 0.29026l-0.2011 0.35188c-0.0499 0.08627 -0.1244 0.15575 -0.2139 0.19961 -0.0895 0.04385 -0.19 0.06011 -0.2888 0.04671l-0.5932 -0.09049 -0.7339 0.42226 -0.2161 0.55798c-0.0365 0.09447 -0.1006 0.17574 -0.1841 0.23314 -0.0834 0.05741 -0.1822 0.08828 -0.2834 0.08858h-0.4223c-0.1013 -0.0003 -0.2001 -0.03117 -0.2835 -0.08858 -0.08341 -0.0574 -0.14755 -0.13867 -0.184 -0.23314l-0.21615 -0.55798 -0.73393 -0.42226 -0.59317 0.09049c-0.09877 0.0134 -0.19929 -0.00286 -0.2888 -0.04671 -0.08951 -0.04386 -0.16395 -0.11334 -0.21388 -0.19961l-0.20108 -0.35188c-0.05152 -0.08764 -0.07526 -0.18885 -0.06808 -0.29026 0.00718 -0.10141 0.04494 -0.19827 0.1083 -0.27777l0.36696 -0.4675V3.3452l-0.37702 -0.46749c-0.06335 -0.07951 -0.10112 -0.17637 -0.10829 -0.27778 -0.00718 -0.10141 0.01655 -0.20262 0.06808 -0.29026l0.20107 -0.35188c0.04993 -0.08627 0.12438 -0.15575 0.21389 -0.19961 0.08951 -0.04385 0.19003 -0.06011 0.2888 -0.04671l0.59317 0.09049 0.74398 -0.42226Z" stroke-width="1"></path><path id="Ellipse 1473" stroke="#000000" stroke-linecap="round" stroke-linejoin="round" d="M10 3.767a0.5 0.5 0 1 0 1 0 0.5 0.5 0 1 0 -1 0" stroke-width="1"></path><path id="Vector 2577" stroke="#000000" stroke-linecap="round" stroke-linejoin="round" d="M0.5 9h3.375c0.34518 0 0.625 0.27982 0.625 0.625V10c0 0.8284 0.67157 1.5 1.5 1.5s1.5 -0.6716 1.5 -1.5v-0.375c0 -0.34518 0.27982 -0.625 0.625 -0.625H11.5" stroke-width="1"></path></g></svg>