<svg xmlns="http://www.w3.org/2000/svg" fill="none" viewBox="0 0 14 14"><g id="inbox-warning--mail-envelope-email-message-notification-warning-alert"><path id="Vector 3966" stroke="#000000" stroke-linecap="round" stroke-linejoin="round" d="m0.5 2 6 4 6 -4" stroke-width="1"></path><path id="Vector 3967" stroke="#000000" stroke-linecap="round" stroke-linejoin="round" d="M4 9.5H1.5c-0.552285 0 -1 -0.44772 -1 -1v-7c0 -0.552285 0.447715 -1 1 -1h10c0.5523 0 1 0.447715 1 1v3" stroke-width="1"></path><path id="Vector" stroke="#000000" stroke-linecap="round" stroke-linejoin="round" d="M10 13.5c1.933 0 3.5 -1.567 3.5 -3.5S11.933 6.5 10 6.5 6.5 8.067 6.5 10s1.567 3.5 3.5 3.5Z" stroke-width="1"></path><g id="Group 4495"><path id="Vector_2" stroke="#000000" stroke-linecap="round" stroke-linejoin="round" d="M10 11.75c-0.13807 0 -0.25 -0.1119 -0.25 -0.25s0.11193 -0.25 0.25 -0.25" stroke-width="1"></path><path id="Vector_3" stroke="#000000" stroke-linecap="round" stroke-linejoin="round" d="M10 11.75c0.1381 0 0.25 -0.1119 0.25 -0.25s-0.1119 -0.25 -0.25 -0.25" stroke-width="1"></path></g><path id="Vector 2317" stroke="#000000" stroke-linecap="round" stroke-linejoin="round" d="M10 8.25v1.5" stroke-width="1"></path></g></svg>