<svg xmlns="http://www.w3.org/2000/svg" fill="none" viewBox="0 0 14 14"><g id="incorrect-password--login-password-delete-textbox-touch-type-cross-wrong-incorrect"><path id="Rectangle 1696" stroke="#000000" stroke-linecap="round" stroke-linejoin="round" d="M7.14062 7.5H1.5c-0.552285 0 -1 -0.44772 -1 -1v-4c0 -0.55228 0.447715 -1 1 -1h9c0.5523 0 1 0.44772 1 1v4c0 0.29144 -0.1247 0.55376 -0.3236 0.73654" stroke-width="1"></path><g id="Group 2605"><path id="Ellipse 1111" stroke="#000000" stroke-linecap="round" stroke-linejoin="round" d="M3.5 4.75c-0.13807 0 -0.25 -0.11193 -0.25 -0.25s0.11193 -0.25 0.25 -0.25" stroke-width="1"></path><path id="Ellipse 1112" stroke="#000000" stroke-linecap="round" stroke-linejoin="round" d="M3.5 4.75c0.13807 0 0.25 -0.11193 0.25 -0.25s-0.11193 -0.25 -0.25 -0.25" stroke-width="1"></path></g><g id="Group 2610"><path id="Ellipse 1111_2" stroke="#000000" stroke-linecap="round" stroke-linejoin="round" d="M8.5 4.75c-0.13807 0 -0.25 -0.11193 -0.25 -0.25s0.11193 -0.25 0.25 -0.25" stroke-width="1"></path><path id="Ellipse 1112_2" stroke="#000000" stroke-linecap="round" stroke-linejoin="round" d="M8.5 4.75c0.13807 0 0.25 -0.11193 0.25 -0.25s-0.11193 -0.25 -0.25 -0.25" stroke-width="1"></path></g><g id="Group 2611"><path id="Ellipse 1111_3" stroke="#000000" stroke-linecap="round" stroke-linejoin="round" d="M6 4.75c-0.13807 0 -0.25 -0.11193 -0.25 -0.25s0.11193 -0.25 0.25 -0.25" stroke-width="1"></path><path id="Ellipse 1112_3" stroke="#000000" stroke-linecap="round" stroke-linejoin="round" d="M6 4.75c0.13807 0 0.25 -0.11193 0.25 -0.25s-0.11193 -0.25 -0.25 -0.25" stroke-width="1"></path></g><path id="Vector" stroke="#000000" stroke-linecap="round" stroke-linejoin="round" d="M13.5 8.25 9.25 12.5" stroke-width="1"></path><path id="Vector_2" stroke="#000000" stroke-linecap="round" stroke-linejoin="round" d="m9.25 8.25488 4.25 4.24002" stroke-width="1"></path></g></svg>