<svg xmlns="http://www.w3.org/2000/svg" fill="none" viewBox="0 0 14 14"><g id="induction-pot--cook-cooking-stove-induction-nutrition-pot-range-food-kitchenware"><path id="Vector" stroke="#000000" stroke-linecap="round" stroke-linejoin="round" d="M3 1h8c0.2652 0 0.5196 0.10536 0.7071 0.29289C11.8946 1.48043 12 1.73478 12 2v4c0 0.53043 -0.2107 1.03914 -0.5858 1.41421C11.0391 7.78929 10.5304 8 10 8H4c-0.53043 0 -1.03914 -0.21071 -1.41421 -0.58579C2.21071 7.03914 2 6.53043 2 6V2c0 -0.26522 0.10536 -0.51957 0.29289 -0.70711C2.48043 1.10536 2.73478 1 3 1v0Z" stroke-width="1"></path><path id="Vector_2" stroke="#000000" stroke-linecap="round" stroke-linejoin="round" d="M2 2.5H0.5" stroke-width="1"></path><path id="Vector_3" stroke="#000000" stroke-linecap="round" stroke-linejoin="round" d="M13.5 2.5H12" stroke-width="1"></path><path id="Vector_4" stroke="#000000" stroke-linecap="round" stroke-linejoin="round" d="M3 13h8" stroke-width="1"></path><path id="Vector_5" stroke="#000000" stroke-linecap="round" stroke-linejoin="round" d="M4.5 10v1" stroke-width="1"></path><path id="Vector_6" stroke="#000000" stroke-linecap="round" stroke-linejoin="round" d="M9.5 10v1" stroke-width="1"></path><path id="Vector_7" stroke="#000000" stroke-linecap="round" stroke-linejoin="round" d="M7 10v1" stroke-width="1"></path></g></svg>