<svg xmlns="http://www.w3.org/2000/svg" fill="none" viewBox="0 0 14 14"><g id="insert-column"><path id="Vector 4569" stroke="#000000" stroke-linecap="round" stroke-linejoin="round" d="m5 0.5 2 2 2 -2" stroke-width="1"></path><path id="Vector 4570" stroke="#000000" stroke-linecap="round" stroke-linejoin="round" d="M4.5 4.5h-2c-0.55228 0 -1 0.44772 -1 1v7c0 0.5523 0.44772 1 1 1h2c0.55228 0 1 -0.4477 1 -1v-7c0 -0.55228 -0.44772 -1 -1 -1Z" stroke-width="1"></path><path id="Vector 4571" stroke="#000000" stroke-linecap="round" stroke-linejoin="round" d="M11.5 4.5h-2c-0.55228 0 -1 0.44772 -1 1v7c0 0.5523 0.44772 1 1 1h2c0.5523 0 1 -0.4477 1 -1v-7c0 -0.55228 -0.4477 -1 -1 -1Z" stroke-width="1"></path></g></svg>