<svg xmlns="http://www.w3.org/2000/svg" fill="none" viewBox="0 0 14 14"><g id="insurance-hand-2--health-medical-insurance-hand-cross"><path id="Vector 3168" stroke="#000000" stroke-linecap="round" stroke-linejoin="round" d="m12 13.5 0.9142 -0.9142c0.3751 -0.3751 0.5858 -0.8838 0.5858 -1.4142V6.33333c0 -0.46023 -0.3731 -0.83333 -0.8333 -0.83333v0C11.7462 5.5 11 6.24619 11 7.16667v2.39771" stroke-width="1"></path><path id="Vector 3169" stroke="#000000" stroke-linecap="round" stroke-linejoin="round" d="M8 13.5v-1.5858c0 -0.2652 0.10536 -0.5196 0.29289 -0.7071L9.75 9.74999c0.4142 -0.41421 1.0858 -0.41421 1.5 0 0.4142 0.41421 0.4142 1.08581 0 1.50001l-0.75 0.75" stroke-width="1"></path><path id="Vector 3170" stroke="#000000" stroke-linecap="round" stroke-linejoin="round" d="m2 13.5 -0.91421 -0.9142C0.710714 12.2107 0.5 11.702 0.5 11.1716V6.33333C0.5 5.8731 0.873096 5.5 1.33333 5.5v0C2.25381 5.5 3 6.24619 3 7.16667v2.39771" stroke-width="1"></path><path id="Vector 3171" stroke="#000000" stroke-linecap="round" stroke-linejoin="round" d="M6 13.5001v-1.5858c0 -0.2652 -0.10536 -0.5195 -0.29289 -0.7071L4.25 9.75011c-0.41421 -0.41421 -1.08579 -0.41421 -1.5 0 -0.41421 0.41419 -0.41421 1.08579 0 1.49999l0.75 0.75" stroke-width="1"></path><path id="Union" stroke="#000000" stroke-linecap="round" stroke-linejoin="round" d="M6.18799 0.5c-0.27614 0 -0.5 0.223858 -0.5 0.5v1.40628l-1.40625 0c-0.27614 0 -0.5 0.22385 -0.5 0.5v1.625c0 0.27614 0.22386 0.5 0.5 0.5h1.40625V6.4375c0 0.27614 0.22386 0.5 0.5 0.5h1.625c0.27614 0 0.5 -0.22386 0.5 -0.5V5.03128h1.40625c0.27614 0 0.49996 -0.22386 0.49996 -0.5v-1.625c0 -0.27615 -0.22382 -0.5 -0.49996 -0.5l-1.40625 0V1c0 -0.276142 -0.22386 -0.5 -0.5 -0.5h-1.625Z" stroke-width="1"></path></g></svg>