<svg xmlns="http://www.w3.org/2000/svg" fill="none" viewBox="0 0 14 14"><g id="intellectual--disability-intellectual"><path id="Vector" stroke="#000000" stroke-linecap="round" stroke-linejoin="round" d="M8 13.5V11h2c0.5523 0 1 -0.4477 1 -1.00001V8.5h1.0807c0.2316 0 0.4193 -0.18771 0.4193 -0.41926v0c0 -0.05334 -0.0102 -0.10618 -0.03 -0.15571L11.5 5.5c0 -2.76142 -2.23858 -5 -5 -5s-5 2.23858 -5 5c0 1.6356 0.78534 3.08777 1.99951 4v4" stroke-width="1"></path><path id="Ellipse 53" stroke="#000000" stroke-linecap="round" stroke-linejoin="round" d="M5.1878 3.09401c-1.17976 0.68113 -1.67061 2.09727 -1.22807 3.33605 0.10218 0.28602 0.41091 0.42985 0.70451 0.35208 1.48551 -0.39353 2.99801 -1.45807 3.9169 -2.28805 0.24345 -0.2199 0.29385 -0.58738 0.07698 -0.83353 -0.85616 -0.97175 -2.30558 -1.23902 -3.47032 -0.56655Z" stroke-width="1"></path></g></svg>