<svg xmlns="http://www.w3.org/2000/svg" fill="none" viewBox="0 0 14 14"><g id="keyboard-option-setting-bolt-nut"><path id="Rectangle 1921" stroke="#000000" stroke-linecap="round" stroke-linejoin="round" d="m7.5 8.75 3 -1.75 3 1.75v3l-3 1.75 -3 -1.75v-3Z" stroke-width="1"></path><path id="Ellipse 1472" stroke="#000000" stroke-linecap="round" stroke-linejoin="round" d="M10 10.25a0.5 0.5 0 1 0 1 0 0.5 0.5 0 1 0 -1 0" stroke-width="1"></path><path id="Vector 2502" stroke="#000000" stroke-linecap="round" stroke-linejoin="round" d="M5.5 7.5h-4c-0.552285 0 -1 -0.44772 -1 -1v-5c0 -0.552285 0.447715 -1 1 -1h10c0.5523 0 1 0.447715 1 1v4" stroke-width="1"></path><path id="Vector 2504" stroke="#000000" stroke-linecap="round" stroke-linejoin="round" d="M2.5 3H3" stroke-width="1"></path><path id="Vector 2505" stroke="#000000" stroke-linecap="round" stroke-linejoin="round" d="M5 3h0.5" stroke-width="1"></path><path id="Vector 2506" stroke="#000000" stroke-linecap="round" stroke-linejoin="round" d="M7.5 3H8" stroke-width="1"></path><path id="Vector 2510" stroke="#000000" stroke-linecap="round" stroke-linejoin="round" d="M10 3h0.5" stroke-width="1"></path><path id="Vector 2511" stroke="#000000" stroke-linecap="round" stroke-linejoin="round" d="M10 5h0.5" stroke-width="1"></path><path id="Vector 2508" stroke="#000000" stroke-linecap="round" stroke-linejoin="round" d="M2.5 5H3" stroke-width="1"></path><path id="Vector 2509" stroke="#000000" stroke-linecap="round" stroke-linejoin="round" d="M5 5h3" stroke-width="1"></path></g></svg>