<svg xmlns="http://www.w3.org/2000/svg" fill="none" viewBox="0 0 14 14"><g id="landscape-1--photos-photo-landscape-picture-photography-camera-pictures-image"><path id="Vector" stroke="#000000" stroke-linecap="round" stroke-linejoin="round" d="m1.92308 13 10.15382 0c0.5098 0 0.9231 -0.4133 0.9231 -0.9231l0 -10.15382C13 1.41328 12.5867 1 12.0769 1L1.92308 1C1.41328 1 1 1.41328 1 1.92308L1 12.0769c0 0.5098 0.41328 0.9231 0.92308 0.9231Z" stroke-width="1"></path><path id="Vector_2" stroke="#000000" stroke-linecap="round" stroke-linejoin="round" d="M8.98999 6.25c0.82843 0 1.50001 -0.67157 1.50001 -1.5s-0.67158 -1.5 -1.50001 -1.5c-0.82843 0 -1.5 0.67157 -1.5 1.5s0.67157 1.5 1.5 1.5Z" stroke-width="1"></path><path id="Vector_3" stroke="#000000" stroke-linecap="round" stroke-linejoin="round" d="M9.20613 13c-0.29723 -1.5831 -1.14725 -3.00907 -2.3984 -4.02352 -1.25115 -1.01445 -2.82204 -1.55136 -4.43237 -1.51495 -0.46081 -0.00123 -0.92069 0.04133 -1.37344 0.1271" stroke-width="1"></path><path id="Vector_4" stroke="#000000" stroke-linecap="round" stroke-linejoin="round" d="M12.9907 9.68614c-0.7434 -0.25106 -1.5229 -0.3789 -2.3076 -0.37846 -0.99333 -0.00216 -1.97656 0.19889 -2.88928 0.59077" stroke-width="1"></path></g></svg>