<svg xmlns="http://www.w3.org/2000/svg" fill="none" viewBox="0 0 14 14"><g id="landscape-frame--photos-photo-landscape-picture-photography-camera-pictures-frame-hang-image"><path id="Vector" stroke="#000000" stroke-linecap="round" stroke-linejoin="round" d="M12 13 2 13c-0.55228 0 -1 -0.4477 -1 -1l0 -7c0 -0.55229 0.44772 -1 1 -1l10 0c0.5523 0 1 0.44771 1 1l0 7c0 0.5523 -0.4477 1 -1 1Z" stroke-width="1"></path><path id="Vector_2" stroke="#000000" stroke-linecap="round" stroke-linejoin="round" d="M9.5 8.5c-0.69036 0 -1.25 -0.55964 -1.25 -1.25S8.80964 6 9.5 6c0.6904 0 1.25 0.55964 1.25 1.25S10.1904 8.5 9.5 8.5Z" stroke-width="1"></path><path id="Vector_3" stroke="#000000" stroke-linecap="round" stroke-linejoin="round" d="m4 4 3 -3 3 3" stroke-width="1"></path><path id="Vector 3951" stroke="#000000" stroke-linecap="round" stroke-linejoin="round" d="M10.16 13 4.66002 7.5l-3.65813 3.6581" stroke-width="1"></path></g></svg>