<svg xmlns="http://www.w3.org/2000/svg" fill="none" viewBox="0 0 14 14"><g id="landscape-view--photos-photo-picture-photography-pictures-view-eye-image"><path id="Vector" stroke="#000000" stroke-linecap="round" stroke-linejoin="round" d="M4 10.5H1.5c-0.26522 0 -0.51957 -0.1054 -0.707107 -0.2929C0.605357 10.0196 0.5 9.76522 0.5 9.5v-8c0 -0.26522 0.105357 -0.51957 0.292893 -0.707107C0.98043 0.605357 1.23478 0.5 1.5 0.5h8c0.26522 0 0.5196 0.105357 0.7071 0.292893 0.1875 0.187537 0.2929 0.441887 0.2929 0.707107v4.75" stroke-width="1"></path><path id="Vector_2" stroke="#000000" stroke-linecap="round" stroke-linejoin="round" d="M6.32763 10.408c-0.32822 0.3332 -0.32822 0.8508 0 1.184 0.7282 0.7393 2.09564 1.908 3.46309 1.908 1.36748 0 2.73488 -1.1687 3.46308 -1.908 0.3282 -0.3332 0.3282 -0.8508 0 -1.184 -0.7282 -0.73931 -2.0956 -1.908 -3.46308 -1.908 -1.36745 0 -2.73489 1.16869 -3.46309 1.908Z" stroke-width="1"></path><path id="Vector_3" stroke="#000000" stroke-linecap="round" stroke-linejoin="round" d="M9.79074 11.5c-0.27614 0 -0.5 -0.2239 -0.5 -0.5s0.22386 -0.5 0.5 -0.5c0.27616 0 0.49996 0.2239 0.49996 0.5s-0.2238 0.5 -0.49996 0.5Z" stroke-width="1"></path><path id="Vector_4" stroke="#000000" stroke-linecap="round" stroke-linejoin="round" d="M7.125 4.875c-0.69036 0 -1.25 -0.55964 -1.25 -1.25s0.55964 -1.25 1.25 -1.25 1.25 0.55964 1.25 1.25 -0.55964 1.25 -1.25 1.25Z" stroke-width="1"></path><path id="Vector 3951" stroke="#000000" stroke-linecap="round" stroke-linejoin="round" d="m0.5 7.07343 2.60468 -2.60468 3.49453 3.49454" stroke-width="1"></path></g></svg>