<svg xmlns="http://www.w3.org/2000/svg" fill="none" viewBox="0 0 14 14"><g id="landscape-nft--photos-photo-picture-photography-pictures-nft-art-crypto-ethereum-eth-image"><path id="Vector" stroke="#000000" stroke-linecap="round" stroke-linejoin="round" d="M6 10.5H1.5c-0.26522 0 -0.51957 -0.1054 -0.707107 -0.2929C0.605357 10.0196 0.5 9.76522 0.5 9.5v-8c0 -0.26522 0.105357 -0.51957 0.292893 -0.707107C0.98043 0.605357 1.23478 0.5 1.5 0.5h8c0.26522 0 0.5196 0.105357 0.7071 0.292893 0.1875 0.187537 0.2929 0.441887 0.2929 0.707107v2.75" stroke-width="1"></path><path id="Vector (Stroke)" stroke="#000000" stroke-linecap="round" stroke-linejoin="round" d="M10.7465 6.49995 7.99298 10.0109l2.75352 3.489 2.7535 -3.489 -2.7535 -3.51095Z" stroke-width="1"></path><path id="Vector 867" stroke="#000000" stroke-linecap="round" stroke-linejoin="round" d="M8.02896 10.0581s1.65457 0.5708 2.71474 0.9366c0 0 1.6546 -0.5708 2.7147 -0.9366" stroke-width="1"></path><path id="Vector_2" stroke="#000000" stroke-linecap="round" stroke-linejoin="round" d="M7.125 4.875c-0.69036 0 -1.25 -0.55964 -1.25 -1.25s0.55964 -1.25 1.25 -1.25 1.25 0.55964 1.25 1.25 -0.55964 1.25 -1.25 1.25Z" stroke-width="1"></path><path id="Vector 3951" stroke="#000000" stroke-linecap="round" stroke-linejoin="round" d="m0.5 7.07343 2.60468 -2.60468 3.83828 3.83829" stroke-width="1"></path></g></svg>