<svg xmlns="http://www.w3.org/2000/svg" fill="none" viewBox="0 0 14 14"><g id="landing--land-plane-travel-adventure-airplane-airport"><path id="Vector" stroke="#000000" stroke-linecap="round" stroke-linejoin="round" d="M1 13h12" stroke-width="1"></path><path id="Vector_2" stroke="#000000" stroke-linecap="round" stroke-linejoin="round" d="m3.53565 1.53237 1.22453 0.51559c0.0818 0.03527 0.15045 0.09535 0.19623 0.17177 0.04578 0.07641 0.06638 0.16529 0.05887 0.25405l-0.23742 1.6093 5.161 1.30239c0.42854 0.0775 0.83504 0.24764 1.19104 0.49853 0.356 0.25089 0.6529 0.57648 0.87 0.95403 0.2171 0.37754 0.3492 0.79794 0.387 1.23182 0.0378 0.43388 -0.0196 0.87078 -0.1682 1.28017 -0.0858 0.19745 -0.2464 0.35279 -0.4467 0.4319 -0.2002 0.07911 -0.4236 0.07552 -0.6212 -0.00996L7.80963 8.37662 6.04419 9.5262c-0.05913 0.04132 -0.128 0.06653 -0.19982 0.07315 -0.07183 0.00663 -0.14415 -0.00556 -0.20983 -0.03536L4.25482 8.9882c-0.07763 -0.02413 -0.14712 -0.06915 -0.20088 -0.13013 -0.05376 -0.06097 -0.08972 -0.13556 -0.10393 -0.2156 -0.01422 -0.08004 -0.00615 -0.16244 0.02332 -0.2382 0.02948 -0.07576 0.07922 -0.14195 0.14379 -0.19134l1.16237 -0.9006 -0.19625 -0.08326 -2.96269 -1.24085c-0.0988 -0.03653 -0.18934 -0.09235 -0.26636 -0.1642 -0.07702 -0.07186 -0.13897 -0.15832 -0.18225 -0.25436 -0.04327 -0.09603 -0.06701 -0.19971 -0.06983 -0.30501 -0.00282 -0.1053 0.01534 -0.2101 0.05342 -0.30831l1.35219 -3.22001c0.04419 -0.09597 0.12404 -0.17095 0.22261 -0.20903 0.09856 -0.03808 0.20808 -0.03626 0.30532 0.00507Z" stroke-width="1"></path></g></svg>