<svg xmlns="http://www.w3.org/2000/svg" fill="none" viewBox="0 0 14 14"><g id="laptop-personal-hotspot--laptop-personal-hotspot-connection-signal-device-electronics-computer-notebook"><path id="Vector" stroke="#000000" stroke-linecap="round" stroke-linejoin="round" d="m2.4749 9.3999 -1.799998 2.6c-0.2 0.3 -0.2 0.7 0 1 0.2 0.3 0.499998 0.5 0.799998 0.5h10.8c0.6 0 1 -0.4 1 -1 0 -0.2 0 -0.3 -0.1 -0.5l-1.8 -2.6h-8.9Z" stroke-width="1"></path><path id="Vector_2" stroke="#000000" stroke-linecap="round" stroke-linejoin="round" d="M11.375 9.40002V8" stroke-width="1"></path><path id="Vector_3" stroke="#000000" stroke-linecap="round" stroke-linejoin="round" d="M4.4751 3.3999h-1c-0.6 0 -1 0.4 -1 1v5" stroke-width="1"></path><path id="Vector 3158" stroke="#000000" stroke-linecap="round" stroke-linejoin="round" d="M7 3.47475c-0.3093 -0.31564 -0.5 -0.74792 -0.5 -1.22475C6.5 1.2835 7.2835 0.5 8.25 0.5h1.5c0.9665 0 1.75 0.7835 1.75 1.75 0 0.6981 -0.4088 1.30073 -1 1.58159" stroke-width="1"></path><path id="Vector 3159" stroke="#000000" stroke-linecap="round" stroke-linejoin="round" d="M13 2.7753c0.3093 0.31564 0.5 0.74792 0.5 1.22475 0 0.9665 -0.7835 1.75 -1.75 1.75h-1.5c-0.9665 0 -1.75 -0.7835 -1.75 -1.75 0 -0.6981 0.40876 -1.30073 1 -1.58159" stroke-width="1"></path></g></svg>