<svg xmlns="http://www.w3.org/2000/svg" fill="none" viewBox="0 0 14 14"><g id="laptop-help--laptop-help-information-question-information-device-electronics-computer-notebook"><path id="Vector 3945" stroke="#000000" stroke-linecap="round" stroke-linejoin="round" d="M0.58541 12.3292 2 9.5h10l1.4146 2.8292c0.0562 0.1123 0.0854 0.2362 0.0854 0.3618 0 0.4468 -0.3622 0.809 -0.809 0.809H1.30902C0.862209 13.5 0.5 13.1378 0.5 12.691c0 -0.1256 0.029242 -0.2495 0.08541 -0.3618Z" stroke-width="1"></path><path id="Vector 3947" stroke="#000000" stroke-linecap="round" stroke-linejoin="round" d="M12 9.5H2v-5c0 -0.55228 0.44772 -1 1 -1h4.75" stroke-width="1"></path><path id="Vector" stroke="#000000" stroke-linecap="round" stroke-linejoin="round" d="M9.5 2.5011c0 -0.39556 0.1173 -0.78224 0.33706 -1.11114 0.21974 -0.3289 0.53214 -0.585244 0.89754 -0.73662 0.3655 -0.151375 0.7676 -0.190981 1.1556 -0.113811 0.3879 0.07717 0.7443 0.267652 1.024 0.547361 0.2797 0.2797 0.4702 0.63607 0.5474 1.02403 0.0771 0.38796 0.0375 0.79009 -0.1138 1.15555 -0.1514 0.36545 -0.4078 0.67781 -0.7367 0.89757 -0.3289 0.21976 -0.7155 0.33706 -1.1111 0.33706v1.33333" stroke-width="1"></path><g id="Group 4771"><path id="Vector_2" stroke="#000000" stroke-linecap="round" stroke-linejoin="round" d="M11.5 7.83447c-0.1381 0 -0.25 -0.11193 -0.25 -0.25s0.1119 -0.25 0.25 -0.25" stroke-width="1"></path><path id="Vector_3" stroke="#000000" stroke-linecap="round" stroke-linejoin="round" d="M11.5 7.83447c0.1381 0 0.25 -0.11193 0.25 -0.25s-0.1119 -0.25 -0.25 -0.25" stroke-width="1"></path></g></g></svg>