<svg xmlns="http://www.w3.org/2000/svg" fill="none" viewBox="0 0 14 14"><g id="laptop-ai-spark--device-laptop-electronics-computer-notebook-artificial-intelligence-ai"><path id="Vector" stroke="#000000" stroke-linecap="round" stroke-linejoin="round" d="M2.53881 9.38528 0.738806 11.9853c-0.2 0.3 -0.2 0.7 0 1 0.2 0.3 0.500004 0.5 0.800004 0.5H12.3388c0.6 0 1 -0.4 1 -1 0 -0.2 0 -0.3 -0.1 -0.5l-1.8 -2.60002H2.53881Z" stroke-width="1"></path><path id="Vector_2" stroke="#000000" stroke-linecap="round" stroke-linejoin="round" d="M11.4389 9.38541v-0.90003" stroke-width="1"></path><path id="Vector_3" stroke="#000000" stroke-linecap="round" stroke-linejoin="round" d="M5.039 3.38528h-1.5c-0.6 0 -1 0.4 -1 1v5" stroke-width="1"></path><path id="Vector 2136" stroke="#000000" stroke-linecap="round" stroke-linejoin="round" d="M7.3271 3.94866c-0.35093 -0.06105 -0.35093 -0.56483 0 -0.62588C8.59846 3.1016 9.60965 2.13323 9.8856 0.872631l0.02115 -0.09663c0.07592 -0.346832 0.56975 -0.348991 0.64875 -0.002835l0.0257 0.11261c0.2861 1.254654 1.2976 2.214844 2.5654 2.435404 0.3527 0.06137 0.3527 0.56771 0 0.62907 -1.2678 0.22057 -2.2793 1.18076 -2.5654 2.43541l-0.0257 0.11261c-0.079 0.34616 -0.57283 0.344 -0.64875 -0.00283l-0.02115 -0.09663c-0.27595 -1.2606 -1.28714 -2.22897 -2.5585 -2.45015Z" stroke-width="1"></path></g></svg>