<svg xmlns="http://www.w3.org/2000/svg" fill="none" viewBox="0 0 14 14"><g id="laptop-disable--laptop-disable-deny-cross-device-electronics-computer-notebook"><path id="Vector" stroke="#000000" stroke-linecap="round" stroke-linejoin="round" d="M2.58862 2.58856c0.04923 -0.10906 0.11809 -0.20943 0.20433 -0.29567C2.98049 2.10536 3.23484 2 3.50006 2h7.00004c0.2652 0 0.5195 0.10536 0.7071 0.29289 0.1875 0.18754 0.2929 0.44189 0.2929 0.70711v5H8.00006" stroke-width="1"></path><path id="Vector_2" stroke="#000000" stroke-linecap="round" stroke-linejoin="round" d="M2.5 5.25V8h2.75" stroke-width="1"></path><path id="Vector_3" stroke="#000000" stroke-linecap="round" stroke-linejoin="round" d="M12.02 12.02h0.36c0.1699 0.0003 0.3372 -0.0426 0.4859 -0.1249 0.1487 -0.0822 0.274 -0.201 0.3641 -0.3451 0.0878 -0.152 0.134 -0.3245 0.134 -0.5s-0.0462 -0.348 -0.134 -0.5L11.5 8" stroke-width="1"></path><path id="Vector_4" stroke="#000000" stroke-linecap="round" stroke-linejoin="round" d="M2.50003 8 0.720035 10.55c-0.080292 0.1564 -0.117946 0.3311 -0.109168 0.5067 0.008778 0.1756 0.063679 0.3457 0.159168 0.4933 0.090071 0.1441 0.215382 0.2629 0.364105 0.3451 0.14872 0.0823 0.31595 0.1252 0.4859 0.1249h7.39999" stroke-width="1"></path><path id="Vector 1859" stroke="#000000" stroke-linecap="round" stroke-linejoin="round" d="m0.5 0.5 13 13" stroke-width="1"></path></g></svg>