<svg xmlns="http://www.w3.org/2000/svg" fill="none" viewBox="0 0 14 14"><g id="laptop-project-screen"><path id="Vector 913" stroke="#000000" stroke-linecap="round" stroke-linejoin="round" d="M11.1419 8.85648h1.4285c0.5128 0 0.9285 -0.4157 0.9285 -0.9285V1.4285c0 -0.512797 -0.4157 -0.9285 -0.9285 -0.9285H3.28543c-0.51279 0 -0.9285 0.415703 -0.9285 0.9285v1.89274" stroke-width="1"></path><path id="Vector 912" stroke="#000000" stroke-linecap="round" stroke-linejoin="round" d="m1.43097 10.25 -0.806163 1.8606c-0.353709 0.619 0.09324 1.3891 0.806163 1.3891h7.42661c0.71292 0 1.15982 -0.7701 0.80616 -1.3891L8.85758 10.25" stroke-width="1"></path><path id="Vector 914" stroke="#000000" stroke-linecap="round" stroke-linejoin="round" d="M1.42957 10.2499V6.53592c0 -0.5128 0.4157 -0.9285 0.92849 -0.9285h5.57099c0.5128 0 0.9285 0.4157 0.9285 0.9285v3.71398H1.42957Z" stroke-width="1"></path></g></svg>