<svg xmlns="http://www.w3.org/2000/svg" fill="none" viewBox="0 0 14 14"><g id="laptop-dollar--laptop-dollar-cash-money-currency-device-electronics-computer-notebook"><path id="Vector 3945" stroke="#000000" stroke-linecap="round" stroke-linejoin="round" d="M0.58541 12.3292 2 9.5h10l1.4146 2.8292c0.0562 0.1123 0.0854 0.2362 0.0854 0.3618 0 0.4468 -0.3622 0.809 -0.809 0.809H1.30902C0.862209 13.5 0.5 13.1378 0.5 12.691c0 -0.1256 0.029242 -0.2495 0.08541 -0.3618Z" stroke-width="1"></path><path id="Vector 3947" stroke="#000000" stroke-linecap="round" stroke-linejoin="round" d="M12 9.5H2v-5c0 -0.55228 0.44772 -1 1 -1h5.25" stroke-width="1"></path><path id="Vector 3" stroke="#000000" stroke-linecap="round" stroke-linejoin="round" d="M13.4336 2.44466c-0.0512 -0.14491 -0.1303 -0.27668 -0.2307 -0.38889 -0.2136 -0.23869 -0.5241 -0.3889 -0.8696 -0.3889h-0.9031c-0.5751 0 -1.0414 0.46626 -1.0414 1.04143 0 0.4894 0.3408 0.91278 0.8189 1.01737l1.3749 0.30076c0.5356 0.11716 0.9174 0.59181 0.9174 1.14008 0 0.64435 -0.5224 1.16712 -1.1667 1.16712h-0.7778c-0.508 0 -0.9402 -0.32465 -1.1003 -0.77779" stroke-width="1"></path><path id="Vector 2489" stroke="#000000" stroke-linecap="round" stroke-linejoin="round" d="M11.9445 1.66669V0.5" stroke-width="1"></path><path id="Vector 2490" stroke="#000000" stroke-linecap="round" stroke-linejoin="round" d="M11.9445 7.5V6.33331" stroke-width="1"></path></g></svg>