<svg xmlns="http://www.w3.org/2000/svg" fill="none" viewBox="0 0 14 14"><g id="learning-computer--learning-computer-education"><path id="Rectangle 645" stroke="#000000" stroke-linecap="round" stroke-linejoin="round" d="m6.99986 3.34171 4.02524 1.74403 -4.02524 1.74404 -4.02525 -1.74404 4.02525 -1.74403Z" stroke-width="1"></path><path id="Ellipse 346" stroke="#000000" stroke-linecap="round" stroke-linejoin="round" d="m4.80078 5.88126 0.00399 1.89756s0.66457 0.87947 2.19471 0.87947c1.53015 0 2.19826 -0.87947 2.19826 -0.87947l-0.0004 -1.89756" stroke-width="1"></path><path id="Ellipse 347" stroke="#000000" stroke-linecap="round" stroke-linejoin="round" d="M2.97461 8.15372V5.08585" stroke-width="1"></path><path id="Vector" stroke="#000000" stroke-linecap="round" stroke-linejoin="round" d="M1 1h12c0.3 0 0.5 0.2 0.5 0.5v9c0 0.3 -0.2 0.5 -0.5 0.5H1c-0.3 0 -0.5 -0.2 -0.5 -0.5v-9c0 -0.3 0.2 -0.5 0.5 -0.5Z" stroke-width="1"></path><path id="Vector_2" stroke="#000000" stroke-linecap="round" stroke-linejoin="round" d="m6 11 -1 2.5" stroke-width="1"></path><path id="Vector_3" stroke="#000000" stroke-linecap="round" stroke-linejoin="round" d="m8 11 1 2.5" stroke-width="1"></path><path id="Vector_4" stroke="#000000" stroke-linecap="round" stroke-linejoin="round" d="M4 13.5h6" stroke-width="1"></path></g></svg>