<svg xmlns="http://www.w3.org/2000/svg" fill="none" viewBox="0 0 14 14"><g id="lighting-setting-bolt-nut"><path id="Vector" stroke="#000000" stroke-linecap="round" stroke-linejoin="round" d="M3 13.5h4" stroke-width="1"></path><path id="Rectangle 1920" stroke="#000000" stroke-linecap="round" stroke-linejoin="round" d="m7.5 2.25 3 -1.75 3 1.75v3L10.5 7l-3 -1.75v-3Z" stroke-width="1"></path><path id="Ellipse 1472" stroke="#000000" stroke-linecap="round" stroke-linejoin="round" d="M10 3.75a0.5 0.5 0 1 0 1 0 0.5 0.5 0 1 0 -1 0" stroke-width="1"></path><path id="Ellipse 1789" stroke="#000000" stroke-linecap="round" stroke-linejoin="round" d="M8.12706 8.23597c-0.33088 0.31981 -0.71067 0.58934 -1.12706 0.79627V10.5c0 0.2761 -0.22386 0.5 -0.5 0.5h-3c-0.27614 0 -0.5 -0.2239 -0.5 -0.5V9.03224C1.51828 8.29589 0.5 6.76686 0.5 5 0.5 2.51472 2.51472 0.5 5 0.5c0.36592 0 0.72164 0.043676 1.06223 0.126098" stroke-width="1"></path></g></svg>