<svg xmlns="http://www.w3.org/2000/svg" fill="none" viewBox="0 0 14 14"><g id="light-dark-mode--light-dark-mode-setting-camera-picture-photo-image-brightness"><path id="Vector" stroke="#000000" stroke-linecap="round" stroke-linejoin="round" d="M11.5962 11.5962 10.182 10.182" stroke-width="1"></path><path id="Vector_2" stroke="#000000" stroke-linecap="round" stroke-linejoin="round" d="M3.81799 3.81799 2.40378 2.40378" stroke-width="1"></path><path id="Vector_3" stroke="#000000" stroke-linecap="round" stroke-linejoin="round" d="m2.40381 11.5962 1.41421 -1.4142" stroke-width="1"></path><path id="Vector_4" stroke="#000000" stroke-linecap="round" stroke-linejoin="round" d="m10.182 3.81799 1.4142 -1.41421" stroke-width="1"></path><path id="Vector_5" stroke="#000000" stroke-linecap="round" stroke-linejoin="round" d="M7 11.5c2.48528 0 4.5 -2.01472 4.5 -4.5S9.48528 2.5 7 2.5 2.5 4.51472 2.5 7s2.01472 4.5 4.5 4.5Z" stroke-width="1"></path><path id="Subtract" stroke="#000000" stroke-linecap="round" stroke-linejoin="round" d="M11.2657 8.44017c-0.4544 0.15476 -0.9414 0.23871 -1.44805 0.23871 -2.4834 0 -4.49661 -2.01717 -4.49661 -4.50547 0 -0.50756 0.08377 -0.99552 0.2382 -1.45075" stroke-width="1"></path><path id="Vector_6" stroke="#000000" stroke-linecap="round" stroke-linejoin="round" d="M7 0.5v2" stroke-width="1"></path><path id="Vector_7" stroke="#000000" stroke-linecap="round" stroke-linejoin="round" d="m7 11.5 0 2" stroke-width="1"></path><path id="Vector_8" stroke="#000000" stroke-linecap="round" stroke-linejoin="round" d="m13.5 7 -2 0" stroke-width="1"></path><path id="Vector_9" stroke="#000000" stroke-linecap="round" stroke-linejoin="round" d="m2.5 7 -2 0" stroke-width="1"></path><path id="Vector_10" stroke="#000000" stroke-linecap="round" stroke-linejoin="round" d="m13.5 7 -2 0" stroke-width="1"></path><path id="Vector_11" stroke="#000000" stroke-linecap="round" stroke-linejoin="round" d="m2.5 7 -2 0" stroke-width="1"></path></g></svg>