<svg xmlns="http://www.w3.org/2000/svg" fill="none" viewBox="0 0 14 14"><g id="like-circle--reward-social-up-rating-media-like-thumb-hand"><path id="Vector" stroke="#000000" stroke-linecap="round" stroke-linejoin="round" d="m4.19 6 1.64 -2.66c0.06448 -0.10377 0.15431 -0.18943 0.26102 -0.24891 0.10672 -0.05948 0.22681 -0.09083 0.34898 -0.09109 0.19096 0 0.37409 0.07586 0.50912 0.21088 0.13503 0.13503 0.21088 0.31816 0.21088 0.50912v1.9H10c0.1078 0.00148 0.214 0.02618 0.3113 0.0724 0.0974 0.04622 0.1836 0.11288 0.2529 0.19545 0.0693 0.08256 0.12 0.17908 0.1486 0.28299 0.0286 0.10392 0.0345 0.21277 0.0172 0.31916l-0.51 3.37c-0.0263 0.1776 -0.1155 0.3398 -0.25127 0.4573 -0.13579 0.1174 -0.3092 0.1822 -0.48873 0.1827H4.5" stroke-width="1"></path><path id="Vector_2" stroke="#000000" stroke-linecap="round" stroke-linejoin="round" d="M7 0.5c3.5899 0 6.5 2.91015 6.5 6.5 0 3.5899 -2.9101 6.5 -6.5 6.5C3.41015 13.5 0.5 10.5899 0.5 7 0.5 3.41015 3.41015 0.5 7 0.5Z" stroke-width="1"></path></g></svg>