<svg xmlns="http://www.w3.org/2000/svg" fill="none" viewBox="0 0 14 14"><g id="lipstick--fashion-beauty-lip-lipstick-makeup-shopping"><path id="Vector" stroke="#000000" stroke-linecap="round" stroke-linejoin="round" d="M1.29 9.71c-0.18625 0.18736 -0.290793 0.4408 -0.290793 0.705 0 0.2642 0.104543 0.5176 0.290793 0.705l2.09 2.09c0.18736 0.1863 0.44081 0.2908 0.705 0.2908s0.51764 -0.1045 0.705 -0.2908L8.5 9.5 5 6 1.29 9.71Z" stroke-width="1"></path><path id="Vector_2" stroke="#000000" stroke-linecap="round" stroke-linejoin="round" d="M5.54 6.5399 11.29 0.789895c0.1406 -0.138757 0.3192 -0.232754 0.5132 -0.270128 0.194 -0.037374 0.3947 -0.016451 0.5768 0.060128 0.1826 0.07502 0.3389 0.202418 0.4493 0.366138 0.1103 0.163717 0.1697 0.356437 0.1707 0.553867v2.17c0.0008 0.1316 -0.0245 0.26206 -0.0742 0.3839 -0.0498 0.12184 -0.1231 0.23266 -0.2158 0.3261L8 8.9999" stroke-width="1"></path><path id="Vector_3" stroke="#000000" stroke-linecap="round" stroke-linejoin="round" d="m8.04 4.04004 2.5 2.5" stroke-width="1"></path></g></svg>