<svg xmlns="http://www.w3.org/2000/svg" fill="none" viewBox="0 0 14 14"><g id="liquid-glue--glue-company-office-supplies-work"><path id="Vector" stroke="#000000" stroke-linecap="round" stroke-linejoin="round" d="M11.5 8v4.5c0 0.2652 -0.1054 0.5196 -0.2929 0.7071s-0.4419 0.2929 -0.7071 0.2929h-7c-0.26522 0 -0.51957 -0.1054 -0.70711 -0.2929C2.60536 13.0196 2.5 12.7652 2.5 12.5V8c0 -0.66304 0.26339 -1.29893 0.73223 -1.76777C3.70107 5.76339 4.33696 5.5 5 5.5h4c0.66304 0 1.2989 0.26339 1.7678 0.73223C11.2366 6.70107 11.5 7.33696 11.5 8Z" stroke-width="1"></path><path id="Vector_2" stroke="#000000" stroke-linecap="round" stroke-linejoin="round" d="M7.5 0.5h-1L5 5.5h4L7.5 0.5Z" stroke-width="1"></path><path id="Vector_3" stroke="#000000" stroke-linecap="round" stroke-linejoin="round" d="M2.5 8.5h9" stroke-width="1"></path></g></svg>