<svg xmlns="http://www.w3.org/2000/svg" fill="none" viewBox="0 0 14 14"><g id="location-heart-pin"><path id="Ellipse 1691" stroke="#000000" stroke-linecap="round" stroke-linejoin="round" d="M12.5 6c0 3.52712 -4.08207 6.6655 -5.04723 7.3582 -0.13243 0.0951 -0.28976 0.1418 -0.45277 0.1418v0c-0.16301 0 -0.32034 -0.0467 -0.45277 -0.1418C5.58207 12.6655 1.5 9.52712 1.5 6 1.5 2.96243 3.96243 0.5 7 0.5c3.0376 0 5.5 2.46243 5.5 5.5Z" stroke-width="1"></path><path id="Vector" stroke="#000000" stroke-linecap="round" stroke-linejoin="round" d="M7.58424 8.44628c-0.32868 0.31147 -0.83773 0.31147 -1.16641 0L4.45757 6.58867c-1.31139 -1.25433 0.40104 -4.02561 2.54347 -1.97643 2.13865 -2.04558 3.85106 0.72574 2.54347 1.97643L7.58424 8.44628Z" stroke-width="1"></path></g></svg>