<svg xmlns="http://www.w3.org/2000/svg" fill="none" viewBox="0 0 14 14"><g id="location-office--travel-places-location-office"><path id="Vector" stroke="#000000" stroke-linecap="round" stroke-linejoin="round" d="M4.5 11.5v-2" stroke-width="1"></path><path id="Vector 1996" stroke="#000000" stroke-linecap="round" stroke-linejoin="round" d="M3 2.5v1" stroke-width="1"></path><path id="Vector 1997" stroke="#000000" stroke-linecap="round" stroke-linejoin="round" d="M6 2.5v1" stroke-width="1"></path><path id="Vector 1998" stroke="#000000" stroke-linecap="round" stroke-linejoin="round" d="M3 6v1" stroke-width="1"></path><path id="Ellipse 1696" stroke="#000000" stroke-linecap="round" stroke-linejoin="round" d="M13.5 9c0 2.5 -3 4.5 -3 4.5s-3 -2 -3 -4.5c0 -1.65685 1.34315 -3 3 -3 1.6569 0 3 1.34315 3 3Z" stroke-width="1"></path><path id="Vector_2" stroke="#000000" stroke-linecap="round" stroke-linejoin="round" d="M10.5 9.5c0.2761 0 0.5 -0.22386 0.5 -0.5s-0.2239 -0.5 -0.5 -0.5 -0.5 0.22386 -0.5 0.5 0.2239 0.5 0.5 0.5Z" stroke-width="1"></path><path id="Vector_3" stroke="#000000" stroke-linecap="round" stroke-linejoin="round" d="M5.75 11.5H0.5v-10c0 -0.552285 0.447715 -1 1 -1h6c0.55228 0 1 0.447715 1 1V4" stroke-width="1"></path><path id="Vector 1999" stroke="#000000" stroke-linecap="round" stroke-linejoin="round" d="M6 6v0.5" stroke-width="1"></path></g></svg>