<svg xmlns="http://www.w3.org/2000/svg" fill="none" viewBox="0 0 14 14"><g id="logout-3--arrow-enter-right-logout-point-square"><path id="Vector" stroke="#000000" stroke-linecap="round" stroke-linejoin="round" d="M11.5 11.5c0 0.2652 -0.1054 0.5196 -0.2929 0.7071s-0.4419 0.2929 -0.7071 0.2929h-9c-0.26522 0 -0.51957 -0.1054 -0.707107 -0.2929C0.605357 12.0196 0.5 11.7652 0.5 11.5v-9c0 -0.26522 0.105357 -0.51957 0.292893 -0.70711C0.98043 1.60536 1.23478 1.5 1.5 1.5h9c0.2652 0 0.5196 0.10536 0.7071 0.29289 0.1875 0.18754 0.2929 0.44189 0.2929 0.70711" stroke-width="1"></path><path id="Vector_2" stroke="#000000" stroke-linecap="round" stroke-linejoin="round" d="M6 7h7.5" stroke-width="1"></path><path id="Vector_3" stroke="#000000" stroke-linecap="round" stroke-linejoin="round" d="m11.5 5 2 2 -2 2" stroke-width="1"></path></g></svg>