<svg xmlns="http://www.w3.org/2000/svg" fill="none" viewBox="0 0 14 14"><g id="lowercase"><path id="Vector 4301" stroke="#000000" stroke-linecap="round" stroke-linejoin="round" d="M2.25 5H5.5v1c0 1.38071 -1.11929 2.5 -2.5 2.5h-0.75C1.2835 8.5 0.5 7.7165 0.5 6.75S1.2835 5 2.25 5Z" stroke-width="1"></path><path id="Vector 4303" stroke="#000000" stroke-linecap="round" stroke-linejoin="round" d="M13.5 6V4c0 -1.38071 -1.1193 -2.5 -2.5 -2.5 -1.38071 0 -2.5 1.11929 -2.5 2.5v2c0 1.38071 1.11929 2.5 2.5 2.5 1.3807 0 2.5 -1.11929 2.5 -2.5Z" stroke-width="1"></path><path id="Vector 4304" stroke="#000000" stroke-linecap="round" stroke-linejoin="round" d="M13.5 1.5V10c0 1.3807 -1.1193 2.5 -2.5 2.5 -1.38071 0 -2.5 -1.1193 -2.5 -2.5" stroke-width="1"></path><path id="Vector 4302" stroke="#000000" stroke-linecap="round" stroke-linejoin="round" d="M6.49999 8.5c-0.55229 0 -1 -0.44772 -1 -1V4c0 -1.38071 -1.11929 -2.5 -2.5 -2.5 -1.02516 0 -1.9062 0.61705 -2.291982 1.5" stroke-width="1"></path></g></svg>