<svg xmlns="http://www.w3.org/2000/svg" fill="none" viewBox="0 0 14 14"><g id="lungs--health-medical-lungs"><path id="vector 2006" stroke="#000000" stroke-linecap="round" stroke-linejoin="round" d="m7 0.71875 0 5.51693" stroke-width="1"></path><path id="vector 2007" stroke="#000000" stroke-linecap="round" stroke-linejoin="round" d="M4.53784 8.21875s0.71871 -0.2312 1.2311 -0.63175c0.52899 -0.41352 1.2311 -1.35133 1.2311 -1.35133s0.7021 0.93781 1.2311 1.35133c0.51238 0.40055 1.23109 0.63175 1.23109 0.63175" stroke-width="1"></path><path id="vector 2008" stroke="#000000" stroke-linecap="round" stroke-linejoin="round" d="M4.80136 4.16322h-0.61794c-0.94797 0 -1.84016 0.44806 -2.40628 1.20842l-0.55843 0.75002C0.833212 6.63942 0.625 7.26773 0.625 7.91324v2.23356c0 1.461 1.18437 2.6454 2.64537 2.6454v0c1.46099 0 2.64536 -1.1844 2.64536 -2.6454v-0.0427" stroke-width="1"></path><path id="vector 2011" stroke="#000000" stroke-linecap="round" stroke-linejoin="round" d="M9.19864 4.16322h0.61794c0.94792 0 1.84012 0.44806 2.40632 1.20842l0.5584 0.75002c0.3855 0.51776 0.5937 1.14607 0.5937 1.79158v2.23356c0 1.461 -1.1844 2.6454 -2.6454 2.6454v0c-1.46096 0 -2.64533 -1.1844 -2.64533 -2.6454v-0.0427" stroke-width="1"></path></g></svg>