<svg xmlns="http://www.w3.org/2000/svg" fill="none" viewBox="0 0 14 14"><g id="magnet--design-magnet-snap-supplies-to-tool"><path id="Vector" stroke="#000000" stroke-linecap="round" stroke-linejoin="round" d="M8.80978 12.07c-0.45175 0.4517 -0.98805 0.8101 -1.57829 1.0546 -0.59023 0.2445 -1.22285 0.3703 -1.86171 0.3703 -1.29025 0 -2.52766 -0.5126 -3.44 -1.4249C1.01743 11.1577 0.504883 9.92025 0.504883 8.63S1.01743 6.10234 1.92978 5.19l4.69 -4.69 2.19 2.19 -4.3 4.31c-0.27641 0.33984 -0.41697 0.7701 -0.39451 1.20758 0.02245 0.43748 0.20634 0.85109 0.51609 1.16084 0.30975 0.30975 0.72336 0.49363 1.16084 0.51609 0.43747 0.02246 0.86774 -0.11811 1.20758 -0.39451l4.30002 -4.3 2.2 2.19 -4.69002 4.69Z" stroke-width="1"></path><path id="Vector_2" stroke="#000000" stroke-linecap="round" stroke-linejoin="round" d="m9.18994 7.31006 2.18996 2.19" stroke-width="1"></path><path id="Vector_3" stroke="#000000" stroke-linecap="round" stroke-linejoin="round" d="m4.5 2.62 2.19 2.19" stroke-width="1"></path></g></svg>