<svg xmlns="http://www.w3.org/2000/svg" fill="none" viewBox="0 0 14 14"><g id="mall--production-store-shop-shops-stores-factory-building"><path id="Rectangle 1712" stroke="#000000" stroke-linecap="round" stroke-linejoin="round" d="M8.802 1.51h3.292s0.5 0 0.5 0.5v1.427s0 0.5 -0.5 0.5H8.802s-0.5 0 -0.5 -0.5V2.01s0 -0.5 0.5 -0.5" stroke-width="1"></path><path id="Rectangle 1713" stroke="#000000" stroke-linecap="round" stroke-linejoin="round" d="M1.26807 6.35559c0 -0.29241 0.24983 -0.52241 0.54124 -0.49829l10.46409 0.86605c0.2593 0.02146 0.4588 0.23814 0.4588 0.4983v5.62215c0 0.2761 -0.2239 0.5 -0.5 0.5H1.76807c-0.27615 0 -0.5 -0.2239 -0.5 -0.5V6.35559Z" stroke-width="1"></path><path id="Vector 2219" stroke="#000000" stroke-linecap="round" stroke-linejoin="round" d="M10.458 3.9375V6.5" stroke-width="1"></path><path id="Vector 2220" stroke="#000000" stroke-linecap="round" stroke-linejoin="round" d="M12.7319 10.0625H1.26807" stroke-width="1"></path><path id="Vector 2223" stroke="#000000" stroke-linecap="round" stroke-linejoin="round" d="M13.4893 13.3438H0.583008" stroke-width="1"></path><path id="Vector 2221" stroke="#000000" stroke-linecap="round" stroke-linejoin="round" d="m5.08447 13.3438 0 -3.2813" stroke-width="1"></path><path id="Vector 2222" stroke="#000000" stroke-linecap="round" stroke-linejoin="round" d="m8.91553 13.3438 0 -3.2813" stroke-width="1"></path></g></svg>