<svg xmlns="http://www.w3.org/2000/svg" fill="none" viewBox="0 0 14 14"><g id="man-arm-raises-1-alternate--man-raise-arm-scaning-detect-posture-security"><path id="Vector 5030" stroke="#000000" stroke-linecap="round" stroke-linejoin="round" d="M4.93366 12.5712 4.5 6.5h-2c-0.55228 0 -1 -0.44772 -1 -1s0.44771 -1 1 -1h9c0.5523 0 1 0.44772 1 1s-0.4477 1 -1 1h-2l-0.43366 6.0712c-0.03738 0.5234 -0.47282 0.9288 -0.99746 0.9288H5.93112c-0.52464 0 -0.96008 -0.4054 -0.99746 -0.9288Z" stroke-width="1"></path><path id="Vector" stroke="#000000" stroke-linecap="round" stroke-linejoin="round" d="M7 4.5c1.10457 0 2 -0.89543 2 -2s-0.89543 -2 -2 -2 -2 0.89543 -2 2 0.89543 2 2 2Z" stroke-width="1"></path><path id="Vector 25" stroke="#000000" stroke-linecap="round" stroke-linejoin="round" d="M7 13.5v-4" stroke-width="1"></path></g></svg>