<svg xmlns="http://www.w3.org/2000/svg" fill="none" viewBox="0 0 14 14"><g id="maximize-1"><path id="Vector 4640" stroke="#000000" stroke-linecap="round" stroke-linejoin="round" d="M13 4.5V1H9.5" stroke-width="1"></path><path id="Vector 4641" stroke="#000000" stroke-linecap="round" stroke-linejoin="round" d="M13 1 7.5 6.5" stroke-width="1"></path><path id="Vector" stroke="#000000" stroke-linecap="round" stroke-linejoin="round" d="M8 13h1" stroke-width="1"></path><path id="Vector_2" stroke="#000000" stroke-linecap="round" stroke-linejoin="round" d="M11.5 13h0.5c0.5523 0 1 -0.4477 1 -1v-0.5" stroke-width="1"></path><path id="Vector_3" stroke="#000000" stroke-linecap="round" stroke-linejoin="round" d="M13 9V8" stroke-width="1"></path><path id="Vector_4" stroke="#000000" stroke-linecap="round" stroke-linejoin="round" d="M1 5v1" stroke-width="1"></path><path id="Vector 4642" stroke="#000000" stroke-linecap="round" stroke-linejoin="round" d="M5 1h1" stroke-width="1"></path><path id="Vector_5" stroke="#000000" stroke-linecap="round" stroke-linejoin="round" d="M2.5 1H2c-0.55228 0 -1 0.44772 -1 1v0.5" stroke-width="1"></path><path id="Vector 4639" stroke="#000000" stroke-linecap="round" stroke-linejoin="round" d="M1 12.5v-4c0 -0.27614 0.22386 -0.5 0.5 -0.5h4c0.27614 0 0.5 0.22386 0.5 0.5v4c0 0.2761 -0.22386 0.5 -0.5 0.5h-4c-0.27614 0 -0.5 -0.2239 -0.5 -0.5Z" stroke-width="1"></path></g></svg>