<svg xmlns="http://www.w3.org/2000/svg" fill="none" viewBox="0 0 14 14"><g id="maximize-2"><path id="Vector 4640" stroke="#000000" stroke-linecap="round" stroke-linejoin="round" d="M8.5 10.5H12c0.5523 0 1 -0.4477 1 -1V2c0 -0.55228 -0.4477 -1 -1 -1H4.5c-0.55228 0 -1 0.44772 -1 1v3.5" stroke-width="1"></path><path id="Vector 4639" stroke="#000000" stroke-linecap="round" stroke-linejoin="round" d="M1 12.5v-4c0 -0.27614 0.22386 -0.5 0.5 -0.5h4c0.27614 0 0.5 0.22386 0.5 0.5v4c0 0.2761 -0.22386 0.5 -0.5 0.5h-4c-0.27614 0 -0.5 -0.2239 -0.5 -0.5Z" stroke-width="1"></path><path id="Vector 4642" stroke="#000000" stroke-linecap="round" stroke-linejoin="round" d="M11 5.5V3H8.5" stroke-width="1"></path><path id="Vector 4641" stroke="#000000" stroke-linecap="round" stroke-linejoin="round" d="M11 3 7.5 6.5" stroke-width="1"></path></g></svg>