<svg xmlns="http://www.w3.org/2000/svg" fill="none" viewBox="0 0 14 14"><g id="medical-search-diagnosis"><path id="vector" stroke="#000000" stroke-linecap="round" stroke-linejoin="round" d="M6.47833 12.2073c3.16381 0 5.72857 -2.56473 5.72857 -5.72854S9.64214 0.750183 6.47833 0.750183C3.31453 0.750183 0.749756 3.31495 0.749756 6.47876S3.31453 12.2073 6.47833 12.2073Z" stroke-width="1"></path><path id="vector_2" stroke="#000000" stroke-linecap="round" stroke-linejoin="round" d="m13.2503 13.2498 -2.7222 -2.7223" stroke-width="1"></path><path id="union" stroke="#000000" stroke-linecap="round" stroke-linejoin="round" d="M5.66577 3.25995c-0.27614 0 -0.5 0.22386 -0.5 0.5v1.40627l-1.40625 0c-0.27614 0 -0.5 0.22386 -0.5 0.5v1.625c0 0.27615 0.22386 0.5 0.5 0.5h1.40625v1.40623c0 0.27614 0.22386 0.5 0.5 0.5h1.625c0.27614 0 0.5 -0.22386 0.5 -0.5V7.79122h1.40625c0.27614 0 0.5 -0.22385 0.5 -0.5v-1.625c0 -0.27614 -0.22386 -0.49999 -0.5 -0.49999l-1.40625 -0.00001V3.75995c0 -0.27614 -0.22386 -0.5 -0.5 -0.5h-1.625Z" stroke-width="1"></path></g></svg>