<svg xmlns="http://www.w3.org/2000/svg" fill="none" viewBox="0 0 14 14"><g id="megaphone-1--bullhorn-loud-megaphone-share-speaker-transmit"><path id="Vector 3868" stroke="#000000" stroke-linecap="round" stroke-linejoin="round" d="M2.5 8.58337V10.5c0 1.1046 0.89543 2 2 2v0c1.10457 0 2 -0.8954 2 -2v-0.74996" stroke-width="1"></path><path id="Vector 3867" stroke="#000000" stroke-linecap="round" stroke-linejoin="round" d="M0.5 7.25v-1.5c0 -0.44444 0.293333 -0.83556 0.72 -0.96l11.16 -3.255c0.0796 -0.02322 0.1621 -0.035 0.245 -0.035 0.4832 0 0.875 0.39175 0.875 0.875v8.25c0 0.4832 -0.3918 0.875 -0.875 0.875 -0.0829 0 -0.1654 -0.0118 -0.245 -0.035L1.22 8.21C0.793333 8.08556 0.5 7.69444 0.5 7.25Z" stroke-width="1"></path></g></svg>