<svg xmlns="http://www.w3.org/2000/svg" fill="none" viewBox="0 0 14 14"><g id="menu--restaurant-book-diner-dine-eat-menu"><path id="Vector 3078" stroke="#000000" stroke-linecap="round" stroke-linejoin="round" d="M1 10.5h2" stroke-width="1"></path><path id="Vector 3075" stroke="#000000" stroke-linecap="round" stroke-linejoin="round" d="M2 12V2c0 -0.55228 0.44771 -1 1 -1h9c0.5523 0 1 0.44772 1 1v10c0 0.5523 -0.4477 1 -1 1H3c-0.55228 0 -1 -0.4477 -1 -1Z" stroke-width="1"></path><path id="Vector 3076" stroke="#000000" stroke-linecap="round" stroke-linejoin="round" d="M1 7h2" stroke-width="1"></path><path id="Vector 3077" stroke="#000000" stroke-linecap="round" stroke-linejoin="round" d="M1 3.5h2" stroke-width="1"></path><path id="Union" stroke="#000000" stroke-linecap="round" stroke-linejoin="round" d="M9.5 8v2h-3V8C5.67157 8 5 7.32843 5 6.5S5.67157 5 6.5 5c0.02837 0 0.05655 0.00079 0.08453 0.00234C6.78978 4.41852 7.34602 4 8 4s1.21022 0.41852 1.41547 1.00234C9.44345 5.00079 9.47163 5 9.5 5c0.8284 0 1.5 0.67157 1.5 1.5S10.3284 8 9.5 8Z" stroke-width="1"></path></g></svg>