<svg width="14" height="14" viewBox="0 0 14 14" fill="none" xmlns="http://www.w3.org/2000/svg">
<path d="M2.49976 2.5H5.99976V6.5C5.99976 7.05418 5.55397 7.50525 4.99983 7.51179L3.54093 7.52898C2.9679 7.53573 2.49976 7.07307 2.49976 6.5V2.5Z" stroke="#01040B" stroke-linecap="round" stroke-linejoin="round"/>
<path d="M3.24976 2.5V0.5H5.24976V2.5" stroke="#01040B" stroke-linecap="round" stroke-linejoin="round"/>
<path d="M6.00024 5.0585H7.52271C9.30145 5.0585 10.7434 6.50046 10.7434 8.27921V10.9999L13.5002 10.9998V8.30753C13.5002 5.10322 10.9026 2.50562 7.69833 2.50562H6.00024" stroke="#01040B" stroke-linecap="round" stroke-linejoin="round"/>
<path d="M5.49976 11V11.5C5.49976 12.1667 4.69976 13.5 3.49976 13.5H13.4998V11H1.49976" stroke="#01040B" stroke-linecap="round" stroke-linejoin="round"/>
<path d="M3.78101 13.5H0.499756" stroke="#01040B" stroke-linecap="round" stroke-linejoin="round"/>
</svg>
