<svg xmlns="http://www.w3.org/2000/svg" fill="none" viewBox="0 0 14 14"><g id="mine-cart-2--outdoor-construction-cart-travel-places"><path id="Vector" stroke="#000000" stroke-linecap="round" stroke-linejoin="round" d="M2.063 4.5C2.28502 3.63739 3.06808 3 3.99999 3c0.1858 0 0.36568 0.02534 0.53637 0.07274C4.73908 1.89558 5.76495 1 6.99999 1c1.23505 0 2.26092 0.89558 2.46364 2.07274C9.63432 3.02534 9.8142 3 9.99999 3c0.93191 0 1.71501 0.63739 1.93701 1.5" stroke-width="1"></path><path id="Ellipse 1948" stroke="#000000" stroke-linecap="round" stroke-linejoin="round" d="M2 11.5a1.5 1.5 0 1 0 3 0 1.5 1.5 0 1 0 -3 0" stroke-width="1"></path><path id="Ellipse 1949" stroke="#000000" stroke-linecap="round" stroke-linejoin="round" d="M9 11.5a1.5 1.5 0 1 0 3 0 1.5 1.5 0 1 0 -3 0" stroke-width="1"></path><path id="Vector 4735" stroke="#000000" stroke-linecap="round" stroke-linejoin="round" d="m11.9607 11.1573 1.026 -4.10413c0.0088 -0.03531 0.0133 -0.07158 0.0133 -0.10798v0c0 -0.24587 -0.1993 -0.44519 -0.4452 -0.44519H1.44519C1.19932 6.5 1 6.69932 1 6.94519v0c0 0.0364 0.00446 0.07267 0.01329 0.10798l1.02604 4.10413" stroke-width="1"></path><path id="Vector 4736" stroke="#000000" stroke-linecap="round" stroke-linejoin="round" d="M4.91464 12h4.17071" stroke-width="1"></path></g></svg>