<svg xmlns="http://www.w3.org/2000/svg" fill="none" viewBox="0 0 14 14"><g id="mine-cart-1--outdoor-construction-cart-travel-places"><path id="Vector" stroke="#000000" stroke-linecap="round" stroke-linejoin="round" d="M12.5 4.25c0 -0.9665 -0.7835 -1.75 -1.75 -1.75 -0.2691 0 -0.5241 0.06075 -0.75183 0.16928C9.95599 1.74025 9.18944 1 8.25 1s-1.70599 0.74025 -1.74817 1.66928C6.27405 2.56075 6.01912 2.5 5.75 2.5 4.7835 2.5 4 3.2835 4 4.25" stroke-width="1"></path><path id="Ellipse 1946" stroke="#000000" stroke-linecap="round" stroke-linejoin="round" d="M8 11.5a1.5 1.5 0 1 0 3 0 1.5 1.5 0 1 0 -3 0" stroke-width="1"></path><path id="Vector 4731" stroke="#000000" stroke-linecap="round" stroke-linejoin="round" d="m11 11.5 2 -5H2.85294l2.64705 5H8" stroke-width="1"></path><path id="Vector 4732" stroke="#000000" stroke-linecap="round" stroke-linejoin="round" d="M5.5 11.5 4 13" stroke-width="1"></path><path id="Vector 4733" stroke="#000000" stroke-linecap="round" stroke-linejoin="round" d="M5.5 11.5 1 3" stroke-width="1"></path></g></svg>