<svg xmlns="http://www.w3.org/2000/svg" fill="none" viewBox="0 0 14 14"><g id="mining-helmet--hard-helmet-safety-mining-cloth-clothing-mine-light-torch-accessories"><path id="Vector" stroke="#000000" stroke-linecap="round" stroke-linejoin="round" d="M0.919998 6.5c0 -1.32608 0.526782 -2.59785 1.464462 -3.53553C3.32215 2.02678 4.59392 1.5 5.92 1.5c1.32608 0 2.59785 0.52678 3.53553 1.46447C10.3932 3.90215 10.92 5.17392 10.92 6.5V9H0.919998V6.5Z" stroke-width="1"></path><path id="Vector_2" stroke="#000000" stroke-linecap="round" stroke-linejoin="round" d="m0.92 9 -0.33 2.36c-0.021369 0.142 -0.011885 0.287 0.027803 0.4251 0.039689 0.138 0.108653 0.2659 0.202197 0.3749 0.094819 0.1079 0.21178 0.1942 0.34293 0.2529 0.13115 0.0586 0.2734 0.0884 0.41707 0.0871h2.68c0.19629 -0.0002 0.38819 -0.0581 0.55179 -0.1666 0.1636 -0.1084 0.29166 -0.2627 0.36821 -0.4434L6.42 9" stroke-width="1"></path><path id="Vector_3" stroke="#000000" stroke-linecap="round" stroke-linejoin="round" d="M10.92 9h2.5V4.5h-2.5" stroke-width="1"></path><path id="Vector_4" stroke="#000000" stroke-linecap="round" stroke-linejoin="round" d="M0.919998 6.5H10.92" stroke-width="1"></path></g></svg>