<svg xmlns="http://www.w3.org/2000/svg" fill="none" viewBox="0 0 14 14"><g id="minimize"><path id="Vector 4648" stroke="#000000" stroke-linecap="round" stroke-linejoin="round" d="M13 5v7c0 0.5523 -0.4477 1 -1 1H8" stroke-width="1"></path><path id="Vector 4649" stroke="#000000" stroke-linecap="round" stroke-linejoin="round" d="M2 13c-0.55228 0 -1 -0.4477 -1 -1" stroke-width="1"></path><path id="Vector 4652" stroke="#000000" stroke-linecap="round" stroke-linejoin="round" d="M2 8c-0.55228 0 -1 0.44772 -1 1" stroke-width="1"></path><path id="Vector 4650" stroke="#000000" stroke-linecap="round" stroke-linejoin="round" d="M5 8c0.55228 0 1 0.44772 1 1" stroke-width="1"></path><path id="Vector 4651" stroke="#000000" stroke-linecap="round" stroke-linejoin="round" d="M6 12c0 0.5523 -0.44772 1 -1 1" stroke-width="1"></path><path id="Vector 4645" stroke="#000000" stroke-linecap="round" stroke-linejoin="round" d="M13 1 7.5 6.5" stroke-width="1"></path><path id="Vector 4646" stroke="#000000" stroke-linecap="round" stroke-linejoin="round" d="M7.5 3.5v3h3" stroke-width="1"></path><path id="Vector 4647" stroke="#000000" stroke-linecap="round" stroke-linejoin="round" d="M1 6V2c0 -0.55228 0.44772 -1 1 -1h7" stroke-width="1"></path></g></svg>