<svg xmlns="http://www.w3.org/2000/svg" fill="none" viewBox="0 0 14 14"><g id="mobile-payment--accounting-billing-payment-cash-currency-money-finance-mobile"><path id="Vector 3" stroke="#000000" stroke-linecap="round" stroke-linejoin="round" d="M12.4783 7.72226c-0.0585 -0.16561 -0.1488 -0.3162 -0.2636 -0.44444 -0.2441 -0.27278 -0.5989 -0.44445 -0.9938 -0.44445h-1.0321c-0.65728 0 -1.19014 0.53286 -1.19014 1.19018 0 0.55931 0.38945 1.04316 0.93584 1.16268l1.5713 0.34373c0.6121 0.1339 1.0484 0.67634 1.0484 1.30294 0 0.7364 -0.5969 1.3338 -1.3333 1.3338h-0.8889c-0.58055 0 -1.07443 -0.371 -1.25747 -0.8889" stroke-width="1"></path><path id="Vector 2489" stroke="#000000" stroke-linecap="round" stroke-linejoin="round" d="M10.7764 6.83333V5.5" stroke-width="1"></path><path id="Vector 2490" stroke="#000000" stroke-linecap="round" stroke-linejoin="round" d="M10.7764 13.5v-1.3334" stroke-width="1"></path><path id="Vector" stroke="#000000" stroke-linecap="round" stroke-linejoin="round" d="M8.9582 4.375V1.48445c0 -0.509179 -0.41277 -0.92195 -0.92195 -0.92195H1.5826c-0.50918 0 -0.921955 0.412771 -0.921955 0.92195V11.6259c0 0.5092 0.412775 0.922 0.921955 0.922h5.37541" stroke-width="1"></path><path id="Vector_2" stroke="#000000" stroke-linecap="round" stroke-linejoin="round" d="M4.34825 10.2429h0.92195" stroke-width="1"></path></g></svg>