<svg xmlns="http://www.w3.org/2000/svg" fill="none" viewBox="0 0 14 14"><g id="mobile-ai-spark--android-phone-mobile-device-smartphone-artificial-intelligence-ai"><path id="Vector" stroke="#000000" stroke-linecap="round" stroke-linejoin="round" d="M7.32635 0.5h-5.75c-0.55228 0 -0.999995 0.447715 -0.999995 1v11c0 0.5523 0.447715 1 0.999995 1h7c0.55229 0 1 -0.4477 1 -1V9.25" stroke-width="1"></path><path id="Vector_2" stroke="#000000" stroke-linecap="round" stroke-linejoin="round" d="M4.57635 11h1" stroke-width="1"></path><path id="Vector 2136" stroke="#000000" stroke-linecap="round" stroke-linejoin="round" d="M7.33955 3.96328c-0.35093 -0.06106 -0.35093 -0.56483 0 -0.62588C8.61091 3.11622 9.6221 2.14785 9.89805 0.887249l0.02115 -0.09663c0.07593 -0.346833 0.5698 -0.348991 0.6487 -0.002835l0.0257 0.11261c0.2862 1.254656 1.2976 2.214836 2.5655 2.435406 0.3527 0.06136 0.3527 0.56771 0 0.62907 -1.2679 0.22057 -2.2793 1.18076 -2.5655 2.43541l-0.0257 0.11261c-0.0789 0.34616 -0.57277 0.344 -0.6487 -0.00284l-0.02115 -0.09662c-0.27595 -1.26061 -1.28714 -2.22897 -2.5585 -2.45015Z" stroke-width="1"></path></g></svg>