<svg xmlns="http://www.w3.org/2000/svg" fill="none" viewBox="0 0 14 14"><g id="module-puzzle-3--code-puzzle-module-programming-plugin-piece"><path id="Vector 2327" stroke="#000000" stroke-linecap="round" stroke-linejoin="round" d="M12 1H2c-0.55228 0 -1 0.44772 -1 1v10c0 0.5523 0.44772 1 1 1h10c0.5523 0 1 -0.4477 1 -1V2c0 -0.55228 -0.4477 -1 -1 -1Z" stroke-width="1"></path><path id="Vector 2328" stroke="#000000" stroke-linecap="round" stroke-linejoin="round" d="M7 1v1.96795c-0.24497 -0.21925 -0.56845 -0.35257 -0.92308 -0.35257 -0.7647 0 -1.38461 0.61992 -1.38461 1.38462 0 0.7647 0.61991 1.38462 1.38461 1.38462 0.35463 0 0.67811 -0.13332 0.92308 -0.35257v3.9359c0.24496 -0.21925 0.56845 -0.35257 0.92308 -0.35257 0.7647 0 1.38461 0.61992 1.38461 1.38462 0 0.7647 -0.61991 1.3846 -1.38461 1.3846 -0.35463 0 -0.67812 -0.1333 -0.92308 -0.3526V13" stroke-width="1"></path><path id="Vector 2330" stroke="#000000" stroke-linecap="round" stroke-linejoin="round" d="m1 7 1.96795 0c-0.21925 0.24496 -0.35257 0.56845 -0.35257 0.92308 0 0.7647 0.61992 1.38461 1.38462 1.38461 0.7647 0 1.38462 -0.61991 1.38462 -1.38461 0 -0.35463 -0.13332 -0.67812 -0.35257 -0.92308l3.9359 0c-0.21925 -0.24497 -0.35257 -0.56845 -0.35257 -0.92308 0 -0.7647 0.61992 -1.38461 1.38462 -1.38461 0.7647 0 1.3846 0.61991 1.3846 1.38461 0 0.35463 -0.1333 0.67811 -0.3526 0.92308L13 7" stroke-width="1"></path></g></svg>