<svg xmlns="http://www.w3.org/2000/svg" fill="none" viewBox="0 0 14 14"><g id="module--cube-code-module-programming-plugin"><path id="Vector" stroke="#000000" stroke-linecap="round" stroke-linejoin="round" d="M12.8974 3.31149c-0.0491 -0.06673 -0.1164 -0.11798 -0.1938 -0.14768l-5.53798 -2.0952c-0.0524 -0.02287 -0.10896 -0.03467 -0.16614 -0.03467 -0.05718 0 -0.11374 0.0118 -0.16614 0.03467L1.29536 3.20073c-0.07317 0.01938 -0.13999 0.05757 -0.19383 0.11076 -0.06447 0.078 -0.1003 0.17572 -0.10153 0.2769v6.75631c0.0012 0.0922 0.02997 0.1819 0.08261 0.2576 0.05265 0.0757 0.12674 0.1338 0.21275 0.167l5.53798 2.1321h0.33228l5.53798 -2.1321c0.086 -0.0332 0.1601 -0.0913 0.2127 -0.167 0.0527 -0.0757 0.0815 -0.1654 0.0827 -0.2576V3.62531c0.0078 -0.11377 -0.0286 -0.22618 -0.1016 -0.31382Z" stroke-width="1"></path><path id="Vector_2" stroke="#000000" stroke-linecap="round" stroke-linejoin="round" d="M6.99948 12.9661V5.619" stroke-width="1"></path><path id="Vector_3" stroke="#000000" stroke-linecap="round" stroke-linejoin="round" d="M6.99948 5.619v7.3471" stroke-width="1"></path><path id="Vector_4" stroke="#000000" stroke-linecap="round" stroke-linejoin="round" d="m1.1015 3.34842 5.89795 2.27057 5.89795 -2.27057" stroke-width="1"></path></g></svg>