<svg xmlns="http://www.w3.org/2000/svg" fill="none" viewBox="0 0 14 14"><g id="money-trend--money-trend-increase-arrow-up-bill-cash"><path id="Vector" stroke="#000000" stroke-linecap="round" stroke-linejoin="round" d="M11.5 6.5h-9c-0.55228 0 -1 0.44772 -1 1v5c0 0.5523 0.44772 1 1 1h9c0.5523 0 1 -0.4477 1 -1v-5c0 -0.55228 -0.4477 -1 -1 -1Z" stroke-width="1"></path><path id="Vector_2" stroke="#000000" stroke-linecap="round" stroke-linejoin="round" d="M7 11.75c0.9665 0 1.75 -0.7835 1.75 -1.75S7.9665 8.25 7 8.25 5.25 9.0335 5.25 10s0.7835 1.75 1.75 1.75Z" stroke-width="1"></path><g id="Group 8"><path id="Ellipse 1" stroke="#000000" stroke-linecap="round" stroke-linejoin="round" d="M3.2749 10.25c-0.13807 0 -0.25 -0.1119 -0.25 -0.25 0 -0.13807 0.11193 -0.25 0.25 -0.25" stroke-width="1"></path><path id="Ellipse 2" stroke="#000000" stroke-linecap="round" stroke-linejoin="round" d="M3.27493 10.25c0.13807 0 0.25 -0.1119 0.25 -0.25 0 -0.13807 -0.11193 -0.25 -0.25 -0.25" stroke-width="1"></path></g><g id="Group 9"><path id="Ellipse 1_2" stroke="#000000" stroke-linecap="round" stroke-linejoin="round" d="M10.7251 10.25c-0.1381 0 -0.25 -0.1119 -0.25 -0.25 0 -0.13807 0.1119 -0.25 0.25 -0.25" stroke-width="1"></path><path id="Ellipse 2_2" stroke="#000000" stroke-linecap="round" stroke-linejoin="round" d="M10.7251 10.25c0.1381 0 0.25 -0.1119 0.25 -0.25 0 -0.13807 -0.1119 -0.25 -0.25 -0.25" stroke-width="1"></path></g><path id="Vector_3" stroke="#000000" stroke-linecap="round" stroke-linejoin="round" d="m11 0.5 -4 4 -2 -2 -2 2" stroke-width="1"></path><path id="Vector_4" stroke="#000000" stroke-linecap="round" stroke-linejoin="round" d="M8.5 0.5H11V3" stroke-width="1"></path></g></svg>