<svg xmlns="http://www.w3.org/2000/svg" fill="none" viewBox="0 0 14 14"><g id="moon-stars--night-time"><path id="Vector" stroke="#000000" stroke-linecap="round" stroke-linejoin="round" d="m10 2.5 0 -2" stroke-width="1"></path><path id="Vector_2" stroke="#000000" stroke-linecap="round" stroke-linejoin="round" d="m11 1.5 -2 0" stroke-width="1"></path><path id="Subtract" stroke="#000000" stroke-linecap="round" stroke-linejoin="round" d="M6.98348 3.48656c-1.5599 0.90061 -2.06678 2.94303 -1.13214 4.56186 0.93463 1.61884 2.95685 2.20108 4.51676 1.30047 0.2875 -0.16598 0.7141 0.06593 0.6205 0.39051 -0.3638 1.2612 -1.18213 2.3764 -2.38726 3.0722 -2.53484 1.4635 -5.82095 0.5173 -7.33973 -2.1133C-0.257176 8.06769 0.566499 4.74877 3.10134 3.28528c1.20513 -0.69578 2.58008 -0.84691 3.85418 -0.53132 0.3279 0.08122 0.31543 0.56663 0.02796 0.7326Z" stroke-width="1"></path><path id="Vector_3" stroke="#000000" stroke-linecap="round" stroke-linejoin="round" d="m12.5 6.5 0 -2" stroke-width="1"></path><path id="Vector_4" stroke="#000000" stroke-linecap="round" stroke-linejoin="round" d="m13.5 5.5 -2 0" stroke-width="1"></path></g></svg>