<svg xmlns="http://www.w3.org/2000/svg" fill="none" viewBox="0 0 14 14"><g id="motocycle-front"><path id="Vector 4532" stroke="#000000" stroke-linecap="round" stroke-linejoin="round" d="M8.5 12v-2c0 -0.82843 -0.67157 -1.5 -1.5 -1.5s-1.5 0.67157 -1.5 1.5v2c0 0.8284 0.67157 1.5 1.5 1.5s1.5 -0.6716 1.5 -1.5Z" stroke-width="1"></path><path id="Vector 4533" stroke="#000000" stroke-linecap="round" stroke-linejoin="round" d="m5.25 3 -0.38909 0C3.62503 3 2.68494 4.10973 2.88812 5.3288l0.9726 5.8356c0.08036 0.4822 0.49755 0.8356 0.98639 0.8356H5.5" stroke-width="1"></path><path id="Vector 4536" stroke="#000000" stroke-linecap="round" stroke-linejoin="round" d="M8.75 3h0.38907C10.3749 3 11.315 4.10973 11.1119 5.3288l-0.9726 5.8356c-0.0804 0.4822 -0.4976 0.8356 -0.98644 0.8356H8.5" stroke-width="1"></path><path id="Ellipse 1731" stroke="#000000" stroke-linecap="round" stroke-linejoin="round" d="M5.25 3a1.75 1.75 0 1 0 3.5 0 1.75 1.75 0 1 0 -3.5 0" stroke-width="1"></path><path id="Vector" stroke="#000000" stroke-linecap="round" stroke-linejoin="round" d="M5.56751 1.99452 4.5 0.5h-2" stroke-width="1"></path><path id="Vector_2" stroke="#000000" stroke-linecap="round" stroke-linejoin="round" d="M11.5 0.5H9.50001L8.4325 1.99452" stroke-width="1"></path></g></svg>