<svg xmlns="http://www.w3.org/2000/svg" fill="none" viewBox="0 0 14 14"><g id="motorcycle-side"><path id="Vector 4539" stroke="#000000" stroke-linecap="round" stroke-linejoin="round" d="M2.5 5.38197V4.5h7.12821l0.46109 2.56916L7.46479 8.4824l-4.412 -2.20601C2.714 6.107 2.5 5.76074 2.5 5.38197Z" stroke-width="1"></path><path id="Vector 4541" stroke="#000000" stroke-linecap="round" stroke-linejoin="round" d="M2.5 4.5H1" stroke-width="1"></path><path id="Vector 4540" stroke="#000000" stroke-linecap="round" stroke-linejoin="round" d="M10.09 7.07s0.41 -0.57 1.41 -0.57S13 7 13 7" stroke-width="1"></path><path id="Vector 4517" stroke="#000000" stroke-linecap="round" stroke-linejoin="round" d="M10.75 10.75 9.14778 1.82334C9.06225 1.34681 8.64764 1 8.16351 1H6.5" stroke-width="1"></path><path id="Vector 4542" stroke="#000000" stroke-linecap="round" stroke-linejoin="round" d="m11.359 3 0.2692 1.5" stroke-width="1"></path><path id="Vector 4518" stroke="#000000" stroke-linecap="round" stroke-linejoin="round" d="m3.25 10.75 6.84 -3.67999" stroke-width="1"></path><path id="Ellipse 1721" stroke="#000000" stroke-linecap="round" stroke-linejoin="round" d="M8.5 10.75a2.25 2.25 0 1 0 4.5 0 2.25 2.25 0 1 0 -4.5 0" stroke-width="1"></path><path id="Ellipse 1722" stroke="#000000" stroke-linecap="round" stroke-linejoin="round" d="M1 10.75a2.25 2.25 0 1 0 4.5 0 2.25 2.25 0 1 0 -4.5 0" stroke-width="1"></path></g></svg>