<svg xmlns="http://www.w3.org/2000/svg" fill="none" viewBox="0 0 14 14"><g id="mouse-setting-bolt-nut"><path id="Rectangle 2022" stroke="#000000" stroke-linecap="round" stroke-linejoin="round" d="M8.71429 5.75V4.60714C8.71429 2.33883 6.87545 0.5 4.60714 0.5 2.33883 0.5 0.5 2.33883 0.5 4.60714v3.28572C0.5 10.1612 2.33883 12 4.60714 12c0.29352 0 0.57984 -0.0308 0.85593 -0.0893" stroke-width="1"></path><path id="Vector" stroke="#000000" stroke-linecap="round" stroke-linejoin="round" d="m4.60718 2.86609 0 1.46428" stroke-width="1"></path><path id="Rectangle 1921" stroke="#000000" stroke-linecap="round" stroke-linejoin="round" d="m7.5 8.75 3 -1.75 3 1.75v3l-3 1.75 -3 -1.75v-3Z" stroke-width="1"></path><path id="Ellipse 1472" stroke="#000000" stroke-linecap="round" stroke-linejoin="round" d="M10 10.25a0.5 0.5 0 1 0 1 0 0.5 0.5 0 1 0 -1 0" stroke-width="1"></path></g></svg>