<svg xmlns="http://www.w3.org/2000/svg" fill="none" viewBox="0 0 14 14"><g id="museum-painting--painting-entertainment-stanchion-display-museum-event-hobby-exhibit-travel-places"><path id="Vector 4742" stroke="#000000" stroke-linecap="round" stroke-linejoin="round" d="M12 5.625 9.65175 3.57029c-0.37411 -0.32735 -0.93187 -0.33019 -1.3093 -0.00668L3.16666 8" stroke-width="1"></path><path id="Vector" stroke="#000000" stroke-linecap="round" stroke-linejoin="round" d="M4 10v3" stroke-width="1"></path><path id="Vector_2" stroke="#000000" stroke-linecap="round" stroke-linejoin="round" d="M10 10v3" stroke-width="1"></path><path id="Vector_3" stroke="#000000" stroke-linecap="round" stroke-linejoin="round" d="M1 12.5c1.5 0 2 -0.5 3 -1.5 1 1 2 1.5 3 1.5s2.00003 -0.5 3 -1.5c1 1 1.67 1.5001 3 1.5" stroke-width="1"></path><path id="Vector_4" stroke="#000000" stroke-linecap="round" stroke-linejoin="round" d="M3.5 10h1" stroke-width="1"></path><path id="Vector_5" stroke="#000000" stroke-linecap="round" stroke-linejoin="round" d="M9.5 10h1" stroke-width="1"></path><path id="Vector_6" stroke="#000000" stroke-linecap="round" stroke-linejoin="round" d="M4.25 3.75c0.27614 0 0.5 -0.22386 0.5 -0.5s-0.22386 -0.5 -0.5 -0.5 -0.5 0.22386 -0.5 0.5 0.22386 0.5 0.5 0.5Z" stroke-width="1"></path><path id="Vector 4743" stroke="#000000" stroke-linecap="round" stroke-linejoin="round" d="M11 1H3c-0.55228 0 -1 0.44772 -1 1v5c0 0.55228 0.44772 1 1 1h8c0.5523 0 1 -0.44772 1 -1V2c0 -0.55228 -0.4477 -1 -1 -1Z" stroke-width="1"></path></g></svg>