<svg xmlns="http://www.w3.org/2000/svg" fill="none" viewBox="0 0 14 14"><g id="museum-painting-exhibit-3--painting-stanchion-display-museum-event-exhibit-travel-places"><path id="Vector" stroke="#000000" stroke-linecap="round" stroke-linejoin="round" d="M4 10v3" stroke-width="1"></path><path id="Vector_2" stroke="#000000" stroke-linecap="round" stroke-linejoin="round" d="M10 10v3" stroke-width="1"></path><path id="Vector_3" stroke="#000000" stroke-linecap="round" stroke-linejoin="round" d="M1 12.5c1.5 0 2 -0.5 3 -1.5 1 1 2 1.5 3 1.5s2.00003 -0.5 3 -1.5c1 1 1.67 1.5 3 1.5" stroke-width="1"></path><path id="Vector_4" stroke="#000000" stroke-linecap="round" stroke-linejoin="round" d="M3.5 10h1" stroke-width="1"></path><path id="Vector 4748" stroke="#000000" stroke-linecap="round" stroke-linejoin="round" d="M1 6.5v-5c0 -0.27614 0.22386 -0.5 0.5 -0.5h4c0.27614 0 0.5 0.22386 0.5 0.5v5c0 0.27614 -0.22386 0.5 -0.5 0.5h-4c-0.27614 0 -0.5 -0.22386 -0.5 -0.5Z" stroke-width="1"></path><path id="Vector 4749" stroke="#000000" stroke-linecap="round" stroke-linejoin="round" d="M8 6.5v-5c0 -0.27614 0.22386 -0.5 0.5 -0.5h4c0.2761 0 0.5 0.22386 0.5 0.5v5c0 0.27614 -0.2239 0.5 -0.5 0.5h-4c-0.27614 0 -0.5 -0.22386 -0.5 -0.5Z" stroke-width="1"></path><path id="Vector_5" stroke="#000000" stroke-linecap="round" stroke-linejoin="round" d="M9.5 10h1" stroke-width="1"></path></g></svg>