<svg xmlns="http://www.w3.org/2000/svg" fill="none" viewBox="0 0 14 14"><g id="music-note-off-2--music-audio-note-off-mute-entertainment"><path id="Vector" stroke="#000000" stroke-linecap="round" stroke-linejoin="round" d="m0.5 0.5 13 13" stroke-width="1"></path><path id="Vector_2" stroke="#000000" stroke-linecap="round" stroke-linejoin="round" d="M2.5 13.42c1.10457 0 2 -0.8954 2 -2s-0.89543 -2.00002 -2 -2.00002 -2 0.89542 -2 2.00002 0.89543 2 2 2Z" stroke-width="1"></path><path id="Vector_3" stroke="#000000" stroke-linecap="round" stroke-linejoin="round" d="M10.79 10.79c0.226 0.089 0.4671 0.1332 0.71 0.13 0.3956 0 0.7822 -0.1173 1.1111 -0.3371 0.3289 -0.2197 0.5853 -0.5321 0.7367 -0.89755 0.1513 -0.36545 0.1909 -0.76758 0.1138 -1.15555 -0.0772 -0.38796 -0.2677 -0.74432 -0.5474 -1.02403 -0.2797 -0.2797 -0.6361 -0.47019 -1.024 -0.54736 -0.388 -0.07717 -0.7901 -0.03756 -1.1556 0.11381 -0.3654 0.15138 -0.6778 0.40772 -0.89754 0.73662C9.6173 8.13774 9.5 8.52442 9.5 8.91998c0.00162 0.24244 0.04562 0.48272 0.13 0.71" stroke-width="1"></path><path id="Vector_4" stroke="#000000" stroke-linecap="round" stroke-linejoin="round" d="M4.5 8v3.42" stroke-width="1"></path><path id="Vector_5" stroke="#000000" stroke-linecap="round" stroke-linejoin="round" d="M13.5 8.92002v-7.84c-0.0004 -0.07651 -0.0184 -0.151895 -0.0526 -0.220361 -0.0341 -0.068466 -0.0835 -0.128182 -0.1444 -0.17455 -0.0608 -0.046368 -0.1315 -0.078152 -0.2066 -0.092903s-0.1525 -0.012077 -0.2264 0.007817l-8 2.219997c-0.10572 0.02847 -0.19917 0.09084 -0.26601 0.17755 -0.06684 0.08672 -0.10338 0.19297 -0.10399 0.30245v1.2" stroke-width="1"></path><path id="Vector_6" stroke="#000000" stroke-linecap="round" stroke-linejoin="round" d="m5.60999 5.60998 7.89001 -2.19" stroke-width="1"></path></g></svg>