<svg xmlns="http://www.w3.org/2000/svg" fill="none" viewBox="0 0 14 14"><g id="music-note-circle-off--music-audio-note-cicle-off-mute-entertainment"><path id="Vector" stroke="#000000" stroke-linecap="round" stroke-linejoin="round" d="M7 13.5c3.5899 0 6.5 -2.9101 6.5 -6.5C13.5 3.41015 10.5899 0.5 7 0.5 3.41015 0.5 0.5 3.41015 0.5 7c0 3.5899 2.91015 6.5 6.5 6.5Z" stroke-width="1"></path><path id="Vector_2" stroke="#000000" stroke-linecap="round" stroke-linejoin="round" d="M5.27998 7.90002c-0.20785 0.07951 -0.39282 0.20917 -0.53846 0.37743 -0.14563 0.16827 -0.24741 0.36993 -0.29628 0.58704 -0.04886 0.2171 -0.0433 0.44292 0.01619 0.65736 0.0595 0.21444 0.17108 0.41084 0.32483 0.57175 0.15374 0.1609 0.34487 0.2813 0.55638 0.3504 0.21152 0.0692 0.43685 0.085 0.65595 0.0461 0.21911 -0.039 0.42518 -0.1315 0.59989 -0.2693 0.17471 -0.1379 0.31264 -0.31675 0.4015 -0.52078" stroke-width="1"></path><path id="Vector_3" stroke="#000000" stroke-linecap="round" stroke-linejoin="round" d="M7.12 7V3.5c0.79564 0 1.55871 0.31607 2.12132 0.87868 0.5626 0.56261 0.87868 1.32567 0.87868 2.12132" stroke-width="1"></path><path id="Vector_4" stroke="#000000" stroke-linecap="round" stroke-linejoin="round" d="M2.40002 2.40002 11.6 11.6" stroke-width="1"></path></g></svg>