<svg xmlns="http://www.w3.org/2000/svg" fill="none" viewBox="0 0 14 14"><g id="navigation-arrow-south--compass-map-bearing-navigation-maps-heading-gps-down"><path id="Vector 3969" stroke="#000000" stroke-linecap="round" stroke-linejoin="round" d="M12.4467 1.86998 7.70307 12.5431C7.57958 12.8209 7.30405 13 7 13s-0.57958 -0.1791 -0.70307 -0.4569L1.55333 1.86998C1.51817 1.79087 1.5 1.70527 1.5 1.6187 1.5 1.277 1.777 1 2.1187 1h0.03113c0.06639 0 0.13238 0.01017 0.19569 0.03016l4.35335 1.37475c0.19598 0.06189 0.40628 0.06189 0.60226 0l4.35337 -1.37475C11.7178 1.01017 11.7838 1 11.8502 1h0.0311c0.3417 0 0.6187 0.277 0.6187 0.6187 0 0.08657 -0.0182 0.17217 -0.0533 0.25128Z" stroke-width="1"></path></g></svg>