<svg xmlns="http://www.w3.org/2000/svg" fill="none" viewBox="0 0 14 14"><g id="navigation-arrow-north--compass-map-bearing-navigation-maps-heading-gps-up"><path id="Vector 3969" stroke="#000000" stroke-linecap="round" stroke-linejoin="round" d="M12.4467 12.13 7.70307 1.45691C7.57958 1.17906 7.30405 1 7 1s-0.57958 0.17906 -0.70307 0.45691L1.55333 12.13c-0.03516 0.0791 -0.05333 0.1647 -0.05333 0.2513 0 0.3417 0.277 0.6187 0.6187 0.6187h0.03113c0.06639 0 0.13238 -0.0102 0.19569 -0.0302l4.35335 -1.3747c0.19598 -0.0619 0.40628 -0.0619 0.60226 0l4.35337 1.3747c0.0633 0.02 0.1293 0.0302 0.1957 0.0302h0.0311c0.3417 0 0.6187 -0.277 0.6187 -0.6187 0 -0.0866 -0.0182 -0.1722 -0.0533 -0.2513Z" stroke-width="1"></path></g></svg>