<svg xmlns="http://www.w3.org/2000/svg" fill="none" viewBox="0 0 14 14"><g id="new-file-dash"><path id="Vector" stroke="#000000" stroke-linecap="round" stroke-linejoin="round" d="M6.5 0.5H9L12.5 4v4" stroke-width="1"></path><path id="Vector_2" stroke="#000000" stroke-linecap="round" stroke-linejoin="round" d="M10.5 13.5h1c0.2652 0 0.5196 -0.1054 0.7071 -0.2929s0.2929 -0.4419 0.2929 -0.7071v-1" stroke-width="1"></path><path id="Vector_3" stroke="#000000" stroke-linecap="round" stroke-linejoin="round" d="M6 13.5h2" stroke-width="1"></path><path id="Vector_4" stroke="#000000" stroke-linecap="round" stroke-linejoin="round" d="M3.5 0.5h-1c-0.26522 0 -0.51957 0.105357 -0.70711 0.292893C1.60536 0.98043 1.5 1.23478 1.5 1.5v1" stroke-width="1"></path><path id="Vector_5" stroke="#000000" stroke-linecap="round" stroke-linejoin="round" d="M1.5 6v2" stroke-width="1"></path><path id="Vector_6" stroke="#000000" stroke-linecap="round" stroke-linejoin="round" d="M1.5 11.5v1c0 0.2652 0.10536 0.5196 0.29289 0.7071 0.18754 0.1875 0.44189 0.2929 0.70711 0.2929h1" stroke-width="1"></path><path id="Vector 2529" stroke="#000000" stroke-linecap="round" stroke-linejoin="round" d="M8.5 0.5v4h4" stroke-width="1"></path></g></svg>