<svg xmlns="http://www.w3.org/2000/svg" fill="none" viewBox="0 0 14 14"><g id="nintendo-playstation-controller--entertainment-gaming-nintendo-playstation-controller"><path id="Vector" stroke="#000000" stroke-linecap="round" stroke-linejoin="round" d="M2.22984 3.13113C3.12187 2.95123 5.11643 2.75 7 2.75c1.88357 0 3.8781 0.20123 4.7702 0.38113 0.2197 0.04432 0.4025 0.18751 0.4997 0.38957 0.7614 1.58417 1.2516 4.80921 1.2294 6.19281 -0.0237 1.48019 -1.0393 2.32989 -2.3212 2.32119 -1.59904 -0.0109 -2.05893 -2.32327 -2.39892 -3.10783H5.22096c-0.33999 0.78456 -0.79999 3.09693 -2.39907 3.10783 -1.28191 0.0087 -2.297448 -0.841 -2.321168 -2.32119C0.478549 8.32991 0.968693 5.10487 1.73015 3.5207c0.09712 -0.20206 0.27992 -0.34525 0.49969 -0.38957Z" stroke-width="1"></path><path id="Vector 745" stroke="#000000" stroke-linecap="round" stroke-linejoin="round" d="m2.55304 12.0347 0.52911 -4.1703c0.17817 -0.92906 1.10309 -1.61001 2.18685 -1.61001h3.46208c1.08376 0 2.00872 0.68095 2.18682 1.61001l0.5291 4.1703" stroke-width="1"></path><path id="Vector 749" stroke="#000000" stroke-linecap="round" stroke-linejoin="round" d="M10.0824 2.90234 8.99042 6.25437" stroke-width="1"></path><path id="Vector 748" stroke="#000000" stroke-linecap="round" stroke-linejoin="round" d="m3.9201 2.90234 1.09064 3.352" stroke-width="1"></path></g></svg>