<svg xmlns="http://www.w3.org/2000/svg" fill="none" viewBox="0 0 14 14"><g id="nintendo-xbox-controller-1--entertainment-gaming-nintendo-xbox-controller"><path id="Vector" stroke="#000000" stroke-linecap="round" stroke-linejoin="round" d="M5.99215 8.62498h2.0157m-4.40918 1.3442c-0.32081 0.60272 -0.72969 1.18542 -1.24165 1.44152 -1.392892 0 -1.832748 -0.8411 -1.856471 -2.32144C0.480461 7.83574 1.01423 4.8195 1.68099 3.08497c0.1183 -0.30773 0.4214 -0.49586 0.75109 -0.49586h1.78213l0.9286 0.4643h3.71438l0.9286 -0.4643h1.73751c0.357 0 0.6849 0.20311 0.8114 0.53691 0.6594 1.74068 1.1847 4.71955 1.1648 5.96324 -0.0238 1.48034 -0.5833 2.32144 -1.9762 2.32144 -0.5011 -0.2507 -0.8686 -0.8144 -1.1542 -1.4034" stroke-width="1"></path><path id="Vector 751" stroke="#000000" stroke-linecap="round" stroke-linejoin="round" d="M4.67871 2.82642v2.00853c0 0.55464 0.41575 1.00427 0.9286 1.00427h2.78578c0.51285 0 0.9286 -0.44963 0.9286 -1.00427V2.82642" stroke-width="1"></path><path id="Ellipse 265" stroke="#000000" stroke-linecap="round" stroke-linejoin="round" d="M3.286 9.089a1.393 1.393 0 1 0 2.786 0 1.393 1.393 0 1 0 -2.786 0" stroke-width="1"></path><path id="Ellipse 266" stroke="#000000" stroke-linecap="round" stroke-linejoin="round" d="M7.929 9.089a1.393 1.393 0 1 0 2.786 0 1.393 1.393 0 1 0 -2.786 0" stroke-width="1"></path></g></svg>