<svg xmlns="http://www.w3.org/2000/svg" fill="none" viewBox="0 0 14 14"><g id="no-flight-airport-2"><path id="Vector" stroke="#000000" stroke-linecap="round" stroke-linejoin="round" d="m12.1111 12.1111 0.1063 -0.1329c0.4787 -0.5983 0.5734 -1.4175 0.244 -2.10924L10.5 5.75l2.5581 -2.55806c0.2829 -0.28297 0.4419 -0.66676 0.4419 -1.06694s-0.159 -0.78397 -0.4419 -1.06694l-0.1162 -0.116118C12.659 0.658971 12.2752 0.5 11.875 0.5s-0.784 0.158971 -1.0669 0.441942L8.25 3.5 4.13104 1.53859c-0.69178 -0.32942 -1.51095 -0.23466 -2.10926 0.24398l-0.13285 0.10628" stroke-width="1"></path><path id="Vector_2" stroke="#000000" stroke-linecap="round" stroke-linejoin="round" d="M4.35314 7.39685 3.75 8l-1.43765 -0.22118C1.35941 7.63221 0.5 8.36951 0.5 9.33367c0 0.38451 0.277985 0.71263 0.65726 0.77583L3.5 10.5l0.39046 2.3427c0.06321 0.3793 0.39136 0.6573 0.77587 0.6573 0.96415 0 1.70145 -0.8594 1.55485 -1.8124L6 10.25l0.60314 -0.60315" stroke-width="1"></path><path id="Vector_3" stroke="#000000" stroke-linecap="round" stroke-linejoin="round" d="M0.502522 0.502441 13.4976 13.4975" stroke-width="1"></path></g></svg>