<svg xmlns="http://www.w3.org/2000/svg" fill="none" viewBox="0 0 14 14"><g id="notebook--pencil-content-write-notebook-book-edit-composition-creation"><path id="Vector" stroke="#000000" stroke-linecap="round" stroke-linejoin="round" d="M8 13H2c-0.26522 0 -0.51957 -0.1054 -0.70711 -0.2929C1.10536 12.5196 1 12.2652 1 12V2c0 -0.26522 0.10536 -0.51957 0.29289 -0.70711C1.48043 1.10536 1.73478 1 2 1h7" stroke-width="1"></path><path id="Vector_2" stroke="#000000" stroke-linecap="round" stroke-linejoin="round" d="m10 4 1.5 -3L13 4v7.5c0 0.3978 -0.158 0.7794 -0.4393 1.0607S11.8978 13 11.5 13c-0.3978 0 -0.7794 -0.158 -1.0607 -0.4393S10 11.8978 10 11.5V4Z" stroke-width="1"></path><path id="Vector_3" stroke="#000000" stroke-linecap="round" stroke-linejoin="round" d="M3.75 1v12" stroke-width="1"></path></g></svg>