<svg xmlns="http://www.w3.org/2000/svg" fill="none" viewBox="0 0 14 14"><g id="notepad-sketchpad"><path id="vector" stroke="#000000" stroke-linecap="round" stroke-linejoin="round" d="M3.5 3V1" stroke-width="1"></path><path id="vector_2" stroke="#000000" stroke-linecap="round" stroke-linejoin="round" d="M7 3V1" stroke-width="1"></path><path id="vector_3" stroke="#000000" stroke-linecap="round" stroke-linejoin="round" d="M10.5 3V1" stroke-width="1"></path><path id="vector_4" stroke="#000000" stroke-linecap="round" stroke-linejoin="round" d="M12.5 2h-11c-0.552285 0 -1 0.44772 -1 1v8.5c0 0.5523 0.447715 1 1 1h11c0.5523 0 1 -0.4477 1 -1V3c0 -0.55228 -0.4477 -1 -1 -1Z" stroke-width="1"></path><path id="vector 2057" stroke="#000000" stroke-linecap="round" stroke-linejoin="round" d="M4.00008 5.5c-0.49994 1 -1.50008 4.5111 -0.49984 4.5111C4.78772 10.0111 5.5001 6.5 6.5001 6.5s-0.5 3.5111 0.5 3.5111 1.5 -2.5111 2.5 -2.5111 0 2.5111 1.5 2.5" stroke-width="1"></path></g></svg>