<svg xmlns="http://www.w3.org/2000/svg" fill="none" viewBox="0 0 14 14"><g id="notification-alert--android-phone-mobile-device-smartphone-iphone-alert"><path id="Vector" stroke="#000000" stroke-linecap="round" stroke-linejoin="round" d="M6.1875 0.5H2.47949c-0.55228 0 -1 0.447715 -1 1v11c0 0.5523 0.44772 1 1 1h7c0.55231 0 1.00001 -0.4477 1.00001 -1V9.15625" stroke-width="1"></path><path id="Vector_2" stroke="#000000" stroke-linecap="round" stroke-linejoin="round" d="M5.47949 11h1" stroke-width="1"></path><path id="Vector_3" stroke="#000000" stroke-linecap="round" stroke-linejoin="round" d="M9.76025 7.27051c1.80055 0 3.26025 -1.45967 3.26025 -3.26026C13.0205 2.20967 11.5608 0.75 9.76025 0.75 7.95967 0.75 6.5 2.20967 6.5 4.01025c0 1.80059 1.45967 3.26026 3.26025 3.26026Z" stroke-width="1"></path><path id="Vector_4" stroke="#000000" stroke-linecap="round" stroke-linejoin="round" d="M9.76025 2.47052v1" stroke-width="1"></path><g id="Group 623"><path id="Vector_5" stroke="#000000" stroke-linecap="round" stroke-linejoin="round" d="M9.76025 5.47998c-0.06903 0 -0.125 -0.05596 -0.125 -0.125 0 -0.06904 0.05597 -0.125 0.125 -0.125" stroke-width="1"></path><path id="Vector_6" stroke="#000000" stroke-linecap="round" stroke-linejoin="round" d="M9.76025 5.47998c0.06904 0 0.125 -0.05596 0.125 -0.125 0 -0.06904 -0.05596 -0.125 -0.125 -0.125" stroke-width="1"></path></g></g></svg>