<svg xmlns="http://www.w3.org/2000/svg" fill="none" viewBox="0 0 14 14"><g id="number-nine-square--number-nine-square-mathematics-equation-text"><path id="Vector" stroke="#000000" stroke-linecap="round" stroke-linejoin="round" d="m1 2 0 10c0 0.5523 0.44772 1 1 1l10 0c0.5523 0 1 -0.4477 1 -1l0 -10c0 -0.55229 -0.4477 -1 -1 -1L2 1c-0.55228 0 -1 0.44772 -1 1Z" stroke-width="1"></path><path id="Vector 2" stroke="#000000" stroke-linecap="round" stroke-linejoin="round" d="M8.99999 5.75001 9 5.5c0 -0.82843 -0.67158 -1.50001 -1.50002 -1.5l-0.99999 0C5.67157 4.00001 5 4.67158 5 5.5l0 0.25001c0 0.82843 0.67158 1.5 1.50001 1.5l0.99999 0c0.82842 -0.00001 1.49999 -0.67158 1.49999 -1.5Z" stroke-width="1"></path><path id="Vector 3" stroke="#000000" stroke-linecap="round" stroke-linejoin="round" d="m9.0001 5.5 0 3.00002c0 0.82842 -0.67158 1.49998 -1.5 1.49998h-1c-0.65311 0 -1.20873 -0.41739 -1.41465 -0.99998" stroke-width="1"></path></g></svg>