<svg xmlns="http://www.w3.org/2000/svg" fill="none" viewBox="0 0 14 14"><g id="number-six-square--number-six-square-mathematics-equation-text"><path id="Vector" stroke="#000000" stroke-linecap="round" stroke-linejoin="round" d="m1 2 0 10c0 0.5523 0.44772 1 1 1l10 0c0.5523 0 1 -0.4477 1 -1l0 -10c0 -0.55229 -0.4477 -1 -1 -1L2 1c-0.55228 0 -1 0.44772 -1 1Z" stroke-width="1"></path><path id="Vector_2" stroke="#000000" stroke-linecap="round" stroke-linejoin="round" d="m5.00001 8.50001 0 -0.25001c0 -0.82842 0.67157 -1.49999 1.49999 -1.49999l1 -0.00001c0.82843 0 1.5 0.67157 1.5 1.5v0.25001C9 9.32843 8.32843 10 7.50001 10l-0.99999 0c-0.82843 0 -1.50001 -0.67156 -1.50001 -1.49999Zm0 0L5 5.5C5 4.67157 5.67157 4 6.5 4h1c0.65311 0 1.20873 0.4174 1.41465 1" stroke-width="1"></path></g></svg>