<svg xmlns="http://www.w3.org/2000/svg" fill="none" viewBox="0 0 14 14"><g id="number-two-square--number-two-square-mathematics-equation-text"><path id="Vector" stroke="#000000" stroke-linecap="round" stroke-linejoin="round" d="m1 2 0 10c0 0.5523 0.44772 1 1 1l10 0c0.5523 0 1 -0.4477 1 -1l0 -10c0 -0.55229 -0.4477 -1 -1 -1L2 1c-0.55228 0 -1 0.44772 -1 1Z" stroke-width="1"></path><path id="Vector 3" stroke="#000000" stroke-linecap="round" stroke-linejoin="round" d="M9 10H5v-0.85232c0 -0.59594 0.35279 -1.13536 0.89877 -1.37423l2.22577 -0.97378C8.65636 6.567 9 6.04157 9 5.46109 9 4.65415 8.34585 4 7.53891 4H6.5c-0.65311 0 -1.20873 0.4174 -1.41465 1" stroke-width="1"></path></g></svg>