<svg xmlns="http://www.w3.org/2000/svg" fill="none" viewBox="0 0 14 14"><g id="number-one-hand"><path id="Vector 2368" stroke="#000000" stroke-linecap="round" stroke-linejoin="round" d="m3 13.5 -0.61926 -4.02517c-0.21193 -1.37757 0.71153 -2.67342 2.08282 -2.92275L7.5 6l0 -4c0 -0.82843 0.67157 -1.5 1.5 -1.5v0c0.82843 0 1.5 0.67157 1.5 1.5l0 6v0c1.2591 0 2.1735 1.19721 1.8422 2.4119L11.5 13.5" stroke-width="1"></path><path id="Vector 2371" stroke="#000000" stroke-linecap="round" stroke-linejoin="round" d="M10.5 8H7.75c-0.69036 0 -1.25 0.55964 -1.25 1.25v0c0 0.69036 0.55964 1.25 1.25 1.25H9c-0.96739 -0.0107 -2.5 0.2845 -2.5 2" stroke-width="1"></path></g></svg>