<svg xmlns="http://www.w3.org/2000/svg" fill="none" viewBox="0 0 14 14"><g id="number-four-square--number-four-square-mathematics-equation-text"><path id="Vector" stroke="#000000" stroke-linecap="round" stroke-linejoin="round" d="m1 2 0 10c0 0.5523 0.44772 1 1 1l10 0c0.5523 0 1 -0.4477 1 -1l0 -10c0 -0.55229 -0.4477 -1 -1 -1L2 1c-0.55228 0 -1 0.44772 -1 1Z" stroke-width="1"></path><path id="Vector 7" stroke="#000000" stroke-linecap="round" stroke-linejoin="round" d="M9.5 8.5H4.86344C4.66272 8.5 4.5 8.33728 4.5 8.13656v0c0 -0.08804 0.03195 -0.17308 0.08992 -0.23933l3.30731 -3.77978C7.96254 4.04281 8.05689 4 8.15607 4v0c0.18995 0 0.34393 0.15398 0.34393 0.34393v5.65605" stroke-width="1"></path></g></svg>