<svg xmlns="http://www.w3.org/2000/svg" fill="none" viewBox="0 0 14 14"><g id="number"><path id="Vector" stroke="#000000" stroke-linecap="round" stroke-linejoin="round" d="M8.73779 8.66666c0.1716 0.4855 0.63462 0.83334 1.17888 0.83334l0.83333 0c0.6903 -0.00001 1.25 -0.55965 1.25 -1.25l0 -0.20834c0 -0.69035 -0.5597 -1.25 -1.25 -1.25l-0.4167 0h0.3125c0.6329 0 1.1459 -0.513 1.1459 -1.14583 0 -0.63283 -0.513 -1.14584 -1.1459 -1.14583l-0.625 0.00001c-0.52446 0 -0.96663 0.35239 -1.10266 0.83332" stroke-width="1"></path><path id="Vector 4" stroke="#000000" stroke-linecap="round" stroke-linejoin="round" d="M5.33333 13.5H2v-0.7103c0 -0.4966 0.29399 -0.9461 0.74898 -1.1452l1.85481 -0.8114c0.44318 -0.1939 0.72954 -0.6318 0.72954 -1.11553 0 -0.67244 -0.54512 -1.21757 -1.21757 -1.21757H3.25c-0.54426 0 -1.00727 0.34784 -1.17887 0.83333" stroke-width="1"></path><path id="Vector 2" stroke="#000000" stroke-linecap="round" stroke-linejoin="round" d="m4.5 0.5 0 4.99999" stroke-width="1"></path><path id="Vector 3" stroke="#000000" stroke-linecap="round" stroke-linejoin="round" d="M3 2v0c0.82843 0 1.5 -0.67157 1.5 -1.5v0" stroke-width="1"></path><path id="Vector 1" stroke="#000000" stroke-linecap="round" stroke-linejoin="round" d="m6 5.5 -3 0" stroke-width="1"></path></g></svg>