<svg xmlns="http://www.w3.org/2000/svg" fill="none" viewBox="0 0 14 14"><g id="number-eight-square--number-eight-square-mathematics-equation-text"><path id="Vector" stroke="#000000" stroke-linecap="round" stroke-linejoin="round" d="m1 2 0 10c0 0.5523 0.44772 1 1 1l10 0c0.5523 0 1 -0.4477 1 -1l0 -10c0 -0.55229 -0.4477 -1 -1 -1L2 1c-0.55228 0 -1 0.44772 -1 1Z" stroke-width="1"></path><path id="Vector 2" stroke="#000000" stroke-linecap="round" stroke-linejoin="round" d="m6.625 6.75 0.75 0c0.75939 0 1.375 -0.61561 1.375 -1.375 0 -0.7594 -0.61562 -1.37501 -1.37501 -1.375l-0.75001 0.00001C5.8656 4.00001 5.25 4.61562 5.25 5.375c0 0.75939 0.61561 1.375 1.375 1.375Z" stroke-width="1"></path><path id="Vector 2_2" stroke="#000000" stroke-linecap="round" stroke-linejoin="round" d="m9 8.49999 0 -0.25c0 -0.82843 -0.67157 -1.50001 -1.5 -1.50001l-0.99999 0C5.67158 6.74998 5 7.42156 5 8.24999L5 8.5c0 0.82842 0.67158 1.5 1.50001 1.5L7.5 9.99999c0.82843 0 1.5 -0.67157 1.5 -1.5Z" stroke-width="1"></path></g></svg>