<svg xmlns="http://www.w3.org/2000/svg" fill="none" viewBox="0 0 14 14"><g id="nursery-1"><path id="Ellipse 224" stroke="#000000" stroke-linecap="round" stroke-linejoin="round" d="M5 2.5a2 2 0 1 0 4 0 2 2 0 1 0 -4 0" stroke-width="1"></path><path id="Vector 1205" stroke="#000000" stroke-linecap="round" stroke-linejoin="round" d="m1.90671 5.98188 1.67099 -0.95485C4.18209 4.68166 4.86615 4.5 5.56226 4.5h2.87548c0.69611 0 1.38017 0.18166 1.98456 0.52703l1.671 0.95485c0.5087 0.29068 0.7017 0.92814 0.4397 1.45218 -0.2876 0.57505 -1.0037 0.78371 -1.5551 0.45309L9.49831 7v2l1.48689 1.4857c0.3297 0.3294 0.5158 0.7759 0.5176 1.242l0.002 0.515c0.0027 0.6936 -0.5588 1.2573 -1.2524 1.2573C9.56073 13.5 9 12.9393 9 12.2476V11.5l-1 -1H6l-1 1v0.75c0 0.6904 -0.55964 1.25 -1.25 1.25s-1.25 -0.5596 -1.25 -1.25v-0.5178c0 -0.4688 0.18625 -0.9184 0.51777 -1.25L4.5 9l0.00169 -2 -1.47958 0.88715c-0.5514 0.33062 -1.26756 0.12196 -1.55508 -0.45309 -0.26202 -0.52404 -0.06902 -1.1615 0.43968 -1.45218Z" stroke-width="1"></path><path id="Vector 1201" stroke="#000000" stroke-linecap="round" stroke-linejoin="round" d="M4.5 8h5" stroke-width="1"></path><path id="Vector 1202" stroke="#000000" stroke-linecap="round" stroke-linejoin="round" d="M4.5 8.99994 6.00002 10.5" stroke-width="1"></path><path id="Vector 1204" stroke="#000000" stroke-linecap="round" stroke-linejoin="round" d="m9.50003 8.99998 -1.5 1.50002" stroke-width="1"></path></g></svg>