<svg xmlns="http://www.w3.org/2000/svg" fill="none" viewBox="0 0 14 14"><g id="office-building-1--office-building-work"><path id="Vector" stroke="#000000" stroke-linecap="round" stroke-linejoin="round" d="M8.46128 4.75V1.59431c0 -0.56088 -0.45467 -1.015575 -1.01557 -1.015575H2.65523c-0.56089 0 -1.01558 0.454695 -1.01558 1.015575V13.4211" stroke-width="1"></path><path id="Vector_2" stroke="#000000" stroke-linecap="round" stroke-linejoin="round" d="M0.518555 13.4213H5.4873" stroke-width="1"></path><path id="Vector_3" stroke="#000000" stroke-linecap="round" stroke-linejoin="round" d="m1.63965 3.18689 2.46012 0" stroke-width="1"></path><path id="Vector_4" stroke="#000000" stroke-linecap="round" stroke-linejoin="round" d="m1.63965 5.74939 3.84765 0" stroke-width="1"></path><path id="Vector_5" stroke="#000000" stroke-linecap="round" stroke-linejoin="round" d="M10.4804 10.0319c0.9667 0 1.7503 -0.78367 1.7503 -1.75037s-0.7836 -1.75036 -1.7503 -1.75036c-0.96673 0 -1.7504 0.78366 -1.7504 1.75036 0 0.9667 0.78367 1.75037 1.7504 1.75037Z" stroke-width="1"></path><path id="Vector_6" stroke="#000000" stroke-linecap="round" stroke-linejoin="round" d="M7.47864 13.4209c0.00531 -0.5118 0.1394 -1.0138 0.38974 -1.4593 0.52756 -0.9388 1.54077 -1.535 2.61202 -1.5373 1.0712 0.0023 2.0844 0.5985 2.612 1.5373 0.2503 0.4455 0.3844 0.9475 0.3897 1.4593" stroke-width="1"></path></g></svg>