<svg xmlns="http://www.w3.org/2000/svg" fill="none" viewBox="0 0 14 14"><g id="binoculars--binocular-binoculars-view-zoom"><path id="Vector" stroke="#000000" stroke-linecap="round" stroke-linejoin="round" d="M3.5 13C4.88071 13 6 11.8807 6 10.5 6 9.11929 4.88071 8 3.5 8S1 9.11929 1 10.5C1 11.8807 2.11929 13 3.5 13Z" stroke-width="1"></path><path id="Vector 3955" stroke="#000000" stroke-linecap="round" stroke-linejoin="round" d="M1 10.5v-0.2805c0 -0.1459 0.01597 -0.29137 0.04763 -0.43382l1.77835 -8.00261C2.92766 1.32553 3.33347 1 3.80217 1H5c0.55228 0 1 0.44772 1 1v1.5" stroke-width="1"></path><path id="Vector 3956" stroke="#000000" stroke-linecap="round" stroke-linejoin="round" d="M13 10.5v-0.2805c0 -0.1459 -0.016 -0.29137 -0.0476 -0.43382L11.174 1.78307C11.0723 1.32553 10.6665 1 10.1978 1H9c-0.55228 0 -1 0.44772 -1 1v1.5" stroke-width="1"></path><path id="Vector_2" stroke="#000000" stroke-linecap="round" stroke-linejoin="round" d="M4.5 5.5h5" stroke-width="1"></path><path id="Vector_3" stroke="#000000" stroke-linecap="round" stroke-linejoin="round" d="M6 7.5v3" stroke-width="1"></path><path id="Vector_4" stroke="#000000" stroke-linecap="round" stroke-linejoin="round" d="M10.5 13c1.3807 0 2.5 -1.1193 2.5 -2.5C13 9.11929 11.8807 8 10.5 8 9.11929 8 8 9.11929 8 10.5c0 1.3807 1.11929 2.5 2.5 2.5Z" stroke-width="1"></path><path id="Vector_5" stroke="#000000" stroke-linecap="round" stroke-linejoin="round" d="M8 7.5v3" stroke-width="1"></path></g></svg>