<svg xmlns="http://www.w3.org/2000/svg" fill="none" viewBox="0 0 14 14"><g id="padlock-key--combination-combo-key-keyhole-lock-secure-security-square-unlock-unlocked"><path id="Vector" stroke="#000000" stroke-linecap="round" stroke-linejoin="round" d="M11.7901 12.5H12.5c0.2652 0 0.5196 -0.1054 0.7071 -0.2929s0.2929 -0.4419 0.2929 -0.7071v-5c0 -0.26522 -0.1054 -0.51957 -0.2929 -0.70711C13.0196 5.60536 12.7652 5.5 12.5 5.5h-7c-0.26522 0 -0.51957 0.10536 -0.70711 0.29289C4.60536 5.98043 4.5 6.23478 4.5 6.5l0 1.28384" stroke-width="1"></path><path id="Vector_2" stroke="#000000" stroke-linecap="round" stroke-linejoin="round" d="M5.5 5.5V4c0 -0.92826 0.36875 -1.8185 1.02513 -2.47487C7.1815 0.868749 8.07174 0.5 9 0.5c0.92826 0 1.8185 0.368749 2.4749 1.02513C12.1313 2.1815 12.5 3.07174 12.5 4v1.5" stroke-width="1"></path><path id="Vector_3" stroke="#000000" stroke-linecap="round" stroke-linejoin="round" d="M2.5 13.5c1.10457 0 2 -0.8954 2 -2s-0.89543 -2 -2 -2 -2 0.8954 -2 2 0.89543 2 2 2Z" stroke-width="1"></path><path id="Vector_4" stroke="#000000" stroke-linecap="round" stroke-linejoin="round" d="M4.5 11.5h5v2" stroke-width="1"></path><path id="Vector_5" stroke="#000000" stroke-linecap="round" stroke-linejoin="round" d="M7 11.5v2" stroke-width="1"></path></g></svg>