<svg xmlns="http://www.w3.org/2000/svg" fill="none" viewBox="0 0 14 14"><g id="padlock-square-2--combination-combo-key-keyhole-lock-secure-security-square-unlock-unlocked"><path id="Vector" stroke="#000000" stroke-linecap="round" stroke-linejoin="round" d="M11.5 5.5h-9c-0.55228 0 -1 0.44772 -1 1v6c0 0.5523 0.44772 1 1 1h9c0.5523 0 1 -0.4477 1 -1v-6c0 -0.55228 -0.4477 -1 -1 -1Z" stroke-width="1"></path><path id="Vector_2" stroke="#000000" stroke-linecap="round" stroke-linejoin="round" d="M9.47 1.53003c-0.32201 -0.32799 -0.7065 -0.588126 -1.13073 -0.765034C7.91503 0.588087 7.45964 0.497993 7 0.500034c-0.92826 0 -1.8185 0.368749 -2.47487 1.025126C3.86875 2.18154 3.5 3.07178 3.5 4.00003v1.5" stroke-width="1"></path><path id="Vector_3" stroke="#000000" stroke-linecap="round" stroke-linejoin="round" d="M7 10c0.27614 0 0.5 -0.22386 0.5 -0.5S7.27614 9 7 9s-0.5 0.22386 -0.5 0.5 0.22386 0.5 0.5 0.5Z" stroke-width="1"></path></g></svg>