<svg xmlns="http://www.w3.org/2000/svg" fill="none" viewBox="0 0 14 14"><g id="padlock-circle-2--combination-combo-lock-unlocked-padlock-secure-security-shield-keyhole"><path id="Vector" stroke="#000000" stroke-linecap="round" stroke-linejoin="round" d="M7 9.5c0.27614 0 0.5 -0.22386 0.5 -0.5s-0.22386 -0.5 -0.5 -0.5 -0.5 0.22386 -0.5 0.5 0.22386 0.5 0.5 0.5Z" stroke-width="1"></path><path id="Vector_2" stroke="#000000" stroke-linecap="round" stroke-linejoin="round" d="M7 13.5c2.48528 0 4.5 -2.0147 4.5 -4.5 0 -2.48528 -2.01472 -4.5 -4.5 -4.5S2.5 6.51472 2.5 9c0 2.4853 2.01472 4.5 4.5 4.5Z" stroke-width="1"></path><path id="Vector_3" stroke="#000000" stroke-linecap="round" stroke-linejoin="round" d="M10.32 1.68c-0.1577 -0.3509 -0.41333 -0.64886 -0.73614 -0.858154C9.26105 0.61255 8.88472 0.500803 8.5 0.5h-3c-0.53043 0 -1.03914 0.210714 -1.41421 0.58579C3.71071 1.46086 3.5 1.96957 3.5 2.5v3.67" stroke-width="1"></path></g></svg>