<svg xmlns="http://www.w3.org/2000/svg" fill="none" viewBox="0 0 14 14"><g id="painting-board--painting-board-museum-event-hobby-exhibit-travel-places"><path id="Vector 4742" stroke="#000000" stroke-linecap="round" stroke-linejoin="round" d="M12 6.625 9.65175 4.57029c-0.37411 -0.32735 -0.93187 -0.33019 -1.3093 -0.00668L3.16666 9" stroke-width="1"></path><path id="Vector" stroke="#000000" stroke-linecap="round" stroke-linejoin="round" d="M4.75 4.75c0.55228 0 1 -0.44772 1 -1s-0.44772 -1 -1 -1 -1 0.44772 -1 1 0.44772 1 1 1Z" stroke-width="1"></path><path id="Vector 4743" stroke="#000000" stroke-linecap="round" stroke-linejoin="round" d="M11 1H3c-0.55228 0 -1 0.44772 -1 1v7h10V2c0 -0.55228 -0.4477 -1 -1 -1Z" stroke-width="1"></path><path id="Vector 4752" stroke="#000000" stroke-linecap="round" stroke-linejoin="round" d="M1 9h12" stroke-width="1"></path><path id="Vector 4753" stroke="#000000" stroke-linecap="round" stroke-linejoin="round" d="M7 9v4" stroke-width="1"></path><path id="Vector 4754" stroke="#000000" stroke-linecap="round" stroke-linejoin="round" d="m5.5 9 -3 4" stroke-width="1"></path><path id="Vector 4755" stroke="#000000" stroke-linecap="round" stroke-linejoin="round" d="m8.5 9 3 4" stroke-width="1"></path></g></svg>