<svg xmlns="http://www.w3.org/2000/svg" fill="none" viewBox="0 0 14 14"><g id="panel-expansion"><path id="Rectangle 583" stroke="#000000" stroke-linecap="round" stroke-linejoin="round" d="M1 2.00015c0 -0.55228 0.44772 -1 1 -1h3c0.55228 0 1 0.44772 1 1v3c0 0.55229 -0.44772 1 -1 1H2c-0.55228 0 -1 -0.44771 -1 -1v-3Z" stroke-width="1"></path><path id="Rectangle 584" stroke="#000000" stroke-linecap="round" stroke-linejoin="round" d="M8 2.00009c0 -0.55228 0.44772 -1 1 -1h3c0.5523 0 1 0.44772 1 1V12c0 0.5523 -0.4477 1 -1 1H9c-0.55228 0 -1 -0.4477 -1 -1V2.00009Z" stroke-width="1"></path></g></svg>