<svg xmlns="http://www.w3.org/2000/svg" fill="none" viewBox="0 0 14 14"><g id="paperclip-2--attachment-link-paperclip-unlink"><path id="Vector" stroke="#000000" stroke-linecap="round" stroke-linejoin="round" d="M11 11.5V3c0 -0.66304 -0.2634 -1.29893 -0.7322 -1.76777C9.79893 0.763392 9.16304 0.5 8.5 0.5h-3c-0.66304 0 -1.29893 0.263392 -1.76777 0.73223C3.26339 1.70107 3 2.33696 3 3v8.5c0 0.5304 0.21071 1.0391 0.58579 1.4142 0.37507 0.3751 0.88378 0.5858 1.41421 0.5858h1.5c0.53043 0 1.03914 -0.2107 1.41421 -0.5858 0.37508 -0.3751 0.58579 -0.8838 0.58579 -1.4142V4c0 -0.26522 -0.10536 -0.51957 -0.29289 -0.70711C8.01957 3.10536 7.76522 3 7.5 3h-1c-0.26522 0 -0.51957 0.10536 -0.70711 0.29289C5.60536 3.48043 5.5 3.73478 5.5 4v5.5" stroke-width="1"></path></g></svg>