<svg xmlns="http://www.w3.org/2000/svg" fill="none" viewBox="0 0 14 14"><g id="park--bench-relax-location-outdoor-recreation-travel-places"><path id="Vector" stroke="#000000" stroke-linecap="round" stroke-linejoin="round" d="M13 7.5H1c-0.276142 0 -0.5 0.22386 -0.5 0.5v2c0 0.2761 0.223858 0.5 0.5 0.5h12c0.2761 0 0.5 -0.2239 0.5 -0.5V8c0 -0.27614 -0.2239 -0.5 -0.5 -0.5Z" stroke-width="1"></path><path id="Vector_2" stroke="#000000" stroke-linecap="round" stroke-linejoin="round" d="M12 1.5H2c-0.27614 0 -0.5 0.22386 -0.5 0.5v2c0 0.27614 0.22386 0.5 0.5 0.5h10c0.2761 0 0.5 -0.22386 0.5 -0.5V2c0 -0.27614 -0.2239 -0.5 -0.5 -0.5Z" stroke-width="1"></path><path id="Vector_3" stroke="#000000" stroke-linecap="round" stroke-linejoin="round" d="m1.5 10.5 0 2.5" stroke-width="1"></path><path id="Vector_4" stroke="#000000" stroke-linecap="round" stroke-linejoin="round" d="m12.5 10.5 0 2.5" stroke-width="1"></path><path id="Vector_5" stroke="#000000" stroke-linecap="round" stroke-linejoin="round" d="m3 4.5 0 3" stroke-width="1"></path><path id="Vector_6" stroke="#000000" stroke-linecap="round" stroke-linejoin="round" d="m11 4.5 0 3" stroke-width="1"></path></g></svg>