<svg xmlns="http://www.w3.org/2000/svg" fill="none" viewBox="0 0 14 14"><g id="party-mask--party-mask-funny-glasses-moustache"><path id="Ellipse 1635" stroke="#000000" stroke-linecap="round" stroke-linejoin="round" d="M0.5 3.25a2.75 2.75 0 1 0 5.5 0 2.75 2.75 0 1 0 -5.5 0" stroke-width="1"></path><path id="Ellipse 1636" stroke="#000000" stroke-linecap="round" stroke-linejoin="round" d="M8 3.25a2.75 2.75 0 1 0 5.5 0 2.75 2.75 0 1 0 -5.5 0" stroke-width="1"></path><path id="Vector 3110" stroke="#000000" stroke-linecap="round" stroke-linejoin="round" d="M7 3.25c1.18764 0 1.67431 2.7653 1.87079 4.756C8.9786 9.09827 8.09758 10 7 10s-1.9786 -0.90173 -1.87079 -1.994C5.32569 6.0153 5.81236 3.25 7 3.25Z" stroke-width="1"></path><path id="Vector 3111" stroke="#000000" stroke-linecap="round" stroke-linejoin="round" d="M4 10c0 1.5 -2 2 -3.5 0.5 0 1 0.7 3 3.5 3 1.5 0 3 -1 3 -1.5 0 0.5 1.5 1.5 3 1.5 2.8 0 3.5 -2 3.5 -3C12 12 10 11.5 10 10" stroke-width="1"></path></g></svg>