<svg xmlns="http://www.w3.org/2000/svg" fill="none" viewBox="0 0 14 14"><g id="partnerships-for-the-goals"><path id="Ellipse 1949" stroke="#000000" stroke-linecap="round" stroke-linejoin="round" d="M7 1C5.067 1 3.5 2.567 3.5 4.5c0 0.97934 0.40223 1.86474 1.05051 2.5h4.89898C10.0978 6.36474 10.5 5.47934 10.5 4.5 10.5 2.567 8.933 1 7 1Z" stroke-width="1"></path><path id="Ellipse 1950" stroke="#000000" stroke-linecap="round" stroke-linejoin="round" d="M7 13c1.933 0 3.5 -1.567 3.5 -3.5 0 -0.97934 -0.4022 -1.86474 -1.05051 -2.5H4.55051C3.90223 7.63526 3.5 8.52066 3.5 9.5 3.5 11.433 5.067 13 7 13Z" stroke-width="1"></path><path id="Ellipse 1951" stroke="#000000" stroke-linecap="round" stroke-linejoin="round" d="M9.5 10.5c1.933 0 3.5 -1.567 3.5 -3.5s-1.567 -3.5 -3.5 -3.5c-0.97934 0 -1.86474 0.40223 -2.5 1.05051v4.89898C7.63526 10.0978 8.52066 10.5 9.5 10.5Z" stroke-width="1"></path><path id="Ellipse 1952" stroke="#000000" stroke-linecap="round" stroke-linejoin="round" d="M1 7c0 1.933 1.567 3.5 3.5 3.5 0.97934 0 1.86474 -0.4022 2.5 -1.05051V4.55051C6.36474 3.90223 5.47934 3.5 4.5 3.5 2.567 3.5 1 5.067 1 7Z" stroke-width="1"></path></g></svg>