<svg xmlns="http://www.w3.org/2000/svg" fill="none" viewBox="0 0 14 14"><g id="password-lock--circle-dots-lock-login-padlock-password-secure-security-textbox-type"><g id="Group 2674"><path id="Ellipse 1113" stroke="#000000" stroke-linecap="round" stroke-linejoin="round" d="M3.5 4.75c-0.13807 0 -0.25 -0.11193 -0.25 -0.25s0.11193 -0.25 0.25 -0.25" stroke-width="1"></path><path id="Ellipse 1114" stroke="#000000" stroke-linecap="round" stroke-linejoin="round" d="M3.5 4.75c0.13807 0 0.25 -0.11193 0.25 -0.25s-0.11193 -0.25 -0.25 -0.25" stroke-width="1"></path></g><g id="Group 2676"><path id="Ellipse 1115" stroke="#000000" stroke-linecap="round" stroke-linejoin="round" d="M8.5 4.75c-0.13807 0 -0.25 -0.11193 -0.25 -0.25s0.11193 -0.25 0.25 -0.25" stroke-width="1"></path><path id="Ellipse 1116" stroke="#000000" stroke-linecap="round" stroke-linejoin="round" d="M8.5 4.75c0.13807 0 0.25 -0.11193 0.25 -0.25s-0.11193 -0.25 -0.25 -0.25" stroke-width="1"></path></g><g id="Group 2675"><path id="Ellipse 1111" stroke="#000000" stroke-linecap="round" stroke-linejoin="round" d="M6 4.75c-0.13807 0 -0.25 -0.11193 -0.25 -0.25s0.11193 -0.25 0.25 -0.25" stroke-width="1"></path><path id="Ellipse 1112" stroke="#000000" stroke-linecap="round" stroke-linejoin="round" d="M6 4.75c0.13807 0 0.25 -0.11193 0.25 -0.25s-0.11193 -0.25 -0.25 -0.25" stroke-width="1"></path></g><path id="Vector 3864" stroke="#000000" stroke-linecap="round" stroke-linejoin="round" d="M9.25 9V7.75C9.25 6.7835 10.0335 6 11 6v0c0.9665 0 1.75 0.7835 1.75 1.75V9" stroke-width="1"></path><path id="Vector 3865" stroke="#000000" stroke-linecap="round" stroke-linejoin="round" d="M8.5 12V9.5c0 -0.27614 0.22386 -0.5 0.5 -0.5h4c0.2761 0 0.5 0.22386 0.5 0.5V12c0 0.2761 -0.2239 0.5 -0.5 0.5H9c-0.27614 0 -0.5 -0.2239 -0.5 -0.5Z" stroke-width="1"></path><path id="Rectangle 1696" stroke="#000000" stroke-linecap="round" stroke-linejoin="round" d="M11.5 3.90625V2.5c0 -0.55228 -0.4477 -1 -1 -1h-9c-0.552285 0 -1 0.44772 -1 1v4c0 0.55228 0.447715 1 1 1h5.625" stroke-width="1"></path></g></svg>