<svg xmlns="http://www.w3.org/2000/svg" fill="none" viewBox="0 0 14 14"><g id="passport-globe--international-travel-book-id-adventure-visa-airport"><path id="Vector 4706" stroke="#000000" stroke-linecap="round" stroke-linejoin="round" d="M6 6.5H1c-0.276142 0 -0.5 0.22386 -0.5 0.5v6c0 0.2761 0.223858 0.5 0.5 0.5h5c0.27614 0 0.5 -0.2239 0.5 -0.5V7c0 -0.27614 -0.22386 -0.5 -0.5 -0.5Z" stroke-width="1"></path><path id="Vector" stroke="#000000" stroke-linecap="round" stroke-linejoin="round" d="M3.5 10c0.27614 0 0.5 -0.22386 0.5 -0.5S3.77614 9 3.5 9s-0.5 0.22386 -0.5 0.5 0.22386 0.5 0.5 0.5Z" stroke-width="1"></path><path id="Vector_2" stroke="#000000" stroke-linecap="round" stroke-linejoin="round" d="M13.0769 8.11539h-1.4807c-0.3928 0 -0.7694 -0.15601 -1.0471 -0.43371 -0.2777 -0.2777 -0.4337 -0.65434 -0.4337 -1.04706V5.36539c0 -0.39273 -0.15603 -0.76937 -0.43373 -1.04706 -0.27769 -0.2777 -0.65433 -0.43371 -1.04706 -0.43371 -0.39272 0 -0.76936 -0.15601 -1.04706 -0.43371 -0.2777 -0.2777 -0.43371 -0.65434 -0.43371 -1.04706V0.559235" stroke-width="1"></path><path id="Vector_3" stroke="#000000" stroke-linecap="round" stroke-linejoin="round" d="M2.76653 4.30378C3.48149 2.09628 5.55433 0.5 8 0.5c3.0376 0 5.5 2.46243 5.5 5.5 0 2.79006 -2.0775 5.0949 -4.76995 5.452" stroke-width="1"></path></g></svg>