<svg xmlns="http://www.w3.org/2000/svg" fill="none" viewBox="0 0 14 14"><g id="pathfinder-circle-minus-front-2"><path id="Ellipse 1778" stroke="#000000" stroke-linecap="round" stroke-linejoin="round" d="M6 9.97266C5.83583 9.9908 5.669 10 5.5 10 3.01472 10 1 7.98528 1 5.5S3.01472 1 5.5 1 10 3.01472 10 5.5c0 0.169 -0.00932 0.33583 -0.02747 0.5" stroke-width="1"></path><path id="Ellipse 1780" stroke="#000000" stroke-linecap="round" stroke-linejoin="round" d="M9 12.9727c-0.16417 0.0181 -0.331 0.0274 -0.5 0.0274 -0.169 0 -0.33583 -0.0093 -0.5 -0.0274" stroke-width="1"></path><path id="Ellipse 1785" stroke="#000000" stroke-linecap="round" stroke-linejoin="round" d="M12.9727 8c0.0181 0.16417 0.0274 0.331 0.0274 0.5 0 0.169 -0.0093 0.33583 -0.0274 0.5" stroke-width="1"></path><path id="Ellipse 1781" stroke="#000000" stroke-linecap="round" stroke-linejoin="round" d="M12.0162 11.3086c-0.1033 0.1289 -0.2146 0.2535 -0.3341 0.373 -0.1196 0.1195 -0.2441 0.2308 -0.373 0.3341" stroke-width="1"></path><path id="Ellipse 1784" stroke="#000000" stroke-linecap="round" stroke-linejoin="round" d="M5.69099 12.0157c-0.12891 -0.1033 -0.25347 -0.2146 -0.37297 -0.3341 -0.1195 -0.1195 -0.23088 -0.2441 -0.33413 -0.373" stroke-width="1"></path><path id="Ellipse 1782" stroke="#000000" stroke-linecap="round" stroke-linejoin="round" d="M11.3091 4.9834c0.1289 0.10325 0.2535 0.21463 0.373 0.33413 0.1195 0.11951 0.2308 0.24406 0.3341 0.37298" stroke-width="1"></path><path id="Vector" stroke="#000000" stroke-linecap="round" stroke-linejoin="round" d="M9.01619 8.30859c-0.10326 0.12892 -0.21463 0.25347 -0.33414 0.37298 -0.1195 0.1195 -0.24405 0.23088 -0.37297 0.33413" stroke-width="1"></path></g></svg>