<svg xmlns="http://www.w3.org/2000/svg" fill="none" viewBox="0 0 14 14"><g id="pathfinder-circle-minus-front-1"><path id="Ellipse 1780" stroke="#000000" stroke-linecap="round" stroke-linejoin="round" d="M9 12.9725c-0.16417 0.0182 -0.331 0.0275 -0.5 0.0275 -0.169 0 -0.33583 -0.0093 -0.5 -0.0275" stroke-width="1"></path><path id="Ellipse 1785" stroke="#000000" stroke-linecap="round" stroke-linejoin="round" d="M12.9727 8c0.0181 0.16417 0.0274 0.331 0.0274 0.5 0 0.169 -0.0093 0.33583 -0.0274 0.5" stroke-width="1"></path><path id="Ellipse 1786" stroke="#000000" stroke-linecap="round" stroke-linejoin="round" d="M8 4.02746C8.16417 4.00932 8.331 4 8.5 4c0.169 0 0.33583 0.00932 0.5 0.02746" stroke-width="1"></path><path id="Ellipse 1787" stroke="#000000" stroke-linecap="round" stroke-linejoin="round" d="M4.02746 8.99999C4.00932 8.83583 4 8.669 4 8.5c0 -0.16901 0.00932 -0.33583 0.02746 -0.5" stroke-width="1"></path><path id="Ellipse 1781" stroke="#000000" stroke-linecap="round" stroke-linejoin="round" d="M12.0162 11.309c-0.1033 0.1289 -0.2146 0.2534 -0.3341 0.3729 -0.1196 0.1195 -0.2441 0.2309 -0.373 0.3342" stroke-width="1"></path><path id="Ellipse 1784" stroke="#000000" stroke-linecap="round" stroke-linejoin="round" d="M5.69099 12.0157c-0.12891 -0.1033 -0.25347 -0.2146 -0.37297 -0.3341 -0.1195 -0.1195 -0.23088 -0.2441 -0.33413 -0.373" stroke-width="1"></path><path id="Ellipse 1782" stroke="#000000" stroke-linecap="round" stroke-linejoin="round" d="M11.3091 4.9834c0.1289 0.10325 0.2535 0.21463 0.373 0.33413 0.1195 0.11951 0.2308 0.24406 0.3341 0.37298" stroke-width="1"></path><path id="Ellipse 1783" stroke="#000000" stroke-linecap="round" stroke-linejoin="round" d="M4.98389 5.6905c0.10325 -0.12892 0.21462 -0.25347 0.33413 -0.37297 0.1195 -0.1195 0.24405 -0.23088 0.37297 -0.33413" stroke-width="1"></path><path id="Vector" stroke="#000000" stroke-linecap="round" stroke-linejoin="round" d="M4.1928 9.8072C2.34504 9.24715 1 7.53065 1 5.5 1 3.01472 3.01472 1 5.5 1c2.03065 0 3.74715 1.34504 4.3072 3.1928" stroke-width="1"></path></g></svg>