<svg xmlns="http://www.w3.org/2000/svg" fill="none" viewBox="0 0 14 14"><g id="pathfinder-circle-outline"><path id="Intersect" stroke="#000000" stroke-linecap="round" stroke-linejoin="round" d="M5.25 9.5c2.34721 0 4.25 -1.90279 4.25 -4.25 0 -0.23622 -0.01927 -0.46794 -0.05633 -0.69367C9.21794 4.51927 8.98622 4.5 8.75 4.5 6.40279 4.5 4.5 6.40279 4.5 8.75c0 0.23622 0.01927 0.46794 0.05633 0.69367 0.22573 0.03706 0.45745 0.05633 0.69367 0.05633Z" stroke-width="1"></path><path id="Union" stroke="#000000" stroke-linecap="round" stroke-linejoin="round" d="M10.9997 4.75781c1.206 0.80726 2.0001 2.18202 2.0001 3.74223C12.9998 10.9853 10.985 13 8.49976 13c-1.56003 0 -2.93465 -0.7938 -3.74195 -1.9995" stroke-width="1"></path><path id="Union_2" stroke="#000000" stroke-linecap="round" stroke-linejoin="round" d="M3.00025 9.24219c-1.20599 -0.80726 -2.00001 -2.18202 -2.00001 -3.74223 0 -2.48528 2.01472 -4.500003 4.5 -4.500003 1.56003 0 2.93465 0.793833 3.74195 1.999583" stroke-width="1"></path></g></svg>