<svg xmlns="http://www.w3.org/2000/svg" fill="none" viewBox="0 0 14 14"><g id="pathfinder-circle-exclude"><path id="Union" stroke="#000000" stroke-linecap="round" stroke-linejoin="round" d="M4.1928 9.8072C2.34504 9.24715 1 7.53065 1 5.5 1 3.01472 3.01472 1 5.5 1c2.03065 0 3.74715 1.34504 4.3072 3.1928C11.655 4.75285 13 6.46935 13 8.5c0 2.4853 -2.0147 4.5 -4.5 4.5 -2.03065 0 -3.74715 -1.345 -4.3072 -3.1928Z" stroke-width="1"></path><path id="Intersect" stroke="#000000" stroke-linecap="round" stroke-linejoin="round" d="M8 4.56597c0.24346 -0.04335 0.49409 -0.06597 0.75 -0.06597 0.23622 0 0.46794 0.01927 0.69367 0.05633 0.03706 0.22573 0.05633 0.45745 0.05633 0.69367 0 0.25591 -0.02262 0.50654 -0.06597 0.75" stroke-width="1"></path><path id="Intersect_2" stroke="#000000" stroke-linecap="round" stroke-linejoin="round" d="M8.75002 7.66113c-0.2937 0.42544 -0.66296 0.7947 -1.0884 1.0884" stroke-width="1"></path><path id="Intersect_3" stroke="#000000" stroke-linecap="round" stroke-linejoin="round" d="M6.3384 5.25c-0.42544 0.2937 -0.7947 0.66296 -1.0884 1.0884" stroke-width="1"></path><path id="Intersect_4" stroke="#000000" stroke-linecap="round" stroke-linejoin="round" d="M4.56597 8c-0.04335 0.24346 -0.06597 0.49409 -0.06597 0.75 0 0.23622 0.01927 0.46794 0.05633 0.69367 0.22573 0.03706 0.45745 0.05633 0.69367 0.05633 0.25591 0 0.50654 -0.02262 0.75 -0.06597" stroke-width="1"></path></g></svg>