<svg width="14" height="14" viewBox="0 0 14 14" fill="none" xmlns="http://www.w3.org/2000/svg">
<path d="M9.5 2.5V1.5C9.5 1.23478 9.39464 0.98043 9.20711 0.792893C9.01957 0.605357 8.76522 0.5 8.5 0.5H1.5C1.23478 0.5 0.98043 0.605357 0.792893 0.792893C0.605357 0.98043 0.5 1.23478 0.5 1.5V8.5C0.5 8.76522 0.605357 9.01957 0.792893 9.20711C0.98043 9.39464 1.23478 9.5 1.5 9.5H2.5" stroke="#01040B" stroke-linecap="round" stroke-linejoin="round"/>
<path d="M11.5 4.5H12.5C12.7652 4.5 13.0196 4.60536 13.2071 4.79289C13.3946 4.98043 13.5 5.23478 13.5 5.5V12.5C13.5 12.7652 13.3946 13.0196 13.2071 13.2071C13.0196 13.3946 12.7652 13.5 12.5 13.5H5.5C5.23478 13.5 4.98043 13.3946 4.79289 13.2071C4.60536 13.0196 4.5 12.7652 4.5 12.5V11.5" stroke="#01040B" stroke-linecap="round" stroke-linejoin="round"/>
<path d="M8.5 4.5H9C9.27614 4.5 9.5 4.72386 9.5 5V5.5" stroke="#01040B" stroke-linecap="round" stroke-linejoin="round"/>
<path d="M9.5 8.5V9C9.5 9.27614 9.27614 9.5 9 9.5H8.5" stroke="#01040B" stroke-linecap="round" stroke-linejoin="round"/>
<path d="M5.5 9.5H5C4.72386 9.5 4.5 9.27614 4.5 9V8.5" stroke="#01040B" stroke-linecap="round" stroke-linejoin="round"/>
<path d="M4.5 5.5V5C4.5 4.72386 4.72386 4.5 5 4.5H5.5" stroke="#01040B" stroke-linecap="round" stroke-linejoin="round"/>
</svg>
