<svg xmlns="http://www.w3.org/2000/svg" fill="none" viewBox="0 0 14 14"><g id="pathfinder-circle-crop"><path id="Ellipse 1786" stroke="#000000" stroke-linecap="round" stroke-linejoin="round" d="M5 1.02746C5.16417 1.00932 5.331 1 5.5 1c0.169 0 0.33583 0.00932 0.5 0.02746" stroke-width="1"></path><path id="Ellipse 1787" stroke="#000000" stroke-linecap="round" stroke-linejoin="round" d="M1.02746 5.99999C1.00932 5.83583 1 5.669 1 5.5c0 -0.16901 0.00932 -0.33583 0.02746 -0.5" stroke-width="1"></path><path id="Ellipse 1784" stroke="#000000" stroke-linecap="round" stroke-linejoin="round" d="M2.69099 9.0157c-0.12891 -0.10325 -0.25347 -0.21463 -0.37297 -0.33413 -0.1195 -0.11951 -0.23088 -0.24406 -0.33413 -0.37298" stroke-width="1"></path><path id="Ellipse 1782" stroke="#000000" stroke-linecap="round" stroke-linejoin="round" d="M8.30908 1.9834c0.12892 0.10325 0.25347 0.21463 0.37298 0.33413 0.1195 0.11951 0.23088 0.24406 0.33413 0.37298" stroke-width="1"></path><path id="Ellipse 1783" stroke="#000000" stroke-linecap="round" stroke-linejoin="round" d="M1.98389 2.6905c0.10325 -0.12892 0.21462 -0.25347 0.33413 -0.37297 0.1195 -0.1195 0.24405 -0.23088 0.37297 -0.33413" stroke-width="1"></path><path id="Intersect" stroke="#000000" stroke-linecap="round" stroke-linejoin="round" d="M5.25 9.5c2.34721 0 4.25 -1.90279 4.25 -4.25 0 -0.23622 -0.01927 -0.46794 -0.05633 -0.69367C9.21794 4.51927 8.98622 4.5 8.75 4.5 6.40279 4.5 4.5 6.40279 4.5 8.75c0 0.23622 0.01927 0.46794 0.05633 0.69367 0.22573 0.03706 0.45745 0.05633 0.69367 0.05633Z" stroke-width="1"></path><path id="Union" stroke="#000000" stroke-linecap="round" stroke-linejoin="round" d="M10.9997 4.75781c1.206 0.80726 2.0001 2.18202 2.0001 3.74223C12.9998 10.9853 10.985 13 8.49976 13c-1.56003 0 -2.93465 -0.7938 -3.74195 -1.9995" stroke-width="1"></path></g></svg>