<svg xmlns="http://www.w3.org/2000/svg" fill="none" viewBox="0 0 14 14"><g id="payment-history--payment-history-clock-money-finance-cash"><path id="Vector" stroke="#000000" stroke-linecap="round" stroke-linejoin="round" d="M13.5 6V1.5c0 -0.552285 -0.4477 -1 -1 -1h-11c-0.552285 0 -1 0.447715 -1 1v6c0 0.55228 0.447715 1 1 1h4" stroke-width="1"></path><path id="Vector_2" stroke="#000000" stroke-linecap="round" stroke-linejoin="round" d="M7 6.25c0.9665 0 1.75 -0.7835 1.75 -1.75S7.9665 2.75 7 2.75s-1.75 0.7835 -1.75 1.75S6.0335 6.25 7 6.25Z" stroke-width="1"></path><g id="Group 8"><path id="Ellipse 1" stroke="#000000" stroke-linecap="round" stroke-linejoin="round" d="M2.7749 4.75c-0.13807 0 -0.25 -0.11193 -0.25 -0.25s0.11193 -0.25 0.25 -0.25" stroke-width="1"></path><path id="Ellipse 2" stroke="#000000" stroke-linecap="round" stroke-linejoin="round" d="M2.77493 4.75c0.13807 0 0.25 -0.11193 0.25 -0.25s-0.11193 -0.25 -0.25 -0.25" stroke-width="1"></path></g><g id="Group 9"><path id="Ellipse 1_2" stroke="#000000" stroke-linecap="round" stroke-linejoin="round" d="M11.2251 4.75c-0.1381 0 -0.25 -0.11193 -0.25 -0.25s0.1119 -0.25 0.25 -0.25" stroke-width="1"></path><path id="Ellipse 2_2" stroke="#000000" stroke-linecap="round" stroke-linejoin="round" d="M11.2251 4.75c0.1381 0 0.25 -0.11193 0.25 -0.25s-0.1119 -0.25 -0.25 -0.25" stroke-width="1"></path></g><path id="Vector_3" stroke="#000000" stroke-linecap="round" stroke-linejoin="round" d="M10.5 13.5c1.6569 0 3 -1.3431 3 -3 0 -1.65685 -1.3431 -3 -3 -3 -1.65685 0 -3 1.34315 -3 3 0 1.6569 1.34315 3 3 3Z" stroke-width="1"></path><path id="Vector_4" stroke="#000000" stroke-linecap="round" stroke-linejoin="round" d="m11.25 9.75 -0.75 0.75" stroke-width="1"></path></g></svg>