<svg xmlns="http://www.w3.org/2000/svg" fill="none" viewBox="0 0 14 14"><g id="PDF-to-JPG--essential-files-folder-PDF-to-JPG"><path id="Vector" stroke="#000000" stroke-linecap="round" stroke-linejoin="round" d="M6.5 11.5h-3c-0.55228 0 -1 -0.4477 -1 -1v-7c0 -0.55228 0.44772 -1 1 -1h7c0.2652 0 0.5196 0.10536 0.7071 0.29289 0.1875 0.18754 0.2929 0.44189 0.2929 0.70711v4" stroke-width="1"></path><path id="Vector_2" stroke="#000000" stroke-linecap="round" stroke-linejoin="round" d="M8.25 7c0.69036 0 1.25 -0.55964 1.25 -1.25S8.94036 4.5 8.25 4.5 7 5.05964 7 5.75 7.55964 7 8.25 7Z" stroke-width="1"></path><path id="Vector_3" stroke="#000000" stroke-linecap="round" stroke-linejoin="round" d="m11.5 9.5 2 2 -2 2" stroke-width="1"></path><path id="Vector_4" stroke="#000000" stroke-linecap="round" stroke-linejoin="round" d="M13.5 11.5h-5" stroke-width="1"></path><path id="Vector 1285" stroke="#000000" stroke-linecap="round" stroke-linejoin="round" d="M2.5 7.5v0c2.20914 0 4 1.79086 4 4v0" stroke-width="1"></path><path id="Vector 1286" stroke="#000000" stroke-linecap="round" stroke-linejoin="round" d="M0.5 8.5v-7c0 -0.552285 0.447715 -1 1 -1h7" stroke-width="1"></path></g></svg>