<svg xmlns="http://www.w3.org/2000/svg" fill="none" viewBox="0 0 14 14"><g id="PDF-reader--essential-files-folder-PDF-reader-view"><path id="Vector 1239" stroke="#000000" stroke-linecap="round" stroke-linejoin="round" d="M3.54956 2.76737c1.51704 -0.44948 0.16379 7.98303 -1.14797 6.88366 -0.83495 -0.69977 1.95976 -1.81376 3.96985 -2.08405C4.66168 6.0452 2.55326 3.06256 3.54956 2.76737Z" stroke-width="1"></path><path id="Vector" stroke="#000000" stroke-linecap="round" stroke-linejoin="round" d="M11.5 6.5V4L8 0.5H1.5C1.23478 0.5 0.98043 0.605357 0.792893 0.792893 0.605357 0.98043 0.5 1.23478 0.5 1.5v11c0 0.2652 0.105357 0.5196 0.292893 0.7071 0.187537 0.1875 0.441887 0.2929 0.707107 0.2929H5" stroke-width="1"></path><path id="Vector_2" stroke="#000000" stroke-linecap="round" stroke-linejoin="round" d="M13.2538 10.408c0.3282 0.3332 0.3282 0.8508 0 1.184 -0.7282 0.7393 -2.0956 1.908 -3.46307 1.908 -1.36744 0 -2.73489 -1.1687 -3.46309 -1.908 -0.32821 -0.3332 -0.32821 -0.8508 0 -1.184 0.7282 -0.73931 2.09565 -1.908 3.46309 -1.908 1.36747 0 2.73487 1.16869 3.46307 1.908Z" stroke-width="1"></path><path id="Vector_3" stroke="#000000" stroke-linecap="round" stroke-linejoin="round" d="M9.79071 11.5c0.27619 0 0.49999 -0.2239 0.49999 -0.5s-0.2238 -0.5 -0.49999 -0.5c-0.27614 0 -0.5 0.2239 -0.5 0.5s0.22386 0.5 0.5 0.5Z" stroke-width="1"></path></g></svg>