<svg xmlns="http://www.w3.org/2000/svg" fill="none" viewBox="0 0 14 14"><g id="peace-justice-and-strong-institutions"><path id="Vector 861" stroke="#000000" stroke-linecap="round" stroke-linejoin="round" d="M4.85952 8.71904c-2.57301 0 -3.57363 -1.5724 -3.85952 -2.14418 0.85767 0 2.14418 -0.42883 2.57301 -1.28651C1.85767 4.43068 1.85767 1.85767 2.28651 1c1.2865 1.28651 3.00184 2.57301 3.43068 2.57301 0.42884 0 1.71534 -1.2865 3.00185 -1.2865 1.0292 0 1.57236 1.2865 1.71536 1.71534 -0.2859 0 -1.02922 -0.2573 -1.71536 0.42883 -0.85767 0.85767 -1.28651 4.28836 -3.85952 4.28836Z" stroke-width="1"></path><path id="Vector 865" stroke="#000000" stroke-linecap="round" stroke-linejoin="round" d="M5 8.99994v1.99996" stroke-width="1"></path><path id="Vector 864" stroke="#000000" stroke-linecap="round" stroke-linejoin="round" d="M1.5 11H10" stroke-width="1"></path><path id="Vector 4591" stroke="#000000" stroke-linecap="round" stroke-linejoin="round" d="M12.5 9h-2c-0.2761 0 -0.5 0.22386 -0.5 0.5v3c0 0.2761 0.2239 0.5 0.5 0.5h2c0.2761 0 0.5 -0.2239 0.5 -0.5v-3c0 -0.27614 -0.2239 -0.5 -0.5 -0.5Z" stroke-width="1"></path><path id="Vector 1216" stroke="#000000" stroke-linecap="round" stroke-linejoin="round" d="M10.0085 5.79297c0 -1.01563 0.4524 -2.29688 1.7649 -3.10938" stroke-width="1"></path></g></svg>