<svg xmlns="http://www.w3.org/2000/svg" fill="none" viewBox="0 0 14 14"><g id="pen-3--content-creation-edit-pen-pens-write"><path id="Vector 3975" stroke="#000000" stroke-linecap="round" stroke-linejoin="round" d="M1 3v7.5L3 13l2 -2.5V3c0 -1.10457 -0.89543 -2 -2 -2s-2 0.89543 -2 2Z" stroke-width="1"></path><path id="Vector 3976" stroke="#000000" stroke-linecap="round" stroke-linejoin="round" d="M1 4.5h4" stroke-width="1"></path><path id="Vector 3978" stroke="#000000" stroke-linecap="round" stroke-linejoin="round" d="M9.25 11v2" stroke-width="1"></path><path id="Vector 3979" stroke="#000000" stroke-linecap="round" stroke-linejoin="round" d="M7.5 4.5H12c0.5523 0 1 0.44772 1 1v4" stroke-width="1"></path><path id="Vector 3977" stroke="#000000" stroke-linecap="round" stroke-linejoin="round" d="M7.5 10V2.75C7.5 1.7835 8.2835 1 9.25 1S11 1.7835 11 2.75V10c0 0.5523 -0.4477 1 -1 1H8.5c-0.55228 0 -1 -0.4477 -1 -1Z" stroke-width="1"></path></g></svg>