<svg xmlns="http://www.w3.org/2000/svg" fill="none" viewBox="0 0 14 14"><g id="pen-pressure--pencil-drawing-tablet"><path id="Vector" stroke="#000000" stroke-linecap="round" stroke-linejoin="round" d="M8.9972 7.46246 5.99854 8l0.49977 -3.02614L10.7253 0.79445c0.0929 -0.093301 0.2035 -0.167357 0.3253 -0.217894C11.1724 0.526019 11.303 0.5 11.435 0.5c0.1319 0 0.2626 0.026019 0.3844 0.076556 0.1218 0.050537 0.2324 0.124593 0.3253 0.217894l1.0595 1.05517c0.0937 0.09254 0.1681 0.20263 0.2188 0.32394 0.0507 0.1213 0.0769 0.25141 0.0769 0.38282 0 0.13141 -0.0262 0.26152 -0.0769 0.38282 -0.0507 0.12131 -0.1251 0.2314 -0.2188 0.32394l-4.207 4.19932Z" stroke-width="1"></path><path id="Ellipse 1900" stroke="#000000" stroke-linecap="round" stroke-linejoin="round" d="M5 3.52466C2.47334 3.77552 0.5 5.9073 0.5 8.49997 0.5 11.2614 2.73858 13.5 5.5 13.5c2.59267 0 4.7245 -1.9734 4.9753 -4.50003" stroke-width="1"></path><path id="Ellipse 1904" stroke="#000000" stroke-linecap="round" stroke-linejoin="round" d="M4 6.49976c-0.60722 0.4561 -1 1.18227 -1 2.00018 0 1.38071 1.11929 2.49996 2.5 2.49996 0.81791 0 1.54408 -0.3927 2.00018 -0.99996" stroke-width="1"></path></g></svg>