<svg xmlns="http://www.w3.org/2000/svg" fill="none" viewBox="0 0 14 14"><g id="pharmacy--health-medical-pharmacy-sign-medicine-mortar-pestle"><path id="Union" stroke="#000000" stroke-linecap="round" stroke-linejoin="round" d="m1.53228 8.3845 -0.22169 -1.97032c-0.0667 -0.59283 0.39716 -1.11181 0.99373 -1.11181h9.39108c0.5966 0 1.0605 0.51898 0.9938 1.11181l-0.2217 1.97032c-0.1461 1.29848 -0.9032 2.3936 -1.9651 3.0115 0.1696 0.3055 0.2878 0.6451 0.3422 1.0081 0.0677 0.452 -0.2824 0.8584 -0.7395 0.8584l-6.21051 0c-0.45703 0 -0.80711 -0.4064 -0.73941 -0.8584 0.05437 -0.363 0.17256 -0.7026 0.34214 -1.0081 -1.06185 -0.618 -1.81894 -1.71303 -1.96504 -3.0115Z" stroke-width="1"></path><path id="Vector 2093" stroke="#000000" stroke-linecap="round" stroke-linejoin="round" d="M7.46887 5.28123 9.84215 1.5614c0.35315 -0.5536 1.08625 -0.719637 1.64355 -0.37226v0c0.569 0.35468 0.7361 1.10728 0.3706 1.66942l-1.5748 2.42267" stroke-width="1"></path><path id="Vector" stroke="#000000" stroke-linecap="round" stroke-linejoin="round" d="M5.25122 9.28244h3.49756" stroke-width="1"></path><path id="Vector_2" stroke="#000000" stroke-linecap="round" stroke-linejoin="round" d="M7 7.53366v3.49754" stroke-width="1"></path></g></svg>