<svg xmlns="http://www.w3.org/2000/svg" fill="none" viewBox="0 0 14 14"><g id="phone-otp--android-phone-mobile-device-smartphone-iphone-otp-password"><path id="Vector 3" stroke="#000000" stroke-linecap="round" stroke-linejoin="round" d="m8.44641 0.5 0 3.53334" stroke-width="1"></path><path id="Vector 5" stroke="#000000" stroke-linecap="round" stroke-linejoin="round" d="m7.26858 0.5 2.35557 0" stroke-width="1"></path><path id="Vector 4" stroke="#000000" stroke-linecap="round" stroke-linejoin="round" d="M3.41309 1.67778v1.17778c0 0.65047 0.52731 1.17778 1.17778 1.17778 0.65047 0 1.17778 -0.52731 1.17778 -1.17778V1.67778C5.76865 1.02731 5.24134 0.5 4.59087 0.5c-0.65047 0 -1.17778 0.52731 -1.17778 1.17778Z" stroke-width="1"></path><path id="Vector 2" stroke="#000000" stroke-linecap="round" stroke-linejoin="round" d="m11.1241 4.03334 0 -1.47222m0 0 0 -2.06112 1.325 0c0.5692 0 1.0306 0.461397 1.0306 1.03056v0c0 0.56916 -0.4614 1.03056 -1.0306 1.03056h-1.325Z" stroke-width="1"></path><path id="Vector" stroke="#000000" stroke-linecap="round" stroke-linejoin="round" d="M1.5 0.5c-0.552285 0 -1 0.447715 -1 1v11c0 0.5523 0.447715 1 1 1h7c0.55228 0 1 -0.4477 1 -1V6" stroke-width="1"></path><path id="Vector_2" stroke="#000000" stroke-linecap="round" stroke-linejoin="round" d="M4.5 11h1" stroke-width="1"></path></g></svg>