<svg xmlns="http://www.w3.org/2000/svg" fill="none" viewBox="0 0 14 14"><g id="phone-notification--android-phone-mobile-device-smartphone-iphone-bell-notification"><path id="Vector" stroke="#000000" stroke-linecap="round" stroke-linejoin="round" d="M12 6V3c0 -0.66304 -0.2634 -1.29893 -0.7322 -1.76777C10.7989 0.763392 10.163 0.5 9.5 0.5c-0.66304 0 -1.29893 0.263392 -1.76777 0.73223C7.26339 1.70107 7 2.33696 7 3v3" stroke-width="1"></path><path id="Vector_2" stroke="#000000" stroke-linecap="round" stroke-linejoin="round" d="M6 6h7" stroke-width="1"></path><path id="Vector_3" stroke="#000000" stroke-linecap="round" stroke-linejoin="round" d="M9.5 6v1" stroke-width="1"></path><path id="Vector_4" stroke="#000000" stroke-linecap="round" stroke-linejoin="round" d="M5.25 0.5H1.5c-0.552285 0 -1 0.447715 -1 1v11c0 0.5523 0.447715 1 1 1h7c0.55228 0 1 -0.4477 1 -1V9" stroke-width="1"></path><path id="Vector_5" stroke="#000000" stroke-linecap="round" stroke-linejoin="round" d="M4.5 11h1" stroke-width="1"></path></g></svg>