<svg xmlns="http://www.w3.org/2000/svg" fill="none" viewBox="0 0 14 14"><g id="phone-personal-hotspot--phone-personal-hotspot-connection-mobile-signal-device-share"><path id="Vector" stroke="#000000" stroke-linecap="round" stroke-linejoin="round" d="M5 0.5H1.5c-0.552285 0 -1 0.447715 -1 1v11c0 0.5523 0.447715 1 1 1h7c0.55228 0 1 -0.4477 1 -1V8" stroke-width="1"></path><path id="Vector_2" stroke="#000000" stroke-linecap="round" stroke-linejoin="round" d="M4.5 11h1" stroke-width="1"></path><path id="Vector 3158" stroke="#000000" stroke-linecap="round" stroke-linejoin="round" d="M7 3.47475c-0.3093 -0.31564 -0.5 -0.74792 -0.5 -1.22475C6.5 1.2835 7.2835 0.5 8.25 0.5h1.5c0.9665 0 1.75 0.7835 1.75 1.75 0 0.6981 -0.4088 1.30073 -1 1.58159" stroke-width="1"></path><path id="Vector 3159" stroke="#000000" stroke-linecap="round" stroke-linejoin="round" d="M13 2.77524c0.3093 0.31564 0.5 0.74792 0.5 1.22475 0 0.9665 -0.7835 1.75 -1.75 1.75h-1.5c-0.9665 0 -1.75 -0.7835 -1.75 -1.75 0 -0.6981 0.40876 -1.30073 1 -1.58159" stroke-width="1"></path></g></svg>