<svg xmlns="http://www.w3.org/2000/svg" fill="none" viewBox="0 0 14 14"><g id="phonetic-text--phonetic-text-alphabet-formatting-letter-font"><path id="Vector 3311" stroke="#000000" stroke-linecap="round" stroke-linejoin="round" d="M0.5 5v0c0 -1.10457 0.89543 -2 2 -2H5c1.10457 0 2 0.89543 2 2v2m0 0v2c0 1.1046 -0.89543 2 -2 2H2.5c-1.10457 0 -2 -0.8954 -2 -2v0c0 -1.10457 0.89543 -2 2 -2H7Z" stroke-width="1"></path><path id="Vector 3312" stroke="#000000" stroke-linecap="round" stroke-linejoin="round" d="M13.5 9v0c0 1.1046 -0.8954 2 -2 2H9c-1.10457 0 -2 -0.8954 -2 -2V7m0 0v-0.75C7 4.45507 8.48027 3 10.2752 3v0C12.0425 3 13.5 4.43269 13.5 6.2v0c0 0.44183 -0.3582 0.8 -0.8 0.8H7Z" stroke-width="1"></path></g></svg>