<svg xmlns="http://www.w3.org/2000/svg" fill="none" viewBox="0 0 14 14"><g id="phone-location--android-phone-mobile-device-smartphone-iphone-gps-pin-location"><path id="Vector" stroke="#000000" stroke-linecap="round" stroke-linejoin="round" d="M12.0526 3.21428c0 1.60714 -2.79999 4.82143 -2.79999 4.82143s-2.7 -3.21429 -2.7 -4.82143c0.1 -1.5 1.3 -2.678574 2.8 -2.678574 1.39999 0 2.59999 1.178574 2.69999 2.678574Z" stroke-width="1"></path><path id="Vector_2" stroke="#000000" stroke-linecap="round" stroke-linejoin="round" d="M4.25256 0.5h-2.75C0.950279 0.5 0.502563 0.947715 0.502563 1.5v11c0 0.5523 0.447716 1 0.999997 1h7c0.55229 0 1 -0.4477 1 -1V10" stroke-width="1"></path><path id="Vector_3" stroke="#000000" stroke-linecap="round" stroke-linejoin="round" d="M4.50256 11h1" stroke-width="1"></path><g id="Group 634"><path id="Ellipse 1020" stroke="#000000" stroke-linecap="round" stroke-linejoin="round" d="M9.30261 3.25c-0.13807 0 -0.25 -0.11193 -0.25 -0.25s0.11193 -0.25 0.25 -0.25" stroke-width="1"></path><path id="Ellipse 1021" stroke="#000000" stroke-linecap="round" stroke-linejoin="round" d="M9.30261 3.25c0.13807 0 0.25 -0.11193 0.25 -0.25s-0.11193 -0.25 -0.25 -0.25" stroke-width="1"></path></g></g></svg>