<svg xmlns="http://www.w3.org/2000/svg" fill="none" viewBox="0 0 14 14"><g id="phone-shield--android-phone-mobile-device-smartphone-iphone-protection-shield"><path id="Vector" stroke="#000000" stroke-linecap="round" stroke-linejoin="round" d="M10.17 6.47c-0.1099 0.03972 -0.23016 0.03972 -0.34001 0 -0.83398 -0.33038 -1.54958 -0.90352 -2.05414 -1.6452 -0.50456 -0.74169 -0.77484 -1.61776 -0.77586 -2.5148V1c-0.00407 -0.063364 0.00475 -0.126896 0.02591 -0.186759 0.02117 -0.059863 0.05425 -0.114817 0.09724 -0.161544 0.04299 -0.046728 0.095 -0.084261 0.15289 -0.110333C7.33393 0.515292 7.3965 0.501221 7.45999 0.5H12.54c0.0635 0.001221 0.126 0.015292 0.1839 0.041364 0.0579 0.026072 0.11 0.063605 0.1529 0.110333 0.043 0.046727 0.0761 0.101681 0.0973 0.161544 0.0211 0.059863 0.03 0.123395 0.0259 0.186759v1.31c-0.001 0.89704 -0.2713 1.77311 -0.7759 2.5148 -0.5045 0.74168 -1.2201 1.31482 -2.0541 1.6452Z" stroke-width="1"></path><path id="Vector_2" stroke="#000000" stroke-linecap="round" stroke-linejoin="round" d="M5 0.5H1.5c-0.552285 0 -1 0.447715 -1 1v11c0 0.5523 0.447715 1 1 1h7c0.55228 0 1 -0.4477 1 -1v-4" stroke-width="1"></path><path id="Vector_3" stroke="#000000" stroke-linecap="round" stroke-linejoin="round" d="M4.5 11h1" stroke-width="1"></path></g></svg>