<svg xmlns="http://www.w3.org/2000/svg" fill="none" viewBox="0 0 14 14"><g id="phone-password--android-phone-mobile-device-smartphone-iphone-password"><path id="Vector" stroke="#000000" stroke-linecap="round" stroke-linejoin="round" d="M6.70801 0.5H3c-0.55228 0 -1 0.447715 -1 1v11c0 0.5523 0.44772 1 1 1h7c0.5523 0 1 -0.4477 1 -1V9.15625" stroke-width="1"></path><path id="Vector_2" stroke="#000000" stroke-linecap="round" stroke-linejoin="round" d="M6 11h1" stroke-width="1"></path><path id="Rectangle 1681" stroke="#000000" stroke-linecap="round" stroke-linejoin="round" d="M5.05176 3.60937c0 -0.55228 0.44771 -0.99999 1 -0.99999h6.25004c0.5522 0 1 0.44771 1 1v2.09375c0 0.55228 -0.4478 0.99999 -1 0.99999H6.05176c-0.55229 0 -1 -0.44771 -1 -1V3.60937Z" stroke-width="1"></path><g id="Group 634"><path id="Ellipse 1020" stroke="#000000" stroke-linecap="round" stroke-linejoin="round" d="M7.04053 4.82816c-0.13807 0 -0.25 -0.11193 -0.25 -0.25 0 -0.13808 0.11193 -0.25 0.25 -0.25" stroke-width="1"></path><path id="Ellipse 1021" stroke="#000000" stroke-linecap="round" stroke-linejoin="round" d="M7.04053 4.82816c0.13807 0 0.25 -0.11193 0.25 -0.25 0 -0.13808 -0.11193 -0.25 -0.25 -0.25" stroke-width="1"></path></g><g id="Group 636"><path id="Ellipse 1020_2" stroke="#000000" stroke-linecap="round" stroke-linejoin="round" d="M9.17651 4.82816c-0.13807 0 -0.25 -0.11193 -0.25 -0.25 0 -0.13808 0.11193 -0.25 0.25 -0.25" stroke-width="1"></path><path id="Ellipse 1021_2" stroke="#000000" stroke-linecap="round" stroke-linejoin="round" d="M9.17651 4.82816c0.13807 0 0.25 -0.11193 0.25 -0.25 0 -0.13808 -0.11193 -0.25 -0.25 -0.25" stroke-width="1"></path></g><g id="Group 637"><path id="Ellipse 1020_3" stroke="#000000" stroke-linecap="round" stroke-linejoin="round" d="M11.3125 4.82816c-0.1381 0 -0.25 -0.11193 -0.25 -0.25 0 -0.13808 0.1119 -0.25 0.25 -0.25" stroke-width="1"></path><path id="Ellipse 1021_3" stroke="#000000" stroke-linecap="round" stroke-linejoin="round" d="M11.3125 4.82816c0.1381 0 0.25 -0.11193 0.25 -0.25 0 -0.13808 -0.1119 -0.25 -0.25 -0.25" stroke-width="1"></path></g></g></svg>