<svg xmlns="http://www.w3.org/2000/svg" fill="none" viewBox="0 0 14 14"><g id="phone-message--android-phone-mobile-device-smartphone-iphone-text-message"><path id="Vector" stroke="#000000" stroke-linecap="round" stroke-linejoin="round" d="m9 6.5 -3.5 1 0.5 -3v-3c0 -0.26522 0.10536 -0.51957 0.29289 -0.707107C6.48043 0.605357 6.73478 0.5 7 0.5h5.5c0.2652 0 0.5196 0.105357 0.7071 0.292893 0.1875 0.187537 0.2929 0.441887 0.2929 0.707107v4c0 0.26522 -0.1054 0.51957 -0.2929 0.70711 -0.1875 0.18753 -0.4419 0.29289 -0.7071 0.29289H9Z" stroke-width="1"></path><path id="Vector_2" stroke="#000000" stroke-linecap="round" stroke-linejoin="round" d="M3.75 0.5H1.5c-0.552285 0 -1 0.447715 -1 1v11c0 0.5523 0.447715 1 1 1h7c0.55228 0 1 -0.4477 1 -1V8.75" stroke-width="1"></path><path id="Vector_3" stroke="#000000" stroke-linecap="round" stroke-linejoin="round" d="M4.5 11h1" stroke-width="1"></path></g></svg>