<svg xmlns="http://www.w3.org/2000/svg" fill="none" viewBox="0 0 14 14"><g id="photo-retouch--photo-retouch-enchance-face-portrait-image-picture"><path id="Vector" stroke="#000000" stroke-linecap="round" stroke-linejoin="round" d="M11.1294 8.37884c0.0616 0.28676 0.094 0.58428 0.094 0.88934 0 2.33732 -1.90209 4.23202 -4.24843 4.23202 -2.34633 0 -4.24841 -1.8947 -4.24841 -4.23202 0 -2.21251 1.70441 -4.02848 3.87664 -4.21607" stroke-width="1"></path><path id="Vector_2" stroke="#000000" stroke-linecap="round" stroke-linejoin="round" d="M3.45816 11.6484c-0.17487 0.6356 -0.75887 1.1026 -1.45236 1.1026 -0.83163 0 -1.5058 -0.6716 -1.5058 -1.5 0 -0.8285 0.67417 -1.50002 1.5058 -1.50002 0.28609 0 0.55355 0.07947 0.78133 0.21748" stroke-width="1"></path><path id="Vector_3" stroke="#000000" stroke-linecap="round" stroke-linejoin="round" d="M11.1626 9.96846c0.2278 -0.13801 0.4952 -0.21748 0.7813 -0.21748 0.8317 0 1.5058 0.67152 1.5058 1.50002 0 0.8284 -0.6741 1.5 -1.5058 1.5 -0.6935 0 -1.2775 -0.467 -1.4523 -1.1026" stroke-width="1"></path><path id="Ellipse 592" stroke="#000000" stroke-linecap="round" stroke-linejoin="round" d="M8.36218 10.9053s-0.35251 0.6909 -1.38724 0.6909c-1.03473 0 -1.38723 -0.6909 -1.38723 -0.6909" stroke-width="1"></path><path id="Intersect" stroke="#000000" stroke-linecap="round" stroke-linejoin="round" d="M11.195 8.8025c-0.37 0.1394 -0.7712 0.21568 -1.1902 0.21568 -1.28446 0 -2.40083 -0.7167 -2.96813 -1.77055 -0.5673 1.05385 -1.68368 1.77055 -2.96809 1.77055 -0.46615 0 -0.91016 -0.09439 -1.31382 -0.26505" stroke-width="1"></path><path id="Vector 3036" stroke="#000000" stroke-linecap="round" stroke-linejoin="round" d="M5.25 0.5v2" stroke-width="1"></path><path id="Vector 3037" stroke="#000000" stroke-linecap="round" stroke-linejoin="round" d="M4.25 1.5h2" stroke-width="1"></path><path id="Vector 2137" stroke="#000000" stroke-linecap="round" stroke-linejoin="round" d="M7.39245 3.93395c-0.35229 -0.06105 -0.35229 -0.56483 0 -0.62588C8.7191 3.07816 9.69891 2.04985 9.98207 0.761292 10.0583 0.414459 10.554 0.4123 10.6333 0.758456c0.2952 1.289364 1.2677 2.316934 2.6012 2.548014 0.354 0.06137 0.354 0.56771 0 0.62907 -1.3335 0.23109 -2.306 1.25866 -2.6012 2.54802 -0.0793 0.34616 -0.575 0.344 -0.65123 -0.00283 -0.28316 -1.28856 -1.26297 -2.31687 -2.58962 -2.54678Z" stroke-width="1"></path></g></svg>