<svg xmlns="http://www.w3.org/2000/svg" fill="none" viewBox="0 0 14 14"><g id="photo-camera--wireless-wifi-internet-server-network-smart-control-photo-camera-connection"><path id="Vector" stroke="#000000" stroke-linecap="round" stroke-linejoin="round" d="M5.99982 11.4984c0.96559 0 1.74835 -0.7828 1.74835 -1.74834 0 -0.96559 -0.78276 -1.74835 -1.74835 -1.74835 -0.96559 0 -1.74836 0.78276 -1.74836 1.74835 0 0.96554 0.78277 1.74834 1.74836 1.74834Z" stroke-width="1"></path><path id="Vector_2" stroke="#000000" stroke-linecap="round" stroke-linejoin="round" d="M11.5 8.25c0 -0.26522 -0.1054 -0.51957 -0.2929 -0.70711 -0.1875 -0.18753 -0.4419 -0.29289 -0.7071 -0.29289H9L8 5H4L3 7.25H1.5c-0.26522 0 -0.51957 0.10536 -0.707107 0.29289C0.605357 7.73043 0.5 7.98478 0.5 8.25v4.25c0 0.2652 0.105357 0.5196 0.292893 0.7071 0.187537 0.1875 0.441887 0.2929 0.707107 0.2929h9c0.2652 0 0.5196 -0.1054 0.7071 -0.2929s0.2929 -0.4419 0.2929 -0.7071V8.25Z" stroke-width="1"></path><path id="Vector_3" stroke="#000000" stroke-linecap="round" stroke-linejoin="round" d="M9.5 0.5c1.0609 0 2.0783 0.421427 2.8284 1.17157C13.0786 2.42172 13.5 3.43913 13.5 4.5" stroke-width="1"></path><path id="Vector_4" stroke="#000000" stroke-linecap="round" stroke-linejoin="round" d="M9.5 3c0.39782 0 0.7794 0.15804 1.0607 0.43934S11 4.10218 11 4.5" stroke-width="1"></path></g></svg>