<svg xmlns="http://www.w3.org/2000/svg" fill="none" viewBox="0 0 14 14"><g id="photo-four--photos-camera-picture-photography-pictures-four-photo"><path id="Vector" stroke="#000000" stroke-linecap="round" stroke-linejoin="round" d="M5.5 1h-4c-0.27614 0 -0.5 0.22386 -0.5 0.5v4c0 0.27614 0.22386 0.5 0.5 0.5h4c0.27614 0 0.5 -0.22386 0.5 -0.5v-4c0 -0.27614 -0.22386 -0.5 -0.5 -0.5Z" stroke-width="1"></path><path id="Vector_2" stroke="#000000" stroke-linecap="round" stroke-linejoin="round" d="M12.5 1h-4c-0.27614 0 -0.5 0.22386 -0.5 0.5v4c0 0.27614 0.22386 0.5 0.5 0.5h4c0.2761 0 0.5 -0.22386 0.5 -0.5v-4c0 -0.27614 -0.2239 -0.5 -0.5 -0.5Z" stroke-width="1"></path><path id="Vector_3" stroke="#000000" stroke-linecap="round" stroke-linejoin="round" d="M5.5 8h-4c-0.27614 0 -0.5 0.22386 -0.5 0.5v4c0 0.2761 0.22386 0.5 0.5 0.5h4c0.27614 0 0.5 -0.2239 0.5 -0.5v-4c0 -0.27614 -0.22386 -0.5 -0.5 -0.5Z" stroke-width="1"></path><path id="Vector_4" stroke="#000000" stroke-linecap="round" stroke-linejoin="round" d="M12.5 8h-4c-0.27614 0 -0.5 0.22386 -0.5 0.5v4c0 0.2761 0.22386 0.5 0.5 0.5h4c0.2761 0 0.5 -0.2239 0.5 -0.5v-4c0 -0.27614 -0.2239 -0.5 -0.5 -0.5Z" stroke-width="1"></path></g></svg>