<svg xmlns="http://www.w3.org/2000/svg" fill="none" viewBox="0 0 14 14"><g id="pin-1-disabled"><path id="Vector" stroke="#000000" stroke-linecap="round" stroke-linejoin="round" d="m4.29248 4.27402 2.52604 -0.56259 1.66 -2.730004c0.07725 -0.127368 0.18198 -0.235869 0.30653 -0.317576 0.12456 -0.081706 0.26579 -0.134553 0.41339 -0.15468 0.1476 -0.020127 0.29783 -0.007025 0.43971 0.038349 0.14189 0.045374 0.27184 0.121872 0.38035 0.223907l3.21 3.210004c0.1021 0.10853 0.1786 0.23848 0.2239 0.38037 0.0454 0.14188 0.0585 0.29211 0.0384 0.43971 -0.0201 0.14759 -0.073 0.28883 -0.1547 0.41338 -0.0817 0.12456 -0.1902 0.22929 -0.3176 0.30654l-2.77 1.61 -0.59717 2.50144" stroke-width="1"></path><path id="Vector_2" stroke="#000000" stroke-linecap="round" stroke-linejoin="round" d="m6.81863 3.71143 -2.52604 0.56259m-2.23726 0.58695c-0.07634 0.07304 -0.13204 0.16495 -0.16147 0.26642 -0.02943 0.10148 -0.03154 0.20893 -0.00612 0.31148 0.02542 0.10255 0.07748 0.19657 0.15089 0.27256l6.15 6.15997c0.07785 0.0705 0.17256 0.1196 0.27498 0.1428 0.10241 0.0231 0.20906 0.0194 0.30962 -0.0108 0.10056 -0.0302 0.19164 -0.0858 0.26441 -0.1614" stroke-width="1"></path><path id="Vector_3" stroke="#000000" stroke-linecap="round" stroke-linejoin="round" d="m0.5 13.5 4.66074 -4.66089" stroke-width="1"></path><path id="Vector_4" stroke="#000000" stroke-linecap="round" stroke-linejoin="round" d="M13.5 13.5 0.5 0.5" stroke-width="1"></path></g></svg>