<svg xmlns="http://www.w3.org/2000/svg" fill="none" viewBox="0 0 14 14"><g id="pin-setting-gear"><path id="Vector" stroke="#000000" stroke-linecap="round" stroke-linejoin="round" d="m6.11025 3.8797 0.21615 -0.55798c0.03645 -0.09447 0.10059 -0.17573 0.18401 -0.23314 0.08342 -0.05741 0.18223 -0.08828 0.28349 -0.08858h0.4122c0.10126 0.0003 0.20007 0.03117 0.28349 0.08858 0.08342 0.05741 0.14756 0.13867 0.18401 0.23314l0.21615 0.55798 0.73393 0.42226 0.59317 -0.09049c0.09877 -0.0134 0.19929 0.00286 0.2888 0.04671 0.08951 0.04386 0.16395 0.11334 0.21388 0.19961l0.20108 0.35188c0.05152 0.08764 0.07526 0.18885 0.06808 0.29026 -0.00718 0.10141 -0.04494 0.19827 -0.1083 0.27778l-0.36696 0.46749v0.84452l0.37702 0.4675c0.06335 0.0795 0.10112 0.17636 0.10829 0.27777 0.00716 0.10141 -0.01655 0.20262 -0.06808 0.29026l-0.20107 0.35188c-0.04993 0.08627 -0.12438 0.15575 -0.21389 0.19961 -0.0895 0.04385 -0.19003 0.06011 -0.2888 0.04671l-0.59317 -0.09049 -0.73392 0.42226 -0.21616 0.55798c-0.03645 0.09447 -0.10059 0.17574 -0.184 0.23314 -0.08342 0.05741 -0.18223 0.08828 -0.28349 0.08858H6.7939c-0.10126 -0.0003 -0.20007 -0.03117 -0.28349 -0.08858 -0.08342 -0.0574 -0.14756 -0.13867 -0.18401 -0.23314l-0.21615 -0.55798 -0.73393 -0.42226 -0.59317 0.09049c-0.09877 0.0134 -0.19929 -0.00286 -0.2888 -0.04671 -0.08951 -0.04386 -0.16395 -0.11334 -0.21388 -0.19961l-0.20108 -0.35188c-0.05152 -0.08764 -0.07526 -0.18885 -0.06808 -0.29026 0.00718 -0.10141 0.04494 -0.19827 0.1083 -0.27777l0.36696 -0.4675V5.8452l-0.37702 -0.46749c-0.06335 -0.07951 -0.10112 -0.17637 -0.10829 -0.27778 -0.00718 -0.10141 0.01655 -0.20262 0.06808 -0.29026l0.20107 -0.35188c0.04993 -0.08627 0.12438 -0.15575 0.21389 -0.19961 0.08951 -0.04385 0.19003 -0.06011 0.2888 -0.04671l0.59317 0.09049 0.74398 -0.42226Z" stroke-width="1"></path><path id="Ellipse 1473" stroke="#000000" stroke-linecap="round" stroke-linejoin="round" d="M6.5 6.267a0.5 0.5 0 1 0 1 0 0.5 0.5 0 1 0 -1 0" stroke-width="1"></path><path id="Ellipse 1691" stroke="#000000" stroke-linecap="round" stroke-linejoin="round" d="M12.5 6c0 3.52712 -4.08207 6.6655 -5.04723 7.3582 -0.13243 0.0951 -0.28976 0.1418 -0.45277 0.1418v0c-0.16301 0 -0.32034 -0.0467 -0.45277 -0.1418C5.58207 12.6655 1.5 9.52712 1.5 6 1.5 2.96243 3.96243 0.5 7 0.5c3.0376 0 5.5 2.46243 5.5 5.5Z" stroke-width="1"></path></g></svg>