<svg xmlns="http://www.w3.org/2000/svg" fill="none" viewBox="0 0 14 14"><g id="pins-distance--pins-distance-map-location-gps-navigation-travel"><g id="Group 634"><path id="Ellipse 1020" stroke="#000000" stroke-linecap="round" stroke-linejoin="round" d="M11 3.75c-0.1381 0 -0.25 -0.11193 -0.25 -0.25s0.1119 -0.25 0.25 -0.25" stroke-width="1"></path><path id="Ellipse 1021" stroke="#000000" stroke-linecap="round" stroke-linejoin="round" d="M11 3.75c0.1381 0 0.25 -0.11193 0.25 -0.25s-0.1119 -0.25 -0.25 -0.25" stroke-width="1"></path></g><path id="Ellipse 1711" stroke="#000000" stroke-linecap="round" stroke-linejoin="round" d="M13.5 3.5c0 1.5 -2.5 4 -2.5 4S8.5 5 8.5 3.5C8.5 2.11929 9.61929 1 11 1c1.3807 0 2.5 1.11929 2.5 2.5Z" stroke-width="1"></path><g id="Group 2672"><path id="Ellipse 1020_2" stroke="#000000" stroke-linecap="round" stroke-linejoin="round" d="M3 9.25c-0.13807 0 -0.25 -0.11193 -0.25 -0.25s0.11193 -0.25 0.25 -0.25" stroke-width="1"></path><path id="Ellipse 1021_2" stroke="#000000" stroke-linecap="round" stroke-linejoin="round" d="M3 9.25c0.13807 0 0.25 -0.11193 0.25 -0.25s-0.11193 -0.25 -0.25 -0.25" stroke-width="1"></path></g><path id="Ellipse 1712" stroke="#000000" stroke-linecap="round" stroke-linejoin="round" d="M5.5 9c0 1.5 -2.5 4 -2.5 4S0.5 10.5 0.5 9C0.5 7.61929 1.61929 6.5 3 6.5S5.5 7.61929 5.5 9Z" stroke-width="1"></path><path id="Vector 3977" stroke="#000000" stroke-linecap="round" stroke-linejoin="round" d="m6.5 11 3 -2" stroke-width="1"></path></g></svg>