<svg xmlns="http://www.w3.org/2000/svg" fill="none" viewBox="0 0 14 14"><g id="pizza--cook-fast-cooking-nutrition-pizza-food"><path id="Vector 34" stroke="#000000" stroke-linecap="round" stroke-linejoin="round" d="M7.28757 1.54307c-0.27132 -0.01361 -0.5054 0.14091 -0.64987 0.36106L0.711389 10.935c-0.432829 0.6595 0.055755 1.5226 0.861951 1.5226H12.3363c0.3987 0 0.7568 -0.2299 0.8561 -0.5993 0.3115 -1.1587 0.698 -3.85532 -1.22 -6.83131 -1.9275 -2.99058 -3.85497 -3.4423 -4.68483 -3.48392Z" stroke-width="1"></path><path id="Vector 35" stroke="#000000" stroke-linecap="round" stroke-linejoin="round" d="M5.65647 3.43274s2.45538 0.18657 4.44003 3.1635c1.9846 2.97692 0.6937 5.86146 0.6937 5.86146" stroke-width="1"></path><path id="Ellipse 213" stroke="#000000" stroke-linecap="round" stroke-linejoin="round" d="M3.18539 7.16504c0.24349 0.49033 0.74936 0.82734 1.33395 0.82734 0.82206 0 1.48847 -0.66641 1.48847 -1.48846 0 -0.79676 -0.62603 -1.4473 -1.41303 -1.48659" stroke-width="1"></path><path id="Ellipse 214" stroke="#000000" stroke-linecap="round" stroke-linejoin="round" d="M5.07803 12.4577c-0.04082 -0.1586 -0.06253 -0.3248 -0.06253 -0.4962 0 -1.096 0.88855 -1.98457 1.98462 -1.98457s1.98461 0.88857 1.98461 1.98457c0 0.1714 -0.0217 0.3376 -0.06252 0.4962" stroke-width="1"></path></g></svg>