<svg xmlns="http://www.w3.org/2000/svg" fill="none" viewBox="0 0 14 14"><g id="play-list-phone--player-television-display-movies-smartphone-media-tv-players-screen-video-music-entertainment"><path id="Vector" stroke="#000000" stroke-linecap="round" stroke-linejoin="round" d="M7.8125 0.5h-4.625c-0.55228 0 -1 0.447715 -1 1v11c0 0.5523 0.44772 1 1 1h7c0.5523 0 1 -0.4477 1 -1V9" stroke-width="1"></path><path id="Vector_2" stroke="#000000" stroke-linecap="round" stroke-linejoin="round" d="M6.1875 11h1" stroke-width="1"></path><path id="Vector_3" stroke="#000000" stroke-linecap="round" stroke-linejoin="round" d="M8.9375 7c0.69036 0 1.25 -0.55964 1.25 -1.25s-0.55964 -1.25 -1.25 -1.25 -1.25 0.55964 -1.25 1.25S8.24714 7 8.9375 7Z" stroke-width="1"></path><path id="Vector_4" stroke="#000000" stroke-linecap="round" stroke-linejoin="round" d="M10.1875 5.75v-5c0.7956 0 1.5587 0.31607 2.1213 0.87868 0.5626 0.56261 0.8787 1.32567 0.8787 2.12132" stroke-width="1"></path></g></svg>