<svg xmlns="http://www.w3.org/2000/svg" fill="none" viewBox="0 0 14 14"><g id="playlist--playlist-song-entertainment"><path id="vector 1997" stroke="#000000" stroke-linecap="round" stroke-linejoin="round" d="M1.46875 11.6247H6" stroke-width="1"></path><path id="vector 1998" stroke="#000000" stroke-linecap="round" stroke-linejoin="round" d="M1.46875 8.38931H6" stroke-width="1"></path><path id="vector 2001" stroke="#000000" stroke-linecap="round" stroke-linejoin="round" d="M1.46875 1.91849H12.5313" stroke-width="1"></path><path id="vector 1999" stroke="#000000" stroke-linecap="round" stroke-linejoin="round" d="m1.46875 5.1539 11.06255 0" stroke-width="1"></path><path id="vector" stroke="#000000" stroke-linecap="round" stroke-linejoin="round" d="M8.68726 11.6553c-0.00029 0.0752 0.01992 0.1491 0.05846 0.2136 0.03853 0.0646 0.09393 0.1175 0.16024 0.1529 0.06519 0.0391 0.13976 0.0597 0.21575 0.0597 0.076 0 0.15057 -0.0206 0.21575 -0.0597l3.00274 -1.9506c0.0586 -0.0374 0.1068 -0.08895 0.1402 -0.1499 0.0334 -0.06095 0.0509 -0.12933 0.0509 -0.19883 0 -0.06951 -0.0175 -0.13789 -0.0509 -0.19884 -0.0334 -0.06095 -0.0816 -0.11251 -0.1402 -0.14991L9.33746 7.4113c-0.06518 -0.03907 -0.13975 -0.05971 -0.21575 -0.05971 -0.07599 0 -0.15056 0.02064 -0.21575 0.05971 -0.06631 0.03544 -0.12171 0.08829 -0.16024 0.15286 -0.03854 0.06457 -0.05875 0.13842 -0.05846 0.21361v3.87753Z" stroke-width="1"></path></g></svg>