<svg xmlns="http://www.w3.org/2000/svg" fill="none" viewBox="0 0 14 14"><g id="play-list-6--player-television-movies-slider-media-tv-players-video-entertainment"><path id="Vector" stroke="#000000" stroke-linecap="round" stroke-linejoin="round" d="M6.25 9.5c0.55228 0 1 -0.44772 1 -1s-0.44772 -1 -1 -1 -1 0.44772 -1 1 0.44772 1 1 1Z" stroke-width="1"></path><path id="Vector_2" stroke="#000000" stroke-linecap="round" stroke-linejoin="round" d="M8.74 5.00001c-0.42042 -0.34036 -0.94938 -0.51786 -1.49 -0.5v4" stroke-width="1"></path><path id="Vector_3" stroke="#000000" stroke-linecap="round" stroke-linejoin="round" d="M10 1.5H4c-0.55228 0 -1 0.44772 -1 1v9c0 0.5523 0.44772 1 1 1h6c0.5523 0 1 -0.4477 1 -1v-9c0 -0.55228 -0.4477 -1 -1 -1Z" stroke-width="1"></path><path id="Vector_4" stroke="#000000" stroke-linecap="round" stroke-linejoin="round" d="M0.5 3v8" stroke-width="1"></path><path id="Vector_5" stroke="#000000" stroke-linecap="round" stroke-linejoin="round" d="M13.5 3v8" stroke-width="1"></path></g></svg>