<svg xmlns="http://www.w3.org/2000/svg" fill="none" viewBox="0 0 14 14"><g id="play-list-7--player-television-movies-slider-media-tv-players-video-list-entertainment"><path id="Vector" stroke="#000000" stroke-linecap="round" stroke-linejoin="round" d="M9.25 13.5c0.69036 0 1.25 -0.5596 1.25 -1.25S9.94036 11 9.25 11 8 11.5596 8 12.25s0.55964 1.25 1.25 1.25Z" stroke-width="1"></path><path id="Vector_2" stroke="#000000" stroke-linecap="round" stroke-linejoin="round" d="M10.5 12.25V7.5c0.3807 -0.02298 0.7621 0.03122 1.1213 0.15935 0.3592 0.12814 0.6888 0.32756 0.9691 0.58628 0.2802 0.25872 0.5052 0.57142 0.6615 0.9193 0.1563 0.34787 0.2407 0.72376 0.2481 1.10507" stroke-width="1"></path><path id="Vector_3" stroke="#000000" stroke-linecap="round" stroke-linejoin="round" d="M4 1h6" stroke-width="1"></path><path id="Vector_4" stroke="#000000" stroke-linecap="round" stroke-linejoin="round" d="M4 5h6" stroke-width="1"></path><path id="Vector_5" stroke="#000000" stroke-linecap="round" stroke-linejoin="round" d="M4 9h2.5" stroke-width="1"></path><g id="Group 10"><path id="Ellipse 1" stroke="#000000" stroke-linecap="round" stroke-linejoin="round" d="M0.75 1.25C0.611929 1.25 0.5 1.13807 0.5 1 0.5 0.861929 0.611929 0.75 0.75 0.75" stroke-width="1"></path><path id="Ellipse 2" stroke="#000000" stroke-linecap="round" stroke-linejoin="round" d="M0.75 1.25C0.888071 1.25 1 1.13807 1 1 1 0.861929 0.888071 0.75 0.75 0.75" stroke-width="1"></path></g><g id="Group 4530"><path id="Ellipse 1_2" stroke="#000000" stroke-linecap="round" stroke-linejoin="round" d="M0.75 5.25C0.611929 5.25 0.5 5.13807 0.5 5s0.111929 -0.25 0.25 -0.25" stroke-width="1"></path><path id="Ellipse 2_2" stroke="#000000" stroke-linecap="round" stroke-linejoin="round" d="M0.75 5.25C0.888071 5.25 1 5.13807 1 5s-0.111929 -0.25 -0.25 -0.25" stroke-width="1"></path></g><g id="Group 4531"><path id="Ellipse 1_3" stroke="#000000" stroke-linecap="round" stroke-linejoin="round" d="M0.75 9.25C0.611929 9.25 0.5 9.13807 0.5 9s0.111929 -0.25 0.25 -0.25" stroke-width="1"></path><path id="Ellipse 2_3" stroke="#000000" stroke-linecap="round" stroke-linejoin="round" d="M0.75 9.25C0.888071 9.25 1 9.13807 1 9s-0.111929 -0.25 -0.25 -0.25" stroke-width="1"></path></g></g></svg>