<svg xmlns="http://www.w3.org/2000/svg" fill="none" viewBox="0 0 14 14"><g id="politics-debate"><path id="Vector" stroke="#000000" stroke-linecap="round" stroke-linejoin="round" d="M2.65506 7.40393c0.61907 0 1.12094 -0.50187 1.12094 -1.12094 0 -0.61908 -0.50187 -1.12094 -1.12094 -1.12094 -0.61908 0 -1.12094 0.50186 -1.12094 1.12094 0 0.61907 0.50186 1.12094 1.12094 1.12094Z" stroke-width="1"></path><path id="Ellipse 6" stroke="#000000" stroke-linecap="round" stroke-linejoin="round" d="M4.68119 9.10401c-0.35983 -0.75742 -1.13189 -1.28107 -2.02621 -1.28107 -0.89432 0 -1.666289 0.52365 -2.026074 1.28107" stroke-width="1"></path><path id="Vector 1069" stroke="#000000" stroke-linecap="round" stroke-linejoin="round" d="m0.628906 10.3978 5.531234 0" stroke-width="1"></path><path id="Vector 1071" stroke="#000000" stroke-linecap="round" stroke-linejoin="round" d="M5.30388 10.3977 5 13.3749" stroke-width="1"></path><path id="Vector_2" stroke="#000000" stroke-linecap="round" stroke-linejoin="round" d="M11.384 7.40393c-0.6191 0 -1.1209 -0.50187 -1.1209 -1.12094 0 -0.61908 0.5018 -1.12094 1.1209 -1.12094s1.1209 0.50186 1.1209 1.12094c0 0.61907 -0.5018 1.12094 -1.1209 1.12094Z" stroke-width="1"></path><path id="Ellipse 7" stroke="#000000" stroke-linecap="round" stroke-linejoin="round" d="M9.35788 9.10401c0.35983 -0.75742 1.13192 -1.28107 2.02622 -1.28107 0.8943 0 1.6663 0.52365 2.0261 1.28107" stroke-width="1"></path><path id="Vector 1072" stroke="#000000" stroke-linecap="round" stroke-linejoin="round" d="m13.4102 10.3978 -5.53128 0" stroke-width="1"></path><path id="Vector 1073" stroke="#000000" stroke-linecap="round" stroke-linejoin="round" d="M8.69612 10.3978 9 13.375" stroke-width="1"></path><path id="Vector 1079" stroke="#000000" stroke-linecap="round" stroke-linejoin="round" d="M4.34766 1.05078v3.18933H7.4577l1.33288 1.31067v-4.5H4.34766Z" stroke-width="1"></path></g></svg>