<svg xmlns="http://www.w3.org/2000/svg" fill="none" viewBox="0 0 14 14"><g id="portrait-view--photos-photo-picture-photography-pictures-view-eye-image"><path id="Vector" stroke="#000000" stroke-linecap="round" stroke-linejoin="round" d="M4 10.5H1.5c-0.26522 0 -0.51957 -0.1054 -0.707107 -0.2929C0.605357 10.0196 0.5 9.76522 0.5 9.5v-8c0 -0.26522 0.105357 -0.51957 0.292893 -0.707107C0.98043 0.605357 1.23478 0.5 1.5 0.5h8c0.26522 0 0.5196 0.105357 0.7071 0.292893 0.1875 0.187537 0.2929 0.441887 0.2929 0.707107v4.75" stroke-width="1"></path><path id="Vector_2" stroke="#000000" stroke-linecap="round" stroke-linejoin="round" d="M5.5 5.25c0.82843 0 1.5 -0.67157 1.5 -1.5s-0.67157 -1.5 -1.5 -1.5S4 2.92157 4 3.75s0.67157 1.5 1.5 1.5Z" stroke-width="1"></path><path id="Vector_3" stroke="#000000" stroke-linecap="round" stroke-linejoin="round" d="M2.7 8.15c0.32547 -0.43526 0.7481 -0.78849 1.23422 -1.03155C4.42034 6.87539 4.9565 6.74922 5.5 6.75c0.54349 -0.00078 1.07966 0.12539 1.56577 0.36845 0.09645 0.04822 0.1904 0.10078 0.28158 0.15746" stroke-width="1"></path><path id="Vector_4" stroke="#000000" stroke-linecap="round" stroke-linejoin="round" d="M6.32763 10.408c-0.32822 0.3332 -0.32822 0.8508 0 1.184 0.7282 0.7393 2.09564 1.908 3.46309 1.908 1.36748 0 2.73488 -1.1687 3.46308 -1.908 0.3282 -0.3332 0.3282 -0.8508 0 -1.184 -0.7282 -0.73931 -2.0956 -1.908 -3.46308 -1.908 -1.36745 0 -2.73489 1.16869 -3.46309 1.908Z" stroke-width="1"></path><path id="Vector_5" stroke="#000000" stroke-linecap="round" stroke-linejoin="round" d="M9.79074 11.5c-0.27614 0 -0.5 -0.2239 -0.5 -0.5s0.22386 -0.5 0.5 -0.5c0.27616 0 0.49996 0.2239 0.49996 0.5s-0.2238 0.5 -0.49996 0.5Z" stroke-width="1"></path></g></svg>