<svg xmlns="http://www.w3.org/2000/svg" fill="none" viewBox="0 0 14 14"><g id="pouch"><path id="Vector 3" stroke="#000000" stroke-linecap="round" stroke-linejoin="round" d="M7.00002 13.5c-2.57454 0 -5.57143 -1.0465 -5.57143 -3.71429 0 -3.34031 1.93594 -5.15974 3.71428 -6.03571L3.81722 1.21093c-0.1938 -0.368219 0.16038 -0.799137 0.56329 -0.695177 0.7906 0.203991 1.84505 0.448533 2.61951 0.448533 0.77446 0 1.84238 -0.244542 2.63297 -0.448533 0.40291 -0.10396 0.75711 0.326958 0.56331 0.695177L8.85716 3.75c1.77834 0.87597 3.71424 2.6954 3.71424 6.03571 0 2.66779 -2.99685 3.71429 -5.57138 3.71429Z" stroke-width="1"></path><path id="Vector 950" stroke="#000000" stroke-linecap="round" stroke-linejoin="round" d="M5.14288 3.75c0.30953 0.46429 0.92857 0.92857 1.85715 0.92857 0.92857 0 1.54761 -0.46428 1.85714 -0.92857" stroke-width="1"></path></g></svg>