<svg xmlns="http://www.w3.org/2000/svg" fill="none" viewBox="0 0 14 14"><g id="pouch-remove-2"><path id="Vector 3" stroke="#000000" stroke-linecap="round" stroke-linejoin="round" d="M11.5567 7.92857C10.9978 5.74319 9.48181 4.4475 8.06578 3.75l1.33913 -2.53907c0.1938 -0.368219 -0.16039 -0.799137 -0.5633 -0.695177 -0.79059 0.203991 -1.85852 0.448533 -2.63297 0.448533 -0.77446 0 -1.82891 -0.244542 -2.61951 -0.448533 -0.40291 -0.10396 -0.75709 0.326958 -0.56329 0.695177L4.35149 3.75C2.57314 4.62597 0.637207 6.4454 0.637207 9.78571 0.637207 12.4535 3.6341 13.5 6.20864 13.5c0.45734 0 0.92802 -0.033 1.39285 -0.1023" stroke-width="1"></path><path id="Vector 950" stroke="#000000" stroke-linecap="round" stroke-linejoin="round" d="M4.35144 3.75c0.30952 0.46429 0.92857 0.92857 1.85714 0.92857 0.92858 0 1.54762 -0.46428 1.85715 -0.92857" stroke-width="1"></path><path id="Vector" stroke="#000000" stroke-linecap="round" stroke-linejoin="round" d="M13.5 10.5h-5" stroke-width="1"></path></g></svg>