<svg xmlns="http://www.w3.org/2000/svg" fill="none" viewBox="0 0 14 14"><g id="pouch-add-1"><path id="Vector 3" stroke="#000000" stroke-linecap="round" stroke-linejoin="round" d="M6.07093 3.75 4.74528 1.21093c-0.1938 -0.368219 0.16038 -0.799137 0.56329 -0.695177 0.7906 0.203991 1.84505 0.448533 2.61951 0.448533 0.77445 0 1.84238 -0.244542 2.63302 -0.448533 0.4029 -0.10396 0.757 0.326958 0.5632 0.695177L9.78522 3.75c1.77838 0.87597 3.71428 2.6954 3.71428 6.03571 0 2.66779 -2.9969 3.71429 -5.57142 3.71429 -1.86084 0 -3.94231 -0.5467 -4.95335 -1.8571" stroke-width="1"></path><path id="Vector 950" stroke="#000000" stroke-linecap="round" stroke-linejoin="round" d="M6.07239 3.75c0.30952 0.46429 0.92857 0.92857 1.85714 0.92857S9.47715 4.21429 9.78667 3.75" stroke-width="1"></path><path id="Vector 1184" stroke="#000000" stroke-linecap="round" stroke-linejoin="round" d="m5.60984 6.55078 0.46207 2.3103 -1.84828 0.46209" stroke-width="1"></path><path id="Vector 1186" stroke="#000000" stroke-linecap="round" stroke-linejoin="round" d="M0.534058 7.89353c0.396738 -0.29177 1.602332 -0.75529 2.514292 -0.69655 1.13996 0.07343 2.61847 1.09622 3.02398 1.66028" stroke-width="1"></path></g></svg>