<svg xmlns="http://www.w3.org/2000/svg" fill="none" viewBox="0 0 14 14"><g id="pouch-add-2"><path id="Vector 951" stroke="#000000" stroke-linecap="round" stroke-linejoin="round" d="M10.0282 5.16832C9.42639 4.54181 8.73568 4.07926 8.06724 3.75l1.33913 -2.53907c0.1938 -0.368219 -0.16038 -0.799137 -0.56329 -0.695177 -0.7906 0.203991 -1.85852 0.448533 -2.63298 0.448533 -0.77446 0 -1.82891 -0.244542 -2.6195 -0.448533 -0.40291 -0.10396 -0.7571 0.326958 -0.5633 0.695177L4.35296 3.75C2.57461 4.62597 0.638672 6.4454 0.638672 9.78571 0.638672 12.4535 3.63556 13.5 6.2101 13.5c0.55358 0 1.12668 -0.0484 1.68533 -0.1509" stroke-width="1"></path><path id="Vector 950" stroke="#000000" stroke-linecap="round" stroke-linejoin="round" d="M4.35303 3.75c0.30952 0.46429 0.92857 0.92857 1.85714 0.92857S7.75779 4.21429 8.06731 3.75" stroke-width="1"></path><path id="Vector" stroke="#000000" stroke-linecap="round" stroke-linejoin="round" d="M13.5 10.5h-5" stroke-width="1"></path><path id="Vector_2" stroke="#000000" stroke-linecap="round" stroke-linejoin="round" d="M11 8v5" stroke-width="1"></path></g></svg>