<svg xmlns="http://www.w3.org/2000/svg" fill="none" viewBox="0 0 14 14"><g id="pouch-remove-1"><path id="Vector 3" stroke="#000000" stroke-linecap="round" stroke-linejoin="round" d="M2.97375 11.6429C3.98479 12.9533 6.06627 13.5 7.9271 13.5c2.5745 0 5.5714 -1.0465 5.5714 -3.71429 0 -3.34031 -1.9359 -5.15974 -3.71426 -6.03571l1.33916 -2.53907c0.1938 -0.368219 -0.1604 -0.799137 -0.5633 -0.695177 -0.79062 0.203991 -1.85854 0.448533 -2.633 0.448533 -0.77446 0 -1.82891 -0.244542 -2.6195 -0.448533 -0.40291 -0.10396 -0.7571 0.326958 -0.5633 0.695177L6.06996 3.75c-0.65936 0.32478 -1.34037 0.77926 -1.93634 1.39286" stroke-width="1"></path><path id="Vector 950" stroke="#000000" stroke-linecap="round" stroke-linejoin="round" d="M6.07141 3.75c0.30953 0.46429 0.92857 0.92857 1.85714 0.92857 0.92858 0 1.54762 -0.46428 1.85715 -0.92857" stroke-width="1"></path><path id="Vector 1184" stroke="#000000" stroke-linecap="round" stroke-linejoin="round" d="M1.21354 9.77239 0.751465 7.46208 2.59975 7" stroke-width="1"></path><path id="Vector 1186" stroke="#000000" stroke-linecap="round" stroke-linejoin="round" d="M6.3871 8.42857c-0.40379 0.29177 -1.63081 0.75529 -2.55899 0.69655C2.66788 9.0517 1.16309 8.02891 0.750366 7.46484" stroke-width="1"></path></g></svg>