<svg xmlns="http://www.w3.org/2000/svg" fill="none" viewBox="0 0 14 14"><g id="pound-circle--pound-sterling-exchange-payment-forex-finance-foreign-currency"><path id="Vector" stroke="#000000" stroke-linecap="round" stroke-linejoin="round" d="M9.06 5.42v-0.36c0 -0.41374 -0.16436 -0.81053 -0.45691 -1.10309C8.31053 3.66436 7.91374 3.5 7.5 3.5v0c-0.41374 0 -0.81053 0.16436 -1.10309 0.45691C6.10436 4.24947 5.94 4.64626 5.94 5.06v3L5 9.5h4.06" stroke-width="1"></path><path id="Vector_2" stroke="#000000" stroke-linecap="round" stroke-linejoin="round" d="M4.5 6.62h2.88" stroke-width="1"></path><path id="Vector_3" stroke="#000000" stroke-linecap="round" stroke-linejoin="round" d="M7 13.5c3.5899 0 6.5 -2.9101 6.5 -6.5C13.5 3.41015 10.5899 0.5 7 0.5 3.41015 0.5 0.5 3.41015 0.5 7c0 3.5899 2.91015 6.5 6.5 6.5Z" stroke-width="1"></path></g></svg>