<svg xmlns="http://www.w3.org/2000/svg" fill="none" viewBox="0 0 14 14"><g id="presentation"><path id="vector" stroke="#000000" stroke-linecap="round" stroke-linejoin="round" d="m11.5 11.5 -9 0" stroke-width="1"></path><path id="rectangle 630" stroke="#000000" stroke-linecap="round" stroke-linejoin="round" d="m10 13.5 0.5 -2 -7 0 0.5 2" stroke-width="1"></path><path id="vector_2" stroke="#000000" stroke-linecap="round" stroke-linejoin="round" d="M6.9995 6.49998c0.82842 0 1.49999 -0.67157 1.49999 -1.49999C8.49949 4.17157 7.82792 3.5 6.9995 3.5c-0.82842 0 -1.49999 0.67157 -1.49999 1.49999 0 0.82842 0.67157 1.49999 1.49999 1.49999Z" stroke-width="1"></path><path id="vector_3" stroke="#000000" stroke-linecap="round" stroke-linejoin="round" d="M4.40137 9.5C4.92008 8.6033 5.8896 8 7.00002 8c1.11042 0 2.07994 0.6033 2.59865 1.5" stroke-width="1"></path><path id="Vector 3985" stroke="#000000" stroke-linecap="round" stroke-linejoin="round" d="M2.5 8.5h-0.9c-0.33137 0 -0.6 -0.26863 -0.6 -0.6V1.6c0 -0.33137 0.26863 -0.6 0.6 -0.6h10.8c0.3314 0 0.6 0.26863 0.6 0.6v6.3c0 0.33137 -0.2686 0.6 -0.6 0.6h-0.9" stroke-width="1"></path></g></svg>