<svg xmlns="http://www.w3.org/2000/svg" fill="none" viewBox="0 0 14 14"><g id="pretzel-bakery"><path id="vector 2116 (stroke)" stroke="#000000" stroke-linecap="round" stroke-linejoin="round" d="M6.9476 11.0608c-0.80286 -0.0329 -1.61175 -0.1816 -2.37195 -0.4547 -0.4238 0.4563 -0.81785 0.8424 -1.10984 1.118 -0.1524 0.1439 -0.27796 0.2585 -0.36666 0.3382 -0.04437 0.0399 -0.07959 0.0712 -0.10442 0.093l-0.0293 0.0257 -0.00853 0.0074 -0.00268 0.0023 -0.00161 0.0014c-0.52238 0.4512 -1.31785 0.4006 -1.77674 -0.113 -0.458749 -0.5135 -0.406987 -1.2957 0.11498 -1.7469l0.00409 -0.0036 0.02019 -0.0177c0.01863 -0.0164 0.04735 -0.0418 0.08496 -0.0756 0.07526 -0.0677 0.18581 -0.1685 0.32198 -0.29708 0.18112 -0.17094 0.40587 -0.38922 0.65213 -0.642 -0.10478 -0.09671 -0.20622 -0.19758 -0.30403 -0.30264C0.732185 7.55639 0.27623 5.89907 0.599868 4.44397 0.917237 3.01705 1.99768 1.83795 3.49934 1.56195c1.46565 -0.26938 2.74405 0.35998 3.42127 1.51202 0.02757 0.04692 0.05403 0.09444 0.07937 0.14253 0.02535 -0.04812 0.05182 -0.09566 0.07941 -0.14259 0.67722 -1.15204 1.95562 -1.7814 3.42131 -1.51202 1.5016 0.27599 2.5821 1.45509 2.8994 2.88201 0.3237 1.4551 -0.1323 3.11242 -1.4703 4.54961 -0.0978 0.10507 -0.1993 0.20591 -0.3041 0.30258 0.1669 0.1713 0.3243 0.32716 0.4654 0.46359 0.1893 0.18297 0.347 0.32892 0.4561 0.42792 0.0545 0.0494 0.0967 0.087 0.1244 0.1116l0.0305 0.0268 0.0072 0.0063c0.5222 0.4511 0.5737 1.2332 0.1148 1.7467 -0.4589 0.5136 -1.2545 0.5641 -1.7769 0.1129l-0.0019 -0.0016 -0.0037 -0.0032 -0.0119 -0.0104 -0.0417 -0.0367c-0.0354 -0.0313 -0.0857 -0.0761 -0.1487 -0.1333 -0.1259 -0.1143 -0.3031 -0.2783 -0.5137 -0.4819 -0.2584 -0.2498 -0.57027 -0.5624 -0.90114 -0.9187 -0.75611 0.272 -1.56306 0.4216 -2.37206 0.4547 -0.03492 0.0014 -0.06988 0.0014 -0.1048 0Z" stroke-width="1"></path><path id="vector 2116 (stroke)_2" fill-rule="evenodd" stroke="#000000" stroke-linecap="round" stroke-linejoin="round" d="M4.07425 7.64268c-0.02569 -0.02399 -0.05092 -0.04825 -0.07567 -0.07277 -1.05523 -1.04535 -1.20107 -2.00536 -1.05157 -2.62526 0.1571 -0.65139 0.62954 -1.01363 1.09338 -1.09225 0.4906 -0.08316 0.83713 0.25138 1.01742 0.53424 0.22236 0.34886 0.30724 0.91292 -0.07978 1.85135 -0.1876 0.45487 -0.52093 0.90236 -0.90378 1.40469Z" clip-rule="evenodd" stroke-width="1"></path><path id="vector 2116 (stroke)_3" fill-rule="evenodd" stroke="#000000" stroke-linecap="round" stroke-linejoin="round" d="M9.92502 7.64292c0.02569 -0.02399 0.05092 -0.04824 0.07568 -0.07277 1.0552 -1.04535 1.2011 -2.00536 1.0516 -2.62525 -0.1571 -0.6514 -0.6296 -1.01363 -1.09342 -1.09225 -0.4906 -0.08316 -0.83713 0.25138 -1.01742 0.53424 -0.22237 0.34886 -0.30725 0.91291 0.07978 1.85134 0.1876 0.45487 0.52092 0.90237 0.90378 1.40469Z" clip-rule="evenodd" stroke-width="1"></path><path id="vector 2116 (stroke)_4" stroke="#000000" stroke-linecap="round" stroke-linejoin="round" d="M7.75079 8.48423c-0.29052 -0.44112 -0.55226 -0.90482 -0.74991 -1.37424 -0.19652 0.46655 -0.45773 0.93022 -0.75024 1.37447 0.50939 0.09257 0.9908 0.09249 1.50015 -0.00023Z" stroke-width="1"></path></g></svg>