<svg xmlns="http://www.w3.org/2000/svg" fill="none" viewBox="0 0 14 14"><g id="production-belt-time--production-time-produce-box-clock-belt-factory"><path id="Vector" stroke="#000000" stroke-linecap="round" stroke-linejoin="round" d="M10.7 6.1c1.5464 0 2.8 -1.2536 2.8 -2.8 0 -1.5464 -1.2536 -2.8 -2.8 -2.8 -1.5464 0 -2.80001 1.2536 -2.80001 2.8 0 1.5464 1.25361 2.8 2.80001 2.8Z" stroke-width="1"></path><path id="Vector_2" stroke="#000000" stroke-linecap="round" stroke-linejoin="round" d="m10.7 3.3001 0.7 -0.7" stroke-width="1"></path><path id="Vector_3" stroke="#000000" stroke-linecap="round" stroke-linejoin="round" d="M4.5 4.5h-4v4h4v-4Z" stroke-width="1"></path><path id="Vector_4" stroke="#000000" stroke-linecap="round" stroke-linejoin="round" d="M0.5 13.5H11c1.4 0 2.5 -1.1 2.5 -2.5S12.4 8.5 11 8.5H0.5" stroke-width="1"></path><g id="Group 4547"><path id="Ellipse 1117" stroke="#000000" stroke-linecap="round" stroke-linejoin="round" d="M0.800003 11.25c0.138071 0 0.249997 -0.1119 0.249997 -0.25s-0.111926 -0.25 -0.249997 -0.25" stroke-width="1"></path><path id="Ellipse 1116" stroke="#000000" stroke-linecap="round" stroke-linejoin="round" d="M0.800003 11.25c-0.138071 0 -0.25 -0.1119 -0.25 -0.25s0.111929 -0.25 0.25 -0.25" stroke-width="1"></path></g><g id="Group 4548"><path id="Ellipse 1117_2" stroke="#000000" stroke-linecap="round" stroke-linejoin="round" d="M5.8 11.25c0.13807 0 0.25 -0.1119 0.25 -0.25s-0.11193 -0.25 -0.25 -0.25" stroke-width="1"></path><path id="Ellipse 1116_2" stroke="#000000" stroke-linecap="round" stroke-linejoin="round" d="M5.8 11.25c-0.13807 0 -0.25 -0.1119 -0.25 -0.25s0.11193 -0.25 0.25 -0.25" stroke-width="1"></path></g><g id="Group 4549"><path id="Ellipse 1117_3" stroke="#000000" stroke-linecap="round" stroke-linejoin="round" d="M10.8 11.25c0.1381 0 0.25 -0.1119 0.25 -0.25s-0.1119 -0.25 -0.25 -0.25" stroke-width="1"></path><path id="Ellipse 1116_3" stroke="#000000" stroke-linecap="round" stroke-linejoin="round" d="M10.8 11.25c-0.1381 0 -0.25 -0.1119 -0.25 -0.25s0.1119 -0.25 0.25 -0.25" stroke-width="1"></path></g></g></svg>