<svg xmlns="http://www.w3.org/2000/svg" fill="none" viewBox="0 0 14 14"><g id="prosthetic-arm--disability-prosthetic-arm"><path id="Vector 5078" stroke="#000000" stroke-linecap="round" stroke-linejoin="round" d="m5.5 11.5 -1.82322 1.8232c-0.11319 0.1132 -0.26671 0.1768 -0.42678 0.1768s-0.31359 -0.0636 -0.42678 -0.1768l-1.14644 -1.1464C1.56359 12.0636 1.5 11.9101 1.5 11.75c0 -0.1601 0.06359 -0.3136 0.17678 -0.4268L3.5 9.5l2 2Z" stroke-width="1"></path><path id="Vector 5080" stroke="#000000" stroke-linecap="round" stroke-linejoin="round" d="m6.64645 9.64645 -1.2929 -1.29289c-0.19526 -0.19526 -0.19526 -0.51184 0 -0.70711L8.5138 4.48621c0.11686 0.99325 0.96154 1.7638 1.9862 1.7638 0.0908 0 0.1802 -0.00605 0.2678 -0.01777L7.35355 9.64645c-0.19526 0.19527 -0.51184 0.19527 -0.7071 0Z" stroke-width="1"></path><path id="Vector 5079" stroke="#000000" stroke-linecap="round" stroke-linejoin="round" d="M4.5 10.5 6 9" stroke-width="1"></path><path id="Ellipse 2015" stroke="#000000" stroke-linecap="round" stroke-linejoin="round" d="M8.5 4.25a2 2 0 1 0 4 0 2 2 0 1 0 -4 0" stroke-width="1"></path><path id="Vector 5081" stroke="#000000" stroke-linecap="round" stroke-linejoin="round" d="M8.5 4.25 8 0.5" stroke-width="1"></path><path id="Vector 5082" stroke="#000000" stroke-linecap="round" stroke-linejoin="round" d="M12.5 4.35V0.5" stroke-width="1"></path></g></svg>