<svg xmlns="http://www.w3.org/2000/svg" fill="none" viewBox="0 0 14 14"><g id="quotation-3--quote-quotation-format-formatting-open-close-marks-text"><path id="Vector" stroke="#000000" stroke-linecap="round" stroke-linejoin="round" d="M2.16132 5.17226c0.1282 0.09127 0.23284 0.21174 0.30528 0.35144 0.07244 0.1397 0.1106 0.29464 0.11132 0.452 0.02011 0.14391 0.00478 0.29054 -0.04465 0.42718 -0.04942 0.13664 -0.13145 0.25915 -0.23897 0.35689 -0.10751 0.09774 -0.23726 0.16776 -0.37798 0.20398 -0.14071 0.03622 -0.28814 0.03754 -0.42949 0.00385C0.534607 6.71963 0.0882518 5.30121 0.990882 3" stroke-width="1"></path><path id="Vector_2" stroke="#000000" stroke-linecap="round" stroke-linejoin="round" d="M5.70284 5.17226c0.13003 0.09019 0.23659 0.21018 0.31079 0.34995 0.0742 0.13977 0.11388 0.29526 0.11573 0.45349 0.02011 0.14391 0.00478 0.29054 -0.04465 0.42718 -0.04942 0.13664 -0.13146 0.25915 -0.23897 0.35689 -0.10752 0.09774 -0.23726 0.16776 -0.37798 0.20398 -0.14072 0.03622 -0.28814 0.03754 -0.42949 0.00385C4.04637 6.77914 3.63969 5.32105 4.51256 3" stroke-width="1"></path><path id="Vector_3" stroke="#000000" stroke-linecap="round" stroke-linejoin="round" d="M11.8231 8.82772c-0.1282 -0.09127 -0.2328 -0.21173 -0.3052 -0.35144 -0.0725 -0.1397 -0.1106 -0.29463 -0.1114 -0.452 -0.0201 -0.1439 -0.0047 -0.29054 0.0447 -0.42718 0.0494 -0.13664 0.1314 -0.25914 0.239 -0.35688 0.1075 -0.09775 0.2372 -0.16777 0.3779 -0.20398 0.1408 -0.03622 0.2882 -0.03755 0.4295 -0.00386 0.9919 0.18846 1.3986 1.64655 0.5158 3.96762" stroke-width="1"></path><path id="Vector_4" stroke="#000000" stroke-linecap="round" stroke-linejoin="round" d="M8.28178 8.82772c-0.13002 -0.09019 -0.23659 -0.21018 -0.31078 -0.34995 -0.0742 -0.13976 -0.11388 -0.29526 -0.11573 -0.45349 -0.02011 -0.1439 -0.00478 -0.29054 0.04465 -0.42718 0.04942 -0.13664 0.13145 -0.25914 0.23897 -0.35688 0.10751 -0.09775 0.23726 -0.16777 0.37798 -0.20398 0.14071 -0.03622 0.28814 -0.03755 0.42949 -0.00386 0.9919 0.18846 1.39854 1.64655 0.5257 3.96762" stroke-width="1"></path></g></svg>