<svg xmlns="http://www.w3.org/2000/svg" fill="none" viewBox="0 0 14 14"><g id="rabbit--nature-head-pet-animals"><path id="Vector" stroke="#000000" stroke-linecap="round" stroke-linejoin="round" d="M7 11.5v0.5m0 0c0 0.8284 -0.67157 1.5 -1.5 1.5h-0.75c-1.24264 0 -2.25 -1.0074 -2.25 -2.25 0 -0.7801 0.39701 -1.46748 1 -1.87111V9c0 -0.33153 0.04609 -0.65229 0.13222 -0.95622L1.61589 2.80132C1.53929 2.60214 1.5 2.39056 1.5 2.17716v-0.12901c0 -0.63305 0.38541 -1.202315 0.97318 -1.437421C2.65605 0.537582 2.85119 0.5 3.04815 0.5h0.05777c0.82518 0 1.55037 0.54702 1.77706 1.34044l1.08939 3.81285C6.29732 5.55363 6.6424 5.5 7 5.5c0.3576 0 0.70268 0.05363 1.02763 0.15329l1.08939 -3.81285C9.34371 1.04702 10.0689 0.5 10.8941 0.5h0.0578c0.1969 0 0.3921 0.037582 0.5749 0.110729 0.5878 0.235106 0.9732 0.804371 0.9732 1.437421v0.12901c0 0.2134 -0.0393 0.42498 -0.1159 0.62416l-2.0163 5.24246c0.0861 0.30393 0.1322 0.62469 0.1322 0.95622v0.37889c0.603 0.40363 1 1.09101 1 1.87111 0 1.2426 -1.0074 2.25 -2.25 2.25H8.5c-0.82843 0 -1.5 -0.6716 -1.5 -1.5Z" stroke-width="1"></path><path id="Vector 1633" stroke="#000000" stroke-linecap="round" stroke-linejoin="round" d="M7.75 11h-1.5l0.75 0.5 0.75 -0.5Z" stroke-width="1"></path><g id="Group 4539"><path id="Vector_2" stroke="#000000" stroke-linecap="round" stroke-linejoin="round" d="M5.75 9c-0.13807 0 -0.25 -0.11193 -0.25 -0.25s0.11193 -0.25 0.25 -0.25" stroke-width="1"></path><path id="Vector_3" stroke="#000000" stroke-linecap="round" stroke-linejoin="round" d="M5.75 9c0.13807 0 0.25 -0.11193 0.25 -0.25s-0.11193 -0.25 -0.25 -0.25" stroke-width="1"></path></g><g id="Group 4538"><path id="Vector_4" stroke="#000000" stroke-linecap="round" stroke-linejoin="round" d="M8.25 9C8.11193 9 8 8.88807 8 8.75s0.11193 -0.25 0.25 -0.25" stroke-width="1"></path><path id="Vector_5" stroke="#000000" stroke-linecap="round" stroke-linejoin="round" d="M8.25 9c0.13807 0 0.25 -0.11193 0.25 -0.25s-0.11193 -0.25 -0.25 -0.25" stroke-width="1"></path></g><path id="Vector_6" stroke="#000000" stroke-linecap="round" stroke-linejoin="round" d="M4.71143 6.3518C5.32503 5.82106 6.12501 5.5 6.99997 5.5c0.87497 0 1.67495 0.32106 2.28855 0.8518" stroke-width="1"></path></g></svg>