<svg xmlns="http://www.w3.org/2000/svg" fill="none" viewBox="0 0 14 14"><g id="radioactive-1--danger-nuke-radiation-nuclear-warning-alert-radioactive-caution"><path id="Vector" stroke="#000000" stroke-linecap="round" stroke-linejoin="round" d="M6 4.82994 3.75 0.939941C2.76254 1.50888 1.9423 2.32781 1.37179 3.31436 0.801271 4.30092 0.500595 5.4203 0.5 6.55994H5c0.00036 -0.35072 0.09294 -0.69519 0.26846 -0.99884 0.17552 -0.30364 0.4278 -0.5558 0.73154 -0.73116Z" stroke-width="1"></path><path id="Vector_2" stroke="#000000" stroke-linecap="round" stroke-linejoin="round" d="M9 6.55994h4.5c-0.0006 -1.13964 -0.3013 -2.25902 -0.8718 -3.24558 -0.5705 -0.98655 -1.3907 -1.80548 -2.3782 -2.374419L8 4.82994c0.30374 0.17536 0.55602 0.42752 0.73154 0.73116 0.17552 0.30365 0.2681 0.64812 0.26846 0.99884Z" stroke-width="1"></path><path id="Vector_3" stroke="#000000" stroke-linecap="round" stroke-linejoin="round" d="M7 8.56005c-0.35035 0.00242 -0.69519 -0.08724 -1 -0.26L3.75 12.19c0.98846 0.5696 2.10921 0.8693 3.25 0.8693s2.26154 -0.2997 3.25 -0.8693L8 8.30005c-0.30481 0.17276 -0.64965 0.26242 -1 0.26v0Z" stroke-width="1"></path></g></svg>