<svg xmlns="http://www.w3.org/2000/svg" fill="none" viewBox="0 0 14 14"><g id="rain-chance--rain-chance-umbrella-percent"><path id="Vector" stroke="#000000" stroke-linecap="round" stroke-linejoin="round" d="m9.5 13.5 4 -4" stroke-width="1"></path><path id="Vector_2" stroke="#000000" stroke-linecap="round" stroke-linejoin="round" d="M10 10.5c0.2761 0 0.5 -0.2239 0.5 -0.5 0 -0.27614 -0.2239 -0.5 -0.5 -0.5 -0.27614 0 -0.5 0.22386 -0.5 0.5 0 0.2761 0.22386 0.5 0.5 0.5Z" stroke-width="1"></path><path id="Vector_3" stroke="#000000" stroke-linecap="round" stroke-linejoin="round" d="M13 13.5c0.2761 0 0.5 -0.2239 0.5 -0.5s-0.2239 -0.5 -0.5 -0.5 -0.5 0.2239 -0.5 0.5 0.2239 0.5 0.5 0.5Z" stroke-width="1"></path><path id="Vector 3671" stroke="#000000" stroke-linecap="round" stroke-linejoin="round" d="M11 6.75v0.75H0.5v-0.75C0.5 3.85051 2.8505 1.5 5.75 1.5 8.64949 1.5 11 3.85051 11 6.75Z" stroke-width="1"></path><path id="Vector 3672" stroke="#000000" stroke-linecap="round" stroke-linejoin="round" d="M5.75 7.5V12c0 0.8284 -0.67157 1.5 -1.5 1.5v0c-0.82843 0 -1.5 -0.6716 -1.5 -1.5v0" stroke-width="1"></path><path id="Vector 3673" stroke="#000000" stroke-linecap="round" stroke-linejoin="round" d="M5.75 1.5v-1" stroke-width="1"></path></g></svg>