<svg xmlns="http://www.w3.org/2000/svg" fill="none" viewBox="0 0 14 14"><g id="rat--nature-head-pet-animals"><path id="Vector" stroke="#000000" stroke-linecap="round" stroke-linejoin="round" d="M11 9V5.94999c1.1411 -0.23163 2 -1.24051 2 -2.44999C13 2.11929 11.8807 1 10.5 1c-1.24015 0 -2.26939 0.90299 -2.4661 2.08734C7.71183 3.03227 7.36667 3 7 3c-0.36667 0 -0.71183 0.03227 -1.0339 0.08734C5.76939 1.90299 4.74015 1 3.5 1 2.11929 1 1 2.11929 1 3.5c0 1.20948 0.85888 2.21836 2 2.44999V9c0 2.2091 1.79086 4 4 4s4 -1.7909 4 -4Z" stroke-width="1"></path><path id="Vector_2" stroke="#000000" stroke-linecap="round" stroke-linejoin="round" d="M10.9708 9.48547 13 10.5001" stroke-width="1"></path><path id="Vector_3" stroke="#000000" stroke-linecap="round" stroke-linejoin="round" d="M10.2841 11.2842 11.5 12.5" stroke-width="1"></path><path id="Vector_4" stroke="#000000" stroke-linecap="round" stroke-linejoin="round" d="M3.02916 9.48547 1 10.5001" stroke-width="1"></path><path id="Vector_5" stroke="#000000" stroke-linecap="round" stroke-linejoin="round" d="M3.71586 11.2842 2.5 12.5" stroke-width="1"></path><g id="Group 4537"><path id="Vector_6" stroke="#000000" stroke-linecap="round" stroke-linejoin="round" d="M5.25 7.5c-0.13807 0 -0.25 -0.11193 -0.25 -0.25S5.11193 7 5.25 7" stroke-width="1"></path><path id="Vector_7" stroke="#000000" stroke-linecap="round" stroke-linejoin="round" d="M5.25 7.5c0.13807 0 0.25 -0.11193 0.25 -0.25S5.38807 7 5.25 7" stroke-width="1"></path></g><g id="Group 4536"><path id="Vector_8" stroke="#000000" stroke-linecap="round" stroke-linejoin="round" d="M8.75 7.5c-0.13807 0 -0.25 -0.11193 -0.25 -0.25S8.61193 7 8.75 7" stroke-width="1"></path><path id="Vector_9" stroke="#000000" stroke-linecap="round" stroke-linejoin="round" d="M8.75 7.5c0.13807 0 0.25 -0.11193 0.25 -0.25S8.88807 7 8.75 7" stroke-width="1"></path></g><path id="Vector 1633" stroke="#000000" stroke-linecap="round" stroke-linejoin="round" d="M7.75 10h-1.5l0.75 0.5 0.75 -0.5Z" stroke-width="1"></path></g></svg>