<svg xmlns="http://www.w3.org/2000/svg" fill="none" viewBox="0 0 14 14"><g id="recycle-bin-alert--remove-delete-empty-bin-trash-garbage-full-alert-warning"><path id="Vector" stroke="#000000" stroke-linecap="round" stroke-linejoin="round" d="M1 3.5h12" stroke-width="1"></path><path id="Vector_2" stroke="#000000" stroke-linecap="round" stroke-linejoin="round" d="M2.5 3.5h9v9c0 0.2652 -0.1054 0.5196 -0.2929 0.7071s-0.4419 0.2929 -0.7071 0.2929h-7c-0.26522 0 -0.51957 -0.1054 -0.70711 -0.2929C2.60536 13.0196 2.5 12.7652 2.5 12.5v-9Z" stroke-width="1"></path><path id="Vector_3" stroke="#000000" stroke-linecap="round" stroke-linejoin="round" d="M4.5 3.5V3c0 -0.66304 0.26339 -1.29893 0.73223 -1.76777C5.70107 0.763392 6.33696 0.5 7 0.5c0.66304 0 1.29893 0.263392 1.76777 0.73223C9.23661 1.70107 9.5 2.33696 9.5 3v0.5" stroke-width="1"></path><path id="Vector_4" stroke="#000000" stroke-linecap="round" stroke-linejoin="round" d="M7 5.75v2.5" stroke-width="1"></path><g id="Group 2605"><path id="Ellipse 1111" stroke="#000000" stroke-linecap="round" stroke-linejoin="round" d="M7 11c-0.13807 0 -0.25 -0.1119 -0.25 -0.25s0.11193 -0.25 0.25 -0.25" stroke-width="1"></path><path id="Ellipse 1112" stroke="#000000" stroke-linecap="round" stroke-linejoin="round" d="M7 11c0.13807 0 0.25 -0.1119 0.25 -0.25s-0.11193 -0.25 -0.25 -0.25" stroke-width="1"></path></g></g></svg>