<svg xmlns="http://www.w3.org/2000/svg" fill="none" viewBox="0 0 14 14"><g id="reddit"><path id="Vector 528" stroke="#000000" stroke-linecap="round" stroke-linejoin="round" d="M5.41162 10.698c0.2644 0.1322 0.95184 0.3966 1.58639 0.3966 0.63456 0 1.32199 -0.2644 1.58639 -0.3966" stroke-width="1"></path><path id="Vector 527" stroke="#000000" stroke-linecap="round" stroke-linejoin="round" d="m6.64453 5.58203 0.39659 -2.52352c0.16825 -1.08286 1.25517 -1.74202 2.2736 -1.43315" stroke-width="1"></path><path id="Ellipse 50" stroke="#000000" stroke-linecap="round" stroke-linejoin="round" d="M9.315 1.588a1.088 1.088 0 1 0 2.176 0 1.088 1.088 0 1 0 -2.176 0" stroke-width="1"></path><path id="Union" stroke="#000000" stroke-linecap="round" stroke-linejoin="round" d="M12.4984 9.45181c0 2.14059 -2.4685 3.87589 -5.51348 3.87589 -3.04501 0 -5.51349 -1.7353 -5.51349 -3.87589 0 -0.0534 0.00154 -0.10656 0.00458 -0.15944C0.896585 8.97223 0.5 8.3215 0.5 7.57082c0 -1.06751 0.802 -1.9329 1.79133 -1.9329 0.55994 0 1.05987 0.27721 1.38836 0.71139 0.92099 -0.48565 2.06531 -0.77338 3.30523 -0.77338 1.24959 0 2.40208 0.29223 3.32668 0.78477 0.3284 -0.44071 0.8321 -0.72278 1.397 -0.72278 0.9893 0 1.7913 0.86539 1.7913 1.9329 0 0.76321 -0.41 1.42311 -1.0052 1.73731 0.0025 0.04768 0.0037 0.09558 0.0037 0.14368Z" stroke-width="1"></path><g id="Group 4546"><path id="Vector" stroke="#000000" stroke-linecap="round" stroke-linejoin="round" d="M5.10254 8.7334c-0.13807 0 -0.25 -0.11193 -0.25 -0.25s0.11193 -0.25 0.25 -0.25" stroke-width="1"></path><path id="Vector_2" stroke="#000000" stroke-linecap="round" stroke-linejoin="round" d="M5.10254 8.7334c0.13807 0 0.25 -0.11193 0.25 -0.25s-0.11193 -0.25 -0.25 -0.25" stroke-width="1"></path></g><g id="Group 4548"><path id="Vector_3" stroke="#000000" stroke-linecap="round" stroke-linejoin="round" d="M8.89355 8.7334c-0.13807 0 -0.25 -0.11193 -0.25 -0.25s0.11193 -0.25 0.25 -0.25" stroke-width="1"></path><path id="Vector_4" stroke="#000000" stroke-linecap="round" stroke-linejoin="round" d="M8.89355 8.7334c0.13808 0 0.25 -0.11193 0.25 -0.25s-0.11192 -0.25 -0.25 -0.25" stroke-width="1"></path></g></g></svg>