<svg xmlns="http://www.w3.org/2000/svg" fill="none" viewBox="0 0 14 14"><g id="remove-filter-slide"><path id="Vector" stroke="#000000" stroke-linecap="round" stroke-linejoin="round" d="M2 5.5c0.82843 0 1.5 -0.67157 1.5 -1.5S2.82843 2.5 2 2.5 0.5 3.17157 0.5 4 1.17157 5.5 2 5.5Z" stroke-width="1"></path><path id="Vector_2" stroke="#000000" stroke-linecap="round" stroke-linejoin="round" d="M2 5.5v7" stroke-width="1"></path><path id="Vector_3" stroke="#000000" stroke-linecap="round" stroke-linejoin="round" d="M2 0.5v2" stroke-width="1"></path><path id="Vector_4" stroke="#000000" stroke-linecap="round" stroke-linejoin="round" d="M11 5.5c0.8284 0 1.5 -0.67157 1.5 -1.5s-0.6716 -1.5 -1.5 -1.5 -1.5 0.67157 -1.5 1.5 0.6716 1.5 1.5 1.5Z" stroke-width="1"></path><path id="Vector_5" stroke="#000000" stroke-linecap="round" stroke-linejoin="round" d="M11 2.5v-2" stroke-width="1"></path><path id="Vector_6" stroke="#000000" stroke-linecap="round" stroke-linejoin="round" d="M6.5 8C7.32843 8 8 7.32843 8 6.5S7.32843 5 6.5 5 5 5.67157 5 6.5 5.67157 8 6.5 8Z" stroke-width="1"></path><path id="Vector_7" stroke="#000000" stroke-linecap="round" stroke-linejoin="round" d="M6.5 0.5V5" stroke-width="1"></path><path id="Vector_8" stroke="#000000" stroke-linecap="round" stroke-linejoin="round" d="M6.5 8v4.5" stroke-width="1"></path><path id="Vector 3976" stroke="#000000" stroke-linecap="round" stroke-linejoin="round" d="M11 5.5v2" stroke-width="1"></path><path id="Vector_9" stroke="#000000" stroke-linecap="round" stroke-linejoin="round" d="M13.5 9.25 9.25 13.5" stroke-width="1"></path><path id="Vector_10" stroke="#000000" stroke-linecap="round" stroke-linejoin="round" d="m9.25 9.255 4.25 4.24" stroke-width="1"></path></g></svg>