<svg xmlns="http://www.w3.org/2000/svg" fill="none" viewBox="0 0 14 14"><g id="remote-control"><path id="Rectangle 7" stroke="#000000" stroke-linecap="round" stroke-linejoin="round" d="M3 1.5c0 -0.552285 0.44772 -1 1 -1h6c0.5523 0 1 0.447715 1 1v11c0 0.5523 -0.4477 1 -1 1H4c-0.55228 0 -1 -0.4477 -1 -1v-11Z" stroke-width="1"></path><path id="Vector 43" stroke="#000000" stroke-linecap="round" stroke-linejoin="round" d="M5 4.5V5" stroke-width="1"></path><path id="Vector 46" stroke="#000000" stroke-linecap="round" stroke-linejoin="round" d="M5 7v0.5" stroke-width="1"></path><path id="Vector 44" stroke="#000000" stroke-linecap="round" stroke-linejoin="round" d="M7 4.5V5" stroke-width="1"></path><path id="Vector 47" stroke="#000000" stroke-linecap="round" stroke-linejoin="round" d="M7 7v0.5" stroke-width="1"></path><path id="Vector 45" stroke="#000000" stroke-linecap="round" stroke-linejoin="round" d="M9 4.5V5" stroke-width="1"></path><path id="Vector 48" stroke="#000000" stroke-linecap="round" stroke-linejoin="round" d="M9 7v0.5" stroke-width="1"></path><path id="Vector 53" stroke="#000000" stroke-linecap="round" stroke-linejoin="round" d="M8.5 2.5H9" stroke-width="1"></path><path id="Ellipse 25" stroke="#000000" stroke-linecap="round" stroke-linejoin="round" d="M8.125 10.625c0 0.6213 -0.50368 1.125 -1.125 1.125s-1.125 -0.5037 -1.125 -1.125S6.37868 9.5 7 9.5s1.125 0.5037 1.125 1.125Z" stroke-width="1"></path></g></svg>