<svg xmlns="http://www.w3.org/2000/svg" fill="none" viewBox="0 0 14 14"><g id="reorder-PDF--essential-files-folder-reorder-PDF-pages"><path id="Rectangle 609" stroke="#000000" stroke-linecap="round" stroke-linejoin="round" d="M4 7.5c0 -0.55228 0.44772 -1 1 -1h2.5L10 9v3.5c0 0.5523 -0.44772 1 -1 1H5c-0.55228 0 -1 -0.4477 -1 -1v-5Z" stroke-width="1"></path><path id="Rectangle 611" stroke="#000000" stroke-linecap="round" stroke-linejoin="round" d="M0.5 13.5H1c0.37014 0 0.69331 -0.2011 0.86622 -0.5" stroke-width="1"></path><path id="Rectangle 612" stroke="#000000" stroke-linecap="round" stroke-linejoin="round" d="M2 10v1" stroke-width="1"></path><path id="Rectangle 613" stroke="#000000" stroke-linecap="round" stroke-linejoin="round" d="m0.5 7.5 0.75 0.75" stroke-width="1"></path><path id="Rectangle 610" stroke="#000000" stroke-linecap="round" stroke-linejoin="round" d="M13.5 6.5H13c-0.5523 0 -1 0.44772 -1 1v5c0 0.5523 0.4477 1 1 1h0.5" stroke-width="1"></path><path id="Vector 1266" stroke="#000000" stroke-linecap="round" stroke-linejoin="round" d="M2 4.5c0.16667 -1 1.3 -3 4.5 -3s4.3333 2 4.5 3" stroke-width="1"></path><path id="Vector 1267" stroke="#000000" stroke-linecap="round" stroke-linejoin="round" d="m9 4 2 0.5L12 3" stroke-width="1"></path></g></svg>