<svg xmlns="http://www.w3.org/2000/svg" fill="none" viewBox="0 0 14 14"><g id="reorder-dots-horizontal--select-drag-reorder-dots"><path id="Ellipse 3" stroke="#000000" stroke-linecap="round" stroke-linejoin="round" d="M12 6c-0.8284 0 -1.5 -0.67157 -1.5 -1.5S11.1716 3 12 3s1.5 0.67157 1.5 1.5S12.8284 6 12 6Z" stroke-width="1"></path><path id="Ellipse 4" stroke="#000000" stroke-linecap="round" stroke-linejoin="round" d="M7 6c-0.82843 0 -1.5 -0.67157 -1.5 -1.5S6.17157 3 7 3s1.5 0.67157 1.5 1.5S7.82843 6 7 6Z" stroke-width="1"></path><path id="Ellipse 5" stroke="#000000" stroke-linecap="round" stroke-linejoin="round" d="M2 6C1.17157 6 0.5 5.32843 0.5 4.5S1.17157 3 2 3s1.5 0.67157 1.5 1.5S2.82843 6 2 6Z" stroke-width="1"></path><path id="Ellipse 6" stroke="#000000" stroke-linecap="round" stroke-linejoin="round" d="M12 11c-0.8284 0 -1.5 -0.6716 -1.5 -1.5 0 -0.82843 0.6716 -1.5 1.5 -1.5s1.5 0.67157 1.5 1.5c0 0.8284 -0.6716 1.5 -1.5 1.5Z" stroke-width="1"></path><path id="Ellipse 7" stroke="#000000" stroke-linecap="round" stroke-linejoin="round" d="M7 11c-0.82843 0 -1.5 -0.6716 -1.5 -1.5C5.5 8.67157 6.17157 8 7 8s1.5 0.67157 1.5 1.5c0 0.8284 -0.67157 1.5 -1.5 1.5Z" stroke-width="1"></path><path id="Ellipse 8" stroke="#000000" stroke-linecap="round" stroke-linejoin="round" d="M2 11c-0.82843 0 -1.5 -0.6716 -1.5 -1.5C0.5 8.67157 1.17157 8 2 8s1.5 0.67157 1.5 1.5c0 0.8284 -0.67157 1.5 -1.5 1.5Z" stroke-width="1"></path></g></svg>