<svg xmlns="http://www.w3.org/2000/svg" fill="none" viewBox="0 0 14 14"><g id="reply-to-message-typing"><path id="Ellipse 1788" stroke="#000000" stroke-linecap="round" stroke-linejoin="round" d="M4 7.25a0.5 0.5 0 1 0 1 0 0.5 0.5 0 1 0 -1 0" stroke-width="1"></path><path id="Ellipse 1789" stroke="#000000" stroke-linecap="round" stroke-linejoin="round" d="M7 7.25a0.5 0.5 0 1 0 1 0 0.5 0.5 0 1 0 -1 0" stroke-width="1"></path><path id="Ellipse 1790" stroke="#000000" stroke-linecap="round" stroke-linejoin="round" d="M10 7.25a0.5 0.5 0 1 0 1 0 0.5 0.5 0 1 0 -1 0" stroke-width="1"></path><path id="Vector 3873" stroke="#000000" stroke-linecap="round" stroke-linejoin="round" d="M8.5 0.5 7 2l1.5 1.5" stroke-width="1"></path><path id="Vector 3874" stroke="#000000" stroke-linecap="round" stroke-linejoin="round" d="M7 2h5.5c0.5523 0 1 0.44772 1 1v8.5c0 0.5523 -0.4477 1 -1 1H4l-3.5 1 1 -3V3c0 -0.55228 0.44772 -1 1 -1h2" stroke-width="1"></path></g></svg>