<svg xmlns="http://www.w3.org/2000/svg" fill="none" viewBox="0 0 14 14"><g id="rocket--science-space-universe-rocket-astronomy"><path id="Vector" stroke="#000000" stroke-linecap="round" stroke-linejoin="round" d="M5.0031 12.5h4s1.5 -5 1.5 -7c0 -3.5 -3.49993 -5 -3.49993 -5s-3.5 1.5 -3.5 5c0 2 1.49993 7 1.49993 7Z" stroke-width="1"></path><path id="Vector_2" stroke="#000000" stroke-linecap="round" stroke-linejoin="round" d="m9.00305 12.5 3.50005 1c0 -2.3174 -0.4296 -4.20516 -2.4836 -4.86682" stroke-width="1"></path><path id="Vector_3" stroke="#000000" stroke-linecap="round" stroke-linejoin="round" d="m5.0031 12.5 -3.49993 1c0 -2.3174 0.42961 -4.20513 2.48349 -4.86682" stroke-width="1"></path><path id="Vector 2306" stroke="#000000" stroke-linecap="round" stroke-linejoin="round" d="M7.00317 10.5v3" stroke-width="1"></path><path id="Vector 2307" stroke="#000000" stroke-linecap="round" stroke-linejoin="round" d="M4.00317 8.5h6.00003" stroke-width="1"></path><g id="Group 4484"><path id="Ellipse 969" stroke="#000000" stroke-linecap="round" stroke-linejoin="round" d="M7.00317 5c-0.27614 0 -0.5 -0.22386 -0.5 -0.5s0.22386 -0.5 0.5 -0.5" stroke-width="1"></path><path id="Ellipse 970" stroke="#000000" stroke-linecap="round" stroke-linejoin="round" d="M7.00317 5c0.27615 0 0.5 -0.22386 0.5 -0.5s-0.22385 -0.5 -0.5 -0.5" stroke-width="1"></path></g></g></svg>