<svg xmlns="http://www.w3.org/2000/svg" fill="none" viewBox="0 0 14 14"><g id="roller-paintbrush--brush-color-colors-design-paint-painting-roller-rolling"><path id="Vector 4617" stroke="#000000" stroke-linecap="round" stroke-linejoin="round" d="M3 3H2c-0.55228 0 -1 0.44772 -1 1v1c0 1.10457 0.89543 2 2 2h3.5c1.10457 0 2 0.89543 2 2v0" stroke-width="1"></path><path id="Vector 4616" stroke="#000000" stroke-linecap="round" stroke-linejoin="round" d="M12 1H4c-0.55228 0 -1 0.44772 -1 1v2c0 0.55228 0.44772 1 1 1h8c0.5523 0 1 -0.44772 1 -1V2c0 -0.55228 -0.4477 -1 -1 -1Z" stroke-width="1"></path><path id="Vector" stroke="#000000" stroke-linecap="round" stroke-linejoin="round" d="M7 13v-3c0 -0.26522 0.10536 -0.51957 0.29289 -0.70711C7.48043 9.10536 7.73478 9 8 9h1c0.26522 0 0.51957 0.10536 0.70711 0.29289C9.89464 9.48043 10 9.73478 10 10v3" stroke-width="1"></path></g></svg>