<svg xmlns="http://www.w3.org/2000/svg" fill="none" viewBox="0 0 14 14"><g id="rotate-left-dash-1"><path id="Vector" stroke="#000000" stroke-linecap="round" stroke-linejoin="round" d="M0.5 7c0 0.55286 0.070502 1.10038 0.207673 1.62992m0.887777 1.98128c0.41163 0.6161 0.92322 1.1538 1.51019 1.593m5.16245 1.1709c-1.0809 0.215 -2.19565 0.1511 -3.24013 -0.1815m6.56824 -1.5974c-0.332 0.332 -0.6971 0.6252 -1.0884 0.8761" stroke-width="1"></path><path id="Vector_2" stroke="#000000" stroke-linecap="round" stroke-linejoin="round" d="m2.5 0.5 -0.5 2L4 3" stroke-width="1"></path><path id="Vector_3" stroke="#000000" stroke-linecap="round" stroke-linejoin="round" d="M11.5962 11.5962c0.909 -0.909 1.5281 -2.06723 1.7789 -3.32811 0.2508 -1.26087 0.1221 -2.56781 -0.3699 -3.75553 -0.492 -1.18772 -1.3251 -2.20288 -2.394 -2.91711C9.54229 0.881223 8.28558 0.500004 7 0.500004 5.13797 0.497944 3.34694 1.21436 2 2.5" stroke-width="1"></path></g></svg>