<svg xmlns="http://www.w3.org/2000/svg" fill="none" viewBox="0 0 14 14"><g id="rotate-left-dash-4"><path id="Vector" stroke="#000000" stroke-linecap="round" stroke-linejoin="round" d="M7 0.5c-0.55286 0 -1.10038 0.070502 -1.62992 0.207673m-1.98129 0.887777c-0.61605 0.41163 -1.15378 0.92322 -1.59302 1.51019M0.624896 8.26809C0.409891 7.18719 0.473799 6.07244 0.806365 5.02796M2.40381 11.5962c-0.33196 -0.332 -0.62525 -0.6971 -0.87606 -1.0884" stroke-width="1"></path><path id="Vector_2" stroke="#000000" stroke-linecap="round" stroke-linejoin="round" d="m13.5 2.5 -2 -0.5 -0.5 2" stroke-width="1"></path><path id="Vector_3" stroke="#000000" stroke-linecap="round" stroke-linejoin="round" d="M2.4038 11.5962c0.90904 0.909 2.06723 1.5281 3.32811 1.7789 1.26088 0.2508 2.56781 0.1221 3.75553 -0.3699 1.18776 -0.492 2.20286 -1.3251 2.91706 -2.394C13.1188 9.54229 13.5 8.28558 13.5 7c0.0021 -1.86203 -0.7144 -3.65306 -2 -5" stroke-width="1"></path></g></svg>