<svg xmlns="http://www.w3.org/2000/svg" fill="none" viewBox="0 0 14 14"><g id="rotate-right-dash-2"><path id="Vector" stroke="#000000" stroke-linecap="round" stroke-linejoin="round" d="M0.5 7c0 -0.55286 0.070502 -1.10038 0.207673 -1.62992m0.887777 -1.98129c0.41163 -0.61605 0.92322 -1.15378 1.51019 -1.59302M8.26809 0.624896C7.18719 0.409891 6.07244 0.473799 5.02796 0.806365M11.5962 2.40381c-0.332 -0.33196 -0.6971 -0.62525 -1.0884 -0.87606" stroke-width="1"></path><path id="Vector_2" stroke="#000000" stroke-linecap="round" stroke-linejoin="round" d="m2.5 13.5 -0.5 -2 2 -0.5" stroke-width="1"></path><path id="Vector_3" stroke="#000000" stroke-linecap="round" stroke-linejoin="round" d="M11.5962 2.4038c0.909 0.90904 1.5281 2.06723 1.7789 3.32811 0.2508 1.26087 0.1221 2.56781 -0.3699 3.75553 -0.492 1.18776 -1.3251 2.20286 -2.394 2.91706C9.54229 13.1188 8.28558 13.5 7 13.5c-1.86203 0.0021 -3.65306 -0.7144 -5 -2" stroke-width="1"></path></g></svg>