<svg xmlns="http://www.w3.org/2000/svg" fill="none" viewBox="0 0 14 14"><g id="rotate-PDF--essential-files-folder-rotate-PDF-page"><path id="Rectangle 605" stroke="#000000" stroke-linecap="round" stroke-linejoin="round" d="M4.5 9.5h-3c-0.552285 0 -1 -0.44772 -1 -1v-7c0 -0.552285 0.447715 -1 1 -1h3.58579c0.26521 0 0.51957 0.105357 0.7071 0.292893L7.20711 2.20711c0.18753 0.18753 0.29289 0.44189 0.29289 0.7071V6.5" stroke-width="1"></path><path id="Rectangle 606" stroke="#000000" stroke-linecap="round" stroke-linejoin="round" d="M12.5 13.5c0.5523 0 1 -0.4477 1 -1l0 -3.58579c0 -0.26521 -0.1054 -0.51957 -0.2929 -0.7071l-1.4142 -1.41422C11.6054 6.60536 11.351 6.5 11.0858 6.5L5.5 6.5c-0.55228 0 -1 0.44771 -1 1l0 5c0 0.5523 0.44772 1 1 1l7 0Z" stroke-width="1"></path><path id="Vector 1240" stroke="#000000" stroke-linecap="round" stroke-linejoin="round" d="M9.5 1H11c0.5523 0 1 0.44772 1 1v2.5" stroke-width="1"></path><path id="Vector 1262" stroke="#000000" stroke-linecap="round" stroke-linejoin="round" d="M13.5 3 12 4.5 10.5 3" stroke-width="1"></path></g></svg>