<svg xmlns="http://www.w3.org/2000/svg" fill="none" viewBox="0 0 14 14"><g id="rotate-left-dash-2"><path id="Vector" stroke="#000000" stroke-linecap="round" stroke-linejoin="round" d="M13.5 7c0 -0.55286 -0.0705 -1.10038 -0.2077 -1.62992m-0.8877 -1.98129c-0.4117 -0.61605 -0.9233 -1.15378 -1.5102 -1.59302M5.73191 0.624896C6.81281 0.409891 7.92756 0.473799 8.97204 0.806365M2.40381 2.40381c0.33195 -0.33196 0.69714 -0.62525 1.08841 -0.87606" stroke-width="1"></path><path id="Vector_2" stroke="#000000" stroke-linecap="round" stroke-linejoin="round" d="m11.5 13.5 0.5 -2 -2 -0.5" stroke-width="1"></path><path id="Vector_3" stroke="#000000" stroke-linecap="round" stroke-linejoin="round" d="M2.40381 2.4038C1.49476 3.31284 0.8757 4.47103 0.624896 5.73191 0.374092 6.99278 0.502814 8.29972 0.994783 9.48744 1.48675 10.6752 2.31987 11.6903 3.38879 12.4045 4.45771 13.1188 5.71442 13.5 7 13.5c1.86203 0.0021 3.6531 -0.7144 5 -2" stroke-width="1"></path></g></svg>