<svg xmlns="http://www.w3.org/2000/svg" fill="none" viewBox="0 0 14 14"><g id="router-wifi-network"><path id="vector 2440" stroke="#000000" stroke-linecap="round" stroke-linejoin="round" d="M1 10.5V7.375c0 -0.55228 0.44772 -1 1 -1h10c0.5523 0 1 0.44772 1 1V10.5c0 0.5523 -0.4477 1 -1 1H2c-0.55228 0 -1 -0.4477 -1 -1Z" stroke-width="1"></path><path id="vector 2434" stroke="#000000" stroke-linecap="round" stroke-linejoin="round" d="M2.75 11.5V13" stroke-width="1"></path><path id="vector 2436" stroke="#000000" stroke-linecap="round" stroke-linejoin="round" d="M6.19922 8.9375h4.36328" stroke-width="1"></path><path id="vector 2437" stroke="#000000" stroke-linecap="round" stroke-linejoin="round" d="m2.4375 1 1.25 5.37503" stroke-width="1"></path><path id="vector 2438" stroke="#000000" stroke-linecap="round" stroke-linejoin="round" d="m11.5625 1 -1.25 5.375" stroke-width="1"></path><path id="vector 2439" stroke="#000000" stroke-linecap="round" stroke-linejoin="round" d="M11.25 11.5V13" stroke-width="1"></path><g id="Group 4777"><path id="vector" stroke="#000000" stroke-linecap="round" stroke-linejoin="round" d="M3.63672 9.1875c-0.13807 0 -0.25 -0.11193 -0.25 -0.25s0.11193 -0.25 0.25 -0.25" stroke-width="1"></path><path id="vector_2" stroke="#000000" stroke-linecap="round" stroke-linejoin="round" d="M3.63672 9.1875c0.13807 0 0.25 -0.11193 0.25 -0.25s-0.11193 -0.25 -0.25 -0.25" stroke-width="1"></path></g></g></svg>