<svg xmlns="http://www.w3.org/2000/svg" fill="none" viewBox="0 0 14 14"><g id="salad-vegetable-diet"><path id="Ellipse 1874" stroke="#000000" stroke-linecap="round" stroke-linejoin="round" d="M9.75 4c-1.38071 0 -2.5 1.11929 -2.5 2.5 0 0.17123 0.01722 0.33844 0.05001 0.5H12.2c0.0328 -0.16156 0.05 -0.32877 0.05 -0.5 0 -1.38071 -1.1193 -2.5 -2.5 -2.5Z" stroke-width="1"></path><path id="Union" stroke="#000000" stroke-linecap="round" stroke-linejoin="round" d="M2.25 3.5c0 0.343 0.08635 0.66584 0.23849 0.94796C2.03786 4.81468 1.75 5.37372 1.75 6c0 0.36429 0.09739 0.70583 0.26756 1h5.28245C7.26722 6.83844 7.25 6.67123 7.25 6.5c0 -0.97151 0.55415 -1.81359 1.36361 -2.22739C8.32265 3.5277 7.59795 3 6.75 3c-0.189 0 -0.37188 0.02622 -0.5452 0.07521C6.01003 2.17469 5.20881 1.5 4.25 1.5c-1.10457 0 -2 0.89543 -2 2Z" stroke-width="1"></path><path id="Vector 3135" stroke="#000000" stroke-linecap="round" stroke-linejoin="round" d="M12.1429 7H1.85714C1.38376 7 1 7.38376 1 7.85714 1 10.6975 3.30254 13 6.14286 13h1.71428C10.6975 13 13 10.6975 13 7.85714 13 7.38376 12.6162 7 12.1429 7Z" stroke-width="1"></path><path id="Vector 3136" stroke="#000000" stroke-linecap="round" stroke-linejoin="round" d="M6 7s0 -1 -1.25 -2.5" stroke-width="1"></path></g></svg>