<svg xmlns="http://www.w3.org/2000/svg" fill="none" viewBox="0 0 14 14"><g id="salt-bottle--seasoning-cook-cooking-kitchenware-salt-bottle"><path id="Vector 4634" stroke="#000000" stroke-linecap="round" stroke-linejoin="round" d="m2 12.5 0.8905 -7.12403c0.06256 -0.50043 0.48796 -0.87597 0.99228 -0.87597h6.23442c0.5043 0 0.9297 0.37554 0.9923 0.87596L12 12.5c0 0.5523 -0.4477 1 -1 1H3c-0.55228 0 -1 -0.4477 -1 -1Z" stroke-width="1"></path><path id="Vector 4635" stroke="#000000" stroke-linecap="round" stroke-linejoin="round" d="M2.5625 8h2.02329C5.49129 8 6.35971 8.35971 7 9c0.64029 0.64029 1.50871 1 2.41421 1h2.27329" stroke-width="1"></path><path id="Vector 4636" stroke="#000000" stroke-linecap="round" stroke-linejoin="round" d="M4 3.5v1h6v-1c0 -1.65685 -1.34315 -3 -3 -3s-3 1.34315 -3 3Z" stroke-width="1"></path></g></svg>