<svg xmlns="http://www.w3.org/2000/svg" fill="none" viewBox="0 0 14 14"><g id="sausage-processed-food"><path id="Vector 3112" stroke="#000000" stroke-linecap="round" stroke-linejoin="round" d="m10 1 1 1.5L12 1" stroke-width="1"></path><path id="Vector 3113" stroke="#000000" stroke-linecap="round" stroke-linejoin="round" d="m1 10 1.5 1L1 12" stroke-width="1"></path><path id="Vector" stroke="#000000" stroke-linecap="round" stroke-linejoin="round" d="M8.91663 5.3667 10.5 6.00005" stroke-width="1"></path><path id="Vector_2" stroke="#000000" stroke-linecap="round" stroke-linejoin="round" d="M7.68198 7.68213 9 9.00015" stroke-width="1"></path><path id="Vector_3" stroke="#000000" stroke-linecap="round" stroke-linejoin="round" d="M5.36665 8.91675 6 10.5001" stroke-width="1"></path><path id="Vector 3111 (Stroke)" fill-rule="evenodd" stroke="#000000" stroke-linecap="round" stroke-linejoin="round" d="M11 2.5c1.1046 0 2 0.89543 2 2C13 9.19442 9.19442 13 4.5 13c-1.10457 0 -2 -0.8954 -2 -2 0 -1.10457 0.89543 -2 2 -2C6.98528 9 9 6.98528 9 4.5c0 -1.10457 0.89543 -2 2 -2Z" clip-rule="evenodd" stroke-width="1"></path></g></svg>