<svg xmlns="http://www.w3.org/2000/svg" fill="none" viewBox="0 0 14 14"><g id="scan-document-focus"><path id="Vector 3911" stroke="#000000" stroke-linecap="round" stroke-linejoin="round" d="M8.5 3h-4c-0.55228 0 -1 0.44772 -1 1v6c0 0.5523 0.44772 1 1 1h5c0.5523 0 1 -0.4477 1 -1V5l-2 -2Z" stroke-width="1"></path><path id="Vector 3912" stroke="#000000" stroke-linecap="round" stroke-linejoin="round" d="M5.5 5.5H7" stroke-width="1"></path><path id="Vector 3913" stroke="#000000" stroke-linecap="round" stroke-linejoin="round" d="M5.5 7.5h3" stroke-width="1"></path><path id="vector" stroke="#000000" stroke-linecap="round" stroke-linejoin="round" d="M3.5 1H2c-0.26522 0 -0.51957 0.10536 -0.70711 0.29289C1.10536 1.48043 1 1.73478 1 2v1.5" stroke-width="1"></path><path id="vector_2" stroke="#000000" stroke-linecap="round" stroke-linejoin="round" d="M13 3.5V2c0 -0.26522 -0.1054 -0.51957 -0.2929 -0.70711C12.5196 1.10536 12.2652 1 12 1h-1.5" stroke-width="1"></path><path id="vector_3" stroke="#000000" stroke-linecap="round" stroke-linejoin="round" d="M10.5 13H12c0.2652 0 0.5196 -0.1054 0.7071 -0.2929S13 12.2652 13 12v-1.5" stroke-width="1"></path><path id="vector_4" stroke="#000000" stroke-linecap="round" stroke-linejoin="round" d="M1 10.5V12c0 0.2652 0.10536 0.5196 0.29289 0.7071C1.48043 12.8946 1.73478 13 2 13h1.5" stroke-width="1"></path></g></svg>