<svg xmlns="http://www.w3.org/2000/svg" fill="none" viewBox="0 0 14 14"><g id="scanner-1--codes-tags-upc-barcode-qr"><path id="vector" stroke="#000000" stroke-linecap="round" stroke-linejoin="round" d="M5.00006 0.5h-4C0.867453 0.5 0.740276 0.552678 0.646508 0.646447 0.552739 0.740215 0.500061 0.867392 0.500061 1v4" stroke-width="1"></path><path id="vector_2" stroke="#000000" stroke-linecap="round" stroke-linejoin="round" d="M13.5001 5V1c0 -0.132608 -0.0527 -0.259785 -0.1465 -0.353553C13.2598 0.552678 13.1327 0.5 13.0001 0.5H9.00006" stroke-width="1"></path><path id="vector_3" stroke="#000000" stroke-linecap="round" stroke-linejoin="round" d="M9.00006 13.5h4.00004c0.1326 0 0.2597 -0.0527 0.3535 -0.1464 0.0938 -0.0938 0.1465 -0.221 0.1465 -0.3536V9" stroke-width="1"></path><path id="vector_4" stroke="#000000" stroke-linecap="round" stroke-linejoin="round" d="M0.500061 9v4c0 0.1326 0.052678 0.2598 0.146447 0.3536 0.093768 0.0937 0.220945 0.1464 0.353552 0.1464h4" stroke-width="1"></path></g></svg>