<svg xmlns="http://www.w3.org/2000/svg" fill="none" viewBox="0 0 14 14"><g id="scanner-3--payment-electronic-cash-dollar-codes-tags-upc-barcode-qr"><path id="Vector 3" stroke="#000000" stroke-linecap="round" stroke-linejoin="round" d="M8.70191 5.1381c-0.05854 -0.16561 -0.14886 -0.31621 -0.26364 -0.44445 -0.24414 -0.27278 -0.59894 -0.44444 -0.99383 -0.44444H6.4124c-0.65732 0 -1.19018 0.53286 -1.19018 1.19017 0 0.55931 0.38945 1.04316 0.93584 1.16269l1.57131 0.34372c0.61211 0.1339 1.04841 0.67634 1.04841 1.30293 0 0.73638 -0.59696 1.33382 -1.33334 1.33382h-0.88889c-0.58054 0 -1.07442 -0.37103 -1.25746 -0.88889" stroke-width="1"></path><path id="Vector 2489" stroke="#000000" stroke-linecap="round" stroke-linejoin="round" d="M6.99999 4.24917V2.91583" stroke-width="1"></path><path id="Vector 2490" stroke="#000000" stroke-linecap="round" stroke-linejoin="round" d="M6.99999 10.9158V9.58246" stroke-width="1"></path><path id="vector" stroke="#000000" stroke-linecap="round" stroke-linejoin="round" d="M5.06858 0.65625H1.16474c-0.12942 0 -0.253542 0.051412 -0.345056 0.142926C0.72817 0.89069 0.676758 1.01481 0.676758 1.14423v3.90385" stroke-width="1"></path><path id="vector_2" stroke="#000000" stroke-linecap="round" stroke-linejoin="round" d="M13.3643 5.04808V1.14423c0 -0.12942 -0.0515 -0.25354 -0.143 -0.345054 -0.0915 -0.091514 -0.2156 -0.142926 -0.345 -0.142926H8.97243" stroke-width="1"></path><path id="vector_3" stroke="#000000" stroke-linecap="round" stroke-linejoin="round" d="M8.97243 13.3437h3.90387c0.1294 0 0.2535 -0.0514 0.345 -0.1429 0.0915 -0.0915 0.143 -0.2156 0.143 -0.345V8.9519" stroke-width="1"></path><path id="vector_4" stroke="#000000" stroke-linecap="round" stroke-linejoin="round" d="M0.676758 8.9519v3.9039c0 0.1294 0.051412 0.2535 0.142926 0.345 0.091514 0.0915 0.215636 0.1429 0.345056 0.1429h3.90384" stroke-width="1"></path></g></svg>