<svg xmlns="http://www.w3.org/2000/svg" fill="none" viewBox="0 0 14 14"><g id="school-bus-front"><path id="Vector 4567" stroke="#000000" stroke-linecap="round" stroke-linejoin="round" d="M5.75 9.25h2.5" stroke-width="1"></path><path id="Vector 4566" stroke="#000000" stroke-linecap="round" stroke-linejoin="round" d="M1 5.5v-1c0 -0.55228 0.44772 -1 1 -1h10c0.5523 0 1 0.44772 1 1v1" stroke-width="1"></path><g id="Group 2605"><path id="Ellipse 1111" stroke="#000000" stroke-linecap="round" stroke-linejoin="round" d="M3.5 9.5c-0.13807 0 -0.25 -0.11193 -0.25 -0.25S3.36193 9 3.5 9" stroke-width="1"></path><path id="Ellipse 1112" stroke="#000000" stroke-linecap="round" stroke-linejoin="round" d="M3.5 9.5c0.13807 0 0.25 -0.11193 0.25 -0.25S3.63807 9 3.5 9" stroke-width="1"></path></g><g id="Group 2675"><path id="Ellipse 1111_2" stroke="#000000" stroke-linecap="round" stroke-linejoin="round" d="M10.5 9.5c-0.1381 0 -0.25 -0.11193 -0.25 -0.25s0.1119 -0.25 0.25 -0.25" stroke-width="1"></path><path id="Ellipse 1112_2" stroke="#000000" stroke-linecap="round" stroke-linejoin="round" d="M10.5 9.5c0.1381 0 0.25 -0.11193 0.25 -0.25S10.6381 9 10.5 9" stroke-width="1"></path></g><path id="Vector 4562" stroke="#000000" stroke-linecap="round" stroke-linejoin="round" d="M11.5 11.5h-9c-0.55228 0 -1 -0.4477 -1 -1v-2c0 -1.10457 0.89543 -2 2 -2h7c1.1046 0 2 0.89543 2 2v2c0 0.5523 -0.4477 1 -1 1Z" stroke-width="1"></path><path id="Vector 4565" stroke="#000000" stroke-linecap="round" stroke-linejoin="round" d="M3 3v3.5h8V3c0 -1.10457 -0.8954 -2 -2 -2H5c-1.10457 0 -2 0.89543 -2 2Z" stroke-width="1"></path><path id="Vector 4563" stroke="#000000" stroke-linecap="round" stroke-linejoin="round" d="M3 11.5V13" stroke-width="1"></path><path id="Vector 4564" stroke="#000000" stroke-linecap="round" stroke-linejoin="round" d="M11 11.5V13" stroke-width="1"></path></g></svg>