<svg xmlns="http://www.w3.org/2000/svg" fill="none" viewBox="0 0 14 14"><g id="school-bus-side"><path id="Vector" stroke="#000000" stroke-linecap="round" stroke-linejoin="round" d="M9.99894 13c-0.82901 0 -1.50105 -0.6721 -1.50105 -1.5011 0 -0.829 0.67204 -1.50104 1.50105 -1.50104 0.82906 0 1.50106 0.67204 1.50106 1.50104S10.828 13 9.99894 13Z" stroke-width="1"></path><path id="Vector_2" stroke="#000000" stroke-linecap="round" stroke-linejoin="round" d="M3.49894 13c-0.82901 0 -1.50106 -0.6721 -1.50106 -1.5011 0 -0.829 0.67205 -1.50104 1.50106 -1.50104S5 10.6699 5 11.4989 4.32795 13 3.49894 13Z" stroke-width="1"></path><path id="Vector 4571" stroke="#000000" stroke-linecap="round" stroke-linejoin="round" d="M11.5 7H1" stroke-width="1"></path><path id="Vector 4572" stroke="#000000" stroke-linecap="round" stroke-linejoin="round" d="M1 4h10.5" stroke-width="1"></path><path id="Vector 4573" stroke="#000000" stroke-linecap="round" stroke-linejoin="round" d="M4.5 4v3" stroke-width="1"></path><path id="Vector 4574" stroke="#000000" stroke-linecap="round" stroke-linejoin="round" d="M8 4v3" stroke-width="1"></path><path id="Vector 4575" stroke="#000000" stroke-linecap="round" stroke-linejoin="round" d="M2 11.5c-0.55228 0 -1 -0.4477 -1 -1V3c0 -0.55228 0.44772 -1 1 -1h8.5c0.5523 0 1 0.44772 1 1v4h0.5c0.5523 0 1 0.44772 1 1v2.5c0 0.5523 -0.4477 1 -1 1h-0.5" stroke-width="1"></path><path id="Vector 4576" stroke="#000000" stroke-linecap="round" stroke-linejoin="round" d="M5 11.5h3.5" stroke-width="1"></path></g></svg>