<svg xmlns="http://www.w3.org/2000/svg" fill="none" viewBox="0 0 14 14"><g id="screen-tv--movies-television-cathode-crt-tv-ray-tube-vintage-video"><path id="Vector" stroke="#000000" stroke-linecap="round" stroke-linejoin="round" d="M12 3.5H2c-0.55228 0 -1 0.44772 -1 1V12c0 0.5523 0.44772 1 1 1h10c0.5523 0 1 -0.4477 1 -1V4.5c0 -0.55228 -0.4477 -1 -1 -1Z" stroke-width="1"></path><path id="Vector_2" stroke="#000000" stroke-linecap="round" stroke-linejoin="round" d="M10 5.5H4c-0.55228 0 -1 0.44772 -1 1V10c0 0.5523 0.44772 1 1 1h6c0.5523 0 1 -0.4477 1 -1V6.5c0 -0.55228 -0.4477 -1 -1 -1Z" stroke-width="1"></path><path id="Vector_3" stroke="#000000" stroke-linecap="round" stroke-linejoin="round" d="m5 1 2 2.5L9 1" stroke-width="1"></path></g></svg>