<svg xmlns="http://www.w3.org/2000/svg" fill="none" viewBox="0 0 14 14"><g id="search-car--search-car-magnifier-transportation-travel-vehicle-find"><path id="vector" stroke="#000000" stroke-linecap="round" stroke-linejoin="round" d="M10 5.5c1.3807 0 2.5 -1.11929 2.5 -2.5S11.3807 0.5 10 0.5C8.61929 0.5 7.5 1.61929 7.5 3S8.61929 5.5 10 5.5Z" stroke-width="1"></path><path id="vector_2" stroke="#000000" stroke-linecap="round" stroke-linejoin="round" d="m13.5 6.50007 -1.7322 -1.73225" stroke-width="1"></path><path id="Vector 4546" stroke="#000000" stroke-linecap="round" stroke-linejoin="round" d="M2 12.5v1" stroke-width="1"></path><path id="Vector 4548" stroke="#000000" stroke-linecap="round" stroke-linejoin="round" d="M1.5 12.5h7c0.55229 0 1 -0.4477 1 -1 0 -1.1046 -0.89543 -2 -2 -2h-5c-1.10457 0 -2 0.8954 -2 2 0 0.5523 0.447715 1 1 1Z" stroke-width="1"></path><path id="Vector" stroke="#000000" stroke-linecap="round" stroke-linejoin="round" d="M2.24591 7.68571 1.8327 9.61402C2.0414 9.54018 2.266 9.5 2.49999 9.5h5c0.23399 0 0.4586 0.04018 0.66729 0.11402l-0.41321 -1.92831C7.60587 6.9941 6.99468 6.5 6.28737 6.5H3.71262c-0.70731 0 -1.31851 0.4941 -1.46671 1.18571Z" stroke-width="1"></path><path id="Vector 4547" stroke="#000000" stroke-linecap="round" stroke-linejoin="round" d="M8 12.5v1" stroke-width="1"></path></g></svg>