<svg xmlns="http://www.w3.org/2000/svg" fill="none" viewBox="0 0 14 14"><g id="search-history"><path id="vector" stroke="#000000" stroke-linecap="round" stroke-linejoin="round" d="M10.5 13.5c1.6569 0 3 -1.3431 3 -3 0 -1.65685 -1.3431 -3 -3 -3 -1.65685 0 -3 1.34315 -3 3 0 1.6569 1.34315 3 3 3Z" stroke-width="1"></path><path id="vector_2" stroke="#000000" stroke-linecap="round" stroke-linejoin="round" d="m11.25 9.75 -0.75 0.75" stroke-width="1"></path><path id="rectangle 634" stroke="#000000" stroke-linecap="round" stroke-linejoin="round" d="m9.5 5 0 -3.5c0 -0.552285 -0.44772 -1 -1 -1l-7 0C0.947716 0.5 0.500001 0.947715 0.500001 1.5l0 8c0 0.5523 0.447715 1 0.999999 1l3.5 0" stroke-width="1"></path><path id="rectangle 631" stroke="#000000" stroke-linecap="round" stroke-linejoin="round" d="M7 3 3 3" stroke-width="1"></path><path id="rectangle 632" stroke="#000000" stroke-linecap="round" stroke-linejoin="round" d="M5.5 5H3" stroke-width="1"></path></g></svg>