<svg xmlns="http://www.w3.org/2000/svg" fill="none" viewBox="0 0 14 14"><g id="search-dollar--search-pay-product-currency-query-magnifying-cash-business-money-glass"><path id="Vector" stroke="#000000" stroke-linecap="round" stroke-linejoin="round" d="M6.5 12.5c3.31371 0 6 -2.68629 6 -6s-2.68629 -6 -6 -6 -6 2.68629 -6 6 2.68629 6 6 6Z" stroke-width="1"></path><path id="Vector_2" stroke="#000000" stroke-linecap="round" stroke-linejoin="round" d="m10.74 10.74 2.76 2.76" stroke-width="1"></path><path id="Vector 3" stroke="#000000" stroke-linecap="round" stroke-linejoin="round" d="M8.20192 4.72226c-0.05854 -0.16561 -0.14886 -0.3162 -0.26364 -0.44444 -0.24415 -0.27278 -0.59894 -0.44445 -0.99383 -0.44445H5.91241c-0.65732 0 -1.19018 0.53286 -1.19018 1.19018 0 0.55931 0.38945 1.04316 0.93584 1.16268l1.57131 0.34373c0.61211 0.1339 1.0484 0.67634 1.0484 1.30293 0 0.73638 -0.59695 1.33382 -1.33333 1.33382h-0.88889c-0.58054 0 -1.07442 -0.37103 -1.25746 -0.88889" stroke-width="1"></path><path id="Vector 2489" stroke="#000000" stroke-linecap="round" stroke-linejoin="round" d="M6.5 3.83333V2.5" stroke-width="1"></path><path id="Vector 2490" stroke="#000000" stroke-linecap="round" stroke-linejoin="round" d="M6.5 10.5V9.16663" stroke-width="1"></path></g></svg>