<svg xmlns="http://www.w3.org/2000/svg" fill="none" viewBox="0 0 14 14"><g id="security-shield--business-money-protection-shield-insurance-secure-payment-security-cash"><path id="Vector 2491" stroke="#000000" stroke-linecap="round" stroke-linejoin="round" d="M8.70192 4.50998c-0.05854 -0.16561 -0.14886 -0.3162 -0.26364 -0.44444 -0.24415 -0.27278 -0.59894 -0.44445 -0.99383 -0.44445H6.41241c-0.65732 0 -1.19018 0.53286 -1.19018 1.19018 0 0.55931 0.38945 1.04316 0.93584 1.16268l1.57131 0.34373c0.61211 0.1339 1.0484 0.67634 1.0484 1.30293 0 0.73637 -0.59695 1.33382 -1.33333 1.33382h-0.88889c-0.58054 0 -1.07442 -0.37103 -1.25746 -0.88889" stroke-width="1"></path><path id="Vector 2492" stroke="#000000" stroke-linecap="round" stroke-linejoin="round" d="M7 3.62093V2.2876" stroke-width="1"></path><path id="Vector 2493" stroke="#000000" stroke-linecap="round" stroke-linejoin="round" d="M7 10.2874V8.9541" stroke-width="1"></path><path id="Vector" stroke="#000000" stroke-linecap="round" stroke-linejoin="round" d="M7.36 13.3964c-0.23168 0.0894 -0.48832 0.0894 -0.72 0v0C4.83386 12.7 3.28075 11.4733 2.18486 9.8777 1.08896 8.28205 0.501603 6.39211 0.5 4.45638v-2.92c0 -0.26522 0.105357 -0.51957 0.292893 -0.70711C0.98043 0.641734 1.23478 0.536377 1.5 0.536377h11c0.2652 0 0.5196 0.105357 0.7071 0.292893 0.1875 0.18754 0.2929 0.44189 0.2929 0.70711v2.92c-0.0016 1.93573 -0.589 3.82567 -1.6849 5.42132C10.7193 11.4733 9.16614 12.7 7.36 13.3964v0Z" stroke-width="1"></path></g></svg>