<svg xmlns="http://www.w3.org/2000/svg" fill="none" viewBox="0 0 14 14"><g id="security-umbrella--business-money-wealth-protection-umbrella-insurance-security"><path id="Vector 2494" stroke="#000000" stroke-linecap="round" stroke-linejoin="round" d="M13.2826 8.92009c-0.0439 -0.12421 -0.1116 -0.23715 -0.1977 -0.33334 -0.1831 -0.20458 -0.4492 -0.33333 -0.7454 -0.33333h-0.774c-0.493 0 -0.8927 0.39965 -0.8927 0.89264 0 0.41948 0.2921 0.78237 0.7019 0.87204l1.1785 0.2578c0.4591 0.1004 0.7863 0.5072 0.7863 0.9772 0 0.5523 -0.4477 1.0003 -1 1.0003h-0.6667c-0.4354 0 -0.8058 -0.2782 -0.9431 -0.6666" stroke-width="1"></path><path id="Vector 2495" stroke="#000000" stroke-linecap="round" stroke-linejoin="round" d="M12.0062 8.25342v-1" stroke-width="1"></path><path id="Vector 2496" stroke="#000000" stroke-linecap="round" stroke-linejoin="round" d="M12.0062 13.2534v-1" stroke-width="1"></path><path id="Vector" stroke="#000000" stroke-linecap="round" stroke-linejoin="round" d="M11.1074 5.11032c-0.2571 -0.49987 -0.5919 -0.96164 -0.9968 -1.36648 -1.026 -1.02605 -2.41763 -1.60248 -3.86868 -1.60248s-2.84267 0.57643 -3.86872 1.60248C1.34715 4.76989 0.770717 6.16151 0.770717 7.61256H8.89573" stroke-width="1"></path><path id="Vector_2" stroke="#000000" stroke-linecap="round" stroke-linejoin="round" d="M6.24183 2.14136V0.5" stroke-width="1"></path><path id="Vector_3" stroke="#000000" stroke-linecap="round" stroke-linejoin="round" d="M2.95899 11.8587c0 0.4353 0.17293 0.8528 0.48074 1.1606 0.30782 0.3079 0.7253 0.4808 1.16062 0.4808 0.43532 0 0.8528 -0.1729 1.16062 -0.4808 0.30781 -0.3078 0.48074 -0.7253 0.48074 -1.1606V7.61011" stroke-width="1"></path></g></svg>