<svg xmlns="http://www.w3.org/2000/svg" fill="none" viewBox="0 0 14 14"><g id="select-circle-area-2--select-area-object-work"><g id="Group 16"><path id="Vector" stroke="#000000" stroke-linecap="round" stroke-linejoin="round" d="M7 1c-0.13807 0 -0.25 -0.111929 -0.25 -0.25S6.86193 0.5 7 0.5" stroke-width="1"></path><path id="Vector_2" stroke="#000000" stroke-linecap="round" stroke-linejoin="round" d="M7 1c0.13807 0 0.25 -0.111929 0.25 -0.25S7.13807 0.5 7 0.5" stroke-width="1"></path></g><g id="Group 33"><path id="Vector_3" stroke="#000000" stroke-linecap="round" stroke-linejoin="round" d="M4.85999 1.37988c-0.13808 0 -0.25 -0.11193 -0.25 -0.25 0 -0.138068 0.11192 -0.249997 0.25 -0.249997" stroke-width="1"></path><path id="Vector_4" stroke="#000000" stroke-linecap="round" stroke-linejoin="round" d="M4.85999 1.37988c0.13807 0 0.25 -0.11193 0.25 -0.25 0 -0.138068 -0.11193 -0.249997 -0.25 -0.249997" stroke-width="1"></path></g><g id="Group 32"><path id="Vector_5" stroke="#000000" stroke-linecap="round" stroke-linejoin="round" d="M2.97998 2.45996c-0.13807 0 -0.25 -0.11193 -0.25 -0.25s0.11193 -0.25 0.25 -0.25" stroke-width="1"></path><path id="Vector_6" stroke="#000000" stroke-linecap="round" stroke-linejoin="round" d="M2.97998 2.45996c0.13807 0 0.25 -0.11193 0.25 -0.25s-0.11193 -0.25 -0.25 -0.25" stroke-width="1"></path></g><g id="Group 31"><path id="Vector_7" stroke="#000000" stroke-linecap="round" stroke-linejoin="round" d="M1.59009 4.12012c-0.13807 0 -0.25 -0.11193 -0.25 -0.25s0.11193 -0.25 0.25 -0.25" stroke-width="1"></path><path id="Vector_8" stroke="#000000" stroke-linecap="round" stroke-linejoin="round" d="M1.59009 4.12012c0.13807 0 0.25 -0.11193 0.25 -0.25s-0.11193 -0.25 -0.25 -0.25" stroke-width="1"></path></g><g id="Group 30"><path id="Vector_9" stroke="#000000" stroke-linecap="round" stroke-linejoin="round" d="M0.840088 6.15991c-0.138071 0 -0.25 -0.11193 -0.25 -0.25s0.111929 -0.25 0.25 -0.25" stroke-width="1"></path><path id="Vector_10" stroke="#000000" stroke-linecap="round" stroke-linejoin="round" d="M0.840088 6.15991c0.138071 0 0.250002 -0.11193 0.250002 -0.25s-0.111931 -0.25 -0.250002 -0.25" stroke-width="1"></path></g><g id="Group 29"><path id="Vector_11" stroke="#000000" stroke-linecap="round" stroke-linejoin="round" d="M0.840088 8.34009c-0.138071 0 -0.25 -0.11193 -0.25 -0.25s0.111929 -0.25 0.25 -0.25" stroke-width="1"></path><path id="Vector_12" stroke="#000000" stroke-linecap="round" stroke-linejoin="round" d="M0.840088 8.34009c0.138071 0 0.250002 -0.11193 0.250002 -0.25s-0.111931 -0.25 -0.250002 -0.25" stroke-width="1"></path></g><g id="Group 28"><path id="Vector_13" stroke="#000000" stroke-linecap="round" stroke-linejoin="round" d="M1.59009 10.3799c-0.13807 0 -0.25 -0.1119 -0.25 -0.25 0 -0.13809 0.11193 -0.25002 0.25 -0.25002" stroke-width="1"></path><path id="Vector_14" stroke="#000000" stroke-linecap="round" stroke-linejoin="round" d="M1.59009 10.3799c0.13807 0 0.25 -0.1119 0.25 -0.25 0 -0.13809 -0.11193 -0.25002 -0.25 -0.25002" stroke-width="1"></path></g><g id="Group 27"><path id="Vector_15" stroke="#000000" stroke-linecap="round" stroke-linejoin="round" d="M2.97998 12.04c-0.13807 0 -0.25 -0.1119 -0.25 -0.25 0 -0.138 0.11193 -0.25 0.25 -0.25" stroke-width="1"></path><path id="Vector_16" stroke="#000000" stroke-linecap="round" stroke-linejoin="round" d="M2.97998 12.04c0.13807 0 0.25 -0.1119 0.25 -0.25 0 -0.138 -0.11193 -0.25 -0.25 -0.25" stroke-width="1"></path></g><g id="Group 26"><path id="Vector_17" stroke="#000000" stroke-linecap="round" stroke-linejoin="round" d="M4.86011 13.1201c-0.13807 0 -0.25 -0.1119 -0.25 -0.25s0.11193 -0.25 0.25 -0.25" stroke-width="1"></path><path id="Vector_18" stroke="#000000" stroke-linecap="round" stroke-linejoin="round" d="M4.86011 13.1201c0.13807 0 0.25 -0.1119 0.25 -0.25s-0.11193 -0.25 -0.25 -0.25" stroke-width="1"></path></g><g id="Group 25"><path id="Vector_19" stroke="#000000" stroke-linecap="round" stroke-linejoin="round" d="M7 13.5c-0.13807 0 -0.25 -0.1119 -0.25 -0.25S6.86193 13 7 13" stroke-width="1"></path><path id="Vector_20" stroke="#000000" stroke-linecap="round" stroke-linejoin="round" d="M7 13.5c0.13807 0 0.25 -0.1119 0.25 -0.25S7.13807 13 7 13" stroke-width="1"></path></g><g id="Group 24"><path id="Vector_21" stroke="#000000" stroke-linecap="round" stroke-linejoin="round" d="M9.14001 13.1201c-0.13807 0 -0.25 -0.1119 -0.25 -0.25s0.11193 -0.25 0.25 -0.25" stroke-width="1"></path><path id="Vector_22" stroke="#000000" stroke-linecap="round" stroke-linejoin="round" d="M9.14001 13.1201c0.13808 0 0.25 -0.1119 0.25 -0.25s-0.11192 -0.25 -0.25 -0.25" stroke-width="1"></path></g><g id="Group 23"><path id="Vector_23" stroke="#000000" stroke-linecap="round" stroke-linejoin="round" d="M11.02 12.04c-0.1381 0 -0.25 -0.1119 -0.25 -0.25 0 -0.138 0.1119 -0.25 0.25 -0.25" stroke-width="1"></path><path id="Vector_24" stroke="#000000" stroke-linecap="round" stroke-linejoin="round" d="M11.02 12.04c0.1381 0 0.25 -0.1119 0.25 -0.25 0 -0.138 -0.1119 -0.25 -0.25 -0.25" stroke-width="1"></path></g><g id="Group 22"><path id="Vector_25" stroke="#000000" stroke-linecap="round" stroke-linejoin="round" d="M12.41 10.3799c-0.138 0 -0.25 -0.1119 -0.25 -0.25 0 -0.13809 0.112 -0.25002 0.25 -0.25002" stroke-width="1"></path><path id="Vector_26" stroke="#000000" stroke-linecap="round" stroke-linejoin="round" d="M12.41 10.3799c0.1381 0 0.25 -0.1119 0.25 -0.25 0 -0.13809 -0.1119 -0.25002 -0.25 -0.25002" stroke-width="1"></path></g><g id="Group 21"><path id="Vector_27" stroke="#000000" stroke-linecap="round" stroke-linejoin="round" d="M13.16 8.34009c-0.138 0 -0.25 -0.11193 -0.25 -0.25s0.112 -0.25 0.25 -0.25" stroke-width="1"></path><path id="Vector_28" stroke="#000000" stroke-linecap="round" stroke-linejoin="round" d="M13.16 8.34009c0.1381 0 0.25 -0.11193 0.25 -0.25s-0.1119 -0.25 -0.25 -0.25" stroke-width="1"></path></g><g id="Group 20"><path id="Vector_29" stroke="#000000" stroke-linecap="round" stroke-linejoin="round" d="M13.16 6.15991c-0.138 0 -0.25 -0.11193 -0.25 -0.25s0.112 -0.25 0.25 -0.25" stroke-width="1"></path><path id="Vector_30" stroke="#000000" stroke-linecap="round" stroke-linejoin="round" d="M13.16 6.15991c0.1381 0 0.25 -0.11193 0.25 -0.25s-0.1119 -0.25 -0.25 -0.25" stroke-width="1"></path></g><g id="Group 19"><path id="Vector_31" stroke="#000000" stroke-linecap="round" stroke-linejoin="round" d="M12.41 4.12012c-0.138 0 -0.25 -0.11193 -0.25 -0.25s0.112 -0.25 0.25 -0.25" stroke-width="1"></path><path id="Vector_32" stroke="#000000" stroke-linecap="round" stroke-linejoin="round" d="M12.41 4.12012c0.1381 0 0.25 -0.11193 0.25 -0.25s-0.1119 -0.25 -0.25 -0.25" stroke-width="1"></path></g><g id="Group 18"><path id="Vector_33" stroke="#000000" stroke-linecap="round" stroke-linejoin="round" d="M11.02 2.45996c-0.1381 0 -0.25 -0.11193 -0.25 -0.25s0.1119 -0.25 0.25 -0.25" stroke-width="1"></path><path id="Vector_34" stroke="#000000" stroke-linecap="round" stroke-linejoin="round" d="M11.02 2.45996c0.1381 0 0.25 -0.11193 0.25 -0.25s-0.1119 -0.25 -0.25 -0.25" stroke-width="1"></path></g><g id="Group 17"><path id="Vector_35" stroke="#000000" stroke-linecap="round" stroke-linejoin="round" d="M9.14001 1.37988c-0.13807 0 -0.25 -0.11193 -0.25 -0.25 0 -0.138068 0.11193 -0.249997 0.25 -0.249997" stroke-width="1"></path><path id="Vector_36" stroke="#000000" stroke-linecap="round" stroke-linejoin="round" d="M9.14001 1.37988c0.13808 0 0.25 -0.11193 0.25 -0.25 0 -0.138068 -0.11192 -0.249997 -0.25 -0.249997" stroke-width="1"></path></g></g></svg>