<svg xmlns="http://www.w3.org/2000/svg" fill="none" viewBox="0 0 14 14"><g id="select-square-area-2--select-area-object-work"><g id="Group 34"><path id="Vector" stroke="#000000" stroke-linecap="round" stroke-linejoin="round" d="M1.25 1.5c-0.13807 0 -0.25 -0.11193 -0.25 -0.25S1.11193 1 1.25 1" stroke-width="1"></path><path id="Vector_2" stroke="#000000" stroke-linecap="round" stroke-linejoin="round" d="M1.25 1.5c0.13807 0 0.25 -0.11193 0.25 -0.25S1.38807 1 1.25 1" stroke-width="1"></path></g><g id="Group 49"><path id="Vector_3" stroke="#000000" stroke-linecap="round" stroke-linejoin="round" d="M1.25 4.375c-0.13807 0 -0.25 -0.11193 -0.25 -0.25s0.11193 -0.25 0.25 -0.25" stroke-width="1"></path><path id="Vector_4" stroke="#000000" stroke-linecap="round" stroke-linejoin="round" d="M1.25 4.375c0.13807 0 0.25 -0.11193 0.25 -0.25s-0.11193 -0.25 -0.25 -0.25" stroke-width="1"></path></g><g id="Group 48"><path id="Vector_5" stroke="#000000" stroke-linecap="round" stroke-linejoin="round" d="M1.25 7.25C1.11193 7.25 1 7.13807 1 7s0.11193 -0.25 0.25 -0.25" stroke-width="1"></path><path id="Vector_6" stroke="#000000" stroke-linecap="round" stroke-linejoin="round" d="M1.25 7.25c0.13807 0 0.25 -0.11193 0.25 -0.25s-0.11193 -0.25 -0.25 -0.25" stroke-width="1"></path></g><g id="Group 47"><path id="Vector_7" stroke="#000000" stroke-linecap="round" stroke-linejoin="round" d="M1.25 10.125c-0.13807 0 -0.25 -0.1119 -0.25 -0.25 0 -0.13807 0.11193 -0.25 0.25 -0.25" stroke-width="1"></path><path id="Vector_8" stroke="#000000" stroke-linecap="round" stroke-linejoin="round" d="M1.25 10.125c0.13807 0 0.25 -0.1119 0.25 -0.25 0 -0.13807 -0.11193 -0.25 -0.25 -0.25" stroke-width="1"></path></g><g id="Group 46"><path id="Vector_9" stroke="#000000" stroke-linecap="round" stroke-linejoin="round" d="M1.25 13c-0.13807 0 -0.25 -0.1119 -0.25 -0.25s0.11193 -0.25 0.25 -0.25" stroke-width="1"></path><path id="Vector_10" stroke="#000000" stroke-linecap="round" stroke-linejoin="round" d="M1.25 13c0.13807 0 0.25 -0.1119 0.25 -0.25s-0.11193 -0.25 -0.25 -0.25" stroke-width="1"></path></g><g id="Group 38"><path id="Vector_11" stroke="#000000" stroke-linecap="round" stroke-linejoin="round" d="M12.75 1.5c-0.1381 0 -0.25 -0.11193 -0.25 -0.25s0.1119 -0.25 0.25 -0.25" stroke-width="1"></path><path id="Vector_12" stroke="#000000" stroke-linecap="round" stroke-linejoin="round" d="M12.75 1.5c0.1381 0 0.25 -0.11193 0.25 -0.25S12.8881 1 12.75 1" stroke-width="1"></path></g><g id="Group 39"><path id="Vector_13" stroke="#000000" stroke-linecap="round" stroke-linejoin="round" d="M12.75 4.375c-0.1381 0 -0.25 -0.11193 -0.25 -0.25s0.1119 -0.25 0.25 -0.25" stroke-width="1"></path><path id="Vector_14" stroke="#000000" stroke-linecap="round" stroke-linejoin="round" d="M12.75 4.375c0.1381 0 0.25 -0.11193 0.25 -0.25s-0.1119 -0.25 -0.25 -0.25" stroke-width="1"></path></g><g id="Group 40"><path id="Vector_15" stroke="#000000" stroke-linecap="round" stroke-linejoin="round" d="M12.75 7.25c-0.1381 0 -0.25 -0.11193 -0.25 -0.25s0.1119 -0.25 0.25 -0.25" stroke-width="1"></path><path id="Vector_16" stroke="#000000" stroke-linecap="round" stroke-linejoin="round" d="M12.75 7.25c0.1381 0 0.25 -0.11193 0.25 -0.25s-0.1119 -0.25 -0.25 -0.25" stroke-width="1"></path></g><g id="Group 41"><path id="Vector_17" stroke="#000000" stroke-linecap="round" stroke-linejoin="round" d="M12.75 10.125c-0.1381 0 -0.25 -0.1119 -0.25 -0.25 0 -0.13807 0.1119 -0.25 0.25 -0.25" stroke-width="1"></path><path id="Vector_18" stroke="#000000" stroke-linecap="round" stroke-linejoin="round" d="M12.75 10.125c0.1381 0 0.25 -0.1119 0.25 -0.25 0 -0.13807 -0.1119 -0.25 -0.25 -0.25" stroke-width="1"></path></g><g id="Group 42"><path id="Vector_19" stroke="#000000" stroke-linecap="round" stroke-linejoin="round" d="M12.75 13c-0.1381 0 -0.25 -0.1119 -0.25 -0.25s0.1119 -0.25 0.25 -0.25" stroke-width="1"></path><path id="Vector_20" stroke="#000000" stroke-linecap="round" stroke-linejoin="round" d="M12.75 13c0.1381 0 0.25 -0.1119 0.25 -0.25s-0.1119 -0.25 -0.25 -0.25" stroke-width="1"></path></g><g id="Group 45"><path id="Vector_21" stroke="#000000" stroke-linecap="round" stroke-linejoin="round" d="M4.125 13c-0.13807 0 -0.25 -0.1119 -0.25 -0.25s0.11193 -0.25 0.25 -0.25" stroke-width="1"></path><path id="Vector_22" stroke="#000000" stroke-linecap="round" stroke-linejoin="round" d="M4.125 13c0.13807 0 0.25 -0.1119 0.25 -0.25s-0.11193 -0.25 -0.25 -0.25" stroke-width="1"></path></g><g id="Group 44"><path id="Vector_23" stroke="#000000" stroke-linecap="round" stroke-linejoin="round" d="M7 13c-0.13807 0 -0.25 -0.1119 -0.25 -0.25s0.11193 -0.25 0.25 -0.25" stroke-width="1"></path><path id="Vector_24" stroke="#000000" stroke-linecap="round" stroke-linejoin="round" d="M7 13c0.13807 0 0.25 -0.1119 0.25 -0.25s-0.11193 -0.25 -0.25 -0.25" stroke-width="1"></path></g><g id="Group 43"><path id="Vector_25" stroke="#000000" stroke-linecap="round" stroke-linejoin="round" d="M9.875 13c-0.13807 0 -0.25 -0.1119 -0.25 -0.25s0.11193 -0.25 0.25 -0.25" stroke-width="1"></path><path id="Vector_26" stroke="#000000" stroke-linecap="round" stroke-linejoin="round" d="M9.875 13c0.1381 0 0.25 -0.1119 0.25 -0.25s-0.1119 -0.25 -0.25 -0.25" stroke-width="1"></path></g><g id="Group 35"><path id="Vector_27" stroke="#000000" stroke-linecap="round" stroke-linejoin="round" d="M4.125 1.5c-0.13807 0 -0.25 -0.11193 -0.25 -0.25s0.11193 -0.25 0.25 -0.25" stroke-width="1"></path><path id="Vector_28" stroke="#000000" stroke-linecap="round" stroke-linejoin="round" d="M4.125 1.5c0.13807 0 0.25 -0.11193 0.25 -0.25S4.26307 1 4.125 1" stroke-width="1"></path></g><g id="Group 36"><path id="Vector_29" stroke="#000000" stroke-linecap="round" stroke-linejoin="round" d="M7 1.5c-0.13807 0 -0.25 -0.11193 -0.25 -0.25S6.86193 1 7 1" stroke-width="1"></path><path id="Vector_30" stroke="#000000" stroke-linecap="round" stroke-linejoin="round" d="M7 1.5c0.13807 0 0.25 -0.11193 0.25 -0.25S7.13807 1 7 1" stroke-width="1"></path></g><g id="Group 37"><path id="Vector_31" stroke="#000000" stroke-linecap="round" stroke-linejoin="round" d="M9.875 1.5c-0.13807 0 -0.25 -0.11193 -0.25 -0.25s0.11193 -0.25 0.25 -0.25" stroke-width="1"></path><path id="Vector_32" stroke="#000000" stroke-linecap="round" stroke-linejoin="round" d="M9.875 1.5c0.1381 0 0.25 -0.11193 0.25 -0.25S10.0131 1 9.875 1" stroke-width="1"></path></g></g></svg>