<svg xmlns="http://www.w3.org/2000/svg" fill="none" viewBox="0 0 14 14"><g id="serving-dome--cook-tool-dome-kitchen-drink-serving-platter-dish-tools-food-cooking-hotel"><path id="Vector 4855" stroke="#000000" stroke-linecap="round" stroke-linejoin="round" d="M2 9v1h10V9c0 -2.76142 -2.23858 -5 -5 -5S2 6.23858 2 9Z" stroke-width="1"></path><path id="Vector 4857" stroke="#000000" stroke-linecap="round" stroke-linejoin="round" d="M13.1162 10H0.883796C0.671831 10 0.5 10.1718 0.5 10.3838c0 0.0758 0.022428 0.1498 0.064458 0.2129l0.638672 0.958c0.18547 0.2782 0.4977 0.4453 0.83205 0.4453h9.92962c0.3344 0 0.6466 -0.1671 0.8321 -0.4453l0.6386 -0.958c0.0421 -0.0631 0.0645 -0.1371 0.0645 -0.2129 0 -0.212 -0.1718 -0.3838 -0.3838 -0.3838Z" stroke-width="1"></path><path id="Ellipse 1959" stroke="#000000" stroke-linecap="round" stroke-linejoin="round" d="M6 3a1 1 0 1 0 2 0 1 1 0 1 0 -2 0" stroke-width="1"></path></g></svg>