<svg xmlns="http://www.w3.org/2000/svg" fill="none" viewBox="0 0 14 14"><g id="service-mark--logo-sm-trademark"><path id="Vector" stroke="#000000" stroke-linecap="round" stroke-linejoin="round" d="M7 13.5c3.5899 0 6.5 -2.9101 6.5 -6.5C13.5 3.41015 10.5899 0.5 7 0.5 3.41015 0.5 0.5 3.41015 0.5 7c0 3.5899 2.91015 6.5 6.5 6.5Z" stroke-width="1"></path><path id="Vector 3" stroke="#000000" stroke-linecap="round" stroke-linejoin="round" d="M3.39022 8.33333c0.13727 0.3884 0.50769 0.66667 0.94309 0.66667h0.66667c0.55228 0 1 -0.44808 1 -1.00037 0 -0.46994 -0.32722 -0.87677 -0.7863 -0.97719l-1.17849 -0.25779c-0.40979 -0.08965 -0.70188 -0.45253 -0.70188 -0.87202 0 -0.49298 0.39965 -0.89263 0.89264 -0.89263h0.77403c0.29617 0 0.56226 0.12875 0.74537 0.33333 0.08608 0.09619 0.15383 0.20913 0.19773 0.33334" stroke-width="1"></path><path id="Vector 1" stroke="#000000" stroke-linecap="round" stroke-linejoin="round" d="M7.33331 9V5.21173c0 -0.11694 0.0948 -0.21173 0.21173 -0.21173 0.0753 0 0.14494 0.04 0.18288 0.10504l1.02141 1.751C8.80134 6.94518 8.89677 7 8.99998 7c0.1032 0 0.19864 -0.05482 0.25064 -0.14396l1.02138 -1.751C10.31 5.04 10.3796 5 10.4549 5c0.117 0 0.2117 0.09479 0.2117 0.21172V9" stroke-width="1"></path></g></svg>