<svg xmlns="http://www.w3.org/2000/svg" fill="none" viewBox="0 0 14 14"><g id="share-link-approved--share-transmit-correct-check-link"><path id="Vector" stroke="#000000" stroke-linecap="round" stroke-linejoin="round" d="m4.37305 6.20239 4.25366 1.59513" stroke-width="1"></path><path id="Vector_2" stroke="#000000" stroke-linecap="round" stroke-linejoin="round" d="M8.62671 3.20239 4.37305 4.79752" stroke-width="1"></path><path id="Vector_3" stroke="#000000" stroke-linecap="round" stroke-linejoin="round" d="M10.5 4.5c1.1046 0 2 -0.89543 2 -2s-0.8954 -2 -2 -2c-1.10457 0 -2 0.89543 -2 2s0.89543 2 2 2Z" stroke-width="1"></path><path id="Vector_4" stroke="#000000" stroke-linecap="round" stroke-linejoin="round" d="M2.5 7.5c1.10457 0 2 -0.89543 2 -2s-0.89543 -2 -2 -2 -2 0.89543 -2 2 0.89543 2 2 2Z" stroke-width="1"></path><path id="Vector_5" stroke="#000000" stroke-linecap="round" stroke-linejoin="round" d="m13.5 8.5 -4 5 -2 -1.5" stroke-width="1"></path><path id="Vector_6" stroke="#000000" stroke-linecap="round" stroke-linejoin="round" d="M11.8984 7.07016C11.5378 6.71743 11.0443 6.5 10.5 6.5c-1.10457 0 -2 0.89543 -2 2 0 0.68189 0.34126 1.28408 0.8623 1.6451" stroke-width="1"></path></g></svg>