<svg xmlns="http://www.w3.org/2000/svg" fill="none" viewBox="0 0 14 14"><g id="share-lock--give-hand-lock-padlock-secure-security-transfer"><path id="Vector 3863" stroke="#000000" stroke-linecap="round" stroke-linejoin="round" d="M8.5 6.5V4c0 -0.27614 0.22386 -0.5 0.5 -0.5h4c0.2761 0 0.5 0.22386 0.5 0.5v2.5c0 0.27614 -0.2239 0.5 -0.5 0.5H9c-0.27614 0 -0.5 -0.22386 -0.5 -0.5Z" stroke-width="1"></path><path id="Vector 3864" stroke="#000000" stroke-linecap="round" stroke-linejoin="round" d="M9.25 3.5V2.25c0 -0.9665 0.7835 -1.75 1.75 -1.75v0c0.9665 0 1.75 0.7835 1.75 1.75V3.5" stroke-width="1"></path><path id="Vector 3865" stroke="#000000" stroke-linecap="round" stroke-linejoin="round" d="m0.5 10.9999 2.44373 2.0364c0.35943 0.2995 0.8125 0.4636 1.28037 0.4636l6.4426 0c0.4602 0 0.8333 -0.3731 0.8333 -0.8334 0 -0.9204 -0.7462 -1.6666 -1.66667 -1.6666H5.35429" stroke-width="1"></path><path id="Vector 3866" stroke="#000000" stroke-linecap="round" stroke-linejoin="round" d="m3.5 9.99988 0.75 0.75002c0.41421 0.4142 1.08579 0.4142 1.5 0 0.41421 -0.4142 0.41421 -1.08581 0 -1.50002L4.58579 8.08566c-0.37508 -0.37507 -0.88378 -0.58578 -1.41422 -0.58578H0.5" stroke-width="1"></path></g></svg>