<svg xmlns="http://www.w3.org/2000/svg" fill="none" viewBox="0 0 14 14"><g id="share-link-lock--share-transmit-lock"><path id="Vector" stroke="#000000" stroke-linecap="round" stroke-linejoin="round" d="M8.62671 3.20239 4.37305 4.79752" stroke-width="1"></path><path id="Vector_2" stroke="#000000" stroke-linecap="round" stroke-linejoin="round" d="M10.5 4.5c1.1046 0 2 -0.89543 2 -2s-0.8954 -2 -2 -2c-1.10457 0 -2 0.89543 -2 2s0.89543 2 2 2Z" stroke-width="1"></path><path id="Vector_3" stroke="#000000" stroke-linecap="round" stroke-linejoin="round" d="M2.5 7.5c1.10457 0 2 -0.89543 2 -2s-0.89543 -2 -2 -2 -2 0.89543 -2 2 0.89543 2 2 2Z" stroke-width="1"></path><path id="Vector 3863" stroke="#000000" stroke-linecap="round" stroke-linejoin="round" d="M8.5 13v-2.5c0 -0.2761 0.22386 -0.5 0.5 -0.5h4c0.2761 0 0.5 0.2239 0.5 0.5V13c0 0.2761 -0.2239 0.5 -0.5 0.5H9c-0.27614 0 -0.5 -0.2239 -0.5 -0.5Z" stroke-width="1"></path><path id="Vector 3864" stroke="#000000" stroke-linecap="round" stroke-linejoin="round" d="M9.25 10V8.75C9.25 7.7835 10.0335 7 11 7v0c0.9665 0 1.75 0.7835 1.75 1.75V10" stroke-width="1"></path><path id="Vector_4" stroke="#000000" stroke-linecap="round" stroke-linejoin="round" d="m4.37305 6.20239 2.86049 1.07269" stroke-width="1"></path></g></svg>