<svg xmlns="http://www.w3.org/2000/svg" fill="none" viewBox="0 0 14 14"><g id="share-money-dollar--payment-cash-money-finance-receive-give-hand"><path id="Vector 3" stroke="#000000" stroke-linecap="round" stroke-linejoin="round" d="M12.2019 2.98008c-0.0585 -0.16561 -0.1489 -0.31621 -0.2636 -0.44445 -0.2442 -0.27278 -0.599 -0.44444 -0.9939 -0.44444h-1.032c-0.65732 0 -1.19018 0.53286 -1.19018 1.19017 0 0.55931 0.38945 1.04316 0.93584 1.16269l1.57134 0.34372c0.6121 0.1339 1.0484 0.67634 1.0484 1.30293 0 0.73638 -0.597 1.33382 -1.3334 1.33382h-0.8888c-0.58059 0 -1.07447 -0.37103 -1.25751 -0.88889" stroke-width="1"></path><path id="Vector 2489" stroke="#000000" stroke-linecap="round" stroke-linejoin="round" d="M10.5 2.09115V0.757812" stroke-width="1"></path><path id="Vector 2490" stroke="#000000" stroke-linecap="round" stroke-linejoin="round" d="M10.5 8.75777V7.42444" stroke-width="1"></path><path id="Vector 294" stroke="#000000" stroke-linecap="round" stroke-linejoin="round" d="m0.645508 10.875 2.443732 2.0364c0.35943 0.2996 0.81249 0.4636 1.28037 0.4636l6.44259 0c0.4602 0 0.8333 -0.3731 0.8333 -0.8333 0 -0.9205 -0.7462 -1.6667 -1.66666 -1.6667H5.4998" stroke-width="1"></path><path id="Vector 295" stroke="#000000" stroke-linecap="round" stroke-linejoin="round" d="m3.64551 9.875 0.75 0.75c0.41421 0.4142 1.08578 0.4142 1.5 0 0.41421 -0.4142 0.41421 -1.08579 0 -1.5L4.73129 7.96079c-0.37507 -0.37508 -0.88378 -0.58579 -1.41421 -0.58579H0.645508" stroke-width="1"></path></g></svg>