<svg xmlns="http://www.w3.org/2000/svg" fill="none" viewBox="0 0 14 14"><g id="share-playlist--share-playlist-song-entertainment"><path id="Ellipse 21" stroke="#000000" stroke-linecap="round" stroke-linejoin="round" d="M2.83333 3.70817c0 0.64433 -0.52233 1.16667 -1.16666 1.16667C1.02233 4.87484 0.5 4.3525 0.5 3.70817c0 -0.64433 0.52233 -1.16667 1.16667 -1.16667 0.64433 0 1.16666 0.52234 1.16666 1.16667Z" stroke-width="1"></path><path id="Ellipse 22" stroke="#000000" stroke-linecap="round" stroke-linejoin="round" d="M7.16634 1.66667c0 0.64433 -0.52233 1.16666 -1.16667 1.16666 -0.64433 0 -1.16666 -0.52233 -1.16666 -1.16666C4.83301 1.02233 5.35534 0.5 5.99967 0.5c0.64434 0 1.16667 0.52233 1.16667 1.16667Z" stroke-width="1"></path><path id="Ellipse 23" stroke="#000000" stroke-linecap="round" stroke-linejoin="round" d="M7.16634 5.74984c0 -0.64433 -0.52233 -1.16667 -1.16667 -1.16667 -0.64433 0 -1.16666 0.52234 -1.16666 1.16667 0 0.64433 0.52233 1.16666 1.16666 1.16666 0.64434 0 1.16667 -0.52233 1.16667 -1.16666Z" stroke-width="1"></path><path id="Subtract" stroke="#000000" stroke-linecap="round" stroke-linejoin="round" d="m4.99154 2.25439 -2.32528 0.86578m2.32528 2.04167 -2.32528 -0.86578" stroke-width="1"></path><path id="Vector" stroke="#000000" stroke-linecap="round" stroke-linejoin="round" d="M7.5 13.5c1.10457 0 2 -0.8954 2 -2s-0.89543 -2 -2 -2 -2 0.8954 -2 2 0.89543 2 2 2Z" stroke-width="1"></path><path id="Vector 3107" stroke="#000000" stroke-linecap="round" stroke-linejoin="round" d="M9.5 11.5v-9c2.2091 0 4 1.79086 4 4v0" stroke-width="1"></path></g></svg>