<svg xmlns="http://www.w3.org/2000/svg" fill="none" viewBox="0 0 14 14"><g id="share-location--share-location-hand-give-pin-navigation-maps-gps-travel"><path id="Vector 3865" stroke="#000000" stroke-linecap="round" stroke-linejoin="round" d="m0.5 11 2.44373 2.0364c0.35943 0.2996 0.8125 0.4636 1.28037 0.4636l6.4426 0c0.4602 0 0.8333 -0.3731 0.8333 -0.8333C11.5 11.7462 10.7538 11 9.83333 11H5.35429" stroke-width="1"></path><path id="Vector 3866" stroke="#000000" stroke-linecap="round" stroke-linejoin="round" d="m3.5 10 0.75 0.75c0.41421 0.4142 1.08579 0.4142 1.5 0 0.41421 -0.4142 0.41421 -1.08579 0 -1.5L4.58579 8.08579C4.21071 7.71071 3.70201 7.5 3.17157 7.5H0.5" stroke-width="1"></path><path id="Ellipse 1696" stroke="#000000" stroke-linecap="round" stroke-linejoin="round" d="M13.5 3.5c0 2.5 -3 4.5 -3 4.5s-3 -2 -3 -4.5c0 -1.65685 1.34315 -3 3 -3 1.6569 0 3 1.34315 3 3Z" stroke-width="1"></path><path id="Vector" stroke="#000000" stroke-linecap="round" stroke-linejoin="round" d="M10.5 4c0.2761 0 0.5 -0.22386 0.5 -0.5s-0.2239 -0.5 -0.5 -0.5 -0.5 0.22386 -0.5 0.5 0.2239 0.5 0.5 0.5Z" stroke-width="1"></path></g></svg>