<svg xmlns="http://www.w3.org/2000/svg" fill="none" viewBox="0 0 14 14"><g id="shell--nature-sealife-animals"><path id="Vector 2292" stroke="#000000" stroke-linecap="round" stroke-linejoin="round" d="M9.49658 11.5v1c0 0.5523 -0.44771 1 -1 1h-3c-0.55228 0 -1 -0.4477 -1 -1v-1" stroke-width="1"></path><path id="Union" stroke="#000000" stroke-linecap="round" stroke-linejoin="round" d="M4.77527 3.85142C4.4011 3.62823 3.96372 3.5 3.49639 3.5 2.11568 3.5 0.996388 4.61929 0.996388 6c0 0.35482 0.073922 0.69238 0.207202 0.99811 -0.12551 0.16047 -0.240627 0.31809 -0.345628 0.47006 -0.57239 0.82843 -0.201894 1.89832 0.678328 2.38733L4.49639 11.5h5.04675l2.92406 -1.64152c0.8751 -0.49126 1.242 -1.55763 0.6722 -2.38373 -0.1063 -0.154 -0.2229 -0.31385 -0.3502 -0.47664 0.1333 -0.30573 0.2072 -0.64329 0.2072 -0.99811 0 -1.38071 -1.1193 -2.5 -2.5 -2.5 -0.4673 0 -0.90472 0.12823 -1.27889 0.35142C8.80151 3.0486 7.96301 2.5 6.99639 2.5c-0.96663 0 -1.80512 0.5486 -2.22112 1.35142Z" stroke-width="1"></path><path id="Vector 2288" stroke="#000000" stroke-linecap="round" stroke-linejoin="round" d="m8.49654 7.00002 0.72416 -3.15413" stroke-width="1"></path><path id="Vector 2289" stroke="#000000" stroke-linecap="round" stroke-linejoin="round" d="M12.8457 6.85968 9.99658 9" stroke-width="1"></path><path id="Vector 2290" stroke="#000000" stroke-linecap="round" stroke-linejoin="round" d="m5.49658 7.00002 -0.72416 -3.15413" stroke-width="1"></path><path id="Vector 2291" stroke="#000000" stroke-linecap="round" stroke-linejoin="round" d="M1.14746 6.85968 3.99658 9" stroke-width="1"></path></g></svg>