<svg xmlns="http://www.w3.org/2000/svg" fill="none" viewBox="0 0 14 14"><g id="ship--cruise-travel-boat-transportation-transport-ocean-liner-ship-sea-water"><path id="Vector 4503" stroke="#000000" stroke-linecap="round" stroke-linejoin="round" d="M3 4.5V7h8V4.5c0 -0.55228 -0.4477 -1 -1 -1H4c-0.55228 0 -1 0.44772 -1 1Z" stroke-width="1"></path><path id="Vector 4505" stroke="#000000" stroke-linecap="round" stroke-linejoin="round" d="m7 3.5 -1 -3" stroke-width="1"></path><path id="Vector 4506" stroke="#000000" stroke-linecap="round" stroke-linejoin="round" d="m12.4469 10.154 0.5491 -2.88282c0.0026 -0.01409 0.004 -0.0284 0.004 -0.04274v0C13 7.10228 12.8977 7 12.7716 7H1.22844C1.10227 7 1 7.10228 1 7.22844v0c0 0.01434 0.00135 0.02865 0.00403 0.04274l0.54912 2.88282" stroke-width="1"></path><path id="Vector" stroke="#000000" stroke-linecap="round" stroke-linejoin="round" d="M1 12.8316c0.22731 0.108 0.4816 0.1684 0.75 0.1684 0.9665 0 1.75 -0.7835 1.75 -1.75 0 0.9665 0.7835 1.75 1.75 1.75S7 12.2165 7 11.25c0 0.9665 0.7835 1.75 1.75 1.75s1.75 -0.7835 1.75 -1.75c0 0.9665 0.7835 1.75 1.75 1.75 0.2684 0 0.5227 -0.0604 0.75 -0.1684" stroke-width="1"></path></g></svg>