<svg xmlns="http://www.w3.org/2000/svg" fill="none" viewBox="0 0 14 14"><g id="shipment-search--shipping-parcel-shipment-search-find"><path id="Vector" stroke="#000000" stroke-linecap="round" stroke-linejoin="round" d="M5.92676 0.5v3.32692" stroke-width="1"></path><path id="Vector_2" stroke="#000000" stroke-linecap="round" stroke-linejoin="round" d="M11.333 5.5625V3.8269H0.520508v6.6539c0 0.2205 0.087628 0.4321 0.243608 0.5881 0.15598 0.156 0.367534 0.2436 0.588124 0.2436h4.01202" stroke-width="1"></path><path id="Vector_3" stroke="#000000" stroke-linecap="round" stroke-linejoin="round" d="M0.520508 3.82692 1.7681 1.42322c0.1345 -0.27092 0.34032 -0.500038 0.59532 -0.66271 0.255 -0.162672 0.54953 -0.252738 0.8519 -0.26051H8.6382c0.30947 0.000164 0.61277 0.086656 0.87578 0.249752 0.263 0.163095 0.4753 0.396328 0.61302 0.673468l1.206 2.4037" stroke-width="1"></path><path id="vector" stroke="#000000" stroke-linecap="round" stroke-linejoin="round" d="M9.89551 12.4113c1.38069 0 2.49999 -1.1193 2.49999 -2.49998 0 -1.38072 -1.1193 -2.5 -2.49999 -2.5 -1.38071 0 -2.5 1.11928 -2.5 2.5 0 1.38068 1.11929 2.49998 2.5 2.49998Z" stroke-width="1"></path><path id="vector_2" stroke="#000000" stroke-linecap="round" stroke-linejoin="round" d="m13.3955 13.4113 -1.73 -1.73" stroke-width="1"></path></g></svg>