<svg xmlns="http://www.w3.org/2000/svg" fill="none" viewBox="0 0 14 14"><g id="shipment-time--shipping-parcel-shipment-time-clock"><path id="Vector" stroke="#000000" stroke-linecap="round" stroke-linejoin="round" d="M5.90625 0.5v3.32692" stroke-width="1"></path><path id="Vector_2" stroke="#000000" stroke-linecap="round" stroke-linejoin="round" d="M11.3125 5.21877V3.82692H0.5v6.65388c0 0.2206 0.087629 0.4321 0.243608 0.5881 0.15598 0.156 0.367532 0.2436 0.588122 0.2436h3.63702" stroke-width="1"></path><path id="Vector_3" stroke="#000000" stroke-linecap="round" stroke-linejoin="round" d="m0.5 3.82692 1.2476 -2.4037c0.13449 -0.27092 0.34031 -0.500038 0.59531 -0.66271 0.255 -0.162672 0.54953 -0.252738 0.8519 -0.26051h5.42288c0.30948 0.000164 0.61277 0.086656 0.87578 0.249752 0.26301 0.163095 0.4753 0.396328 0.61303 0.673468l1.206 2.4037" stroke-width="1"></path><path id="vector" stroke="#000000" stroke-linecap="round" stroke-linejoin="round" d="M10.4375 13.4062c1.6569 0 3 -1.3431 3 -3 0 -1.6568 -1.3431 -2.99995 -3 -2.99995 -1.65685 0 -3 1.34315 -3 2.99995 0 1.6569 1.34315 3 3 3Z" stroke-width="1"></path><path id="vector_2" stroke="#000000" stroke-linecap="round" stroke-linejoin="round" d="m11.1875 9.65625 -0.75 0.74995" stroke-width="1"></path></g></svg>