<svg xmlns="http://www.w3.org/2000/svg" fill="none" viewBox="0 0 14 14"><g id="shopping-cart-percent-1--shopping-cart-percent-checkout-deals-discount"><path id="Vector" stroke="#000000" stroke-linecap="round" stroke-linejoin="round" d="M10.946 13.5c-0.2761 0 -0.5 -0.2239 -0.5 -0.5s0.2239 -0.5 0.5 -0.5c0.2762 0 0.5 0.2239 0.5 0.5s-0.2238 0.5 -0.5 0.5Z" stroke-width="1"></path><path id="Vector_2" stroke="#000000" stroke-linecap="round" stroke-linejoin="round" d="M4.44604 13.5c-0.27614 0 -0.5 -0.2239 -0.5 -0.5s0.22386 -0.5 0.5 -0.5c0.27615 0 0.5 0.2239 0.5 0.5s-0.22385 0.5 -0.5 0.5Z" stroke-width="1"></path><path id="Vector 2498" stroke="#000000" stroke-linecap="round" stroke-linejoin="round" d="M0.5 0.5H3L3.26316 3m0 0 0.6426 6.10468c0.05357 0.50895 0.48274 0.89532 0.9945 0.89532h6.31894c0.4589 0 0.8589 -0.3123 0.9702 -0.75746l1.25 -5C13.5972 3.61139 13.1198 3 12.4692 3H3.26316Z" stroke-width="1"></path><path id="Vector_3" stroke="#000000" stroke-linecap="round" stroke-linejoin="round" d="m6.4165 8.0586 3.28334 -3.28333" stroke-width="1"></path><g id="Group 4470"><path id="Ellipse 1" stroke="#000000" stroke-linecap="round" stroke-linejoin="round" d="M6.81421 5.25232c-0.13807 0 -0.25 -0.11193 -0.25 -0.25s0.11193 -0.25 0.25 -0.25" stroke-width="1"></path><path id="Ellipse 2" stroke="#000000" stroke-linecap="round" stroke-linejoin="round" d="M6.81421 5.25232c0.13807 0 0.25 -0.11193 0.25 -0.25s-0.11193 -0.25 -0.25 -0.25" stroke-width="1"></path></g><g id="Group 4471"><path id="Ellipse 1_2" stroke="#000000" stroke-linecap="round" stroke-linejoin="round" d="M9.47314 8.08142c-0.13807 0 -0.25 -0.11193 -0.25 -0.25s0.11193 -0.25 0.25 -0.25" stroke-width="1"></path><path id="Ellipse 2_2" stroke="#000000" stroke-linecap="round" stroke-linejoin="round" d="M9.47314 8.08142c0.13808 0 0.25 -0.11193 0.25 -0.25s-0.11192 -0.25 -0.25 -0.25" stroke-width="1"></path></g></g></svg>