<svg xmlns="http://www.w3.org/2000/svg" fill="none" viewBox="0 0 14 14"><g id="sign-cross-shield--health-sign-medical-symbol-hospital-cross-shield-protection-insurance"><path id="Vector" stroke="#000000" stroke-linecap="round" stroke-linejoin="round" d="M7.35159 13.2471c-0.22626 0.0873 -0.47691 0.0873 -0.70318 0v0c-1.76394 -0.6801 -3.28077 -1.8781 -4.35106 -3.43651C1.22706 8.25222 0.653421 6.40643 0.651855 4.51592V1.66414c0 -0.25902 0.102896 -0.50743 0.286051 -0.690589C1.12106 0.790395 1.36947 0.6875 1.62849 0.6875H12.3715c0.259 0 0.5074 0.102895 0.6906 0.286051 0.1832 0.183159 0.286 0.431569 0.286 0.690589v2.85178c-0.0015 1.89051 -0.5752 3.7363 -1.6454 5.29467C10.6324 11.369 9.11553 12.567 7.35159 13.2471v0Z" stroke-width="1"></path><path id="Union" stroke="#000000" stroke-linecap="round" stroke-linejoin="round" d="M6.1875 3.15625c-0.27614 0 -0.5 0.22386 -0.5 0.5v1.40628l-1.40625 0c-0.27614 0 -0.5 0.22385 -0.5 0.5v1.625c0 0.27614 0.22386 0.5 0.5 0.5H5.6875v1.40622c0 0.27614 0.22386 0.5 0.5 0.5h1.625c0.27614 0 0.5 -0.22386 0.5 -0.5V7.68753h1.40625c0.27614 0 0.50005 -0.22386 0.50005 -0.5v-1.625c0 -0.27615 -0.22391 -0.5 -0.50005 -0.5l-1.40625 0V3.65625c0 -0.27614 -0.22386 -0.5 -0.5 -0.5h-1.625Z" stroke-width="1"></path></g></svg>