<svg xmlns="http://www.w3.org/2000/svg" fill="none" viewBox="0 0 14 14"><g id="sign-language-hand--disability-sign-language-hand"><path id="Vector 5066" stroke="#000000" stroke-linecap="round" stroke-linejoin="round" d="m0.5 2 1.54995 -0.92997C2.67161 0.697032 3.38296 0.5 4.10794 0.5h0.23521c1.06086 0 2.07828 0.421427 2.82842 1.17157L8.625 3.125c0.34518 0.34518 0.34518 0.90482 0 1.25v0c-0.34518 0.34518 -0.90482 0.34518 -1.25 0L6.75 3.75c-0.55229 -0.55229 -1.44772 -0.55228 -2 0v0c-0.55228 0.55228 -0.55228 1.44772 0 2l0.625 0.625c0.34518 0.34518 0.34518 0.90482 0 1.25v0c-0.34518 0.34518 -0.90482 0.34518 -1.25 0L2.5 6l-2 2" stroke-width="1"></path><path id="Vector 5067" stroke="#000000" stroke-linecap="round" stroke-linejoin="round" d="m13.5 12 -1.55 0.93c-0.6216 0.373 -1.333 0.57 -2.05794 0.57h-0.23521c-1.06086 0 -2.07828 -0.4214 -2.82842 -1.1716L5.375 10.875c-0.34518 -0.3452 -0.34518 -0.90482 0 -1.25v0c0.34518 -0.34518 0.90482 -0.34518 1.25 0l0.625 0.625c0.55229 0.5523 1.44772 0.5523 2 0v0c0.55228 -0.55228 0.55228 -1.44772 0 -2l-0.625 -0.625c-0.34518 -0.34518 -0.34518 -0.90482 0 -1.25v0c0.34518 -0.34518 0.90482 -0.34518 1.25 0L11.5 8l2 -2" stroke-width="1"></path></g></svg>