<svg xmlns="http://www.w3.org/2000/svg" fill="none" viewBox="0 0 14 14"><g id="sine--interface-math-sin-sign-mathematics-trigonometry"><path id="Vector 4455" stroke="#000000" stroke-linecap="round" stroke-linejoin="round" d="M3.61622 5c-0.17291 -0.2989 -0.49608 -0.5 -0.86622 -0.5H1.61389C0.998705 4.5 0.5 4.9987 0.5 5.61389c0 0.51869 0.358014 0.96873 0.86342 1.08536l1.41523 0.32659c0.56858 0.13121 0.97135 0.63751 0.97135 1.22104C3.75 8.93896 3.18896 9.5 2.49688 9.5H1.5c-0.37014 0 -0.693313 -0.2011 -0.866218 -0.5" stroke-width="1"></path><path id="Vector 1" stroke="#000000" stroke-linecap="round" stroke-linejoin="round" d="m5.5 4.5 2.5 0" stroke-width="1"></path><path id="Vector 4456" stroke="#000000" stroke-linecap="round" stroke-linejoin="round" d="m8 9.5 -2.5 0" stroke-width="1"></path><path id="Vector 2" stroke="#000000" stroke-linecap="round" stroke-linejoin="round" d="m6.75 4.5 -0.00001 5" stroke-width="1"></path><path id="Vector 4" stroke="#000000" stroke-linecap="round" stroke-linejoin="round" d="M10 9.5v-5l3.5 5v-5" stroke-width="1"></path></g></svg>