<svg xmlns="http://www.w3.org/2000/svg" fill="none" viewBox="0 0 14 14"><g id="skull-2--crash-death-delete-die-error-garbage-remove-skull-trash"><path id="Vector 1348" stroke="#000000" stroke-linecap="round" stroke-linejoin="round" d="M10.5 13.5v-2" stroke-width="1"></path><path id="Vector 1349" stroke="#000000" stroke-linecap="round" stroke-linejoin="round" d="M8 13.5v-2" stroke-width="1"></path><path id="Ellipse 454" stroke="#000000" stroke-linecap="round" stroke-linejoin="round" d="M10 7.25a1.25 1.25 0 1 0 2.5 0 1.25 1.25 0 1 0 -2.5 0" stroke-width="1"></path><path id="Ellipse 457" stroke="#000000" stroke-linecap="round" stroke-linejoin="round" d="M5.5 7.25a1.25 1.25 0 1 0 2.5 0 1.25 1.25 0 1 0 -2.5 0" stroke-width="1"></path><path id="Ellipse 456" stroke="#000000" stroke-linecap="round" stroke-linejoin="round" d="M6.75 0.499512C3.57436 0.499512 1 3.07387 1 6.24951c0 2.74637 1.92542 5.04299 4.50003 5.61379V12.5c0 0.5523 0.44772 1 1 1H11.5c0.5523 0 1 -0.4477 1 -1V6.24951C12.5 3.07387 9.92564 0.499512 6.75 0.499512Z" stroke-width="1"></path></g></svg>