<svg xmlns="http://www.w3.org/2000/svg" fill="none" viewBox="0 0 14 14"><g id="skype--video-meeting-skype"><path id="Vector" stroke="#000000" stroke-linecap="round" stroke-linejoin="round" d="m12.8662 8.63889 -0.09 -0.06995c0.1405 -0.50796 0.2145 -1.03198 0.2201 -1.55895 0 -1.59022 -0.6323 -3.11531 -1.7577 -4.23977S8.5869 1.01405 6.99536 1.01405c-0.52361 0.00319 -1.04464 0.07372 -1.55023 0.20986l-0.07001 -0.08994C4.81085 0.669464 4.08617 0.445722 3.358 0.511185c-0.72817 0.065462 -1.40123 0.414861 -1.87346 0.972545 -0.558143 0.47184 -0.90783 1.14435 -0.973346 1.87192 -0.065517 0.72757 0.15841 1.45164 0.623296 2.01545l0.08001 0.05996c-0.14442 0.51396 -0.218441 1.04511 -0.220031 1.57893 0 1.59023 0.632231 3.11531 1.757621 4.23981 1.12539 1.1244 2.65174 1.7561 4.24327 1.7561 0.53427 -0.0015 1.06586 -0.0755 1.58024 -0.2198l0.06001 0.0799c0.56427 0.4645 1.28894 0.6883 2.01709 0.6228 0.7282 -0.0654 1.4013 -0.4148 1.8735 -0.9725 0.5537 -0.473 0.8996 -1.1442 0.9632 -1.8693 0.0636 -0.72507 -0.1602 -1.44614 -0.6232 -2.00811v0Z" stroke-width="1"></path><path id="Vector 3" stroke="#000000" stroke-linecap="round" stroke-linejoin="round" d="M9.15728 4.75684c-0.0742 -0.20994 -0.18871 -0.40085 -0.33421 -0.56342 -0.98459 -1.10007 -4.07698 -0.83238 -4.07698 0.94536 0 2.603 4.50737 0.81793 4.50737 3.56139 0 2.09143 -3.77232 2.37153 -4.41119 0.56404" stroke-width="1"></path></g></svg>