<svg width="14" height="14" viewBox="0 0 14 14" fill="none" xmlns="http://www.w3.org/2000/svg">
<path d="M6 2.5C6.27614 2.5 6.5 2.27614 6.5 2C6.5 1.72386 6.27614 1.5 6 1.5C5.72386 1.5 5.5 1.72386 5.5 2C5.5 2.27614 5.72386 2.5 6 2.5Z" stroke="#01040B"/>
<path d="M12 6.5C12.2761 6.5 12.5 6.27614 12.5 6C12.5 5.72386 12.2761 5.5 12 5.5C11.7239 5.5 11.5 5.72386 11.5 6C11.5 6.27614 11.7239 6.5 12 6.5Z" stroke="#01040B"/>
<path d="M8 12.5C8.27614 12.5 8.5 12.2761 8.5 12C8.5 11.7239 8.27614 11.5 8 11.5C7.72386 11.5 7.5 11.7239 7.5 12C7.5 12.2761 7.72386 12.5 8 12.5Z" stroke="#01040B"/>
<path d="M2 8.5C2.27614 8.5 2.5 8.27614 2.5 8C2.5 7.72386 2.27614 7.5 2 7.5C1.72386 7.5 1.5 7.72386 1.5 8C1.5 8.27614 1.72386 8.5 2 8.5Z" stroke="#01040B"/>
<path d="M8.79321 1.21899V6.15571" stroke="#01040B" stroke-linecap="round" stroke-linejoin="round"/>
<path d="M5.20337 7.8479V12.7846" stroke="#01040B" stroke-linecap="round" stroke-linejoin="round"/>
<path d="M1.21509 5.20728H6.1517" stroke="#01040B" stroke-linecap="round" stroke-linejoin="round"/>
<path d="M7.84399 8.79712H12.7808" stroke="#01040B" stroke-linecap="round" stroke-linejoin="round"/>
</svg>
