<svg width="24" height="24" viewBox="0 0 24 24" fill="none" xmlns="http://www.w3.org/2000/svg">
<path d="M9.75 9C10.9926 9 12 7.99264 12 6.75C12 5.50736 10.9926 4.5 9.75 4.5C8.50736 4.5 7.5 5.50736 7.5 6.75C7.5 7.99264 8.50736 9 9.75 9Z" stroke="#01040B" stroke-width="2" stroke-linecap="round" stroke-linejoin="round"/>
<path d="M15.75 19.5C16.9926 19.5 18 18.4926 18 17.25C18 16.0074 16.9926 15 15.75 15C14.5074 15 13.5 16.0074 13.5 17.25C13.5 18.4926 14.5074 19.5 15.75 19.5Z" stroke="#01040B" stroke-width="2" stroke-linecap="round" stroke-linejoin="round"/>
<path d="M12 7.5H21" stroke="#01040B" stroke-width="2" stroke-linecap="round" stroke-linejoin="round"/>
<path d="M3 7.5H7.5" stroke="#01040B" stroke-width="2" stroke-linecap="round" stroke-linejoin="round"/>
<path d="M18 16.5H21" stroke="#01040B" stroke-width="2" stroke-linecap="round" stroke-linejoin="round"/>
<path d="M3 16.5H13.5" stroke="#01040B" stroke-width="2" stroke-linecap="round" stroke-linejoin="round"/>
</svg>
