<svg xmlns="http://www.w3.org/2000/svg" fill="none" viewBox="0 0 14 14"><g id="smart-key--smart-key-entry-lock-login-pass-unlock-access-signal-wifi"><path id="Vector" stroke="#000000" stroke-linecap="round" stroke-linejoin="round" d="M6.12134 7.87874 11.0001 3l2 2" stroke-width="1"></path><path id="Vector_2" stroke="#000000" stroke-linecap="round" stroke-linejoin="round" d="m9 5 1.75 1.75" stroke-width="1"></path><path id="Vector_3" stroke="#000000" stroke-linecap="round" stroke-linejoin="round" d="M4 13c1.65685 0 3 -1.3431 3 -3 0 -1.65685 -1.34315 -3 -3 -3s-3 1.34315 -3 3c0 1.6569 1.34315 3 3 3Z" stroke-width="1"></path><path id="Vector_4" stroke="#000000" stroke-linecap="round" stroke-linejoin="round" d="M6.82849 2.17157C6.07834 1.42143 5.06092 1 4.00006 1c-1.06087 0 -2.07828 0.42143 -2.82843 1.17157" stroke-width="1"></path><path id="Vector_5" stroke="#000000" stroke-linecap="round" stroke-linejoin="round" d="M5.06077 3.9391c-0.2813 -0.28131 -0.66283 -0.43934 -1.06066 -0.43934 -0.39782 0 -0.77935 0.15803 -1.06066 0.43934" stroke-width="1"></path></g></svg>