<svg xmlns="http://www.w3.org/2000/svg" fill="none" viewBox="0 0 14 14"><g id="smiley-wink"><path id="Vector 559" stroke="#000000" stroke-linecap="round" stroke-linejoin="round" d="M8.47534 5.29796c0.15641 -0.25417 0.50052 -0.4171 0.8342 -0.4171 0.33368 0 0.67779 0.16293 0.83416 0.4171" stroke-width="1"></path><g id="Group 623"><path id="Vector" stroke="#000000" stroke-linecap="round" stroke-linejoin="round" d="M4.75 5.5c-0.13807 0 -0.25 -0.11193 -0.25 -0.25S4.61193 5 4.75 5" stroke-width="1"></path><path id="Vector_2" stroke="#000000" stroke-linecap="round" stroke-linejoin="round" d="M4.75 5.5c0.13807 0 0.25 -0.11193 0.25 -0.25S4.88807 5 4.75 5" stroke-width="1"></path></g><path id="Vector_3" stroke="#000000" stroke-linecap="round" stroke-linejoin="round" d="M7 13.5c3.5899 0 6.5 -2.9101 6.5 -6.5C13.5 3.41015 10.5899 0.5 7 0.5 3.41015 0.5 0.5 3.41015 0.5 7c0 3.5899 2.91015 6.5 6.5 6.5Z" stroke-width="1"></path><path id="Ellipse 1793" stroke="#000000" stroke-linecap="round" stroke-linejoin="round" d="M3.64494 8C4.07522 9.44574 5.41449 10.5 7 10.5S9.92479 9.44574 10.3551 8" stroke-width="1"></path></g></svg>