<svg xmlns="http://www.w3.org/2000/svg" fill="none" viewBox="0 0 14 14"><g id="smiley-rich"><path id="Vector" stroke="#000000" stroke-linecap="round" stroke-linejoin="round" d="M7 13.5c3.5899 0 6.5 -2.9101 6.5 -6.5C13.5 3.41015 10.5899 0.5 7 0.5 3.41015 0.5 0.5 3.41015 0.5 7c0 3.5899 2.91015 6.5 6.5 6.5Z" stroke-width="1"></path><path id="Vector 633" stroke="#000000" stroke-linecap="round" stroke-linejoin="round" d="M5.67744 3.93671h-0.7024c-0.38793 0 -0.70243 0.31448 -0.70243 0.70241s0.31448 0.70241 0.70242 0.70241c0.38793 0 0.70241 0.31448 0.70241 0.70242 0 0.38793 -0.31448 0.70241 -0.70241 0.70241h-0.70242" stroke-width="1"></path><path id="Vector 634" stroke="#000000" stroke-linecap="round" stroke-linejoin="round" d="M4.97443 3.93728v-0.70242" stroke-width="1"></path><path id="Vector 635" stroke="#000000" stroke-linecap="round" stroke-linejoin="round" d="M4.97443 7.449v-0.70242" stroke-width="1"></path><path id="Vector 633_2" stroke="#000000" stroke-linecap="round" stroke-linejoin="round" d="M9.7298 3.93671h-0.7024c-0.38793 0 -0.70243 0.31448 -0.70243 0.70241s0.31448 0.70241 0.70242 0.70241c0.38793 0 0.70241 0.31448 0.70241 0.70242 0 0.38793 -0.31448 0.70241 -0.70241 0.70241h-0.70242" stroke-width="1"></path><path id="Vector 634_2" stroke="#000000" stroke-linecap="round" stroke-linejoin="round" d="M9.02679 3.93728v-0.70242" stroke-width="1"></path><path id="Vector 635_2" stroke="#000000" stroke-linecap="round" stroke-linejoin="round" d="M9.02679 7.449v-0.70242" stroke-width="1"></path><path id="Vector_2" stroke="#000000" stroke-linecap="round" stroke-linejoin="round" d="M4.21955 9.5c0.6464 1.1234 2.1388 1.752 3.6312 1.4041 0.80377 -0.1942 1.4883 -0.7053 1.90764 -1.4041" stroke-width="1"></path></g></svg>