<svg xmlns="http://www.w3.org/2000/svg" fill="none" viewBox="0 0 14 14"><g id="smiley-crying-2"><path id="Ellipse 1793" stroke="#000000" stroke-linecap="round" stroke-linejoin="round" d="M4 9.69617c0.53078 -0.88089 1.43858 -1.50894 2.5 -1.66077" stroke-width="1"></path><path id="Vector" stroke="#000000" stroke-linecap="round" stroke-linejoin="round" d="M7 13.5c3.5899 0 6.5 -2.9101 6.5 -6.5C13.5 3.41015 10.5899 0.5 7 0.5 3.41015 0.5 0.5 3.41015 0.5 7c0 3.5899 2.91015 6.5 6.5 6.5Z" stroke-width="1"></path><g id="Group 623"><path id="Vector_2" stroke="#000000" stroke-linecap="round" stroke-linejoin="round" d="M4.75 5.5c-0.13807 0 -0.25 -0.11193 -0.25 -0.25S4.61193 5 4.75 5" stroke-width="1"></path><path id="Vector_3" stroke="#000000" stroke-linecap="round" stroke-linejoin="round" d="M4.75 5.5c0.13807 0 0.25 -0.11193 0.25 -0.25S4.88807 5 4.75 5" stroke-width="1"></path></g><g id="Group 624"><path id="Vector_4" stroke="#000000" stroke-linecap="round" stroke-linejoin="round" d="M9.25 5.5c-0.13807 0 -0.25 -0.11193 -0.25 -0.25S9.11193 5 9.25 5" stroke-width="1"></path><path id="Vector_5" stroke="#000000" stroke-linecap="round" stroke-linejoin="round" d="M9.25 5.5c0.13807 0 0.25 -0.11193 0.25 -0.25S9.38807 5 9.25 5" stroke-width="1"></path></g><path id="Vector_6" stroke="#000000" stroke-linecap="round" stroke-linejoin="round" d="M9.25 10c0.55228 0 1 -0.47548 1 -1.06202C10.25 8.35145 9.25 7 9.25 7s-1 1.35145 -1 1.93798C8.25 9.52452 8.69772 10 9.25 10Z" stroke-width="1"></path></g></svg>