<svg xmlns="http://www.w3.org/2000/svg" fill="none" viewBox="0 0 14 14"><g id="smiley-yawn"><path id="Vector" stroke="#000000" stroke-linecap="round" stroke-linejoin="round" d="M7 10.5c0.82843 0 1.5 -0.7835 1.5 -1.75S7.82843 7 7 7s-1.5 0.7835 -1.5 1.75 0.67157 1.75 1.5 1.75Z" stroke-width="1"></path><path id="Vector_2" stroke="#000000" stroke-linecap="round" stroke-linejoin="round" d="M7 13.5c3.5899 0 6.5 -2.9101 6.5 -6.5C13.5 3.41015 10.5899 0.5 7 0.5 3.41015 0.5 0.5 3.41015 0.5 7c0 3.5899 2.91015 6.5 6.5 6.5Z" stroke-width="1"></path><path id="Vector 559" stroke="#000000" stroke-linecap="round" stroke-linejoin="round" d="M3.73531 5.59121c-0.00562 -0.4381 0.29322 -0.91043 0.70709 -1.1725 0.41386 -0.26206 0.96862 -0.33023 1.36224 -0.13782" stroke-width="1"></path><path id="Vector 560" stroke="#000000" stroke-linecap="round" stroke-linejoin="round" d="M10.2647 5.5912c0.0056 -0.43809 -0.29321 -0.91042 -0.70708 -1.17249 -0.41387 -0.26206 -0.96863 -0.33023 -1.36225 -0.13782" stroke-width="1"></path></g></svg>