<svg xmlns="http://www.w3.org/2000/svg" fill="none" viewBox="0 0 14 14"><g id="smiley-laughing-1"><path id="Vector 842" stroke="#000000" stroke-linecap="round" stroke-linejoin="round" d="M3.96574 4.72459c0.15642 -0.25417 0.50052 -0.41709 0.8342 -0.41709 0.33368 0 0.67779 0.16292 0.8342 0.41709" stroke-width="1"></path><path id="Vector 843" stroke="#000000" stroke-linecap="round" stroke-linejoin="round" d="M8.36577 4.72459c0.15641 -0.25417 0.50052 -0.41709 0.8342 -0.41709 0.33368 0 0.67778 0.16292 0.83423 0.41709" stroke-width="1"></path><path id="Vector" stroke="#000000" stroke-linecap="round" stroke-linejoin="round" d="M1.0182 4.45247C2.00907 2.12881 4.31432 0.5 7 0.5c2.68567 0 4.9909 1.62881 5.9818 3.95247" stroke-width="1"></path><path id="Vector_2" stroke="#000000" stroke-linecap="round" stroke-linejoin="round" d="M1.36787 10.2471C2.49133 12.1916 4.59286 13.5 7 13.5c2.40713 0 4.5087 -1.3084 5.6321 -3.2529" stroke-width="1"></path><path id="Vector_3" stroke="#000000" stroke-linecap="round" stroke-linejoin="round" d="M13.1166 8.27128c0.4205 -0.32834 0.4952 -0.9354 0.1669 -1.35592s-1.8463 -0.79494 -1.8463 -0.79494 -0.0049 1.56343 0.3235 1.98395c0.3283 0.42051 0.9354 0.49524 1.3559 0.16691Z" stroke-width="1"></path><path id="Vector_4" stroke="#000000" stroke-linecap="round" stroke-linejoin="round" d="M0.883411 8.27128c-0.420517 -0.32834 -0.495246 -0.9354 -0.16691 -1.35592 0.328339 -0.42052 1.846269 -0.79494 1.846269 -0.79494s0.00489 1.56343 -0.32344 1.98395c-0.32834 0.42051 -0.9354 0.49524 -1.355919 0.16691Z" stroke-width="1"></path><path id="Ellipse 650" stroke="#000000" stroke-linecap="round" stroke-linejoin="round" d="M7 11c1.65685 0 3 -1.34315 3 -3H4c0 1.65685 1.34315 3 3 3Z" stroke-width="1"></path></g></svg>