<svg xmlns="http://www.w3.org/2000/svg" fill="none" viewBox="0 0 14 14"><g id="smiley-sick"><path id="Vector 869" stroke="#000000" stroke-linecap="round" stroke-linejoin="round" d="M4.75 4v2.5" stroke-width="1"></path><path id="Vector 870" stroke="#000000" stroke-linecap="round" stroke-linejoin="round" d="M3.5 5.25H6" stroke-width="1"></path><path id="Vector 871" stroke="#000000" stroke-linecap="round" stroke-linejoin="round" d="M9.25 4v2.5" stroke-width="1"></path><path id="Vector 872" stroke="#000000" stroke-linecap="round" stroke-linejoin="round" d="M8 5.25h2.5" stroke-width="1"></path><path id="Vector" stroke="#000000" stroke-linecap="round" stroke-linejoin="round" d="M7 13.5c3.5899 0 6.5 -2.9101 6.5 -6.5C13.5 3.41015 10.5899 0.5 7 0.5 3.41015 0.5 0.5 3.41015 0.5 7c0 3.5899 2.91015 6.5 6.5 6.5Z" stroke-width="1"></path><path id="Vector 589" stroke="#000000" stroke-linecap="round" stroke-linejoin="round" d="M4.42088 9.91222c0.11713 -0.7074 0.77361 -1.07885 1.28935 -1.07885s1.07446 0.43154 1.28935 0.64731c0.2149 0.21577 0.77362 0.64732 1.28936 0.64732 0.51574 0 1.17221 -0.37146 1.28935 -1.07886" stroke-width="1"></path></g></svg>