<svg xmlns="http://www.w3.org/2000/svg" fill="none" viewBox="0 0 14 14"><g id="smiley-blessed"><path id="Vector 559" stroke="#000000" stroke-linecap="round" stroke-linejoin="round" d="M8.51416 4.36714c0.15641 0.25417 0.50052 0.4171 0.8342 0.4171 0.33368 0 0.67774 -0.16293 0.83424 -0.4171" stroke-width="1"></path><path id="Vector 558" stroke="#000000" stroke-linecap="round" stroke-linejoin="round" d="M5.48584 4.36714c-0.15641 0.25417 -0.50052 0.4171 -0.8342 0.4171 -0.33368 0 -0.67778 -0.16293 -0.8342 -0.4171" stroke-width="1"></path><path id="Vector" stroke="#000000" stroke-linecap="round" stroke-linejoin="round" d="M7 13.5c3.5899 0 6.5 -2.9101 6.5 -6.5C13.5 3.41015 10.5899 0.5 7 0.5 3.41015 0.5 0.5 3.41015 0.5 7c0 3.5899 2.91015 6.5 6.5 6.5Z" stroke-width="1"></path><path id="Ellipse 650" stroke="#000000" stroke-linecap="round" stroke-linejoin="round" d="M7 11c1.933 0 3.5 -1.567 3.5 -3.5h-7C3.5 9.433 5.067 11 7 11Z" stroke-width="1"></path></g></svg>