<svg xmlns="http://www.w3.org/2000/svg" fill="none" viewBox="0 0 14 14"><g id="smiley-sleepy"><path id="Vector" stroke="#000000" stroke-linecap="round" stroke-linejoin="round" d="M7 10.5c0.82843 0 1.5 -0.7835 1.5 -1.75S7.82843 7 7 7s-1.5 0.7835 -1.5 1.75 0.67157 1.75 1.5 1.75Z" stroke-width="1"></path><path id="Vector_2" stroke="#000000" stroke-linecap="round" stroke-linejoin="round" d="M7 13.5c3.5899 0 6.5 -2.9101 6.5 -6.5C13.5 3.41015 10.5899 0.5 7 0.5 3.41015 0.5 0.5 3.41015 0.5 7c0 3.5899 2.91015 6.5 6.5 6.5Z" stroke-width="1"></path><path id="Vector 558" stroke="#000000" stroke-linecap="round" stroke-linejoin="round" d="M5.48584 4.86714c-0.15641 0.25417 -0.50052 0.4171 -0.8342 0.4171 -0.33368 0 -0.67778 -0.16293 -0.8342 -0.4171" stroke-width="1"></path><path id="Vector 559" stroke="#000000" stroke-linecap="round" stroke-linejoin="round" d="M8.51416 4.86714c0.15641 0.25417 0.50052 0.4171 0.8342 0.4171 0.33368 0 0.67774 -0.16293 0.83424 -0.4171" stroke-width="1"></path></g></svg>