<svg xmlns="http://www.w3.org/2000/svg" fill="none" viewBox="0 0 14 14"><g id="smiley-mind-blown"><path id="Union" stroke="#000000" stroke-linecap="round" stroke-linejoin="round" d="M1.76756 5C1.59739 4.70583 1.5 4.36429 1.5 4c0 -1.10457 0.89543 -2 2 -2 0.28825 0 0.56225 0.06098 0.80982 0.17074C4.79994 1.18072 5.82047 0.5 7 0.5c1.17953 0 2.20006 0.68072 2.69018 1.67074C9.93775 2.06098 10.2118 2 10.5 2c1.1046 0 2 0.89543 2 2 0 0.36429 -0.0974 0.70583 -0.2676 1" stroke-width="1"></path><path id="Vector 889" stroke="#000000" stroke-linecap="round" stroke-linejoin="round" d="M7 11v0.5" stroke-width="1"></path><path id="Vector 887" stroke="#000000" stroke-linecap="round" stroke-linejoin="round" d="M5.25 4.5V7" stroke-width="1"></path><path id="Vector 890" stroke="#000000" stroke-linecap="round" stroke-linejoin="round" d="M8.75 4.5V7" stroke-width="1"></path><g id="Group 623"><path id="Vector" stroke="#000000" stroke-linecap="round" stroke-linejoin="round" d="M5.375 9.25c-0.06904 0 -0.125 -0.05596 -0.125 -0.125 0 -0.06904 0.05596 -0.125 0.125 -0.125" stroke-width="1"></path><path id="Vector_2" stroke="#000000" stroke-linecap="round" stroke-linejoin="round" d="M5.375 9.25c0.06904 0 0.125 -0.05596 0.125 -0.125C5.5 9.05596 5.44404 9 5.375 9" stroke-width="1"></path></g><g id="Group 624"><path id="Vector_3" stroke="#000000" stroke-linecap="round" stroke-linejoin="round" d="M8.625 9.25c-0.06904 0 -0.125 -0.05596 -0.125 -0.125 0 -0.06904 0.05596 -0.125 0.125 -0.125" stroke-width="1"></path><path id="Vector_4" stroke="#000000" stroke-linecap="round" stroke-linejoin="round" d="M8.625 9.25c0.06904 0 0.125 -0.05596 0.125 -0.125 0 -0.06904 -0.05596 -0.125 -0.125 -0.125" stroke-width="1"></path></g><path id="Ellipse 1797" stroke="#000000" stroke-linecap="round" stroke-linejoin="round" d="M7 13.5c2.76142 0 5 -2.2386 5 -5 0 -0.5226 -0.0802 -1.02648 -0.2289 -1.5H2.2289C2.08018 7.47352 2 7.9774 2 8.5c0 2.7614 2.23858 5 5 5Z" stroke-width="1"></path></g></svg>