<svg xmlns="http://www.w3.org/2000/svg" fill="none" viewBox="0 0 14 14"><g id="smiley-devastated"><path id="Vector" stroke="#000000" stroke-linecap="round" stroke-linejoin="round" d="M7 13.5c3.5899 0 6.5 -2.9101 6.5 -6.5C13.5 3.41015 10.5899 0.5 7 0.5 3.41015 0.5 0.5 3.41015 0.5 7c0 3.5899 2.91015 6.5 6.5 6.5Z" stroke-width="1"></path><path id="Vector 560" stroke="#000000" stroke-linecap="round" stroke-linejoin="round" d="M3.49332 5.52899c0.27721 0.07541 0.72812 -0.03399 1.102 -0.24985 0.37387 -0.21585 0.69408 -0.55166 0.76737 -0.82943" stroke-width="1"></path><path id="Vector 561" stroke="#000000" stroke-linecap="round" stroke-linejoin="round" d="M10.5067 5.52899c-0.2772 0.07541 -0.72815 -0.03399 -1.10202 -0.24985 -0.37388 -0.21585 -0.69408 -0.55166 -0.76738 -0.82943" stroke-width="1"></path><path id="Ellipse 651" stroke="#000000" stroke-linecap="round" stroke-linejoin="round" d="M7 7c1.65685 0 3 1.34315 3 3H4c0 -1.65685 1.34315 -3 3 -3Z" stroke-width="1"></path></g></svg>