<svg xmlns="http://www.w3.org/2000/svg" fill="none" viewBox="0 0 14 14"><g id="snow-cloud--cloud-snow-snowfall-overcast-weather-precipitation-meteorology"><g id="Group 5"><path id="Vector" stroke="#000000" stroke-linecap="round" stroke-linejoin="round" d="M1.25 12.9999c-0.13807 0 -0.25 -0.112 -0.25 -0.25 0 -0.1381 0.11193 -0.25 0.25 -0.25" stroke-width="1"></path><path id="Vector_2" stroke="#000000" stroke-linecap="round" stroke-linejoin="round" d="M1.25 12.9999c0.13807 0 0.25 -0.112 0.25 -0.25 0 -0.1381 -0.11193 -0.25 -0.25 -0.25" stroke-width="1"></path></g><g id="Group 4"><path id="Vector_3" stroke="#000000" stroke-linecap="round" stroke-linejoin="round" d="M5 12.9999c-0.13807 0 -0.25 -0.112 -0.25 -0.25 0 -0.1381 0.11193 -0.25 0.25 -0.25" stroke-width="1"></path><path id="Vector_4" stroke="#000000" stroke-linecap="round" stroke-linejoin="round" d="M5 12.9999c0.13807 0 0.25 -0.112 0.25 -0.25 0 -0.1381 -0.11193 -0.25 -0.25 -0.25" stroke-width="1"></path></g><g id="Group 3"><path id="Vector_5" stroke="#000000" stroke-linecap="round" stroke-linejoin="round" d="M9 12.9999c-0.13807 0 -0.25 -0.112 -0.25 -0.25 0 -0.1381 0.11193 -0.25 0.25 -0.25" stroke-width="1"></path><path id="Vector_6" stroke="#000000" stroke-linecap="round" stroke-linejoin="round" d="M9 12.9999c0.13807 0 0.25 -0.112 0.25 -0.25 0 -0.1381 -0.11193 -0.25 -0.25 -0.25" stroke-width="1"></path></g><g id="Group 1"><path id="Vector_7" stroke="#000000" stroke-linecap="round" stroke-linejoin="round" d="M12.75 12.9999c-0.1381 0 -0.25 -0.112 -0.25 -0.25 0 -0.1381 0.1119 -0.25 0.25 -0.25" stroke-width="1"></path><path id="Vector_8" stroke="#000000" stroke-linecap="round" stroke-linejoin="round" d="M12.75 12.9999c0.1381 0 0.25 -0.112 0.25 -0.25 0 -0.1381 -0.1119 -0.25 -0.25 -0.25" stroke-width="1"></path></g><g id="Group 7"><path id="Vector_9" stroke="#000000" stroke-linecap="round" stroke-linejoin="round" d="M3.25 10.4999c-0.13807 0 -0.25 -0.112 -0.25 -0.25 0 -0.1381 0.11193 -0.25002 0.25 -0.25002" stroke-width="1"></path><path id="Vector_10" stroke="#000000" stroke-linecap="round" stroke-linejoin="round" d="M3.25 10.4999c0.13807 0 0.25 -0.112 0.25 -0.25 0 -0.1381 -0.11193 -0.25002 -0.25 -0.25002" stroke-width="1"></path></g><g id="Group 6"><path id="Vector_11" stroke="#000000" stroke-linecap="round" stroke-linejoin="round" d="M7.25 10.4999c-0.13807 0 -0.25 -0.112 -0.25 -0.25 0 -0.1381 0.11193 -0.25002 0.25 -0.25002" stroke-width="1"></path><path id="Vector_12" stroke="#000000" stroke-linecap="round" stroke-linejoin="round" d="M7.25 10.4999c0.13807 0 0.25 -0.112 0.25 -0.25 0 -0.1381 -0.11193 -0.25002 -0.25 -0.25002" stroke-width="1"></path></g><g id="Group 2"><path id="Vector_13" stroke="#000000" stroke-linecap="round" stroke-linejoin="round" d="M10.75 10.4999c-0.1381 0 -0.25 -0.112 -0.25 -0.25 0 -0.1381 0.1119 -0.25002 0.25 -0.25002" stroke-width="1"></path><path id="Vector_14" stroke="#000000" stroke-linecap="round" stroke-linejoin="round" d="M10.75 10.4999c0.1381 0 0.25 -0.112 0.25 -0.25 0 -0.1381 -0.1119 -0.25002 -0.25 -0.25002" stroke-width="1"></path></g><path id="Vector_15" stroke="#000000" stroke-linecap="round" stroke-linejoin="round" d="M1.5 4.5C1.5 6.433 3.067 8 5 8h5c1.3807 0 2.5 -1.11929 2.5 -2.5S11.3807 3 10 3c-0.61722 0 -1.18219 0.22367 -1.61829 0.59438C7.98262 2.10037 6.61981 1 5 1 3.067 1 1.5 2.567 1.5 4.5Z" stroke-width="1"></path></g></svg>