<svg xmlns="http://www.w3.org/2000/svg" fill="none" viewBox="0 0 14 14"><g id="spiral-shape"><path id="Vector 898" stroke="#000000" stroke-linecap="round" stroke-linejoin="round" d="M13.5 6.07143v0.46429c0 3.58988 -2.9101 6.49998 -6.5 6.49998h-0.46428C3.20229 13.0357 0.5 10.3334 0.5 7v-0.65978C0.5 3.37117 2.90689 0.964287 5.87594 0.964287c2.67215 0 4.83836 2.166203 4.83836 4.838343V6.25c0 2.20914 -1.79087 4 -4.00001 4h-0.17858c-1.79492 0 -3.25 -1.45507 -3.25 -3.25v-0.46428c0 -1.53851 1.24721 -2.78572 2.78572 -2.78572 1.02567 0 1.85714 0.83147 1.85714 1.85714v0.26531c0 0.87915 -0.71269 1.59184 -1.59184 1.59184h-0.2653" stroke-width="1"></path></g></svg>