<svg xmlns="http://www.w3.org/2000/svg" fill="none" viewBox="0 0 14 14"><g id="stamp--design-rubber-stamp-supplies-tool"><path id="Vector" stroke="#000000" stroke-linecap="round" stroke-linejoin="round" d="M1.5 10h11v1.5c0 0.2652 -0.1054 0.5196 -0.2929 0.7071s-0.4419 0.2929 -0.7071 0.2929h-9c-0.26522 0 -0.51957 -0.1054 -0.70711 -0.2929C1.60536 12.0196 1.5 11.7652 1.5 11.5V10Z" stroke-width="1"></path><path id="Vector_2" stroke="#000000" stroke-linecap="round" stroke-linejoin="round" d="M10.5 6.5c-0.2652 0 -0.51957 -0.10536 -0.70711 -0.29289C9.60536 6.01957 9.5 5.76522 9.5 5.5v-2c0 -0.66304 -0.26339 -1.29893 -0.73223 -1.76777C8.29893 1.26339 7.66304 1 7 1c-0.66304 0 -1.29893 0.26339 -1.76777 0.73223C4.76339 2.20107 4.5 2.83696 4.5 3.5v2c0 0.26522 -0.10536 0.51957 -0.29289 0.70711C4.01957 6.39464 3.76522 6.5 3.5 6.5h-1c-0.53043 0 -1.03914 0.21071 -1.41421 0.58579C0.710714 7.46086 0.5 7.96957 0.5 8.5V9c0 0.26522 0.105357 0.51957 0.292893 0.70711C0.98043 9.89464 1.23478 10 1.5 10h11c0.2652 0 0.5196 -0.10536 0.7071 -0.29289 0.1875 -0.18754 0.2929 -0.44189 0.2929 -0.70711v-0.5c0 -0.53043 -0.2107 -1.03914 -0.5858 -1.41421C12.5391 6.71071 12.0304 6.5 11.5 6.5h-1Z" stroke-width="1"></path></g></svg>