<svg xmlns="http://www.w3.org/2000/svg" fill="none" viewBox="0 0 14 14"><g id="star-1--reward-rating-rate-social-star-media-favorite-like-stars"><path id="Vector" stroke="#000000" stroke-linecap="round" stroke-linejoin="round" d="m7.48997 1.09 1.59 3.21c0.03616 0.08148 0.09305 0.15205 0.16499 0.20469 0.07194 0.05264 0.15641 0.0855 0.24501 0.09531L13 5.12c0.1016 0.01307 0.1974 0.05478 0.2762 0.12026 0.0788 0.06548 0.1374 0.15204 0.1689 0.24956 0.0314 0.09751 0.0345 0.20197 0.0088 0.30116 -0.0257 0.0992 -0.0791 0.18903 -0.1539 0.25902l-2.53 2.51c-0.0646 0.06033 -0.1131 0.13585 -0.141 0.21968 -0.0279 0.08383 -0.0345 0.17332 -0.019 0.26032l0.61 3.53c0.0176 0.1014 0.0065 0.2058 -0.0322 0.3012 -0.0388 0.0954 -0.1035 0.178 -0.1868 0.2384 -0.0834 0.0605 -0.182 0.0963 -0.2848 0.1034 -0.1027 0.0072 -0.2053 -0.0147 -0.2962 -0.063l-3.16003 -1.67c-0.08091 -0.0397 -0.16986 -0.0604 -0.26 -0.0604s-0.17908 0.0207 -0.26 0.0604l-3.16 1.67c-0.09091 0.0483 -0.19356 0.0702 -0.29627 0.063 -0.10271 -0.0071 -0.20136 -0.0429 -0.28471 -0.1034 -0.08336 -0.0604 -0.14808 -0.143 -0.1868 -0.2384 -0.03872 -0.0954 -0.04988 -0.1998 -0.03222 -0.3012l0.61 -3.57c0.01546 -0.087 0.00892 -0.17649 -0.01902 -0.26032 -0.02795 -0.08383 -0.07641 -0.15935 -0.14098 -0.21968L0.669972 6.05c-0.075737 -0.0719 -0.129 -0.16422 -0.153336 -0.26578 -0.024336 -0.10156 -0.0187 -0.208 0.016223 -0.30642 0.034924 -0.09842 0.097637 -0.1846 0.180544 -0.24811 0.082907 -0.0635 0.182449 -0.1016 0.286569 -0.10969L4.50997 4.6c0.0886 -0.00981 0.17308 -0.04267 0.24502 -0.09531 0.07193 -0.05264 0.12882 -0.12321 0.16498 -0.20469l1.59 -3.21c0.0433 -0.093488 0.11244 -0.172641 0.19927 -0.228113 0.08682 -0.055472 0.1877 -0.084948 0.29073 -0.084948 0.10303 0 0.20391 0.029476 0.29074 0.084948 0.08682 0.055472 0.15596 0.134625 0.19926 0.228113v0Z" stroke-width="1"></path></g></svg>