<svg xmlns="http://www.w3.org/2000/svg" fill="none" viewBox="0 0 14 14"><g id="star-medal-2--star-medal-ribbon-reward-like-social-rating-media"><path id="Ellipse 20" stroke="#000000" stroke-linecap="round" stroke-linejoin="round" d="M10.75 9.75c0 2.0711 -1.67893 3.75 -3.75 3.75 -2.07107 0 -3.75 -1.6789 -3.75 -3.75C3.25 7.67893 4.92893 6 7 6c2.07107 0 3.75 1.67893 3.75 3.75Z" stroke-width="1"></path><path id="Vector" stroke="#000000" stroke-linecap="round" stroke-linejoin="round" d="m7.14336 7.80804 0.48212 0.96985c0.01078 0.02453 0.02787 0.04576 0.04954 0.06151 0.02167 0.01576 0.04713 0.02549 0.07379 0.02819l1.07075 0.16257c0.03062 0.00398 0.05946 0.0166 0.08317 0.03638 0.0237 0.01977 0.04129 0.04589 0.05069 0.07529 0.00941 0.0294 0.01026 0.06087 0.00244 0.09074 -0.00783 0.02986 -0.02399 0.05688 -0.0466 0.07789l-0.79045 0.75124c-0.01179 0.0225 -0.01795 0.0475 -0.01795 0.0729 0 0.0253 0.00616 0.0503 0.01795 0.0728l0.15136 1.0652c0.00646 0.0308 0.00385 0.0628 -0.00752 0.0921 -0.01137 0.0293 -0.031 0.0547 -0.05652 0.0731 -0.02551 0.0184 -0.05582 0.029 -0.08724 0.0305 -0.03142 0.0016 -0.06261 -0.0061 -0.08978 -0.0219l-0.95303 -0.5046c-0.02466 -0.0111 -0.05141 -0.0169 -0.07848 -0.0169 -0.02707 0 -0.05382 0.0058 -0.07848 0.0169l-0.95303 0.5046c-0.02717 0.0158 -0.05836 0.0235 -0.08978 0.0219 -0.03142 -0.0015 -0.06173 -0.0121 -0.08724 -0.0305 -0.02552 -0.0184 -0.04515 -0.0438 -0.05652 -0.0731 -0.01137 -0.0293 -0.01398 -0.0613 -0.00752 -0.0921l0.17939 -1.0652c0.00772 -0.0247 0.00919 -0.0509 0.0043 -0.0764 -0.00489 -0.0254 -0.01599 -0.0492 -0.03233 -0.0693l-0.79045 -0.75684c-0.02097 -0.02124 -0.03568 -0.04784 -0.04253 -0.07689 -0.00686 -0.02905 -0.00558 -0.05942 0.00368 -0.08779 0.00927 -0.02837 0.02616 -0.05364 0.04883 -0.07305 0.02268 -0.01941 0.05026 -0.0322 0.07972 -0.03697l1.07075 -0.15697c0.02666 -0.0027 0.05212 -0.01242 0.07379 -0.02818 0.02167 -0.01576 0.03876 -0.03699 0.04954 -0.06151l0.48212 -0.96985c0.0129 -0.02745 0.03323 -0.05075 0.05868 -0.06726 0.02545 -0.01651 0.05501 -0.02556 0.08534 -0.02615 0.03033 -0.00058 0.06021 0.00734 0.08628 0.02285 0.02607 0.01552 0.04727 0.03802 0.06122 0.06495Z" stroke-width="1"></path><path id="Vector 2770" stroke="#000000" stroke-linecap="round" stroke-linejoin="round" d="m4.25767 7.19222 -1.2155 -4.05164C3.01421 3.04736 3 2.95056 3 2.85323V1.5c0 -0.552285 0.44772 -1 1 -1h6c0.5523 0 1 0.447715 1 1v1.35323c0 0.09733 -0.0142 0.19413 -0.0422 0.28735L9.74233 7.19222" stroke-width="1"></path><path id="Vector 2771" stroke="#000000" stroke-linecap="round" stroke-linejoin="round" d="M7 6V0.5" stroke-width="1"></path></g></svg>