<svg xmlns="http://www.w3.org/2000/svg" fill="none" viewBox="0 0 14 14"><g id="star-square--reward-social-rating-media-rate-it-star"><path id="Vector 4016" stroke="#000000" stroke-linecap="round" stroke-linejoin="round" d="M12 1H2c-0.55228 0 -1 0.44772 -1 1v10c0 0.5523 0.44772 1 1 1h10c0.5523 0 1 -0.4477 1 -1V2c0 -0.55228 -0.4477 -1 -1 -1Z" stroke-width="1"></path><path id="Vector" stroke="#000000" stroke-linecap="round" stroke-linejoin="round" d="m7.25997 3.57 0.86 1.73c0.01923 0.04375 0.04972 0.08162 0.08837 0.10973 0.03866 0.02811 0.08408 0.04546 0.13163 0.05027l1.91003 0.29c0.0546 0.0071 0.106 0.02961 0.1483 0.06488 0.0423 0.03528 0.0737 0.08186 0.0904 0.13431 0.0168 0.05245 0.0183 0.10859 0.0044 0.16186 -0.014 0.05327 -0.0428 0.10146 -0.0831 0.13895L8.99997 7.59c-0.02103 0.04011 -0.03201 0.08471 -0.03201 0.13 0 0.04528 0.01098 0.08989 0.03201 0.13l0.27 1.9c0.01152 0.05492 0.00686 0.112 -0.01342 0.16432 -0.02028 0.05232 -0.0553 0.09768 -0.10081 0.13048 -0.04552 0.0328 -0.09958 0.0517 -0.15563 0.0544 -0.05605 0.0027 -0.11168 -0.0109 -0.16014 -0.0392l-1.7 -0.9c-0.044 -0.01988 -0.09172 -0.03016 -0.14 -0.03016 -0.04828 0 -0.09601 0.01028 -0.14 0.03016l-1.7 0.9c-0.04847 0.0283 -0.1041 0.0419 -0.16014 0.0392 -0.05605 -0.0027 -0.11011 -0.0216 -0.15563 -0.0544 -0.04552 -0.0328 -0.08054 -0.07816 -0.10082 -0.13048 -0.02027 -0.05232 -0.02493 -0.1094 -0.01341 -0.16432l0.32 -1.9c0.01376 -0.0441 0.01639 -0.09092 0.00767 -0.13628 -0.00872 -0.04537 -0.02854 -0.08787 -0.05767 -0.12372l-1.41 -1.35c-0.0374 -0.03789 -0.06365 -0.08534 -0.07588 -0.13715 -0.01222 -0.05182 -0.00994 -0.10599 0.00658 -0.1566 0.01653 -0.05061 0.04666 -0.09569 0.08711 -0.13031 0.04044 -0.03461 0.08964 -0.05743 0.14219 -0.06594l1.91 -0.28c0.04755 -0.00481 0.09297 -0.02216 0.13162 -0.05027 0.03865 -0.02811 0.06915 -0.06598 0.08838 -0.10973l0.86 -1.73c0.02301 -0.04897 0.05926 -0.09053 0.10466 -0.11998 0.0454 -0.02944 0.09813 -0.0456 0.15223 -0.04664 0.0541 -0.00104 0.10741 0.01308 0.15391 0.04076 0.04649 0.02767 0.08432 0.06781 0.1092 0.11586v0Z" stroke-width="1"></path></g></svg>