<svg xmlns="http://www.w3.org/2000/svg" fill="none" viewBox="0 0 14 14"><g id="statistics-report--statistics-report-document-percentage-finance-paper"><path id="Vector" stroke="#000000" stroke-linecap="round" stroke-linejoin="round" d="m0.5 13.5 5 -5" stroke-width="1"></path><path id="Vector_2" stroke="#000000" stroke-linecap="round" stroke-linejoin="round" d="M1 9.5c0.27614 0 0.5 -0.22386 0.5 -0.5s-0.22386 -0.5 -0.5 -0.5c-0.276142 0 -0.5 0.22386 -0.5 0.5s0.223858 0.5 0.5 0.5Z" stroke-width="1"></path><path id="Vector_3" stroke="#000000" stroke-linecap="round" stroke-linejoin="round" d="M5 13.5c0.27614 0 0.5 -0.2239 0.5 -0.5s-0.22386 -0.5 -0.5 -0.5 -0.5 0.2239 -0.5 0.5 0.22386 0.5 0.5 0.5Z" stroke-width="1"></path><path id="Vector_4" stroke="#000000" stroke-linecap="round" stroke-linejoin="round" d="M2.5 6.5v-5c0 -0.26522 0.10536 -0.51957 0.29289 -0.707107C2.98043 0.605357 3.23478 0.5 3.5 0.5H10L13.5 4v8.5c0 0.2652 -0.1054 0.5196 -0.2929 0.7071s-0.4419 0.2929 -0.7071 0.2929H8" stroke-width="1"></path></g></svg>