<svg xmlns="http://www.w3.org/2000/svg" fill="none" viewBox="0 0 14 14"><g id="steps-2--interface-internet-menu-progress-bubble-bar"><path id="Vector" stroke="#000000" stroke-linecap="round" stroke-linejoin="round" d="M7 9c1.10457 0 2 -0.89543 2 -2s-0.89543 -2 -2 -2 -2 0.89543 -2 2 0.89543 2 2 2Z" stroke-width="1"></path><path id="Vector_2" stroke="#000000" stroke-linecap="round" stroke-linejoin="round" d="M1.75 8.25C2.44036 8.25 3 7.69036 3 7s-0.55964 -1.25 -1.25 -1.25S0.5 6.30964 0.5 7s0.55964 1.25 1.25 1.25Z" stroke-width="1"></path><path id="Vector_3" stroke="#000000" stroke-linecap="round" stroke-linejoin="round" d="M12.25 8.25c0.6904 0 1.25 -0.55964 1.25 -1.25s-0.5596 -1.25 -1.25 -1.25S11 6.30964 11 7s0.5596 1.25 1.25 1.25Z" stroke-width="1"></path><path id="Vector_4" stroke="#000000" stroke-linecap="round" stroke-linejoin="round" d="M3 7h2" stroke-width="1"></path><path id="Vector_5" stroke="#000000" stroke-linecap="round" stroke-linejoin="round" d="M9 7h2" stroke-width="1"></path></g></svg>