<svg xmlns="http://www.w3.org/2000/svg" fill="none" viewBox="0 0 14 14"><g id="steps-letter--interface-letter-internet-menu-progress"><path id="Vector 1" stroke="#000000" stroke-linecap="round" stroke-linejoin="round" d="M5.88867 0.5v2.09704h1.62044c0.57908 0 1.04852 -0.46944 1.04852 -1.04852C8.55763 0.969438 8.08819 0.5 7.50911 0.5H5.88867Z" stroke-width="1"></path><path id="Vector 2" stroke="#000000" stroke-linecap="round" stroke-linejoin="round" d="M5.88855 2.59704v2.47832h1.81108c0.68437 0 1.23916 -0.55479 1.23916 -1.23916S8.384 2.59704 7.69963 2.59704H5.88855Z" stroke-width="1"></path><path id="Vector 2_2" stroke="#000000" stroke-linecap="round" stroke-linejoin="round" d="M13.4494 1.26257C13.2924 0.818298 12.8687 0.5 12.3706 0.5h-0.7625c-0.6318 0 -1.1439 0.51211 -1.1439 1.14384v2.28768c0 0.63173 0.5121 1.14384 1.1439 1.14384h0.7625c0.4981 0 0.9218 -0.31829 1.0788 -0.76255" stroke-width="1"></path><path id="Vector 1_2" stroke="#000000" stroke-linecap="round" stroke-linejoin="round" d="M0.550781 5.07537 1.95533 0.861721c0.072 -0.216012 0.27415 -0.361713 0.50185 -0.361713s0.42985 0.145702 0.50185 0.361714L4.36358 5.07537" stroke-width="1"></path><path id="Vector 3" stroke="#000000" stroke-linecap="round" stroke-linejoin="round" d="M1.0592 3.55025h2.79606" stroke-width="1"></path><path id="Vector" stroke="#000000" stroke-linecap="round" stroke-linejoin="round" d="M0.5 10.75h13" stroke-width="1"></path><path id="Vector_2" stroke="#000000" stroke-linecap="round" stroke-linejoin="round" d="m10.75 13.5 2.75 -2.75L10.75 8" stroke-width="1"></path></g></svg>