<svg xmlns="http://www.w3.org/2000/svg" fill="none" viewBox="0 0 14 14"><g id="stomach--health-medical-stomach"><path id="vector 2005" stroke="#000000" stroke-linecap="round" stroke-linejoin="round" d="M8.02171 3.03689c-0.93507 -0.01916 -1.12098 -0.53731 -1.15243 -1.65322 -0.00778 -0.27603 -0.22961 -0.500148 -0.50575 -0.500148H4.83376c-0.26714 0 -0.48867 0.210198 -0.49194 0.477318 -0.02014 1.6483 0.32264 2.96864 2.12214 3.55452v3.19798c0 0.40217 -0.45068 0.63978 -0.78251 0.41255l-0.86929 -0.59528c-0.29689 -0.2033 -0.6483 -0.31209 -1.00812 -0.31209 -0.98542 0 -1.78426 0.79884 -1.78426 1.78426v2.47662c0 0.6832 0.55384 1.2371 1.23704 1.2371 0.68319 0 1.23704 -0.5539 1.23704 -1.2371v-1.5119c1.99301 4.0318 7.53674 2.4283 7.99494 -2.13046 0.3665 -3.64698 -2.60389 -5.16197 -4.46709 -5.20015Z" stroke-width="1"></path></g></svg>