<svg xmlns="http://www.w3.org/2000/svg" fill="none" viewBox="0 0 14 14"><g id="stone-spa--relax-location-outdoor-recreation-travel-places"><path id="Vector" stroke="#000000" stroke-linecap="round" stroke-linejoin="round" d="M6.75 9C3.85051 9 1.5 10.3431 1.5 12c0 0.2937 0.07386 0.5775 0.21153 0.8458 0.24027 0.4681 0.7859 0.6542 1.31209 0.6542h7.45278c0.5262 0 1.0718 -0.1861 1.3121 -0.6542 0.1376 -0.2683 0.2115 -0.5521 0.2115 -0.8458 0 -1.6569 -2.3505 -3 -5.25 -3Z" stroke-width="1"></path><path id="Vector_2" stroke="#000000" stroke-linecap="round" stroke-linejoin="round" d="M8.25 9c2.3472 0 4.25 -1.11929 4.25 -2.5S10.5972 4 8.25 4C5.90279 4 4 5.11929 4 6.5S5.90279 9 8.25 9Z" stroke-width="1"></path><path id="Vector_3" stroke="#000000" stroke-linecap="round" stroke-linejoin="round" d="M7.25 4c1.65685 0 3 -0.7835 3 -1.75S8.90685 0.5 7.25 0.5s-3 0.7835 -3 1.75S5.59315 4 7.25 4Z" stroke-width="1"></path></g></svg>