<svg xmlns="http://www.w3.org/2000/svg" fill="none" viewBox="0 0 14 14"><g id="stopwatch-three-quarter--quarters-time-measure-stopwatch-three-seconds-minutes"><path id="Vector" stroke="#000000" stroke-linecap="round" stroke-linejoin="round" d="M6.75 2.5c1.0878 0 2.15117 0.32257 3.05564 0.92692 0.90446 0.60434 1.60946 1.46333 2.02566 2.46832 0.4163 1.00499 0.5252 2.11086 0.313 3.17776s-0.736 2.0469 -1.5052 2.8161c-0.7692 0.7692 -1.74921 1.293 -2.8161 1.5052 -1.0669 0.2122 -2.17277 0.1033 -3.17776 -0.313 -1.00499 -0.4162 -1.86398 -1.1212 -2.46832 -2.0257C1.57257 10.1512 1.25 9.0878 1.25 8h5.5V2.5Z" stroke-width="1"></path><path id="Vector_2" stroke="#000000" stroke-linecap="round" stroke-linejoin="round" d="M5.25 0.5h3" stroke-width="1"></path><path id="Vector_3" stroke="#000000" stroke-linecap="round" stroke-linejoin="round" d="M6.75 2.5v-2" stroke-width="1"></path><path id="Vector_4" stroke="#000000" stroke-linecap="round" stroke-linejoin="round" d="m11.75 2 1 1" stroke-width="1"></path><path id="Vector_5" stroke="#000000" stroke-linecap="round" stroke-linejoin="round" d="m2.85999 4.11 1.06 1.06" stroke-width="1"></path></g></svg>