<svg xmlns="http://www.w3.org/2000/svg" fill="none" viewBox="0 0 14 14"><g id="store-phone--store-shop-shops-stores-online-mobile-phone"><path id="Vector" stroke="#000000" stroke-linecap="round" stroke-linejoin="round" d="m0.5 3.5 2 -3h9l2 3H0.5Z" stroke-width="1"></path><path id="Vector_2" stroke="#000000" stroke-linecap="round" stroke-linejoin="round" d="M4.75 3.5v1c0 0.53043 -0.21071 1.03914 -0.58579 1.41421C3.78914 6.28929 3.28043 6.5 2.75 6.5H2.5c-0.53043 0 -1.03914 -0.21071 -1.41421 -0.58579C0.710714 5.53914 0.5 5.03043 0.5 4.5v-1" stroke-width="1"></path><path id="Vector_3" stroke="#000000" stroke-linecap="round" stroke-linejoin="round" d="M9.25 3.5v1c0 0.53043 -0.21071 1.03914 -0.58579 1.41421C8.28914 6.28929 7.78043 6.5 7.25 6.5h-0.5c-0.53043 0 -1.03914 -0.21071 -1.41421 -0.58579C4.96071 5.53914 4.75 5.03043 4.75 4.5v-1" stroke-width="1"></path><path id="Vector_4" stroke="#000000" stroke-linecap="round" stroke-linejoin="round" d="M13.5 3.5v1c0 0.53043 -0.2107 1.03914 -0.5858 1.41421 -0.3751 0.37508 -0.8838 0.58579 -1.4142 0.58579h-0.25c-0.5304 0 -1.0391 -0.21071 -1.41421 -0.58579C9.46071 5.53914 9.25 5.03043 9.25 4.5v-1" stroke-width="1"></path><path id="Vector_5" stroke="#000000" stroke-linecap="round" stroke-linejoin="round" d="M2.5 6.5v6c0 0.5523 0.44772 1 1 1h7c0.5523 0 1 -0.4477 1 -1v-6" stroke-width="1"></path><path id="Vector_6" stroke="#000000" stroke-linecap="round" stroke-linejoin="round" d="M6.5 11h1" stroke-width="1"></path></g></svg>