<svg xmlns="http://www.w3.org/2000/svg" fill="none" viewBox="0 0 14 14"><g id="sun-snow--sun-snow"><g id="Group 5"><path id="Vector" stroke="#000000" stroke-linecap="round" stroke-linejoin="round" d="M1.25 13c-0.13807 0 -0.25 -0.1119 -0.25 -0.25s0.11193 -0.25 0.25 -0.25" stroke-width="1"></path><path id="Vector_2" stroke="#000000" stroke-linecap="round" stroke-linejoin="round" d="M1.25 13c0.13807 0 0.25 -0.1119 0.25 -0.25s-0.11193 -0.25 -0.25 -0.25" stroke-width="1"></path></g><g id="Group 4"><path id="Vector_3" stroke="#000000" stroke-linecap="round" stroke-linejoin="round" d="M5 13c-0.13807 0 -0.25 -0.1119 -0.25 -0.25s0.11193 -0.25 0.25 -0.25" stroke-width="1"></path><path id="Vector_4" stroke="#000000" stroke-linecap="round" stroke-linejoin="round" d="M5 13c0.13807 0 0.25 -0.1119 0.25 -0.25s-0.11193 -0.25 -0.25 -0.25" stroke-width="1"></path></g><g id="Group 3"><path id="Vector_5" stroke="#000000" stroke-linecap="round" stroke-linejoin="round" d="M9 13c-0.13807 0 -0.25 -0.1119 -0.25 -0.25s0.11193 -0.25 0.25 -0.25" stroke-width="1"></path><path id="Vector_6" stroke="#000000" stroke-linecap="round" stroke-linejoin="round" d="M9 13c0.13807 0 0.25 -0.1119 0.25 -0.25s-0.11193 -0.25 -0.25 -0.25" stroke-width="1"></path></g><g id="Group 1"><path id="Vector_7" stroke="#000000" stroke-linecap="round" stroke-linejoin="round" d="M12.75 13c-0.1381 0 -0.25 -0.1119 -0.25 -0.25s0.1119 -0.25 0.25 -0.25" stroke-width="1"></path><path id="Vector_8" stroke="#000000" stroke-linecap="round" stroke-linejoin="round" d="M12.75 13c0.1381 0 0.25 -0.1119 0.25 -0.25s-0.1119 -0.25 -0.25 -0.25" stroke-width="1"></path></g><g id="Group 7"><path id="Vector_9" stroke="#000000" stroke-linecap="round" stroke-linejoin="round" d="M3.25 10.5c-0.13807 0 -0.25 -0.1119 -0.25 -0.25s0.11193 -0.25 0.25 -0.25" stroke-width="1"></path><path id="Vector_10" stroke="#000000" stroke-linecap="round" stroke-linejoin="round" d="M3.25 10.5c0.13807 0 0.25 -0.1119 0.25 -0.25S3.38807 10 3.25 10" stroke-width="1"></path></g><g id="Group 6"><path id="Vector_11" stroke="#000000" stroke-linecap="round" stroke-linejoin="round" d="M7.25 10.5c-0.13807 0 -0.25 -0.1119 -0.25 -0.25s0.11193 -0.25 0.25 -0.25" stroke-width="1"></path><path id="Vector_12" stroke="#000000" stroke-linecap="round" stroke-linejoin="round" d="M7.25 10.5c0.13807 0 0.25 -0.1119 0.25 -0.25S7.38807 10 7.25 10" stroke-width="1"></path></g><g id="Group 2"><path id="Vector_13" stroke="#000000" stroke-linecap="round" stroke-linejoin="round" d="M10.75 10.5c-0.1381 0 -0.25 -0.1119 -0.25 -0.25s0.1119 -0.25 0.25 -0.25" stroke-width="1"></path><path id="Vector_14" stroke="#000000" stroke-linecap="round" stroke-linejoin="round" d="M10.75 10.5c0.1381 0 0.25 -0.1119 0.25 -0.25s-0.1119 -0.25 -0.25 -0.25" stroke-width="1"></path></g><path id="Vector_15" stroke="#000000" stroke-linecap="round" stroke-linejoin="round" d="M7 1v1" stroke-width="1"></path><path id="Vector_16" stroke="#000000" stroke-linecap="round" stroke-linejoin="round" d="M13 7h-1" stroke-width="1"></path><path id="Vector_17" stroke="#000000" stroke-linecap="round" stroke-linejoin="round" d="M2 7H1" stroke-width="1"></path><path id="Vector_18" stroke="#000000" stroke-linecap="round" stroke-linejoin="round" d="m3.46443 3.46492 -0.70711 -0.70711" stroke-width="1"></path><path id="Vector_19" stroke="#000000" stroke-linecap="round" stroke-linejoin="round" d="m11.2428 2.75774 -0.7072 0.7071" stroke-width="1"></path><path id="Ellipse 1914" stroke="#000000" stroke-linecap="round" stroke-linejoin="round" d="M7 4C5.34315 4 4 5.34315 4 7c0 0.35064 0.06015 0.68722 0.17071 1h5.65858C9.93985 7.68722 10 7.35064 10 7c0 -1.65685 -1.34315 -3 -3 -3Z" stroke-width="1"></path></g></svg>