<svg xmlns="http://www.w3.org/2000/svg" fill="none" viewBox="0 0 14 14"><g id="sunset--nature-sun-set-water-afternoon"><path id="Ellipse 1917" stroke="#000000" stroke-linecap="round" stroke-linejoin="round" d="M10.5 8c0 -1.933 -1.567 -3.5 -3.5 -3.5S3.5 6.067 3.5 8" stroke-width="1"></path><path id="Vector" stroke="#000000" stroke-linecap="round" stroke-linejoin="round" d="M7 1.5v1" stroke-width="1"></path><path id="Vector_2" stroke="#000000" stroke-linecap="round" stroke-linejoin="round" d="M13.5 8h-1" stroke-width="1"></path><path id="Vector_3" stroke="#000000" stroke-linecap="round" stroke-linejoin="round" d="M1.5 8h-1" stroke-width="1"></path><path id="Vector_4" stroke="#000000" stroke-linecap="round" stroke-linejoin="round" d="m11.5962 3.40387 -0.7071 0.70711" stroke-width="1"></path><path id="Vector_5" stroke="#000000" stroke-linecap="round" stroke-linejoin="round" d="m2.4038 3.40387 0.70711 0.70711" stroke-width="1"></path><path id="Vector_6" stroke="#000000" stroke-linecap="round" stroke-linejoin="round" d="M0.5 11.9747c0.317629 0.3242 0.76033 0.5253 1.25 0.5253 0.9665 0 1.75 -0.7835 1.75 -1.75 0 0.9665 0.7835 1.75 1.75 1.75S7 11.7165 7 10.75c0 0.9665 0.7835 1.75 1.75 1.75s1.75 -0.7835 1.75 -1.75c0 0.9665 0.7835 1.75 1.75 1.75 0.4897 0 0.9324 -0.2011 1.25 -0.5253" stroke-width="1"></path></g></svg>