<svg xmlns="http://www.w3.org/2000/svg" fill="none" viewBox="0 0 14 14"><g id="syringe--instrument-medical-syringe-health-beauty-needle"><path id="Vector" stroke="#000000" stroke-linecap="round" stroke-linejoin="round" d="m6.99995 3 -4.58 4.49c-0.18596 0.18575 -0.33347 0.40632 -0.43412 0.64912 -0.10065 0.2428 -0.15246 0.50305 -0.15246 0.76588s0.05181 0.52308 0.15246 0.76588c0.10065 0.2428 0.24816 0.46342 0.43412 0.64912l1.26 1.26c0.18574 0.186 0.40632 0.3335 0.64912 0.4341 0.24279 0.1007 0.50305 0.1525 0.76588 0.1525s0.52308 -0.0518 0.76588 -0.1525c0.24279 -0.1006 0.46337 -0.2481 0.64912 -0.4341L10.9999 7" stroke-width="1"></path><path id="Vector_2" stroke="#000000" stroke-linecap="round" stroke-linejoin="round" d="m10.5 0.5 3 3" stroke-width="1"></path><path id="Vector_3" stroke="#000000" stroke-linecap="round" stroke-linejoin="round" d="m9 5 3 -3" stroke-width="1"></path><path id="Vector_4" stroke="#000000" stroke-linecap="round" stroke-linejoin="round" d="M3.05 10.95 0.5 13.5" stroke-width="1"></path><path id="Vector_5" stroke="#000000" stroke-linecap="round" stroke-linejoin="round" d="m5.5 1.5 7 7" stroke-width="1"></path></g></svg>