<svg xmlns="http://www.w3.org/2000/svg" fill="none" viewBox="0 0 14 14"><g id="tag-new-circle--store-shop-shops-stores-tag-new-circle"><path id="Vector" stroke="#000000" stroke-linecap="round" stroke-linejoin="round" d="M12.5398 3.59812C11.3959 1.73933 9.34267 0.5 7 0.5 4.65732 0.5 2.60411 1.73933 1.46022 3.59812m0 6.80378C2.60411 12.2607 4.65732 13.5 7 13.5c2.34267 0 4.3959 -1.2393 5.5398 -3.0981" stroke-width="1"></path><path id="Vector 2" stroke="#000000" stroke-linecap="round" stroke-linejoin="round" d="m7.65939 5.46875 -1.83961 0v3.0625h1.83961" stroke-width="1"></path><path id="Vector 4" stroke="#000000" stroke-linecap="round" stroke-linejoin="round" d="M5.81978 6.87244h1.60966" stroke-width="1"></path><path id="Vector 2_2" stroke="#000000" stroke-linecap="round" stroke-linejoin="round" d="M2.02812 8.53125v-3.0625l2.04167 3.0625v-3.0625" stroke-width="1"></path><path id="Vector 1" stroke="#000000" stroke-linecap="round" stroke-linejoin="round" d="m8.90938 5.46875 0.48764 2.92587c0.01314 0.07884 0.08136 0.13663 0.16129 0.13663v0c0.06982 0 0.13193 -0.04433 0.15463 -0.11036l0.64316 -1.87097c0.0124 -0.0361 0.0464 -0.06034 0.0845 -0.06034v0c0.0382 0 0.0722 0.02424 0.0846 0.06034l0.6431 1.87097c0.0227 0.06603 0.0848 0.11036 0.1546 0.11036v0c0.08 0 0.1482 -0.05779 0.1613 -0.13663l0.4877 -2.92587" stroke-width="1"></path></g></svg>