<svg xmlns="http://www.w3.org/2000/svg" fill="none" viewBox="0 0 14 14"><g id="tag-free-circle--store-shop-shops-stores-tag-free-circle"><path id="Vector" stroke="#000000" stroke-linecap="round" stroke-linejoin="round" d="M12.5398 3.59812C11.3959 1.73933 9.34268 0.5 7 0.5 4.65733 0.5 2.60411 1.73933 1.46023 3.59812m0 6.80378C2.60411 12.2607 4.65733 13.5 7 13.5c2.34268 0 4.3959 -1.2393 5.5398 -3.0981" stroke-width="1"></path><path id="Vector 2" stroke="#000000" stroke-linecap="round" stroke-linejoin="round" d="m9.6471 5.46875 -1.83961 0v3.0625H9.6471" stroke-width="1"></path><path id="Vector 4" stroke="#000000" stroke-linecap="round" stroke-linejoin="round" d="M7.80749 6.87244h1.60966" stroke-width="1"></path><path id="Vector 2_2" stroke="#000000" stroke-linecap="round" stroke-linejoin="round" d="m12.9867 5.46875 -1.8396 0v3.0625h1.8396" stroke-width="1"></path><path id="Vector 4_2" stroke="#000000" stroke-linecap="round" stroke-linejoin="round" d="M11.1471 6.87244h1.6096" stroke-width="1"></path><path id="Vector 2_3" stroke="#000000" stroke-linecap="round" stroke-linejoin="round" d="M1.0133 8.53125v-3.0625h1.83961" stroke-width="1"></path><path id="Vector 3" stroke="#000000" stroke-linecap="round" stroke-linejoin="round" d="m1.0133 6.87244 1.60966 0" stroke-width="1"></path><path id="Vector 2_4" stroke="#000000" stroke-linecap="round" stroke-linejoin="round" d="m4.3529 8.53125 0 -1.27605m0 0V5.46875h0.94638c0.49332 0 0.89323 0.39991 0.89323 0.89323v0c0 0.49331 -0.39991 0.89322 -0.89323 0.89322H4.3529Z" stroke-width="1"></path><path id="Vector 3_2" stroke="#000000" stroke-linecap="round" stroke-linejoin="round" d="m5.50266 7.25525 0.80483 1.27604" stroke-width="1"></path></g></svg>