<svg xmlns="http://www.w3.org/2000/svg" fill="none" viewBox="0 0 14 14"><g id="tag-free-square--store-shop-shops-stores-tag-free-square"><path id="Vector" stroke="#000000" stroke-linecap="round" stroke-linejoin="round" d="M13.5 3.5625V3c0 -0.55228 -0.4477 -1 -1 -1h-11c-0.552285 0 -1 0.44772 -1 1v0.5625" stroke-width="1"></path><path id="Vector_2" stroke="#000000" stroke-linecap="round" stroke-linejoin="round" d="M0.5 10.4375V11c0 0.5523 0.447715 1 1 1h11c0.5523 0 1 -0.4477 1 -1v-0.5625" stroke-width="1"></path><path id="Vector 2" stroke="#000000" stroke-linecap="round" stroke-linejoin="round" d="m9.64711 5.46875 -1.83961 0v3.0625h1.83961" stroke-width="1"></path><path id="Vector 4" stroke="#000000" stroke-linecap="round" stroke-linejoin="round" d="M7.8075 6.87244h1.60965" stroke-width="1"></path><path id="Vector 2_2" stroke="#000000" stroke-linecap="round" stroke-linejoin="round" d="m12.9867 5.46875 -1.8396 0v3.0625h1.8396" stroke-width="1"></path><path id="Vector 4_2" stroke="#000000" stroke-linecap="round" stroke-linejoin="round" d="M11.1471 6.87244h1.6097" stroke-width="1"></path><path id="Vector 2_3" stroke="#000000" stroke-linecap="round" stroke-linejoin="round" d="M1.01331 8.53125v-3.0625h1.83961" stroke-width="1"></path><path id="Vector 3" stroke="#000000" stroke-linecap="round" stroke-linejoin="round" d="m1.01331 6.87244 1.60966 0" stroke-width="1"></path><path id="Vector 2_4" stroke="#000000" stroke-linecap="round" stroke-linejoin="round" d="m4.35291 8.53125 0 -1.27605m0 0V5.46875h0.94638c0.49331 0 0.89323 0.39991 0.89323 0.89323v0c0 0.49331 -0.39992 0.89322 -0.89323 0.89322h-0.94638Z" stroke-width="1"></path><path id="Vector 3_2" stroke="#000000" stroke-linecap="round" stroke-linejoin="round" d="m5.50267 7.25525 0.80483 1.27604" stroke-width="1"></path></g></svg>