<svg xmlns="http://www.w3.org/2000/svg" fill="none" viewBox="0 0 14 14"><g id="tag-new-square--store-shop-shops-stores-tag-new-square"><path id="Vector" stroke="#000000" stroke-linecap="round" stroke-linejoin="round" d="M13.5 3.5625V3c0 -0.55228 -0.4477 -1 -1 -1h-11c-0.552285 0 -1 0.44772 -1 1v0.5625" stroke-width="1"></path><path id="Vector_2" stroke="#000000" stroke-linecap="round" stroke-linejoin="round" d="M0.5 10.4375V11c0 0.5523 0.447715 1 1 1h11c0.5523 0 1 -0.4477 1 -1v-0.5625" stroke-width="1"></path><path id="Vector 2" stroke="#000000" stroke-linecap="round" stroke-linejoin="round" d="m7.65944 5.46875 -1.83962 0v3.0625h1.83962" stroke-width="1"></path><path id="Vector 4" stroke="#000000" stroke-linecap="round" stroke-linejoin="round" d="M5.81982 6.87244h1.60966" stroke-width="1"></path><path id="Vector 2_2" stroke="#000000" stroke-linecap="round" stroke-linejoin="round" d="M2.02814 8.53125v-3.0625l2.04166 3.0625v-3.0625" stroke-width="1"></path><path id="Vector 1" stroke="#000000" stroke-linecap="round" stroke-linejoin="round" d="m8.90942 5.46875 0.48765 2.92587c0.01314 0.07884 0.08135 0.13663 0.16128 0.13663v0c0.06982 0 0.13194 -0.04433 0.15463 -0.11036l0.64312 -1.87097c0.0124 -0.0361 0.0464 -0.06034 0.0846 -0.06034v0c0.0381 0 0.0721 0.02424 0.0845 0.06034l0.6432 1.87097c0.0227 0.06603 0.0848 0.11036 0.1546 0.11036v0c0.0799 0 0.1481 -0.05779 0.1613 -0.13663l0.4876 -2.92587" stroke-width="1"></path></g></svg>