<svg xmlns="http://www.w3.org/2000/svg" fill="none" viewBox="0 0 14 14"><g id="target-check--shop-bullseye-arrow-target-hit-checkmark"><path id="Vector" stroke="#000000" stroke-linecap="round" stroke-linejoin="round" d="m7 7 2.5 -2.5" stroke-width="1"></path><path id="Vector_2" stroke="#000000" stroke-linecap="round" stroke-linejoin="round" d="m11.5 5 -2 -0.5 -0.5 -2 2 -2 0.5 2 2 0.5 -2 2Z" stroke-width="1"></path><path id="Vector_3" stroke="#000000" stroke-linecap="round" stroke-linejoin="round" d="M6.26 13.46c-1.58492 -0.1838 -3.04714 -0.9433 -4.10899 -2.1342C1.08916 10.1349 0.501633 8.59556 0.500002 7.00002v0C0.498751 5.35408 1.12293 3.76915 2.24618 2.56606 3.36944 1.36297 4.90785 0.631608 6.55 0.52002" stroke-width="1"></path><path id="Vector_4" stroke="#000000" stroke-linecap="round" stroke-linejoin="round" d="M10 6.99996c0 0.79565 -0.31607 1.55871 -0.87868 2.12132 -0.56261 0.56261 -1.32567 0.87868 -2.12132 0.87868s-1.55871 -0.31607 -2.12132 -0.87868C4.31607 8.55867 4 7.79561 4 6.99996v0c0.00021 -0.60199 0.18153 -1.19 0.52038 -1.68757 0.33885 -0.49758 0.81955 -0.8817 1.37962 -1.10243" stroke-width="1"></path><path id="Vector_5" stroke="#000000" stroke-linecap="round" stroke-linejoin="round" d="m8 12 2 1.5 3.5 -4" stroke-width="1"></path></g></svg>