<svg xmlns="http://www.w3.org/2000/svg" fill="none" viewBox="0 0 14 14"><g id="target-cross--shop-bullseye-arrow-target-miss-cancel-cross"><path id="Vector" stroke="#000000" stroke-linecap="round" stroke-linejoin="round" d="m7 7 2.5 -2.5" stroke-width="1"></path><path id="Vector_2" stroke="#000000" stroke-linecap="round" stroke-linejoin="round" d="m11.5 5 -2 -0.5 -0.5 -2 2 -2 0.5 2 2 0.5 -2 2Z" stroke-width="1"></path><path id="Vector_3" stroke="#000000" stroke-linecap="round" stroke-linejoin="round" d="M13.5 9 9 13.5" stroke-width="1"></path><path id="Vector_4" stroke="#000000" stroke-linecap="round" stroke-linejoin="round" d="m9 9 4.5 4.5" stroke-width="1"></path><path id="Vector_5" stroke="#000000" stroke-linecap="round" stroke-linejoin="round" d="M6.38 13.47c-1.60914 -0.1542 -3.10308 -0.9024 -4.19028 -2.0987C1.10252 10.175 0.500092 8.61653 0.500002 7.00002 0.498751 5.35408 1.12293 3.76915 2.24618 2.56606 3.36944 1.36297 4.90785 0.631608 6.55 0.52002" stroke-width="1"></path><path id="Vector_6" stroke="#000000" stroke-linecap="round" stroke-linejoin="round" d="M6.52 9.99996c-0.70987 -0.115 -1.35482 -0.48117 -1.81736 -1.03181C4.2401 8.4175 3.99075 7.71903 4 6.99996v0c0.00022 -0.60199 0.18153 -1.19 0.52038 -1.68757 0.33885 -0.49758 0.81956 -0.8817 1.37962 -1.10243" stroke-width="1"></path></g></svg>