<svg width="14" height="14" viewBox="0 0 14 14" fill="none" xmlns="http://www.w3.org/2000/svg">
<path d="M12.7188 12.5C12.7188 12.7652 12.6161 13.0196 12.4334 13.2071C12.2506 13.3946 12.0028 13.5 11.7444 13.5H2.97443C2.71599 13.5 2.46815 13.3946 2.2854 13.2071C2.10266 13.0196 2 12.7652 2 12.5V1.5C2 1.23478 2.10266 0.98043 2.2854 0.792893C2.46815 0.605357 2.71599 0.5 2.97443 0.5H8.4174C8.67583 0.5 8.92369 0.605357 9.10642 0.792893L12.4334 4.20711C12.6161 4.39464 12.7188 4.649 12.7188 4.91421V12.5Z" stroke="black" stroke-linecap="round" stroke-linejoin="round"/>
<path d="M7.90234 6.375H10.3384" stroke="black" stroke-linecap="round" stroke-linejoin="round"/>
<path d="M7.90234 9.84375H10.3384" stroke="black" stroke-linecap="round" stroke-linejoin="round"/>
<path d="M4.13672 9.78711L4.95319 10.625L6.31396 8.66992" stroke="black" stroke-linecap="round" stroke-linejoin="round"/>
<path d="M4.13672 6.25586L4.95319 7.09375L6.31396 5.13867" stroke="black" stroke-linecap="round" stroke-linejoin="round"/>
</svg>
