<svg xmlns="http://www.w3.org/2000/svg" fill="none" viewBox="0 0 14 14"><g id="tea-hot-relax"><path id="Vector 3025" stroke="#000000" stroke-linecap="round" stroke-linejoin="round" d="M5.5 5.5v2" stroke-width="1"></path><path id="Vector 3026" stroke="#000000" stroke-linecap="round" stroke-linejoin="round" d="M4.25 8.75 5.5 7.5l1.25 1.25V11h-2.5V8.75Z" stroke-width="1"></path><path id="Vector 2981" stroke="#000000" stroke-linecap="round" stroke-linejoin="round" d="M8.5 5.5h-6c-0.55228 0 -1 0.44772 -1 1v5c0 1.1046 0.89543 2 2 2h4c1.10457 0 2 -0.8954 2 -2v-5c0 -0.55228 -0.44772 -1 -1 -1Z" stroke-width="1"></path><path id="Vector 2982" stroke="#000000" stroke-linecap="round" stroke-linejoin="round" d="M9.5 6.5h0.75c1.2426 0 2.25 1.00736 2.25 2.25v0c0 1.24264 -1.0074 2.25 -2.25 2.25H9.5" stroke-width="1"></path><path id="Vector" stroke="#000000" stroke-linecap="round" stroke-linejoin="round" d="M3.99782 3.25c1.08333 -1.35417 -1.08334 -1.39583 0 -2.75" stroke-width="1"></path><path id="Vector_2" stroke="#000000" stroke-linecap="round" stroke-linejoin="round" d="M6.99782 3.25c1.08333 -1.35417 -1.08334 -1.39583 0 -2.75" stroke-width="1"></path></g></svg>