<svg xmlns="http://www.w3.org/2000/svg" fill="none" viewBox="0 0 14 14"><g id="text-box-1"><path id="Vector 4106" stroke="#000000" stroke-linecap="round" stroke-linejoin="round" d="M4.75 5.5v-1h4.5v1" stroke-width="1"></path><path id="Vector 4107" stroke="#000000" stroke-linecap="round" stroke-linejoin="round" d="M7 4.5v5" stroke-width="1"></path><path id="Vector 4108" stroke="#000000" stroke-linecap="round" stroke-linejoin="round" d="M6 9.5h2" stroke-width="1"></path><path id="Ellipse 1821" stroke="#000000" stroke-linecap="round" stroke-linejoin="round" d="M10.5 2a1.5 1.5 0 1 0 3 0 1.5 1.5 0 1 0 -3 0" stroke-width="1"></path><path id="Vector 4102" stroke="#000000" stroke-linecap="round" stroke-linejoin="round" d="M3.5 2h7" stroke-width="1"></path><path id="Vector 4103" stroke="#000000" stroke-linecap="round" stroke-linejoin="round" d="M2 3.5v7" stroke-width="1"></path><path id="Vector 4104" stroke="#000000" stroke-linecap="round" stroke-linejoin="round" d="M3.5 12h7" stroke-width="1"></path><path id="Vector 4105" stroke="#000000" stroke-linecap="round" stroke-linejoin="round" d="M12 10.5v-7" stroke-width="1"></path><path id="Ellipse 1820" stroke="#000000" stroke-linecap="round" stroke-linejoin="round" d="M0.5 2a1.5 1.5 0 1 0 3 0 1.5 1.5 0 1 0 -3 0" stroke-width="1"></path><path id="Ellipse 1822" stroke="#000000" stroke-linecap="round" stroke-linejoin="round" d="M0.5 12a1.5 1.5 0 1 0 3 0 1.5 1.5 0 1 0 -3 0" stroke-width="1"></path><path id="Ellipse 1823" stroke="#000000" stroke-linecap="round" stroke-linejoin="round" d="M10.5 12a1.5 1.5 0 1 0 3 0 1.5 1.5 0 1 0 -3 0" stroke-width="1"></path></g></svg>