<svg xmlns="http://www.w3.org/2000/svg" fill="none" viewBox="0 0 14 14"><g id="text-to-speech-1--speech-automated-translate-language-voice-technology"><path id="Vector 4176" stroke="#000000" stroke-linecap="round" stroke-linejoin="round" d="m3.75 13.5 2.57787 -7.03056C6.43126 6.18746 6.69967 6 7 6v0c0.30033 0 0.56874 0.18746 0.67213 0.46944L10.25 13.5" stroke-width="1"></path><path id="Vector" stroke="#000000" stroke-linecap="round" stroke-linejoin="round" d="M0.5 4c0 -0.92826 0.368749 -1.8185 1.02513 -2.47487C2.1815 0.868749 3.07174 0.5 4 0.5" stroke-width="1"></path><path id="Vector_2" stroke="#000000" stroke-linecap="round" stroke-linejoin="round" d="M0.5 4c0 -0.92826 0.368749 -1.8185 1.02513 -2.47487C2.1815 0.868749 3.07174 0.5 4 0.5" stroke-width="1"></path><path id="Vector_3" stroke="#000000" stroke-linecap="round" stroke-linejoin="round" d="M3 4c0 -0.26522 0.10536 -0.51957 0.29289 -0.70711C3.48043 3.10536 3.73478 3 4 3" stroke-width="1"></path><path id="Vector_4" stroke="#000000" stroke-linecap="round" stroke-linejoin="round" d="M3 4c0 -0.26522 0.10536 -0.51957 0.29289 -0.70711C3.48043 3.10536 3.73478 3 4 3" stroke-width="1"></path><path id="Vector_5" stroke="#000000" stroke-linecap="round" stroke-linejoin="round" d="M10 0.5c0.9283 0 1.8185 0.368749 2.4749 1.02513C13.1313 2.1815 13.5 3.07174 13.5 4" stroke-width="1"></path><path id="Vector_6" stroke="#000000" stroke-linecap="round" stroke-linejoin="round" d="M10 0.5c0.9283 0 1.8185 0.368749 2.4749 1.02513C13.1313 2.1815 13.5 3.07174 13.5 4" stroke-width="1"></path><path id="Vector_7" stroke="#000000" stroke-linecap="round" stroke-linejoin="round" d="M10 3c0.2652 0 0.5196 0.10536 0.7071 0.29289C10.8946 3.48043 11 3.73478 11 4" stroke-width="1"></path><path id="Vector_8" stroke="#000000" stroke-linecap="round" stroke-linejoin="round" d="M10 3c0.2652 0 0.5196 0.10536 0.7071 0.29289C10.8946 3.48043 11 3.73478 11 4" stroke-width="1"></path><path id="Vector 4177" stroke="#000000" stroke-linecap="round" stroke-linejoin="round" d="M4.66663 11h4.66666" stroke-width="1"></path></g></svg>