<svg xmlns="http://www.w3.org/2000/svg" fill="none" viewBox="0 0 14 14"><g id="thermometer-decrease--thermometer-decrease-negative-minus-mercury-cold"><path id="Vector 348" stroke="#000000" stroke-linecap="round" stroke-linejoin="round" d="m13 7.5 -2 2 -2 -2" stroke-width="1"></path><path id="Vector 349" stroke="#000000" stroke-linecap="round" stroke-linejoin="round" d="M11 0.5v9" stroke-width="1"></path><path id="Ellipse 1921" stroke="#000000" stroke-linecap="round" stroke-linejoin="round" d="M4 13.5c1.65685 0 3 -1.3431 3 -3 0 -1.11042 -0.6033 -2.07994 -1.5 -2.59865V2C5.5 1.17157 4.82843 0.5 4 0.5S2.5 1.17157 2.5 2v5.90135C1.6033 8.42006 1 9.38958 1 10.5c0 1.6569 1.34315 3 3 3Z" stroke-width="1"></path><path id="Ellipse 1922" stroke="#000000" stroke-linecap="round" stroke-linejoin="round" d="M3.5 10.5a0.5 0.5 0 1 0 1 0 0.5 0.5 0 1 0 -1 0" stroke-width="1"></path></g></svg>