<svg xmlns="http://www.w3.org/2000/svg" fill="none" viewBox="0 0 14 14"><g id="threat-phone--bug-phone-file-threat-danger-mobile"><path id="Vector" stroke="#000000" stroke-linecap="round" stroke-linejoin="round" d="M7.25 0.5H1.5c-0.552285 0 -1 0.447715 -1 1v11c0 0.5523 0.447715 1 1 1h7c0.55228 0 1 -0.4477 1 -1V9.25" stroke-width="1"></path><path id="Vector_2" stroke="#000000" stroke-linecap="round" stroke-linejoin="round" d="M4.5 11h1" stroke-width="1"></path><path id="Vector_3" stroke="#000000" stroke-linecap="round" stroke-linejoin="round" d="M13.4253 6.15604c0.049 0.0906 0.0747 0.19199 0.0747 0.295 0 0.10301 -0.0257 0.2044 -0.0747 0.295 -0.0461 0.09031 -0.1163 0.16613 -0.2027 0.21907 -0.0865 0.05294 -0.1859 0.08095 -0.2873 0.08093H7.06529c-0.10139 0.00002 -0.20082 -0.02799 -0.28729 -0.08093 -0.08647 -0.05294 -0.15662 -0.12876 -0.20271 -0.21907 -0.04901 -0.0906 -0.07468 -0.19199 -0.07468 -0.295 0 -0.10301 0.02567 -0.2044 0.07468 -0.295l2.95 -5.320001c0.04053 -0.099349 0.10973 -0.184373 0.19878 -0.244224C9.81313 0.531965 9.91799 0.5 10.0253 0.5c0.1073 0 0.2122 0.031965 0.3012 0.091815 0.0891 0.059851 0.1583 0.144875 0.1988 0.244224l2.9 5.320001Z" stroke-width="1"></path><path id="Vector_4" stroke="#000000" stroke-linecap="round" stroke-linejoin="round" d="M10.0052 4.18738v-1" stroke-width="1"></path><path id="Ellipse 81" stroke="#000000" stroke-linecap="round" stroke-linejoin="round" d="M10.0005 5.67116c-0.06913 0 -0.12513 -0.056 -0.12513 -0.12508 0 -0.06909 0.056 -0.12509 0.12513 -0.12509" stroke-width="1"></path><path id="Ellipse 82" stroke="#000000" stroke-linecap="round" stroke-linejoin="round" d="M10.0002 5.67107c0.0691 0 0.1251 -0.056 0.1251 -0.12509 0 -0.06908 -0.056 -0.12508 -0.1251 -0.12508" stroke-width="1"></path></g></svg>