<svg xmlns="http://www.w3.org/2000/svg" fill="none" viewBox="0 0 14 14"><g id="toaster--bread-toast-cook-cooking-appliances-kitchenware"><path id="Vector" stroke="#000000" stroke-linecap="round" stroke-linejoin="round" d="M10.5 5.5H2c-0.55228 0 -1 0.44772 -1 1V12c0 0.5523 0.44772 1 1 1h8.5c0.5523 0 1 -0.4477 1 -1V6.5c0 -0.55228 -0.4477 -1 -1 -1Z" stroke-width="1"></path><path id="Vector_2" stroke="#000000" stroke-linecap="round" stroke-linejoin="round" d="M1 10.5h10.5" stroke-width="1"></path><path id="Vector_3" stroke="#000000" stroke-linecap="round" stroke-linejoin="round" d="M11.5 7.5H13" stroke-width="1"></path><path id="Vector 4619" stroke="#000000" stroke-linecap="round" stroke-linejoin="round" d="M3 4v1.5h6.5V4c0.8284 0 1.5 -0.67157 1.5 -1.5S10.3284 1 9.5 1H3c-0.82843 0 -1.5 0.67157 -1.5 1.5S2.17157 4 3 4Z" stroke-width="1"></path></g></svg>