<svg xmlns="http://www.w3.org/2000/svg" fill="none" viewBox="0 0 14 14"><g id="toilet-man-woman-1--travel-wayfinder-toilet-man-women"><path id="Ellipse 1973" stroke="#000000" stroke-linecap="round" stroke-linejoin="round" d="M1.5 3a1.5 1.5 0 1 0 3 0 1.5 1.5 0 1 0 -3 0" stroke-width="1"></path><path id="Ellipse 1974" stroke="#000000" stroke-linecap="round" stroke-linejoin="round" d="M9 3a1.5 1.5 0 1 0 3 0 1.5 1.5 0 1 0 -3 0" stroke-width="1"></path><path id="Vector 4947" stroke="#000000" stroke-linecap="round" stroke-linejoin="round" d="M5.5 9V7c0 -1.38071 -1.11929 -2.5 -2.5 -2.5S0.5 5.61929 0.5 7v2h1l0.25 3.5h2.5L4.5 9h1Z" stroke-width="1"></path><path id="Vector 4948" stroke="#000000" stroke-linecap="round" stroke-linejoin="round" d="m13.5 10 -1.1053 -4.05285C12.1617 5.09274 11.3856 4.5 10.5 4.5c-0.88561 0 -1.66166 0.59274 -1.89468 1.44714L7.5 10h1.75l0.25 2.5h2l0.25 -2.5h1.75Z" stroke-width="1"></path></g></svg>