<svg xmlns="http://www.w3.org/2000/svg" fill="none" viewBox="0 0 14 14"><g id="tongue-taste--medical-health-tongue-taste"><path id="Vector 1104" stroke="#000000" stroke-linecap="round" stroke-linejoin="round" d="M1 0.5h12.0074" stroke-width="1"></path><path id="Vector 1105" stroke="#000000" stroke-linecap="round" stroke-linejoin="round" d="M7.00366 0.5v5.14603" stroke-width="1"></path><path id="Rectangle 53" stroke="#000000" stroke-linecap="round" stroke-linejoin="round" d="M3.41943 0.5H10.588v4.32186c0 1.97954 -1.60476 3.58427 -3.5843 3.58427v0c-1.97954 0 -3.58427 -1.60473 -3.58427 -3.58427V0.5Z" stroke-width="1"></path><g id="Group 2529"><path id="Ellipse 1018" stroke="#000000" stroke-linecap="round" stroke-linejoin="round" d="M2.76294 11.115c0.13807 0 0.25 -0.112 0.25 -0.25 0 -0.1381 -0.11193 -0.25 -0.25 -0.25" stroke-width="1"></path><path id="Ellipse 1017" stroke="#000000" stroke-linecap="round" stroke-linejoin="round" d="M2.76294 11.115c-0.13807 0 -0.25 -0.112 -0.25 -0.25 0 -0.1381 0.11193 -0.25 0.25 -0.25" stroke-width="1"></path></g><g id="Group 2532"><path id="Ellipse 1018_2" stroke="#000000" stroke-linecap="round" stroke-linejoin="round" d="M4.83813 13.1848c0.13808 0 0.25 -0.1119 0.25 -0.25s-0.11192 -0.25 -0.25 -0.25" stroke-width="1"></path><path id="Ellipse 1017_2" stroke="#000000" stroke-linecap="round" stroke-linejoin="round" d="M4.83813 13.1848c-0.13807 0 -0.25 -0.1119 -0.25 -0.25s0.11193 -0.25 0.25 -0.25" stroke-width="1"></path></g><g id="Group 2533"><path id="Ellipse 1018_3" stroke="#000000" stroke-linecap="round" stroke-linejoin="round" d="M8.98853 13.1848c0.13807 0 0.25 -0.1119 0.25 -0.25s-0.11193 -0.25 -0.25 -0.25" stroke-width="1"></path><path id="Ellipse 1017_3" stroke="#000000" stroke-linecap="round" stroke-linejoin="round" d="M8.98853 13.1848c-0.13808 0 -0.25 -0.1119 -0.25 -0.25s0.11192 -0.25 0.25 -0.25" stroke-width="1"></path></g><g id="Group 2530"><path id="Ellipse 1018_4" stroke="#000000" stroke-linecap="round" stroke-linejoin="round" d="M6.91333 11.115c0.13807 0 0.25 -0.112 0.25 -0.25 0 -0.1381 -0.11193 -0.25 -0.25 -0.25" stroke-width="1"></path><path id="Ellipse 1017_4" stroke="#000000" stroke-linecap="round" stroke-linejoin="round" d="M6.91333 11.115c-0.13807 0 -0.25 -0.112 -0.25 -0.25 0 -0.1381 0.11193 -0.25 0.25 -0.25" stroke-width="1"></path></g><g id="Group 2531"><path id="Ellipse 1018_5" stroke="#000000" stroke-linecap="round" stroke-linejoin="round" d="M11.0637 11.115c0.1381 0 0.25 -0.112 0.25 -0.25 0 -0.1381 -0.1119 -0.25 -0.25 -0.25" stroke-width="1"></path><path id="Ellipse 1017_5" stroke="#000000" stroke-linecap="round" stroke-linejoin="round" d="M11.0637 11.115c-0.1381 0 -0.25 -0.112 -0.25 -0.25 0 -0.1381 0.1119 -0.25 0.25 -0.25" stroke-width="1"></path></g></g></svg>