<svg xmlns="http://www.w3.org/2000/svg" fill="none" viewBox="0 0 14 14"><g id="trademark--logo-tm-trademark"><path id="Vector" stroke="#000000" stroke-linecap="round" stroke-linejoin="round" d="M7 13.5c3.5899 0 6.5 -2.9101 6.5 -6.5C13.5 3.41015 10.5899 0.5 7 0.5 3.41015 0.5 0.5 3.41015 0.5 7c0 3.5899 2.91015 6.5 6.5 6.5Z" stroke-width="1"></path><path id="Vector 1" stroke="#000000" stroke-linecap="round" stroke-linejoin="round" d="M7.5 9V5.21173C7.5 5.09479 7.59479 5 7.71172 5c0.07531 0 0.14494 0.04 0.18289 0.10504l1.02141 1.751c0.052 0.08914 0.14744 0.14396 0.25065 0.14396 0.1032 0 0.19864 -0.05482 0.25064 -0.14396l1.02139 -1.751C10.4767 5.04 10.5463 5 10.6216 5c0.1169 0 0.2117 0.09479 0.2117 0.21172V9" stroke-width="1"></path><path id="Vector 2" stroke="#000000" stroke-linecap="round" stroke-linejoin="round" d="m4.5 5 0 4" stroke-width="1"></path><path id="Vector 3" stroke="#000000" stroke-linecap="round" stroke-linejoin="round" d="m3 5 3 0" stroke-width="1"></path></g></svg>