<svg xmlns="http://www.w3.org/2000/svg" fill="none" viewBox="0 0 14 14"><g id="traffic-light"><path id="Vector 1982" stroke="#000000" stroke-linecap="round" stroke-linejoin="round" d="M10 0.5H4c-0.27614 0 -0.5 0.223858 -0.5 0.5v12c0 0.2761 0.22386 0.5 0.5 0.5h6c0.2761 0 0.5 -0.2239 0.5 -0.5V1c0 -0.276142 -0.2239 -0.5 -0.5 -0.5Z" stroke-width="1"></path><path id="Vector 1983" stroke="#000000" stroke-linecap="round" stroke-linejoin="round" d="M10.5 2.5 13 3" stroke-width="1"></path><path id="Vector 1984" stroke="#000000" stroke-linecap="round" stroke-linejoin="round" d="M10.5 6.5 13 7" stroke-width="1"></path><path id="Vector 1985" stroke="#000000" stroke-linecap="round" stroke-linejoin="round" d="m10.5 10.5 2.5 0.5" stroke-width="1"></path><path id="Vector 1986" stroke="#000000" stroke-linecap="round" stroke-linejoin="round" d="M3.5 2.5 1 3" stroke-width="1"></path><path id="Vector 1987" stroke="#000000" stroke-linecap="round" stroke-linejoin="round" d="M3.5 6.5 1 7" stroke-width="1"></path><path id="Vector 1988" stroke="#000000" stroke-linecap="round" stroke-linejoin="round" d="M3.5 10.5 1 11" stroke-width="1"></path><path id="Ellipse 884" stroke="#000000" stroke-linecap="round" stroke-linejoin="round" d="M6.5 3.5a0.5 0.5 0 1 0 1 0 0.5 0.5 0 1 0 -1 0" stroke-width="1"></path><path id="Ellipse 885" stroke="#000000" stroke-linecap="round" stroke-linejoin="round" d="M6.5 7a0.5 0.5 0 1 0 1 0 0.5 0.5 0 1 0 -1 0" stroke-width="1"></path><path id="Ellipse 886" stroke="#000000" stroke-linecap="round" stroke-linejoin="round" d="M6.5 10.5a0.5 0.5 0 1 0 1 0 0.5 0.5 0 1 0 -1 0" stroke-width="1"></path></g></svg>