<svg xmlns="http://www.w3.org/2000/svg" fill="none" viewBox="0 0 14 14"><g id="transfer-forwarding-call"><path id="vector" stroke="#000000" stroke-linecap="round" stroke-linejoin="round" d="M0.898066 9.9131c0.170754 0.4211 0.471114 0.7769 0.857584 1.0159 0.38648 0.239 0.83899 0.3488 1.29202 0.3135h0.43841c0.17188 0.0188 0.34439 -0.0296 0.48145 -0.135 0.13705 -0.1054 0.22804 -0.2598 0.25394 -0.4307V9.26256c-0.0259 -0.17096 -0.11688 -0.3253 -0.25394 -0.43072 -0.13706 -0.10543 -0.30957 -0.15379 -0.48145 -0.13496 -0.17189 0.01882 -0.3444 -0.02954 -0.48146 -0.13496 -0.13705 -0.10543 -0.22804 -0.25977 -0.25393 -0.43073l0 -2.26274c0.02589 -0.17097 0.11688 -0.3253 0.25393 -0.43073 0.13706 -0.10543 0.30957 -0.15378 0.48146 -0.13496 0.17188 0.01883 0.34439 -0.02953 0.48145 -0.13496 0.13705 -0.10542 0.22804 -0.25976 0.25394 -0.43072V3.32286c-0.0259 -0.17096 -0.11689 -0.32529 -0.25394 -0.43072 -0.13706 -0.10543 -0.30957 -0.15379 -0.48145 -0.13496l-0.43841 0c-0.45277 -0.03378 -0.90461 0.07665 -1.29077 0.31546 -0.38615 0.23881 -0.68679 0.59373 -0.858834 1.0139 -0.478672 1.91269 -0.478671 3.91387 0 5.82656Z" stroke-width="1"></path><path id="vector_2" stroke="#000000" stroke-linecap="round" stroke-linejoin="round" d="M10.1376 9.9131c0.1707 0.4211 0.4711 0.7769 0.8576 1.0159 0.3864 0.239 0.8389 0.3488 1.292 0.3135h0.4384c0.1719 0.0188 0.3444 -0.0296 0.4814 -0.135 0.1371 -0.1054 0.2281 -0.2598 0.254 -0.4307V9.26256c-0.0259 -0.17096 -0.1169 -0.3253 -0.254 -0.43072 -0.137 -0.10543 -0.3095 -0.15379 -0.4814 -0.13496 -0.1719 0.01882 -0.3444 -0.02954 -0.4815 -0.13496 -0.137 -0.10543 -0.228 -0.25977 -0.2539 -0.43073l0 -2.26274c0.0259 -0.17097 0.1169 -0.3253 0.2539 -0.43073 0.1371 -0.10543 0.3096 -0.15378 0.4815 -0.13496 0.1719 0.01883 0.3444 -0.02953 0.4814 -0.13496 0.1371 -0.10542 0.2281 -0.25976 0.254 -0.43072V3.32286c-0.0259 -0.17096 -0.1169 -0.32529 -0.254 -0.43072 -0.137 -0.10543 -0.3095 -0.15379 -0.4814 -0.13496l-0.4384 0c-0.4528 -0.03378 -0.9046 0.07665 -1.2908 0.31546 -0.3861 0.23881 -0.6868 0.59373 -0.8588 1.0139 -0.4787 1.91269 -0.4787 3.91387 0 5.82656Z" stroke-width="1"></path><path id="vector_3" stroke="#000000" stroke-linecap="round" stroke-linejoin="round" d="m5.1145 7.00049 2.96875 0" stroke-width="1"></path><path id="vector_4" stroke="#000000" stroke-linecap="round" stroke-linejoin="round" d="m6.63794 5.55518 1.44531 1.44531L6.63794 8.4458" stroke-width="1"></path></g></svg>