<svg xmlns="http://www.w3.org/2000/svg" fill="none" viewBox="0 0 14 14"><g id="transfer-truck-time--truck-shipping-delivery-time-waiting-delay-transfer"><path id="Ellipse 247" stroke="#000000" stroke-linecap="round" stroke-linejoin="round" d="M6.53581 4.5c-0.02338 -0.16335 -0.03547 -0.33035 -0.03547 -0.50017C6.50034 2.06693 8.06726 0.5 10.0002 0.5 11.9331 0.5 13.5 2.06693 13.5 3.99983c0 1.27332 -0.68 2.38782 -1.6966 3.00017 -0.2493 0.15012 -0.5188 0.27006 -0.8034 0.35477" stroke-width="1"></path><path id="Vector" stroke="#000000" stroke-linecap="round" stroke-linejoin="round" d="M8 13.49c-0.55228 0 -1 -0.4477 -1 -1s0.44772 -1 1 -1 1 0.4477 1 1 -0.44772 1 -1 1Z" stroke-width="1"></path><path id="Vector_2" stroke="#000000" stroke-linecap="round" stroke-linejoin="round" d="M3.5 13.49c-0.55228 0 -1 -0.4477 -1 -1s0.44772 -1 1 -1 1 0.4477 1 1 -0.44772 1 -1 1Z" stroke-width="1"></path><path id="Vector_3" stroke="#000000" stroke-linecap="round" stroke-linejoin="round" d="M7.5 9.5v-1H9c0.53043 0 1.0391 0.21071 1.4142 0.58579 0.3751 0.37507 0.5858 0.88378 0.5858 1.41421v2" stroke-width="1"></path><path id="Vector_4" stroke="#000000" stroke-linecap="round" stroke-linejoin="round" d="M0.5 12.49V7.49001c0 -0.26522 0.105357 -0.51957 0.292893 -0.70711 0.187537 -0.18754 0.441887 -0.29289 0.707107 -0.29289h5c0.26522 0 0.51957 0.10535 0.70711 0.29289 0.18753 0.18754 0.29289 0.44189 0.29289 0.70711v2" stroke-width="1"></path><path id="Vector_5" stroke="#000000" stroke-linecap="round" stroke-linejoin="round" d="M10.0002 3.99983 11 3.00002" stroke-width="1"></path></g></svg>