<svg xmlns="http://www.w3.org/2000/svg" fill="none" viewBox="0 0 14 14"><g id="tune-adjust-volume"><path id="vector" stroke="#000000" stroke-linecap="round" stroke-linejoin="round" d="M7.00006 11.6211c2.24726 0 4.06904 -1.82177 4.06904 -4.06904 0 -2.24726 -1.82178 -4.06903 -4.06904 -4.06903 -2.24726 0 -4.06903 1.82177 -4.06903 4.06903 0 2.24727 1.82177 4.06904 4.06903 4.06904Z" stroke-width="1"></path><path id="vector 2002" stroke="#000000" stroke-linecap="round" stroke-linejoin="round" d="M4.12144 10.4306 7 7.552" stroke-width="1"></path><g id="Group 4505"><path id="Ellipse 1026" stroke="#000000" stroke-linecap="round" stroke-linejoin="round" d="M7 1.70813c-0.13807 0 -0.25 -0.11193 -0.25 -0.25s0.11193 -0.25 0.25 -0.25" stroke-width="1"></path><path id="Ellipse 1027" stroke="#000000" stroke-linecap="round" stroke-linejoin="round" d="M7 1.70813c0.13807 0 0.25 -0.11193 0.25 -0.25s-0.11193 -0.25 -0.25 -0.25" stroke-width="1"></path></g><g id="Group 4507"><path id="Ellipse 1026_2" stroke="#000000" stroke-linecap="round" stroke-linejoin="round" d="M2.68103 3.48322c-0.13807 0 -0.25 -0.11193 -0.25 -0.25 0 -0.13808 0.11193 -0.25 0.25 -0.25" stroke-width="1"></path><path id="Ellipse 1027_2" stroke="#000000" stroke-linecap="round" stroke-linejoin="round" d="M2.68103 3.48322c0.13807 0 0.25 -0.11193 0.25 -0.25 0 -0.13808 -0.11193 -0.25 -0.25 -0.25" stroke-width="1"></path></g><g id="Group 4511"><path id="Ellipse 1026_3" stroke="#000000" stroke-linecap="round" stroke-linejoin="round" d="M0.906311 7.802c-0.138071 0 -0.25 -0.11193 -0.25 -0.25s0.111929 -0.25 0.25 -0.25" stroke-width="1"></path><path id="Ellipse 1027_3" stroke="#000000" stroke-linecap="round" stroke-linejoin="round" d="M0.906311 7.802c0.138069 0 0.249999 -0.11193 0.249999 -0.25s-0.11193 -0.25 -0.249999 -0.25" stroke-width="1"></path></g><g id="Group 4512"><path id="Ellipse 1026_4" stroke="#000000" stroke-linecap="round" stroke-linejoin="round" d="M13.0943 7.802c-0.1381 0 -0.25 -0.11193 -0.25 -0.25s0.1119 -0.25 0.25 -0.25" stroke-width="1"></path><path id="Ellipse 1027_4" stroke="#000000" stroke-linecap="round" stroke-linejoin="round" d="M13.0943 7.802c0.1381 0 0.25 -0.11193 0.25 -0.25s-0.1119 -0.25 -0.25 -0.25" stroke-width="1"></path></g><g id="Group 4508"><path id="Ellipse 1026_5" stroke="#000000" stroke-linecap="round" stroke-linejoin="round" d="M11.3191 3.48322c-0.1381 0 -0.25 -0.11193 -0.25 -0.25 0 -0.13808 0.1119 -0.25 0.25 -0.25" stroke-width="1"></path><path id="Ellipse 1027_5" stroke="#000000" stroke-linecap="round" stroke-linejoin="round" d="M11.3191 3.48322c0.1381 0 0.25 -0.11193 0.25 -0.25 0 -0.13808 -0.1119 -0.25 -0.25 -0.25" stroke-width="1"></path></g><g id="Group 4509"><path id="Ellipse 1026_6" stroke="#000000" stroke-linecap="round" stroke-linejoin="round" d="M2.68103 12.1211c-0.13807 0 -0.25 -0.1119 -0.25 -0.25s0.11193 -0.25 0.25 -0.25" stroke-width="1"></path><path id="Ellipse 1027_6" stroke="#000000" stroke-linecap="round" stroke-linejoin="round" d="M2.68103 12.1211c0.13807 0 0.25 -0.1119 0.25 -0.25s-0.11193 -0.25 -0.25 -0.25" stroke-width="1"></path></g><g id="Group 4510"><path id="Ellipse 1026_7" stroke="#000000" stroke-linecap="round" stroke-linejoin="round" d="M11.3191 12.1211c-0.1381 0 -0.25 -0.1119 -0.25 -0.25s0.1119 -0.25 0.25 -0.25" stroke-width="1"></path><path id="Ellipse 1027_7" stroke="#000000" stroke-linecap="round" stroke-linejoin="round" d="M11.3191 12.1211c0.1381 0 0.25 -0.1119 0.25 -0.25s-0.1119 -0.25 -0.25 -0.25" stroke-width="1"></path></g></g></svg>