<svg width="14" height="14" viewBox="0 0 14 14" fill="none" xmlns="http://www.w3.org/2000/svg">
<path d="M3.99996 9.40002C3.2859 9.96089 2.46631 10.3724 1.58996 10.61C1.49343 10.6451 1.41003 10.709 1.3511 10.793C1.29216 10.8771 1.26054 10.9773 1.26054 11.08C1.26054 11.1827 1.29216 11.2829 1.3511 11.367C1.41003 11.4511 1.49343 11.515 1.58996 11.55C8.50996 14.39 12.9099 10 12.2399 5.13002L13.3599 2.81002H12.0599C10.4399 0.820023 6.13996 0.920023 6.84996 5.16002C6.84996 5.16002 4.54996 5.57002 1.60996 2.68002C1.54195 2.61288 1.45612 2.56663 1.36264 2.54676C1.26916 2.52689 1.17195 2.53422 1.08251 2.56789C0.993068 2.60156 0.915151 2.66016 0.857985 2.73675C0.80082 2.81333 0.766801 2.9047 0.759956 3.00002C0.449088 4.27787 0.60466 5.62472 1.19866 6.79805C1.79266 7.97138 2.78605 8.89409 3.99996 9.40002Z" stroke="#01040B" stroke-linecap="round" stroke-linejoin="round"/>
</svg>
