<svg xmlns="http://www.w3.org/2000/svg" fill="none" viewBox="0 0 14 14"><g id="typewriter--typewriter-company-office-supplies-work"><path id="Vector 3966" stroke="#000000" stroke-linecap="round" stroke-linejoin="round" d="M3 5V1.5c0 -0.552285 0.44772 -1 1 -1h6c0.5523 0 1 0.447715 1 1V5" stroke-width="1"></path><path id="Vector 3965" stroke="#000000" stroke-linecap="round" stroke-linejoin="round" d="M0.5 10v1.5c0 0.5523 0.447715 1 1 1h11c0.5523 0 1 -0.4477 1 -1V10l-1 -2V6c0 -0.55228 -0.4477 -1 -1 -1h-3c0 0.82843 -0.67157 1.5 -1.5 1.5S5.5 5.82843 5.5 5h-3c-0.55228 0 -1 0.44772 -1 1v2l-1 2Z" stroke-width="1"></path><path id="Vector 3967" stroke="#000000" stroke-linecap="round" stroke-linejoin="round" d="M1.5 6.5h-1" stroke-width="1"></path><path id="Vector 3968" stroke="#000000" stroke-linecap="round" stroke-linejoin="round" d="M12.5 6.5h1" stroke-width="1"></path><path id="Vector 3969" stroke="#000000" stroke-linecap="round" stroke-linejoin="round" d="M3.5 10.5h7" stroke-width="1"></path><path id="Vector 3970" stroke="#000000" stroke-linecap="round" stroke-linejoin="round" d="M3.5 8.5h1" stroke-width="1"></path><path id="Vector 3971" stroke="#000000" stroke-linecap="round" stroke-linejoin="round" d="M6.5 8.5h1" stroke-width="1"></path><path id="Vector 3972" stroke="#000000" stroke-linecap="round" stroke-linejoin="round" d="M9.5 8.5h1" stroke-width="1"></path></g></svg>