<svg xmlns="http://www.w3.org/2000/svg" fill="none" viewBox="0 0 14 14"><g id="upload-box-2--arrow-button-download-internet-network-server-up-upload"><path id="Vector" stroke="#000000" stroke-linecap="round" stroke-linejoin="round" d="M9.99996 4.5H11.5c0.1326 0 0.2598 0.05268 0.3536 0.14645C11.9473 4.74021 12 4.86739 12 5v8c0 0.1326 -0.0527 0.2598 -0.1464 0.3536 -0.0938 0.0937 -0.221 0.1464 -0.3536 0.1464h-9c-0.13261 0 -0.25979 -0.0527 -0.35355 -0.1464C2.05268 13.2598 2 13.1326 2 13V5c0 -0.13261 0.05268 -0.25979 0.14645 -0.35355C2.24021 4.55268 2.36739 4.5 2.5 4.5h1.49996" stroke-width="1"></path><path id="Vector_2" stroke="#000000" stroke-linecap="round" stroke-linejoin="round" d="M7 0.5v9" stroke-width="1"></path><path id="Vector_3" stroke="#000000" stroke-linecap="round" stroke-linejoin="round" d="m5 2.5 2 -2 2 2" stroke-width="1"></path></g></svg>