<svg xmlns="http://www.w3.org/2000/svg" fill="none" viewBox="0 0 14 14"><g id="user-full-body-lock-privacy--actions-lock-geometric-human-person-single-user"><path id="Vector" stroke="#000000" stroke-linecap="round" stroke-linejoin="round" d="M4 4c0.9665 0 1.75 -0.7835 1.75 -1.75S4.9665 0.5 4 0.5s-1.75 0.7835 -1.75 1.75S3.0335 4 4 4Z" stroke-width="1"></path><path id="Vector 3864" stroke="#000000" stroke-linecap="round" stroke-linejoin="round" d="M9.25 10V8.75C9.25 7.7835 10.0335 7 11 7v0c0.9665 0 1.75 0.7835 1.75 1.75V10" stroke-width="1"></path><path id="Vector 3865" stroke="#000000" stroke-linecap="round" stroke-linejoin="round" d="M8.5 13v-2.5c0 -0.2761 0.22386 -0.5 0.5 -0.5h4c0.2761 0 0.5 0.2239 0.5 0.5V13c0 0.2761 -0.2239 0.5 -0.5 0.5H9c-0.27614 0 -0.5 -0.2239 -0.5 -0.5Z" stroke-width="1"></path><path id="Vector 3812" stroke="#000000" stroke-linecap="round" stroke-linejoin="round" d="M7.46456 7C7.22194 5.30385 5.76324 4 4 4 2.067 4 0.5 5.567 0.5 7.5v1.75H2l0.5 4.25h3L6 9.25h0.5" stroke-width="1"></path></g></svg>