<svg xmlns="http://www.w3.org/2000/svg" fill="none" viewBox="0 0 14 14"><g id="user-full-body-share--user-share-actions-human-geometric-person-single"><path id="Vector" stroke="#000000" stroke-linecap="round" stroke-linejoin="round" d="M4 4c0.9665 0 1.75 -0.7835 1.75 -1.75S4.9665 0.5 4 0.5s-1.75 0.7835 -1.75 1.75S3.0335 4 4 4Z" stroke-width="1"></path><path id="Ellipse 1772" stroke="#000000" stroke-linecap="round" stroke-linejoin="round" d="M9.16707 10.2917c0 0.6443 -0.52233 1.1666 -1.16666 1.1666 -0.64434 0 -1.16667 -0.5223 -1.16667 -1.1666 0 -0.64437 0.52233 -1.1667 1.16667 -1.1667 0.64433 0 1.16666 0.52233 1.16666 1.1667Z" stroke-width="1"></path><path id="Ellipse 1773" stroke="#000000" stroke-linecap="round" stroke-linejoin="round" d="M13.5001 8.25016c0 0.64433 -0.5224 1.16667 -1.1667 1.16667 -0.6443 0 -1.1667 -0.52234 -1.1667 -1.16667 0 -0.64433 0.5224 -1.16666 1.1667 -1.16666 0.6443 0 1.1667 0.52233 1.1667 1.16666Z" stroke-width="1"></path><path id="Ellipse 1774" stroke="#000000" stroke-linecap="round" stroke-linejoin="round" d="M13.5001 12.3333c0 -0.6443 -0.5224 -1.1666 -1.1667 -1.1666 -0.6443 0 -1.1667 0.5223 -1.1667 1.1666 0 0.6444 0.5224 1.1667 1.1667 1.1667 0.6443 0 1.1667 -0.5223 1.1667 -1.1667Z" stroke-width="1"></path><path id="Subtract" stroke="#000000" stroke-linecap="round" stroke-linejoin="round" d="M11.3253 11.7452 9 10.8794" stroke-width="1"></path><path id="Subtract_2" stroke="#000000" stroke-linecap="round" stroke-linejoin="round" d="M11.3253 8.83789 9 9.70367" stroke-width="1"></path><path id="Vector 3812" stroke="#000000" stroke-linecap="round" stroke-linejoin="round" d="M5.59859 12.662 5.5 13.5h-3L2 9.25H0.5V7.5C0.5 5.567 2.067 4 4 4c1.70999 0 3.13356 1.22629 3.43927 2.84743" stroke-width="1"></path></g></svg>