<svg xmlns="http://www.w3.org/2000/svg" fill="none" viewBox="0 0 14 14"><g id="user-switch-account"><path id="Vector 3780" stroke="#000000" stroke-linecap="round" stroke-linejoin="round" d="M12.5 10c0 1.1046 -0.8954 2 -2 2H8" stroke-width="1"></path><path id="Vector 3781" stroke="#000000" stroke-linecap="round" stroke-linejoin="round" d="M9.5 13.5 8 12l1.5 -1.5" stroke-width="1"></path><path id="Vector 3782" stroke="#000000" stroke-linecap="round" stroke-linejoin="round" d="M6.5 2h-3c-1.10457 0 -2 0.89543 -2 2" stroke-width="1"></path><path id="Vector 3783" stroke="#000000" stroke-linecap="round" stroke-linejoin="round" d="M5 0.5 6.5 2 5 3.5" stroke-width="1"></path><path id="Ellipse 1134" stroke="#000000" stroke-linecap="round" stroke-linejoin="round" d="M2.25 7.75a1.25 1.25 0 1 0 2.5 0 1.25 1.25 0 1 0 -2.5 0" stroke-width="1"></path><path id="Ellipse 1137" stroke="#000000" stroke-linecap="round" stroke-linejoin="round" d="M6 13c0 -1.3807 -1.11929 -2.5 -2.5 -2.5S1 11.6193 1 13" stroke-width="1"></path><path id="Ellipse 1138" stroke="#000000" stroke-linecap="round" stroke-linejoin="round" d="M9.25 2.25a1.25 1.25 0 1 0 2.5 0 1.25 1.25 0 1 0 -2.5 0" stroke-width="1"></path><path id="Ellipse 1139" stroke="#000000" stroke-linecap="round" stroke-linejoin="round" d="M13 7.5C13 6.11929 11.8807 5 10.5 5 9.11929 5 8 6.11929 8 7.5" stroke-width="1"></path></g></svg>