<svg xmlns="http://www.w3.org/2000/svg" fill="none" viewBox="0 0 14 14"><g id="user-experience-design"><path id="Ellipse 1134" stroke="#000000" stroke-linecap="round" stroke-linejoin="round" d="M5.75 5a1.25 1.25 0 1 0 2.5 0 1.25 1.25 0 1 0 -2.5 0" stroke-width="1"></path><path id="Ellipse 1136" stroke="#000000" stroke-linecap="round" stroke-linejoin="round" d="M4.70801 9.25c0.38578 -0.88295 1.26682 -1.5 2.29198 -1.5s1.9062 0.61705 2.29197 1.5" stroke-width="1"></path><path id="Ellipse 1879" stroke="#000000" stroke-linecap="round" stroke-linejoin="round" d="M1 2.5a1.5 1.5 0 1 0 3 0 1.5 1.5 0 1 0 -3 0" stroke-width="1"></path><path id="Vector 4020" stroke="#000000" stroke-linecap="round" stroke-linejoin="round" d="M3.75 10.25h-2.5v2.5h2.5v-2.5Z" stroke-width="1"></path><path id="Vector 4021" stroke="#000000" stroke-linecap="round" stroke-linejoin="round" d="M12.75 1.25h-2.5v2.5h2.5v-2.5Z" stroke-width="1"></path><path id="Ellipse 1883" stroke="#000000" stroke-linecap="round" stroke-linejoin="round" d="M0.673932 8.5C0.560189 8.01848 0.5 7.51627 0.5 7s0.060189 -1.01848 0.173932 -1.5" stroke-width="1"></path><path id="Ellipse 1884" stroke="#000000" stroke-linecap="round" stroke-linejoin="round" d="M5.5 0.673932C5.98152 0.560189 6.48373 0.5 7 0.5s1.01848 0.060189 1.5 0.173932" stroke-width="1"></path><path id="Ellipse 1885" stroke="#000000" stroke-linecap="round" stroke-linejoin="round" d="M13.3262 5.5c0.1137 0.48152 0.1739 0.98373 0.1739 1.5s-0.0602 1.01848 -0.1739 1.5" stroke-width="1"></path><path id="Ellipse 1886" stroke="#000000" stroke-linecap="round" stroke-linejoin="round" d="M5.5 13.3262c0.48152 0.1137 0.98373 0.1739 1.5 0.1739s1.01848 -0.0602 1.5 -0.1739" stroke-width="1"></path><path id="Ellipse 1878" stroke="#000000" stroke-linecap="round" stroke-linejoin="round" d="M10 11.5a1.5 1.5 0 1 0 3 0 1.5 1.5 0 1 0 -3 0" stroke-width="1"></path></g></svg>