<svg xmlns="http://www.w3.org/2000/svg" fill="none" viewBox="0 0 14 14"><g id="user-head-side--geometric-human-person-single-user"><path id="Vector" stroke="#000000" stroke-linecap="round" stroke-linejoin="round" d="M9.5 13.5V11h2c0.2652 0 0.5196 -0.1054 0.7071 -0.2929 0.1875 -0.1876 0.2929 -0.4419 0.2929 -0.70714v-4c-0.0002 -0.97748 -0.2609 -1.93724 -0.7552 -2.7805 -0.4943 -0.84326 -1.2045 -1.53954 -2.0573 -2.01717C8.83466 0.724665 7.86995 0.482948 6.89266 0.502024c-0.97728 0.019077 -1.93183 0.298258 -2.76538 0.808806 -0.83354 0.51054 -1.51596 1.23401 -1.97702 2.09591 -0.46105 0.86191 -0.68407 1.83112 -0.64611 2.80785 0.03797 0.97674 0.33555 1.92571 0.86211 2.74923C2.89282 9.78734 3.62934 10.4556 4.5 10.9v2.6" stroke-width="1"></path></g></svg>