<svg xmlns="http://www.w3.org/2000/svg" fill="none" viewBox="0 0 14 14"><g id="user-face-id-mask"><path id="Vector 3796" stroke="#000000" stroke-linecap="round" stroke-linejoin="round" d="M3.5 10V6c2.35863 0.58966 4.64137 0.58966 7 0v4c-2.35863 0.5897 -4.64137 0.5897 -7 0Z" stroke-width="1"></path><g id="Group 2605"><path id="Ellipse 1111" stroke="#000000" stroke-linecap="round" stroke-linejoin="round" d="M5 4.25c-0.13807 0 -0.25 -0.11193 -0.25 -0.25s0.11193 -0.25 0.25 -0.25" stroke-width="1"></path><path id="Ellipse 1112" stroke="#000000" stroke-linecap="round" stroke-linejoin="round" d="M5 4.25c0.13807 0 0.25 -0.11193 0.25 -0.25s-0.11193 -0.25 -0.25 -0.25" stroke-width="1"></path></g><g id="Group 2606"><path id="Ellipse 1111_2" stroke="#000000" stroke-linecap="round" stroke-linejoin="round" d="M9 4.25c-0.13807 0 -0.25 -0.11193 -0.25 -0.25s0.11193 -0.25 0.25 -0.25" stroke-width="1"></path><path id="Ellipse 1112_2" stroke="#000000" stroke-linecap="round" stroke-linejoin="round" d="M9 4.25c0.13807 0 0.25 -0.11193 0.25 -0.25s-0.11193 -0.25 -0.25 -0.25" stroke-width="1"></path></g><path id="Vector" stroke="#000000" stroke-linecap="round" stroke-linejoin="round" d="M13 10v2c0 0.2652 -0.1054 0.5196 -0.2929 0.7071S12.2652 13 12 13h-2" stroke-width="1"></path><path id="Vector_2" stroke="#000000" stroke-linecap="round" stroke-linejoin="round" d="M10 1h2c0.2652 0 0.5196 0.10536 0.7071 0.29289C12.8946 1.48043 13 1.73478 13 2v2" stroke-width="1"></path><path id="Vector_3" stroke="#000000" stroke-linecap="round" stroke-linejoin="round" d="M1 4V2c0 -0.26522 0.10536 -0.51957 0.29289 -0.70711C1.48043 1.10536 1.73478 1 2 1h2" stroke-width="1"></path><path id="Vector_4" stroke="#000000" stroke-linecap="round" stroke-linejoin="round" d="M4 13H2c-0.26522 0 -0.51957 -0.1054 -0.70711 -0.2929C1.10536 12.5196 1 12.2652 1 12v-2" stroke-width="1"></path><path id="Vector 3797" stroke="#000000" stroke-linecap="round" stroke-linejoin="round" d="M3.5 8C3 8 2 7.5 1.5 7" stroke-width="1"></path><path id="Vector 3798" stroke="#000000" stroke-linecap="round" stroke-linejoin="round" d="M10.5 8c0.5 0 1.5 -0.5 2 -1" stroke-width="1"></path></g></svg>