<svg xmlns="http://www.w3.org/2000/svg" fill="none" viewBox="0 0 14 14"><g id="user-target--navigation-location-map-services-maps-gps-target-user"><path id="Vector" stroke="#000000" stroke-linecap="round" stroke-linejoin="round" d="M7 12c2.76142 0 5 -2.23858 5 -5S9.76142 2 7 2 2 4.23858 2 7s2.23858 5 5 5Z" stroke-width="1"></path><path id="Vector_2" stroke="#000000" stroke-linecap="round" stroke-linejoin="round" d="M7 2V0.5" stroke-width="1"></path><path id="Vector_3" stroke="#000000" stroke-linecap="round" stroke-linejoin="round" d="M7 13.5V12" stroke-width="1"></path><path id="Vector_4" stroke="#000000" stroke-linecap="round" stroke-linejoin="round" d="M12 7h1.5" stroke-width="1"></path><path id="Vector_5" stroke="#000000" stroke-linecap="round" stroke-linejoin="round" d="M0.5 7H2" stroke-width="1"></path><path id="Vector_6" stroke="#000000" stroke-linecap="round" stroke-linejoin="round" d="M5.25 6c0 0.9665 0.7835 1.75 1.75 1.75 0.24434 0 0.47698 -0.05007 0.68822 -0.14052C8.31257 7.34216 8.75 6.72216 8.75 6c0 -0.9665 -0.7835 -1.75 -1.75 -1.75S5.25 5.0335 5.25 6Z" stroke-width="1"></path><path id="Vector_7" stroke="#000000" stroke-linecap="round" stroke-linejoin="round" d="M6.99999 9.25c-1.28871 0 -2.41474 0.69649 -3.02221 1.7336C4.81722 11.6214 5.86439 12 6.99999 12s2.18277 -0.3786 3.02221 -1.0164C9.41473 9.94649 8.2887 9.25 6.99999 9.25Z" stroke-width="1"></path></g></svg>