<svg xmlns="http://www.w3.org/2000/svg" fill="none" viewBox="0 0 14 14"><g id="user-alert-bell--actions-alert-geometric-human-person-single-user"><path id="Vector" stroke="#000000" stroke-linecap="round" stroke-linejoin="round" d="M5 5.5c1.38071 0 2.5 -1.11929 2.5 -2.5S6.38071 0.5 5 0.5 2.5 1.61929 2.5 3 3.61929 5.5 5 5.5Z" stroke-width="1"></path><path id="Vector_2" stroke="#000000" stroke-linecap="round" stroke-linejoin="round" d="M12.5 9.5c0 -0.66304 -0.2634 -1.29893 -0.7322 -1.76777C11.2989 7.26339 10.663 7 10 7c-0.66304 0 -1.29893 0.26339 -1.76777 0.73223C7.76339 8.20107 7.5 8.83696 7.5 9.5v3h5v-3Z" stroke-width="1"></path><path id="Vector_3" stroke="#000000" stroke-linecap="round" stroke-linejoin="round" d="M6.5 12.5h7" stroke-width="1"></path><path id="Vector_4" stroke="#000000" stroke-linecap="round" stroke-linejoin="round" d="M10 12.5v1" stroke-width="1"></path><path id="Ellipse 1772" stroke="#000000" stroke-linecap="round" stroke-linejoin="round" d="M4.27631 12.5H0.5V12C0.5 9.51472 2.51472 7.5 5 7.5c0.23605 0 0.46785 0.01817 0.69409 0.0532" stroke-width="1"></path></g></svg>