<svg xmlns="http://www.w3.org/2000/svg" fill="none" viewBox="0 0 14 14"><g id="user-full-body-question-query--actions-question-geometric-human-person-single-user"><path id="Vector" stroke="#000000" stroke-linecap="round" stroke-linejoin="round" d="M4 4c0.9665 0 1.75 -0.7835 1.75 -1.75S4.9665 0.5 4 0.5s-1.75 0.7835 -1.75 1.75S3.0335 4 4 4Z" stroke-width="1"></path><path id="Vector 3812" stroke="#000000" stroke-linecap="round" stroke-linejoin="round" d="M0.5 9.25H2l0.5 4.25h3L6 9.25h1.5V7.5C7.5 5.567 5.933 4 4 4S0.5 5.567 0.5 7.5v1.75Z" stroke-width="1"></path><path id="Vector_2" stroke="#000000" stroke-linecap="round" stroke-linejoin="round" d="M9.5 8.1665c0 -0.39556 0.1173 -0.78224 0.33706 -1.11114 0.21974 -0.32889 0.53214 -0.58524 0.89754 -0.73661 0.3655 -0.15138 0.7676 -0.19099 1.1556 -0.11382 0.3879 0.07717 0.7443 0.26766 1.024 0.54736 0.2797 0.27971 0.4702 0.63607 0.5474 1.02403 0.0771 0.38797 0.0375 0.7901 -0.1138 1.15555 -0.1514 0.36545 -0.4078 0.67781 -0.7367 0.89757 -0.3289 0.21976 -0.7155 0.33706 -1.1111 0.33706v1.3333" stroke-width="1"></path><g id="Group 2677"><path id="Vector_3" stroke="#000000" stroke-linecap="round" stroke-linejoin="round" d="M11.5 13.5c-0.1381 0 -0.25 -0.1119 -0.25 -0.25s0.1119 -0.25 0.25 -0.25" stroke-width="1"></path><path id="Vector_4" stroke="#000000" stroke-linecap="round" stroke-linejoin="round" d="M11.5 13.5c0.1381 0 0.25 -0.1119 0.25 -0.25s-0.1119 -0.25 -0.25 -0.25" stroke-width="1"></path></g></g></svg>