<svg xmlns="http://www.w3.org/2000/svg" fill="none" viewBox="0 0 14 14"><g id="user-home-single--home-geometric-human-person-single-user"><path id="Ellipse 5" stroke="#000000" stroke-linecap="round" stroke-linejoin="round" d="M4.999 6.501a2.001 2.001 0 1 0 4.002 0 2.001 2.001 0 1 0 -4.002 0" stroke-width="1"></path><path id="Vector 3720" stroke="#000000" stroke-linecap="round" stroke-linejoin="round" d="M1 6.9399V12c0 0.5523 0.44772 1 1 1h10c0.5523 0 1 -0.4477 1 -1V6.9399c0 -0.2803 -0.1176 -0.54774 -0.3243 -0.73715L7 1 1.32428 6.20275C1.11765 6.39216 1 6.6596 1 6.9399Z" stroke-width="1"></path><path id="Ellipse 1812" stroke="#000000" stroke-linecap="round" stroke-linejoin="round" d="M6.99996 10c-1.86384 0 -3.42994 1.2748 -3.87398 3h7.74792c-0.444 -1.7252 -2.0101 -3 -3.87394 -3Z" stroke-width="1"></path></g></svg>