<svg xmlns="http://www.w3.org/2000/svg" fill="none" viewBox="0 0 14 14"><g id="user-podcast--human-person-share-signal-transmit-user"><path id="Vector" stroke="#000000" stroke-linecap="round" stroke-linejoin="round" d="M12.1238 11C12.9861 9.89703 13.5 8.50853 13.5 7 13.5 3.41015 10.5899 0.5 7 0.5 3.41015 0.5 0.5 3.41015 0.5 7c0 1.50853 0.51389 2.89703 1.37616 4" stroke-width="1"></path><path id="Ellipse 786" stroke="#000000" stroke-linecap="round" stroke-linejoin="round" d="M2.96777 13.5c0.73635 -1.4817 2.26538 -2.5 4.03224 -2.5 1.76686 0 3.29589 1.0183 4.03229 2.5" stroke-width="1"></path><path id="Vector_2" stroke="#000000" stroke-linecap="round" stroke-linejoin="round" d="M7 9.25c1.24264 0 2.25 -1.00736 2.25 -2.25S8.24264 4.75 7 4.75 4.75 5.75736 4.75 7 5.75736 9.25 7 9.25Z" stroke-width="1"></path></g></svg>