<svg xmlns="http://www.w3.org/2000/svg" fill="none" viewBox="0 0 14 14"><g id="user-friendship-group"><path id="Vector" stroke="#000000" stroke-linecap="round" stroke-linejoin="round" d="m6 9.75 -0.5 3.75h-2L3 9.75H1.5V7c0 -1.65685 1.34315 -3 3 -3h5c1.6569 0 3 1.34315 3 3v2.75H11l-0.5 3.75h-2L8 9.75" stroke-width="1"></path><path id="Vector_2" stroke="#000000" stroke-linecap="round" stroke-linejoin="round" d="M4.5 4c0.9665 0 1.75 -0.7835 1.75 -1.75S5.4665 0.5 4.5 0.5s-1.75 0.7835 -1.75 1.75S3.5335 4 4.5 4Z" stroke-width="1"></path><path id="Vector_3" stroke="#000000" stroke-linecap="round" stroke-linejoin="round" d="M9.5 4c0.9665 0 1.75 -0.7835 1.75 -1.75S10.4665 0.5 9.5 0.5s-1.75 0.7835 -1.75 1.75S8.5335 4 9.5 4Z" stroke-width="1"></path></g></svg>