<svg xmlns="http://www.w3.org/2000/svg" fill="none" viewBox="0 0 14 14"><g id="user-full-body-block-remove--actions-block-denied-deny-geometric-human-person-single-user"><path id="Vector" stroke="#000000" stroke-linecap="round" stroke-linejoin="round" d="M4 4c0.9665 0 1.75 -0.7835 1.75 -1.75S4.9665 0.5 4 0.5s-1.75 0.7835 -1.75 1.75S3.0335 4 4 4Z" stroke-width="1"></path><path id="Vector_2" stroke="#000000" stroke-linecap="round" stroke-linejoin="round" d="M10.75 13.5C9.23122 13.5 8 12.2688 8 10.75 8 9.23122 9.23122 8 10.75 8c1.5188 0 2.75 1.23122 2.75 2.75 0 1.5188 -1.2312 2.75 -2.75 2.75Z" stroke-width="1"></path><path id="Vector_3" stroke="#000000" stroke-linecap="round" stroke-linejoin="round" d="M10.75 13.5C9.23122 13.5 8 12.2688 8 10.75 8 9.23122 9.23122 8 10.75 8c1.5188 0 2.75 1.23122 2.75 2.75 0 1.5188 -1.2312 2.75 -2.75 2.75Z" stroke-width="1"></path><path id="Vector_4" stroke="#000000" stroke-linecap="round" stroke-linejoin="round" d="M12.6945 12.6945 8.80542 8.80542" stroke-width="1"></path><path id="Vector 3812" stroke="#000000" stroke-linecap="round" stroke-linejoin="round" d="m6 9.25 -0.5 4.25h-3L2 9.25H0.5V7.5C0.5 5.567 2.067 4 4 4c1.76324 0 3.22194 1.30385 3.46456 3" stroke-width="1"></path></g></svg>