<svg xmlns="http://www.w3.org/2000/svg" fill="none" viewBox="0 0 14 14"><g id="user-search--close-geometric-human-person-search-user"><path id="Vector" stroke="#000000" stroke-linecap="round" stroke-linejoin="round" d="M6.5 7.125c0.9665 0 1.75 -0.7835 1.75 -1.75s-0.7835 -1.75 -1.75 -1.75 -1.75 0.7835 -1.75 1.75 0.7835 1.75 1.75 1.75Z" stroke-width="1"></path><path id="Vector_2" stroke="#000000" stroke-linecap="round" stroke-linejoin="round" d="M6.49999 12c1.49742 0 2.85508 -0.5984 3.84691 -1.5691C9.42971 9.32749 8.04687 8.625 6.49995 8.625c-1.5469 0 -2.92972 0.70247 -3.84687 1.8058C3.64487 11.4016 5.00254 12 6.49999 12Z" stroke-width="1"></path><path id="Vector_3" stroke="#000000" stroke-linecap="round" stroke-linejoin="round" d="m10.3892 10.389 2.6109 2.6109" stroke-width="1"></path><path id="Vector_4" stroke="#000000" stroke-linecap="round" stroke-linejoin="round" d="M6.5 12C9.53757 12 12 9.53757 12 6.5S9.53757 1 6.5 1 1 3.46243 1 6.5 3.46243 12 6.5 12Z" stroke-width="1"></path></g></svg>