<svg xmlns="http://www.w3.org/2000/svg" fill="none" viewBox="0 0 14 14"><g id="user-nft-profile-picture-1"><path id="Vector" stroke="#000000" stroke-linecap="round" stroke-linejoin="round" d="M7 7.5c1.10457 0 2 -0.89543 2 -2s-0.89543 -2 -2 -2 -2 0.89543 -2 2 0.89543 2 2 2Z" stroke-width="1"></path><path id="Vector_2" stroke="#000000" stroke-linecap="round" stroke-linejoin="round" d="M7.0001 9c-1.72981 0 -3.20316 1.098 -3.76109 2.6351l0.22079 0.3736c0.17991 0.3045 0.50727 0.4913 0.86092 0.4913h5.35874c0.35364 0 0.68104 -0.1868 0.86094 -0.4913l0.2208 -0.3736C10.2032 10.098 8.7299 9 7.0001 9Z" stroke-width="1"></path><path id="Vector 3930" stroke="#000000" stroke-linecap="round" stroke-linejoin="round" d="m10.5404 1.99127 2.6591 4.5c0.1854 0.31381 0.1854 0.70365 0 1.01746l-2.6591 4.49997c-0.1799 0.3045 -0.5073 0.4913 -0.86095 0.4913H4.32071c-0.35365 0 -0.68101 -0.1868 -0.86092 -0.4913L0.800694 7.50873c-0.18543 -0.31381 -0.185431 -0.70365 0 -1.01746l2.659096 -4.5C3.6397 1.6868 3.96706 1.5 4.32071 1.5l5.35874 0c0.35365 0 0.68105 0.1868 0.86095 0.49127Z" stroke-width="1"></path></g></svg>