<svg xmlns="http://www.w3.org/2000/svg" fill="none" viewBox="0 0 14 14"><g id="user-question-query--actions-question-geometric-human-person-single-user"><path id="Vector" stroke="#000000" stroke-linecap="round" stroke-linejoin="round" d="M5 5.5c1.38071 0 2.5 -1.11929 2.5 -2.5S6.38071 0.5 5 0.5 2.5 1.61929 2.5 3 3.61929 5.5 5 5.5Z" stroke-width="1"></path><path id="Vector_2" stroke="#000000" stroke-linecap="round" stroke-linejoin="round" d="M9.5 8.16663c0 -0.39557 0.1173 -0.78225 0.33706 -1.11114 0.21974 -0.3289 0.53214 -0.58525 0.89754 -0.73662 0.3655 -0.15138 0.7676 -0.19098 1.1556 -0.11381 0.3879 0.07717 0.7443 0.26765 1.024 0.54735 0.2797 0.27971 0.4702 0.63607 0.5474 1.02404 0.0771 0.38796 0.0375 0.79009 -0.1138 1.15554 -0.1514 0.36546 -0.4078 0.67781 -0.7367 0.89758 -0.3289 0.21973 -0.7155 0.33703 -1.1111 0.33703V11.5" stroke-width="1"></path><g id="Group 2670"><path id="Vector_3" stroke="#000000" stroke-linecap="round" stroke-linejoin="round" d="M11.5 13.5c-0.1381 0 -0.25 -0.1119 -0.25 -0.25s0.1119 -0.25 0.25 -0.25" stroke-width="1"></path><path id="Vector_4" stroke="#000000" stroke-linecap="round" stroke-linejoin="round" d="M11.5 13.5c0.1381 0 0.25 -0.1119 0.25 -0.25s-0.1119 -0.25 -0.25 -0.25" stroke-width="1"></path></g><path id="Ellipse 1772" stroke="#000000" stroke-linecap="round" stroke-linejoin="round" d="M7.21618 8.08265C6.56199 7.71176 5.80573 7.5 5 7.5 2.51472 7.5 0.5 9.51472 0.5 12v0.5h9V12c0 -0.5723 -0.10683 -1.1196 -0.30164 -1.6232" stroke-width="1"></path></g></svg>