<svg xmlns="http://www.w3.org/2000/svg" fill="none" viewBox="0 0 14 14"><g id="user-multiple-accounts"><path id="Ellipse 1767" stroke="#000000" stroke-linecap="round" stroke-linejoin="round" d="M4.25 7a1.5 1.5 0 1 0 3 0 1.5 1.5 0 1 0 -3 0" stroke-width="1"></path><path id="Ellipse 1768" stroke="#000000" stroke-linecap="round" stroke-linejoin="round" d="M5.75 10c-1.65685 0 -3 1.3431 -3 3h6c0 -1.6569 -1.34315 -3 -3 -3Z" stroke-width="1"></path><path id="Vector 3771" stroke="#000000" stroke-linecap="round" stroke-linejoin="round" d="M9.5 3.5H2c-0.55228 0 -1 0.44772 -1 1V12c0 0.5523 0.44772 1 1 1h7.5c0.5523 0 1 -0.4477 1 -1V4.5c0 -0.55228 -0.4477 -1 -1 -1Z" stroke-width="1"></path><path id="Vector 3772" stroke="#000000" stroke-linecap="round" stroke-linejoin="round" d="M3.5 3.5V2c0 -0.55228 0.44772 -1 1 -1H12c0.5523 0 1 0.44772 1 1v7.5c0 0.5523 -0.4477 1 -1 1h-1.5" stroke-width="1"></path></g></svg>