<svg xmlns="http://www.w3.org/2000/svg" fill="none" viewBox="0 0 14 14"><g id="user-protection-1--shield-secure-security-person"><path id="Vector 3703" stroke="#000000" stroke-linecap="round" stroke-linejoin="round" d="M13 7.5H8c-0.27614 0 -0.5 0.22386 -0.5 0.5v1.33772c0 1.88848 1.20843 3.56508 3 4.16228 1.7916 -0.5972 3 -2.2738 3 -4.16228V8c0 -0.27614 -0.2239 -0.5 -0.5 -0.5Z" stroke-width="1"></path><path id="Vector" stroke="#000000" stroke-linecap="round" stroke-linejoin="round" d="M5 5.5c1.38071 0 2.5 -1.11929 2.5 -2.5S6.38071 0.5 5 0.5 2.5 1.61929 2.5 3 3.61929 5.5 5 5.5Z" stroke-width="1"></path><path id="Ellipse 1772" stroke="#000000" stroke-linecap="round" stroke-linejoin="round" d="M6 12.5H0.5V12C0.5 9.51472 2.51472 7.5 5 7.5c0.13518 0 0.26896 0.00596 0.40111 0.01763" stroke-width="1"></path></g></svg>