<svg xmlns="http://www.w3.org/2000/svg" fill="none" viewBox="0 0 14 14"><g id="user-lock-privacy--actions-lock-geometric-human-person-single-user"><path id="Vector" stroke="#000000" stroke-linecap="round" stroke-linejoin="round" d="M5 5.5c1.38071 0 2.5 -1.11929 2.5 -2.5S6.38071 0.5 5 0.5 2.5 1.61929 2.5 3 3.61929 5.5 5 5.5Z" stroke-width="1"></path><path id="Vector 3864" stroke="#000000" stroke-linecap="round" stroke-linejoin="round" d="M9.25 10V8.75C9.25 7.7835 10.0335 7 11 7v0c0.9665 0 1.75 0.7835 1.75 1.75V10" stroke-width="1"></path><path id="Vector 3865" stroke="#000000" stroke-linecap="round" stroke-linejoin="round" d="M8.5 13v-2.5c0 -0.2761 0.22386 -0.5 0.5 -0.5h4c0.2761 0 0.5 0.2239 0.5 0.5V13c0 0.2761 -0.2239 0.5 -0.5 0.5H9c-0.27614 0 -0.5 -0.2239 -0.5 -0.5Z" stroke-width="1"></path><path id="Ellipse 1772" stroke="#000000" stroke-linecap="round" stroke-linejoin="round" d="M6.29862 12.5H0.5V12C0.5 9.51472 2.51472 7.5 5 7.5c0.78805 0 1.52879 0.20257 2.17299 0.55848" stroke-width="1"></path></g></svg>