<svg xmlns="http://www.w3.org/2000/svg" fill="none" viewBox="0 0 14 14"><g id="user-queen-crown--actions-crown-geometric-human-person-single-user"><path id="Vector" stroke="#000000" stroke-linecap="round" stroke-linejoin="round" d="M2 8s-0.99976 1 -0.99976 5l11.99986 0C13.0001 9 12 8 12 8" stroke-width="1"></path><path id="Vector 3729" stroke="#000000" stroke-linecap="round" stroke-linejoin="round" d="M12 6.5H2V2l2.5 1.5L7 1l2.5 2.5L12 2v4.5Z" stroke-width="1"></path><path id="Ellipse 1760" stroke="#000000" stroke-linecap="round" stroke-linejoin="round" d="M7 13c2.76142 0 5 -2.2386 5 -5V6.5H2V8c0 2.7614 2.23858 5 5 5Z" stroke-width="1"></path><path id="Vector_2" stroke="#000000" stroke-linecap="round" stroke-linejoin="round" d="M4.5 9.49995c1.41363 0 2.67502 -0.65184 3.5 -1.67134 0.82498 1.0195 2.0864 1.67134 3.5 1.67134 0.0919 0 0.1831 -0.00276 0.2737 -0.00819 0.147 -0.47114 0.2263 -0.97222 0.2263 -1.49181V6.5H2v1.49995c0 0.26611 0.02079 0.52737 0.06083 0.78224 0.70276 0.45414 1.54018 0.71776 2.43917 0.71776Z" stroke-width="1"></path></g></svg>