<svg xmlns="http://www.w3.org/2000/svg" fill="none" viewBox="0 0 14 14"><g id="user-nft-profile-picture-2"><path id="Ellipse 167" stroke="#000000" stroke-linecap="round" stroke-linejoin="round" d="M4.32593 7.97449c0.59166 0.83897 1.56725 1.38815 2.67201 1.39132 1.10477 0.00317 2.08349 -0.5404 2.67996 -1.37596" stroke-width="1"></path><g id="Group 2605"><path id="Ellipse 1111" stroke="#000000" stroke-linecap="round" stroke-linejoin="round" d="M5.25 5.5c-0.13807 0 -0.25 -0.11193 -0.25 -0.25S5.11193 5 5.25 5" stroke-width="1"></path><path id="Ellipse 1112" stroke="#000000" stroke-linecap="round" stroke-linejoin="round" d="M5.25 5.5c0.13807 0 0.25 -0.11193 0.25 -0.25S5.38807 5 5.25 5" stroke-width="1"></path></g><g id="Group 2606"><path id="Ellipse 1111_2" stroke="#000000" stroke-linecap="round" stroke-linejoin="round" d="M8.75 5.5c-0.13807 0 -0.25 -0.11193 -0.25 -0.25S8.61193 5 8.75 5" stroke-width="1"></path><path id="Ellipse 1112_2" stroke="#000000" stroke-linecap="round" stroke-linejoin="round" d="M8.75 5.5c0.13807 0 0.25 -0.11193 0.25 -0.25S8.88807 5 8.75 5" stroke-width="1"></path></g><path id="Vector 3930" stroke="#000000" stroke-linecap="round" stroke-linejoin="round" d="m10.5403 1.99127 2.6591 4.5c0.1854 0.31381 0.1854 0.70365 0 1.01746l-2.6591 4.49997c-0.1799 0.3045 -0.5073 0.4913 -0.86093 0.4913l-5.35874 0c-0.35366 0 -0.68101 -0.1868 -0.86093 -0.4913L0.800612 7.50873c-0.18543 -0.31381 -0.185431 -0.70365 0 -1.01746l2.659088 -4.5C3.63962 1.6868 3.96697 1.5 4.32063 1.5l5.35874 0c0.35363 0 0.68103 0.1868 0.86093 0.49127Z" stroke-width="1"></path></g></svg>