<svg xmlns="http://www.w3.org/2000/svg" fill="none" viewBox="0 0 14 14"><g id="vector-stroke-weight"><path id="Vector 1345" stroke="#000000" stroke-linecap="round" stroke-linejoin="round" d="m1 1.05077 12 0.00001" stroke-width="1"></path><path id="Vector 1945" stroke="#000000" stroke-linecap="round" stroke-linejoin="round" d="m1 12 0 -2.5c0 -0.55228 0.44772 -1 1 -1l10 0c0.5523 0 1 0.44772 1 1l0 2.5c0 0.5523 -0.4477 1 -1 1L2 13c-0.55228 0 -1 -0.4477 -1 -1Z" stroke-width="1"></path><path id="Vector 1946" stroke="#000000" stroke-linecap="round" stroke-linejoin="round" d="M1 5.5 1 4c0 -0.55228 0.44771 -1 1 -1l10 0c0.5523 0 1 0.44772 1 1l0 1.5c0 0.55228 -0.4477 1 -1 1l-10 0c-0.55228 0 -1 -0.44772 -1 -1Z" stroke-width="1"></path></g></svg>