<svg xmlns="http://www.w3.org/2000/svg" fill="none" viewBox="0 0 14 14"><g id="vertical-scroll--move-scroll-vertical"><path id="Vector" stroke="#000000" stroke-linecap="round" stroke-linejoin="round" d="M2.25 4.99999 6.74 0.609995c0.0336 -0.03509 0.07396 -0.063014 0.11865 -0.082091C6.90333 0.508828 6.95141 0.498993 7 0.498993c0.04859 0 0.09667 0.009835 0.14135 0.028911 0.04469 0.019077 0.08505 0.047001 0.11865 0.082091l4.49 4.389995" stroke-width="1"></path><path id="Vector_2" stroke="#000000" stroke-linecap="round" stroke-linejoin="round" d="m2.25 9 4.49 4.39c0.0336 0.0351 0.07396 0.063 0.11865 0.0821 0.04468 0.0191 0.09276 0.0289 0.14135 0.0289 0.04859 0 0.09667 -0.0098 0.14135 -0.0289 0.04469 -0.0191 0.08505 -0.047 0.11865 -0.0821L11.75 9" stroke-width="1"></path></g></svg>