<svg xmlns="http://www.w3.org/2000/svg" fill="none" viewBox="0 0 14 14"><g id="vertical-slider-4"><path id="Vector" stroke="#000000" stroke-linecap="round" stroke-linejoin="round" d="M8.5 5.00009c0 1.10457 0.89543 2 2 2 1.1046 0 2 -0.89543 2 -2s-0.8954 -2 -2 -2c-1.10457 0 -2 0.89543 -2 2Z" stroke-width="1"></path><path id="Vector_2" stroke="#000000" stroke-linecap="round" stroke-linejoin="round" d="m10.5001 2.99985 0 -2.500003" stroke-width="1"></path><path id="Vector_3" stroke="#000000" stroke-linecap="round" stroke-linejoin="round" d="m10.5002 6.99966 0 6.50004" stroke-width="1"></path><path id="Vector_4" stroke="#000000" stroke-linecap="round" stroke-linejoin="round" d="M1.50003 9.00003c0 -1.10457 0.89543 -2 2 -2s2 0.89543 2 2S4.6046 11 3.50003 11s-2 -0.8954 -2 -1.99997Z" stroke-width="1"></path><path id="Vector_5" stroke="#000000" stroke-linecap="round" stroke-linejoin="round" d="m3.49988 11.0002 0 2.5" stroke-width="1"></path><path id="Vector_6" stroke="#000000" stroke-linecap="round" stroke-linejoin="round" d="m3.49979 7.00034 0 -6.500004" stroke-width="1"></path></g></svg>