<svg xmlns="http://www.w3.org/2000/svg" fill="none" viewBox="0 0 14 14"><g id="vertical-slider-2--adjustment-adjust-controls-fader-vertical-settings-slider"><path id="Vector" stroke="#000000" stroke-linecap="round" stroke-linejoin="round" d="M2.5 6C3.32843 6 4 5.32843 4 4.5S3.32843 3 2.5 3 1 3.67157 1 4.5 1.67157 6 2.5 6Z" stroke-width="1"></path><path id="Vector_2" stroke="#000000" stroke-linecap="round" stroke-linejoin="round" d="M2.5 6v7" stroke-width="1"></path><path id="Vector_3" stroke="#000000" stroke-linecap="round" stroke-linejoin="round" d="M2.5 1v2" stroke-width="1"></path><path id="Vector_4" stroke="#000000" stroke-linecap="round" stroke-linejoin="round" d="M11.5 6c0.8284 0 1.5 -0.67157 1.5 -1.5S12.3284 3 11.5 3 10 3.67157 10 4.5 10.6716 6 11.5 6Z" stroke-width="1"></path><path id="Vector_5" stroke="#000000" stroke-linecap="round" stroke-linejoin="round" d="M11.5 3V1" stroke-width="1"></path><path id="Vector_6" stroke="#000000" stroke-linecap="round" stroke-linejoin="round" d="M11.5 13V6" stroke-width="1"></path><path id="Vector_7" stroke="#000000" stroke-linecap="round" stroke-linejoin="round" d="M7 8.5c0.82843 0 1.5 -0.67157 1.5 -1.5S7.82843 5.5 7 5.5 5.5 6.17157 5.5 7 6.17157 8.5 7 8.5Z" stroke-width="1"></path><path id="Vector_8" stroke="#000000" stroke-linecap="round" stroke-linejoin="round" d="M7 1v4.5" stroke-width="1"></path><path id="Vector_9" stroke="#000000" stroke-linecap="round" stroke-linejoin="round" d="M7 8.5V13" stroke-width="1"></path></g></svg>