<svg xmlns="http://www.w3.org/2000/svg" fill="none" viewBox="0 0 14 14"><g id="video-subtitles"><path id="Vector 1183" stroke="#000000" stroke-linecap="round" stroke-linejoin="round" d="M3 5.5h2" stroke-width="1"></path><path id="Vector 1186" stroke="#000000" stroke-linecap="round" stroke-linejoin="round" d="M6 8h2" stroke-width="1"></path><path id="Vector 1185" stroke="#000000" stroke-linecap="round" stroke-linejoin="round" d="M3 8h1" stroke-width="1"></path><path id="Vector 1187" stroke="#000000" stroke-linecap="round" stroke-linejoin="round" d="M10 8h1" stroke-width="1"></path><path id="Vector 1184" stroke="#000000" stroke-linecap="round" stroke-linejoin="round" d="M7 5.5h4" stroke-width="1"></path><path id="Vector" stroke="#000000" stroke-linecap="round" stroke-linejoin="round" d="M12 1H2c-0.26522 0 -0.51957 0.10536 -0.70711 0.29289C1.10536 1.48043 1 1.73478 1 2v8c0 0.2652 0.10536 0.5196 0.29289 0.7071C1.48043 10.8946 1.73478 11 2 11h1.5v2.5L6.62 11H12c0.2652 0 0.5196 -0.1054 0.7071 -0.2929S13 10.2652 13 10V2c0 -0.26522 -0.1054 -0.51957 -0.2929 -0.70711C12.5196 1.10536 12.2652 1 12 1Z" stroke-width="1"></path></g></svg>