<svg xmlns="http://www.w3.org/2000/svg" fill="none" viewBox="0 0 14 14"><g id="video-close-captioning"><path id="Vector" stroke="#000000" stroke-linecap="round" stroke-linejoin="round" d="M12 1H2c-0.26522 0 -0.51957 0.10536 -0.70711 0.29289C1.10536 1.48043 1 1.73478 1 2v8c0 0.2652 0.10536 0.5196 0.29289 0.7071C1.48043 10.8946 1.73478 11 2 11h1.5v2.5L6.62 11H12c0.2652 0 0.5196 -0.1054 0.7071 -0.2929S13 10.2652 13 10V2c0 -0.26522 -0.1054 -0.51957 -0.2929 -0.70711C12.5196 1.10536 12.2652 1 12 1Z" stroke-width="1"></path><path id="Vector 4449" stroke="#000000" stroke-linecap="round" stroke-linejoin="round" d="M6 4.75v0c0 -0.55228 -0.44772 -1 -1 -1h-0.5c-0.55228 0 -1 0.44772 -1 1v2.5c0 0.55228 0.44772 1 1 1H5c0.55228 0 1 -0.44772 1 -1v0" stroke-width="1"></path><path id="Vector 4450" stroke="#000000" stroke-linecap="round" stroke-linejoin="round" d="M10.5 4.75v0c0 -0.55228 -0.4477 -1 -1 -1H9c-0.55228 0 -1 0.44772 -1 1v2.5c0 0.55228 0.44772 1 1 1h0.5c0.5523 0 1 -0.44772 1 -1v0" stroke-width="1"></path></g></svg>