<svg xmlns="http://www.w3.org/2000/svg" fill="none" viewBox="0 0 14 14"><g id="video-camera--wireless-wifi-internet-server-network-smart-control-video-camera-connection"><path id="Vector" stroke="#000000" stroke-linecap="round" stroke-linejoin="round" d="M9.5 0.5c1.0609 0 2.0783 0.421427 2.8284 1.17157C13.0786 2.42172 13.5 3.43913 13.5 4.5" stroke-width="1"></path><path id="Vector_2" stroke="#000000" stroke-linecap="round" stroke-linejoin="round" d="M9.5 3c0.39782 0 0.7794 0.15804 1.0607 0.43934S11 4.10218 11 4.5" stroke-width="1"></path><path id="Vector_3" stroke="#000000" stroke-linecap="round" stroke-linejoin="round" d="M10.82 6.75 8.5 8V6.5c0 -0.26522 -0.10536 -0.51957 -0.29289 -0.70711C8.01957 5.60536 7.76522 5.5 7.5 5.5h-6c-0.26522 0 -0.51957 0.10536 -0.707107 0.29289C0.605357 5.98043 0.5 6.23478 0.5 6.5v6c0 0.2652 0.105357 0.5196 0.292893 0.7071 0.187537 0.1875 0.441887 0.2929 0.707107 0.2929h6c0.26522 0 0.51957 -0.1054 0.70711 -0.2929 0.18753 -0.1875 0.29289 -0.4419 0.29289 -0.7071V11l2.32 1.25c0.076 0.0293 0.1581 0.0397 0.239 0.03 0.0809 -0.0096 0.1583 -0.0388 0.2253 -0.0852 0.067 -0.0463 0.1217 -0.1083 0.1593 -0.1806 0.0376 -0.0723 0.057 -0.1527 0.0564 -0.2342V7.22c0.0006 -0.08149 -0.0188 -0.16188 -0.0564 -0.23419 -0.0376 -0.0723 -0.0923 -0.13432 -0.1593 -0.18065 -0.067 -0.04634 -0.1444 -0.07558 -0.2253 -0.0852 -0.0809 -0.00961 -0.163 0.0007 -0.239 0.03004Z" stroke-width="1"></path></g></svg>