<svg xmlns="http://www.w3.org/2000/svg" fill="none" viewBox="0 0 14 14"><g id="view-document-files"><path id="Vector" stroke="#000000" stroke-linecap="round" stroke-linejoin="round" d="M7.67234 10.408c0.32821 0.3332 0.32821 0.8508 0 1.184 -0.7282 0.7393 -2.09564 1.908 -3.46309 1.908 -1.36745 0 -2.73489 -1.1687 -3.463088 -1.908 -0.328216 -0.3332 -0.328216 -0.8508 0 -1.184C1.47436 9.66869 2.8418 8.5 4.20925 8.5c1.36745 0 2.73489 1.16869 3.46309 1.908Z" stroke-width="1"></path><path id="Vector_2" stroke="#000000" stroke-linecap="round" stroke-linejoin="round" d="M4.20923 11.5c0.27614 0 0.5 -0.2239 0.5 -0.5s-0.22386 -0.5 -0.5 -0.5 -0.5 0.2239 -0.5 0.5 0.22386 0.5 0.5 0.5Z" stroke-width="1"></path><path id="vector" stroke="#000000" stroke-linecap="round" stroke-linejoin="round" d="M2.5 6.59375V1.5c0 -0.26522 0.10536 -0.51957 0.29289 -0.707107C2.98043 0.605357 3.23478 0.5 3.5 0.5H10L13.5 4v8.5c0 0.2652 -0.1054 0.5196 -0.2929 0.7071s-0.4419 0.2929 -0.7071 0.2929H8.71875" stroke-width="1"></path></g></svg>