<svg xmlns="http://www.w3.org/2000/svg" fill="none" viewBox="0 0 14 14" stroke-width="1"><g id="virus--health-medical-covid19-flu-influenza-virus"><path id="Vector 2061" stroke="#000000" stroke-linecap="round" stroke-linejoin="round" d="M7 2.28125v1.67969"></path><path id="Ellipse 1000" stroke="#000000" stroke-linecap="round" stroke-linejoin="round" d="M3.969 7a3.031 3.031 0 1 0 6.062 0 3.031 3.031 0 1 0-6.062 0"></path><path id="Ellipse 1001" stroke="#000000" stroke-linecap="round" stroke-linejoin="round" d="M6.156 1.438a.844.844 0 1 0 1.688 0 .844.844 0 1 0-1.688 0"></path><path id="Vector 2387" stroke="#000000" stroke-linecap="round" stroke-linejoin="round" d="M7 11.7188v-1.6797"></path><path id="Ellipse 1002" stroke="#000000" stroke-linecap="round" stroke-linejoin="round" transform="rotate(-180 7 12.563)" d="M6.156 12.563a.844.844 0 1 0 1.688 0 .844.844 0 1 0-1.688 0"></path><path id="Vector 2388" stroke="#000000" stroke-linecap="round" stroke-linejoin="round" d="m11.7188 7-1.6797 0"></path><path id="Ellipse 1003" stroke="#000000" stroke-linecap="round" stroke-linejoin="round" transform="rotate(90 12.563 7)" d="M11.719 7a.844.844 0 1 0 1.688 0 .844.844 0 1 0-1.688 0"></path><path id="Vector 2389" stroke="#000000" stroke-linecap="round" stroke-linejoin="round" d="m2.28125 7 1.67969 0"></path><path id="Ellipse 1004" stroke="#000000" stroke-linecap="round" stroke-linejoin="round" transform="rotate(-90 1.438 7)" d="M.594 7a.844.844 0 1 0 1.688 0A.844.844 0 1 0 .594 7"></path><path id="Vector 2390" stroke="#000000" stroke-linecap="round" stroke-linejoin="round" d="M10.3364 3.66333 9.14871 4.85105"></path><path id="Ellipse 1005" stroke="#000000" stroke-linecap="round" stroke-linejoin="round" transform="rotate(45 10.933 3.067)" d="M10.089 3.067a.844.844 0 1 0 1.688 0 .844.844 0 1 0-1.688 0"></path><path id="Vector 2391" stroke="#000000" stroke-linecap="round" stroke-linejoin="round" d="m3.66357 10.3367 1.18772-1.18775"></path><path id="Ellipse 1006" stroke="#000000" stroke-linecap="round" stroke-linejoin="round" transform="rotate(-135 3.067 10.933)" d="M2.223 10.933a.844.844 0 1 0 1.688 0 .844.844 0 1 0-1.688 0"></path><path id="Vector 2392" stroke="#000000" stroke-linecap="round" stroke-linejoin="round" d="M10.3364 10.3367 9.14871 9.14895"></path><path id="Ellipse 1007" stroke="#000000" stroke-linecap="round" stroke-linejoin="round" transform="rotate(135 10.933 10.933)" d="M10.089 10.933a.844.844 0 1 0 1.688 0 .844.844 0 1 0-1.688 0"></path><path id="Vector 2393" stroke="#000000" stroke-linecap="round" stroke-linejoin="round" d="m3.66357 3.66333 1.18772 1.18772"></path><path id="Ellipse 1008" stroke="#000000" stroke-linecap="round" stroke-linejoin="round" transform="rotate(-45 3.067 3.067)" d="M2.223 3.067a.844.844 0 1 0 1.688 0 .844.844 0 1 0-1.688 0"></path></g></svg>