<svg xmlns="http://www.w3.org/2000/svg" fill="none" viewBox="0 0 14 14"><g id="voice-activation-1--secure-phone-identification-id-human-person-face-smartphone-scan-security"><path id="Ellipse 1931" stroke="#000000" stroke-linecap="round" stroke-linejoin="round" d="M11.3891 4.61096c2.1479 2.14789 2.1479 5.63034 0 7.77814" stroke-width="1"></path><path id="Ellipse 1932" stroke="#000000" stroke-linecap="round" stroke-linejoin="round" d="M9.26776 6.73218c0.97634 0.97631 0.97634 2.55922 0 3.53552" stroke-width="1"></path><path id="Vector 3712" stroke="#000000" stroke-linecap="round" stroke-linejoin="round" d="m4 1 2.19335 4.02115C6.55683 5.68752 6.07452 6.5 5.31546 6.5H4.5v2c0 0.55228 -0.44772 1 -1 1h-2V13" stroke-width="1"></path><g id="Group 4554"><path id="Ellipse 1929" stroke="#000000" stroke-linecap="round" stroke-linejoin="round" d="M2.25 3.5c-0.13807 0 -0.25 -0.11193 -0.25 -0.25S2.11193 3 2.25 3" stroke-width="1"></path><path id="Ellipse 1930" stroke="#000000" stroke-linecap="round" stroke-linejoin="round" d="M2.25 3.5c0.13807 0 0.25 -0.11193 0.25 -0.25S2.38807 3 2.25 3" stroke-width="1"></path></g></g></svg>