<svg xmlns="http://www.w3.org/2000/svg" fill="none" viewBox="0 0 14 14"><g id="voice-typing-word-convert"><path id="Vector 4289" stroke="#000000" stroke-linecap="round" stroke-linejoin="round" d="M7.5 5V3C7.5 1.61929 6.38071 0.5 5 0.5S2.5 1.61929 2.5 3v2c0 1.38071 1.11929 2.5 2.5 2.5S7.5 6.38071 7.5 5Z" stroke-width="1"></path><path id="Vector 4290" stroke="#000000" stroke-linecap="round" stroke-linejoin="round" d="M5 9.5v2" stroke-width="1"></path><path id="Vector 4291" stroke="#000000" stroke-linecap="round" stroke-linejoin="round" d="M0.5 6C0.5 7.933 2.067 9.5 4 9.5h2c0.34749 0 0.68315 -0.05064 1 -0.14494" stroke-width="1"></path><path id="Vector 1" stroke="#000000" stroke-linecap="round" stroke-linejoin="round" d="m9 13.5005 1.4184 -4.87588c0.1076 -0.3698 0.4465 -0.62413 0.8316 -0.62413v0c0.3851 0 0.724 0.25433 0.8316 0.62413L13.5 13.5005" stroke-width="1"></path><path id="Vector 379" stroke="#000000" stroke-linecap="round" stroke-linejoin="round" d="M9.58191 11.5H12.918" stroke-width="1"></path><path id="Vector 4292" stroke="#000000" stroke-linecap="round" stroke-linejoin="round" d="M10.5 4.5 12 6l1.5 -1.5" stroke-width="1"></path><path id="Vector 4293" stroke="#000000" stroke-linecap="round" stroke-linejoin="round" d="M12 6V3.5c0 -1.10457 -0.8954 -2 -2 -2h-0.5" stroke-width="1"></path></g></svg>