<svg xmlns="http://www.w3.org/2000/svg" fill="none" viewBox="0 0 14 14"><g id="voice-warning--voice-warning-alert-loud-peak"><path id="Vector" stroke="#000000" stroke-linecap="round" stroke-linejoin="round" d="M13.4253 12.61c0.049 0.0906 0.0747 0.192 0.0747 0.295 0 0.103 -0.0257 0.2044 -0.0747 0.295 -0.0461 0.0903 -0.1162 0.1661 -0.2027 0.2191 -0.0865 0.0529 -0.1859 0.0809 -0.2873 0.0809H7.06532c-0.10139 0 -0.20081 -0.028 -0.28729 -0.0809 -0.08647 -0.053 -0.15662 -0.1288 -0.20271 -0.2191 -0.04901 -0.0906 -0.07468 -0.192 -0.07468 -0.295 0 -0.103 0.02567 -0.2044 0.07468 -0.295l2.95 -5.31998c0.04053 -0.09935 0.10973 -0.18437 0.19879 -0.24423 0.08905 -0.05985 0.19391 -0.09181 0.30119 -0.09181 0.1073 0 0.2122 0.03196 0.3012 0.09181 0.0891 0.05986 0.1583 0.14488 0.1988 0.24423l2.9 5.31998Z" stroke-width="1"></path><path id="Vector_2" stroke="#000000" stroke-linecap="round" stroke-linejoin="round" d="M10.0053 10.4999V9.49988" stroke-width="1"></path><g id="Group 4488"><path id="Ellipse 81" stroke="#000000" stroke-linecap="round" stroke-linejoin="round" d="M10.0005 12.1252c-0.0691 0 -0.1251 -0.056 -0.1251 -0.1251s0.056 -0.1251 0.1251 -0.1251" stroke-width="1"></path><path id="Ellipse 82" stroke="#000000" stroke-linecap="round" stroke-linejoin="round" d="M10.0003 12.125c0.0691 0 0.1251 -0.056 0.1251 -0.125 0 -0.0691 -0.056 -0.1251 -0.1251 -0.1251" stroke-width="1"></path></g><path id="vector" stroke="#000000" stroke-linecap="round" stroke-linejoin="round" d="M3 0.5v9" stroke-width="1"></path><path id="vector_2" stroke="#000000" stroke-linecap="round" stroke-linejoin="round" d="M0.5 3v4" stroke-width="1"></path><path id="vector_3" stroke="#000000" stroke-linecap="round" stroke-linejoin="round" d="M8 0.5V5" stroke-width="1"></path><path id="vector_4" stroke="#000000" stroke-linecap="round" stroke-linejoin="round" d="M5.5 3v4" stroke-width="1"></path></g></svg>