<svg xmlns="http://www.w3.org/2000/svg" fill="none" viewBox="0 0 14 14"><g id="volume-setting--volume-speaker-up-control-music-setting-audio-cog-entertainment"><path id="Vector" stroke="#000000" stroke-linecap="round" stroke-linejoin="round" d="M10.386 6.44788v1.5" stroke-width="1"></path><path id="Vector_2" stroke="#000000" stroke-linecap="round" stroke-linejoin="round" d="m7.35596 8.19788 1.3 0.75" stroke-width="1"></path><path id="Vector_3" stroke="#000000" stroke-linecap="round" stroke-linejoin="round" d="m7.35596 11.6979 1.3 -0.75" stroke-width="1"></path><path id="Vector_4" stroke="#000000" stroke-linecap="round" stroke-linejoin="round" d="M10.386 13.4479v-1.5" stroke-width="1"></path><path id="Vector_5" stroke="#000000" stroke-linecap="round" stroke-linejoin="round" d="m13.416 11.6979 -1.3 -0.75" stroke-width="1"></path><path id="Vector_6" stroke="#000000" stroke-linecap="round" stroke-linejoin="round" d="m13.416 8.19788 -1.3 0.75" stroke-width="1"></path><path id="Vector_7" stroke="#000000" stroke-linecap="round" stroke-linejoin="round" d="M10.386 11.9479c1.1046 0 2 -0.8955 2 -2.00002 0 -1.10457 -0.8954 -2 -2 -2 -1.10458 0 -2.00001 0.89543 -2.00001 2 0 1.10452 0.89543 2.00002 2.00001 2.00002Z" stroke-width="1"></path><path id="Vector_8" stroke="#000000" stroke-linecap="round" stroke-linejoin="round" d="M8.5 5.89154v-4c0.01874 -0.78684 -0.8529 -1.257733 -1.5 -0.81L3 3.89156H1.5c-0.544667 0 -1 0.45533 -1 1v2c0 0.54466 0.455333 1 1 1H3l3.08951 2.22034" stroke-width="1"></path></g></svg>