<svg xmlns="http://www.w3.org/2000/svg" fill="none" viewBox="0 0 14 14"><g id="volume-warning--volume-speaker-up-control-music-warning-audio-entertainment"><path id="Vector 494" stroke="#000000" stroke-linecap="round" stroke-linejoin="round" d="m11.5 4 0 3" stroke-width="1"></path><path id="Vector" stroke="#000000" stroke-linecap="round" stroke-linejoin="round" d="M3 5.00002H1.5c-0.544667 0 -1 0.45533 -1 1v2c0 0.54466 0.455333 1 1 1H3L6.91 11.81c0.6453 0.4465 1.57254 -0.0236 1.59 -0.81V3c0.01874 -0.78684 -0.8529 -1.25773 -1.5 -0.81L3 5.00002Z" stroke-width="1"></path><g id="Group 4504"><path id="Ellipse 1023" stroke="#000000" stroke-linecap="round" stroke-linejoin="round" d="M11.5 9.5c-0.1381 0 -0.25 -0.11193 -0.25 -0.25s0.1119 -0.25 0.25 -0.25" stroke-width="1"></path><path id="Ellipse 1024" stroke="#000000" stroke-linecap="round" stroke-linejoin="round" d="M11.5 9.5c0.1381 0 0.25 -0.11193 0.25 -0.25S11.6381 9 11.5 9" stroke-width="1"></path></g></g></svg>