<svg xmlns="http://www.w3.org/2000/svg" fill="none" viewBox="0 0 14 14"><g id="watch-circle-disable--watch-circle-disable-device-timepiece-deny-cross"><path id="Vector" stroke="#000000" stroke-linecap="round" stroke-linejoin="round" d="M9.5 3.25V1.5c0 -0.26522 -0.10536 -0.51957 -0.29289 -0.707107C9.01957 0.605357 8.76522 0.5 8.5 0.5h-3c-0.26522 0 -0.51957 0.105357 -0.70711 0.292893C4.60536 0.98043 4.5 1.23478 4.5 1.5v1.75" stroke-width="1"></path><path id="Vector_2" stroke="#000000" stroke-linecap="round" stroke-linejoin="round" d="M10.1818 10.182c0.8144 -0.81436 1.3181 -1.93936 1.3181 -3.182 0 -2.48528 -2.01477 -4.5 -4.50005 -4.5 -1.24264 0 -2.36764 0.50368 -3.18198 1.31802" stroke-width="1"></path><path id="Vector_3" stroke="#000000" stroke-linecap="round" stroke-linejoin="round" d="M8.3072 11.3071c-0.41369 0.1254 -0.85257 0.1928 -1.3072 0.1928 -2.48528 0 -4.5 -2.01467 -4.5 -4.49995 0 -0.45463 0.06742 -0.89352 0.1928 -1.3072" stroke-width="1"></path><path id="Vector 1859" stroke="#000000" stroke-linecap="round" stroke-linejoin="round" d="m0.5 0.5 13 13" stroke-width="1"></path><path id="Vector_4" stroke="#000000" stroke-linecap="round" stroke-linejoin="round" d="M9.5 12.5c0 0.2652 -0.10536 0.5196 -0.29289 0.7071 -0.18754 0.1875 -0.44189 0.2929 -0.70711 0.2929h-3c-0.26522 0 -0.51957 -0.1054 -0.70711 -0.2929C4.60536 13.0196 4.5 12.7652 4.5 12.5v-1.7656" stroke-width="1"></path></g></svg>