<svg xmlns="http://www.w3.org/2000/svg" fill="none" viewBox="0 0 14 14"><g id="water-drop-1--nature-convserve-save-water-liquid-protect"><path id="Ellipse 1672" stroke="#000000" stroke-linecap="round" stroke-linejoin="round" d="M9.5 8c0 1.38071 -1.11929 2.5 -2.5 2.5S4.5 9.38071 4.5 8C4.5 6.5 7 3.5 7 3.5S9.5 6.37427 9.5 8Z" stroke-width="1"></path><path id="Ellipse 1668" stroke="#000000" stroke-linecap="round" stroke-linejoin="round" d="M13.5 7C13.5 3.41015 10.5899 0.5 7 0.5 3.41015 0.5 0.5 3.41015 0.5 7" stroke-width="1"></path><path id="Ellipse 1669" stroke="#000000" stroke-linecap="round" stroke-linejoin="round" d="M5.5 13.326c0.48152 0.1138 0.98373 0.174 1.5 0.174s1.01848 -0.0602 1.5 -0.174" stroke-width="1"></path><path id="Ellipse 1670" stroke="#000000" stroke-linecap="round" stroke-linejoin="round" d="M1 9.50439C1.40747 10.4795 2.04569 11.3341 2.84643 12" stroke-width="1"></path><path id="Ellipse 1671" stroke="#000000" stroke-linecap="round" stroke-linejoin="round" d="M13 9.50439c-0.4075 0.97511 -1.0457 1.82971 -1.8464 2.49561" stroke-width="1"></path></g></svg>