<svg xmlns="http://www.w3.org/2000/svg" fill="none" viewBox="0 0 14 14"><g id="waxing-gibbous-moon--night-waxing-moon-gibbous-time-weather"><path id="Vector" stroke="#000000" stroke-linecap="round" stroke-linejoin="round" d="M12 7c0 1.72391 -0.6848 3.3772 -1.9038 4.5962C8.87722 12.8152 7.22392 13.5 5.50001 13.5c-0.39918 -0.0005 -0.79749 -0.0373 -1.19 -0.11C2.81854 11.5946 2.00208 9.33407 2.00208 7c0 -2.33407 0.81646 -4.59462 2.30793 -6.39 0.39251 -0.072687 0.79082 -0.109506 1.19 -0.11 0.85359 0 1.69882 0.168127 2.48744 0.494783 0.78862 0.326657 1.50517 0.805447 2.10875 1.409027 0.6036 0.60358 1.0824 1.32013 1.409 2.10875C11.8319 5.30117 12 6.14641 12 7Z" stroke-width="1"></path></g></svg>