<svg xmlns="http://www.w3.org/2000/svg" fill="none" viewBox="0 0 14 14"><g id="waxing-cresent-moon--night-new-moon-crescent-waxing-time-weather"><path id="Vector" stroke="#000000" stroke-linecap="round" stroke-linejoin="round" d="M6 7c-0.00779 -1.21528 -0.33183 -2.40759 -0.94026 -3.45962C4.45131 2.48834 3.57947 1.61283 2.53 1 3.31343 0.675752 4.15214 0.505972 5 0.5c1.72391 0 3.37721 0.68482 4.59619 1.90381C10.8152 3.62279 11.5 5.27609 11.5 7s-0.6848 3.3772 -1.90381 4.5962C8.37721 12.8152 6.72391 13.5 5 13.5c-0.84786 -0.006 -1.68657 -0.1758 -2.47 -0.5 1.04947 -0.6128 1.92131 -1.4883 2.52974 -2.5404C5.66817 9.40759 5.99221 8.21528 6 7v0Z" stroke-width="1"></path></g></svg>