<svg xmlns="http://www.w3.org/2000/svg" fill="none" viewBox="0 0 14 14"><g id="web-hierarchy--web-hierarchy-dropdown-menu"><path id="Vector 2256" stroke="#000000" stroke-linecap="round" stroke-linejoin="round" d="M11.5 8.5 7 8.5c-0.55228 0 -1 -0.44772 -1 -1l0 -1c0 -0.55228 0.44772 -1 1 -1l4.5 0c0.5523 0 1 0.44771 1 1l0 1c0 0.55228 -0.4477 1 -1 1Z" stroke-width="1"></path><path id="Vector 2266" stroke="#000000" stroke-linecap="round" stroke-linejoin="round" d="M11.5 3.5 7 3.5c-0.55228 0 -1 -0.44772 -1 -1l0 -1c0 -0.552285 0.44772 -1 1 -1l4.5 0c0.5523 0 1 0.447715 1 1l0 1c0 0.55228 -0.4477 1 -1 1Z" stroke-width="1"></path><path id="Vector 2257" stroke="#000000" stroke-linecap="round" stroke-linejoin="round" d="m11.5 13.5 -4.5 0c-0.55228 0 -1 -0.4477 -1 -1l0 -1c0 -0.5523 0.44772 -1 1 -1l4.5 0c0.5523 0 1 0.4477 1 1l0 1c0 0.5523 -0.4477 1 -1 1Z" stroke-width="1"></path><path id="Vector 2265" stroke="#000000" stroke-linecap="round" stroke-linejoin="round" d="M1.5 7H6" stroke-width="1"></path><path id="Vector 3015" stroke="#000000" stroke-linecap="round" stroke-linejoin="round" d="M1.5 2H6" stroke-width="1"></path><path id="Vector 3014" stroke="#000000" stroke-linecap="round" stroke-linejoin="round" d="M6 12H2.5c-0.55228 0 -1 -0.4477 -1 -1V0.5" stroke-width="1"></path></g></svg>