<svg xmlns="http://www.w3.org/2000/svg" fill="none" viewBox="0 0 14 14"><g id="webcam-video-square--work-video-meeting-camera-company-conference-office"><path id="Vector" stroke="#000000" stroke-linecap="round" stroke-linejoin="round" d="M12 1H2c-0.55228 0 -1 0.44772 -1 1v10c0 0.5523 0.44772 1 1 1h10c0.5523 0 1 -0.4477 1 -1V2c0 -0.55228 -0.4477 -1 -1 -1Z" stroke-width="1"></path><path id="Vector_2" stroke="#000000" stroke-linecap="round" stroke-linejoin="round" d="m10.1338 5.24995 -1.51842 0.67308v-0.94231c0 -0.14281 -0.05673 -0.27977 -0.15771 -0.38075 -0.10098 -0.10098 -0.23794 -0.15771 -0.38075 -0.15771H4.03846c-0.14281 0 -0.27977 0.05673 -0.38075 0.15771 -0.10098 0.10098 -0.15771 0.23794 -0.15771 0.38075v4.03846c0 0.14281 0.05673 0.27977 0.15771 0.38075 0.10098 0.10098 0.23794 0.15771 0.38075 0.15771h4.03846c0.14281 0 0.27977 -0.05673 0.38075 -0.15771 0.10098 -0.10098 0.15771 -0.23794 0.15771 -0.38075v-0.94231l1.51842 0.67308c0.1742 0.0672 0.3662 -0.07572 0.3662 -0.25308V5.50303c0 -0.18787 -0.1893 -0.33301 -0.3662 -0.25308Z" stroke-width="1"></path></g></svg>