<svg xmlns="http://www.w3.org/2000/svg" fill="none" viewBox="0 0 14 14"><g id="webcam-off--webcam-camera-future-tech-chat-skype-technology-video-off"><path id="Vector" stroke="#000000" stroke-linecap="round" stroke-linejoin="round" d="M2.51379 2.51572C3.61285 1.2791 5.21545 0.5 7.00002 0.5 10.3137 0.5 13 3.18629 13 6.5c0 1.78364 -0.7783 3.3855 -2.0138 4.4845" stroke-width="1"></path><path id="Vector_2" stroke="#000000" stroke-linecap="round" stroke-linejoin="round" d="M1.40164 4.33716C1.14224 5.00815 1 5.73745 1 6.49998 1 9.81369 3.68629 12.5 7 12.5c0.73217 0 1.43371 -0.1312 2.08241 -0.3712" stroke-width="1"></path><path id="Vector_3" stroke="#000000" stroke-linecap="round" stroke-linejoin="round" d="M1.44995 13.4999c0.69202 -0.7749 1.5368 -1.3948 2.48 -1.8198" stroke-width="1"></path><path id="Vector 1859" stroke="#000000" stroke-linecap="round" stroke-linejoin="round" d="m0.5 0.5 13 13" stroke-width="1"></path><path id="Vector_4" stroke="#000000" stroke-linecap="round" stroke-linejoin="round" d="M4.64807 4.6374C5.1976 3.94445 6.04688 3.5 6.99997 3.5c1.65685 0 3 1.34315 3 3 0 0.95739 -0.44847 1.81003 -1.14679 2.35931" stroke-width="1"></path><path id="Vector_5" stroke="#000000" stroke-linecap="round" stroke-linejoin="round" d="M4.04749 7.03479c0.22477 1.24933 1.22307 2.23001 2.48134 2.42848" stroke-width="1"></path></g></svg>