<svg xmlns="http://www.w3.org/2000/svg" fill="none" viewBox="0 0 14 14"><g id="webhook"><path id="ellipse 172" stroke="#000000" stroke-linecap="round" stroke-linejoin="round" d="M9.15468 3.5167C9.15468 2.12676 8.02738 1 6.63678 1c-1.39059 0 -2.5179 1.12676 -2.5179 2.5167 0 0.94254 0.51839 1.76406 1.28574 2.19527l-2.0699 4.21206" stroke-width="1"></path><path id="ellipse 174" stroke="#000000" stroke-linecap="round" stroke-linejoin="round" d="M9.72276 12.6234c1.20434 0.695 2.74424 0.2825 3.43954 -0.9212s0.2827 -2.74289 -0.9216 -3.43786c-0.8167 -0.47127 -1.7877 -0.43331 -2.54498 0.01531L7.08118 4.38189" stroke-width="1"></path><path id="ellipse 173" stroke="#000000" stroke-linecap="round" stroke-linejoin="round" d="M1.90414 8.22132C0.657139 8.83645 0.14514 10.3455 0.760561 11.5919c0.615419 1.2464 2.125219 1.7582 3.372219 1.1431 0.84562 -0.4172 1.35325 -1.2454 1.40052 -2.124l4.695 -0.0088" stroke-width="1"></path></g></svg>