<svg xmlns="http://www.w3.org/2000/svg" fill="none" viewBox="0 0 14 14"><g id="wheelchair-2--person-access-wheelchair-accomodation-human-disability-disabled-user"><path id="Ellipse 1987" stroke="#000000" stroke-linecap="round" stroke-linejoin="round" d="M7.5 2.5a2 2 0 1 0 4 0 2 2 0 1 0 -4 0" stroke-width="1"></path><path id="Vector 4969" stroke="#000000" stroke-linecap="round" stroke-linejoin="round" d="m12.5 13.5 -2 -4.49999H7.67422c-0.75668 0 -1.23921 -0.80787 -0.88047 -1.4741l1.75787 -3.26462" stroke-width="1"></path><path id="Ellipse 1986" stroke="#000000" stroke-linecap="round" stroke-linejoin="round" d="M8.16318 11.5c-0.56173 1.1825 -1.76698 2 -3.16318 2 -1.933 0 -3.5 -1.567 -3.5 -3.5 0 -1.27316 0.67981 -2.38756 1.69624 -3" stroke-width="1"></path><path id="Vector 4970" stroke="#000000" stroke-linecap="round" stroke-linejoin="round" d="m3.5 5.5 0.73422 -0.73422c0.72061 -0.72061 1.86782 -0.78415 2.6636 -0.14752l1.02153 0.81722" stroke-width="1"></path></g></svg>