<svg xmlns="http://www.w3.org/2000/svg" fill="none" viewBox="0 0 14 14"><g id="whistle--sport-payment-whistle-loud-attention"><path id="Vector" stroke="#000000" stroke-linecap="round" stroke-linejoin="round" d="M9 4.5H1c-0.132608 0 -0.259785 0.05268 -0.353553 0.14645C0.552678 4.74021 0.5 4.86739 0.5 5v3.06c0.001548 0.12111 0.047009 0.23755 0.127935 0.32767S0.81975 8.53548 0.94 8.55L4.5 9c0 0.89002 0.26392 1.76 0.75839 2.5001 0.49446 0.74 1.19727 1.3168 2.01953 1.6574 0.82227 0.3406 1.72707 0.4297 2.59999 0.256 0.87289 -0.1736 1.67469 -0.6022 2.30409 -1.2315 0.6293 -0.6294 1.0579 -1.4312 1.2315 -2.30409 0.1737 -0.87292 0.0846 -1.77772 -0.256 -2.59999 -0.3406 -0.82226 -0.9174 -1.52507 -1.6574 -2.01953C10.76 4.76392 9.89002 4.5 9 4.5Z" stroke-width="1"></path><path id="Vector_2" stroke="#000000" stroke-linecap="round" stroke-linejoin="round" d="M9 10.5c0.82843 0 1.5 -0.67157 1.5 -1.5S9.82843 7.5 9 7.5 7.5 8.17157 7.5 9s0.67157 1.5 1.5 1.5Z" stroke-width="1"></path><path id="Vector_3" stroke="#000000" stroke-linecap="round" stroke-linejoin="round" d="M5.5 0.5V2" stroke-width="1"></path><path id="Vector_4" stroke="#000000" stroke-linecap="round" stroke-linejoin="round" d="m7.5 2.5 1.25 -1.25" stroke-width="1"></path><path id="Vector_5" stroke="#000000" stroke-linecap="round" stroke-linejoin="round" d="M3.5 2.5 2.25 1.25" stroke-width="1"></path></g></svg>