<svg xmlns="http://www.w3.org/2000/svg" fill="none" viewBox="0 0 14 14"><g id="wind-energy--wind-energy-air-flow-power-elecctricity-renewable-clean"><path id="Vector 2991" stroke="#000000" stroke-linecap="round" stroke-linejoin="round" d="M5.4994 0.586182C2.6327 1.26335 0.499405 3.83867 0.499405 6.91225" stroke-width="1"></path><path id="Vector 2993" stroke="#000000" stroke-linecap="round" stroke-linejoin="round" d="M10.2493 12.5418c-2.6618 1.5368 -5.95874 0.977 -7.97853 -1.167" stroke-width="1"></path><path id="Vector 2992" stroke="#000000" stroke-linecap="round" stroke-linejoin="round" d="M10.2495 1.28308c2.6618 1.53679 3.8255 4.67195 2.9785 7.49316" stroke-width="1"></path><path id="Vector" stroke="#000000" stroke-linecap="round" stroke-linejoin="round" d="M5.4994 0.586304V6.04636L3.36886 7.27644c-1.43488 0.82842 -1.92651 2.6632 -1.09808 4.09806L6.9994 8.64444l2.13055 1.23007c1.43485 0.82839 3.26965 0.33679 4.09805 -1.09807L8.4994 6.04636V3.5863c0 -1.65685 -1.34314 -2.999996 -3 -2.999996Z" stroke-width="1"></path><path id="Ellipse 1618" stroke="#000000" stroke-linecap="round" stroke-linejoin="round" d="M5.499 6.913a1.5 1.5 0 1 0 3 0 1.5 1.5 0 1 0 -3 0" stroke-width="1"></path></g></svg>