<svg xmlns="http://www.w3.org/2000/svg" fill="none" viewBox="0 0 14 14"><g id="wind-flow-3--wind-flow-weather"><path id="Ellipse 1906" stroke="#000000" stroke-linecap="round" stroke-linejoin="round" d="M3 2.45094C3.63526 1.24701 4.52066 0.5 5.5 0.5 7.433 0.5 9 3.41015 9 7c0 3.5899 -1.567 6.5 -3.5 6.5 -0.97934 0 -1.86474 -0.747 -2.5 -1.9509" stroke-width="1"></path><path id="Vector" stroke="#000000" stroke-linecap="round" stroke-linejoin="round" d="M11.07 5.82c0.8395 -0.17658 1.6552 -0.45182 2.43 -0.82l-2 -1" stroke-width="1"></path><path id="Vector_2" stroke="#000000" stroke-linecap="round" stroke-linejoin="round" d="M0.5 5.5c1.25268 -0.59848 2.61305 -0.93858 4 -1 0.69633 0.01002 1.38088 0.18116 2 0.5" stroke-width="1"></path><path id="Vector_3" stroke="#000000" stroke-linecap="round" stroke-linejoin="round" d="M11.07 9.63982c0.8395 -0.17657 1.6552 -0.45182 2.43 -0.82l-2 -1" stroke-width="1"></path><path id="Vector_4" stroke="#000000" stroke-linecap="round" stroke-linejoin="round" d="M0.5 9.31982c1.25268 -0.59848 2.61305 -0.93857 4 -1 0.69713 0.01312 1.38172 0.18769 2 0.51" stroke-width="1"></path></g></svg>