<svg width="14" height="14" viewBox="0 0 14 14" fill="none" xmlns="http://www.w3.org/2000/svg">
<path d="M0.94 2.00002L12.94 0.62002C13.01 0.609918 13.0813 0.615073 13.1491 0.635132C13.2169 0.655191 13.2795 0.689678 13.3327 0.736228C13.3859 0.782777 13.4284 0.840286 13.4573 0.904807C13.4861 0.969328 13.5007 1.03933 13.5 1.11002V12.93C13.4995 13.0021 13.4834 13.0733 13.4528 13.1386C13.4222 13.2039 13.3778 13.2619 13.3227 13.3084C13.2676 13.355 13.2031 13.389 13.1336 13.4083C13.0641 13.4276 12.9912 13.4316 12.92 13.42L0.92 11.58C0.802564 11.559 0.696225 11.4974 0.619487 11.4061C0.542748 11.3147 0.500467 11.1993 0.5 11.08V2.46002C0.50849 2.34417 0.557051 2.2349 0.637342 2.15096C0.717633 2.06701 0.824644 2.01365 0.94 2.00002Z" stroke="#01040B" stroke-linecap="round" stroke-linejoin="round"/>
<path d="M6 1.37988V12.3599" stroke="#01040B" stroke-linecap="round" stroke-linejoin="round"/>
<path d="M13.5 6.76001H0.5" stroke="#01040B" stroke-linecap="round" stroke-linejoin="round"/>
</svg>
