<svg xmlns="http://www.w3.org/2000/svg" fill="none" viewBox="0 0 14 14"><g id="wishlist--wishlist-heart-list-note-necessities"><path id="Vector" stroke="#000000" stroke-linecap="round" stroke-linejoin="round" d="M10.5 5.5v-4c0 -0.552285 -0.4477 -1 -1 -1h-8C1.23478 0.5 0.98043 0.605357 0.792893 0.792893 0.605357 0.98043 0.5 1.23478 0.5 1.5v10c0 0.2652 0.105357 0.5196 0.292893 0.7071 0.187537 0.1875 0.441887 0.2929 0.707107 0.2929h4" stroke-width="1"></path><path id="Vector_2" stroke="#000000" stroke-linecap="round" stroke-linejoin="round" d="M3 3.5h5" stroke-width="1"></path><path id="Vector_3" stroke="#000000" stroke-linecap="round" stroke-linejoin="round" d="M3 6h3" stroke-width="1"></path><path id="Vector_4" stroke="#000000" stroke-linecap="round" stroke-linejoin="round" d="m9.93936 13.5001 -3 -2.78c-1.68 -1.64 0.74 -4.81999 3 -2.25999 2.26004 -2.56 4.68004 0.61999 3.00004 2.25999l-3.00004 2.78Z" stroke-width="1"></path></g></svg>