<svg xmlns="http://www.w3.org/2000/svg" fill="none" viewBox="0 0 14 14"><g id="won-circle--won-circle-korean-exchange-payment-forex-finance-foreign-currency"><path id="Vector" stroke="#000000" stroke-linecap="round" stroke-linejoin="round" d="M7 13.5c3.5899 0 6.5 -2.9101 6.5 -6.5C13.5 3.41015 10.5899 0.5 7 0.5 3.41015 0.5 0.5 3.41015 0.5 7c0 3.5899 2.91015 6.5 6.5 6.5Z" stroke-width="1"></path><path id="Vector 3357" stroke="#000000" stroke-linecap="round" stroke-linejoin="round" d="m3 4.25 1.50028 5.62605c0.0588 0.22055 0.25852 0.37395 0.48674 0.37395v0c0.24013 0 0.44688 -0.1695 0.49397 -0.40496l1.04056 -5.20281C6.56717 4.41417 6.76742 4.25 7 4.25v0c0.23258 0 0.43283 0.16417 0.47845 0.39223l1.04056 5.20281c0.04709 0.23546 0.25384 0.40496 0.49397 0.40496v0c0.22822 0 0.42794 -0.1534 0.48674 -0.37395L11 4.25" stroke-width="1"></path><path id="Vector 3358" stroke="#000000" stroke-linecap="round" stroke-linejoin="round" d="M2.75 7.25h8.5" stroke-width="1"></path></g></svg>