<svg xmlns="http://www.w3.org/2000/svg" fill="none" viewBox="0 0 14 14"><g id="work-organization--work-organization-human-resources"><path id="Vector" stroke="#000000" stroke-linecap="round" stroke-linejoin="round" d="M5.4987 2.00195c0 0.82951 0.67245 1.50196 1.50196 1.50196 0.2097 0 0.40937 -0.04298 0.59067 -0.12061 0.53585 -0.22943 0.91128 -0.76154 0.91128 -1.38135C8.50261 1.17245 7.83016 0.5 7.00066 0.5c-0.82951 0 -1.50196 0.67245 -1.50196 1.50195Z" stroke-width="1"></path><path id="Vector_2" stroke="#000000" stroke-linecap="round" stroke-linejoin="round" d="M10.5979 12.0713c0 0.789 0.6397 1.4287 1.4287 1.4287 0.1995 0 0.3894 -0.0409 0.5619 -0.1147 0.5097 -0.2183 0.8668 -0.7244 0.8668 -1.314 0 -0.7891 -0.6396 -1.4288 -1.4287 -1.4288 -0.789 0 -1.4287 0.6397 -1.4287 1.4288Z" stroke-width="1"></path><path id="Vector_3" stroke="#000000" stroke-linecap="round" stroke-linejoin="round" d="M5.57092 12.0713c0 0.789 0.63966 1.4287 1.42872 1.4287 0.19948 0 0.38941 -0.0409 0.56187 -0.1147 0.50973 -0.2183 0.86685 -0.7244 0.86685 -1.314 0 -0.7891 -0.63966 -1.4288 -1.42872 -1.4288s-1.42872 0.6397 -1.42872 1.4288Z" stroke-width="1"></path><path id="Vector_4" stroke="#000000" stroke-linecap="round" stroke-linejoin="round" d="M0.543945 12.0713c0 0.789 0.639665 1.4287 1.428725 1.4287 0.19948 0 0.38941 -0.0409 0.56187 -0.1147 0.50973 -0.2183 0.86685 -0.7244 0.86685 -1.314 0 -0.7891 -0.63966 -1.4288 -1.42872 -1.4288s-1.428725 0.6397 -1.428725 1.4288Z" stroke-width="1"></path><path id="Ellipse 53" stroke="#000000" stroke-linecap="round" stroke-linejoin="round" d="M9.8944 6.50237c-0.1257 -1.48768 -1.37303 -2.6559 -2.89321 -2.6559 -1.52018 0 -2.76751 1.16822 -2.8932 2.6559" stroke-width="1"></path><path id="Vector_5" stroke="#000000" stroke-linecap="round" stroke-linejoin="round" stroke-miterlimit="10" d="M1.97349 10.6426V8.49749H12.0274v2.14511" stroke-width="1"></path><path id="Vector_6" stroke="#000000" stroke-linecap="round" stroke-linejoin="round" stroke-miterlimit="10" d="M7.00047 8.90839v1.73411" stroke-width="1"></path></g></svg>