<svg xmlns="http://www.w3.org/2000/svg" fill="none" viewBox="0 0 14 14"><g id="world-home--nature-house-earth-globe-planet"><path id="Vector" stroke="#000000" stroke-linecap="round" stroke-linejoin="round" d="M13.5 7c0 1.72391 -0.6848 3.3772 -1.9038 4.5962C10.3772 12.8152 8.72391 13.5 7 13.5c-1.72391 0 -3.37721 -0.6848 -4.59619 -1.9038C1.18482 10.3772 0.5 8.72391 0.5 7h13Z" stroke-width="1"></path><path id="Vector_2" stroke="#000000" stroke-linecap="round" stroke-linejoin="round" d="M1 9.5h1.75c0.46413 0 0.90925 -0.18437 1.23744 -0.51256C4.31563 8.65925 4.5 8.21413 4.5 7.75V7" stroke-width="1"></path><path id="Vector_3" stroke="#000000" stroke-linecap="round" stroke-linejoin="round" d="M11 12.12v-0.87c0 -0.3315 -0.1317 -0.6495 -0.3661 -0.8839C10.3995 10.1317 10.0815 10 9.75 10c-0.46413 0 -0.90925 -0.18437 -1.23744 -0.51256C8.18437 9.15925 8 8.71413 8 8.25V7" stroke-width="1"></path><path id="Vector_4" stroke="#000000" stroke-linecap="round" stroke-linejoin="round" d="M3 4 7 0.5 11 4" stroke-width="1"></path><path id="Vector_5" stroke="#000000" stroke-linecap="round" stroke-linejoin="round" d="M4.5 2.69V7" stroke-width="1"></path><path id="Vector_6" stroke="#000000" stroke-linecap="round" stroke-linejoin="round" d="M9.5 2.69V7" stroke-width="1"></path></g></svg>