<svg xmlns="http://www.w3.org/2000/svg" fill="none" viewBox="0 0 14 14"><g id="wrench--crescent-tool-construction-tools-wrench-setting-edit-adjust"><path id="Union" stroke="#000000" stroke-linecap="round" stroke-linejoin="round" d="M13.4096 3.59641c-0.0193 -0.1048 -0.0605 -0.20436 -0.1208 -0.29222 -0.0603 -0.08786 -0.1384 -0.16206 -0.2292 -0.21778l-2 2c-0.0933 0.09678 -0.2051 0.17376 -0.3289 0.22634 -0.1237 0.05258 -0.2567 0.07968 -0.3911 0.07968 -0.1344 0 -0.2675 -0.0271 -0.39119 -0.07968 -0.12371 -0.05258 -0.23555 -0.12956 -0.32883 -0.22634l-0.76 -0.68c-0.18323 -0.18693 -0.28586 -0.43825 -0.28586 -0.7s0.10263 -0.51307 0.28586 -0.7l2.00002 -2c-0.0436 -0.102465 -0.1092 -0.194091 -0.1922 -0.268397 -0.0829 -0.074305 -0.1812 -0.129475 -0.2878 -0.161605 -0.69784 -0.13916 -1.42072 -0.079592 -2.08636 0.171923 -0.66563 0.251515 -1.24727 0.684869 -1.6787 1.250729 -0.43142 0.56586 -0.6953 1.24148 -0.7616 1.94995 -0.06209 0.66366 0.05153 1.33117 0.32834 1.9358L0.814577 11.2515c-0.396169 0.3962 -0.389599 1.0405 0.014567 1.4285l0.560776 0.5384c0.39115 0.3755 1.0103 0.3708 1.39579 -0.0105l5.42832 -5.36953c0.58713 0.24247 1.22667 0.3347 1.86037 0.26676 0.7008 -0.07512 1.367 -0.34313 1.9245 -0.77424 0.5575 -0.4311 0.9845 -1.0084 1.2336 -1.66769 0.249 -0.65929 0.3103 -1.37474 0.1771 -2.06679Z" stroke-width="1"></path></g></svg>