<svg xmlns="http://www.w3.org/2000/svg" fill="none" viewBox="0 0 14 14"><g id="youtube-gaming--youtube-gaming-entertainment"><path id="Vector 737" stroke="#000000" stroke-linecap="round" stroke-linejoin="round" d="M3.75 1.76587 7 3.62301l3.25 -1.85714 3.25 1.85714v4.89696L7 12.2343 0.5 8.51997V3.62301l3.25 -1.85714Z" stroke-width="1"></path><path id="Vector 738" stroke="#000000" stroke-linecap="round" stroke-linejoin="round" d="M4.21634 5.2019v1.39286m0 0v1.39286m0 -1.39286H2.82349m1.39285 0H5.6092" stroke-width="1"></path><g id="Group 4515"><path id="Ellipse 1028" stroke="#000000" stroke-linecap="round" stroke-linejoin="round" d="M9.33069 7.0376c-0.13807 0 -0.25 -0.11193 -0.25 -0.25s0.11193 -0.25 0.25 -0.25" stroke-width="1"></path><path id="Ellipse 1029" stroke="#000000" stroke-linecap="round" stroke-linejoin="round" d="M9.33069 7.0376c0.13807 0 0.25 -0.11193 0.25 -0.25s-0.11193 -0.25 -0.25 -0.25" stroke-width="1"></path></g><g id="Group 4518"><path id="Ellipse 1028_2" stroke="#000000" stroke-linecap="round" stroke-linejoin="round" d="M10.9988 5.64429c-0.1381 0 -0.25 -0.11193 -0.25 -0.25s0.1119 -0.25 0.25 -0.25" stroke-width="1"></path><path id="Ellipse 1029_2" stroke="#000000" stroke-linecap="round" stroke-linejoin="round" d="M10.9988 5.64429c0.1381 0 0.25 -0.11193 0.25 -0.25s-0.1119 -0.25 -0.25 -0.25" stroke-width="1"></path></g></g></svg>