<svg xmlns="http://www.w3.org/2000/svg" fill="none" viewBox="0 0 14 14"><g id="youtube--youtube-clip-social-video"><path id="Vector" stroke="#000000" stroke-linecap="round" stroke-linejoin="round" d="M5.31023 9.31998v-4.2c-0.00209 -0.07091 0.0152 -0.14104 0.05001 -0.20285 0.03481 -0.06181 0.08583 -0.11296 0.14754 -0.14793 0.06172 -0.03498 0.13181 -0.05245 0.20272 -0.05055 0.07092 0.0019 0.13997 0.0231 0.19973 0.06133l3.6 2.1c0.06015 0.03529 0.11003 0.0857 0.14468 0.14622 0.03466 0.06051 0.05289 0.12904 0.05289 0.19878 0 0.06974 -0.01823 0.13827 -0.05289 0.19878 -0.03465 0.06052 -0.08453 0.11093 -0.14468 0.14622l-3.6 2.1c-0.06107 0.03526 -0.13038 0.05376 -0.2009 0.0536 -0.07053 -0.00016 -0.13975 -0.01896 -0.20067 -0.05449 -0.06091 -0.03553 -0.11135 -0.08654 -0.1462 -0.14785 -0.03485 -0.06131 -0.05287 -0.13074 -0.05223 -0.20126v0Z" stroke-width="1"></path><path id="Vector_2" stroke="#000000" stroke-linecap="round" stroke-linejoin="round" d="M11.5 1.5h-9c-1.10457 0 -2 0.89543 -2 2v7c0 1.1046 0.89543 2 2 2h9c1.1046 0 2 -0.8954 2 -2v-7c0 -1.10457 -0.8954 -2 -2 -2Z" stroke-width="1"></path></g></svg>