<svg xmlns="http://www.w3.org/2000/svg" fill="none" viewBox="0 0 14 14"><g id="zoom-out-area"><path id="Vector 1019" stroke="#000000" stroke-linecap="round" stroke-linejoin="round" d="M6.75 8.5h3.5" stroke-width="1"></path><path id="Vector 40" stroke="#000000" stroke-linecap="round" stroke-linejoin="round" d="M0.5 10.5v1.0716c0 0.5129 0.415738 0.9286 0.92858 0.9286L2.50003 12.5" stroke-width="1"></path><path id="Vector 160" stroke="#000000" stroke-linecap="round" stroke-linejoin="round" d="M0.5 5.25v2.5" stroke-width="1"></path><path id="Vector 159" stroke="#000000" stroke-linecap="round" stroke-linejoin="round" d="M0.5 2.5V1.42858C0.5 0.915738 0.915738 0.5 1.42858 0.5h1.07145" stroke-width="1"></path><path id="Vector 158" stroke="#000000" stroke-linecap="round" stroke-linejoin="round" d="M5.25 0.5h2.5" stroke-width="1"></path><path id="Vector 157" stroke="#000000" stroke-linecap="round" stroke-linejoin="round" d="M10.5 0.5h1.0715c0.5128 0 0.9285 0.415738 0.9285 0.92858L12.5 2.5" stroke-width="1"></path><path id="Ellipse 123" stroke="#000000" stroke-linecap="round" stroke-linejoin="round" d="M4.5 8.5a4 4 0 1 0 8 0 4 4 0 1 0 -8 0" stroke-width="1"></path><path id="Vector 156" stroke="#000000" stroke-linecap="round" stroke-linejoin="round" d="m13.4984 13.4988 -2.1703 -2.1703" stroke-width="1"></path></g></svg>