<svg width="32" height="11" viewBox="0 0 32 11" fill="none" xmlns="http://www.w3.org/2000/svg">
<path d="M24.6235 3.18677H23.5443L21.7115 6.86143L19.8846 3.18677H18.8223C19.9684 5.4902 21.7211 9.01932 21.7211 9.01932L24.6235 3.18677Z" fill="#F7981D"/>
<path d="M16.2525 4.05647C17.1474 4.05647 17.9011 4.67834 18.1069 5.51551H14.3981C14.6039 4.67954 15.3576 4.05647 16.2525 4.05647ZM16.2525 7.89713C15.3576 7.89713 14.6039 7.27526 14.3981 6.43929H19.0831V5.9774C19.0831 4.4089 17.8137 3.13269 16.2525 3.13269C14.6912 3.13269 13.4219 4.4089 13.4219 5.9774C13.4219 7.5459 14.6924 8.82211 16.2525 8.82211C17.3256 8.82211 18.2779 8.2231 18.7577 7.30293H17.6355C17.2838 7.6722 16.7909 7.89713 16.2525 7.89713Z" fill="#F7981D"/>
<path d="M27.1751 7.91751C26.1211 7.91751 25.2645 7.05508 25.2645 5.99778C25.2645 4.94049 26.1223 4.07806 27.1751 4.07806C28.2279 4.07806 29.0666 4.92245 29.0845 5.96651V6.03026C29.0678 7.07432 28.2184 7.91872 27.1751 7.91872M30.0057 5.99899C30.0057 5.98937 30.0057 5.97854 30.0057 5.96651V3.20239H29.0857V3.90365C28.582 3.43935 27.9133 3.15308 27.1763 3.15308C25.6162 3.15308 24.3457 4.42929 24.3457 5.99778C24.3457 7.56628 25.6162 8.84249 27.1763 8.84249C27.9121 8.84249 28.5809 8.55622 29.0857 8.09192V8.79799H30.0057V6.02906C30.0057 6.01823 30.0057 6.00741 30.0057 5.99778" fill="#F7981D"/>
<path d="M9.97048 4.05647C10.8654 4.05647 11.6179 4.67834 11.8249 5.51551H8.11491C8.32188 4.67954 9.0744 4.05647 9.97048 4.05647ZM9.97048 7.89713C9.0744 7.89713 8.32188 7.27526 8.11491 6.43929H12.7999V5.9774C12.7999 4.4089 11.5305 3.13269 9.96928 3.13269C8.40802 3.13269 7.13867 4.4089 7.13867 5.9774C7.13867 7.5459 8.40802 8.82211 9.96928 8.82211C11.0412 8.82211 11.9935 8.2231 12.4733 7.30293H11.3511C11.0006 7.6722 10.5065 7.89713 9.96928 7.89713" fill="#F7981D"/>
<path d="M1.24219 2.32312H2.37874L4.54297 6.69423L6.69165 2.32312H7.80667L4.53101 9.01089L1.24219 2.32312Z" fill="#F7981D"/>
<path d="M3.04688 2.33515L4.52678 5.30254L6.0043 2.33515C6.0043 2.33515 3.04688 2.33033 3.04688 2.33515Z" fill="#898A8D"/>
</svg>
